<?xml version="1.0" standalone="no"?>
<!DOCTYPE svg PUBLIC "-//W3C//DTD SVG 20010904//EN"
 "http://www.w3.org/TR/2001/REC-SVG-20010904/DTD/svg10.dtd">
<svg version="1.0" xmlns="http://www.w3.org/2000/svg"
 width="1080.000000pt" height="1080.000000pt" viewBox="0 0 1080.000000 1080.000000"
 preserveAspectRatio="xMidYMid meet">

<g transform="translate(0.000000,1080.000000) scale(0.100000,-0.100000)"
fill="#000000" stroke="none">
<path d="M9560 10735 c0 -3 16 -28 36 -56 27 -37 58 -63 117 -97 91 -53 90
-54 -50 -67 l-79 -7 -75 63 c-75 63 -122 89 -159 89 -29 0 -25 -11 18 -52 23
-23 64 -47 109 -63 108 -40 113 -55 21 -55 -94 0 -158 19 -239 71 -35 23 -91
55 -124 70 -62 29 -165 49 -165 32 0 -16 179 -103 211 -103 34 0 203 -71 191
-81 -4 -3 -27 -11 -51 -18 -24 -7 -74 -32 -110 -54 l-66 -42 33 -3 c45 -5 125
24 175 62 63 47 61 47 155 57 48 4 116 13 152 18 36 6 94 10 130 10 l65 0 -48
-19 c-48 -18 -143 -88 -133 -97 2 -3 20 6 38 20 40 30 118 70 124 64 8 -7 -71
-66 -111 -83 -20 -8 -44 -12 -54 -9 -9 3 -26 -2 -37 -11 -18 -14 -16 -15 29
-10 56 7 113 34 185 89 49 38 55 39 103 34 28 -4 67 -15 86 -27 19 -11 36 -20
39 -20 23 0 -29 157 -68 205 -27 33 -97 85 -114 85 -11 0 5 -80 22 -113 9 -16
39 -53 66 -80 l50 -50 -34 6 c-142 25 -184 38 -206 65 -97 115 -116 132 -166
156 -56 27 -66 30 -66 21z m105 -60 c32 -24 80 -95 54 -80 -32 18 -100 78
-109 95 -9 16 -8 19 7 13 10 -3 32 -16 48 -28z m300 -6 c37 -33 71 -86 61 -96
-3 -3 -13 0 -22 8 -16 13 -16 12 -5 -9 7 -13 10 -27 6 -30 -9 -9 -53 44 -76
93 -34 72 -21 84 36 34z m-879 -35 c46 -19 113 -64 96 -64 -15 0 -152 68 -152
75 0 9 17 5 56 -11z m324 -11 c14 -9 39 -28 55 -41 l30 -25 -29 7 c-46 11
-121 76 -88 76 4 0 19 -8 32 -17z m-87 -204 c-41 -26 -123 -52 -123 -39 0 6 1
10 3 10 1 0 29 11 62 25 73 30 101 32 58 4z"/>
<path d="M10143 10531 c3 -33 12 -74 21 -92 9 -18 14 -34 11 -37 -2 -2 -20 5
-40 17 -40 23 -55 27 -37 9 7 -7 12 -16 12 -21 0 -17 -77 -40 -144 -43 -84 -4
-79 9 16 37 l63 19 -50 -6 c-60 -7 -132 -41 -117 -56 33 -33 163 -25 234 14
34 20 39 20 61 5 33 -21 117 -121 121 -144 2 -10 18 -53 35 -96 17 -43 31 -85
31 -94 0 -28 -63 -184 -73 -180 -5 1 -36 76 -69 165 -58 157 -60 164 -43 182
18 20 17 20 -43 20 -34 0 -62 -2 -62 -3 0 -2 7 -17 15 -33 8 -17 46 -113 84
-214 38 -102 74 -186 79 -188 19 -6 60 58 88 137 16 45 32 81 36 81 3 0 21
-37 38 -82 49 -132 52 -138 59 -138 25 0 65 74 120 220 34 91 71 177 82 193
l20 27 -41 0 c-22 0 -40 -4 -40 -10 0 -5 7 -10 15 -10 8 0 15 -6 15 -14 0 -17
-118 -328 -129 -339 -4 -4 -36 70 -70 164 -47 126 -61 173 -52 182 20 20 12
27 -28 27 -33 0 -43 5 -66 38 -16 20 -39 49 -53 64 -21 23 -25 37 -26 100 -2
80 -33 158 -63 158 -13 0 -15 -9 -10 -59z m46 -52 c7 -34 10 -63 8 -66 -6 -6
-34 72 -41 116 -11 62 20 16 33 -50z m-192 -125 c-3 -3 -12 -4 -19 -1 -8 3 -5
6 6 6 11 1 17 -2 13 -5z"/>
<path d="M8588 10214 c21 -15 22 -20 22 -199 0 -179 -1 -184 -22 -199 -21 -15
-14 -16 92 -14 63 1 97 3 75 5 -93 8 -85 -12 -85 208 l0 195 64 0 c121 0 171
-63 171 -217 0 -104 -14 -134 -76 -165 -40 -21 -23 -24 24 -5 66 28 127 121
127 195 0 55 -24 116 -61 153 -46 46 -100 59 -247 59 -99 0 -105 -1 -84 -16z"/>
<path d="M9043 10216 c16 -13 18 -31 15 -215 l-3 -201 50 0 c39 1 46 3 33 11
-15 8 -18 24 -18 91 0 78 1 80 23 74 12 -3 32 -6 44 -6 21 0 32 -14 112 -132
23 -35 28 -38 74 -38 l50 0 -36 33 c-20 17 -55 57 -77 87 -37 50 -39 56 -23
65 10 6 35 26 55 46 33 32 38 43 38 81 0 56 -27 93 -78 108 -20 5 -91 10 -157
10 -103 -1 -118 -3 -102 -14z m252 -36 c36 -37 40 -115 8 -158 -17 -23 -28
-27 -79 -30 -106 -6 -104 -8 -104 116 l0 107 74 -3 c66 -3 77 -7 101 -32z"/>
<path d="M9710 10220 c0 -5 7 -10 15 -10 23 0 22 -371 -1 -394 -14 -15 -4 -16
115 -18 72 -1 141 -2 152 -2 18 -1 24 8 35 49 7 28 11 51 9 53 -1 2 -13 -10
-26 -25 -44 -52 -68 -63 -141 -63 l-68 0 0 198 c0 141 3 201 12 210 9 9 -1 12
-45 12 -31 0 -57 -4 -57 -10z"/>
<path d="M9464 9856 c-11 -28 1 -51 27 -54 29 -3 44 18 34 49 -8 23 -53 26
-61 5z"/>
<path d="M10625 9671 c-29 -6 -30 -9 -33 -64 l-3 -57 48 1 48 1 -43 10 c-33 7
-42 13 -38 25 3 8 6 28 6 44 0 27 3 29 36 29 21 0 33 4 29 10 -3 6 -9 9 -13 9
-4 -1 -20 -4 -37 -8z"/>
<path d="M9017 9663 c-18 -17 -5 -44 28 -60 19 -9 35 -20 35 -24 0 -11 -31
-20 -51 -14 -11 4 -19 2 -19 -5 0 -7 14 -10 38 -8 29 2 38 7 40 25 3 17 -5 26
-33 37 -42 18 -42 42 -1 39 14 -1 26 2 26 8 0 10 -53 13 -63 2z"/>
<path d="M9230 9610 c0 -33 4 -60 10 -60 6 0 10 27 10 60 0 33 -4 60 -10 60
-6 0 -10 -27 -10 -60z"/>
<path d="M9286 9639 l-27 -32 27 -28 c33 -34 53 -39 30 -6 -28 38 -29 47 -11
67 10 11 16 23 13 25 -3 3 -18 -8 -32 -26z"/>
<path d="M9473 9610 c0 -36 2 -50 4 -32 2 17 2 47 0 65 -2 17 -4 3 -4 -33z"/>
<path d="M9630 9610 c0 -33 4 -60 10 -60 6 0 10 21 10 46 l0 46 33 -43 c48
-63 57 -61 57 10 0 71 -17 83 -22 15 l-3 -46 -32 46 c-18 25 -37 46 -43 46 -6
0 -10 -26 -10 -60z"/>
<path d="M9897 9658 c-28 -22 -32 -63 -8 -87 22 -22 75 -28 86 -10 4 6 -2 9
-17 8 -45 -4 -58 1 -64 26 -9 38 21 68 59 59 20 -4 27 -3 23 5 -10 15 -58 14
-79 -1z"/>
<path d="M10152 9658 c-17 -23 -51 -108 -42 -108 5 0 12 5 15 10 9 14 68 13
83 -2 18 -18 15 -5 -12 57 -27 60 -29 61 -44 43z m16 -66 c-27 -5 -30 1 -17
34 l11 29 13 -30 c12 -27 12 -30 -7 -33z"/>
<path d="M10360 9611 c0 -37 4 -61 11 -61 6 0 8 9 4 20 -5 16 -2 20 14 20 12
0 26 -9 33 -20 16 -25 32 -26 19 -2 -7 13 -7 22 0 29 6 6 9 23 7 39 -3 26 -7
29 -45 32 l-43 3 0 -60z m70 39 c12 -7 12 -13 4 -27 -23 -38 -72 -24 -59 16 7
22 30 27 55 11z"/>
<path d="M10620 9610 c0 -5 9 -10 19 -10 11 0 23 5 26 10 4 6 -5 10 -19 10
-14 0 -26 -4 -26 -10z"/>
<path d="M4358 7063 c7 -3 16 -2 19 1 4 3 -2 6 -13 5 -11 0 -14 -3 -6 -6z"/>
<path d="M4423 7053 c15 -2 37 -2 50 0 12 2 0 4 -28 4 -27 0 -38 -2 -22 -4z"/>
<path d="M4585 7035 c125 -18 230 -27 224 -20 -8 7 -243 35 -284 34 -16 -1 11
-7 60 -14z"/>
<path d="M6028 7013 c6 -2 18 -2 25 0 6 3 1 5 -13 5 -14 0 -19 -2 -12 -5z"/>
<path d="M8399 6979 c-21 -23 -33 -28 -42 -21 -12 10 -67 5 -67 -7 0 -3 14
-76 32 -163 l32 -156 33 -4 33 -4 0 56 c0 30 -7 94 -16 143 -17 95 -14 127 16
157 25 25 60 25 108 1 36 -18 110 -91 124 -121 4 -9 7 -1 8 20 l1 35 19 -23
c10 -12 21 -28 23 -35 3 -8 14 -1 31 18 l25 30 1 -116 c0 -112 1 -117 22 -123
13 -3 26 -2 29 2 4 4 9 81 10 172 l4 165 -29 3 c-22 3 -34 -4 -55 -29 l-27
-32 -23 31 c-16 24 -30 32 -52 32 -24 0 -29 -4 -29 -23 0 -37 -8 -38 -58 -6
-64 40 -114 40 -153 -2z m4 -240 l6 -54 -14 55 c-8 30 -16 73 -19 95 l-5 40
13 -41 c8 -22 16 -65 19 -95z"/>
<path d="M8911 6943 c-5 -21 -23 -91 -41 -156 -17 -65 -28 -122 -25 -126 5
-10 144 -46 150 -40 2 2 6 16 10 30 6 25 4 27 -45 39 -45 11 -50 15 -45 34 4
11 9 29 12 39 4 15 11 17 36 11 60 -14 72 -11 75 17 3 24 -2 28 -43 38 -46 11
-46 12 -40 44 4 18 9 34 11 36 2 2 24 -2 50 -8 53 -13 49 -15 57 20 7 26 4 27
-58 43 -89 22 -93 21 -104 -21z"/>
<path d="M8025 6960 c-3 -6 1 -7 9 -4 18 7 21 14 7 14 -6 0 -13 -4 -16 -10z"/>
<path d="M9093 6759 l-72 -150 25 -11 c13 -6 26 -9 28 -7 2 2 21 38 40 79 l36
75 -5 -97 c-4 -91 -3 -98 16 -109 11 -6 22 -9 24 -7 8 8 145 289 145 296 0 5
-11 14 -24 20 -23 10 -25 7 -60 -69 -20 -43 -38 -79 -39 -79 -2 0 -1 43 1 96
4 96 -1 114 -33 114 -5 0 -42 -68 -82 -151z"/>
<path d="M8125 6893 c-30 -7 -63 -42 -70 -74 -10 -43 69 -216 110 -240 43 -27
78 -24 114 10 43 41 41 75 -15 189 -38 79 -51 96 -79 108 -19 8 -36 13 -37 13
-2 -1 -12 -3 -23 -6z m47 -70 c8 -10 30 -51 48 -91 26 -56 31 -78 23 -90 -23
-37 -47 -19 -92 69 -36 73 -41 90 -32 108 14 26 33 27 53 4z"/>
<path d="M7829 6833 c-13 -16 -12 -17 4 -4 9 7 17 15 17 17 0 8 -8 3 -21 -13z"/>
<path d="M7779 6793 l-24 -28 28 24 c15 14 27 26 27 28 0 8 -8 1 -31 -24z"/>
<path d="M9315 6653 c-55 -69 -101 -130 -103 -134 -2 -4 18 -23 44 -43 36 -28
56 -36 87 -36 35 0 46 6 84 46 118 128 128 179 46 251 -26 24 -50 42 -53 42
-3 0 -50 -57 -105 -126z m143 25 c21 -21 13 -45 -35 -105 -64 -79 -80 -87
-116 -60 -15 11 -10 20 49 95 66 83 80 92 102 70z"/>
<path d="M7685 6708 l-50 -53 53 50 c48 46 57 55 49 55 -1 0 -25 -24 -52 -52z"/>
<path d="M7873 6745 c-28 -20 -46 -75 -34 -106 16 -43 123 -171 153 -184 39
-16 72 -9 103 22 30 31 34 90 8 122 -17 20 -20 20 -40 6 -19 -13 -21 -19 -11
-40 14 -32 4 -55 -24 -55 -30 0 -131 130 -126 163 4 28 34 34 59 11 19 -17 21
-17 41 3 l21 21 -26 26 c-30 30 -89 35 -124 11z"/>
<path d="M7609 6623 c-43 -48 -62 -73 -57 -73 3 0 24 23 47 50 45 53 52 69 10
23z"/>
<path d="M7452 6536 c-69 -104 -126 -221 -166 -340 -31 -93 -66 -260 -65 -308
1 -18 7 7 15 55 36 231 122 448 251 630 19 27 33 51 31 53 -3 2 -32 -38 -66
-90z"/>
<path d="M7679 6558 l-53 -61 26 -21 c14 -12 71 -61 128 -111 56 -49 103 -90
105 -90 1 0 25 27 53 60 51 60 51 60 32 80 -20 19 -20 19 -58 -18 l-38 -37
-29 30 -29 30 35 36 34 35 -25 19 -25 19 -31 -36 c-31 -37 -31 -37 -58 -20
-34 22 -33 37 4 72 17 16 30 31 30 34 0 3 -11 14 -24 23 -23 17 -24 17 -77
-44z"/>
<path d="M8680 6525 c0 -43 5 -95 11 -116 16 -50 64 -108 107 -126 37 -15 65
-12 221 28 41 11 119 22 173 26 l99 6 -23 25 c-68 73 -235 167 -360 202 -40
11 -108 23 -150 27 l-78 6 0 -78z"/>
<path d="M9498 6486 l-128 -105 26 -30 c14 -17 30 -31 36 -31 5 0 23 -9 39
-21 44 -31 54 -13 18 32 -33 42 -31 57 14 81 17 9 25 5 51 -27 l31 -37 24 19
24 19 -33 38 -33 37 27 27 27 27 34 -38 c30 -35 35 -37 54 -25 12 7 21 17 21
21 0 11 -90 117 -99 117 -3 0 -63 -47 -133 -104z"/>
<path d="M8314 6526 c-232 -106 -403 -305 -480 -561 -24 -80 -27 -106 -27
-235 0 -129 3 -155 26 -233 49 -158 123 -282 238 -392 34 -33 59 -55 55 -49
-10 19 92 52 251 81 l41 8 -221 308 -222 307 -82 -6 c-59 -5 -83 -3 -83 5 0 6
18 11 43 11 98 0 210 45 284 113 56 52 74 87 107 212 15 55 51 165 80 245 63
170 73 210 54 209 -7 0 -36 -11 -64 -23z"/>
<path d="M6478 6493 c7 -3 16 -2 19 1 4 3 -2 6 -13 5 -11 0 -14 -3 -6 -6z"/>
<path d="M6280 6464 c-47 -8 -173 -24 -280 -36 -179 -20 -242 -22 -767 -23
-314 0 -574 -3 -577 -6 -4 -3 7 -6 24 -7 48 -1 48 0 41 -92 -2 -23 -3 -24 -11
-5 -8 19 -9 19 -9 -2 -1 -13 4 -23 10 -23 6 0 17 -6 25 -14 7 -8 24 -23 37
-33 13 -10 31 -30 41 -45 18 -27 18 -28 0 -29 -17 0 -17 -1 1 -8 11 -5 142
-13 290 -19 490 -19 988 16 1295 90 25 6 48 14 53 17 10 10 -12 119 -35 170
-11 24 -17 52 -15 62 6 22 1 22 -123 3z"/>
<path d="M4608 6413 c7 -3 16 -2 19 1 4 3 -2 6 -13 5 -11 0 -14 -3 -6 -6z"/>
<path d="M7557 6370 c-31 -24 -81 -111 -70 -121 5 -4 70 -42 147 -85 131 -73
139 -77 152 -59 8 10 14 22 14 26 0 4 -27 24 -60 44 -51 31 -58 39 -50 55 17
31 40 32 95 1 l53 -30 17 26 c19 29 20 28 -57 68 -26 14 -55 25 -63 25 -9 0
-31 16 -49 35 -39 41 -88 47 -129 15z m83 -55 c10 -12 10 -21 0 -44 -12 -30
-12 -30 -45 -14 -30 14 -33 19 -23 37 20 38 47 46 68 21z"/>
<path d="M9655 6322 c-71 -37 -129 -71 -128 -77 7 -32 49 -131 58 -137 22 -16
63 -6 134 31 41 21 85 49 98 61 32 31 31 88 -3 146 -14 24 -27 44 -27 44 -1
-1 -60 -31 -132 -68z m119 -28 c15 -40 6 -53 -66 -94 -79 -44 -103 -46 -125
-14 -13 21 -10 24 79 72 51 28 96 51 99 52 4 0 10 -7 13 -16z"/>
<path d="M7530 5896 c0 -17 16 -30 23 -19 3 5 -1 14 -9 21 -12 10 -14 10 -14
-2z"/>
<path d="M9782 5895 c-11 -12 -10 -15 3 -15 8 0 15 7 15 15 0 18 -2 18 -18 0z"/>
<path d="M5500 5857 l45 -49 -60 7 c-38 5 -66 14 -75 25 -8 9 -24 20 -35 24
-18 6 -17 5 3 -17 l24 -25 -50 -7 c-39 -5 -56 -3 -76 10 -14 9 -31 15 -38 12
-7 -2 -1 -8 15 -12 15 -4 27 -12 27 -17 0 -6 30 -8 78 -5 42 3 67 3 55 1 -13
-3 -23 -8 -23 -12 0 -11 59 -12 65 -2 4 6 23 10 44 10 41 0 67 -20 58 -44 -5
-12 1 -13 29 -9 21 4 40 1 50 -8 16 -13 17 -9 12 39 -3 30 -12 61 -21 70 -26
25 -33 5 -12 -33 10 -20 15 -38 12 -41 -10 -10 -57 25 -57 41 0 8 -4 15 -9 15
-5 0 -11 10 -14 21 -4 15 -11 20 -23 15 -11 -4 -27 2 -43 16 -14 12 -6 1 19
-25z"/>
<path d="M5079 5849 c18 -11 35 -18 38 -15 5 5 -50 36 -64 36 -4 0 7 -9 26
-21z"/>
<path d="M7214 5730 c0 -69 1 -97 3 -62 2 34 2 90 0 125 -2 34 -3 6 -3 -63z"/>
<path d="M5165 5793 c-20 -15 -19 -15 5 -9 14 3 29 6 33 6 5 0 5 5 2 10 -8 14
-16 12 -40 -7z"/>
<path d="M9600 5778 c-13 -18 -29 -37 -37 -41 -7 -4 -13 -13 -13 -19 0 -16 49
32 66 65 19 36 13 34 -16 -5z"/>
<path d="M5470 5750 c-8 -5 -12 -11 -9 -14 3 -3 14 1 25 9 21 16 8 20 -16 5z"/>
<path d="M5338 5743 c7 -3 16 -2 19 1 4 3 -2 6 -13 5 -11 0 -14 -3 -6 -6z"/>
<path d="M5672 5703 c30 -36 59 -112 48 -131 -5 -9 -13 -32 -18 -51 l-8 -34
-33 74 c-18 41 -33 84 -33 97 0 18 -6 22 -29 22 -16 0 -29 -2 -29 -4 0 -3 21
-52 62 -146 38 -85 57 -87 84 -7 l17 51 26 -52 c17 -35 31 -51 41 -49 18 4 18
4 -20 96 -16 40 -30 82 -30 92 0 12 -7 19 -18 19 -11 0 -27 9 -37 20 -22 25
-44 27 -23 3z"/>
<path d="M9559 5670 c97 -98 3 -213 -212 -261 -32 -7 -60 -16 -62 -19 -7 -11
115 16 174 39 l50 19 26 -25 c39 -40 34 -84 -14 -125 -50 -43 -98 -60 -246
-88 -66 -12 -129 -26 -140 -31 -29 -13 84 1 184 21 83 18 84 18 60 -1 -39 -30
-158 -76 -244 -94 -44 -9 -90 -21 -102 -27 -28 -14 -214 -4 -333 17 -121 22
-265 29 -337 17 -103 -18 -224 -53 -220 -66 8 -26 167 -109 277 -144 111 -35
120 -37 255 -36 122 1 152 5 230 28 122 37 247 105 336 183 41 35 90 73 110
83 20 10 56 34 80 52 24 18 62 45 85 60 69 45 81 114 28 163 l-25 23 31 22
c67 48 79 127 29 185 -17 19 -35 35 -41 35 -5 0 4 -14 21 -30z"/>
<path d="M4774 5674 c3 -9 6 -58 6 -110 0 -77 3 -94 15 -94 12 0 15 19 15 110
0 105 -1 110 -21 110 -15 0 -19 -4 -15 -16z"/>
<path d="M5866 5677 c3 -8 -7 -46 -21 -86 -15 -40 -25 -75 -22 -77 2 -3 14 24
27 58 12 35 28 75 36 91 14 25 14 27 -5 27 -13 0 -18 -5 -15 -13z"/>
<path d="M4900 5652 c33 -34 47 -89 31 -132 -13 -38 7 -37 26 1 27 52 10 114
-37 142 -43 26 -52 20 -20 -11z"/>
<path d="M5020 5670 c-18 -11 -8 -199 12 -211 10 -6 14 2 16 36 3 39 6 45 25
45 15 0 36 -16 60 -45 23 -27 46 -45 59 -45 18 0 15 7 -23 49 -37 41 -50 49
-81 50 l-38 1 0 59 c0 62 -7 76 -30 61z"/>
<path d="M5123 5658 c28 -10 43 -44 34 -78 -7 -26 9 -26 23 -1 25 47 -5 92
-60 90 l-25 -1 28 -10z"/>
<path d="M5378 5658 c17 -17 16 -194 0 -202 -7 -2 28 -4 77 -3 l90 2 3 30 4
30 -22 -28 c-17 -21 -30 -27 -59 -27 l-38 0 -6 90 c-4 49 -4 96 -1 105 5 12
-1 15 -27 15 -26 0 -30 -3 -21 -12z"/>
<path d="M7221 5572 c-2 -52 36 -221 70 -319 40 -114 123 -273 196 -376 123
-172 329 -349 515 -443 126 -63 122 -54 -5 14 -143 76 -248 156 -367 278 -214
220 -347 488 -395 799 -7 44 -13 65 -14 47z"/>
<path d="M7458 5574 c-12 -11 -10 -42 3 -50 6 -3 18 1 27 10 15 15 15 16 0 16
-9 0 -18 7 -20 16 -2 9 -6 12 -10 8z"/>
<path d="M9871 5552 c-1 -9 -9 -11 -23 -8 l-23 6 23 -12 c24 -12 37 -7 29 14
-4 11 -6 11 -6 0z"/>
<path d="M5235 5480 c-8 -14 3 -30 21 -30 8 0 14 9 14 20 0 21 -24 28 -35 10z"/>
<path d="M5853 5390 c1 -12 8 -20 20 -20 16 0 17 3 8 14 -9 11 -9 15 1 19 7 3
3 6 -9 6 -16 1 -21 -4 -20 -19z"/>
<path d="M5728 5393 c6 -2 18 -2 25 0 6 3 1 5 -13 5 -14 0 -19 -2 -12 -5z"/>
<path d="M5331 5354 c1 -22 3 -30 6 -19 3 11 10 23 15 26 5 3 2 12 -7 19 -13
11 -15 8 -14 -26z"/>
<path d="M5625 5371 l20 -24 -22 7 c-14 5 -23 3 -23 -3 0 -13 37 -15 44 -2 3
4 -4 17 -17 27 l-22 19 20 -24z"/>
<path d="M5242 5355 c0 -16 2 -22 5 -12 2 9 2 23 0 30 -3 6 -5 -1 -5 -18z"/>
<path d="M5380 5366 c0 -8 -4 -16 -9 -18 -5 -1 -3 -8 4 -15 10 -9 14 -6 17 18
3 16 1 29 -4 29 -4 0 -8 -6 -8 -14z"/>
<path d="M5466 5365 c-3 -8 -1 -15 4 -15 6 0 10 7 10 15 0 8 -2 15 -4 15 -2 0
-6 -7 -10 -15z"/>
<path d="M5130 5361 c0 -6 4 -13 10 -16 6 -3 7 1 4 9 -7 18 -14 21 -14 7z"/>
<path d="M5725 5360 c3 -5 16 -10 28 -10 18 0 19 2 7 10 -20 13 -43 13 -35 0z"/>
<path d="M5864 5348 c10 -6 22 -6 26 -2 5 5 -3 10 -18 11 -22 1 -24 0 -8 -9z"/>
<path d="M7590 5240 c0 -15 21 -23 32 -12 6 6 2 11 -11 15 -12 3 -21 1 -21 -3z"/>
<path d="M9730 5241 c0 -7 -4 -9 -10 -6 -5 3 -10 1 -10 -4 0 -6 4 -11 9 -11
13 0 25 20 17 27 -3 4 -6 1 -6 -6z"/>
<path d="M7738 5142 c-64 -48 -123 -92 -129 -99 -10 -10 -6 -21 16 -53 38 -54
62 -70 106 -70 40 0 99 39 99 66 0 8 9 14 20 14 52 0 100 49 100 102 0 27 -67
128 -84 127 -6 0 -64 -40 -128 -87z m140 -47 c-4 -27 -35 -31 -60 -9 -20 19
-20 19 9 41 26 22 29 22 41 6 7 -10 11 -27 10 -38z m-108 -76 c0 -39 -60 -49
-74 -12 -5 11 3 24 21 39 26 21 29 21 41 7 6 -9 12 -24 12 -34z"/>
<path d="M9406 5141 c-25 -33 -46 -61 -46 -64 0 -7 258 -207 267 -207 7 1 64
71 86 108 8 13 -17 52 -33 52 -4 0 -20 -18 -35 -40 l-27 -39 -34 25 -34 26 32
40 32 41 -24 19 -24 19 -32 -37 c-31 -38 -31 -38 -58 -21 -32 21 -32 22 -1 63
14 18 25 36 25 40 0 7 -31 33 -41 34 -3 0 -27 -27 -53 -59z"/>
<path d="M7899 4977 c-101 -111 -150 -141 -221 -135 -21 2 -38 0 -38 -5 0 -5
33 -42 73 -82 425 -423 1078 -517 1632 -233 142 73 352 254 434 374 l33 49
-38 -45 c-90 -105 -143 -155 -219 -205 -84 -56 -130 -75 -245 -101 -38 -8 -82
-25 -97 -37 l-28 -22 23 29 c12 16 22 42 22 59 0 44 -77 213 -105 231 -54 35
-127 8 -146 -52 -10 -35 -8 -46 31 -139 46 -112 76 -140 138 -131 18 2 32 3
32 2 0 -11 -147 -67 -217 -82 -154 -35 -182 -39 -276 -41 -225 -4 -491 65
-592 153 l-40 35 28 1 c39 0 87 49 87 89 0 17 -12 56 -27 86 -30 60 -25 90 13
90 15 0 19 -7 18 -30 0 -16 -4 -37 -8 -46 -5 -11 1 -19 19 -27 34 -16 32 -16
50 19 13 24 20 29 38 23 12 -3 24 -8 26 -10 2 -2 -17 -61 -43 -131 -43 -120
-45 -129 -29 -141 10 -7 24 -11 32 -10 8 2 33 56 59 131 48 136 43 131 98 110
7 -2 16 9 22 25 l10 30 -82 31 c-91 34 -106 37 -106 19 0 -7 -9 1 -20 19 -23
38 -48 53 -90 53 -42 0 -67 -15 -85 -50 -21 -41 -19 -65 12 -125 28 -56 26
-85 -6 -85 -24 0 -34 25 -20 52 11 20 0 37 -23 38 -3 0 -12 15 -18 34 -9 27
-8 39 2 56 12 20 10 24 -25 54 l-38 32 26 24 25 24 35 -34 c34 -33 35 -33 55
-15 11 10 20 23 20 30 0 7 -27 35 -59 63 l-59 52 -93 -103z m1207 -211 c12
-21 30 -62 40 -92 17 -50 17 -55 2 -71 -24 -23 -39 -7 -77 82 -34 83 -37 95
-19 113 18 18 30 10 54 -32z"/>
<path d="M9302 5025 c-73 -31 -80 -104 -15 -183 79 -97 110 -122 151 -122 49
0 79 22 93 69 9 31 8 43 -5 69 -22 42 -30 45 -57 23 -19 -16 -22 -22 -11 -32
18 -19 15 -56 -5 -64 -23 -9 -143 119 -143 153 0 29 24 38 53 19 21 -13 25
-13 47 5 23 19 23 19 4 39 -30 29 -75 39 -112 24z"/>
<path d="M4672 4833 l2 -108 5 95 c3 52 9 91 12 85 4 -5 19 -47 33 -92 15 -46
31 -85 36 -88 5 -3 21 34 37 81 25 77 29 84 34 58 4 -16 7 -55 8 -86 1 -36 5
-58 12 -58 8 0 10 29 4 103 -4 56 -8 104 -10 106 -14 13 -34 -17 -55 -83 -13
-42 -26 -76 -30 -76 -3 0 -18 38 -34 85 -17 54 -32 85 -42 85 -11 0 -14 -20
-12 -107z"/>
<path d="M5880 4830 c0 -62 4 -110 9 -110 6 0 11 21 13 48 3 42 6 47 28 50 20
2 30 -7 52 -44 16 -25 33 -42 38 -39 7 4 2 22 -14 50 -25 42 -25 43 -6 60 22
20 26 65 8 83 -7 7 -38 12 -70 12 l-58 0 0 -110z m105 55 c0 -28 -3 -30 -42
-33 -41 -3 -43 -2 -43 26 0 38 7 44 50 40 32 -3 35 -6 35 -33z"/>
<path d="M9158 4924 l-28 -14 82 -133 c113 -185 100 -169 129 -150 13 9 25 17
27 19 4 3 -156 264 -172 281 -8 9 -17 8 -38 -3z"/>
<path d="M5710 4829 c-33 -107 -36 -166 -5 -91 18 42 20 43 59 40 33 -3 41 -7
46 -28 3 -14 14 -26 23 -28 15 -3 12 11 -18 93 -40 112 -42 115 -60 115 -9 0
-25 -36 -45 -101z m70 -6 c0 -18 -6 -23 -26 -23 -19 0 -24 4 -20 18 3 9 8 30
12 46 l7 29 13 -24 c7 -13 13 -34 14 -46z"/>
<path d="M4920 4815 c0 -63 4 -105 10 -105 6 0 10 42 10 105 0 63 -4 105 -10
105 -6 0 -10 -42 -10 -105z"/>
<path d="M5015 4895 c-14 -13 -25 -37 -26 -52 -4 -95 24 -142 86 -143 36 0 48
7 64 38 18 35 3 41 -21 9 -44 -60 -108 -19 -108 70 0 77 58 110 99 56 23 -28
37 -26 27 5 -7 21 -45 42 -77 42 -11 0 -31 -11 -44 -25z"/>
<path d="M5530 4811 l0 -111 58 0 c31 0 63 4 71 9 23 15 -5 23 -54 16 l-44 -7
-3 98 c-2 67 -7 99 -15 102 -10 3 -13 -23 -13 -107z"/>
<path d="M5190 4805 l0 -105 70 0 c40 0 70 4 70 10 0 6 -27 10 -60 10 l-60 0
0 40 0 40 40 0 c22 0 40 5 40 10 0 6 -18 10 -40 10 -39 0 -40 1 -40 35 l0 35
55 0 c30 0 55 5 55 10 0 6 -28 10 -65 10 l-65 0 0 -105z"/>
<path d="M5370 4805 l0 -105 65 0 c37 0 65 4 65 10 0 6 -25 10 -55 10 l-55 0
0 95 c0 57 -4 95 -10 95 -6 0 -10 -42 -10 -105z"/>
<path d="M8902 4813 c-26 -5 -25 3 -6 -108 5 -31 4 -35 -14 -35 -11 0 -27 -2
-35 -6 -11 -4 -16 7 -21 46 -4 27 -9 57 -12 65 -7 16 -49 21 -58 6 -3 -4 6
-73 20 -152 35 -204 29 -186 65 -181 31 4 31 6 26 46 -4 22 -9 55 -13 73 -6
28 -3 33 19 38 37 10 45 1 52 -59 4 -29 11 -59 15 -66 10 -17 60 -5 60 15 0
13 -42 241 -55 303 -3 12 -9 21 -13 21 -4 -1 -18 -4 -30 -6z"/>
<path d="M8591 4774 c-37 -27 -51 -74 -51 -179 0 -93 1 -98 29 -126 58 -58
148 -26 166 59 6 31 6 32 -29 32 -28 0 -35 -4 -38 -21 -4 -29 -33 -48 -50 -31
-17 17 -12 192 7 211 20 20 44 6 51 -29 5 -25 11 -30 35 -30 24 0 29 4 29 25
0 34 -25 82 -49 95 -29 15 -73 12 -100 -6z"/>
<path d="M4810 4604 c0 -4 7 -12 15 -18 8 -6 24 -58 37 -118 26 -128 40 -137
77 -50 13 31 28 61 32 66 4 4 12 -18 18 -50 22 -114 33 -113 88 13 24 54 52
105 63 115 32 26 24 38 -24 38 -49 0 -67 -13 -39 -28 16 -9 15 -15 -11 -82
-16 -39 -30 -69 -32 -67 -2 2 -10 34 -18 73 -13 60 -13 70 0 77 27 15 14 27
-31 27 -25 0 -45 -4 -45 -10 0 -5 4 -10 9 -10 21 0 18 -34 -8 -96 -31 -73 -31
-73 -51 30 -11 52 -10 60 4 68 9 5 14 13 11 19 -7 10 -95 13 -95 3z"/>
<path d="M5435 4579 c-5 -20 -16 -34 -32 -40 -24 -9 -24 -11 -9 -22 16 -11 16
-17 -1 -79 -16 -63 -16 -69 -1 -84 14 -15 21 -15 48 -4 30 13 57 46 46 58 -3
3 -17 -5 -31 -18 -14 -13 -28 -21 -31 -18 -3 3 3 37 13 75 15 56 22 69 41 71
27 4 29 22 2 22 -17 0 -18 3 -10 26 11 28 6 44 -15 44 -7 0 -16 -14 -20 -31z"/>
<path d="M5831 4554 c-17 -12 -25 -13 -30 -5 -15 24 -91 -20 -91 -53 0 -13 24
-5 36 12 12 16 13 15 14 -8 0 -14 -7 -47 -15 -74 -19 -63 -19 -66 4 -66 14 0
22 12 30 46 15 58 53 133 58 117 6 -18 28 -16 43 2 10 12 10 18 0 30 -16 19
-20 19 -49 -1z"/>
<path d="M5559 4511 c-34 -33 -39 -45 -39 -83 0 -55 22 -78 73 -78 26 0 46 8
69 29 44 40 30 49 -22 15 -47 -31 -75 -25 -75 17 0 19 7 25 41 31 49 10 84 40
84 72 0 26 -17 36 -62 36 -22 0 -41 -11 -69 -39z m88 -15 c-7 -18 -53 -39 -71
-33 -6 2 4 19 22 37 24 23 36 30 44 22 6 -6 8 -18 5 -26z"/>
<path d="M5182 4524 c-31 -22 -52 -66 -52 -113 0 -33 5 -44 26 -57 22 -15 31
-16 61 -5 25 10 38 10 46 2 18 -18 42 -13 67 14 27 28 20 47 -8 22 -29 -27
-31 -11 -9 69 21 77 18 96 -12 77 -11 -7 -23 -8 -32 -2 -22 14 -62 11 -87 -7z
m84 -26 c13 -21 5 -69 -17 -100 -16 -22 -28 -28 -48 -26 -22 3 -26 8 -29 38
-3 47 29 100 62 100 14 0 28 -5 32 -12z"/>
<path d="M8120 4380 c8 -5 20 -10 25 -10 6 0 3 5 -5 10 -8 5 -19 10 -25 10 -5
0 -3 -5 5 -10z"/>
<path d="M8160 4366 c0 -2 7 -7 16 -10 8 -3 12 -2 9 4 -6 10 -25 14 -25 6z"/>
<path d="M6135 4230 c-297 -38 -470 -50 -815 -60 l-285 -8 395 3 c289 2 428 7
520 19 142 18 310 46 310 52 0 5 -54 3 -125 -6z"/>
<path d="M4768 4183 c6 -2 18 -2 25 0 6 3 1 5 -13 5 -14 0 -19 -2 -12 -5z"/>
<path d="M4938 4173 c7 -3 16 -2 19 1 4 3 -2 6 -13 5 -11 0 -14 -3 -6 -6z"/>
<path d="M6065 4019 c-267 -45 -1003 -59 -1315 -26 -201 22 -202 22 -234 -9
-52 -53 -27 -162 46 -197 58 -27 310 -48 653 -54 487 -9 905 26 962 79 64 59
71 132 19 184 -36 36 -46 38 -131 23z m67 -96 c-6 -59 -9 -62 -13 -10 -3 29 0
47 6 47 7 0 9 -15 7 -37z m-1533 5 c4 -13 11 -36 15 -53 7 -28 7 -29 -8 -10
-13 17 -18 18 -36 7 -20 -12 -21 -12 -15 10 14 45 25 68 30 68 3 0 9 -10 14
-22z m50 -50 c1 -19 7 -28 24 -31 15 -4 12 -5 -8 -4 -29 2 -30 4 -32 52 -2 36
0 45 7 30 5 -11 9 -32 9 -47z m112 25 c20 -53 -19 -93 -55 -57 -30 29 -17 84
20 84 17 0 28 -8 35 -27z m64 17 c18 -8 17 -9 -7 -9 -34 -1 -37 -18 -5 -31 17
-7 18 -9 5 -9 -26 -1 -22 -28 4 -34 31 -9 19 -16 -14 -10 -25 5 -28 9 -28 47
0 56 6 63 45 46z m95 -70 c1 -8 10 3 20 25 17 35 19 36 13 10 -3 -16 -10 -39
-16 -50 -10 -19 -11 -18 -22 10 -7 17 -15 41 -19 55 -5 21 -3 20 9 -5 8 -16
15 -37 15 -45z m88 19 c15 -1 14 -2 -1 -6 -25 -7 -17 -36 13 -45 23 -6 23 -7
-5 -5 -29 2 -30 4 -31 52 -1 28 0 40 3 28 2 -13 12 -24 21 -24z m64 4 c-6 -65
-10 -70 -11 -15 0 28 3 52 7 52 4 0 6 -17 4 -37z m40 -12 c-7 -4 -8 -12 -2
-21 6 -8 10 -19 9 -25 0 -5 -6 1 -13 14 -10 18 -10 29 -2 47 8 18 12 20 14 8
2 -9 -1 -20 -6 -23z m54 14 c-5 -19 -2 -25 9 -25 12 0 15 6 10 23 -5 17 -4 19
4 7 17 -24 13 -40 -9 -40 -11 0 -23 -7 -26 -15 -4 -8 -10 -15 -14 -15 -4 0 0
20 9 45 17 49 27 60 17 20z m191 -42 c-2 -16 -4 -5 -4 22 0 28 2 40 4 28 2
-13 2 -35 0 -50z m285 27 c2 -22 0 -40 -4 -40 -5 0 -8 18 -8 40 0 22 2 40 4
40 2 0 6 -18 8 -40z m-153 -35 c0 -5 -4 -3 -9 5 -5 8 -9 22 -9 30 0 16 17 -16
18 -35z m-32 19 c-3 -3 -12 -4 -19 -1 -8 3 -5 6 6 6 11 1 17 -2 13 -5z m-150
-30 c-3 -3 -12 -4 -19 -1 -8 3 -5 6 6 6 11 1 17 -2 13 -5z"/>
<path d="M4580 3905 c0 -8 4 -15 10 -15 5 0 7 7 4 15 -4 8 -8 15 -10 15 -2 0
-4 -7 -4 -15z"/>
<path d="M4707 3905 c-9 -21 10 -68 26 -62 19 6 15 71 -4 75 -9 2 -19 -4 -22
-13z"/>
<path d="M5899 3368 c0 -18 -3 -26 -6 -18 -2 8 -7 21 -9 29 -7 22 -34 -7 -34
-36 0 -21 4 -24 23 -19 12 3 28 6 35 6 14 0 17 56 2 65 -6 4 -10 -8 -11 -27z"/>
<path d="M4780 3361 c0 -17 2 -31 4 -31 8 0 13 51 5 56 -5 3 -9 -9 -9 -25z"/>
<path d="M4827 3376 c-7 -16 2 -56 12 -56 4 0 5 16 3 35 -5 38 -7 42 -15 21z"/>
<path d="M5930 3360 c0 -18 4 -29 10 -25 6 3 10 15 10 25 0 10 -4 22 -10 25
-6 4 -10 -7 -10 -25z"/>
<path d="M5582 3348 c-2 -32 1 -38 18 -38 16 0 20 6 19 33 l-1 32 -13 -30 -13
-30 -5 35 -4 35 -1 -37z"/>
<path d="M5630 3345 c0 -22 5 -35 13 -35 11 0 13 15 8 63 -1 4 -5 7 -11 7 -5
0 -10 -16 -10 -35z"/>
<path d="M5783 3373 c-7 -2 -13 -18 -13 -35 0 -27 2 -30 25 -24 14 4 25 2 25
-4 0 -5 5 -10 10 -10 6 0 10 16 10 35 0 39 -16 48 -23 13 -4 -20 -4 -19 -6 5
-1 27 -5 30 -28 20z"/>
<path d="M4867 3364 c-11 -11 -8 -42 4 -50 6 -3 16 -1 22 5 9 9 8 11 -5 6 -11
-4 -18 -2 -18 4 0 6 7 11 16 11 9 0 14 5 12 12 -5 14 -22 21 -31 12z"/>
<path d="M4913 3354 c-3 -7 -3 -19 0 -26 4 -8 6 -6 6 5 1 25 19 21 24 -5 l4
-23 2 23 c0 12 5 22 10 22 5 0 12 -10 14 -22 4 -21 4 -20 6 3 1 23 -4 27 -30
31 -20 3 -33 0 -36 -8z"/>
<path d="M5212 3335 c0 -22 3 -30 5 -17 6 28 19 28 26 0 4 -12 9 -19 13 -16
10 10 -6 48 -21 48 -7 0 -16 6 -18 13 -3 6 -5 -6 -5 -28z"/>
<path d="M5471 3340 l-1 -35 50 -3 50 -3 -1 33 c-1 23 -3 27 -6 11 -5 -26 -23
-31 -23 -8 0 21 -27 30 -44 16 -11 -10 -15 -8 -19 6 -3 10 -5 2 -6 -17z m49
-12 c0 -18 -2 -20 -9 -8 -6 8 -7 18 -5 22 9 14 14 9 14 -14z"/>
<path d="M5690 3354 c0 -28 13 -43 35 -41 24 2 35 15 34 42 0 11 -3 14 -6 7
-4 -10 -8 -10 -19 -1 -11 9 -14 9 -14 -1 0 -10 -3 -10 -15 0 -12 10 -15 9 -15
-6z"/>
<path d="M5001 3333 c2 -24 2 -25 6 -5 2 12 9 22 15 22 6 0 8 -11 3 -27 -5
-22 -4 -25 8 -14 12 9 16 9 20 -1 3 -7 6 -3 6 9 1 12 6 25 13 29 7 4 8 3 4 -4
-4 -7 -1 -12 8 -12 10 0 13 6 10 15 -8 20 -31 19 -43 -2 -10 -17 -10 -17 -11
0 0 10 -8 17 -20 17 -15 0 -20 -6 -19 -27z"/>
<path d="M5108 3335 c-6 -30 -3 -43 8 -33 3 4 4 19 2 35 l-3 28 -7 -30z"/>
<path d="M5134 3348 c-4 -6 1 -17 10 -24 13 -9 14 -13 4 -17 -8 -4 -7 -6 5 -6
19 -1 23 25 5 32 -10 4 -10 6 0 6 7 1 10 6 7 11 -8 13 -22 13 -31 -2z"/>
<path d="M5271 3336 c-1 -21 3 -27 14 -22 8 3 15 1 15 -4 0 -16 27 -11 34 5 3
8 1 15 -4 15 -6 0 -10 -6 -10 -12 0 -9 -3 -8 -9 2 -6 8 -7 18 -4 24 4 5 -1 7
-10 3 -9 -3 -18 -1 -21 6 -2 7 -5 -1 -5 -17z"/>
<path d="M5326 3351 c-3 -5 1 -12 10 -15 10 -4 13 -13 9 -26 -5 -15 -3 -18 9
-14 19 7 21 35 4 52 -14 14 -25 15 -32 3z"/>
<path d="M5393 3353 c-7 -3 -13 -17 -12 -31 l0 -27 11 25 11 25 7 -25 c9 -27
11 -26 15 7 2 23 -11 33 -32 26z"/>
<path d="M4800 3341 c0 -6 5 -13 10 -16 6 -3 10 1 10 9 0 9 -4 16 -10 16 -5 0
-10 -4 -10 -9z"/>
<path d="M5180 3325 c0 -14 5 -25 10 -25 6 0 10 11 10 25 0 14 -4 25 -10 25
-5 0 -10 -11 -10 -25z"/>
<path d="M5075 3310 c-3 -5 -1 -10 4 -10 6 0 11 5 11 10 0 6 -2 10 -4 10 -3 0
-8 -4 -11 -10z"/>
<path d="M5940 3283 c0 -7 -49 -12 -123 -12 -19 -1 -30 -7 -37 -23 l-9 -23 0
23 c-1 33 -26 22 -27 -11 -1 -29 -7 -27 119 -31 14 -1 21 4 19 14 -3 12 -1 12
9 3 9 -9 16 -9 33 0 11 7 22 12 23 12 1 0 4 12 8 28 5 17 3 27 -4 27 -6 0 -11
-3 -11 -7z m-33 -45 c-3 -8 -6 -5 -6 6 -1 11 2 17 5 13 3 -3 4 -12 1 -19z"/>
<path d="M4773 3255 c0 -8 5 -15 11 -16 6 0 2 -4 -9 -9 -19 -8 -19 -9 3 -9 18
-1 23 4 20 21 -3 25 -25 36 -25 13z"/>
<path d="M4840 3249 c0 -11 -5 -17 -10 -14 -6 4 -8 11 -5 16 4 5 1 9 -4 9 -6
0 -11 -14 -11 -30 0 -28 2 -29 20 -18 17 11 29 58 15 58 -3 0 -5 -9 -5 -21z"/>
<path d="M4983 3235 c0 -22 2 -30 4 -17 2 12 2 30 0 40 -3 9 -5 -1 -4 -23z"/>
<path d="M5055 3258 c-4 -9 -5 -25 -3 -35 4 -23 43 -29 52 -8 7 20 0 35 -19
35 -7 0 -15 6 -18 13 -3 8 -7 7 -12 -5z m35 -33 c0 -8 -4 -15 -10 -15 -5 0
-10 7 -10 15 0 8 5 15 10 15 6 0 10 -7 10 -15z"/>
<path d="M5570 3263 c0 -7 -7 -13 -15 -13 -9 0 -15 -9 -15 -24 0 -30 16 -42
35 -26 8 7 16 7 19 1 3 -5 15 -7 26 -4 14 4 20 14 20 34 0 34 -29 41 -37 9 -3
-11 -10 -20 -15 -20 -5 0 -6 4 -3 10 3 5 1 18 -4 27 -6 10 -11 12 -11 6z m0
-38 c0 -8 -4 -15 -10 -15 -5 0 -10 7 -10 15 0 8 5 15 10 15 6 0 10 -7 10 -15z"/>
<path d="M4883 3236 c7 -13 15 -22 18 -20 12 7 -2 44 -16 44 -10 0 -11 -5 -2
-24z"/>
<path d="M4922 3235 c0 -16 2 -22 5 -12 2 9 2 23 0 30 -3 6 -5 -1 -5 -18z"/>
<path d="M5011 3251 c-19 -12 -9 -45 14 -48 11 -2 14 0 8 3 -7 3 -13 15 -12
27 0 21 1 21 9 2 7 -16 9 -17 9 -3 1 21 -11 29 -28 19z"/>
<path d="M5141 3227 c1 -24 3 -26 6 -9 5 27 23 29 23 2 0 -11 5 -20 11 -20 6
0 8 7 5 16 -3 9 -6 19 -6 24 0 4 -9 10 -20 13 -17 4 -20 0 -19 -26z"/>
<path d="M5230 3224 c0 -27 4 -34 20 -34 11 0 20 5 20 12 0 9 3 9 12 0 21 -21
48 -14 48 12 0 30 -16 42 -35 26 -8 -6 -16 -7 -19 -2 -3 5 -15 12 -26 15 -17
4 -20 0 -20 -29z m35 -2 c0 -18 -20 -15 -23 4 -3 10 1 15 10 12 7 -3 13 -10
13 -16z m55 -2 c0 -11 -4 -20 -10 -20 -5 0 -10 9 -10 20 0 11 5 20 10 20 6 0
10 -9 10 -20z"/>
<path d="M5451 3227 c1 -23 3 -26 6 -9 5 24 23 31 23 8 0 -8 5 -18 11 -22 7
-4 9 2 7 16 -1 13 -13 27 -25 31 -21 8 -23 6 -22 -24z"/>
<path d="M5654 3246 c-3 -8 -4 -23 -1 -33 4 -16 6 -15 12 5 9 26 22 29 28 5 3
-11 5 -7 6 10 1 21 -4 27 -19 27 -11 0 -23 -6 -26 -14z"/>
<path d="M5341 3218 c1 -28 2 -30 7 -10 8 28 28 29 25 1 -2 -13 3 -19 17 -19
16 0 20 6 18 30 -2 27 -6 30 -35 30 -31 0 -33 -2 -32 -32z"/>
<path d="M5420 3219 c0 -16 4 -28 9 -25 8 5 3 56 -5 56 -2 0 -4 -14 -4 -31z"/>
<path d="M4860 3225 c0 -8 4 -15 10 -15 5 0 7 7 4 15 -4 8 -8 15 -10 15 -2 0
-4 -7 -4 -15z"/>
<path d="M5116 3225 c-3 -8 -1 -15 4 -15 6 0 10 7 10 15 0 8 -2 15 -4 15 -2 0
-6 -7 -10 -15z"/>
<path d="M4835 3200 c-3 -5 -1 -10 4 -10 6 0 11 5 11 10 0 6 -2 10 -4 10 -3 0
-8 -4 -11 -10z"/>
<path d="M5720 3005 c0 -9 -6 -12 -15 -9 -8 4 -31 3 -50 0 -28 -6 -35 -11 -35
-31 0 -13 5 -27 10 -30 6 -3 10 3 10 14 0 11 5 23 10 26 6 3 10 -3 10 -14 0
-12 5 -21 10 -21 6 0 10 7 10 15 0 8 5 15 10 15 6 0 10 -6 10 -14 0 -7 10 -13
23 -13 20 0 22 4 19 38 -4 36 -22 57 -22 24z"/>
<path d="M5046 2985 c-4 -16 -3 -32 3 -38 8 -8 11 -4 11 12 0 21 1 21 25 -6
l24 -28 1 40 c0 28 -3 36 -9 25 -6 -8 -7 -19 -4 -25 3 -5 -6 3 -19 19 l-25 30
-7 -29z"/>
<path d="M5473 3003 c-7 -2 -13 -9 -13 -14 0 -4 7 -6 15 -3 8 4 15 2 15 -4 0
-5 -7 -12 -15 -16 -27 -10 -18 -36 13 -35 18 1 21 3 9 6 -17 4 -18 6 -2 24 26
28 11 56 -22 42z"/>
<path d="M5530 2996 c-7 -10 -10 -26 -6 -42 5 -19 12 -25 29 -22 18 2 22 9 22
38 0 39 -23 52 -45 26z m30 -33 c0 -20 -3 -24 -11 -16 -7 7 -9 19 -6 27 10 24
17 19 17 -11z"/>
<path d="M5407 2994 c-3 -3 0 -15 6 -25 10 -16 9 -21 -3 -29 -12 -8 -9 -10 11
-10 24 0 26 2 20 32 -6 31 -21 45 -34 32z"/>
<path d="M5130 2975 c-10 -12 -10 -18 0 -30 16 -19 39 -19 46 0 6 15 -11 45
-26 45 -4 0 -13 -7 -20 -15z m35 -33 c-3 -3 -11 0 -18 7 -9 10 -8 11 6 5 10
-3 15 -9 12 -12z"/>
<path d="M5192 2963 c2 -14 8 -28 14 -30 7 -2 9 8 6 27 -5 37 -25 40 -20 3z"/>
<path d="M5232 2963 c2 -14 9 -29 17 -31 10 -3 11 0 5 9 -5 8 -7 22 -6 32 2 9
-2 17 -8 17 -6 0 -10 -12 -8 -27z"/>
<path d="M5277 2973 c-14 -13 -6 -41 13 -46 23 -6 45 16 36 38 -5 15 -37 21
-49 8z m38 -12 c7 -12 -12 -24 -25 -16 -11 7 -4 25 10 25 5 0 11 -4 15 -9z"/>
<path d="M6118 2654 c-5 -5 -28 -11 -50 -13 -5 -1 -8 -8 -8 -16 0 -8 -5 -15
-11 -15 -5 0 -7 -4 -4 -10 3 -5 21 -10 38 -10 18 0 48 -4 67 -10 30 -9 37 -7
62 17 15 14 49 32 75 39 l48 13 -77 0 c-42 1 -79 -3 -83 -9 -3 -5 -13 -6 -21
-3 -13 5 -13 7 -2 14 9 6 7 9 -8 9 -11 0 -23 -3 -26 -6z"/>
<path d="M1733 1940 c-41 -9 -112 -51 -142 -84 l-24 -26 43 0 c25 0 63 10 89
23 l46 22 3638 3 3638 2 64 -26 c43 -17 79 -24 107 -22 l43 3 -53 42 c-100 80
266 73 -3786 72 -1997 -1 -3645 -4 -3663 -9z"/>
<path d="M4000 1172 l-33 -52 -35 41 c-19 22 -38 37 -42 32 -10 -10 -60 -175
-60 -196 0 -17 30 -32 40 -20 4 4 13 36 20 71 7 34 16 65 20 67 5 3 15 -13 24
-35 9 -22 22 -40 30 -40 9 0 27 20 42 45 14 25 30 43 34 40 5 -3 12 -31 16
-63 8 -67 19 -92 41 -92 13 0 14 8 9 53 -13 98 -28 148 -51 175 l-23 27 -32
-53z"/>
<path d="M5980 1178 c-19 -66 -52 -130 -61 -121 -4 4 -16 37 -25 73 -9 36 -20
69 -24 74 -5 5 -26 -27 -48 -70 -39 -76 -40 -78 -47 -49 -15 65 -27 93 -40 99
-18 7 -19 -8 -4 -108 19 -126 47 -138 98 -39 l29 58 11 -30 c28 -73 34 -85 53
-91 11 -3 23 -2 28 3 15 17 58 139 61 173 5 81 -10 95 -31 28z"/>
<path d="M4175 1188 c-3 -13 -9 -61 -15 -108 -8 -71 -8 -87 5 -99 9 -10 18
-12 24 -6 10 12 33 213 25 226 -10 17 -34 9 -39 -13z"/>
<path d="M4345 1201 c-42 -18 -85 -93 -85 -149 0 -81 97 -112 162 -52 l33 30
-30 -7 c-16 -4 -50 -8 -75 -8 l-45 0 1 43 c1 69 62 128 97 93 17 -17 27 -13
27 8 0 20 -35 52 -55 50 -5 0 -19 -4 -30 -8z"/>
<path d="M4563 1197 c-48 -9 -52 -12 -50 -36 0 -14 -5 -56 -12 -92 -20 -95
-15 -102 61 -93 81 9 108 17 105 29 -1 6 -30 10 -64 9 -59 -1 -63 1 -63 22 0
23 9 27 90 37 8 1 15 9 15 17 0 11 -11 15 -47 13 -47 -1 -48 0 -48 28 0 25 4
29 28 29 37 0 72 10 72 21 0 18 -37 25 -87 16z"/>
<path d="M4783 1197 c-15 -19 -61 -139 -68 -178 -6 -31 -3 -37 17 -46 17 -8
41 -8 79 -1 62 11 77 21 60 41 -9 11 -22 12 -58 6 -25 -5 -48 -8 -50 -6 -1 2
8 37 22 77 14 40 25 81 25 91 0 23 -15 32 -27 16z"/>
<path d="M4983 1197 c-15 -19 -61 -139 -68 -178 -6 -31 -3 -37 17 -46 17 -8
41 -8 79 -1 62 11 77 21 60 41 -9 11 -22 12 -58 6 -25 -5 -48 -8 -50 -6 -1 2
8 37 22 77 14 40 25 81 25 91 0 23 -15 32 -27 16z"/>
<path d="M5203 1198 c-23 -29 -95 -197 -91 -214 5 -30 22 -22 43 23 16 33 28
43 57 51 l36 9 12 -44 c12 -40 39 -70 53 -57 3 3 -2 29 -12 57 -9 29 -17 57
-17 62 0 19 -41 100 -56 113 -12 10 -17 10 -25 0z m18 -101 c-17 -17 -24 -1
-10 25 12 21 14 21 17 4 2 -10 -1 -23 -7 -29z"/>
<path d="M5450 1200 c-8 -5 -23 -7 -32 -4 -12 4 -21 -2 -27 -18 -17 -43 -43
-179 -37 -193 11 -30 34 -15 45 30 6 25 15 45 20 45 11 0 83 -53 100 -73 7 -9
20 -17 27 -17 26 0 14 35 -21 59 l-35 23 30 35 c42 48 39 83 -11 108 -33 17
-39 18 -59 5z m60 -45 c0 -20 -48 -65 -70 -65 -40 0 -18 74 25 82 27 6 45 -1
45 -17z"/>
<path d="M6099 1105 c-28 -58 -49 -112 -47 -122 6 -34 28 -24 48 21 10 25 21
46 22 46 2 0 17 4 35 9 32 9 32 9 48 -39 14 -42 39 -69 52 -56 14 14 -71 232
-94 240 -10 4 -29 -25 -64 -99z m64 -8 c-21 -13 -26 -2 -12 24 12 23 12 23 19
4 5 -13 2 -23 -7 -28z"/>
<path d="M6358 1193 c-38 -9 -68 -20 -68 -24 0 -12 46 -22 70 -16 17 4 20 0
19 -31 0 -21 -4 -58 -8 -84 -6 -40 -5 -51 10 -64 17 -16 19 -15 29 10 5 15 10
56 10 91 0 82 6 95 40 95 33 0 49 18 29 31 -19 12 -52 10 -131 -8z"/>
<path d="M6608 1196 c-55 -9 -69 -18 -49 -30 5 -3 1 -42 -9 -88 -23 -101 -17
-113 49 -104 112 15 121 18 121 33 0 13 -11 15 -70 11 -68 -5 -70 -5 -64 16 9
28 5 26 55 34 60 10 61 37 2 36 -41 -1 -43 1 -43 28 0 22 4 28 23 28 37 0 67
12 67 25 0 19 -19 22 -82 11z"/>
<path d="M6860 1200 c-8 -5 -23 -7 -32 -4 -12 4 -21 -2 -27 -18 -17 -43 -43
-179 -37 -193 11 -30 34 -15 45 30 6 25 15 45 20 45 11 0 83 -53 100 -73 7 -9
20 -17 27 -17 26 0 14 35 -21 59 l-35 23 30 35 c42 48 39 83 -11 108 -33 17
-39 18 -59 5z m60 -45 c0 -20 -48 -65 -70 -65 -40 0 -18 74 25 82 27 6 45 -1
45 -17z"/>
<path d="M1478 1083 c12 -2 32 -2 45 0 12 2 2 4 -23 4 -25 0 -35 -2 -22 -4z"/>
<path d="M9278 1083 c12 -2 32 -2 45 0 12 2 2 4 -23 4 -25 0 -35 -2 -22 -4z"/>
<path d="M1152 963 c5 -115 38 -191 114 -263 52 -49 141 -100 176 -100 44 0
48 -8 48 -106 l0 -94 35 0 35 0 0 104 c0 127 -12 146 -102 165 -147 31 -262
188 -246 336 l6 45 -35 0 -35 0 4 -87z"/>
<path d="M9580 982 c0 -90 -22 -151 -77 -212 -51 -57 -96 -83 -180 -105 -32
-8 -64 -23 -70 -32 -9 -11 -13 -54 -13 -125 l0 -108 30 0 29 0 3 92 3 92 73
26 c40 14 92 39 117 57 96 69 159 201 153 319 -3 59 -3 59 -35 62 l-33 3 0
-69z"/>
<path d="M1380 970 c0 -26 32 -70 51 -70 19 0 19 1 5 22 -9 12 -16 30 -16 40
0 11 -8 18 -20 18 -11 0 -20 -5 -20 -10z"/>
<path d="M1567 940 c-14 -37 -14 -40 2 -40 18 0 41 37 41 65 0 30 -27 14 -43
-25z"/>
<path d="M9190 950 c12 -42 19 -50 40 -50 17 0 18 2 4 28 -7 15 -14 33 -14 40
0 6 -9 12 -19 12 -17 0 -18 -4 -11 -30z"/>
<path d="M9368 940 c-16 -38 -16 -40 2 -40 21 0 28 8 40 50 14 48 -21 39 -42
-10z"/>
<path d="M3573 699 c-59 -17 -105 -107 -82 -166 18 -49 38 -63 90 -63 60 0
104 34 119 92 26 94 -37 162 -127 137z m79 -36 c29 -26 25 -104 -8 -142 -31
-37 -81 -42 -109 -11 -27 30 -16 116 19 147 32 27 72 30 98 6z"/>
<path d="M7446 699 c-83 -24 -126 -139 -75 -203 17 -22 28 -26 70 -26 40 0 55
5 74 25 23 22 34 55 19 55 -3 0 -19 -14 -35 -31 -22 -24 -35 -30 -61 -27 -94
9 -61 188 35 188 37 0 57 -15 57 -42 0 -10 7 -18 15 -18 21 0 19 43 -2 62 -24
21 -62 28 -97 17z"/>
<path d="M3052 588 c-33 -62 -56 -115 -51 -116 15 -6 35 15 49 48 11 27 17 30
55 30 43 0 43 -1 50 -40 4 -25 12 -40 21 -40 17 0 18 -6 -3 123 -16 99 -19
107 -39 107 -18 0 -33 -21 -82 -112z m87 20 c1 -25 -3 -28 -29 -28 l-30 0 22
45 c18 37 24 42 30 28 3 -10 7 -30 7 -45z"/>
<path d="M3296 688 c-6 -18 -36 -193 -36 -207 0 -7 27 -11 75 -11 43 0 75 4
75 10 0 6 -27 10 -60 10 l-61 0 7 38 c4 20 12 67 19 105 11 57 11 67 -1 67 -8
0 -16 -6 -18 -12z"/>
<path d="M3800 693 c0 -14 -31 -187 -36 -205 -5 -16 3 -18 75 -18 47 0 81 4
81 10 0 6 -27 10 -60 10 -57 0 -60 1 -60 24 0 49 9 56 66 56 41 0 54 4 54 15
0 11 -12 15 -50 15 -46 0 -50 2 -50 24 0 49 8 56 71 56 33 0 59 4 59 10 0 6
-32 10 -75 10 -41 0 -75 -3 -75 -7z"/>
<path d="M4110 685 c0 -9 7 -61 17 -115 15 -91 18 -100 38 -100 16 0 31 18 64
83 24 45 53 97 63 115 19 31 19 32 1 32 -13 0 -31 -26 -66 -95 -26 -53 -51
-94 -56 -91 -4 3 -14 46 -20 96 -9 65 -17 90 -27 90 -8 0 -14 -7 -14 -15z"/>
<path d="M4357 598 c-10 -57 -17 -109 -17 -115 0 -9 22 -13 75 -13 43 0 75 4
75 10 0 6 -27 10 -61 10 l-61 0 6 31 c3 17 6 35 6 40 0 4 25 9 55 11 71 4 76
22 6 26 l-53 3 6 31 c3 17 6 34 6 39 0 5 27 9 59 9 33 0 63 5 66 10 4 6 -23
10 -72 10 l-79 0 -17 -102z"/>
<path d="M4585 590 c-10 -61 -15 -113 -12 -116 12 -13 25 8 31 51 7 43 9 45
40 45 42 0 56 -16 56 -62 0 -27 4 -38 15 -38 18 0 20 45 5 85 -9 23 -7 30 15
47 14 11 25 30 25 42 0 39 -30 56 -96 56 l-60 0 -19 -110z m129 74 c21 -20 20
-30 -4 -54 -12 -12 -33 -20 -55 -20 -37 0 -40 5 -29 59 6 27 11 31 40 31 18 0
40 -7 48 -16z"/>
<path d="M4867 638 c-100 -184 -93 -168 -72 -168 8 0 24 18 35 40 19 38 23 40
65 40 41 0 45 -2 45 -24 0 -35 10 -56 27 -56 11 0 13 7 9 28 -3 15 -10 56 -16
92 -17 104 -19 110 -40 110 -13 0 -29 -19 -53 -62z m62 -40 c1 -14 -7 -18 -29
-18 -36 0 -36 1 -7 50 l22 40 6 -28 c4 -15 7 -35 8 -44z"/>
<path d="M5180 693 c0 -14 -31 -187 -36 -205 -5 -16 3 -18 75 -18 47 0 81 4
81 10 0 6 -27 10 -60 10 -70 0 -68 -5 -45 113 18 97 18 97 0 97 -8 0 -15 -3
-15 -7z"/>
<path d="M5406 688 c-6 -18 -36 -193 -36 -207 0 -7 27 -11 75 -11 43 0 75 4
75 10 0 6 -27 10 -61 10 -59 0 -61 1 -55 23 3 12 6 30 6 39 0 14 11 18 57 20
78 4 85 28 8 28 l-57 0 7 33 c11 47 11 47 76 47 33 0 59 4 59 10 0 15 -150 13
-154 -2z"/>
<path d="M5677 668 c-9 -18 -36 -70 -61 -115 -38 -70 -42 -83 -27 -83 11 0 25
15 36 40 17 38 20 40 61 40 43 0 44 0 50 -40 4 -24 12 -40 20 -40 18 0 18 10
-3 130 -15 91 -18 100 -38 100 -14 0 -27 -11 -38 -32z m45 -53 c4 -34 3 -35
-29 -35 l-34 0 23 39 c26 46 34 45 40 -4z"/>
<path d="M5880 693 c0 -14 -31 -187 -36 -205 -4 -12 0 -18 10 -18 9 0 18 11
21 25 3 14 7 36 10 50 5 23 10 25 60 25 42 0 55 3 55 15 0 11 -12 15 -50 15
-46 0 -50 2 -50 24 0 49 8 56 71 56 33 0 59 4 59 10 0 6 -32 10 -75 10 -41 0
-75 -3 -75 -7z"/>
<path d="M6191 648 c-11 -55 -31 -169 -31 -175 0 -8 150 -2 155 7 4 6 -16 10
-53 10 -32 0 -61 2 -64 5 -3 3 -2 20 1 38 7 31 8 32 64 35 42 2 57 7 57 17 0
11 -14 15 -55 15 -59 0 -60 1 -39 68 2 8 24 12 64 12 33 0 60 4 60 10 0 6 -31
10 -74 10 l-75 0 -10 -52z"/>
<path d="M6435 650 c14 -27 25 -54 25 -61 0 -6 -20 -34 -45 -62 -28 -32 -40
-54 -33 -56 7 -2 31 18 55 44 23 27 44 47 47 44 2 -2 13 -23 25 -46 12 -24 28
-43 36 -43 21 0 19 6 -14 65 l-29 51 50 57 c36 42 45 57 32 57 -9 0 -32 -18
-51 -40 -19 -22 -38 -40 -42 -40 -4 0 -16 18 -26 40 -12 26 -25 40 -37 40 -17
0 -17 -4 7 -50z"/>
<path d="M6650 690 c0 -5 16 -10 35 -10 42 0 43 -7 20 -127 -8 -43 -15 -79
-15 -80 0 -2 7 -3 15 -3 8 0 17 13 20 33 3 17 11 64 18 102 l13 70 42 3 c80 6
42 22 -53 22 -57 0 -95 -4 -95 -10z"/>
<path d="M6885 590 c-10 -61 -15 -113 -12 -116 12 -13 25 8 31 51 7 43 9 45
40 45 42 0 56 -16 56 -62 0 -27 4 -38 15 -38 18 0 20 45 5 85 -9 23 -7 30 15
47 14 11 25 30 25 42 0 39 -30 56 -96 56 l-60 0 -19 -110z m129 74 c21 -20 20
-30 -4 -54 -12 -12 -33 -20 -55 -20 -37 0 -40 5 -29 59 6 27 11 31 40 31 18 0
40 -7 48 -16z"/>
<path d="M7142 588 c-33 -62 -56 -115 -51 -116 15 -6 35 15 49 48 11 27 17 30
55 30 43 0 43 -1 50 -40 4 -25 12 -40 21 -40 17 0 18 -6 -3 123 -16 99 -19
107 -39 107 -18 0 -33 -21 -82 -112z m87 20 c1 -25 -3 -28 -29 -28 l-30 0 22
45 c18 37 24 42 30 28 3 -10 7 -30 7 -45z"/>
<path d="M7635 690 c-4 -6 10 -10 34 -10 48 0 48 1 26 -113 -18 -96 -18 -97
-1 -97 10 0 18 22 26 73 22 133 21 132 68 135 23 2 42 7 42 13 0 12 -187 12
-195 -1z"/>
<path d="M1755 90 c25 -11 7251 -11 7285 0 14 4 -1624 8 -3640 8 -2052 0
-3656 -3 -3645 -8z"/>
</g>
</svg>
