<?xml version="1.0" standalone="no"?>
<!DOCTYPE svg PUBLIC "-//W3C//DTD SVG 20010904//EN"
 "http://www.w3.org/TR/2001/REC-SVG-20010904/DTD/svg10.dtd">
<svg version="1.0" xmlns="http://www.w3.org/2000/svg"
 width="1080.000000pt" height="1080.000000pt" viewBox="0 0 1080.000000 1080.000000"
 preserveAspectRatio="xMidYMid meet">

<g transform="translate(0.000000,1080.000000) scale(0.100000,-0.100000)"
fill="#000000" stroke="none">
<path d="M5329 10767 c-38 -26 -77 -79 -85 -116 -3 -14 -7 -32 -10 -38 -2 -9
-29 -13 -90 -13 l-86 0 6 -52 c3 -29 8 -138 12 -243 6 -190 15 -258 36 -271
12 -8 552 -6 573 2 7 3 17 13 20 22 6 15 34 421 35 510 l0 32 -84 0 -84 0 -10
41 c-31 120 -147 184 -233 126z m142 -44 c31 -26 59 -77 59 -108 0 -13 -19
-15 -124 -15 -69 0 -127 4 -130 8 -12 19 17 82 50 111 46 41 99 42 145 4z m12
-226 c34 -15 37 -19 27 -37 -10 -19 -13 -19 -40 -5 -62 32 -140 10 -140 -40 0
-28 23 -47 85 -70 68 -25 115 -73 115 -117 0 -64 -54 -108 -132 -108 -52 0
-128 33 -128 55 0 23 25 29 52 12 75 -47 184 -12 163 52 -7 24 -40 46 -109 72
-64 23 -96 58 -96 103 0 88 96 127 203 83z"/>
<path d="M595 10764 c-48 -24 -93 -74 -111 -121 l-16 -42 -112 -3 -111 -3 0
-404 0 -404 329 1 c322 2 329 2 380 25 64 30 112 77 142 142 23 49 24 57 24
347 l0 297 -111 3 -111 3 -13 39 c-16 45 -65 99 -111 121 -42 20 -140 19 -179
-1z m175 -56 c37 -25 65 -61 75 -95 5 -19 2 -23 -18 -23 -13 0 -51 -9 -84 -20
-57 -18 -64 -19 -99 -4 -20 9 -56 19 -78 23 -46 8 -50 25 -17 71 33 46 79 70
136 70 38 0 61 -6 85 -22z m-153 -169 c71 -25 77 -25 133 -4 33 13 85 19 193
23 l147 4 0 -138 c-1 -126 -2 -136 -14 -103 -21 60 -54 96 -112 125 -45 22
-63 26 -105 21 -61 -7 -116 -37 -149 -82 l-25 -33 -28 34 c-52 62 -143 94
-212 75 -78 -21 -141 -86 -156 -159 -4 -22 -7 24 -8 117 l-1 154 140 -6 c105
-5 154 -12 197 -28z m-23 -143 c46 -35 68 -78 69 -135 1 -103 -71 -176 -174
-176 -49 0 -63 5 -96 31 -109 87 -93 242 32 300 47 22 127 13 169 -20z m349
20 c72 -29 117 -114 103 -190 -14 -75 -97 -146 -171 -146 -44 0 -116 40 -141
77 -95 143 52 325 209 259z m-608 -293 c55 -64 127 -88 210 -69 27 6 36 1 85
-49 l54 -55 56 54 55 55 45 -11 c64 -15 122 3 177 55 24 23 50 60 59 82 14 39
14 37 11 -70 -3 -121 -18 -165 -77 -225 -65 -67 -81 -70 -422 -70 l-308 0 1
213 c1 154 4 201 10 171 5 -23 25 -59 44 -81z m359 32 c3 -9 0 -15 -9 -15 -9
0 -12 6 -9 15 4 8 7 15 9 15 2 0 5 -7 9 -15z m47 -64 l24 -20 -42 -42 c-23
-24 -44 -41 -45 -38 -2 2 -19 21 -38 42 l-35 38 24 20 c30 24 82 24 112 0z"/>
<path d="M520 10330 c0 -21 -8 -35 -26 -47 -24 -16 -29 -16 -54 -1 -27 16 -29
15 -34 -8 -10 -37 21 -99 58 -119 116 -63 216 103 112 187 -34 28 -56 23 -56
-12z"/>
<path d="M860 10330 c0 -21 -8 -35 -26 -47 -25 -16 -28 -16 -55 0 -28 16 -29
15 -31 -6 -3 -49 5 -73 33 -102 24 -25 38 -30 75 -30 39 0 50 5 75 33 49 55
36 138 -28 171 -34 17 -43 13 -43 -19z"/>
<path d="M9663 10257 c2 -6 13 -11 25 -12 26 -2 20 11 -8 18 -13 3 -20 1 -17
-6z"/>
<path d="M9850 10253 c5 -2 8 -9 4 -14 -8 -14 5 -46 21 -53 13 -5 13 -2 0 18
-9 13 -14 29 -13 36 2 7 -3 14 -10 16 -7 1 -8 0 -2 -3z"/>
<path d="M9895 10220 c10 -11 20 -20 23 -20 3 0 -3 9 -13 20 -10 11 -20 20
-23 20 -3 0 3 -9 13 -20z"/>
<path d="M9355 10205 c45 -27 60 -31 49 -12 -4 6 1 5 12 -4 21 -18 67 -32 58
-18 -10 16 -78 46 -119 52 l-40 6 40 -24z"/>
<path d="M9550 10195 c13 -14 26 -25 28 -25 3 0 -5 11 -18 25 -13 14 -26 25
-28 25 -3 0 5 -11 18 -25z"/>
<path d="M9732 10212 c-19 -6 -14 -16 18 -35 17 -10 30 -15 30 -12 0 15 -36
51 -48 47z"/>
<path d="M9594 10179 c0 -11 10 -20 26 -24 13 -4 28 -11 31 -17 4 -6 11 -9 16
-7 5 2 -9 18 -32 35 -34 25 -41 28 -41 13z"/>
<path d="M9908 10179 c7 -9 12 -21 11 -25 -4 -25 3 -44 17 -44 20 0 10 38 -19
65 -11 11 -15 13 -9 4z"/>
<path d="M9990 10167 c0 -19 4 -26 11 -21 9 5 11 -6 7 -37 -4 -39 -2 -47 21
-64 14 -10 21 -13 15 -5 -6 8 -15 37 -19 65 -4 27 -13 58 -21 69 -13 20 -14
19 -14 -7z"/>
<path d="M9794 10144 c4 -9 -3 -18 -17 -23 -13 -5 -29 -17 -37 -27 -14 -17
-14 -17 10 -1 30 21 47 22 30 2 -19 -23 -4 -18 42 15 22 17 39 30 37 30 -2 0
-19 4 -37 10 -28 8 -33 7 -28 -6z"/>
<path d="M9526 10118 c-16 -6 -45 -21 -64 -34 -29 -20 -31 -24 -13 -24 11 0
21 4 21 9 0 10 39 27 54 23 4 -2 15 3 23 9 8 7 31 16 51 20 l37 7 -40 0 c-22
0 -53 -4 -69 -10z"/>
<path d="M9952 10080 c-12 -21 -69 -32 -94 -18 -11 5 -18 5 -18 -1 0 -22 74
-20 133 4 20 8 22 21 4 28 -7 3 -18 -3 -25 -13z"/>
<path d="M9700 10061 c0 -4 11 -6 25 -3 14 2 25 6 25 8 0 2 -11 4 -25 4 -14 0
-25 -4 -25 -9z"/>
<path d="M10065 10000 c5 -8 10 -19 11 -25 1 -5 14 -41 29 -80 15 -38 33 -89
42 -112 18 -51 26 -58 43 -38 8 10 9 19 3 28 -18 22 -74 187 -68 197 3 5 -2
10 -11 10 -10 0 -26 8 -37 18 -15 12 -18 13 -12 2z"/>
<path d="M9105 9861 l0 -121 35 1 c19 0 29 3 23 6 -9 3 -13 36 -13 114 l0 109
40 0 c31 0 47 -6 64 -25 37 -40 46 -110 22 -157 -19 -35 -4 -36 23 -2 15 19
21 41 21 78 0 45 -4 56 -31 82 -27 26 -38 29 -107 32 l-77 4 0 -121z"/>
<path d="M9368 9860 c3 -111 5 -120 23 -120 17 0 18 5 13 42 -6 32 -3 44 10
53 14 11 15 13 1 19 -19 7 -21 96 -3 114 9 9 5 12 -17 12 l-30 0 3 -120z"/>
<path d="M9469 9970 c44 -10 53 -25 48 -79 l-5 -43 20 20 c47 46 10 113 -61
111 l-36 -1 34 -8z"/>
<path d="M9750 9965 c9 -10 11 -46 8 -120 -3 -94 -2 -105 14 -105 15 0 17 14
20 120 l3 120 -29 0 c-24 0 -27 -2 -16 -15z"/>
<path d="M9950 9975 c0 -3 11 -31 23 -63 13 -31 34 -85 47 -120 19 -53 25 -61
36 -50 11 11 8 29 -22 108 -19 51 -33 102 -31 112 4 14 -1 18 -24 18 -16 0
-29 -2 -29 -5z"/>
<path d="M10262 9966 c13 -14 28 -12 28 5 0 5 -9 9 -20 9 -17 0 -19 -2 -8 -14z"/>
<path d="M5040 9935 c-19 -22 -2 -53 36 -65 70 -23 61 -79 -11 -67 -21 3 -33
2 -30 -4 9 -13 79 -11 93 3 24 24 13 48 -33 70 -33 16 -45 28 -45 44 0 12 6
25 13 27 7 4 8 6 1 6 -6 1 -17 -6 -24 -14z"/>
<path d="M5098 9943 c7 -3 16 -2 19 1 4 3 -2 6 -13 5 -11 0 -14 -3 -6 -6z"/>
<path d="M5188 9883 c-10 -2 -18 -14 -18 -26 0 -20 1 -20 13 -3 8 11 23 17 38
14 20 -2 25 -10 30 -43 l6 -40 2 36 c1 23 -5 42 -17 52 -19 17 -24 18 -54 10z"/>
<path d="M5306 9877 c-22 -16 -18 -65 5 -80 47 -29 101 32 64 73 -21 23 -44
25 -69 7z m58 -13 c19 -19 20 -25 3 -49 -20 -27 -67 -13 -67 20 0 13 8 29 18
34 23 14 28 14 46 -5z"/>
<path d="M5438 9883 c-10 -2 -18 -13 -18 -24 0 -19 1 -18 20 1 11 11 24 20 29
20 13 0 41 -29 41 -42 0 -6 3 -8 6 -5 4 4 -1 18 -10 32 -16 24 -31 28 -68 18z"/>
<path d="M5568 9879 c-21 -12 -24 -59 -6 -77 14 -14 64 -16 72 -4 3 5 -7 7
-23 4 -48 -7 -69 47 -28 72 15 9 22 7 38 -13 14 -17 19 -19 19 -7 0 8 -9 20
-19 26 -24 12 -31 12 -53 -1z"/>
<path d="M5686 9868 c-18 -26 -20 -38 -6 -38 6 0 10 9 10 19 0 21 22 33 45 25
8 -4 15 -12 15 -20 0 -8 5 -14 11 -14 20 0 -17 45 -39 48 -12 2 -26 -6 -36
-20z"/>
<path d="M9486 9790 c27 -38 42 -50 62 -50 22 0 24 2 10 13 -8 6 -27 29 -43
50 -15 20 -36 37 -46 37 -16 0 -14 -7 17 -50z"/>
<path d="M5420 9812 c0 -21 4 -23 42 -20 26 2 43 9 46 18 4 12 2 13 -9 3 -19
-19 -56 -16 -68 5 -9 15 -10 14 -11 -6z"/>
<path d="M5689 9808 c14 -18 71 -25 71 -9 0 4 -11 6 -25 3 -14 -2 -33 2 -43 9
-15 13 -16 12 -3 -3z"/>
<path d="M9898 9766 c-24 -22 -25 -24 -8 -29 14 -4 21 3 29 24 5 16 9 29 8 29
-1 0 -14 -11 -29 -24z"/>
<path d="M9600 9760 c0 -15 5 -20 18 -18 9 2 17 10 17 18 0 8 -8 16 -17 18
-13 2 -18 -3 -18 -18z"/>
<path d="M9602 9630 c0 -19 2 -27 5 -17 2 9 2 25 0 35 -3 9 -5 1 -5 -18z"/>
<path d="M9696 9653 c-3 -3 -5 -18 -5 -32 1 -21 2 -22 6 -6 3 11 10 23 15 26
7 4 7 9 0 12 -5 4 -12 4 -16 0z"/>
<path d="M10241 9632 c-1 -28 1 -31 13 -20 8 7 10 15 6 18 -4 3 -10 12 -13 20
-3 8 -6 0 -6 -18z"/>
<path d="M9488 9636 c-19 -14 -25 -32 -8 -21 6 4 19 1 28 -7 15 -12 16 -11 4
4 -8 9 -11 22 -7 28 8 13 4 12 -17 -4z"/>
<path d="M9977 9623 c-4 -3 -7 -11 -7 -17 0 -6 5 -5 12 2 6 6 9 14 7 17 -3 3
-9 2 -12 -2z"/>
<path d="M10005 9620 c-3 -5 -1 -10 4 -10 6 0 11 5 11 10 0 6 -2 10 -4 10 -3
0 -8 -4 -11 -10z"/>
<path d="M10110 9619 c0 -5 9 -9 20 -9 11 0 20 2 20 4 0 2 -9 6 -20 9 -11 3
-20 1 -20 -4z"/>
<path d="M9735 9610 c3 -5 8 -10 11 -10 2 0 4 5 4 10 0 6 -5 10 -11 10 -5 0
-7 -4 -4 -10z"/>
<path d="M1670 9146 c0 -16 -8 -30 -22 -37 -22 -12 -22 -12 -3 -19 16 -6 21
-19 25 -66 l5 -59 35 -2 c35 -2 35 -2 8 8 -26 10 -28 15 -28 65 0 47 2 54 20
54 11 0 20 5 20 10 0 6 -9 10 -20 10 -15 0 -20 7 -20 24 0 14 -4 28 -10 31 -6
3 -10 -5 -10 -19z"/>
<path d="M2092 9158 c6 -18 28 -21 28 -4 0 9 -7 16 -16 16 -9 0 -14 -5 -12
-12z"/>
<path d="M2320 9065 c0 -63 4 -105 10 -105 6 0 10 17 10 37 l0 36 37 -36 c20
-20 42 -37 49 -37 7 0 -5 17 -28 38 l-41 39 39 36 c47 44 29 50 -21 6 l-35
-31 0 61 c0 34 -4 61 -10 61 -6 0 -10 -42 -10 -105z"/>
<path d="M2660 9065 c0 -63 4 -105 10 -105 6 0 10 42 10 105 0 63 -4 105 -10
105 -6 0 -10 -42 -10 -105z"/>
<path d="M2730 9154 c0 -9 5 -14 12 -12 18 6 21 28 4 28 -9 0 -16 -7 -16 -16z"/>
<path d="M2820 9140 c0 -20 -5 -30 -15 -30 -8 0 -15 -4 -15 -10 0 -5 7 -10 15
-10 11 0 15 -13 15 -52 0 -63 6 -73 43 -80 33 -6 36 4 5 17 -19 8 -24 19 -26
63 -3 50 -2 52 22 52 15 0 26 5 26 10 0 6 -11 10 -25 10 -21 0 -25 5 -25 30 0
17 -4 30 -10 30 -5 0 -10 -13 -10 -30z"/>
<path d="M3008 9164 c-12 -11 -10 -204 2 -204 6 0 10 14 10 30 0 39 9 38 50
-5 18 -19 37 -32 42 -28 6 3 -7 23 -29 45 l-38 40 40 34 c50 42 27 45 -26 4
l-38 -31 -3 61 c-2 34 -6 58 -10 54z"/>
<path d="M710 9061 c0 -56 4 -103 10 -106 6 -4 10 22 10 69 0 42 4 76 8 76 4
0 18 -21 30 -46 12 -25 28 -44 35 -42 6 3 23 27 37 54 l25 49 3 -77 c4 -114
22 -96 22 22 0 120 -12 129 -55 40 -16 -33 -31 -60 -35 -60 -3 0 -19 27 -35
60 -44 88 -55 80 -55 -39z"/>
<path d="M960 9090 c-13 -13 -20 -33 -20 -59 0 -70 74 -103 120 -54 13 14 13
15 -5 8 -42 -16 -62 -16 -79 0 -27 27 -14 40 46 43 52 3 56 4 51 25 -14 56
-74 76 -113 37z m71 0 c10 -6 19 -20 19 -30 0 -17 -7 -20 -45 -20 -49 0 -55
10 -25 40 23 23 25 23 51 10z"/>
<path d="M1120 9035 c0 -43 4 -75 10 -75 6 0 10 24 10 53 0 57 12 77 45 77 33
0 45 -20 45 -78 0 -38 4 -52 13 -49 6 2 12 9 11 15 -1 7 -2 32 -2 56 -1 25 -9
51 -18 60 -18 19 -65 21 -82 4 -9 -9 -12 -9 -12 0 0 7 -4 12 -10 12 -6 0 -10
-32 -10 -75z"/>
<path d="M1323 9102 c-33 -21 -37 -108 -7 -133 8 -7 31 -9 54 -6 33 4 40 2 40
-11 -1 -45 -45 -61 -83 -31 -22 16 -27 18 -27 5 0 -36 85 -49 113 -18 13 15
17 39 17 110 0 55 -4 92 -10 92 -5 0 -10 -5 -10 -10 0 -7 -6 -7 -19 0 -23 12
-51 13 -68 2z m77 -31 c16 -31 12 -66 -10 -86 -17 -15 -24 -16 -45 -7 -20 9
-25 19 -25 50 0 21 5 43 12 50 18 18 56 14 68 -7z"/>
<path d="M1503 9103 c-7 -2 -13 -11 -13 -18 0 -12 4 -12 27 0 18 10 32 11 45
4 37 -20 15 -49 -36 -49 -34 0 -60 -33 -47 -58 14 -26 42 -35 72 -24 13 5 30
7 37 5 9 -3 12 13 12 61 0 54 -3 67 -19 76 -20 10 -57 12 -78 3z m77 -86 c0
-26 -26 -49 -50 -45 -28 3 -40 36 -18 49 21 14 68 11 68 -4z"/>
<path d="M1784 9096 c-27 -20 -11 -31 19 -12 27 18 52 13 62 -11 7 -20 -11
-33 -47 -33 -28 0 -58 -23 -58 -43 1 -34 47 -55 82 -36 16 9 23 9 26 0 9 -28
22 5 22 59 0 66 -15 90 -59 90 -15 0 -36 -6 -47 -14z m86 -74 c0 -21 -34 -52
-56 -52 -32 0 -43 28 -19 46 20 15 75 19 75 6z"/>
<path d="M1954 9102 c-16 -10 -23 -37 -15 -51 5 -7 26 -18 47 -26 26 -9 39
-19 39 -32 0 -22 -49 -31 -71 -12 -8 6 -18 9 -21 5 -4 -4 -1 -11 7 -17 27 -17
55 -20 84 -10 22 9 27 16 24 39 -2 22 -11 29 -45 40 -30 10 -43 20 -43 32 0
25 29 33 56 15 20 -13 24 -13 24 -1 0 23 -60 36 -86 18z"/>
<path d="M2097 9055 c-6 -57 0 -95 14 -95 12 0 12 137 0 144 -4 3 -11 -19 -14
-49z"/>
<path d="M2470 9061 c0 -27 5 -61 11 -75 13 -27 50 -41 77 -28 9 5 23 7 30 5
9 -4 12 15 12 72 0 48 -4 74 -10 70 -5 -3 -10 -30 -10 -59 0 -59 -14 -80 -52
-74 -21 3 -24 10 -28 67 -6 81 -30 98 -30 22z"/>
<path d="M2738 9104 c-5 -4 -8 -38 -8 -76 0 -49 4 -68 13 -68 10 0 12 16 10
63 -5 83 -7 90 -15 81z"/>
<path d="M3157 9103 c-11 -10 -8 -90 4 -117 13 -29 51 -41 79 -26 11 6 25 8
30 5 6 -3 11 2 11 12 6 100 6 124 -2 128 -5 4 -9 -15 -9 -42 0 -53 -21 -93
-49 -93 -30 0 -41 22 -41 82 0 54 -7 68 -23 51z"/>
<path d="M3352 9098 c-7 -7 -12 -22 -12 -34 0 -17 10 -26 43 -36 30 -11 42
-20 42 -34 0 -15 -7 -19 -30 -18 -16 0 -39 4 -50 9 -19 7 -19 7 -3 -11 24 -24
86 -24 104 0 19 27 1 53 -46 66 -28 8 -40 16 -40 29 0 27 29 34 57 15 30 -19
46 -8 19 12 -24 17 -68 18 -84 2z"/>
<path d="M3513 9103 c-15 -6 -17 -33 -3 -33 6 0 10 4 10 9 0 13 35 20 54 9 25
-14 19 -37 -11 -43 -38 -8 -76 -28 -80 -42 -2 -6 5 -21 17 -33 17 -17 28 -20
48 -14 15 4 35 6 45 6 14 -1 17 9 17 63 0 53 -3 66 -19 75 -20 10 -57 12 -78
3z m77 -91 c0 -25 -19 -42 -47 -42 -31 0 -42 29 -18 46 28 20 65 18 65 -4z"/>
<path d="M3664 9101 c-9 -9 -4 -141 6 -141 6 0 10 22 10 48 0 58 17 85 51 80
22 -3 24 -8 27 -65 2 -46 7 -63 17 -63 10 0 15 17 17 63 3 62 3 62 33 62 30 0
30 0 33 -62 2 -35 7 -63 13 -63 6 0 9 27 7 66 -4 80 -18 96 -69 77 -21 -8 -37
-9 -44 -3 -11 9 -91 10 -101 1z"/>
<path d="M3934 8977 c-3 -9 -4 -24 -2 -34 3 -16 5 -15 17 6 9 16 10 26 2 34
-7 7 -12 6 -17 -6z"/>
<path d="M8160 8846 c0 -59 4 -108 10 -111 6 -4 10 14 10 47 0 67 16 91 55 86
29 -3 30 -5 33 -65 2 -41 7 -63 15 -63 15 0 10 119 -5 138 -13 15 -52 16 -79
2 -17 -10 -19 -7 -19 30 0 22 -4 40 -10 40 -6 0 -10 -41 -10 -104z"/>
<path d="M8350 8845 c0 -59 4 -105 9 -105 6 0 11 14 13 30 l3 31 38 -32 c51
-42 60 -30 11 15 l-38 35 39 35 c46 41 29 49 -19 9 l-31 -26 -3 56 c-5 99 -22
62 -22 -48z"/>
<path d="M9040 8910 c0 -37 -2 -40 -19 -30 -63 33 -112 -14 -97 -95 8 -40 51
-64 84 -46 11 6 28 8 36 5 14 -5 16 8 16 100 0 64 -4 106 -10 106 -5 0 -10
-18 -10 -40z m-6 -77 c17 -63 -44 -111 -78 -61 -19 26 -20 37 -6 73 8 22 15
26 42 23 27 -2 34 -9 42 -35z"/>
<path d="M6950 8833 c0 -120 17 -134 22 -18 l3 70 24 -47 c14 -27 30 -48 35
-48 6 0 25 24 41 53 l30 52 3 -77 c4 -114 22 -96 22 22 0 119 -12 129 -53 46
-15 -30 -31 -58 -37 -61 -5 -3 -23 21 -40 55 -17 33 -35 60 -40 60 -6 0 -10
-43 -10 -107z"/>
<path d="M7196 8868 c-20 -28 -21 -88 -2 -113 9 -13 26 -19 50 -19 36 0 66 17
53 31 -4 4 -13 1 -19 -5 -27 -27 -78 -7 -78 30 0 15 9 18 55 18 46 0 55 3 55
18 0 34 -29 62 -65 62 -24 0 -39 -7 -49 -22z m92 -32 c3 -13 -5 -16 -42 -16
-45 0 -56 10 -38 36 19 29 73 16 80 -20z"/>
<path d="M7350 8813 c0 -58 3 -73 15 -73 11 0 15 13 15 53 0 57 12 77 45 77
33 0 45 -20 45 -77 0 -29 5 -53 10 -53 16 0 12 103 -5 128 -14 18 -24 21 -70
19 l-55 -2 0 -72z"/>
<path d="M7556 8877 c-11 -8 -20 -31 -23 -59 -5 -40 -2 -47 22 -66 15 -12 36
-22 45 -22 23 0 67 36 58 46 -5 4 -16 0 -26 -9 -24 -22 -45 -21 -65 1 -19 21
-22 54 -7 83 13 23 68 26 76 4 8 -19 24 -19 24 0 0 31 -70 46 -104 22z"/>
<path d="M7716 8868 c-40 -56 3 -148 62 -133 15 3 34 13 42 22 13 14 13 15 -5
8 -42 -16 -62 -16 -79 0 -27 27 -14 40 46 43 52 3 56 4 51 25 -15 58 -86 79
-117 35z m92 -27 c3 -18 -1 -21 -37 -21 -48 0 -58 13 -32 39 25 25 64 15 69
-18z"/>
<path d="M7880 8816 c0 -41 5 -78 10 -81 6 -4 10 16 10 52 0 61 11 83 42 83
10 0 18 5 18 10 0 13 -16 13 -41 0 -13 -7 -19 -7 -19 0 0 5 -4 10 -10 10 -6 0
-10 -31 -10 -74z"/>
<path d="M8000 8875 c-19 -23 -5 -29 23 -10 20 13 30 14 47 5 27 -15 21 -33
-16 -44 -61 -18 -74 -26 -74 -46 0 -30 45 -56 75 -42 14 6 32 9 40 6 22 -9 21
108 -1 130 -20 20 -78 21 -94 1z m90 -78 c0 -25 -37 -50 -65 -43 -49 12 -20
55 38 56 16 0 27 -5 27 -13z"/>
<path d="M8510 8875 c-18 -22 -5 -30 20 -12 26 18 60 11 60 -13 0 -13 -13 -21
-44 -29 -51 -13 -60 -23 -52 -55 7 -27 47 -42 75 -27 12 7 22 6 29 -1 14 -14
14 -13 12 72 -1 37 -7 68 -13 72 -21 13 -74 9 -87 -7z m83 -82 c-11 -31 -25
-43 -50 -43 -13 0 -26 7 -30 16 -8 22 22 44 59 44 22 0 26 -4 21 -17z"/>
<path d="M8670 8813 c0 -42 4 -73 10 -73 6 0 10 24 10 53 0 57 12 77 45 77 33
0 45 -20 45 -77 0 -29 5 -53 10 -53 6 0 10 26 10 59 0 76 -14 92 -81 89 l-49
-2 0 -73z"/>
<path d="M9120 8875 c-16 -19 -5 -34 12 -17 7 7 25 12 40 12 39 0 40 -37 1
-46 -50 -10 -73 -23 -73 -41 0 -31 17 -46 51 -45 86 2 79 -4 79 61 0 43 -5 62
-18 74 -23 21 -75 22 -92 2z m80 -83 c0 -25 -19 -42 -47 -42 -28 0 -40 24 -23
45 18 22 70 20 70 -3z"/>
<path d="M9277 8883 c-4 -3 -7 -37 -7 -75 0 -54 3 -68 15 -68 11 0 15 13 15
53 0 57 12 77 45 77 34 0 45 -20 45 -82 0 -32 4 -58 10 -58 6 0 10 28 10 63 0
49 -4 68 -18 80 -22 20 -63 22 -80 5 -9 -9 -12 -9 -12 0 0 13 -13 16 -23 5z"/>
<path d="M707 8793 c-2 -5 -5 -51 -6 -103 l-2 -96 54 -2 c40 -2 60 2 71 14 16
16 22 78 10 109 -9 24 -49 36 -79 25 -24 -9 -25 -8 -25 25 0 32 -13 47 -23 28z
m108 -107 c8 -43 -9 -76 -38 -76 -33 0 -47 19 -47 60 0 45 5 50 46 50 30 0 34
-4 39 -34z"/>
<path d="M1440 8790 c0 -5 7 -10 15 -10 8 0 15 5 15 10 0 6 -7 10 -15 10 -8 0
-15 -4 -15 -10z"/>
<path d="M2030 8695 c0 -63 4 -105 10 -105 6 0 10 17 10 37 l0 37 38 -37 c50
-49 77 -48 29 1 -20 21 -37 41 -37 45 0 4 15 21 33 37 40 37 17 40 -27 3 l-31
-26 -3 56 c-5 99 -22 62 -22 -48z"/>
<path d="M2370 8765 c0 -39 1 -39 -35 -25 -27 10 -62 -1 -77 -24 -13 -19 -9
-81 8 -104 13 -19 23 -22 70 -20 l54 2 0 103 c0 62 -4 103 -10 103 -5 0 -10
-16 -10 -35z m-9 -69 c8 -16 8 -34 2 -53 -8 -23 -15 -28 -44 -28 -27 0 -35 5
-43 27 -15 42 6 78 44 78 22 0 33 -6 41 -24z"/>
<path d="M3420 8770 c0 -20 -5 -30 -15 -30 -8 0 -15 -4 -15 -10 0 -5 7 -10 15
-10 11 0 15 -13 15 -53 0 -29 5 -58 12 -65 15 -15 58 -16 58 -2 0 6 -9 10 -19
10 -23 0 -31 19 -31 71 0 35 3 39 25 39 14 0 25 5 25 10 0 6 -11 10 -25 10
-21 0 -25 5 -25 30 0 17 -4 30 -10 30 -5 0 -10 -13 -10 -30z"/>
<path d="M3950 8698 l0 -103 55 -2 c46 -2 56 1 70 19 43 62 -6 152 -69 128
-25 -9 -26 -8 -26 25 0 24 -5 35 -15 35 -12 0 -15 -18 -15 -102z m112 -3 c18
-40 0 -79 -38 -83 -24 -2 -33 2 -42 22 -6 14 -9 33 -7 41 3 8 7 22 10 30 3 9
17 15 35 15 23 0 33 -6 42 -25z"/>
<path d="M4420 8790 c0 -5 7 -10 15 -10 8 0 15 5 15 10 0 6 -7 10 -15 10 -8 0
-15 -4 -15 -10z"/>
<path d="M5370 8770 c0 -20 -5 -30 -15 -30 -8 0 -15 -4 -15 -10 0 -5 7 -10 15
-10 11 0 15 -13 15 -53 0 -58 12 -77 47 -77 30 0 30 18 1 22 -20 3 -23 10 -26
56 -3 50 -2 52 22 52 15 0 26 5 26 10 0 6 -11 10 -25 10 -21 0 -25 5 -25 30 0
17 -4 30 -10 30 -5 0 -10 -13 -10 -30z"/>
<path d="M906 8729 c-21 -16 -26 -29 -26 -63 0 -29 6 -48 18 -59 23 -21 72
-22 98 -2 23 17 3 20 -27 4 -16 -8 -26 -7 -45 6 -43 28 -31 45 31 45 50 0 55
2 55 23 0 28 -9 41 -37 56 -30 15 -36 14 -67 -10z m68 -15 c26 -25 19 -34 -29
-34 -25 0 -45 4 -45 9 0 14 30 41 45 41 7 0 21 -7 29 -16z"/>
<path d="M1221 8741 c-7 -5 -22 -6 -32 -4 -17 5 -19 -1 -19 -71 0 -61 3 -76
15 -76 12 0 15 13 15 60 0 47 4 61 18 69 35 19 52 -4 52 -70 0 -81 23 -76 30
7 5 58 6 59 35 59 30 0 30 0 33 -62 4 -83 22 -81 22 2 0 58 -3 66 -25 81 -23
15 -27 15 -50 0 -23 -15 -28 -15 -47 -1 -26 17 -28 18 -47 6z"/>
<path d="M1565 8741 c-11 -5 -26 -6 -32 -4 -10 4 -13 -14 -13 -71 0 -44 4 -76
10 -76 6 0 10 24 10 53 0 28 4 57 8 63 13 19 39 23 61 8 17 -12 21 -25 21 -70
0 -30 5 -54 10 -54 14 0 12 113 -2 132 -17 21 -48 28 -73 19z"/>
<path d="M1883 8735 c-13 -9 -23 -21 -23 -26 0 -6 10 -3 22 5 30 21 55 20 67
-3 13 -23 5 -31 -28 -31 -54 0 -91 -51 -57 -79 7 -6 36 -10 63 -9 l50 2 1 57
c0 32 -5 65 -11 73 -19 23 -59 29 -84 11z m70 -96 c-7 -26 -50 -44 -69 -28
-22 18 -16 38 14 45 15 3 32 7 37 9 17 4 23 -4 18 -26z"/>
<path d="M2463 8740 c-13 -5 -23 -16 -23 -25 0 -14 3 -14 25 1 29 19 65 10 65
-17 0 -14 -7 -19 -28 -19 -38 0 -72 -26 -72 -55 0 -28 18 -35 78 -33 28 2 43
7 46 18 7 22 -1 111 -11 121 -14 14 -57 19 -80 9z m67 -84 c0 -33 -13 -46 -46
-46 -27 0 -34 4 -34 20 0 13 10 22 33 29 45 13 47 13 47 -3z"/>
<path d="M2660 8740 c-8 -5 -23 -7 -32 -4 -16 5 -18 -3 -18 -70 0 -44 4 -76
10 -76 6 0 10 24 10 53 0 28 4 57 8 63 13 19 39 23 61 8 17 -12 21 -25 21 -70
0 -30 5 -54 10 -54 14 0 12 113 -2 132 -17 21 -49 30 -68 18z"/>
<path d="M3090 8743 c-42 -15 -57 -105 -22 -136 22 -20 71 -22 97 -4 26 20 1
32 -26 13 -30 -21 -68 -3 -69 32 0 8 18 12 55 12 52 0 55 2 55 24 0 15 -11 33
-26 45 -27 21 -37 24 -64 14z m52 -30 c28 -25 22 -33 -27 -33 -46 0 -58 13
-33 38 17 17 38 15 60 -5z"/>
<path d="M3287 8743 c-4 -3 -20 -6 -37 -5 l-30 1 0 -75 c0 -58 3 -74 15 -74
10 0 15 16 17 63 3 60 4 62 31 65 43 5 57 -13 57 -74 0 -30 5 -54 10 -54 6 0
10 25 10 55 0 46 -4 60 -25 80 -25 26 -37 30 -48 18z"/>
<path d="M3553 8740 c-13 -5 -23 -16 -23 -25 0 -14 3 -14 25 1 29 19 65 10 65
-17 0 -13 -7 -19 -24 -19 -60 0 -96 -35 -74 -74 7 -12 22 -16 64 -14 l54 2 0
63 c0 53 -3 64 -22 77 -25 18 -33 19 -65 6z m67 -87 c0 -35 -18 -47 -63 -44
-28 2 -18 44 13 52 41 11 50 10 50 -8z"/>
<path d="M3742 8740 c-12 -5 -29 -7 -37 -4 -13 5 -15 -6 -15 -70 0 -61 3 -76
15 -76 11 0 15 13 15 53 0 63 9 80 45 80 36 0 45 -17 45 -80 0 -29 5 -53 10
-53 11 0 13 109 2 126 -6 10 -47 35 -54 33 -2 0 -13 -4 -26 -9z"/>
<path d="M4156 8729 c-21 -16 -26 -29 -26 -63 0 -29 6 -48 18 -59 31 -28 102
-20 102 11 0 12 -3 13 -12 4 -18 -18 -75 -15 -82 4 -12 30 -6 34 49 34 49 0
55 2 55 20 0 24 -42 70 -63 70 -8 0 -26 -9 -41 -21z m68 -15 c26 -25 19 -34
-29 -34 -48 0 -62 19 -27 39 24 15 38 13 56 -5z"/>
<path d="M4530 8737 c-34 -17 -46 -64 -26 -110 14 -34 18 -37 54 -37 22 0 45
6 51 13 16 20 2 28 -23 12 -26 -16 -61 -5 -69 24 -5 20 -1 21 55 21 l60 0 -7
28 c-12 49 -53 70 -95 49z m64 -29 c14 -24 5 -30 -43 -26 -41 3 -41 3 -25 26
18 26 51 26 68 0z"/>
<path d="M5209 8730 c-20 -18 -21 -21 -4 -15 44 16 62 16 75 1 16 -21 9 -28
-42 -41 -48 -12 -68 -36 -52 -62 8 -14 25 -18 68 -19 l56 -1 0 57 c0 62 -12
86 -51 95 -18 4 -32 0 -50 -15z m75 -69 c18 -29 -32 -68 -64 -51 -30 16 -24
38 13 49 43 12 45 12 51 2z"/>
<path d="M1060 8663 c0 -89 18 -98 22 -10 3 59 4 62 31 65 42 5 32 22 -13 20
l-40 -1 0 -74z"/>
<path d="M1440 8665 c0 -60 3 -75 15 -75 12 0 15 15 15 75 0 60 -3 75 -15 75
-12 0 -15 -15 -15 -75z"/>
<path d="M1690 8728 c0 -7 12 -38 26 -68 24 -52 26 -73 9 -112 -4 -10 -3 -18
3 -18 5 0 19 21 30 48 11 26 32 73 46 105 17 38 22 57 13 57 -6 0 -24 -26 -38
-58 l-25 -57 -24 58 c-22 53 -40 73 -40 45z"/>
<path d="M2940 8663 c0 -40 4 -73 9 -73 12 0 21 41 15 67 -8 28 12 63 36 63
10 0 22 4 25 10 4 6 -12 9 -40 8 l-45 -2 0 -73z"/>
<path d="M4310 8663 c0 -89 18 -98 22 -10 3 59 4 62 31 65 42 5 32 22 -13 20
l-40 -1 0 -74z"/>
<path d="M4430 8661 c0 -88 -5 -111 -26 -111 -8 0 -14 -4 -14 -10 0 -13 20
-13 40 0 19 12 29 200 11 200 -7 0 -11 -28 -11 -79z"/>
<path d="M4670 8663 c0 -42 4 -73 10 -73 6 0 10 24 10 53 0 55 12 77 42 77 10
0 18 4 18 9 0 6 -18 9 -40 8 l-40 -1 0 -73z"/>
<path d="M4791 8726 c-7 -8 -8 -17 -3 -20 6 -3 15 1 22 9 15 18 42 19 58 3 20
-20 14 -38 -12 -38 -61 0 -96 -33 -76 -71 9 -16 20 -19 65 -17 l55 2 0 61 c0
34 -5 66 -12 73 -17 17 -83 15 -97 -2z m89 -67 c0 -6 -5 -19 -10 -30 -12 -21
-64 -27 -75 -9 -9 15 12 38 38 43 40 8 47 7 47 -4z"/>
<path d="M4942 8728 c25 -93 43 -138 53 -138 7 0 21 25 30 55 10 30 21 53 24
50 4 -2 13 -27 21 -55 19 -69 38 -63 61 20 21 75 22 80 11 80 -5 0 -14 -22
-21 -50 -7 -27 -16 -52 -20 -55 -4 -2 -15 20 -25 50 -21 69 -40 71 -56 5 -7
-28 -16 -52 -20 -55 -5 -3 -16 20 -25 50 -8 30 -20 55 -26 55 -6 0 -9 -6 -7
-12z"/>
<path d="M8450 8475 c0 -63 4 -105 10 -105 6 0 10 17 10 37 l0 37 38 -37 c53
-52 75 -46 24 6 l-43 44 37 28 c21 16 32 31 26 33 -7 2 -27 -9 -45 -24 l-32
-27 -3 56 c-5 99 -22 62 -22 -48z"/>
<path d="M9500 8544 c0 -32 -2 -35 -22 -28 -31 10 -57 8 -74 -6 -21 -18 -28
-74 -12 -107 12 -26 18 -28 71 -29 l57 -1 0 104 c0 62 -4 103 -10 103 -5 0
-10 -16 -10 -36z m-20 -54 c38 -38 19 -100 -30 -100 -34 0 -42 10 -43 57 -1
24 5 40 18 49 25 18 31 18 55 -6z"/>
<path d="M9820 8475 c0 -63 4 -105 10 -105 6 0 10 24 10 54 0 36 5 60 16 70
38 39 74 5 74 -70 0 -30 5 -54 10 -54 15 0 12 113 -3 134 -14 19 -40 23 -74
12 -21 -7 -23 -4 -23 28 0 20 -4 36 -10 36 -6 0 -10 -42 -10 -105z"/>
<path d="M10000 8570 c0 -5 5 -10 10 -10 6 0 10 5 10 10 0 6 -4 10 -10 10 -5
0 -10 -4 -10 -10z"/>
<path d="M10090 8550 c0 -22 -5 -30 -17 -30 -17 -1 -17 -1 0 -11 13 -8 17 -23
17 -68 0 -61 7 -71 51 -71 27 0 24 18 -3 22 -20 3 -23 10 -26 60 -3 55 -2 57
25 61 l28 4 -27 2 c-24 1 -28 5 -28 31 0 17 -4 30 -10 30 -5 0 -10 -13 -10
-30z"/>
<path d="M7095 8522 c-11 -2 -25 -8 -32 -14 -7 -6 -14 -5 -18 2 -3 6 -29 10
-56 9 l-49 -2 0 -74 c0 -42 4 -73 10 -73 6 0 10 19 10 43 0 59 9 85 32 92 33
11 48 -12 48 -76 0 -33 4 -59 10 -59 6 0 10 24 10 54 0 36 5 60 16 70 37 38
64 10 64 -66 0 -34 4 -58 10 -58 7 0 10 25 8 66 -3 72 -21 96 -63 86z"/>
<path d="M7255 8523 c-30 -7 -45 -32 -45 -78 0 -28 6 -47 18 -58 22 -20 73
-22 90 -5 21 21 13 31 -13 14 -30 -20 -40 -20 -59 0 -31 31 -20 44 39 44 49 0
55 2 55 20 0 21 -42 71 -57 69 -4 -1 -17 -3 -28 -6z m46 -23 c36 -20 23 -40
-26 -40 -48 0 -55 9 -29 34 18 19 28 20 55 6z"/>
<path d="M7753 8520 c-13 -5 -23 -14 -23 -20 0 -13 6 -13 30 2 15 10 25 10 38
2 29 -19 19 -37 -28 -48 -41 -10 -45 -14 -48 -43 -4 -37 13 -45 83 -40 40 3
40 3 43 46 4 54 -13 97 -41 105 -27 7 -26 7 -54 -4z m67 -88 c0 -27 -35 -55
-58 -48 -41 13 -33 47 13 59 37 9 45 7 45 -11z"/>
<path d="M7956 8522 c-3 -3 -19 -5 -36 -4 l-30 1 0 -75 c0 -58 3 -74 15 -74
10 0 15 16 17 61 2 45 8 65 20 72 30 19 48 -8 48 -74 0 -45 3 -59 15 -59 10 0
15 16 17 61 2 46 8 65 20 73 31 19 52 -14 49 -80 -3 -69 19 -72 25 -4 8 82
-27 122 -80 95 -14 -8 -28 -10 -31 -6 -6 11 -42 20 -49 13z"/>
<path d="M8200 8521 c-14 -4 -27 -16 -29 -26 -3 -20 -3 -20 17 -1 27 24 72 15
72 -14 0 -15 -7 -20 -25 -20 -59 0 -99 -44 -68 -75 17 -18 64 -20 81 -3 9 9
12 9 12 0 0 -7 5 -12 10 -12 6 0 10 28 10 64 0 56 -3 67 -22 80 -12 9 -25 16
-28 15 -3 -1 -16 -4 -30 -8z m60 -91 c0 -24 -41 -53 -64 -44 -25 10 -16 47 14
55 42 12 50 10 50 -11z"/>
<path d="M8634 8520 c-26 -10 -38 -26 -25 -34 5 -3 14 1 21 9 15 18 42 19 58
3 22 -22 12 -35 -28 -41 -47 -6 -70 -22 -70 -47 0 -29 24 -40 79 -38 l51 2 0
62 c0 37 -5 65 -12 72 -21 16 -52 21 -74 12z m66 -90 c0 -29 -43 -54 -69 -40
-12 6 -21 14 -21 19 0 17 36 36 78 40 6 0 12 -8 12 -19z"/>
<path d="M9082 8519 c-12 -5 -29 -6 -37 -3 -13 5 -15 -6 -15 -70 0 -44 4 -76
10 -76 6 0 10 21 10 46 0 72 29 106 71 84 15 -9 19 -22 19 -70 0 -49 3 -60 16
-60 14 0 16 9 11 60 -7 82 -32 108 -85 89z"/>
<path d="M9260 8522 c-34 -10 -50 -36 -50 -77 0 -50 22 -75 66 -75 49 0 67 21
67 73 0 25 -5 52 -12 60 -13 16 -49 26 -71 19z m45 -26 c37 -27 17 -116 -27
-116 -17 0 -48 41 -48 63 0 27 26 67 44 67 7 0 21 -6 31 -14z"/>
<path d="M9610 8523 c-25 -9 -40 -25 -34 -34 3 -5 12 -2 20 6 18 18 46 19 62
3 20 -20 14 -38 -12 -38 -60 0 -96 -33 -76 -71 9 -15 20 -18 65 -16 l55 2 0
61 c0 37 -5 66 -12 72 -18 14 -51 21 -68 15z m60 -93 c0 -29 -43 -54 -69 -40
-12 6 -21 14 -21 19 0 17 36 36 78 40 6 0 12 -8 12 -19z"/>
<path d="M10224 8520 c-12 -5 -25 -13 -29 -19 -8 -15 18 -14 32 0 18 18 63 2
63 -21 0 -16 -7 -20 -33 -20 -60 0 -99 -49 -63 -79 7 -6 36 -10 65 -9 l51 2 0
62 c0 37 -5 65 -12 72 -21 16 -52 21 -74 12z m64 -87 c3 -12 -32 -53 -46 -53
-5 0 -17 6 -27 14 -16 12 -17 16 -6 29 20 25 71 31 79 10z"/>
<path d="M10496 8515 c-15 -8 -28 -10 -31 -4 -4 5 -28 8 -56 7 l-49 -2 0 -73
c0 -42 4 -73 10 -73 6 0 10 19 10 43 0 80 20 108 61 87 15 -9 19 -22 19 -70 0
-33 4 -60 10 -60 6 0 10 24 10 54 0 36 5 60 16 70 18 19 20 19 45 6 15 -9 19
-22 19 -70 0 -33 4 -60 10 -60 15 0 13 126 -2 137 -25 19 -46 21 -72 8z"/>
<path d="M7380 8442 c0 -54 3 -73 13 -69 7 2 13 24 13 57 4 117 93 100 94 -17
0 -24 5 -43 10 -43 16 0 12 103 -6 128 -13 19 -23 22 -70 20 l-54 -2 0 -74z"/>
<path d="M7559 8498 c5 -13 19 -45 30 -72 19 -42 20 -54 10 -78 -6 -16 -9 -31
-6 -35 6 -5 45 74 85 170 14 34 15 37 3 37 -5 0 -19 -25 -31 -55 -12 -30 -26
-53 -30 -50 -4 3 -16 27 -26 55 -10 27 -24 50 -31 50 -9 0 -10 -6 -4 -22z"/>
<path d="M8330 8444 c0 -58 3 -74 15 -74 10 0 15 16 17 62 3 54 6 63 23 66 42
8 37 21 -8 20 l-47 -1 0 -73z"/>
<path d="M8770 8443 c0 -42 4 -73 10 -73 6 0 10 22 10 49 0 33 6 56 19 72 16
21 22 22 45 11 24 -11 26 -17 26 -72 0 -49 3 -60 16 -60 15 0 16 9 10 61 -8
81 -16 90 -82 87 l-54 -2 0 -73z"/>
<path d="M10000 8445 c0 -43 4 -75 10 -75 6 0 10 32 10 75 0 43 -4 75 -10 75
-6 0 -10 -32 -10 -75z"/>
<path d="M1695 8442 c-2 -3 3 -10 12 -17 14 -10 13 -12 -8 -11 -14 1 -23 -4
-21 -11 1 -7 -4 -12 -10 -10 -20 4 -21 -39 -1 -59 10 -9 17 -20 15 -23 -1 -3
6 -7 18 -9 11 -2 20 -9 21 -15 0 -7 1 -68 1 -137 1 -117 1 -120 8 -45 5 63 6
42 7 -98 1 -109 -2 -175 -8 -172 -5 4 -9 -1 -9 -9 0 -9 4 -16 8 -16 5 0 9 -24
9 -52 1 -48 0 -50 -7 -18 -5 21 -7 -22 -7 -112 l2 -147 1111 -1 c980 0 1113 2
1118 15 5 13 -120 15 -1094 15 -873 0 -1100 3 -1100 13 0 6 0 180 0 386 l0
373 25 20 c27 21 44 83 27 100 -6 6 -12 6 -16 -1 -4 -6 -2 -11 3 -11 6 0 11
-8 11 -17 0 -15 -2 -16 -10 -3 -7 11 -8 6 -5 -17 2 -21 -1 -33 -8 -33 -9 0
-11 14 -9 41 3 29 1 40 -7 35 -7 -5 -9 -1 -5 8 3 9 10 14 14 11 5 -3 12 0 16
6 4 7 3 9 -4 5 -5 -3 -12 -1 -14 6 -4 12 -73 20 -83 10z m42 -834 c-2 -13 -4
-3 -4 22 0 25 2 35 4 23 2 -13 2 -33 0 -45z m1286 -115 c-7 -2 -19 -2 -25 0
-7 3 -2 5 12 5 14 0 19 -2 13 -5z m860 0 c-7 -2 -19 -2 -25 0 -7 3 -2 5 12 5
14 0 19 -2 13 -5z"/>
<path d="M9605 7946 c-62 -28 -69 -97 -14 -138 l29 -22 0 -383 0 -383 -1100 0
c-1094 0 -1100 0 -1100 -20 0 -20 6 -20 1114 -20 l1114 0 1 181 c1 105 -3 187
-8 193 -7 8 -7 54 -1 132 5 65 9 161 7 211 -2 86 0 94 21 108 12 9 22 23 22
31 0 8 7 14 15 14 16 0 19 20 9 58 -4 13 -13 21 -23 20 -9 -2 -15 3 -13 10 3
17 -13 15 -28 -3 -13 -16 -35 -10 -24 6 3 5 10 7 15 4 5 -4 9 -1 9 4 0 14 -8
13 -45 -3z m11 -43 c4 -13 4 -32 1 -43 -3 -11 0 -20 6 -21 9 0 9 -2 0 -5 -7
-3 -9 -12 -6 -21 5 -13 3 -14 -16 -4 -12 7 -19 16 -16 22 4 5 0 9 -7 10 -10 0
-10 2 0 6 14 5 17 43 3 43 -5 0 -7 8 -4 18 6 26 32 23 39 -5z m64 -57 c0 -2
-7 -7 -16 -10 -8 -3 -12 -2 -9 4 6 10 25 14 25 6z m-43 -588 c-3 -7 -5 -2 -5
12 0 14 2 19 5 13 2 -7 2 -19 0 -25z m0 -70 c-3 -7 -5 -2 -5 12 0 14 2 19 5
13 2 -7 2 -19 0 -25z m-2147 -188 c0 -5 -7 -10 -16 -10 -8 0 -12 5 -9 10 3 6
10 10 16 10 5 0 9 -4 9 -10z m158 3 c-10 -2 -26 -2 -35 0 -10 3 -2 5 17 5 19
0 27 -2 18 -5z m595 0 c-106 -2 -280 -2 -385 0 -106 1 -20 2 192 2 212 0 298
-1 193 -2z m302 -3 c8 -13 -5 -13 -25 0 -13 8 -13 10 2 10 9 0 20 -4 23 -10z
m125 4 c-36 -8 -100 -9 -100 -2 0 5 26 7 58 7 31 -1 50 -3 42 -5z m82 -6 c-9
-9 -15 -9 -24 0 -9 9 -7 12 12 12 19 0 21 -3 12 -12z m78 2 c0 -5 -5 -10 -11
-10 -5 0 -7 5 -4 10 3 6 8 10 11 10 2 0 4 -4 4 -10z m253 3 c-7 -2 -19 -2 -25
0 -7 3 -2 5 12 5 14 0 19 -2 13 -5z m380 0 c-40 -2 -106 -2 -145 0 -40 1 -8 3
72 3 80 0 112 -2 73 -3z m-516 -9 c-3 -3 -12 -4 -19 -1 -8 3 -5 6 6 6 11 1 17
-2 13 -5z"/>
<path d="M9593 7835 c0 -8 4 -12 9 -9 5 3 6 10 3 15 -9 13 -12 11 -12 -6z"/>
<path d="M1723 7890 c0 -25 2 -35 4 -22 2 12 2 32 0 45 -2 12 -4 2 -4 -23z"/>
<path d="M2128 7154 c-5 -4 -8 -17 -8 -30 0 -14 -8 -24 -22 -28 l-23 -7 23 -9
c19 -8 22 -17 22 -64 0 -44 4 -57 19 -66 24 -12 41 -13 41 -1 0 5 -9 11 -20
14 -17 4 -20 14 -20 61 0 49 2 56 20 56 11 0 20 5 20 10 0 6 -9 10 -19 10 -15
0 -21 8 -23 31 -2 17 -6 27 -10 23z"/>
<path d="M3180 7145 c0 -8 7 -15 15 -15 8 0 15 7 15 15 0 8 -7 15 -15 15 -8 0
-15 -7 -15 -15z"/>
<path d="M470 7045 c0 -63 4 -105 10 -105 6 0 10 32 10 75 0 41 4 75 8 75 5 0
17 -18 27 -40 30 -67 40 -68 72 -8 l28 53 3 -77 c4 -117 22 -95 22 27 0 59 -4
105 -9 105 -6 0 -24 -27 -42 -60 -36 -68 -43 -68 -79 10 -38 80 -50 67 -50
-55z"/>
<path d="M1780 7045 c0 -63 4 -105 10 -105 6 0 10 13 10 28 0 44 11 45 52 5
50 -49 62 -34 13 17 l-39 40 40 34 c44 40 28 50 -18 11 -16 -14 -34 -25 -39
-25 -5 0 -9 23 -9 50 0 28 -4 50 -10 50 -6 0 -10 -42 -10 -105z"/>
<path d="M2620 7045 c0 -63 4 -105 10 -105 6 0 10 42 10 105 0 63 -4 105 -10
105 -6 0 -10 -42 -10 -105z"/>
<path d="M2770 7045 c0 -59 4 -105 9 -105 6 0 11 17 13 37 l3 38 41 -38 c58
-52 77 -46 24 8 l-44 45 40 34 c44 40 32 50 -14 11 -43 -36 -52 -32 -52 25 0
28 -4 50 -10 50 -6 0 -10 -42 -10 -105z"/>
<path d="M3110 7045 c0 -63 4 -105 10 -105 6 0 10 42 10 105 0 63 -4 105 -10
105 -6 0 -10 -42 -10 -105z"/>
<path d="M3272 7125 c4 -19 1 -25 -13 -25 -11 0 -19 -4 -19 -10 0 -5 6 -10 14
-10 9 0 15 -19 19 -61 5 -62 16 -79 50 -79 24 0 21 13 -5 25 -19 8 -24 19 -26
63 -3 50 -2 52 23 52 15 0 24 4 20 10 -4 6 -14 9 -23 8 -12 -2 -18 5 -20 25
-2 15 -8 27 -14 27 -6 0 -8 -11 -6 -25z"/>
<path d="M721 7074 c-30 -39 -24 -102 13 -126 18 -12 61 -9 82 6 27 20 14 28
-24 14 -27 -10 -34 -9 -51 7 -33 29 -25 35 39 35 52 0 60 3 60 19 0 32 -39 71
-70 71 -19 0 -36 -9 -49 -26z m77 -6 c25 -25 13 -38 -33 -38 -48 0 -55 9 -29
34 18 19 45 21 62 4z"/>
<path d="M880 7020 c0 -47 4 -80 10 -80 10 0 14 25 10 68 -2 31 26 72 49 72
29 0 40 -21 43 -80 2 -30 8 -55 13 -55 14 0 18 85 6 118 -12 31 -55 46 -82 29
-12 -8 -20 -8 -24 -2 -16 27 -25 3 -25 -70z"/>
<path d="M1077 7082 c-24 -27 -22 -97 3 -122 22 -22 42 -25 71 -9 19 9 20 8
17 -18 -2 -24 -8 -28 -36 -31 -18 -2 -40 2 -48 9 -8 6 -18 9 -22 5 -13 -13 31
-36 69 -36 21 0 42 7 49 16 14 16 27 163 16 190 -5 12 -10 13 -19 6 -8 -7 -18
-7 -27 -2 -24 15 -56 11 -73 -8z m77 -18 c33 -33 10 -104 -33 -104 -27 0 -41
21 -41 62 0 52 41 76 74 42z"/>
<path d="M1264 7086 c-10 -8 -16 -18 -11 -22 4 -4 13 -2 19 4 19 19 56 14 68
-8 9 -17 7 -20 -17 -25 -63 -13 -78 -21 -81 -43 -2 -13 2 -30 8 -38 15 -17 61
-19 78 -2 9 9 12 9 12 0 0 -7 5 -12 10 -12 6 0 10 30 10 70 0 58 -3 71 -19 80
-27 14 -54 13 -77 -4z m76 -85 c0 -25 -24 -43 -52 -39 -31 4 -36 36 -6 47 38
16 58 13 58 -8z"/>
<path d="M1420 7021 c0 -47 4 -81 10 -81 6 0 10 27 10 60 0 48 4 61 19 70 46
24 71 -3 71 -76 0 -30 5 -54 10 -54 16 0 12 113 -6 138 -16 23 -48 28 -74 12
-9 -5 -19 -5 -27 2 -10 8 -13 -6 -13 -71z"/>
<path d="M1618 7089 c-24 -13 -33 -72 -18 -109 14 -34 48 -47 79 -30 19 9 21
8 21 -14 0 -16 -8 -30 -21 -37 -18 -9 -27 -7 -50 10 -20 15 -29 18 -29 8 0
-23 23 -37 60 -37 60 0 65 8 68 120 4 96 -1 113 -25 89 -8 -8 -13 -8 -17 0 -9
14 -45 14 -68 0z m70 -21 c7 -7 12 -28 12 -48 0 -55 -40 -81 -71 -44 -16 19
-13 85 4 96 18 11 41 10 55 -4z"/>
<path d="M1953 7093 c-15 -5 -18 -33 -4 -33 6 0 13 5 16 10 10 16 55 12 62 -6
7 -19 -13 -34 -48 -34 -25 0 -59 -27 -59 -47 0 -33 73 -56 98 -31 9 9 12 9 12
0 0 -7 5 -12 10 -12 6 0 10 30 10 70 0 58 -3 71 -19 80 -20 10 -57 12 -78 3z
m77 -91 c0 -24 -19 -42 -46 -42 -29 0 -49 24 -32 37 34 27 78 29 78 5z"/>
<path d="M2305 7084 c-30 -30 -18 -46 65 -84 8 -4 15 -13 15 -21 0 -18 -52
-24 -71 -8 -8 6 -18 9 -22 5 -11 -12 29 -36 59 -36 32 0 61 25 57 48 -3 14
-19 25 -77 52 -45 20 -7 50 40 33 32 -13 40 1 10 17 -28 15 -57 12 -76 -6z"/>
<path d="M2469 7081 c-18 -14 -24 -29 -24 -61 0 -47 29 -80 69 -80 27 0 64 25
53 36 -4 4 -13 2 -19 -4 -25 -25 -78 -8 -78 24 0 8 19 14 53 16 51 3 52 4 50
33 -4 53 -59 72 -104 36z m81 -20 c15 -30 14 -31 -35 -31 -30 0 -45 4 -45 13
0 37 62 51 80 18z"/>
<path d="M2938 7094 c-5 -4 -8 -33 -8 -64 0 -78 35 -109 91 -80 13 7 19 7 19
0 0 -5 5 -10 10 -10 6 0 10 33 10 80 0 47 -4 80 -10 80 -5 0 -10 -24 -10 -54
0 -58 -16 -86 -49 -86 -29 0 -40 21 -43 84 -2 32 -6 54 -10 50z"/>
<path d="M3190 7020 c0 -47 4 -80 10 -80 6 0 10 33 10 80 0 47 -4 80 -10 80
-6 0 -10 -33 -10 -80z"/>
<path d="M920 6760 c0 -20 -5 -30 -15 -30 -8 0 -15 -4 -15 -10 0 -5 7 -10 15
-10 11 0 15 -12 15 -49 0 -27 3 -56 6 -65 7 -18 64 -23 64 -6 0 6 -11 10 -25
10 -24 0 -25 3 -25 55 0 48 3 55 19 55 11 0 23 5 26 10 4 6 -5 10 -19 10 -22
0 -26 4 -26 30 0 17 -4 30 -10 30 -5 0 -10 -13 -10 -30z"/>
<path d="M1020 6780 c0 -5 7 -10 15 -10 8 0 15 5 15 10 0 6 -7 10 -15 10 -8 0
-15 -4 -15 -10z"/>
<path d="M1208 6779 c-20 -11 -24 -59 -8 -75 7 -7 4 -16 -10 -29 -22 -20 -25
-46 -10 -76 8 -14 21 -19 53 -19 24 0 48 5 55 12 9 9 15 9 24 0 7 -7 19 -12
27 -12 11 0 11 3 -4 13 -16 12 -16 18 -7 47 16 43 3 61 -14 21 l-14 -32 -25
27 -25 27 20 22 c32 35 24 69 -20 79 -14 3 -33 1 -42 -5z m60 -36 c3 -23 -26
-47 -44 -35 -17 12 -23 39 -11 51 18 18 52 9 55 -16z m-7 -99 c24 -25 24 -26
5 -40 -24 -17 -31 -17 -57 -4 -21 12 -25 40 -7 58 18 18 32 15 59 -14z"/>
<path d="M1622 6778 c-5 -7 -21 -37 -36 -65 -14 -29 -28 -53 -31 -53 -3 0 -18
27 -35 60 -46 91 -60 81 -60 -40 0 -73 3 -100 13 -100 9 0 11 19 9 70 -4 83 8
91 40 25 12 -25 27 -45 33 -45 6 0 23 24 37 53 l27 52 0 -77 c1 -45 5 -78 11
-78 6 0 10 42 10 105 0 58 -2 105 -4 105 -2 0 -8 -6 -14 -12z"/>
<path d="M1870 6685 c0 -63 4 -105 10 -105 6 0 10 42 10 105 0 63 -4 105 -10
105 -6 0 -10 -42 -10 -105z"/>
<path d="M2780 6780 c0 -5 7 -10 15 -10 8 0 15 5 15 10 0 6 -7 10 -15 10 -8 0
-15 -4 -15 -10z"/>
<path d="M3730 6760 c0 -20 -5 -30 -15 -30 -8 0 -15 -4 -15 -10 0 -5 7 -10 15
-10 11 0 15 -13 15 -53 0 -58 12 -77 47 -77 30 0 30 18 1 22 -20 3 -23 10 -26
56 -3 46 -1 52 17 52 11 0 23 5 26 10 4 6 -5 10 -19 10 -22 0 -26 4 -26 30 0
17 -4 30 -10 30 -5 0 -10 -13 -10 -30z"/>
<path d="M470 6653 c0 -42 4 -73 10 -73 6 0 10 22 10 49 0 64 7 81 34 81 34 0
46 -20 46 -77 0 -74 18 -66 22 10 3 59 4 62 30 65 35 4 51 -25 46 -84 -2 -31
1 -44 9 -44 16 0 18 86 3 124 -8 21 -16 26 -44 26 -19 0 -38 -5 -41 -10 -4 -7
-13 -7 -24 0 -10 5 -37 8 -59 7 l-42 -1 0 -73z"/>
<path d="M750 6715 c-19 -23 -5 -29 23 -11 27 18 52 13 61 -11 8 -19 10 -18
-43 -29 -50 -10 -72 -34 -55 -61 8 -14 25 -18 68 -19 l56 -1 0 58 c0 39 -5 63
-16 73 -20 20 -78 21 -94 1z m83 -85 c-11 -43 -83 -51 -83 -10 0 13 9 22 28
26 15 3 32 7 37 9 17 4 23 -4 18 -25z"/>
<path d="M1027 6723 c-4 -3 -7 -37 -7 -75 0 -54 3 -68 15 -68 12 0 15 15 15
75 0 69 -6 86 -23 68z"/>
<path d="M1716 6717 c-21 -16 -25 -99 -5 -123 14 -16 95 -19 104 -3 11 17 -2
22 -25 9 -30 -16 -70 2 -70 30 0 18 6 20 55 20 61 0 70 14 39 58 -18 25 -69
30 -98 9z m78 -19 c20 -29 12 -38 -35 -38 -32 0 -39 3 -39 20 0 19 24 39 47
40 6 0 19 -10 27 -22z"/>
<path d="M1962 6718 c-22 -22 -13 -27 17 -10 24 14 31 14 45 3 27 -22 18 -38
-25 -47 -51 -11 -76 -41 -56 -68 9 -12 24 -18 43 -17 16 1 39 2 52 3 20 0 22
5 22 62 0 70 -10 86 -55 86 -17 0 -36 -5 -43 -12z m78 -88 c0 -23 -40 -46 -64
-37 -19 8 -21 43 -3 50 6 3 24 6 40 6 21 1 27 -4 27 -19z"/>
<path d="M2121 6663 c10 -37 19 -71 19 -75 0 -5 6 -8 14 -8 8 0 20 17 27 38
25 80 31 82 49 22 9 -32 22 -55 30 -55 8 0 22 29 36 73 14 46 18 72 10 69 -6
-2 -18 -27 -26 -55 -8 -29 -18 -52 -22 -52 -3 0 -14 25 -23 56 -9 31 -21 54
-27 52 -7 -3 -18 -28 -26 -56 -8 -29 -18 -52 -22 -52 -4 0 -13 23 -21 52 -8
28 -19 53 -26 55 -8 3 -6 -17 8 -64z"/>
<path d="M2367 6723 c-4 -3 -7 -12 -7 -19 0 -10 7 -9 29 4 24 14 31 14 45 3
19 -16 21 -41 4 -41 -37 0 -87 -23 -93 -41 -11 -34 12 -49 71 -47 l54 2 0 61
c0 34 -5 66 -12 73 -13 13 -80 17 -91 5z m81 -90 c-2 -10 -15 -24 -30 -33 -25
-13 -29 -13 -44 2 -24 24 -2 48 43 48 27 0 34 -4 31 -17z"/>
<path d="M2520 6653 c0 -57 3 -73 15 -73 10 0 15 16 17 61 3 54 6 63 26 70 17
6 28 3 43 -12 18 -18 20 -29 15 -70 -6 -40 -4 -49 9 -49 21 0 21 97 -1 128
-13 19 -23 22 -70 20 l-54 -2 0 -73z"/>
<path d="M2780 6635 c0 -88 -1 -95 -20 -95 -11 0 -20 -4 -20 -10 0 -13 30 -13
50 0 11 7 16 34 18 105 3 82 2 95 -12 95 -14 0 -16 -15 -16 -95z"/>
<path d="M2871 6716 c-21 -26 -25 -83 -7 -111 13 -20 25 -25 55 -25 22 0 44 6
51 15 10 12 10 15 -3 15 -9 0 -19 -4 -22 -10 -16 -25 -75 8 -75 42 0 5 27 8
61 8 52 0 60 2 55 16 -3 9 -6 19 -6 24 0 35 -85 55 -109 26z m70 -6 c10 -6 19
-20 19 -30 0 -17 -7 -20 -39 -20 -47 0 -55 9 -35 38 17 25 27 27 55 12z"/>
<path d="M3030 6653 c0 -42 4 -73 10 -73 6 0 10 24 10 53 0 55 12 77 42 77 10
0 18 4 18 9 0 6 -18 9 -40 8 l-40 -1 0 -73z"/>
<path d="M3151 6717 c-17 -21 0 -29 21 -10 15 13 23 14 43 5 37 -17 31 -39
-12 -47 -51 -9 -73 -22 -73 -43 0 -27 20 -42 55 -42 17 0 36 5 43 12 9 9 12 9
12 0 0 -7 5 -12 10 -12 17 0 12 116 -6 134 -19 20 -77 21 -93 3z m75 -101
c-18 -29 -47 -34 -66 -11 -17 20 2 43 38 47 38 5 48 -7 28 -36z"/>
<path d="M3300 6724 c0 -28 43 -144 54 -144 7 0 20 25 30 55 9 30 19 55 21 55
2 0 12 -25 21 -55 10 -30 23 -55 29 -55 6 0 21 31 33 68 25 77 26 82 13 82 -4
0 -14 -21 -21 -47 -7 -27 -15 -52 -18 -57 -7 -12 -21 13 -33 62 -6 23 -17 42
-24 42 -6 0 -20 -28 -29 -62 -20 -69 -24 -67 -46 20 -6 23 -15 42 -20 42 -6 0
-10 -3 -10 -6z"/>
<path d="M3562 6718 c-21 -21 -13 -29 13 -12 24 16 65 12 65 -7 0 -5 0 -12 1
-16 0 -5 -19 -13 -42 -18 -49 -12 -70 -36 -53 -62 8 -14 25 -18 68 -19 l56 -1
0 58 c0 39 -5 63 -16 73 -18 19 -75 21 -92 4z m81 -88 c-11 -42 -83 -51 -83
-10 0 21 13 28 57 29 27 1 30 -2 26 -19z"/>
<path d="M2723 6286 c0 -12 5 -13 21 -4 31 16 32 18 4 18 -15 0 -25 -6 -25
-14z"/>
<path d="M2676 6258 c-18 -35 -21 -50 -5 -28 8 11 9 5 6 -24 -3 -34 0 -41 25
-55 15 -9 30 -23 33 -31 6 -21 6 -141 0 -434 -4 -192 -2 -252 8 -258 9 -6 9
-8 0 -8 -8 0 -13 -13 -12 -32 0 -18 3 -27 6 -20 3 8 9 10 16 3 9 -7 11 86 9
377 -2 339 -1 387 13 395 9 4 12 13 8 20 -10 16 -13 41 -5 32 4 -4 7 -12 7
-18 0 -7 7 -12 15 -12 8 0 14 8 14 17 -1 10 2 15 7 12 5 -3 9 1 9 10 0 8 -6
17 -12 19 -10 4 -10 6 0 6 10 1 9 8 -3 31 -9 17 -17 30 -18 30 -1 0 -3 -11 -3
-25 -1 -16 2 -23 10 -18 6 3 7 2 3 -2 -11 -12 -90 -6 -99 8 -3 5 -4 16 -1 24
11 27 -16 12 -31 -19z m24 -20 c0 -18 -2 -20 -9 -8 -6 8 -7 18 -5 22 9 14 14
9 14 -14z"/>
<path d="M7680 5705 c0 -122 18 -144 22 -27 l3 77 28 -52 c15 -29 32 -53 37
-53 5 0 20 22 32 50 13 27 26 50 31 50 4 0 7 -34 7 -75 0 -43 4 -75 10 -75 6
0 10 42 10 105 0 62 -4 105 -10 105 -5 0 -19 -19 -31 -42 -12 -24 -29 -54 -37
-67 -16 -23 -16 -23 -49 43 -18 36 -38 66 -43 66 -6 0 -10 -43 -10 -105z"/>
<path d="M8990 5705 c0 -63 4 -105 10 -105 6 0 10 17 10 37 l0 37 38 -37 c53
-52 76 -47 24 6 l-42 42 37 30 c20 16 31 31 25 33 -7 2 -27 -9 -45 -24 l-32
-27 -3 56 c-5 99 -22 62 -22 -48z"/>
<path d="M9320 5780 c0 -21 -5 -30 -16 -30 -8 0 -12 -5 -9 -10 4 -6 11 -8 16
-5 5 4 9 -16 9 -45 0 -64 13 -90 45 -90 31 0 33 17 3 22 -20 3 -23 10 -26 56
-3 50 -2 52 22 52 15 0 26 5 26 10 0 6 -11 10 -25 10 -21 0 -25 5 -25 30 0 17
-4 30 -10 30 -5 0 -10 -13 -10 -30z"/>
<path d="M9500 5705 c0 -63 4 -105 10 -105 6 0 10 14 10 30 0 17 3 30 6 30 4
0 22 -13 41 -30 49 -44 61 -37 18 11 l-37 41 33 34 c38 39 25 46 -19 9 -17
-14 -33 -25 -36 -25 -3 0 -6 25 -6 55 0 30 -4 55 -10 55 -6 0 -10 -42 -10
-105z"/>
<path d="M9840 5780 c0 -20 -5 -30 -15 -30 -8 0 -15 -4 -15 -10 0 -5 7 -10 15
-10 11 0 15 -13 15 -53 0 -58 12 -77 47 -77 30 0 30 18 1 22 -20 3 -23 10 -26
56 -3 46 -1 52 17 52 11 0 23 5 26 10 4 6 -5 10 -19 10 -22 0 -26 4 -26 30 0
17 -4 30 -10 30 -5 0 -10 -13 -10 -30z"/>
<path d="M8672 5749 c-12 -5 -29 -6 -37 -3 -13 5 -15 -6 -15 -70 0 -44 4 -76
10 -76 6 0 10 22 10 49 0 33 6 56 19 72 16 21 22 22 45 11 24 -11 26 -17 26
-72 0 -47 3 -60 15 -60 23 0 21 112 -2 132 -26 22 -45 26 -71 17z"/>
<path d="M9180 5752 c-24 -7 -40 -23 -34 -33 3 -5 12 -2 20 6 18 18 46 19 62
3 22 -22 12 -35 -28 -41 -47 -6 -70 -22 -70 -47 0 -29 24 -40 79 -38 l51 2 0
56 c0 31 -6 63 -12 72 -15 18 -46 27 -68 20z m55 -82 c9 -15 -12 -48 -36 -55
-24 -8 -55 17 -44 35 14 23 69 37 80 20z"/>
<path d="M7927 5732 c-23 -26 -22 -94 1 -115 23 -21 72 -22 98 -1 18 15 18 15
-3 10 -13 -3 -31 -9 -42 -12 -20 -6 -51 19 -51 42 0 10 14 14 55 14 52 0 55 2
55 24 0 14 -7 32 -16 40 -21 22 -77 20 -97 -2z m83 -7 c22 -26 4 -47 -37 -43
-41 3 -51 18 -28 42 20 20 49 21 65 1z"/>
<path d="M8090 5673 c0 -42 4 -73 10 -73 6 0 10 24 10 54 0 36 5 60 16 70 38
39 74 5 74 -70 0 -30 5 -54 10 -54 13 0 13 106 0 131 -9 16 -20 19 -65 17
l-55 -2 0 -73z"/>
<path d="M8282 5738 c-32 -39 -20 -121 19 -133 11 -4 33 -4 49 0 25 5 30 3 30
-12 0 -41 -53 -58 -85 -27 -9 9 -19 13 -23 9 -4 -4 4 -16 18 -27 17 -14 33
-18 55 -14 46 9 55 30 55 126 l0 86 -54 2 c-33 1 -57 -3 -64 -10z m76 -14 c24
-16 29 -53 12 -85 -12 -21 -64 -27 -75 -8 -14 22 -7 83 11 96 23 16 25 16 52
-3z"/>
<path d="M8460 5735 c-18 -22 -4 -31 18 -12 22 20 43 22 60 5 20 -20 14 -38
-13 -38 -39 0 -85 -27 -85 -50 0 -27 30 -40 84 -38 l46 2 0 54 c0 74 -12 92
-59 92 -22 0 -44 -6 -51 -15z m88 -77 c-2 -12 -15 -29 -30 -38 -25 -13 -29
-13 -44 2 -27 27 -1 50 64 57 8 0 12 -7 10 -21z"/>
<path d="M8809 5728 c-17 -32 -13 -87 8 -110 14 -15 27 -19 55 -15 34 5 38 3
38 -18 0 -36 -50 -48 -82 -18 -21 19 -38 9 -17 -11 26 -25 73 -29 100 -7 22
17 24 28 27 108 l4 89 -61 2 c-53 2 -62 -1 -72 -20z m85 -4 c19 -18 21 -75 4
-92 -47 -47 -107 39 -61 90 20 22 37 23 57 2z"/>
<path d="M9666 5734 c-10 -9 -16 -33 -16 -59 0 -53 19 -75 65 -75 45 0 65 22
65 71 0 61 -14 79 -60 79 -22 0 -45 -7 -54 -16z m78 -10 c32 -32 11 -114 -29
-114 -42 0 -64 98 -27 119 24 15 38 13 56 -5z"/>
<path d="M9957 5732 c-23 -26 -22 -94 1 -115 22 -20 71 -22 96 -4 21 15 25 99
6 122 -18 21 -83 19 -103 -3z m74 -2 c14 -8 19 -21 19 -56 0 -39 -3 -46 -26
-55 -21 -7 -31 -6 -45 7 -23 21 -25 77 -3 98 18 19 28 20 55 6z"/>
<path d="M10120 5673 c0 -42 4 -73 10 -73 6 0 10 24 10 53 0 55 12 77 42 77
10 0 18 4 18 9 0 6 -18 9 -40 8 l-40 -1 0 -73z"/>
<path d="M10241 5736 c-7 -8 -8 -17 -3 -20 6 -3 15 1 22 9 15 18 42 19 58 3
22 -22 12 -35 -29 -41 -56 -7 -76 -28 -61 -62 11 -23 16 -25 67 -23 l55 2 0
61 c0 34 -5 66 -12 73 -17 17 -83 15 -97 -2z m87 -78 c-2 -12 -15 -29 -30 -38
-25 -13 -29 -13 -44 2 -22 21 -6 45 34 51 15 2 31 5 35 6 5 0 7 -9 5 -21z"/>
<path d="M10400 5673 c0 -42 4 -73 10 -73 6 0 10 25 10 55 0 47 3 57 24 70 19
13 29 14 45 5 18 -9 21 -20 21 -70 0 -47 3 -60 15 -60 19 0 21 83 2 120 -11
22 -19 25 -70 26 l-57 1 0 -74z"/>
<path d="M4743 5593 c9 -2 23 -2 30 0 6 3 -1 5 -18 5 -16 0 -22 -2 -12 -5z"/>
<path d="M4831 5586 c4 -5 123 -20 239 -31 116 -11 58 4 -75 20 -136 15 -171
18 -164 11z"/>
<path d="M7780 5410 c0 -37 -2 -40 -19 -30 -52 27 -91 -5 -91 -76 0 -60 45
-93 90 -64 9 5 19 5 27 -2 10 -8 13 10 13 95 0 60 -4 109 -10 112 -6 4 -10
-10 -10 -35z m-16 -56 c32 -31 13 -104 -27 -104 -33 0 -47 19 -47 60 0 56 39
79 74 44z"/>
<path d="M8578 5444 c-5 -4 -8 -22 -8 -41 0 -30 -2 -33 -19 -23 -52 27 -91 -5
-91 -76 0 -60 45 -93 90 -64 9 6 17 5 22 -3 15 -24 19 3 16 108 -2 59 -6 103
-10 99z m-20 -86 c7 -7 12 -28 12 -48 0 -41 -14 -60 -47 -60 -26 0 -43 27 -43
67 0 34 16 53 45 53 12 0 26 -5 33 -12z"/>
<path d="M9230 5435 c0 -8 5 -15 10 -15 6 0 10 7 10 15 0 8 -4 15 -10 15 -5 0
-10 -7 -10 -15z"/>
<path d="M8020 5335 c0 -95 7 -123 25 -95 4 7 12 7 25 0 47 -25 90 8 90 70 0
63 -43 95 -91 70 -17 -10 -19 -7 -19 25 0 24 -4 35 -15 35 -12 0 -15 -18 -15
-105z m104 19 c19 -18 21 -75 4 -92 -7 -7 -21 -12 -33 -12 -31 0 -45 19 -45
60 0 56 39 79 74 44z"/>
<path d="M7870 5370 c-13 -13 -20 -33 -20 -60 0 -64 48 -98 101 -70 30 17 22
29 -11 17 -36 -14 -65 -1 -65 29 0 16 8 19 53 19 47 0 52 2 52 23 0 29 -34 62
-65 62 -14 0 -34 -9 -45 -20z m80 -19 c15 -30 14 -31 -35 -31 -30 0 -45 4 -45
13 0 37 62 51 80 18z"/>
<path d="M8207 5383 c-11 -11 -8 -90 5 -118 13 -30 53 -43 79 -27 12 8 20 8
24 2 4 -6 11 -8 16 -5 12 8 12 145 0 145 -13 0 -21 -26 -21 -70 0 -43 -18 -63
-52 -58 -21 3 -23 9 -26 63 -3 59 -12 82 -25 68z"/>
<path d="M8660 5375 c-16 -20 -5 -32 14 -16 23 19 60 10 64 -16 3 -20 -1 -23
-32 -23 -47 0 -81 -31 -66 -60 13 -25 52 -35 78 -21 13 7 22 7 30 -1 9 -9 12
-6 14 13 3 54 -3 113 -14 126 -14 18 -73 16 -88 -2z m80 -83 c0 -25 -19 -42
-47 -42 -31 0 -42 29 -18 46 28 20 65 18 65 -4z"/>
<path d="M8814 5381 c-2 -2 -4 -38 -4 -78 0 -55 3 -74 13 -71 7 3 13 27 15 58
3 59 15 80 43 80 33 0 49 -28 49 -86 0 -30 5 -54 10 -54 16 0 12 113 -4 136
-11 14 -26 19 -66 19 -28 0 -54 -2 -56 -4z"/>
<path d="M9088 5379 c-10 -5 -18 -19 -18 -29 0 -21 35 -50 60 -50 22 0 40 -20
33 -36 -6 -17 -46 -18 -75 -3 -16 9 -19 8 -16 -3 3 -7 17 -17 32 -23 34 -12
81 11 81 40 0 17 -12 26 -74 55 -45 20 -7 50 40 33 32 -13 40 1 10 17 -25 13
-51 12 -73 -1z"/>
<path d="M9230 5310 c0 -47 4 -80 10 -80 6 0 10 33 10 80 0 47 -4 80 -10 80
-6 0 -10 -33 -10 -80z"/>
<path d="M9318 5379 c-10 -5 -18 -20 -18 -33 0 -23 10 -30 73 -50 11 -3 17
-13 15 -23 -4 -22 -53 -30 -74 -12 -10 8 -14 8 -14 0 0 -18 46 -34 74 -27 14
3 30 15 36 27 15 27 -1 46 -51 59 -42 12 -51 33 -21 49 14 7 25 6 41 -5 28
-20 43 -8 17 12 -23 16 -54 18 -78 3z"/>
<path d="M9474 5376 c-10 -8 -16 -18 -12 -22 4 -4 14 -1 22 5 23 19 60 10 64
-16 3 -20 -1 -23 -30 -23 -45 0 -71 -20 -66 -50 4 -33 50 -50 81 -31 15 10 22
11 25 2 9 -27 22 5 22 55 0 41 -5 59 -20 74 -23 23 -58 26 -86 6z m86 -74 c0
-4 -7 -18 -16 -30 -11 -16 -24 -22 -42 -20 -35 4 -42 35 -10 47 29 12 68 14
68 3z"/>
<path d="M2753 5350 c-13 -5 -23 -12 -23 -15 0 -3 275 -5 610 -5 536 0 610 2
610 15 0 13 -72 15 -587 14 -326 0 -598 -4 -610 -9z m430 -7 c-13 -2 -35 -2
-50 0 -16 2 -5 4 22 4 28 0 40 -2 28 -4z"/>
<path d="M8110 4975 c0 -63 4 -105 10 -105 6 0 10 14 10 30 0 17 4 30 8 30 5
0 21 -13 37 -30 16 -16 36 -30 44 -30 9 0 0 15 -24 41 l-40 41 40 34 c27 22
34 34 23 34 -9 0 -30 -11 -46 -25 -17 -14 -33 -25 -36 -25 -3 0 -6 25 -6 55 0
30 -4 55 -10 55 -6 0 -10 -42 -10 -105z"/>
<path d="M6778 5023 c7 -3 16 -2 19 1 4 3 -2 6 -13 5 -11 0 -14 -3 -6 -6z"/>
<path d="M7670 4943 c0 -42 4 -73 10 -73 6 0 10 18 10 39 0 64 15 93 48 89 26
-3 27 -6 30 -65 4 -79 26 -87 29 -11 3 71 8 80 40 76 27 -3 28 -6 31 -65 2
-35 7 -63 12 -63 14 0 12 124 -2 138 -15 15 -60 16 -76 0 -8 -8 -15 -8 -25 0
-8 7 -35 11 -60 10 l-47 -2 0 -73z"/>
<path d="M7963 5013 c-7 -2 -13 -11 -13 -18 0 -11 6 -11 29 3 24 14 31 14 45
3 26 -22 18 -38 -22 -45 -51 -8 -78 -36 -62 -65 9 -18 19 -21 65 -19 l55 2 0
61 c0 34 -5 66 -12 73 -12 12 -62 15 -85 5z m77 -86 c0 -8 -9 -22 -20 -32 -17
-15 -24 -16 -45 -7 -29 14 -32 27 -7 41 25 15 72 13 72 -2z"/>
<path d="M8276 5004 c-18 -18 -21 -85 -6 -115 8 -14 21 -19 55 -19 24 0 47 5
50 11 11 17 -2 22 -25 9 -30 -16 -70 2 -70 30 0 18 6 20 55 20 61 0 70 14 39
58 -18 26 -74 30 -98 6z m78 -13 c24 -26 13 -41 -30 -41 -41 0 -57 26 -29 46
25 19 39 18 59 -5z"/>
<path d="M8500 4973 c0 -27 6 -59 13 -73 11 -22 19 -25 70 -26 l57 -1 0 74 c0
42 -4 73 -10 73 -5 0 -10 -21 -10 -46 0 -72 -29 -106 -71 -84 -15 9 -19 22
-19 70 0 47 -3 60 -15 60 -11 0 -15 -12 -15 -47z"/>
<path d="M8690 4915 c0 -63 4 -105 10 -105 6 0 10 15 10 34 l0 34 44 -5 c37
-5 46 -2 60 18 20 30 21 78 0 107 -17 25 -71 31 -92 10 -9 -9 -12 -9 -12 0 0
7 -4 12 -10 12 -6 0 -10 -42 -10 -105z m108 33 c3 -39 0 -49 -18 -58 -33 -18
-70 11 -70 53 0 42 17 59 55 55 28 -3 30 -6 33 -50z"/>
<path d="M6610 4999 c-78 -15 -429 -48 -646 -60 -192 -11 -521 -9 -894 6 -80
3 -113 1 -92 -4 18 -5 43 -7 55 -5 12 2 16 2 9 -2 -6 -3 -9 -11 -5 -17 9 -14
10 -19 12 -53 1 -23 4 -25 25 -20 30 7 43 -9 19 -23 -15 -9 -15 -12 -5 -20 8
-4 15 -20 15 -35 1 -14 8 -26 15 -26 7 0 15 -7 19 -15 7 -21 55 -45 88 -45 14
0 25 -4 25 -9 0 -5 17 -9 38 -8 20 0 154 -3 297 -8 379 -11 736 13 1024 71
137 27 141 29 141 50 0 8 3 13 8 11 4 -3 13 1 20 9 11 12 8 14 -15 15 l-28 1
25 8 25 8 -24 1 c-21 1 -23 4 -17 39 5 27 4 33 -3 22 -9 -12 -11 -11 -12 8 -1
12 -2 28 -3 35 -1 6 -7 17 -15 23 -11 8 -11 15 -2 32 11 21 10 22 -21 21 -18
-1 -53 -5 -78 -10z"/>
<path d="M7907 4652 c-29 -32 -15 -132 18 -132 8 0 15 -4 15 -10 0 -5 7 -7 16
-3 14 5 15 3 4 -16 -8 -16 -12 -122 -12 -380 0 -197 -3 -363 -7 -369 -5 -8
-83 -12 -271 -14 -200 -2 -264 -6 -268 -15 -3 -10 59 -13 287 -13 l291 0 0
404 c0 397 0 405 20 411 22 7 50 54 50 82 -1 10 -12 31 -25 48 -20 25 -26 27
-37 16 -10 -11 -10 -12 0 -7 6 4 12 2 12 -3 0 -6 -11 -11 -24 -11 -17 0 -27
-8 -34 -27 -6 -16 -11 -22 -11 -15 -1 7 3 22 9 32 15 28 -12 46 -33 22z m10
-47 c0 -8 -4 -12 -9 -9 -4 3 -8 9 -8 15 0 5 4 9 8 9 5 0 9 -7 9 -15z m76 -12
c-7 -2 -19 -2 -25 0 -7 3 -2 5 12 5 14 0 19 -2 13 -5z m43 -5 c5 -7 3 -8 -6
-3 -9 5 -10 1 -6 -16 6 -20 5 -21 -4 -6 -6 9 -8 22 -5 27 8 13 12 13 21 -2z
m-69 -481 c-1 -67 -3 -9 -3 128 0 138 2 192 3 122 2 -71 2 -183 0 -250z m3
-353 c0 -14 -4 -23 -9 -20 -5 3 -7 15 -4 26 7 28 13 25 13 -6z"/>
<path d="M5780 4450 c0 -5 7 -10 16 -10 8 0 12 5 9 10 -3 6 -10 10 -16 10 -5
0 -9 -4 -9 -10z"/>
<path d="M5790 4421 c0 -5 5 -13 10 -16 6 -3 10 -2 10 4 0 5 -4 13 -10 16 -5
3 -10 2 -10 -4z"/>
<path d="M5843 4415 c1 -11 6 -26 10 -32 5 -8 3 -13 -4 -13 -9 0 -9 -3 0 -14
9 -11 9 -15 -1 -19 -8 -4 -7 -6 4 -6 10 -1 22 -10 28 -20 14 -27 13 -31 -11
-31 -11 0 -18 -4 -15 -9 3 -5 22 -3 43 4 56 19 93 -9 131 -100 20 -49 20 -53
4 -100 l-16 -50 -33 70 c-18 39 -32 82 -33 96 0 23 -3 25 -30 21 -17 -2 -29
-7 -27 -11 1 -3 11 -24 21 -46 10 -22 31 -68 46 -102 34 -75 49 -75 78 0 l20
52 20 -46 c11 -26 26 -50 33 -54 14 -9 39 20 38 44 0 12 -2 12 -8 -2 -5 -14
-15 1 -39 60 -18 43 -32 86 -32 96 0 10 -7 17 -18 17 -28 0 -82 62 -82 93 0
35 -28 90 -41 81 -6 -4 -6 -10 1 -19 7 -8 8 -20 4 -26 -4 -8 -3 -9 4 -5 8 5
12 -2 12 -18 0 -42 -36 -18 -75 49 -19 33 -34 51 -32 40z"/>
<path d="M5676 4403 c-4 -9 -4 -14 0 -10 4 4 12 -1 19 -10 6 -8 17 -14 24 -12
8 3 4 12 -12 27 -23 21 -25 22 -31 5z"/>
<path d="M5390 4385 c7 -8 20 -15 29 -15 13 1 13 3 -3 15 -26 19 -42 19 -26 0z"/>
<path d="M5550 4381 c0 -12 39 -35 46 -28 3 2 -7 12 -21 21 -14 9 -25 12 -25
7z"/>
<path d="M5730 4351 c24 -7 25 -8 3 -15 -11 -4 -27 -14 -34 -24 -11 -14 -11
-15 1 -4 19 16 54 16 44 0 -5 -7 5 -3 20 10 16 12 38 23 50 23 33 2 -32 17
-74 17 -31 0 -32 -1 -10 -7z"/>
<path d="M5548 4341 c-31 -3 -60 -10 -64 -14 -9 -9 129 3 166 14 22 6 21 7
-10 7 -19 -1 -61 -4 -92 -7z"/>
<path d="M5794 4285 c-24 -18 -7 -19 26 0 16 9 19 14 9 15 -8 0 -24 -7 -35
-15z"/>
<path d="M5655 4280 c-3 -5 1 -10 10 -10 9 0 13 5 10 10 -3 6 -8 10 -10 10 -2
0 -7 -4 -10 -10z"/>
<path d="M2037 4273 c-2 -4 -6 -37 -7 -73 -3 -99 -4 -110 -12 -110 -5 0 -8
-19 -8 -42 0 -23 3 -38 8 -34 7 8 9 14 11 47 0 11 6 17 12 14 6 -4 13 2 16 14
3 12 10 18 17 14 6 -3 5 0 -2 8 -11 11 -14 12 -21 1 -12 -20 -21 7 -10 33 7
19 8 19 8 1 1 -20 1 -20 16 0 11 14 14 15 9 2 -3 -10 4 -26 17 -39 20 -20 21
-20 15 -3 -4 10 -19 53 -33 94 -28 83 -29 85 -36 73z m28 -93 c3 -6 -1 -7 -9
-4 -18 7 -21 14 -7 14 6 0 13 -4 16 -10z"/>
<path d="M6194 4214 c4 -9 2 -22 -2 -28 -8 -9 -42 -102 -42 -113 0 -14 19 12
24 33 4 14 17 48 31 75 23 48 23 49 3 49 -14 0 -18 -5 -14 -16z"/>
<path d="M5096 4113 c3 -94 6 -108 22 -111 16 -3 17 4 11 80 -4 46 -4 95 -2
111 5 22 2 27 -14 27 -19 0 -20 -6 -17 -107z"/>
<path d="M5219 4185 c34 -30 49 -92 32 -137 -14 -38 4 -36 24 2 29 56 10 125
-40 148 -42 19 -49 14 -16 -13z"/>
<path d="M5332 4118 c3 -51 7 -101 7 -110 1 -10 8 -18 16 -18 16 0 18 28 15
152 -1 47 2 57 17 61 10 3 0 5 -22 6 l-40 1 7 -92z"/>
<path d="M5461 4179 c15 -15 20 -30 17 -55 -5 -39 -5 -39 16 -18 23 22 20 60
-6 78 -33 24 -52 20 -27 -5z"/>
<path d="M5698 4191 c11 -6 13 -33 10 -110 l-3 -101 78 0 c73 0 78 1 89 25 16
36 4 41 -25 11 -18 -18 -37 -26 -62 -26 l-35 0 0 105 0 105 -32 0 c-22 0 -29
-3 -20 -9z"/>
<path d="M5451 4030 c23 -28 51 -50 61 -50 16 0 11 9 -24 50 -24 27 -51 50
-61 50 -14 0 -9 -11 24 -50z"/>
<path d="M5555 4010 c-8 -14 3 -30 21 -30 8 0 14 9 14 20 0 21 -24 28 -35 10z"/>
<path d="M6178 3938 c-10 -28 4 -58 26 -57 18 1 18 2 3 6 -18 5 -18 5 0 19 17
13 17 13 -1 14 -20 0 -20 0 0 15 19 14 19 14 -3 15 -12 0 -23 -5 -25 -12z"/>
<path d="M6057 3933 c-10 -10 -8 -53 2 -53 16 0 22 18 9 24 -10 5 -10 7 0 12
6 3 12 10 12 15 0 11 -14 12 -23 2z"/>
<path d="M5650 3889 c1 -32 2 -33 15 -15 13 17 15 17 21 3 10 -28 24 -19 23
16 -1 25 -3 27 -6 9 l-5 -24 -24 23 -24 22 0 -34z"/>
<path d="M5790 3905 c-10 -12 -10 -19 -2 -27 9 -9 12 -7 12 9 0 12 6 24 13 26
7 4 8 6 1 6 -6 1 -17 -6 -24 -14z"/>
<path d="M5562 3885 c0 -16 2 -22 5 -12 2 9 2 23 0 30 -3 6 -5 -1 -5 -18z"/>
<path d="M5950 3901 c0 -5 -9 -11 -21 -14 -13 -4 -18 -10 -14 -17 6 -9 9 -9
15 0 4 7 17 10 29 7 18 -4 19 -2 10 14 -10 20 -19 25 -19 10z"/>
<path d="M5450 3891 c0 -6 4 -13 10 -16 6 -3 7 1 4 9 -7 18 -14 21 -14 7z"/>
<path d="M6228 3473 l-28 -4 0 -110 c0 -90 3 -109 15 -109 11 0 15 12 15 50 0
47 2 50 25 50 19 0 29 -10 45 -39 22 -44 36 -56 45 -41 3 5 -4 27 -17 48 -21
37 -21 40 -5 56 18 18 22 62 9 84 -10 14 -63 22 -104 15z m81 -42 c14 -25 -5
-47 -46 -55 -33 -5 -33 -5 -33 34 0 39 1 40 35 40 23 0 37 -6 44 -19z"/>
<path d="M4992 3363 l2 -108 5 100 6 100 33 -102 c19 -57 37 -103 42 -103 5 0
23 42 39 93 l30 92 1 -92 c0 -55 4 -93 10 -93 6 0 10 42 10 106 0 95 -2 105
-17 102 -12 -2 -25 -26 -41 -73 -12 -38 -26 -73 -30 -77 -4 -4 -20 30 -36 77
-17 54 -32 85 -42 85 -11 0 -14 -20 -12 -107z"/>
<path d="M6032 3362 c-36 -110 -38 -122 -18 -122 8 0 17 15 20 35 7 33 9 35
47 35 36 0 41 -3 50 -30 6 -16 17 -30 25 -30 18 0 20 -7 -22 109 -48 133 -59
133 -102 3z m67 16 c13 -36 14 -34 -20 -43 l-27 -7 11 41 c13 49 21 51 36 9z"/>
<path d="M5238 3345 c2 -58 7 -105 13 -105 5 0 9 46 9 105 0 77 -3 105 -12
105 -10 0 -12 -26 -10 -105z"/>
<path d="M5333 3428 c-27 -30 -34 -73 -21 -126 12 -49 39 -72 85 -72 35 0 73
29 73 55 0 23 -16 18 -34 -10 -24 -37 -71 -34 -91 5 -32 61 -10 150 38 150 11
0 34 -12 49 -27 18 -18 28 -22 28 -12 -1 53 -89 78 -127 37z"/>
<path d="M5850 3341 l0 -111 65 0 c53 0 65 3 65 16 0 13 -9 15 -50 12 l-49 -3
-3 94 c-2 65 -7 96 -15 99 -10 3 -13 -23 -13 -107z"/>
<path d="M5510 3335 l0 -105 39 0 c21 0 53 -3 70 -6 24 -5 31 -3 31 10 0 13
-11 16 -60 16 l-60 0 0 40 0 40 40 0 c22 0 40 5 40 10 0 6 -18 10 -40 10 -39
0 -40 1 -40 35 l0 35 55 0 c30 0 55 5 55 10 0 6 -28 10 -65 10 l-65 0 0 -105z"/>
<path d="M5690 3336 c0 -58 4 -107 9 -111 14 -8 121 6 121 16 0 5 -22 9 -50 9
l-50 0 0 49 c0 68 -11 141 -21 141 -5 0 -9 -47 -9 -104z"/>
<path d="M1120 3268 c0 -24 11 -48 21 -48 13 0 10 23 -6 44 -12 16 -15 17 -15
4z"/>
<path d="M5130 3134 c0 -4 7 -12 15 -18 8 -6 24 -58 36 -116 11 -58 23 -108
26 -112 11 -19 24 -3 54 63 l33 72 13 -49 c7 -27 13 -59 13 -70 0 -12 7 -25
16 -28 15 -6 23 8 92 167 12 26 28 50 36 53 9 3 16 12 16 20 0 10 -13 14 -44
14 -49 0 -67 -13 -39 -28 16 -9 15 -16 -12 -83 -31 -80 -35 -79 -53 20 -7 39
-6 53 4 62 25 20 15 29 -31 29 -42 0 -58 -11 -35 -25 6 -3 10 -15 10 -26 0
-24 -40 -119 -50 -119 -4 0 -13 32 -20 71 -11 65 -11 73 4 81 9 5 14 13 11 19
-7 10 -95 13 -95 3z"/>
<path d="M5755 3107 c-8 -19 -23 -37 -35 -40 -23 -6 -27 -27 -5 -27 19 0 19
-4 -1 -69 -19 -67 -13 -101 20 -101 25 0 86 44 86 61 0 16 -23 10 -47 -13 -13
-12 -25 -19 -28 -16 -3 3 2 33 12 68 13 47 22 64 40 71 26 10 31 29 8 29 -11
0 -14 9 -13 31 4 45 -19 48 -37 6z"/>
<path d="M6152 3082 c-15 -15 -21 -16 -30 -5 -7 7 -20 10 -30 6 -21 -7 -62
-43 -62 -55 0 -13 22 -9 42 9 17 15 18 15 12 -18 -4 -19 -13 -51 -21 -73 -17
-51 -17 -56 6 -56 15 0 24 15 40 63 28 82 35 92 68 92 31 0 45 31 21 46 -19
13 -26 11 -46 -9z"/>
<path d="M5896 3059 c-60 -47 -75 -132 -30 -168 15 -12 33 -21 41 -21 26 0 83
32 94 52 14 26 4 35 -18 16 -35 -30 -62 -39 -83 -28 -30 16 -26 48 8 56 52 11
60 15 86 35 30 23 33 41 10 63 -22 22 -76 20 -108 -5z m74 -23 c0 -16 -37 -46
-57 -46 -18 0 -16 20 4 42 19 22 53 24 53 4z"/>
<path d="M1090 3055 c-8 -9 -8 -15 -2 -15 12 0 26 19 19 26 -2 2 -10 -2 -17
-11z"/>
<path d="M5502 3054 c-49 -34 -67 -117 -36 -162 16 -24 53 -29 84 -12 14 7 25
7 39 -2 15 -9 26 -9 45 0 30 13 54 52 33 52 -8 0 -20 -7 -27 -15 -26 -31 -28
-2 -4 73 13 42 24 78 24 80 0 7 -40 0 -45 -8 -4 -7 -12 -7 -25 0 -27 15 -62
12 -88 -6z m92 -30 c9 -23 -11 -88 -33 -108 -27 -24 -65 -17 -69 13 -5 34 4
63 28 89 24 26 65 29 74 6z"/>
<path d="M6420 2754 c-193 -28 -443 -45 -738 -51 -166 -3 -301 -7 -299 -9 11
-11 468 -15 622 -5 282 19 558 56 533 73 -7 4 -15 7 -18 7 -3 -1 -48 -7 -100
-15z"/>
<path d="M6389 2545 c-3 -2 -122 -13 -266 -25 -392 -30 -929 -24 -1204 16 -42
6 -49 3 -79 -23 -29 -26 -33 -36 -33 -77 0 -50 19 -86 64 -117 44 -32 464 -69
774 -69 258 0 729 36 811 61 67 21 117 113 94 175 -17 44 -49 63 -106 64 -28
0 -53 -2 -55 -5z m-1461 -122 c11 -46 7 -53 -14 -25 -12 16 -14 16 -29 -3 -16
-19 -16 -19 -11 7 11 49 27 82 35 72 5 -5 13 -28 19 -51z m37 -20 c3 -12 13
-24 23 -26 10 -3 6 -5 -10 -6 -27 -1 -28 0 -27 52 1 28 3 41 6 27 2 -14 6 -35
8 -47z m103 45 c18 -18 15 -77 -4 -85 -24 -9 -49 10 -52 41 -6 45 29 71 56 44z
m70 -5 c-31 -5 -37 -20 -12 -30 15 -5 15 -7 1 -15 -21 -11 -10 -38 16 -38 11
0 18 -3 14 -6 -3 -4 -18 -4 -32 0 -22 6 -25 12 -25 51 0 44 0 45 33 44 30 -2
30 -2 5 -6z m115 -67 c4 4 7 2 7 -4 0 -22 -20 -22 -29 0 -18 48 -20 71 -3 35
9 -21 21 -35 25 -31z m70 57 c-7 -2 -13 -22 -13 -43 0 -32 4 -39 23 -43 19 -4
18 -4 -5 -6 -27 -1 -28 1 -28 49 0 41 3 50 18 49 10 0 12 -3 5 -6z m113 -51
c0 -39 0 -40 -15 -20 -11 16 -12 23 -3 26 15 5 16 28 2 35 -6 3 -5 4 2 3 8 -2
13 -19 14 -44z m761 6 c-3 -7 -5 -2 -5 12 0 14 2 19 5 13 2 -7 2 -19 0 -25z
m-127 18 c0 -3 -4 -8 -10 -11 -5 -3 -10 -1 -10 4 0 6 5 11 10 11 6 0 10 -2 10
-4z m-541 -61 c0 -5 -4 -3 -9 5 -5 8 -9 22 -9 30 0 16 17 -16 18 -35z m148 8
c-3 -10 -5 -4 -5 12 0 17 2 24 5 18 2 -7 2 -21 0 -30z m-50 -19 c-3 -3 -12 -4
-19 -1 -8 3 -5 6 6 6 11 1 17 -2 13 -5z"/>
<path d="M4901 2434 c0 -11 3 -14 6 -6 3 7 2 16 -1 19 -3 4 -6 -2 -5 -13z"/>
<path d="M5024 2425 c-4 -18 -1 -32 10 -43 21 -21 39 -4 34 34 -4 39 -35 45
-44 9z"/>
<path d="M2105 2510 c-3 -5 -1 -10 4 -10 6 0 11 5 11 10 0 6 -2 10 -4 10 -3 0
-8 -4 -11 -10z"/>
<path d="M1120 2376 c0 -2 7 -9 15 -16 12 -10 15 -10 15 4 0 9 -7 16 -15 16
-8 0 -15 -2 -15 -4z"/>
<path d="M1188 2373 c7 -3 16 -2 19 1 4 3 -2 6 -13 5 -11 0 -14 -3 -6 -6z"/>
<path d="M2951 2344 c0 -11 3 -14 6 -6 3 7 2 16 -1 19 -3 4 -6 -2 -5 -13z"/>
<path d="M2303 2285 c-17 -19 -16 -26 1 -19 15 6 30 34 18 34 -4 -1 -13 -7
-19 -15z"/>
<path d="M831 2257 c-30 -48 -26 -58 4 -12 15 20 24 39 22 42 -3 2 -14 -11
-26 -30z"/>
<path d="M1462 2185 c12 -24 25 -42 30 -39 10 6 -29 84 -42 84 -5 0 0 -20 12
-45z"/>
<path d="M1500 2216 c0 -2 8 -10 18 -17 15 -13 16 -12 3 4 -13 16 -21 21 -21
13z"/>
<path d="M2336 2124 c-5 -14 -4 -15 9 -4 17 14 19 20 6 20 -5 0 -12 -7 -15
-16z"/>
<path d="M766 2108 c-3 -13 -8 -54 -11 -93 -4 -69 -4 -69 10 20 13 87 14 119
1 73z"/>
<path d="M2257 2035 c-9 -20 -24 -38 -32 -41 -8 -4 -15 -13 -15 -21 0 -19 66
31 73 56 9 37 -9 41 -26 6z"/>
<path d="M5100 1895 c1 -26 2 -28 11 -12 8 14 8 22 0 30 -8 8 -11 3 -11 -18z"/>
<path d="M6146 1905 c5 -12 0 -14 -26 -8 -24 4 -31 3 -26 -5 5 -8 2 -10 -8 -6
-10 4 -16 1 -16 -7 0 -11 -3 -11 -11 1 -8 12 -12 12 -16 2 -4 -10 -8 -10 -19
-1 -11 9 -14 8 -14 -2 0 -23 14 -34 42 -36 17 0 29 5 31 16 4 13 5 13 6 -3 1
-14 7 -17 26 -14 17 4 25 1 25 -9 0 -8 5 -11 10 -8 13 8 13 95 0 95 -5 0 -7
-7 -4 -15z"/>
<path d="M5791 1866 c-1 -34 1 -37 14 -26 9 7 12 16 7 19 -5 3 -12 15 -15 26
-3 11 -5 3 -6 -19z"/>
<path d="M5913 1865 c0 -22 2 -30 4 -17 2 12 2 30 0 40 -3 9 -5 -1 -4 -23z"/>
<path d="M5933 1865 c0 -22 2 -30 4 -17 2 12 2 30 0 40 -3 9 -5 -1 -4 -23z"/>
<path d="M5958 1894 c-12 -11 -10 -52 3 -59 14 -10 16 -5 9 33 -3 19 -8 30
-12 26z"/>
<path d="M5234 1875 c-3 -8 -4 -20 -1 -27 3 -7 6 -3 6 8 1 16 7 22 25 22 17 0
26 -7 30 -22 3 -17 4 -16 3 4 -2 19 -8 25 -30 27 -17 1 -30 -4 -33 -12z"/>
<path d="M5321 1863 c-1 -35 15 -43 37 -21 9 9 12 9 12 0 0 -7 5 -12 11 -12 5
0 8 4 4 9 -3 6 3 14 12 20 20 11 17 13 -25 15 -23 1 -28 -3 -24 -16 2 -10 0
-18 -6 -18 -6 0 -13 12 -15 28 -4 25 -4 25 -6 -5z"/>
<path d="M5530 1863 c0 -25 1 -26 14 -8 13 18 13 18 25 -1 11 -18 12 -18 9 0
-2 10 -13 22 -25 27 -20 7 -23 5 -23 -18z"/>
<path d="M5590 1868 c0 -18 5 -28 15 -28 8 0 15 2 15 4 0 2 3 12 7 22 5 12 3
15 -6 9 -8 -4 -17 -2 -22 6 -6 10 -9 6 -9 -13z"/>
<path d="M5650 1870 c0 -6 6 -8 13 -5 6 4 4 0 -5 -8 -24 -19 -23 -22 7 -22 20
0 25 5 23 20 -3 21 -38 35 -38 15z"/>
<path d="M5701 1848 c1 -21 3 -26 6 -13 8 31 23 42 23 17 0 -12 5 -22 11 -22
21 0 4 45 -18 48 -20 3 -23 -1 -22 -30z"/>
<path d="M5511 1854 c0 -11 3 -14 6 -6 3 7 2 16 -1 19 -3 4 -6 -2 -5 -13z"/>
<path d="M6171 1854 c0 -11 3 -14 6 -6 3 7 2 16 -1 19 -3 4 -6 -2 -5 -13z"/>
<path d="M5303 1765 c0 -22 2 -30 4 -17 2 12 2 30 0 40 -3 9 -5 -1 -4 -23z"/>
<path d="M6158 1794 c-4 -3 -27 -6 -51 -6 -44 0 -46 -1 -45 -29 1 -21 6 -29
20 -29 10 0 18 5 18 11 0 8 4 8 14 0 8 -6 18 -11 22 -10 5 1 17 -1 27 -6 19
-8 87 22 87 39 0 24 -74 49 -92 30z"/>
<path d="M5377 1776 c-3 -8 -2 -18 3 -21 13 -8 24 15 12 27 -6 6 -11 4 -15 -6z"/>
<path d="M5771 1754 c0 -22 3 -32 6 -24 3 8 10 20 14 26 6 7 3 16 -6 24 -13
11 -15 7 -14 -26z"/>
<path d="M5990 1782 c-8 -3 -18 -10 -22 -16 -5 -8 -8 -7 -8 2 0 24 -38 13 -43
-14 -6 -32 20 -45 39 -19 8 10 14 13 14 7 0 -21 18 -13 23 11 4 22 4 22 15 -3
l11 -25 0 27 c1 30 -7 38 -29 30z"/>
<path d="M9487 1783 c-4 -3 -7 -29 -7 -56 0 -83 -30 -257 -60 -351 -33 -100
-34 -125 -3 -44 37 97 93 355 93 429 0 28 -9 36 -23 22z"/>
<path d="M5208 1755 c2 -14 6 -25 8 -25 2 0 4 11 4 25 0 14 -4 25 -9 25 -4 0
-6 -11 -3 -25z"/>
<path d="M5240 1760 c0 -11 2 -20 4 -20 2 0 6 9 9 20 3 11 1 20 -4 20 -5 0 -9
-9 -9 -20z"/>
<path d="M5327 1774 c-15 -15 -6 -32 13 -27 12 3 19 10 17 16 -4 14 -21 19
-30 11z"/>
<path d="M5695 1750 c13 -15 14 -20 5 -20 -10 0 -11 -3 -3 -11 6 -6 16 -8 22
-5 15 10 14 36 -1 36 -9 0 -8 4 2 10 12 7 8 10 -14 10 -28 0 -29 0 -11 -20z"/>
<path d="M5740 1745 c0 -14 5 -25 10 -25 6 0 10 11 10 25 0 14 -4 25 -10 25
-5 0 -10 -11 -10 -25z"/>
<path d="M5551 1736 c-1 -15 4 -17 26 -13 15 3 35 1 45 -4 10 -6 19 -5 23 1 3
5 -1 10 -9 10 -9 0 -16 4 -16 8 0 5 -7 9 -15 9 -8 0 -15 -4 -15 -9 0 -13 -28
-9 -33 5 -3 7 -6 4 -6 -7z"/>
<path d="M5661 1734 c0 -11 3 -14 6 -6 3 7 2 16 -1 19 -3 4 -6 -2 -5 -13z"/>
<path d="M5380 1730 c0 -5 5 -10 11 -10 5 0 7 5 4 10 -3 6 -8 10 -11 10 -2 0
-4 -4 -4 -10z"/>
<path d="M9390 1696 c0 -22 4 -27 16 -22 10 4 14 2 11 -6 -2 -7 -11 -12 -18
-10 -8 1 -5 -4 5 -13 17 -13 18 -15 3 -15 -11 0 -17 -8 -16 -22 0 -21 1 -21 8
-4 7 17 8 17 14 3 4 -11 -1 -18 -14 -22 -13 -4 -19 -15 -19 -34 0 -16 -2 -44
-5 -62 -4 -26 -3 -30 4 -14 5 11 10 32 10 47 1 15 6 30 13 34 6 4 8 3 5 -2 -3
-6 -2 -16 3 -24 6 -10 10 -4 13 21 8 51 3 144 -7 146 -5 1 -13 7 -17 15 -6 9
-9 4 -9 -16z"/>
<path d="M9301 1670 c-40 -25 -46 -34 -62 -96 -65 -251 -207 -424 -347 -424
-46 0 -64 8 -170 74 -19 11 33 -100 81 -174 42 -65 186 -220 204 -220 23 0
104 65 141 113 113 147 182 374 199 650 3 59 4 107 2 106 -2 0 -24 -13 -48
-29z"/>
<path d="M3352 1623 c-1 -18 -6 -33 -12 -33 -5 0 -10 -12 -10 -27 l0 -27 16
22 c9 14 14 36 11 60 -3 36 -4 36 -5 5z"/>
<path d="M6050 1506 c0 -19 5 -38 10 -41 6 -4 10 8 10 29 0 19 -4 38 -10 41
-6 4 -10 -8 -10 -29z"/>
<path d="M5360 1495 c0 -19 5 -35 10 -35 6 0 10 9 10 21 0 21 0 21 19 -2 24
-30 34 -21 28 23 -4 30 -5 31 -12 10 -8 -23 -8 -23 -22 -2 -21 30 -33 24 -33
-15z"/>
<path d="M5730 1515 c-8 -10 -9 -15 -1 -15 15 0 14 -37 -1 -43 -7 -3 -1 -6 14
-6 26 -1 27 1 21 32 -8 42 -17 51 -33 32z"/>
<path d="M5785 1520 c-3 -5 1 -10 9 -10 20 0 21 -16 1 -24 -29 -11 -17 -36 18
-36 28 1 30 2 15 14 -13 9 -14 16 -6 24 6 6 8 18 5 26 -7 18 -33 21 -42 6z"/>
<path d="M5844 1505 c-5 -18 -1 -32 10 -43 23 -23 51 -4 51 34 0 24 -5 30 -27
32 -22 3 -29 -2 -34 -23z m46 -9 c0 -8 -4 -17 -9 -21 -12 -7 -24 12 -16 25 9
15 25 12 25 -4z"/>
<path d="M5512 1488 c2 -17 8 -33 15 -35 7 -3 9 3 6 16 -3 12 -1 21 5 21 5 0
12 -9 15 -20 9 -34 23 -22 19 15 -4 35 -16 45 -26 23 -5 -10 -7 -10 -12 0 -11
24 -25 12 -22 -20z"/>
<path d="M5949 1518 c-11 -51 2 -81 15 -35 l7 22 11 -25 c11 -25 11 -25 15 -2
5 27 23 29 23 2 0 -11 5 -20 11 -20 6 0 9 12 7 28 -3 24 -7 27 -45 30 -24 2
-43 2 -44 0z"/>
<path d="M5453 1499 c-16 -16 2 -49 27 -49 14 0 18 6 17 27 -3 30 -25 41 -44
22z m32 -29 c3 -5 1 -10 -4 -10 -6 0 -11 5 -11 10 0 6 2 10 4 10 3 0 8 -4 11
-10z"/>
<path d="M5600 1495 c-18 -21 -5 -47 22 -43 26 3 37 36 16 49 -18 12 -24 11
-38 -6z m35 -14 c7 -12 -12 -24 -25 -16 -11 7 -4 25 10 25 5 0 11 -4 15 -9z"/>
<path d="M9400 1495 c-8 -45 -8 -47 2 -37 5 5 8 18 5 28 -3 11 -6 15 -7 9z"/>
<path d="M3286 1454 c-15 -14 -25 -28 -22 -32 4 -3 21 8 39 26 37 38 25 43
-17 6z"/>
<path d="M9362 1425 c0 -16 2 -22 5 -12 2 9 2 23 0 30 -3 6 -5 -1 -5 -18z"/>
<path d="M6400 1165 c0 -9 -11 -20 -25 -25 -33 -13 -32 -29 3 -29 107 0 135
-1 144 -8 8 -4 5 -9 -8 -14 -15 -6 -12 -8 14 -8 22 -1 32 4 32 14 0 9 9 15 25
15 14 0 25 -4 25 -10 0 -5 -9 -10 -21 -10 -11 0 -17 -4 -14 -10 7 -11 108 -14
118 -4 12 12 -6 34 -23 29 -10 -3 -21 -1 -24 4 -4 5 3 13 15 16 12 4 18 13 15
20 -3 8 0 16 7 18 7 3 3 5 -8 5 -11 0 -50 3 -87 7 -55 7 -69 5 -83 -9 -17 -16
-40 -13 -30 5 4 5 -3 9 -14 9 -12 0 -21 -5 -21 -12 0 -9 -3 -9 -12 0 -16 16
-28 15 -28 -3z"/>
<path d="M934 1035 c3 -8 1 -15 -5 -15 -6 0 -7 -4 -4 -10 7 -11 0 -12 -32 -4
-13 4 -23 13 -23 20 0 19 -10 18 -26 -3 -13 -17 -14 -17 -7 2 6 20 6 20 -15 1
-23 -20 -29 -32 -12 -21 6 3 10 0 10 -7 0 -8 9 -20 20 -28 26 -19 25 -24 -5
-38 -29 -13 -66 -5 -43 10 10 7 9 11 -6 23 -21 16 -41 10 -29 -8 11 -18 12
-38 2 -31 -5 3 -9 -4 -9 -16 0 -12 -4 -18 -10 -15 -5 3 -7 20 -3 37 5 23 3 29
-6 24 -7 -5 -10 -14 -7 -22 3 -8 -1 -14 -8 -14 -14 0 -31 -44 -27 -69 1 -7 -2
-10 -8 -7 -13 9 -8 -79 8 -126 7 -21 17 -38 22 -38 6 0 7 -4 4 -10 -3 -5 -1
-10 4 -10 6 0 11 -5 11 -11 0 -17 29 -41 41 -33 8 5 9 3 4 -6 -6 -10 -4 -12 9
-7 10 4 15 3 11 -3 -3 -5 14 -19 37 -32 43 -22 44 -22 636 -26 325 -2 592 0
592 5 0 4 30 9 68 10 55 1 61 0 32 -7 -27 -7 -19 -8 30 -4 36 2 99 4 140 4 41
-1 86 0 100 0 31 2 44 1 198 -6 87 -4 133 -2 153 7 23 9 33 9 42 0 12 -12 271
-16 264 -4 -3 5 35 6 84 4 85 -3 149 9 149 29 0 4 13 13 29 20 18 7 28 18 26
28 -1 9 5 25 13 35 15 16 14 17 -1 11 -14 -5 -16 -1 -14 17 4 26 26 37 37 19
12 -19 40 -4 40 22 0 19 -2 20 -10 8 -5 -8 -10 -10 -10 -4 0 6 7 17 15 24 21
17 19 67 -2 79 -11 7 -13 11 -5 11 8 0 12 9 10 23 -2 12 -9 21 -17 19 -7 -1
-11 3 -8 10 6 17 -24 68 -40 68 -25 0 -22 -19 4 -28 23 -9 24 -11 8 -12 -11
-1 -24 -2 -28 -1 -5 1 -6 -3 -2 -9 3 -6 10 -8 15 -5 4 3 14 -5 22 -18 14 -20
13 -24 -8 -42 -32 -27 -30 -35 10 -35 40 0 59 -28 25 -37 -15 -4 -19 -11 -15
-28 5 -20 3 -22 -17 -17 -31 8 -44 24 -43 52 1 21 -4 25 -33 27 -20 2 -39 -2
-44 -9 -5 -8 -7 -1 -4 20 3 24 0 32 -10 28 -7 -3 -13 -1 -13 4 0 6 9 10 20 10
17 0 20 7 20 51 0 31 4 48 10 44 6 -3 10 3 10 15 0 12 -4 18 -10 15 -6 -3 -7
1 -4 9 3 9 11 16 17 16 20 0 -1 12 -26 14 -17 2 -24 -1 -20 -9 2 -7 -1 -16 -7
-20 -6 -3 -10 -3 -9 2 1 4 -1 16 -5 26 -8 16 -73 17 -1163 17 -1023 0 -1154
-2 -1149 -15z m26 -10 c0 -8 -2 -15 -4 -15 -2 0 -6 7 -10 15 -3 8 -1 15 4 15
6 0 10 -7 10 -15z m297 9 c-3 -3 -12 -4 -19 -1 -8 3 -5 6 6 6 11 1 17 -2 13
-5z m1480 0 c-3 -3 -12 -4 -19 -1 -8 3 -5 6 6 6 11 1 17 -2 13 -5z m203 2 c0
-3 -4 -8 -10 -11 -5 -3 -10 -1 -10 4 0 6 5 11 10 11 6 0 10 -2 10 -4z m175 -1
c-24 -8 -165 -11 -165 -3 0 4 39 8 88 7 48 0 83 -2 77 -4z m-965 -19 c0 -3 -4
-8 -10 -11 -5 -3 -10 -1 -10 4 0 6 5 11 10 11 6 0 10 -2 10 -4z m235 -106 c3
-5 15 -10 25 -10 16 0 19 -7 18 -33 -1 -19 2 -38 5 -44 4 -6 -3 -8 -19 -5
l-26 5 16 -31 c16 -32 21 -50 10 -39 -4 4 -14 -8 -23 -26 -9 -17 -23 -32 -31
-33 -30 -1 -70 -16 -64 -25 3 -5 -5 -9 -18 -9 -17 0 -19 3 -9 9 10 7 5 11 -17
16 -18 3 -36 4 -42 0 -6 -4 -7 1 -3 12 6 16 5 16 -11 4 -14 -12 -22 -12 -36
-3 -12 7 -21 8 -25 2 -4 -6 -15 -6 -31 0 -14 6 -46 10 -72 10 -26 0 -54 5 -62
10 -8 5 -10 10 -5 10 6 0 3 5 -5 10 -12 7 -12 12 -2 22 7 7 12 37 12 71 0 50
2 58 18 55 14 -3 18 -16 20 -71 2 -53 6 -67 19 -67 10 0 13 5 8 18 -5 14 -4
15 6 5 20 -20 42 -16 36 6 -7 28 34 71 69 71 25 0 74 -19 50 -20 -5 0 -3 -6 3
-14 14 -17 4 -74 -18 -100 -15 -18 -15 -18 7 -5 12 8 22 23 22 34 0 11 4 26 9
34 5 7 5 27 1 43 -6 18 -5 26 1 22 5 -3 15 -1 22 4 19 15 75 -5 83 -30 3 -11
6 -37 6 -58 -1 -27 5 -40 21 -50 19 -11 20 -11 11 1 -15 19 -22 98 -9 103 5 2
2 5 -7 5 -20 1 -20 41 0 41 8 0 12 6 8 15 -3 8 0 14 6 12 19 -4 20 21 1 26
-16 4 -16 5 -1 6 9 0 20 -3 23 -9z m363 -15 c-3 -3 -9 2 -12 12 -6 14 -5 15 5
6 7 -7 10 -15 7 -18z m77 15 c3 -6 -1 -7 -9 -4 -18 7 -21 14 -7 14 6 0 13 -4
16 -10z m-1803 -12 c-14 -14 -16 -52 -2 -43 5 3 7 0 5 -8 -3 -7 3 -33 14 -58
l20 -44 0 77 c1 71 2 76 21 71 18 -5 20 -14 20 -82 0 -83 7 -121 22 -121 5 0
6 5 3 10 -3 6 -1 10 4 10 6 0 11 -7 11 -16 0 -12 -6 -15 -25 -10 -25 6 -36 -8
-12 -17 9 -4 9 -6 -1 -6 -7 -1 -15 6 -18 14 -4 8 -10 12 -15 9 -5 -3 -9 1 -9
8 0 8 -4 7 -10 -4 -9 -14 -21 -16 -83 -11 -49 4 -76 11 -84 22 -6 9 -8 18 -4
21 12 9 31 61 26 70 -3 5 0 12 6 16 8 4 9 3 5 -4 -4 -7 -5 -12 -2 -12 12 0 36
60 30 74 -4 11 2 17 23 21 15 3 35 10 43 15 21 13 26 12 12 -2z m544 -13 c3
-14 4 -31 1 -39 -9 -22 5 -28 24 -10 18 16 53 16 92 -1 12 -5 17 -3 17 9 0 13
4 15 17 7 10 -5 26 -5 40 0 19 7 23 5 23 -11 0 -10 -5 -22 -10 -25 -6 -4 -7
-12 -3 -18 4 -7 0 -6 -10 2 -14 11 -18 11 -23 -3 -3 -9 -4 -33 -2 -54 3 -33 1
-38 -14 -34 -14 3 -18 15 -19 51 -1 25 -3 38 -6 29 -2 -10 -8 -18 -12 -18 -5
0 -6 -11 -3 -25 5 -30 -13 -55 -42 -56 -20 0 -20 -1 -2 -8 14 -5 16 -10 8 -15
-7 -4 -27 8 -48 28 -21 20 -42 36 -47 36 -6 0 -3 6 6 13 10 7 14 17 8 25 -6
10 -10 10 -20 -2 -12 -14 -35 -84 -24 -73 3 4 14 2 24 -4 15 -8 19 -6 19 8 0
13 3 14 11 6 18 -18 2 -43 -26 -43 -28 0 -54 19 -48 35 5 15 -44 17 -53 3 -5
-7 -3 -8 6 -3 9 5 11 4 6 -3 -4 -7 -18 -12 -31 -12 -17 0 -23 5 -22 19 0 11 4
18 7 16 3 -2 16 3 30 11 14 7 19 13 13 14 -7 0 -13 5 -13 11 0 5 4 8 9 4 6 -3
8 4 6 17 -3 13 -9 24 -15 26 -6 2 -8 8 -5 12 3 5 3 21 -1 35 -5 20 -9 23 -15
14 -6 -10 -8 -8 -7 7 3 28 44 31 53 4 4 -11 12 -20 18 -19 28 3 36 -2 31 -18
-5 -15 -4 -15 4 -3 6 8 8 18 6 22 -3 4 -2 14 3 21 4 6 8 15 9 20 3 15 4 17 14
17 5 0 12 -11 16 -25z m441 19 c-3 -3 -12 -4 -19 -1 -8 3 -5 6 6 6 11 1 17 -2
13 -5z m601 -31 c2 -9 -9 -13 -35 -13 -32 0 -39 -4 -40 -20 -1 -16 4 -20 33
-20 27 0 34 -4 34 -20 0 -16 -7 -20 -37 -20 -36 -1 -37 -2 -19 -15 21 -16 67
-21 65 -7 -3 19 2 33 10 27 5 -3 13 0 17 6 5 8 3 9 -6 4 -8 -5 -11 -3 -8 6 3
8 1 22 -4 32 -7 13 -5 17 11 17 11 0 26 -10 32 -22 l11 -21 17 21 c9 12 28 23
43 24 15 1 26 5 26 8 -2 20 4 30 17 30 8 0 15 -8 15 -19 0 -10 9 -21 20 -24
24 -6 28 -47 5 -47 -9 0 -15 -9 -15 -22 1 -21 2 -22 14 -6 12 16 13 15 14 -13
2 -62 12 -41 12 24 l0 67 40 0 c31 0 40 -4 41 -17 1 -17 2 -17 6 0 2 9 8 17
11 18 58 6 72 3 81 -21 6 -14 12 -36 14 -50 4 -22 4 -22 6 5 1 17 7 37 14 46
12 16 90 32 81 17 -3 -4 -1 -8 5 -8 5 0 13 -9 16 -20 4 -11 11 -17 17 -14 6 4
5 10 -3 15 -12 7 -12 12 -1 29 7 11 10 25 7 30 -4 6 7 10 24 10 25 0 29 -3 26
-21 -3 -12 -2 -19 2 -15 7 7 33 -12 33 -25 0 -5 -8 -9 -18 -9 -15 0 -18 -6
-14 -32 3 -18 11 -37 18 -41 8 -4 14 -15 14 -22 0 -9 10 -15 25 -15 18 0 23
-4 19 -15 -8 -20 -54 -20 -54 1 0 9 -5 13 -12 10 -7 -3 -21 -9 -30 -12 -10 -4
-18 -13 -18 -20 0 -16 -36 -19 -45 -4 -3 6 -32 11 -63 11 -31 1 -49 3 -40 6
17 4 21 43 5 43 -4 0 -5 5 -1 12 5 7 3 8 -5 3 -7 -4 -10 -16 -8 -27 4 -15 2
-18 -11 -13 -28 11 -112 14 -118 4 -3 -5 -16 -9 -30 -9 -14 0 -35 -5 -46 -11
-15 -8 -18 -8 -14 0 4 7 1 9 -8 5 -9 -3 -20 3 -27 14 -10 17 -17 18 -41 10
-23 -8 -27 -14 -22 -34 6 -25 -4 -32 -23 -13 -6 6 -30 12 -53 14 -23 2 -45 7
-48 11 -4 4 2 5 14 2 13 -3 21 0 21 8 0 8 -8 12 -21 9 -63 -12 -136 -14 -136
-4 0 6 6 9 13 6 10 -4 12 3 9 24 -2 16 -8 29 -13 29 -5 0 -9 5 -9 11 0 5 6 7
13 4 6 -4 4 0 -5 8 -21 17 -23 28 -5 25 7 -2 13 11 15 35 l3 38 56 -3 c34 -2
58 -8 61 -15z m-1327 -17 c-9 -11 -6 -12 14 -9 13 3 37 1 54 -5 21 -7 33 -7
42 1 10 9 10 7 -1 -6 -10 -14 -10 -21 -2 -29 15 -15 15 -28 1 -28 -5 0 -7 5
-4 10 3 6 1 10 -4 10 -6 0 -11 -7 -11 -15 0 -8 -8 -16 -17 -16 -17 -1 -17 -2
0 -6 21 -6 21 -9 -1 -37 -10 -13 -26 -22 -37 -20 -24 4 -55 -4 -54 -14 5 -30
-3 -35 -19 -14 -19 25 -55 22 -45 -4 6 -15 -14 -19 -35 -5 -11 7 -11 9 2 14
19 8 21 27 4 27 -7 1 -23 9 -35 19 -31 26 -33 97 -3 106 11 3 20 10 20 14 0 4
12 8 28 9 20 1 32 -6 47 -28 16 -24 21 -26 28 -14 5 8 6 22 3 30 -3 8 -2 12 3
9 5 -3 12 -1 16 5 3 5 9 10 12 10 3 0 0 -6 -6 -14z m1769 -12 c0 -21 -17 -25
-22 -6 -3 11 0 19 8 19 8 0 14 -6 14 -13z m-1170 -9 c7 -8 16 -13 20 -10 5 3
12 1 15 -5 4 -6 1 -9 -7 -8 -8 2 -14 -9 -16 -32 -5 -73 -8 -78 -49 -73 -20 2
-43 9 -50 15 -9 8 -13 7 -13 -2 0 -6 9 -14 20 -17 26 -7 26 -22 1 -20 -11 0
-18 4 -15 8 2 4 0 10 -6 14 -13 8 -1 67 18 83 14 11 14 12 -1 12 -20 0 -21 4
-7 31 13 23 72 26 90 4z m717 9 c-3 -3 -12 -4 -19 -1 -8 3 -5 6 6 6 11 1 17
-2 13 -5z m-117 -14 c0 -5 -2 -10 -4 -10 -3 0 -8 5 -11 10 -3 6 -1 10 4 10 6
0 11 -4 11 -10z m-1767 -33 c7 4 8 0 4 -11 -4 -10 -7 -25 -7 -34 0 -14 -2 -15
-15 -2 -9 10 -12 24 -8 40 4 13 8 19 11 12 2 -7 9 -9 15 -5z m1756 -29 c14
-31 10 -39 -24 -51 -6 -2 -4 -11 4 -20 12 -15 11 -17 -6 -17 -18 0 -20 6 -16
51 2 28 -1 57 -7 64 -8 9 -5 11 13 8 13 -3 28 -17 36 -35z m-1707 -48 c-5 -36
-22 -40 -22 -6 0 13 -3 26 -7 29 -5 2 -2 2 5 1 6 -2 12 1 12 7 0 6 4 8 8 5 5
-3 7 -19 4 -36z m615 -16 c-3 -3 -12 -4 -19 -1 -8 3 -5 6 6 6 11 1 17 -2 13
-5z m1405 -18 c15 -26 1 -32 -19 -9 -10 11 -25 18 -33 16 -12 -4 -13 -3 -1 5
19 14 42 9 53 -12z m198 9 c6 3 10 1 10 -5 0 -13 -42 -9 -52 5 -5 6 -8 5 -8
-3 0 -7 -5 -10 -11 -6 -19 11 13 24 33 13 10 -6 23 -7 28 -4z m-933 -8 c3 -4
-8 -7 -25 -7 -17 0 -34 4 -37 10 -7 11 51 8 62 -3z m507 -1 c-3 -8 -12 -17
-21 -20 -10 -4 -13 -2 -10 8 4 11 1 13 -10 9 -11 -4 -14 -2 -9 5 11 18 57 15
50 -2z m466 10 c0 -3 -4 -8 -10 -11 -5 -3 -10 -1 -10 4 0 6 5 11 10 11 6 0 10
-2 10 -4z m-830 -20 c0 -3 -4 -8 -10 -11 -5 -3 -10 -1 -10 4 0 6 5 11 10 11 6
0 10 -2 10 -4z m-1359 -73 c13 -16 12 -17 -3 -4 -10 7 -18 15 -18 17 0 8 8 3
21 -13z m2450 -1 c-7 -2 -18 1 -23 6 -8 8 -4 9 13 5 13 -4 18 -8 10 -11z m79
13 c0 -7 -30 -13 -34 -7 -3 4 4 9 15 9 10 1 19 0 19 -2z m-1702 -62 c-21 -2
-57 -2 -80 0 -24 2 -7 4 37 4 44 0 63 -2 43 -4z m375 0 c-13 -2 -35 -2 -50 0
-16 2 -5 4 22 4 28 0 40 -2 28 -4z m720 0 c-7 -2 -21 -2 -30 0 -10 3 -4 5 12
5 17 0 24 -2 18 -5z m290 0 c-18 -2 -48 -2 -65 0 -18 2 -4 4 32 4 36 0 50 -2
33 -4z"/>
<path d="M2130 810 c0 -5 9 -10 21 -10 11 0 17 5 14 10 -3 6 -13 10 -21 10 -8
0 -14 -4 -14 -10z"/>
<path d="M2255 810 c3 -5 12 -7 20 -3 21 7 19 13 -6 13 -11 0 -18 -4 -14 -10z"/>
<path d="M2130 755 c7 -9 16 -12 19 -7 3 5 15 12 26 15 11 3 3 5 -19 6 -34 1
-37 -1 -26 -14z"/>
<path d="M2250 762 c0 -4 9 -8 19 -8 11 0 17 4 15 8 -7 10 -34 10 -34 0z"/>
<path d="M2090 720 c0 -5 5 -10 11 -10 5 0 7 5 4 10 -3 6 -8 10 -11 10 -2 0
-4 -4 -4 -10z"/>
<path d="M970 821 c0 -5 6 -14 14 -20 12 -10 13 -8 9 8 -5 21 -23 30 -23 12z"/>
<path d="M950 740 c0 -7 8 -9 21 -5 16 6 20 4 13 -6 -6 -12 -5 -12 8 -1 11 9
18 9 21 2 3 -6 4 -5 3 2 -3 16 -66 24 -66 8z"/>
<path d="M1610 810 c0 -5 4 -10 9 -10 6 0 13 5 16 10 3 6 -1 10 -9 10 -9 0
-16 -4 -16 -10z"/>
<path d="M1555 800 c3 -5 8 -10 11 -10 2 0 4 5 4 10 0 6 -5 10 -11 10 -5 0 -7
-4 -4 -10z"/>
<path d="M1610 760 c0 -5 7 -10 15 -10 8 0 15 5 15 10 0 6 -7 10 -15 10 -8 0
-15 -4 -15 -10z"/>
<path d="M2728 813 c6 -2 12 -9 12 -14 0 -6 -4 -8 -8 -5 -4 2 -14 1 -22 -4
-13 -8 -11 -13 8 -32 13 -13 22 -17 22 -10 0 7 5 10 10 7 6 -4 10 8 10 29 0
31 -3 36 -22 35 -13 0 -17 -3 -10 -6z"/>
<path d="M2798 813 c7 -3 16 -2 19 1 4 3 -2 6 -13 5 -11 0 -14 -3 -6 -6z"/>
<path d="M2960 810 c0 -5 9 -10 21 -10 11 0 17 5 14 10 -3 6 -13 10 -21 10 -8
0 -14 -4 -14 -10z"/>
<path d="M3089 818 c-7 -17 -5 -59 3 -64 7 -5 8 -2 3 7 -7 12 -6 12 7 1 10 -8
18 -9 22 -3 10 16 -5 61 -20 61 -8 0 -15 -1 -15 -2z"/>
<path d="M2877 763 c-3 -27 -3 -50 -1 -53 11 -10 39 19 36 38 -2 12 6 26 18
35 l21 14 -23 7 c-41 10 -45 7 -51 -41z"/>
<path d="M3153 766 c13 -27 27 -26 23 2 -2 9 -10 18 -19 20 -13 3 -14 0 -4
-22z"/>
<path d="M2950 760 c0 -5 7 -7 15 -4 8 4 15 8 15 10 0 2 -7 4 -15 4 -8 0 -15
-4 -15 -10z"/>
<path d="M3177 733 c-9 -8 12 -33 27 -33 6 0 3 5 -7 11 -9 6 -15 14 -12 20 7
10 2 12 -8 2z"/>
<path d="M3142 698 c5 -15 28 -18 29 -3 0 6 -7 12 -17 13 -10 3 -15 -1 -12
-10z"/>
<path d="M1173 813 c9 -2 17 -12 17 -21 0 -13 -2 -14 -9 -4 -7 11 -9 11 -14
-2 -4 -9 -1 -16 6 -16 8 0 6 -4 -3 -10 -12 -8 -11 -10 8 -10 19 0 22 5 22 35
0 30 -3 35 -22 34 -17 -1 -19 -2 -5 -6z"/>
<path d="M1290 812 c0 -4 9 -8 20 -9 11 -1 18 2 15 8 -7 11 -35 12 -35 1z"/>
<path d="M1242 756 c1 -39 12 -54 24 -35 4 7 3 9 -3 6 -6 -4 -10 7 -11 24 0
17 -3 33 -6 36 -3 3 -5 -11 -4 -31z"/>
<path d="M1290 759 c0 -5 9 -9 20 -9 11 0 20 2 20 4 0 2 -9 6 -20 9 -11 3 -20
1 -20 -4z"/>
<path d="M1820 810 c0 -5 9 -10 21 -10 11 0 17 5 14 10 -3 6 -13 10 -21 10 -8
0 -14 -4 -14 -10z"/>
<path d="M1835 759 c-11 -17 1 -21 15 -4 8 9 8 15 2 15 -6 0 -14 -5 -17 -11z"/>
<path d="M776 1001 c-3 -5 1 -11 9 -14 9 -4 12 -1 8 9 -6 16 -10 17 -17 5z"/>
<path d="M8290 730 l0 -80 43 0 c68 0 109 40 72 70 -11 9 -13 16 -5 24 32 32
-6 66 -76 66 l-34 0 0 -80z m74 54 c33 -13 11 -44 -30 -44 -8 0 -14 10 -14 25
0 25 13 31 44 19z m22 -76 c10 -15 -23 -37 -46 -31 -11 3 -20 14 -20 24 0 14
7 19 29 19 17 0 33 -5 37 -12z"/>
<path d="M8493 798 c-14 -18 -53 -118 -53 -134 0 -21 21 -16 27 6 8 29 65 28
86 -2 24 -37 28 -15 8 44 -33 95 -47 113 -68 86z m37 -80 c0 -5 -9 -8 -20 -8
-20 0 -25 15 -13 45 5 15 8 14 19 -6 7 -13 13 -27 14 -31z"/>
<path d="M8610 729 l0 -82 47 6 c55 6 73 25 73 79 0 51 -27 78 -80 78 l-40 0
0 -81z m80 41 c36 -36 18 -90 -30 -90 -29 0 -30 1 -30 48 0 67 20 82 60 42z"/>
<path d="M8799 783 c-35 -91 -49 -128 -49 -130 0 -2 6 -3 14 -3 8 0 18 9 21
20 5 15 15 20 40 20 25 0 35 -5 40 -20 3 -11 13 -20 21 -20 18 0 19 -3 -15 82
-33 80 -55 96 -72 51z m44 -43 c6 -23 -7 -34 -28 -26 -12 4 -13 10 -3 30 12
28 23 27 31 -4z"/>
<path d="M8927 803 c-9 -8 -9 -116 -1 -137 12 -32 24 -15 24 36 l0 53 35 -53
c20 -28 40 -52 45 -52 6 0 10 35 10 80 0 47 -4 80 -10 80 -5 0 -10 -24 -10
-52 -1 -52 -1 -53 -18 -32 -9 12 -25 36 -34 53 -17 31 -28 37 -41 24z"/>
<path d="M9150 791 c0 -3 22 -6 49 -6 27 0 47 4 44 8 -5 9 -93 7 -93 -2z"/>
<path d="M9348 793 c7 -3 16 -2 19 1 4 3 -2 6 -13 5 -11 0 -14 -3 -6 -6z"/>
<path d="M9385 790 c3 -5 8 -10 11 -10 2 0 4 5 4 10 0 6 -5 10 -11 10 -5 0 -7
-4 -4 -10z"/>
<path d="M9591 784 c0 -11 3 -14 6 -6 3 7 2 16 -1 19 -3 4 -6 -2 -5 -13z"/>
<path d="M9561 774 c0 -11 3 -14 6 -6 3 7 2 16 -1 19 -3 4 -6 -2 -5 -13z"/>
<path d="M9411 758 c1 -7 5 -24 9 -38 7 -22 8 -21 9 13 1 20 -3 37 -9 37 -5 0
-10 -6 -9 -12z"/>
<path d="M9297 753 c-12 -20 -2 -64 17 -80 21 -18 21 -18 5 2 -9 11 -15 35
-14 53 3 32 0 39 -8 25z"/>
<path d="M9200 730 c-23 -7 -23 -8 -3 -9 12 -1 25 4 28 9 3 6 5 10 3 9 -2 -1
-14 -5 -28 -9z"/>
<path d="M9472 705 c0 -16 2 -22 5 -12 2 9 2 23 0 30 -3 6 -5 -1 -5 -18z"/>
<path d="M9532 691 c-10 -6 -10 -10 3 -21 13 -11 15 -9 15 9 0 24 0 24 -18 12z"/>
<path d="M9360 670 c-21 -7 -21 -8 -5 -9 11 0 27 4 35 9 18 11 5 11 -30 0z"/>
<path d="M5702 255 c0 -16 2 -22 5 -12 2 9 2 23 0 30 -3 6 -5 -1 -5 -18z"/>
</g>
</svg>
