<?xml version="1.0" standalone="no"?>
<!DOCTYPE svg PUBLIC "-//W3C//DTD SVG 20010904//EN"
 "http://www.w3.org/TR/2001/REC-SVG-20010904/DTD/svg10.dtd">
<svg version="1.0" xmlns="http://www.w3.org/2000/svg"
 width="1080.000000pt" height="1080.000000pt" viewBox="0 0 1080.000000 1080.000000"
 preserveAspectRatio="xMidYMid meet">

<g transform="translate(0.000000,1080.000000) scale(0.100000,-0.100000)"
fill="#000000" stroke="none">
<path d="M6280 10790 c0 -18 27 -64 49 -84 21 -19 21 -19 21 0 1 17 3 16 20
-6 48 -62 169 -146 194 -136 7 3 7 5 -1 5 -18 1 -66 80 -59 97 3 8 17 19 31
26 35 16 31 25 -9 20 -41 -5 -109 28 -132 63 -14 21 -24 25 -65 25 -28 0 -49
-5 -49 -10z"/>
<path d="M1430 10776 c0 -14 81 -106 94 -106 3 0 6 8 6 18 0 10 5 23 12 30 13
13 15 12 -36 46 -43 29 -76 34 -76 12z"/>
<path d="M8977 10748 c-11 -21 -16 -46 -13 -54 3 -9 -1 -25 -9 -37 -21 -30
-19 -42 11 -56 20 -9 24 -14 15 -25 -12 -14 -5 -46 10 -46 5 0 16 11 24 24 9
13 28 27 43 31 25 6 26 7 7 18 -38 21 -77 67 -68 80 4 6 6 33 3 58 l-5 46 -18
-39z"/>
<path d="M6747 10773 c-15 -14 -5 -33 24 -49 30 -15 31 -15 25 1 -3 9 -6 25
-6 36 0 19 -29 27 -43 12z"/>
<path d="M6710 10716 c0 -2 7 -6 15 -10 8 -3 15 -1 15 4 0 6 -7 10 -15 10 -8
0 -15 -2 -15 -4z"/>
<path d="M9095 10300 c-3 -6 -4 -19 0 -29 4 -13 0 -23 -11 -29 -22 -13 -11
-42 16 -42 11 0 36 -6 55 -14 33 -14 34 -17 30 -57 -2 -23 -10 -46 -16 -50
-10 -6 -10 -11 1 -23 14 -18 59 -14 117 11 18 7 50 13 71 13 26 0 45 7 57 20
10 11 23 20 30 20 7 0 22 9 34 19 l22 20 -23 15 c-13 8 -35 20 -50 27 -33 14
-36 34 -8 51 34 22 23 35 -27 36 -158 1 -153 2 -153 -36 0 -34 0 -35 -37 -29
-46 8 -71 30 -55 50 9 11 7 16 -14 25 -30 14 -31 15 -39 2z m310 -120 c4 0 3
6 -1 13 -5 7 0 6 11 -3 17 -14 17 -15 -9 -18 -37 -5 -56 4 -56 24 0 15 2 15
25 0 13 -9 27 -16 30 -16z m-49 -29 c20 -16 21 -20 8 -25 -49 -19 -117 10 -77
33 26 15 42 13 69 -8z"/>
<path d="M9660 10261 c0 -11 49 -57 99 -92 l43 -31 -30 -18 c-16 -10 -34 -24
-38 -32 -5 -8 2 -6 19 5 33 21 60 23 29 1 -12 -8 -34 -16 -49 -17 -14 -1 -28
-8 -30 -14 -7 -20 56 3 103 37 23 16 51 30 61 30 15 0 16 2 3 10 -8 5 -26 10
-40 10 -17 0 -42 17 -77 54 -46 48 -93 76 -93 57z m71 -47 c13 -16 12 -16 -7
-6 -11 6 -27 19 -35 28 -13 16 -12 16 7 6 11 -6 27 -19 35 -28z"/>
<path d="M9851 10228 c5 -18 21 -44 35 -58 15 -14 23 -18 19 -10 -5 9 -4 12 1
7 13 -12 11 -31 -4 -37 -7 -3 0 -10 18 -17 34 -13 40 0 18 40 -7 12 -13 29
-14 37 -3 17 -59 70 -73 70 -6 0 -6 -13 0 -32z m41 -5 c8 -10 19 -25 23 -33 8
-13 7 -13 -10 0 -17 14 -18 13 -12 -5 7 -19 7 -19 -8 -1 -8 10 -12 23 -9 27 3
5 0 9 -5 9 -6 0 -11 5 -11 10 0 15 15 12 32 -7z"/>
<path d="M9549 10196 c12 -12 40 -29 61 -36 22 -7 40 -17 40 -22 0 -4 10 -8
23 -7 14 0 17 2 7 6 -8 3 -33 20 -55 37 -21 17 -36 25 -32 19 13 -20 -11 -15
-33 7 -28 28 -38 25 -11 -4z"/>
<path d="M9990 10161 c0 -16 4 -41 10 -55 11 -29 8 -31 -21 -16 -15 8 -19 7
-19 -4 0 -17 -22 -26 -66 -26 -21 0 -33 4 -29 10 3 6 -1 7 -9 4 -22 -8 -20
-21 3 -29 17 -5 58 2 116 20 48 15 151 -157 126 -211 -6 -14 -11 -30 -11 -37
1 -7 7 1 14 18 l12 30 25 -65 c14 -36 29 -65 33 -65 5 0 15 10 24 23 11 17 12
22 2 20 -15 -4 -81 167 -73 188 3 9 -2 14 -15 14 -26 0 -82 70 -82 101 0 33
-19 97 -30 104 -6 4 -10 -7 -10 -24z m17 -33 c-3 -8 -6 -5 -6 6 -1 11 2 17 5
13 3 -3 4 -12 1 -19z"/>
<path d="M9748 10143 c7 -3 16 -2 19 1 4 3 -2 6 -13 5 -11 0 -14 -3 -6 -6z"/>
<path d="M9525 10117 c-39 -15 -95 -49 -95 -58 0 -3 11 -4 25 -1 14 2 25 9 25
14 0 5 5 6 12 2 6 -4 8 -3 5 3 -4 6 0 14 9 17 10 4 13 2 7 -7 -4 -6 6 -3 22 8
17 10 48 22 70 26 l40 6 -45 1 c-25 0 -59 -5 -75 -11z"/>
<path d="M9105 9860 l0 -120 35 1 c19 0 29 3 23 6 -9 3 -13 37 -13 119 0 112
0 114 -22 114 -23 0 -23 -2 -23 -120z"/>
<path d="M9180 9974 c68 -13 72 -15 92 -61 24 -53 20 -113 -9 -145 -18 -20
-18 -21 3 -10 35 18 54 58 54 110 0 40 -5 53 -30 77 -23 22 -40 28 -82 31 -29
1 -42 1 -28 -2z"/>
<path d="M9368 9860 c3 -111 5 -120 23 -120 16 0 19 7 19 50 0 32 4 50 12 50
6 0 4 6 -6 13 -15 11 -17 24 -15 70 4 52 2 57 -16 57 -19 0 -20 -6 -17 -120z"/>
<path d="M9458 9970 c24 -3 48 -13 53 -21 13 -20 11 -73 -3 -87 -7 -7 -8 -12
-2 -12 15 0 40 30 48 57 5 17 1 29 -18 48 -20 20 -34 25 -73 24 l-48 -2 43 -7z"/>
<path d="M9749 9948 c4 -18 6 -72 3 -120 -4 -84 -4 -88 16 -88 20 0 21 6 24
120 l3 120 -26 0 c-25 0 -26 -2 -20 -32z"/>
<path d="M9948 9968 c5 -7 26 -56 45 -108 20 -52 39 -103 43 -113 6 -17 7 -17
25 -1 11 10 16 20 11 23 -15 10 -75 180 -69 196 5 12 -1 15 -30 15 -27 0 -33
-3 -25 -12z"/>
<path d="M10265 9970 c3 -5 -1 -26 -10 -46 -8 -20 -14 -39 -11 -41 2 -2 9 11
16 29 7 18 20 41 28 51 14 15 13 17 -7 17 -12 0 -20 -4 -16 -10z"/>
<path d="M10698 9859 c-52 -44 -60 -72 -27 -89 26 -14 44 -1 59 46 9 26 17 34
35 34 29 0 41 16 25 35 -20 24 -42 17 -92 -26z"/>
<path d="M970 9853 c1 -21 83 -93 104 -93 9 0 7 43 -2 56 -22 31 -103 61 -102
37z"/>
<path d="M9452 9828 c8 -7 27 -30 43 -50 19 -27 35 -38 53 -38 22 0 24 2 10
13 -8 6 -27 29 -43 50 -19 26 -35 37 -53 37 -22 0 -24 -2 -10 -12z"/>
<path d="M10216 9825 c-9 -26 -7 -32 5 -12 6 10 9 21 6 23 -2 3 -7 -2 -11 -11z"/>
<path d="M9906 9775 c-3 -9 -16 -20 -28 -25 l-23 -9 23 0 c12 -1 25 -1 30 -1
10 0 22 50 12 50 -4 0 -10 -7 -14 -15z"/>
<path d="M9594 9769 c-3 -6 0 -17 8 -25 13 -13 16 -13 27 0 7 8 10 20 6 26 -8
13 -32 13 -41 -1z"/>
<path d="M10662 9720 c15 -29 27 -40 44 -41 13 -1 29 -2 34 -3 26 -3 10 20
-29 41 -24 12 -49 27 -56 33 -7 6 -4 -8 7 -30z"/>
<path d="M10253 9663 c-7 -2 -13 -20 -13 -39 0 -29 3 -34 23 -33 16 1 18 2 5
6 -22 5 -24 23 -3 23 8 0 15 4 15 10 0 5 -7 7 -15 4 -21 -8 -19 13 3 25 17 11
7 13 -15 4z"/>
<path d="M9346 9652 c-3 -5 6 -19 19 -30 14 -12 25 -18 25 -13 0 6 -9 16 -20
24 -11 8 -17 17 -13 20 3 4 4 7 0 7 -3 0 -8 -4 -11 -8z"/>
<path d="M9493 9641 c-13 -11 -23 -25 -23 -33 0 -10 2 -10 9 1 8 13 12 13 28
0 16 -13 17 -13 4 4 -11 14 -11 20 -1 32 17 20 10 18 -17 -4z"/>
<path d="M9602 9630 c0 -19 2 -27 5 -17 2 9 2 25 0 35 -3 9 -5 1 -5 -18z"/>
<path d="M9695 9648 c-4 -9 -5 -25 -2 -35 4 -14 5 -13 6 5 1 27 12 28 29 2 7
-11 16 -20 20 -20 4 0 8 9 9 20 1 11 -3 20 -8 20 -6 0 -7 -4 -4 -10 12 -19 -7
-10 -25 13 -16 20 -19 20 -25 5z"/>
<path d="M9835 9640 c-7 -24 10 -50 32 -50 11 0 8 6 -8 19 -20 16 -21 21 -10
35 8 9 9 16 3 16 -6 0 -14 -9 -17 -20z"/>
<path d="M10000 9645 c7 -9 10 -19 6 -22 -4 -4 -11 -2 -15 6 -6 10 -10 9 -15
-4 -3 -9 -6 -17 -6 -18 0 -1 13 -2 29 -2 26 0 28 2 19 28 -6 15 -15 27 -20 27
-6 0 -5 -6 2 -15z"/>
<path d="M10109 9634 c-5 -28 -3 -31 21 -30 22 1 26 6 28 31 1 27 0 28 -8 8
-5 -13 -14 -23 -19 -23 -5 0 -11 10 -13 23 -3 18 -5 17 -9 -9z"/>
<path d="M10730 9547 c0 -8 -9 -22 -20 -32 -11 -10 -20 -28 -20 -41 0 -13 -4
-26 -10 -29 -5 -3 -10 -17 -10 -31 0 -13 -6 -24 -12 -24 -7 0 -1 -11 14 -24
14 -13 28 -31 30 -41 3 -20 83 -54 95 -41 4 4 -14 28 -42 52 -51 46 -53 50
-11 34 l25 -9 -21 36 c-17 29 -19 39 -10 54 15 23 16 109 2 109 -5 0 -10 -6
-10 -13z"/>
<path d="M8375 9488 c7 -22 31 -48 46 -48 3 0 12 6 18 14 9 11 5 18 -22 35
-43 27 -50 26 -42 -1z"/>
<path d="M6204 9375 c-81 -17 -117 -37 -181 -97 -103 -98 -129 -257 -62 -388
26 -52 86 -105 158 -140 52 -26 73 -31 117 -28 41 2 54 0 54 -11 0 -7 -43 -72
-95 -144 -84 -115 -111 -166 -87 -167 109 -5 225 0 237 10 9 7 50 61 92 119
42 58 112 156 156 216 115 159 132 199 131 310 0 77 -4 98 -26 140 -46 89
-175 183 -235 172 -12 -2 -20 -1 -18 3 5 8 -81 20 -140 19 -22 0 -68 -7 -101
-14z m323 -69 c0 -8 -6 -12 -15 -9 -11 5 -11 7 0 14 7 5 13 9 14 9 0 0 1 -6 1
-14z m-324 -67 c-6 -6 -7 3 -4 23 4 28 6 29 9 9 2 -13 0 -27 -5 -32z m437 -4
c0 -9 -6 -12 -16 -8 -13 5 -13 7 -2 14 17 11 18 11 18 -6z m-196 -24 c4 -5 -3
-7 -14 -4 -23 6 -26 13 -6 13 8 0 17 -4 20 -9z m-54 -33 c33 -17 51 -35 68
-68 28 -55 28 -82 1 -138 -52 -106 -215 -108 -269 -2 -24 47 -25 90 -4 135 20
43 44 64 91 81 52 18 62 17 113 -8z m109 -34 c4 3 8 -1 8 -9 0 -11 -4 -12 -14
-4 -7 6 -13 17 -12 23 0 7 2 6 6 -2 2 -6 8 -10 12 -8z m-419 -25 c0 -5 -11 -9
-25 -9 -26 0 -34 15 -12 23 16 5 37 -3 37 -14z m44 -5 c3 -8 2 -12 -4 -9 -6 3
-10 10 -10 16 0 14 7 11 14 -7z m460 -11 c-5 -5 -11 -12 -15 -16 -3 -4 -12 -1
-19 8 -11 13 -9 15 15 15 16 0 24 -3 19 -7z m83 -145 c-3 -8 -6 -5 -6 6 -1 11
2 17 5 13 3 -3 4 -12 1 -19z m-32 -28 c3 -6 -1 -7 -9 -4 -18 7 -21 14 -7 14 6
0 13 -4 16 -10z m-314 -80 c5 0 9 -24 9 -54 0 -58 -11 -71 -44 -54 -14 7 -16
7 -11 -2 6 -9 3 -9 -12 -1 -11 6 -23 8 -25 5 -3 -3 -3 10 0 28 2 18 4 43 4 56
0 16 5 22 14 18 7 -3 16 -1 20 5 3 6 13 8 21 5 8 -3 19 -6 24 -6z m177 -47
c-10 -2 -26 -2 -35 0 -10 3 -2 5 17 5 19 0 27 -2 18 -5z m-344 -15 c-3 -4 -11
-5 -19 -1 -21 7 -19 12 4 10 11 0 18 -5 15 -9z m186 -115 c0 -14 -2 -15 -9 -5
-7 11 -9 11 -14 -2 -4 -9 -3 -16 2 -16 4 0 8 -7 8 -15 0 -19 -22 -14 -23 6 -1
20 15 49 26 49 6 0 10 -8 10 -17z m127 -19 c-3 -3 -12 -4 -19 -1 -8 3 -5 6 6
6 11 1 17 -2 13 -5z m-197 -74 c0 -5 -5 -10 -11 -10 -5 0 -7 5 -4 10 3 6 8 10
11 10 2 0 4 -4 4 -10z m55 0 c3 -5 -1 -10 -10 -10 -9 0 -13 5 -10 10 3 6 8 10
10 10 2 0 7 -4 10 -10z m25 -34 c0 -3 -4 -8 -10 -11 -5 -3 -10 -1 -10 4 0 6 5
11 10 11 6 0 10 -2 10 -4z m-117 -91 c4 -8 2 -17 -3 -20 -6 -4 -10 3 -10 14 0
25 6 27 13 6z"/>
<path d="M7110 9376 c-109 -24 -196 -87 -245 -178 -39 -71 -47 -190 -19 -269
41 -114 176 -209 298 -209 31 0 56 -4 56 -8 0 -5 -45 -69 -100 -143 -55 -74
-99 -141 -98 -149 3 -12 24 -16 108 -18 58 -2 114 -1 125 2 12 3 55 53 98 113
42 59 111 155 153 213 42 58 92 138 111 177 33 68 35 78 31 155 -4 98 -31 162
-92 220 -95 91 -268 129 -426 94z m289 -52 c34 -7 14 -21 -39 -28 -31 -4 -39
-3 -25 3 16 8 11 10 -25 11 -27 1 -38 4 -28 8 23 9 86 12 117 6z m-229 -14 c0
-12 -24 -12 -60 0 -21 7 -19 8 18 9 23 1 42 -3 42 -9z m280 -4 c0 -2 -7 -7
-16 -10 -8 -3 -12 -2 -9 4 6 10 25 14 25 6z m-20 -66 c0 -5 -5 -10 -11 -10 -5
0 -7 5 -4 10 3 6 8 10 11 10 2 0 4 -4 4 -10z m-130 -25 c14 -19 14 -19 -2 -6
-10 7 -18 18 -18 24 0 6 1 8 3 6 1 -2 9 -13 17 -24z m163 -12 c-7 -2 -19 -2
-25 0 -7 3 -2 5 12 5 14 0 19 -2 13 -5z m-403 -18 c0 -8 -9 -15 -21 -15 -11 0
-18 -4 -15 -9 10 -16 -32 -53 -56 -49 -19 2 -23 9 -24 43 -1 28 0 31 3 11 l5
-29 22 26 c12 14 35 27 51 30 17 2 31 5 33 6 1 0 2 -6 2 -14z m211 4 c131 -44
149 -221 29 -281 -43 -22 -88 -23 -137 -3 -119 49 -113 235 10 278 53 19 57
19 98 6z m293 -10 c-3 -5 -10 -7 -15 -4 -5 4 -9 1 -9 -6 0 -7 -2 -10 -5 -7
-11 10 7 37 21 31 8 -3 11 -9 8 -14z m-634 -304 c0 -5 -5 -3 -10 5 -5 8 -10
20 -10 25 0 6 5 3 10 -5 5 -8 10 -19 10 -25z m51 -43 c-7 -2 -18 1 -23 6 -8 8
-4 9 13 5 13 -4 18 -8 10 -11z m266 -79 c-9 -2 -15 -8 -12 -13 3 -5 1 -11 -4
-14 -7 -5 -8 11 -2 32 1 1 9 1 19 1 16 -1 16 -2 -1 -6z m-37 -9 c0 -8 -19 -13
-24 -6 -3 5 1 9 9 9 8 0 15 -2 15 -3z m40 -124 c-8 -5 -19 -10 -25 -10 -5 0
-3 5 5 10 8 5 20 10 25 10 6 0 3 -5 -5 -10z m85 0 c-3 -5 -12 -10 -18 -10 -7
0 -6 4 3 10 19 12 23 12 15 0z m-55 -114 c0 -3 -4 -8 -10 -11 -5 -3 -10 -1
-10 4 0 6 5 11 10 11 6 0 10 -2 10 -4z"/>
<path d="M7865 9370 c-36 -11 -88 -56 -105 -90 -18 -34 -25 -205 -11 -257 24
-87 96 -135 207 -136 71 -1 143 29 174 73 29 40 43 131 35 220 -12 142 -61
191 -193 196 -42 2 -90 -1 -107 -6z m85 -40 c0 -5 -5 -10 -11 -10 -5 0 -7 5
-4 10 3 6 8 10 11 10 2 0 4 -4 4 -10z m54 -89 c14 -15 18 -38 18 -105 -1 -94
-11 -123 -47 -132 -66 -16 -99 33 -93 142 2 53 8 78 22 93 24 27 77 28 100 2z
m-163 -24 c-10 -9 -11 -8 -5 6 3 10 9 15 12 12 3 -3 0 -11 -7 -18z m16 -59
c-3 -8 -6 -5 -6 6 -1 11 2 17 5 13 3 -3 4 -12 1 -19z m-9 -60 c8 -77 6 -101
-9 -109 -14 -7 -16 -1 -14 44 1 46 9 77 19 77 1 0 3 -6 4 -12z m-51 -70 c-3
-8 -6 -5 -6 6 -1 11 2 17 5 13 3 -3 4 -12 1 -19z m10 -50 c-3 -8 -6 -5 -6 6
-1 11 2 17 5 13 3 -3 4 -12 1 -19z"/>
<path d="M8460 9278 c-39 -51 -93 -122 -120 -158 -27 -36 -89 -117 -137 -180
-339 -442 -396 -521 -384 -533 14 -14 118 -18 146 -5 22 10 715 920 722 949 5
17 -2 19 -75 19 l-81 0 -71 -92z m35 -25 c-2 -10 -4 -19 -4 -21 -1 -2 -6 0
-11 3 -8 5 -7 11 1 21 15 18 18 18 14 -3z m15 -43 c0 -5 -5 -10 -11 -10 -5 0
-7 5 -4 10 3 6 8 10 11 10 2 0 4 -4 4 -10z m10 -24 c0 -2 -7 -6 -15 -10 -8 -3
-15 -1 -15 4 0 6 7 10 15 10 8 0 15 -2 15 -4z m-44 -88 c4 -7 3 -8 -4 -4 -7 4
-12 2 -12 -5 0 -7 -3 -10 -6 -6 -6 5 3 27 11 27 2 0 7 -5 11 -12z m-210 -240
c4 -7 3 -8 -4 -4 -7 4 -12 2 -12 -3 0 -6 -8 -11 -17 -11 -16 1 -16 2 1 15 24
18 23 18 32 3z"/>
<path d="M5230 9325 c0 -12 13 -15 58 -14 l57 1 -35 13 c-48 18 -80 18 -80 0z"/>
<path d="M5350 9311 c0 -11 51 -21 64 -13 5 3 1 9 -10 13 -27 11 -54 11 -54 0z"/>
<path d="M4760 9202 c0 -6 9 -12 20 -15 11 -3 20 -3 20 -1 0 2 -9 8 -20 14
-11 6 -20 7 -20 2z"/>
<path d="M9870 9172 c0 -46 82 -116 158 -133 30 -7 32 -5 26 14 -8 28 -6 27
-40 29 -16 1 -49 17 -73 35 -24 18 -49 33 -54 33 -7 0 -7 4 1 12 17 17 15 38
-3 38 -10 0 -15 -10 -15 -28z"/>
<path d="M4537 8951 c-6 -25 18 -47 63 -55 34 -7 35 -7 15 12 -11 10 -25 27
-31 37 -15 27 -40 30 -47 6z"/>
<path d="M8478 8881 c-48 -16 -92 -48 -113 -83 -24 -40 -34 -209 -16 -275 44
-162 319 -182 398 -29 11 21 15 60 14 150 -1 110 -4 124 -26 157 -36 55 -83
79 -162 84 -37 3 -80 1 -95 -4z m121 -132 c24 -26 31 -59 25 -132 -5 -70 -17
-95 -52 -108 -36 -14 -68 5 -83 48 -17 52 -8 167 15 192 24 27 70 27 95 0z
m-69 -269 c0 -5 -2 -10 -4 -10 -3 0 -8 5 -11 10 -3 6 -1 10 4 10 6 0 11 -4 11
-10z m77 -6 c-3 -3 -12 -4 -19 -1 -8 3 -5 6 6 6 11 1 17 -2 13 -5z m-60 -26
c-3 -8 -6 -5 -6 6 -1 11 2 17 5 13 3 -3 4 -12 1 -19z m-36 -11 c-10 -9 -11 -8
-5 6 3 10 9 15 12 12 3 -3 0 -11 -7 -18z"/>
<path d="M10775 8730 c-3 -5 -1 -10 4 -10 6 0 11 5 11 10 0 6 -2 10 -4 10 -3
0 -8 -4 -11 -10z"/>
<path d="M4821 8476 c-17 -20 7 -56 37 -56 18 0 23 5 20 21 -2 12 -12 28 -24
36 -18 12 -23 11 -33 -1z"/>
<path d="M6283 8032 l-53 -3 -39 -67 c-21 -37 -51 -93 -67 -124 -26 -51 -54
-76 -54 -48 0 6 -28 62 -62 125 l-63 115 -57 0 -58 0 0 -260 0 -260 60 0 60 0
0 149 c0 118 3 150 14 154 10 4 12 0 8 -15 -4 -16 -2 -19 8 -13 9 5 11 4 6 -3
-4 -7 9 -41 30 -77 35 -64 37 -66 73 -63 34 3 38 7 83 91 25 48 45 90 45 92
-1 2 0 6 3 8 3 3 4 -69 2 -159 l-3 -164 59 0 60 0 3 38 c2 20 2 138 -1 262
l-5 225 -52 -3z m-341 -94 c4 -11 15 -16 28 -13 17 3 19 1 10 -16 -6 -10 -21
-19 -34 -19 -20 0 -22 -4 -18 -26 3 -19 10 -24 26 -22 13 2 20 10 20 20 -1 10
2 15 7 12 5 -3 9 -14 9 -25 0 -10 5 -19 10 -19 6 0 10 -7 10 -17 0 -14 -2 -14
-20 2 -11 10 -20 15 -20 12 0 -4 -12 -2 -26 3 -22 9 -25 8 -20 -5 3 -10 2 -13
-5 -10 -6 4 -8 13 -5 21 3 8 1 14 -4 14 -6 0 -10 9 -10 20 0 11 4 20 9 20 5 0
11 9 14 20 5 18 -6 25 -34 22 -3 -1 -6 5 -6 11 0 19 51 14 59 -5z"/>
<path d="M6900 7775 l0 -265 60 0 59 0 3 80 3 79 64 -79 64 -80 70 0 69 0 -18
28 c-10 15 -46 62 -82 104 -35 42 -64 79 -64 83 0 3 32 40 71 81 39 40 71 78
71 84 0 6 -27 10 -62 10 l-63 0 -62 -67 -62 -68 -1 138 0 137 -60 0 -60 0 0
-265z m54 180 c-4 -8 -8 -15 -10 -15 -2 0 -4 7 -4 15 0 8 4 15 10 15 5 0 7 -7
4 -15z"/>
<path d="M8328 8032 l-56 -3 -4 -184 -3 -185 -28 -27 c-21 -22 -36 -27 -67
-27 -85 3 -100 42 -100 259 l0 165 -60 0 -60 0 0 -192 c0 -171 2 -196 20 -232
48 -100 206 -134 330 -73 34 17 51 34 68 68 21 43 22 55 20 240 l-3 194 -57
-3z m26 -69 c5 -11 2 -13 -10 -9 -8 3 -18 6 -20 6 -2 0 -4 7 -4 15 0 18 26 9
34 -12z m-324 -94 c6 -52 5 -76 -4 -84 -9 -9 -12 8 -14 78 -2 106 7 109 18 6z
m4 -124 c3 -9 0 -15 -9 -15 -9 0 -12 6 -9 15 4 8 7 15 9 15 2 0 5 -7 9 -15z
m-5 -52 c-10 -11 -10 -16 -1 -22 18 -11 22 -44 8 -62 -9 -14 -13 -14 -24 -3
-8 9 -9 14 -2 14 7 0 4 7 -4 16 -19 19 -19 14 0 53 8 17 20 29 25 25 6 -3 5
-12 -2 -21z"/>
<path d="M8007 7649 c7 -7 15 -10 18 -7 3 3 -2 9 -12 12 -14 6 -15 5 -6 -5z"/>
<path d="M6575 7900 c-72 -18 -125 -59 -125 -96 0 -24 103 -19 125 6 20 22 74
27 93 8 7 -7 12 -25 12 -40 0 -23 -4 -28 -26 -28 -60 0 -164 -32 -194 -60 -40
-38 -43 -102 -5 -142 51 -55 156 -58 213 -5 l22 20 0 -27 c0 -27 1 -27 58 -24
l57 3 3 110 c6 194 -21 251 -128 274 -57 12 -62 12 -105 1z m191 -120 c10 0
14 -14 14 -51 0 -51 0 -51 -22 -37 -13 9 -23 28 -26 47 -4 36 7 75 15 54 3 -7
11 -13 19 -13z m-81 -100 c9 -15 -21 -77 -43 -89 -49 -26 -111 4 -98 47 11 33
125 67 141 42z m70 -120 c-3 -5 -12 -10 -18 -10 -7 0 -6 4 3 10 19 12 23 12
15 0z"/>
<path d="M6747 7752 c1 -8 3 -16 3 -18 0 -2 4 -4 8 -4 5 0 9 7 9 15 0 8 -4 12
-8 9 -4 -2 -9 -1 -12 3 -2 5 -2 2 0 -5z"/>
<path d="M7441 7895 c-84 -27 -124 -85 -124 -185 -1 -116 28 -165 116 -194 60
-20 80 -20 147 0 55 16 110 60 110 88 0 26 -111 22 -135 -4 -18 -20 -60 -26
-81 -12 -16 11 -34 48 -34 71 0 20 5 21 131 21 l132 0 -6 55 c-3 31 -15 71
-27 90 -40 65 -145 97 -229 70z m119 -97 c31 -51 27 -56 -50 -60 l-70 -3 0 28
c0 36 32 67 70 67 23 0 35 -7 50 -32z m-160 -78 c0 -16 -4 -30 -8 -30 -5 0 -9
14 -9 30 0 17 4 30 9 30 4 0 8 -13 8 -30z m40 -15 c0 -5 -5 -3 -10 5 -5 8 -10
20 -10 25 0 6 5 3 10 -5 5 -8 10 -19 10 -25z m53 -172 c-7 -2 -19 -2 -25 0 -7
3 -2 5 12 5 14 0 19 -2 13 -5z"/>
<path d="M8689 7897 c-51 -19 -84 -44 -67 -50 7 -3 8 -6 2 -6 -6 -1 -18 7 -25
16 -10 11 -10 14 -1 9 8 -5 12 0 12 13 0 19 -6 21 -55 21 l-55 0 0 -265 0
-265 60 0 60 0 0 89 0 88 48 -24 c79 -41 165 -14 202 62 28 58 28 183 0 241
-32 64 -112 96 -181 71z m-99 -67 c0 -11 -6 -20 -14 -20 -9 0 -14 9 -13 20 1
11 7 20 14 20 7 0 13 -9 13 -20z m155 -40 c25 -28 31 -106 12 -153 -15 -35
-19 -37 -61 -37 -59 0 -76 23 -76 105 0 48 4 66 20 83 27 28 80 29 105 2z
m-166 -293 c12 -15 12 -17 -3 -11 -9 3 -16 13 -16 22 0 8 1 13 3 11 1 -2 9
-12 16 -22z m1 -43 c0 -22 -16 -17 -17 6 -1 11 2 18 8 15 5 -4 9 -13 9 -21z
m-3 -56 c-3 -7 -5 -2 -5 12 0 14 2 19 5 13 2 -7 2 -19 0 -25z"/>
<path d="M1808 7653 c7 -3 16 -2 19 1 4 3 -2 6 -13 5 -11 0 -14 -3 -6 -6z"/>
<path d="M1880 7636 c0 -7 106 -36 127 -35 10 0 -11 9 -47 19 -69 20 -80 23
-80 16z"/>
<path d="M5095 7500 c3 -5 8 -10 11 -10 2 0 4 5 4 10 0 6 -5 10 -11 10 -5 0
-7 -4 -4 -10z"/>
<path d="M4930 7490 c0 -5 9 -10 21 -10 11 0 17 5 14 10 -3 6 -13 10 -21 10
-8 0 -14 -4 -14 -10z"/>
<path d="M5127 7467 c3 -17 21 -32 58 -50 30 -14 68 -44 86 -66 18 -23 36 -41
40 -41 20 0 19 60 -2 102 -28 58 -62 78 -132 78 -51 0 -54 -1 -50 -23z"/>
<path d="M6570 7425 c-15 -18 -6 -45 14 -45 21 0 46 28 40 45 -8 19 -38 19
-54 0z"/>
<path d="M6104 7226 c-3 -8 -4 -25 -2 -38 2 -19 10 -23 44 -26 41 -3 42 -2 46
33 2 19 2 38 -1 40 -11 12 -82 4 -87 -9z"/>
<path d="M9170 7200 l0 -41 43 3 c41 3 42 4 42 38 0 34 -1 35 -42 38 l-43 3 0
-41z"/>
<path d="M4794 7211 c-6 -6 -5 -357 1 -373 4 -10 32 -12 133 -8 70 3 135 9
144 14 63 29 67 152 6 175 -21 8 -21 10 -5 16 32 13 49 60 38 103 -16 58 -38
66 -184 72 -71 3 -131 3 -133 1z m210 -77 c19 -18 21 -45 4 -62 -7 -7 -36 -12
-65 -12 l-53 0 0 45 0 45 49 0 c32 0 55 -6 65 -16z m-25 -144 c43 -1 62 -49
32 -79 -16 -16 -34 -21 -71 -21 l-50 0 0 48 c0 58 6 65 44 58 16 -3 36 -6 45
-6z"/>
<path d="M6270 7025 l0 -195 45 0 45 0 0 88 c0 101 14 132 59 132 44 0 51 -15
51 -122 l0 -98 50 0 50 0 0 83 c-1 145 -21 189 -96 203 -24 4 -45 0 -74 -15
l-40 -21 0 70 0 70 -45 0 -45 0 0 -195z"/>
<path d="M6888 7212 l-158 -3 0 -33 c0 -34 0 -34 58 -41 l57 -6 0 -147 0 -147
48 -3 47 -3 0 150 0 151 43 1 c23 1 47 1 53 0 12 -1 25 79 14 82 -3 1 -76 1
-162 -1z"/>
<path d="M7400 7026 l0 -194 40 -4 40 -4 0 58 c0 32 3 58 8 58 4 -1 27 -25 51
-55 42 -53 45 -55 92 -55 27 0 49 3 49 6 0 3 -25 36 -55 72 -30 37 -55 71 -55
77 0 6 23 33 50 60 28 27 50 53 50 57 0 4 -22 8 -49 8 -47 0 -52 -3 -86 -44
-57 -70 -60 -67 -57 50 l3 104 -40 0 -41 0 0 -194z"/>
<path d="M316 7196 c8 -22 102 -95 131 -102 46 -12 118 38 75 53 -9 3 -44 17
-77 31 -33 13 -77 27 -98 29 -31 4 -36 3 -31 -11z"/>
<path d="M7860 7020 l0 -190 120 0 c140 0 173 11 196 67 18 43 11 83 -20 112
l-24 22 24 24 c27 27 31 63 10 104 -22 42 -55 51 -186 51 l-120 0 0 -190z
m208 118 c7 -7 12 -21 12 -33 0 -33 -20 -45 -77 -45 l-53 0 0 45 0 45 53 0
c29 0 58 -5 65 -12z m16 -180 c15 -44 -14 -68 -81 -68 l-53 0 0 48 c0 27 2 51
4 53 3 2 31 2 63 -1 52 -4 59 -8 67 -32z"/>
<path d="M4637 7159 c-20 -12 -23 -29 -3 -29 17 0 40 26 29 33 -5 3 -16 1 -26
-4z"/>
<path d="M5295 7110 c-60 -9 -82 -25 -100 -75 -21 -54 -16 -126 12 -164 43
-57 163 -65 223 -15 16 14 30 30 30 35 0 15 -90 10 -106 -6 -21 -21 -40 -19
-65 6 -39 39 -23 51 76 54 50 1 93 3 98 4 12 2 8 49 -7 84 -28 65 -80 90 -161
77z m51 -48 c13 -8 34 -46 34 -61 0 -7 -23 -11 -55 -11 -48 0 -55 2 -55 20 0
22 33 60 53 60 6 0 17 -4 23 -8z"/>
<path d="M5858 7113 c-33 -5 -78 -56 -78 -88 0 -35 36 -63 105 -83 47 -14 61
-23 63 -40 4 -29 -39 -40 -73 -18 -26 17 -105 22 -105 7 0 -19 61 -59 100 -66
69 -12 126 2 155 36 14 17 25 40 25 51 0 34 -50 74 -103 82 -28 4 -58 17 -72
30 l-25 23 30 13 c25 10 34 10 55 -4 34 -22 98 -22 93 0 -8 41 -95 70 -170 57z"/>
<path d="M7138 7113 c-28 -4 -78 -45 -78 -63 0 -16 86 -12 100 5 25 30 70 11
70 -31 0 -18 -7 -22 -56 -28 -91 -11 -134 -42 -134 -99 0 -58 96 -95 160 -62
23 12 35 14 38 6 2 -6 21 -11 43 -11 l39 0 0 105 c0 109 -8 143 -41 164 -23
13 -99 22 -141 14z m96 -161 c2 -4 -2 -21 -9 -38 -17 -42 -60 -53 -89 -25 -19
19 -19 22 -4 37 9 9 31 20 49 24 47 11 47 11 53 2z m56 -73 c0 -5 -4 -7 -10
-4 -5 3 -10 -2 -10 -12 0 -15 -2 -16 -10 -3 -6 9 -5 17 3 22 17 11 27 10 27
-3z"/>
<path d="M8360 7110 c-25 -3 -55 -11 -66 -18 -26 -14 -54 -80 -54 -128 0 -73
53 -143 100 -131 11 3 20 1 20 -4 0 -14 56 -11 93 5 35 14 67 41 67 57 0 15
-83 10 -104 -6 -27 -20 -42 -19 -66 5 -41 41 -28 49 77 52 82 3 98 6 101 20 6
30 -18 95 -43 121 -29 28 -60 35 -125 27z m60 -62 c33 -36 22 -53 -35 -53 -57
0 -70 20 -36 54 27 27 45 26 71 -1z"/>
<path d="M8913 7109 c-35 -10 -73 -52 -73 -79 0 -31 40 -69 83 -80 68 -17 87
-28 87 -50 0 -27 -43 -37 -75 -16 -34 22 -98 22 -93 0 2 -9 16 -26 31 -38 23
-17 43 -21 100 -21 84 0 122 19 132 66 12 54 -20 83 -123 109 -49 13 -63 34
-38 58 16 16 19 16 47 -1 32 -18 109 -24 109 -8 0 16 -61 61 -83 62 -12 0 -33
2 -47 4 -14 2 -39 -1 -57 -6z"/>
<path d="M9384 7106 c-35 -16 -64 -51 -64 -79 0 -30 53 -75 96 -82 21 -4 49
-14 62 -21 18 -12 20 -18 12 -34 -13 -24 -48 -26 -76 -5 -10 8 -36 15 -57 15
-46 0 -48 -21 -4 -54 40 -30 160 -30 199 -1 34 25 45 68 25 99 -16 23 -37 34
-117 58 -33 10 -46 19 -48 35 -4 29 29 38 67 19 32 -17 101 -22 101 -8 0 14
-43 50 -73 61 -38 15 -85 13 -123 -3z"/>
<path d="M9733 7113 c-31 -4 -83 -43 -83 -63 0 -16 66 -12 99 8 37 21 64 9 69
-30 3 -24 0 -26 -57 -32 -80 -9 -125 -39 -129 -87 -4 -49 41 -89 99 -89 28 0
38 4 33 12 -4 7 -3 8 5 4 6 -4 19 -2 27 5 11 9 18 9 22 2 4 -6 26 -12 50 -15
l42 -4 0 112 c0 97 -3 115 -20 137 -20 25 -78 49 -110 45 -8 -1 -29 -3 -47 -5z
m87 -174 c0 -49 -49 -81 -90 -59 -39 21 -11 65 45 73 17 2 33 5 38 6 4 0 7 -8
7 -20z"/>
<path d="M1939 7101 c10 -7 10 -10 1 -13 -9 -3 -8 -9 5 -21 9 -10 14 -24 11
-32 -5 -15 11 -57 44 -113 11 -18 18 -37 15 -42 -8 -13 231 -64 473 -100 272
-41 669 -63 784 -44 l36 6 -3 67 c-1 36 -4 67 -5 69 -2 2 -3 35 -1 51 1 5 13
12 29 14 15 2 -29 5 -98 6 -159 2 -483 25 -625 45 -179 25 -420 65 -527 86
-54 11 -103 18 -108 15 -5 -3 -11 -1 -15 5 -3 5 -12 10 -18 10 -8 0 -7 -3 2
-9z"/>
<path d="M5535 6973 l0 -138 43 -3 42 -3 0 85 c0 74 3 89 21 107 16 16 30 20
60 17 l39 -4 0 38 c0 37 -1 38 -37 38 -21 0 -47 -7 -57 -15 -20 -15 -41 -11
-31 6 4 5 -13 9 -37 9 l-44 0 1 -137z"/>
<path d="M6103 6971 l2 -139 43 -4 42 -3 0 142 0 143 -45 0 -45 0 3 -139z"/>
<path d="M8590 6971 l0 -139 45 -4 45 -3 0 87 c0 105 14 128 80 128 39 0 40 1
40 35 0 33 -2 35 -35 35 -22 0 -43 -8 -56 -21 l-20 -20 -6 20 c-4 17 -13 21
-49 21 l-44 0 0 -139z"/>
<path d="M9170 6970 l0 -140 43 0 42 0 0 140 0 140 -42 0 -43 0 0 -140z"/>
<path d="M4505 7082 c-28 -21 -66 -72 -61 -81 8 -12 54 8 74 32 14 17 2 60
-13 49z"/>
<path d="M4625 6964 c-14 -22 -15 -28 -4 -35 8 -5 17 -9 22 -9 16 0 6 -30 -19
-55 -24 -24 -25 -28 -11 -48 11 -16 23 -21 48 -20 19 2 45 3 58 3 19 0 22 4
17 23 -3 12 -6 36 -6 53 0 25 -7 34 -37 50 -27 15 -38 27 -37 42 1 29 -10 28
-31 -4z"/>
<path d="M7695 6919 c34 -41 54 -59 65 -59 18 0 -17 44 -52 64 l-33 19 20 -24z"/>
<path d="M6638 6803 c6 -2 18 -2 25 0 6 3 1 5 -13 5 -14 0 -19 -2 -12 -5z"/>
<path d="M0 6756 c0 -9 19 -16 58 -21 31 -4 78 -16 104 -27 48 -20 118 -19
118 2 0 5 7 6 17 3 11 -4 14 -3 9 5 -5 8 -27 10 -69 7 -49 -5 -80 0 -146 20
-99 29 -91 28 -91 11z"/>
<path d="M539 6751 c-14 -16 -12 -17 40 -13 63 5 66 6 56 21 -10 17 -78 11
-96 -8z"/>
<path d="M2100 6650 c8 -5 20 -10 25 -10 6 0 3 5 -5 10 -8 5 -19 10 -25 10 -5
0 -3 -5 5 -10z"/>
<path d="M5298 6616 c-4 -21 -1 -25 29 -28 43 -5 53 10 23 34 -30 25 -47 23
-52 -6z"/>
<path d="M2154 6621 c4 -6 16 -16 28 -22 15 -8 18 -8 14 0 -4 6 -16 16 -28 22
-15 8 -18 8 -14 0z"/>
<path d="M2409 6578 c27 -41 29 -48 14 -48 -14 0 -15 -2 -4 -9 8 -5 29 -7 46
-4 32 5 75 -10 75 -26 0 -4 -10 -13 -22 -20 -20 -10 -16 -11 24 -6 41 4 49 1
66 -20 11 -14 29 -62 41 -107 31 -118 38 -133 56 -118 18 15 96 162 90 169 -6
5 -3 11 -44 -72 -18 -38 -37 -65 -40 -60 -12 13 -31 87 -31 117 0 18 -5 26
-17 26 -20 1 -57 65 -47 82 4 6 -1 8 -14 4 -15 -5 -25 1 -41 23 -12 16 -21 38
-21 50 0 14 -5 19 -16 14 -12 -5 -13 -7 -2 -14 9 -6 10 -11 2 -19 -17 -17 -91
5 -99 29 -3 10 -15 27 -27 37 -15 13 -12 5 11 -28z"/>
<path d="M2304 6573 c11 -13 26 -23 35 -22 14 0 14 1 1 6 -8 3 -24 13 -35 22
-20 16 -20 16 -1 -6z"/>
<path d="M2234 6559 c-3 -5 9 -9 25 -9 17 0 31 2 31 4 0 8 -51 13 -56 5z"/>
<path d="M2593 6525 c0 -13 3 -22 8 -19 5 3 9 14 9 25 0 10 -4 19 -9 19 -5 0
-8 -11 -8 -25z"/>
<path d="M6513 6521 c-61 -28 -89 -92 -62 -142 9 -17 3 -26 -36 -62 -57 -51
-70 -106 -37 -147 17 -21 30 -25 89 -28 52 -3 78 0 103 13 30 16 34 16 42 1 6
-11 23 -16 58 -16 28 0 50 3 50 7 0 4 -12 20 -27 35 -20 21 -25 33 -18 42 6 7
25 32 43 56 17 24 32 47 32 52 0 4 -15 8 -32 8 -27 0 -37 -7 -56 -35 -12 -19
-26 -35 -30 -35 -4 0 -19 15 -34 34 l-28 35 36 22 c38 23 74 72 74 101 0 9
-10 28 -22 42 -32 36 -90 42 -145 17z m75 -50 c22 -13 10 -54 -21 -71 -26 -14
-29 -14 -43 4 -18 26 -18 32 6 56 22 22 37 25 58 11z m-58 -203 c45 -50 36
-68 -34 -68 -56 0 -70 29 -35 74 26 33 33 33 69 -6z"/>
<path d="M4325 6508 c-2 -13 -12 -61 -21 -108 -9 -47 -22 -107 -29 -135 -7
-27 -16 -67 -20 -87 l-6 -38 45 0 45 0 11 58 c21 104 21 104 71 21 l45 -74 52
-3 c29 -2 52 0 52 4 0 11 -79 145 -98 167 -15 17 -9 24 76 110 51 51 92 96 92
100 0 4 -23 7 -50 7 -49 0 -52 -2 -120 -69 -38 -38 -71 -67 -74 -63 -2 4 2 30
10 57 20 74 19 75 -31 75 -38 0 -45 -3 -50 -22z"/>
<path d="M4769 6458 c-23 -40 -73 -126 -110 -190 -38 -64 -69 -119 -69 -122 0
-3 20 -6 45 -6 42 0 48 3 67 35 l20 36 82 -3 81 -3 3 -32 c3 -32 5 -33 48 -33
35 0 44 3 44 18 -1 9 -13 96 -28 192 l-28 175 -56 3 -57 3 -42 -73z m104 -170
c-5 -9 -113 -11 -113 -2 0 7 67 121 84 143 8 11 14 -3 22 -60 7 -41 10 -77 7
-81z"/>
<path d="M5115 6518 c-4 -12 -39 -178 -64 -306 -15 -74 -16 -72 33 -72 49 0
45 -5 66 88 l12 52 64 0 c121 0 184 49 186 144 1 82 -42 106 -192 106 -72 0
-102 -4 -105 -12z m195 -73 c7 -8 10 -25 6 -39 -10 -42 -33 -56 -90 -56 l-53
0 10 43 c5 23 11 48 13 55 5 18 98 16 114 -3z"/>
<path d="M5567 6493 c-13 -21 -36 -60 -52 -88 -15 -27 -51 -91 -81 -141 -76
-129 -75 -124 -21 -124 41 0 47 3 67 35 l22 35 78 0 c82 0 90 -5 90 -51 0 -16
7 -19 46 -19 44 0 45 1 40 28 -3 15 -15 92 -26 172 -29 209 -21 190 -85 190
-52 0 -56 -2 -78 -37z m117 -49 c3 -8 2 -12 -4 -9 -6 3 -10 10 -10 16 0 14 7
11 14 -7z m-39 -91 l7 -73 -56 0 c-31 0 -56 2 -56 5 0 3 18 39 40 79 22 40 38
75 37 78 -2 3 2 0 9 -6 6 -6 15 -44 19 -83z"/>
<path d="M5877 6448 c-9 -46 -23 -114 -32 -153 -9 -38 -20 -89 -24 -112 l-8
-43 42 0 43 0 16 71 c9 39 19 91 23 115 5 41 20 70 20 41 0 -7 22 -61 49 -120
l49 -108 40 3 c35 3 40 6 46 33 3 17 16 77 29 135 12 58 28 131 35 163 l12 57
-43 0 c-41 0 -44 -2 -53 -37 -6 -21 -15 -69 -22 -108 -7 -38 -15 -74 -19 -78
-4 -4 -29 44 -55 108 l-49 115 -42 0 -41 0 -16 -82z m109 -34 c1 -9 0 -13 -4
-10 -3 4 -7 14 -8 22 -1 9 0 13 4 10 3 -4 7 -14 8 -22z"/>
<path d="M6971 6493 c-10 -40 -54 -252 -65 -315 l-7 -38 103 0 c122 0 167 11
206 49 58 59 89 245 47 291 -33 37 -81 50 -181 50 l-93 0 -10 -37z m206 -59
c15 -21 12 -52 -13 -141 -17 -62 -47 -83 -120 -83 -39 0 -45 3 -40 17 4 9 16
59 27 112 11 53 22 102 25 110 7 21 103 9 121 -15z"/>
<path d="M7386 6513 c-19 -66 -76 -336 -76 -360 0 -9 14 -13 45 -13 38 0 45 3
50 23 11 44 68 313 72 340 5 26 4 27 -40 27 -35 0 -47 -4 -51 -17z"/>
<path d="M7570 6526 c0 -7 -71 -352 -76 -368 -5 -15 2 -18 40 -18 39 0 46 3
46 20 0 10 4 29 9 42 5 13 15 56 21 96 7 39 15 72 20 72 4 0 17 -31 29 -69 20
-65 22 -68 47 -63 17 3 42 26 72 63 25 33 47 57 49 55 2 -2 -5 -49 -17 -104
-11 -55 -20 -103 -20 -106 0 -3 20 -6 45 -6 36 0 45 3 45 18 0 9 13 76 29 147
16 72 32 151 36 178 l7 47 -38 0 c-37 0 -42 -4 -104 -86 -36 -47 -70 -90 -76
-95 -9 -7 -21 17 -45 86 l-34 95 -42 0 c-24 0 -43 -2 -43 -4z"/>
<path d="M8097 6438 c-30 -51 -67 -115 -82 -142 -15 -28 -41 -72 -56 -98 -16
-27 -29 -51 -29 -53 0 -3 20 -5 45 -5 40 0 47 4 67 35 l23 35 83 0 82 0 0 -35
c0 -35 0 -35 46 -35 l46 0 -7 53 c-4 28 -13 88 -20 132 -8 44 -17 108 -21 143
l-7 62 -58 0 -58 0 -54 -92z m107 -55 c4 -31 9 -67 12 -80 6 -22 4 -23 -56
-23 -34 0 -60 3 -58 8 14 33 84 152 89 152 3 0 9 -26 13 -57z"/>
<path d="M8456 6518 c-8 -25 -76 -353 -76 -365 0 -15 76 -18 84 -4 4 5 14 55
23 110 10 56 21 100 26 98 5 -1 28 -45 50 -97 54 -123 52 -120 96 -120 37 0
38 0 48 53 19 95 64 302 69 320 5 14 -1 17 -39 17 l-44 0 -21 -94 c-12 -52
-22 -109 -22 -125 0 -32 -21 -43 -36 -19 -5 7 -2 9 8 5 17 -6 10 16 -51 158
-29 69 -30 70 -70 73 -27 2 -43 -1 -45 -10z m209 -263 c-2 -19 1 -35 5 -35 4
0 6 -9 3 -20 -3 -11 -8 -20 -12 -20 -3 0 -12 9 -19 20 -7 12 -8 20 -2 20 5 0
10 10 10 23 -1 21 -1 21 -14 4 -8 -10 -17 -14 -20 -8 -5 7 37 48 51 51 1 0 0
-16 -2 -35z"/>
<path d="M8879 6368 c-52 -90 -102 -178 -111 -195 l-18 -33 48 0 c46 0 50 2
68 35 l19 35 82 0 c75 0 83 -2 83 -19 0 -41 11 -51 57 -51 24 0 42 4 39 8 -3
5 -10 42 -15 83 -6 41 -17 119 -25 174 -9 55 -16 106 -16 113 0 8 -18 12 -59
12 l-58 0 -94 -162z m145 45 c3 -16 8 -52 11 -80 l7 -53 -56 0 c-31 0 -56 4
-56 9 0 5 16 37 35 71 19 34 35 66 35 71 0 21 19 7 24 -18z"/>
<path d="M9439 6458 c-23 -40 -73 -126 -110 -190 -38 -64 -69 -119 -69 -122 0
-4 20 -6 45 -6 42 0 48 3 66 35 l21 35 78 0 c82 0 90 -5 90 -51 0 -16 7 -19
45 -19 38 0 45 3 45 20 0 23 -48 327 -56 353 -4 13 -17 17 -59 17 l-54 0 -42
-72z m96 -40 c0 -24 3 -63 5 -88 l5 -45 -58 -3 -58 -3 22 43 c16 32 81 138 84
138 0 0 0 -19 0 -42z"/>
<path d="M9776 6508 c-14 -55 -14 -56 89 -51 74 3 95 2 95 -9 0 -24 -30 -162
-42 -191 -24 -61 -110 -69 -124 -12 -6 24 -10 26 -53 23 -45 -3 -46 -4 -44
-36 0 -18 7 -40 15 -49 35 -43 152 -58 221 -30 54 23 75 64 107 209 17 73 32
141 34 151 4 16 -8 17 -144 17 -145 0 -148 0 -154 -22z m144 -323 c0 -2 -6 -8
-13 -14 -10 -8 -14 -7 -14 2 0 8 6 14 14 14 7 0 13 -1 13 -2z"/>
<path d="M10219 6458 c-23 -40 -63 -109 -89 -153 -67 -114 -90 -156 -90 -161
0 -2 22 -4 48 -4 45 0 49 2 65 35 l17 36 83 -3 82 -3 3 -32 c3 -32 5 -33 49
-33 l45 0 -7 48 c-4 26 -11 72 -15 102 -4 30 -14 97 -21 148 l-13 92 -58 0
-57 0 -42 -72z m95 -80 c4 -29 10 -63 13 -75 5 -22 2 -23 -57 -23 -34 0 -60 3
-58 8 17 40 84 149 89 146 4 -2 9 -27 13 -56z"/>
<path d="M1894 6443 c-4 -43 -8 -82 -9 -88 0 -5 7 -11 15 -13 12 -2 15 8 15
45 0 27 4 67 8 91 7 34 6 42 -6 42 -11 0 -17 -20 -23 -77z"/>
<path d="M8340 6501 c0 -3 9 -12 19 -18 15 -10 20 -9 24 1 4 9 -3 16 -19 19
-13 2 -24 1 -24 -2z"/>
<path d="M1998 6477 c26 -28 29 -82 6 -115 -19 -28 -3 -29 22 -1 28 31 25 96
-5 120 -33 27 -49 24 -23 -4z"/>
<path d="M2358 6493 c7 -3 16 -2 19 1 4 3 -2 6 -13 5 -11 0 -14 -3 -6 -6z"/>
<path d="M285 6470 c3 -5 15 -10 26 -10 11 0 17 5 14 10 -3 6 -15 10 -26 10
-11 0 -17 -4 -14 -10z"/>
<path d="M2086 6423 c-4 -32 -10 -73 -13 -90 -4 -26 -2 -33 11 -33 12 0 16 9
16 35 0 19 4 35 9 35 5 0 7 8 4 19 -2 10 0 35 5 55 9 32 8 36 -8 36 -14 0 -19
-11 -24 -57z"/>
<path d="M2148 6463 c7 -3 16 -2 19 1 4 3 -2 6 -13 5 -11 0 -14 -3 -6 -6z"/>
<path d="M8825 6441 c-3 -14 -8 -35 -11 -46 -3 -11 6 -2 20 20 30 46 31 52 12
52 -8 0 -17 -12 -21 -26z"/>
<path d="M2194 6439 c10 -15 12 -28 6 -45 -13 -33 7 -32 22 1 9 21 8 28 -7 45
-24 27 -40 26 -21 -1z"/>
<path d="M430 6435 c0 -18 12 -19 28 -3 9 9 18 9 37 0 15 -7 31 -9 37 -6 17
11 -14 24 -59 24 -32 0 -43 -4 -43 -15z"/>
<path d="M8348 6435 c-3 -3 -3 -17 0 -31 3 -19 7 -22 13 -12 17 27 6 62 -13
43z"/>
<path d="M2384 6421 c5 -8 -9 -118 -20 -153 -4 -13 0 -18 14 -18 21 0 26 14
38 118 6 59 6 62 -15 62 -12 0 -20 -4 -17 -9z"/>
<path d="M6736 6422 c-13 -12 -4 -20 29 -26 19 -4 43 -2 53 3 9 6 13 11 7 11
-5 0 -27 4 -47 9 -20 5 -39 6 -42 3z"/>
<path d="M2543 6396 c3 -8 14 -49 23 -90 23 -99 44 -102 83 -11 2 6 -5 -1 -16
-15 l-21 -24 -11 39 c-6 22 -11 57 -11 78 0 33 -3 37 -26 37 -19 0 -25 -4 -21
-14z"/>
<path d="M75 6361 c-45 -4 -56 -9 -45 -16 20 -13 116 -34 160 -34 l35 0 -35
29 c-19 17 -39 29 -45 28 -5 -1 -37 -4 -70 -7z"/>
<path d="M2162 6329 c24 -41 48 -62 48 -41 0 15 -44 75 -59 80 -10 3 -6 -9 11
-39z"/>
<path d="M2242 6288 c5 -15 28 -18 29 -3 0 6 -7 12 -17 13 -10 3 -15 -1 -12
-10z"/>
<path d="M3800 6280 c0 -13 20 -13 40 0 12 8 9 10 -12 10 -16 0 -28 -4 -28
-10z"/>
<path d="M950 6271 c0 -15 16 -22 34 -15 25 9 19 24 -9 24 -14 0 -25 -4 -25
-9z"/>
<path d="M2460 6254 l-25 -15 29 3 c16 2 31 9 34 16 5 15 -6 14 -38 -4z"/>
<path d="M2132 6220 c0 -14 2 -19 5 -12 2 6 2 18 0 25 -3 6 -5 1 -5 -13z"/>
<path d="M2307 6191 c-4 -17 -3 -21 5 -13 5 5 8 16 6 23 -3 8 -7 3 -11 -10z"/>
<path d="M2343 6191 c-9 -14 -9 -22 -2 -27 15 -9 21 1 17 26 -3 21 -3 21 -15
1z"/>
<path d="M1015 6190 c3 -5 13 -10 21 -10 8 0 12 5 9 10 -3 6 -13 10 -21 10 -8
0 -12 -4 -9 -10z"/>
<path d="M2420 6180 c0 -5 7 -7 15 -4 8 4 15 8 15 10 0 2 -7 4 -15 4 -8 0 -15
-4 -15 -10z"/>
<path d="M2632 6150 c0 -14 2 -19 5 -12 2 6 2 18 0 25 -3 6 -5 1 -5 -13z"/>
<path d="M2653 6149 c-1 -10 2 -19 8 -19 11 0 12 27 1 34 -4 2 -9 -4 -9 -15z"/>
<path d="M2743 6162 c-21 -13 -19 -46 2 -50 16 -2 17 -1 5 7 -13 9 -12 11 5
11 15 0 17 2 6 9 -11 7 -11 9 0 13 8 3 9 7 3 11 -5 3 -15 3 -21 -1z"/>
<path d="M1717 5887 c-4 -29 -10 -67 -13 -85 -4 -19 -2 -32 3 -32 6 0 13 27
17 60 4 33 11 60 15 60 5 0 12 -29 16 -65 3 -36 11 -67 15 -70 5 -3 24 23 41
57 36 71 44 67 31 -16 -5 -31 -6 -56 -1 -56 10 0 32 137 25 155 -10 28 -25 15
-52 -45 -15 -33 -30 -60 -35 -60 -4 0 -11 26 -14 58 -9 76 -14 92 -29 92 -8 0
-16 -19 -19 -53z"/>
<path d="M1916 5858 c-15 -86 -19 -141 -9 -135 6 4 13 32 17 64 4 31 9 67 12
80 4 13 2 23 -4 23 -5 0 -12 -15 -16 -32z"/>
<path d="M1985 5850 c-9 -10 -20 -39 -22 -64 -5 -38 -2 -48 20 -70 32 -31 60
-33 88 -5 25 25 17 39 -9 16 -53 -48 -107 26 -71 96 24 44 41 46 74 11 24 -26
25 -26 25 -6 0 41 -73 57 -105 22z"/>
<path d="M2135 5838 c-2 -7 -8 -44 -14 -83 -11 -72 -6 -85 30 -85 9 0 31 -3
49 -7 22 -4 31 -3 27 4 -4 6 -25 13 -47 17 -36 6 -40 9 -40 36 0 28 3 30 38
31 l37 1 -32 10 c-27 9 -33 16 -33 39 0 28 1 29 48 23 60 -8 46 11 -16 20 -30
4 -44 3 -47 -6z"/>
<path d="M2275 5798 c-3 -18 -10 -55 -15 -83 -5 -27 -6 -53 -2 -56 11 -10 102
-19 102 -10 0 5 -18 11 -41 15 -36 6 -40 9 -35 29 14 56 18 137 8 137 -6 0
-14 -15 -17 -32z"/>
<path d="M9935 5810 c-7 -12 29 -12 65 0 21 7 19 8 -17 9 -23 1 -45 -3 -48 -9z"/>
<path d="M2401 5747 c-6 -35 -11 -76 -11 -90 0 -26 2 -27 53 -26 38 0 47 3 32
9 -11 5 -31 9 -44 9 -19 1 -22 5 -17 24 3 13 8 49 12 80 9 79 -11 74 -25 -6z"/>
<path d="M10595 5801 c6 -10 112 -20 137 -13 38 10 14 17 -62 19 -44 1 -78 -2
-75 -6z"/>
<path d="M2540 5710 c-44 -87 -45 -90 -30 -90 6 0 16 11 22 25 9 19 19 25 44
25 28 0 33 -4 36 -27 2 -14 9 -29 17 -31 11 -4 13 4 7 37 -15 98 -28 141 -42
141 -7 0 -32 -36 -54 -80z m60 4 c0 -17 -5 -24 -20 -24 -23 0 -24 1 -9 34 14
30 29 25 29 -10z"/>
<path d="M2680 5717 c-6 -39 -14 -80 -16 -89 -3 -11 0 -18 9 -18 9 0 17 14 21
35 10 50 39 47 60 -6 20 -50 43 -41 24 8 -10 27 -9 35 5 51 20 22 22 55 5 69
-7 6 -32 13 -55 17 l-41 6 -12 -73z m88 31 c18 -18 -4 -48 -37 -48 -25 0 -27
3 -23 30 3 23 9 30 26 30 12 0 27 -5 34 -12z"/>
<path d="M1795 5652 c-3 -3 2 -13 10 -21 9 -11 15 -45 17 -100 2 -52 7 -86 14
-88 7 -2 25 17 40 42 16 25 32 45 37 45 4 0 7 -25 7 -55 0 -76 17 -72 75 20
26 42 57 81 68 86 16 9 17 13 6 20 -8 5 -26 9 -42 9 -23 0 -27 -3 -22 -22 3
-15 -6 -41 -25 -73 l-30 -50 0 67 c0 42 4 68 12 70 21 7 -3 28 -33 28 -26 0
-29 -3 -23 -24 4 -17 -3 -39 -23 -73 l-28 -48 -3 64 c-2 42 1 67 9 71 6 4 9
12 5 18 -6 11 -63 22 -71 14z"/>
<path d="M8661 5606 c-26 -28 -12 -38 30 -22 23 8 33 6 64 -19 40 -30 134 -70
143 -60 3 3 -1 20 -10 38 -13 26 -29 37 -87 60 -87 33 -111 34 -140 3z"/>
<path d="M2288 5545 c-7 -15 -20 -25 -32 -25 -16 0 -18 -2 -7 -9 12 -8 10 -18
-8 -64 -13 -31 -20 -61 -16 -66 11 -18 61 -12 80 9 14 16 15 20 4 20 -8 0 -20
-5 -27 -12 -23 -23 -23 0 -1 51 12 28 28 51 35 51 8 0 14 5 14 10 0 6 -5 10
-10 10 -7 0 -7 6 0 19 14 26 13 31 -5 31 -9 0 -21 -11 -27 -25z"/>
<path d="M2059 5521 c-22 -23 -29 -39 -29 -70 0 -45 10 -55 60 -57 19 -1 44
-5 56 -9 13 -4 28 1 45 15 l24 21 -27 -5 c-16 -4 -28 -4 -28 -1 0 2 11 30 25
61 26 60 26 75 -3 57 -13 -8 -21 -7 -30 3 -21 23 -61 16 -93 -15z m89 -27 c2
-21 -4 -38 -23 -58 -53 -57 -90 2 -39 63 33 39 58 37 62 -5z"/>
<path d="M2404 5500 c-50 -20 -77 -86 -54 -131 14 -26 80 -26 103 -1 25 27 21
37 -8 18 -31 -20 -61 -21 -69 0 -9 24 2 34 37 34 63 0 103 56 58 80 -23 12
-38 12 -67 0z m46 -35 c0 -14 -46 -33 -56 -22 -8 7 26 37 42 37 8 0 14 -7 14
-15z"/>
<path d="M2514 5469 c-20 -22 -12 -38 11 -19 27 22 27 4 1 -49 -31 -61 -31
-61 -6 -61 11 0 20 3 20 8 0 4 14 31 31 60 22 39 33 51 42 43 16 -12 41 2 35
20 -3 9 -24 14 -60 16 -45 2 -59 -2 -74 -18z"/>
<path d="M7960 5286 c0 -21 22 -34 46 -27 20 6 19 7 -12 23 -27 14 -34 15 -34
4z"/>
<path d="M8780 5290 c0 -12 25 -17 115 -24 66 -5 68 -4 43 10 -33 17 -158 29
-158 14z"/>
<path d="M8612 5278 c5 -15 58 -24 58 -10 0 11 -24 22 -47 22 -8 0 -13 -6 -11
-12z"/>
<path d="M2125 5234 c164 -31 408 -56 595 -59 211 -4 218 -5 -190 25 -85 6
-220 20 -300 31 -165 22 -208 23 -105 3z"/>
<path d="M9010 5225 c-9 -11 -9 -19 3 -35 14 -20 15 -20 19 14 4 38 -2 45 -22
21z"/>
<path d="M1502 5202 c-27 -4 -52 -49 -52 -93 0 -22 10 -40 33 -63 28 -28 53
-38 192 -73 292 -75 653 -130 920 -139 180 -7 204 -2 235 48 26 44 25 81 -3
114 -23 27 -27 27 -178 35 -361 18 -611 52 -889 120 -198 48 -234 55 -258 51z
m28 -71 c-9 -17 -8 -21 5 -21 9 0 15 -9 15 -22 0 -21 0 -21 -15 -2 -13 16 -16
17 -25 4 -5 -8 -10 -10 -10 -4 0 16 31 76 37 70 2 -2 0 -14 -7 -25z m46 -22
c-4 -24 -2 -35 11 -45 16 -12 16 -12 -4 -7 -23 5 -27 20 -17 61 9 34 17 26 10
-9z m82 9 c14 -14 16 -54 4 -62 -5 -3 -7 8 -4 23 4 32 -15 51 -29 30 -5 -8 -8
-24 -6 -36 2 -13 0 -23 -4 -23 -12 0 -11 37 1 61 12 22 21 24 38 7z m72 -17
c0 -5 -9 -7 -20 -4 -11 3 -20 7 -20 9 0 2 9 4 20 4 11 0 20 -4 20 -9z m-26
-39 c-17 -4 -18 -19 -1 -25 7 -3 5 -6 -5 -6 -18 -1 -23 15 -12 43 5 12 9 13
19 3 11 -10 11 -13 -1 -15z m104 -17 c15 26 15 10 1 -17 -9 -17 -13 -18 -20
-7 -5 8 -8 21 -8 29 0 10 3 8 8 -5 8 -19 8 -19 19 0z m104 -12 c-3 -16 -7 -22
-10 -15 -4 13 4 42 11 42 2 0 2 -12 -1 -27z m36 -13 c-7 -10 -16 -16 -21 -13
-5 3 -2 10 7 15 9 5 13 14 10 20 -4 7 -2 8 4 4 9 -5 9 -12 0 -26z m48 4 c-9
-8 -16 -20 -16 -26 0 -6 -3 -9 -6 -6 -8 9 14 48 27 48 6 0 3 -7 -5 -16z m-136
-27 c11 -5 9 -6 -4 -4 -11 1 -21 9 -23 17 -3 10 -2 11 4 4 4 -6 15 -14 23 -17z
m282 -11 c-3 -27 0 -35 15 -39 15 -4 14 -5 -4 -6 -20 -1 -23 4 -23 32 0 27 6
47 15 47 0 0 -1 -15 -3 -34z m-125 -18 c-3 -8 -6 -5 -6 6 -1 11 2 17 5 13 3
-3 4 -12 1 -19z m78 -10 c6 -4 2 -8 -7 -8 -10 0 -18 7 -18 17 0 9 3 12 8 7 4
-5 12 -12 17 -16z"/>
<path d="M10662 5123 c15 -14 78 -27 78 -15 0 13 -38 31 -65 32 -27 0 -28 -1
-13 -17z"/>
<path d="M9440 4870 c-9 -6 -10 -10 -3 -10 6 0 15 5 18 10 8 12 4 12 -15 0z"/>
<path d="M10300 4835 c-16 -19 -10 -25 23 -28 33 -3 38 12 11 30 -18 12 -23
11 -34 -2z"/>
<path d="M7270 4690 c-14 -4 -24 -12 -22 -19 1 -7 -4 -11 -12 -9 -8 2 -22 -6
-33 -17 -10 -11 -27 -21 -37 -23 -10 -2 -37 -15 -60 -30 -62 -40 -78 -50 -116
-69 -19 -10 -41 -24 -48 -30 -7 -7 -24 -16 -37 -19 -13 -3 -26 -12 -29 -20 -3
-8 -15 -14 -26 -14 -12 0 -18 -4 -15 -10 3 -5 -1 -10 -9 -10 -9 0 -16 -4 -16
-10 0 -5 -5 -10 -10 -10 -20 0 -122 -99 -114 -111 2 -4 0 -10 -5 -14 -21 -12
-106 -133 -143 -200 -39 -74 -81 -218 -76 -264 2 -16 13 16 30 82 53 212 133
333 286 435 50 34 61 37 116 35 34 -2 74 -6 90 -9 18 -4 26 -2 22 4 -3 5 3 12
14 15 28 7 25 24 -7 42 l-28 16 35 -7 c19 -3 52 -12 73 -19 20 -7 37 -9 37 -3
0 5 10 4 22 -3 18 -9 20 -9 15 4 -5 14 17 32 36 29 4 -1 7 5 7 13 0 12 5 10
20 -5 16 -16 30 -19 65 -16 25 2 45 0 45 -5 0 -5 7 -9 15 -9 8 0 15 -3 15 -8
0 -11 90 -67 134 -83 63 -23 84 -49 84 -106 1 -37 8 -60 27 -89 15 -22 30 -39
33 -39 13 -1 52 -30 52 -38 0 -29 107 -179 161 -226 85 -75 114 -138 105 -230
-6 -71 -32 -182 -44 -191 -8 -6 -38 -73 -46 -105 -3 -11 -6 -59 -7 -107 -2
-74 0 -91 16 -108 12 -14 28 -20 42 -17 26 5 55 -22 60 -55 6 -36 10 -32 23
21 7 28 17 51 22 51 6 0 8 12 5 30 -4 17 -2 30 3 30 6 0 10 15 10 34 0 38 15
55 33 37 6 -6 20 -10 31 -10 18 1 18 2 3 6 -9 2 -15 9 -12 14 7 10 -27 186
-50 264 -8 28 -16 60 -18 72 -2 12 -11 31 -20 41 -9 10 -15 21 -12 23 8 8 -15
79 -25 79 -6 0 -10 8 -10 19 0 10 -13 42 -29 72 -15 30 -33 70 -40 90 -6 20
-21 45 -31 54 -11 10 -20 24 -20 30 0 18 -21 56 -58 106 -18 24 -61 83 -95
131 -89 124 -142 192 -185 236 -20 21 -62 69 -92 107 -30 37 -63 77 -72 87
-10 10 -18 20 -18 23 0 3 -8 14 -17 24 -13 12 -25 16 -43 11z"/>
<path d="M1621 4664 c0 -11 3 -14 6 -6 3 7 2 16 -1 19 -3 4 -6 -2 -5 -13z"/>
<path d="M1639 4648 c-11 -20 -10 -22 3 -10 13 10 17 10 21 0 3 -7 4 -3 4 10
-1 12 -5 22 -9 22 -4 0 -13 -10 -19 -22z"/>
<path d="M1684 4646 c-4 -10 -2 -22 4 -28 8 -8 13 -7 18 6 4 10 2 22 -4 28 -8
8 -13 7 -18 -6z"/>
<path d="M9643 4638 c-31 -19 -43 -38 -25 -38 16 0 72 31 72 40 0 18 -16 17
-47 -2z"/>
<path d="M1721 4629 c0 -23 1 -23 9 -4 l9 20 0 -20 c1 -16 3 -17 10 -6 7 11
10 10 14 -5 4 -16 5 -16 6 4 0 12 -3 22 -8 22 -5 0 -16 3 -25 6 -12 5 -16 0
-15 -17z"/>
<path d="M1788 4625 c-3 -14 -1 -28 3 -31 5 -3 9 9 9 25 0 38 -6 40 -12 6z"/>
<path d="M1817 4606 c-4 -10 -1 -16 7 -16 8 0 17 6 19 13 3 6 6 3 6 -8 1 -17
3 -17 11 -5 8 13 10 13 10 1 0 -12 3 -12 12 -3 15 15 9 20 -29 28 -22 4 -32 2
-36 -10z"/>
<path d="M1898 4592 c-4 -12 1 -18 14 -19 15 -2 17 1 9 11 -6 7 -8 16 -4 19 3
4 2 7 -4 7 -6 0 -13 -8 -15 -18z"/>
<path d="M1957 4582 c-5 -24 -4 -25 8 -9 13 18 13 18 18 0 4 -15 5 -15 6 3 2
33 -26 38 -32 6z"/>
<path d="M10101 4601 c-8 -5 -9 -11 -3 -15 5 -3 15 1 22 9 14 16 3 20 -19 6z"/>
<path d="M2010 4592 c0 -6 -3 -19 -7 -29 -6 -15 -4 -16 9 -5 13 10 17 10 21 0
4 -10 6 -10 6 0 1 7 -6 20 -14 28 -8 9 -15 11 -15 6z"/>
<path d="M1603 4578 c3 -9 1 -19 -6 -22 -7 -2 -2 -5 11 -5 13 -1 21 -5 18 -10
-8 -12 20 -22 39 -15 8 4 15 11 15 18 0 6 5 4 10 -4 8 -13 10 -13 10 1 0 26
-12 30 -27 9 -8 -11 -19 -20 -25 -20 -6 0 -6 6 2 15 10 13 11 18 1 28 -10 9
-11 8 -5 -8 6 -18 4 -17 -21 5 -20 18 -26 20 -22 8z"/>
<path d="M2050 4560 c0 -11 7 -20 15 -20 8 0 15 9 15 20 0 11 -7 20 -15 20 -8
0 -15 -9 -15 -20z"/>
<path d="M2091 4558 c1 -17 3 -18 6 -5 2 9 9 17 15 17 5 0 8 -7 4 -15 -3 -8
-1 -15 5 -15 17 0 5 35 -14 38 -12 3 -17 -3 -16 -20z"/>
<path d="M2166 4572 c-12 -11 -5 -40 10 -46 26 -10 84 -7 84 5 0 6 7 3 16 -5
23 -23 34 -20 34 10 0 21 -4 25 -20 21 -10 -3 -22 0 -25 7 -3 8 -7 8 -11 -2
-3 -6 -10 -10 -15 -6 -5 3 -9 -3 -10 -13 0 -15 -2 -15 -9 3 -8 21 -43 37 -54
26z m31 -34 c-3 -8 -6 -5 -6 6 -1 11 2 17 5 13 3 -3 4 -12 1 -19z m100 -10
c-3 -8 -6 -5 -6 6 -1 11 2 17 5 13 3 -3 4 -12 1 -19z"/>
<path d="M8500 4560 c0 -7 24 -20 36 -20 13 0 1 19 -16 23 -11 3 -20 2 -20 -3z"/>
<path d="M1710 4545 c0 -8 2 -15 4 -15 2 0 6 7 10 15 3 8 1 15 -4 15 -6 0 -10
-7 -10 -15z"/>
<path d="M1761 4545 c-1 -23 34 -51 44 -34 4 6 12 4 19 -7 14 -18 36 -12 36
11 0 27 -60 35 -61 8 0 -15 -2 -15 -9 2 -5 11 -9 16 -10 10 -1 -5 -5 -1 -10
10 -9 20 -9 20 -9 0z m89 -29 c0 -3 -4 -8 -10 -11 -5 -3 -10 -1 -10 4 0 6 5
11 10 11 6 0 10 -2 10 -4z"/>
<path d="M2449 4543 c0 -10 -3 -13 -6 -5 -5 13 -33 17 -33 5 0 -5 -3 -19 -7
-32 -5 -20 -3 -22 16 -16 13 4 21 2 21 -6 0 -7 4 -8 13 -3 6 5 24 9 39 8 16
-1 30 5 34 15 5 14 7 13 14 -4 8 -18 9 -17 9 6 1 19 -5 28 -19 32 -11 3 -20 1
-20 -4 0 -4 -8 -5 -17 -2 -13 5 -15 2 -10 -11 4 -10 3 -15 -3 -11 -6 3 -10 12
-10 20 0 21 -20 29 -21 8z"/>
<path d="M2340 4540 c0 -22 14 -40 30 -40 17 0 30 19 30 43 0 7 -4 6 -10 -3
-5 -8 -10 -10 -10 -5 0 6 -9 11 -20 12 -11 1 -20 -2 -20 -7z"/>
<path d="M1874 4512 c1 -31 21 -33 23 -2 l2 25 -8 -25 -8 -25 -5 25 c-4 22 -5
22 -4 2z"/>
<path d="M1912 4500 c0 -14 2 -19 5 -12 2 6 2 18 0 25 -3 6 -5 1 -5 -13z"/>
<path d="M1960 4496 c0 -27 15 -42 25 -26 3 5 1 10 -4 10 -6 0 -11 8 -11 18 0
12 5 9 18 -11 11 -18 23 -26 34 -24 9 3 19 0 21 -7 3 -6 9 0 15 14 l11 25 0
-27 c1 -21 5 -26 17 -21 23 9 13 47 -13 51 -13 2 -23 -1 -23 -7 0 -8 -6 -8
-20 -1 -74 37 -70 37 -70 6z"/>
<path d="M2136 4484 c-3 -8 -6 -23 -6 -32 1 -14 2 -14 12 3 11 19 11 19 19 0
7 -19 8 -19 8 1 1 29 -24 51 -33 28z"/>
<path d="M8584 4489 c-4 -7 4 -20 17 -30 41 -32 53 -21 20 19 -22 25 -27 27
-37 11z"/>
<path d="M2112 4470 c0 -14 2 -19 5 -12 2 6 2 18 0 25 -3 6 -5 1 -5 -13z"/>
<path d="M10384 4479 c-11 -18 9 -28 36 -17 24 10 24 10 5 18 -28 12 -33 12
-41 -1z"/>
<path d="M2229 4458 c-1 -17 -2 -19 -6 -5 -4 16 -23 25 -23 10 1 -33 93 -51
110 -23 6 9 9 8 12 -6 5 -18 5 -18 13 0 5 12 3 21 -6 27 -20 13 -27 11 -32 -8
-4 -16 -5 -16 -6 1 -1 13 -6 17 -21 13 -11 -3 -20 -1 -20 4 0 20 -20 7 -21
-13z"/>
<path d="M2372 4442 c4 -21 47 -35 65 -20 11 8 12 7 7 -6 -6 -16 -2 -17 42
-10 46 6 63 17 64 38 0 4 -7 6 -15 3 -8 -4 -17 -1 -21 5 -5 7 -12 5 -21 -7
-11 -15 -13 -16 -13 -3 0 12 -12 16 -55 17 -48 1 -55 -2 -53 -17z"/>
<path d="M1781 4313 c0 -24 1 -25 8 -8 8 19 8 19 15 -2 10 -32 26 -29 26 5 0
18 -3 23 -9 14 -7 -11 -9 -11 -14 2 -10 26 -27 18 -26 -11z"/>
<path d="M1846 4303 c-5 -11 0 -22 11 -31 15 -11 18 -11 21 3 8 38 -20 61 -32
28z"/>
<path d="M1895 4297 c-4 -11 -3 -23 4 -30 15 -15 19 -7 11 23 -6 22 -8 23 -15
7z"/>
<path d="M1931 4283 c0 -25 1 -26 9 -8 12 27 12 35 0 35 -5 0 -10 -12 -9 -27z"/>
<path d="M1960 4285 c-15 -18 -5 -35 20 -35 10 0 22 5 25 10 7 11 -12 40 -25
40 -4 0 -13 -7 -20 -15z m30 -15 c0 -5 -4 -10 -10 -10 -5 0 -10 5 -10 10 0 6
5 10 10 10 6 0 10 -4 10 -10z"/>
<path d="M2077 4274 c3 -9 0 -20 -8 -24 -18 -12 -11 -16 39 -24 27 -4 42 -2
42 4 0 6 -6 8 -12 4 -8 -5 -7 -1 1 10 14 17 15 17 23 -4 10 -28 42 -22 46 9 5
29 -13 50 -29 34 -9 -9 -16 -9 -30 0 -14 9 -21 8 -31 -2 -11 -12 -10 -13 7 -7
17 5 16 2 -5 -15 l-25 -21 -3 26 c-2 14 -7 26 -12 26 -5 0 -7 -7 -3 -16z m110
-36 c-3 -7 -5 -2 -5 12 0 14 2 19 5 13 2 -7 2 -19 0 -25z"/>
<path d="M2326 4261 c-3 -5 -24 -7 -46 -4 -38 5 -40 5 -40 -23 0 -27 1 -27 15
-8 14 19 14 19 15 -1 1 -20 1 -20 15 -1 11 15 15 16 15 5 0 -8 9 -15 20 -16
16 -1 20 4 20 28 0 30 -4 36 -14 20z"/>
<path d="M761 4204 c0 -11 3 -14 6 -6 3 7 2 16 -1 19 -3 4 -6 -2 -5 -13z"/>
<path d="M9443 4170 c-41 -25 -42 -34 -3 -25 25 6 30 4 30 -13 0 -10 -11 -24
-25 -30 -19 -9 -24 -18 -22 -40 2 -15 7 -33 11 -40 4 -7 4 -16 1 -22 -10 -17
42 -11 60 6 15 15 15 18 0 34 -15 17 -14 20 9 43 28 28 31 42 16 81 -11 31
-34 33 -77 6z"/>
<path d="M2552 3913 c8 -10 7 -13 -3 -14 -14 0 -1 -7 58 -29 18 -7 31 -16 28
-20 -4 -7 23 -13 118 -26 31 -5 36 -3 31 10 -3 9 -16 17 -28 17 -20 1 -20 2
-1 6 11 3 24 9 29 13 15 15 -57 43 -110 44 -29 0 -50 4 -47 9 2 4 -16 7 -41 6
-36 -2 -43 -5 -34 -16z m163 -63 c18 -8 17 -9 -7 -9 -16 -1 -28 4 -28 9 0 12
8 12 35 0z"/>
<path d="M6558 3884 c-23 -27 -68 -114 -68 -133 0 -11 11 -3 33 21 45 51 67
59 169 63 50 2 93 6 96 9 11 12 -90 47 -150 53 -53 4 -66 2 -80 -13z"/>
<path d="M7312 3875 c-102 -19 -107 -21 -87 -41 13 -13 43 -16 173 -18 l157
-1 84 -43 c46 -23 86 -40 89 -37 7 7 -54 60 -113 100 -87 57 -158 66 -303 40z"/>
<path d="M9497 3843 c-11 -10 -8 -43 3 -43 6 0 10 9 10 19 0 11 6 22 13 24 8
4 6 6 -4 6 -9 1 -19 -2 -22 -6z"/>
<path d="M9920 3819 l-25 -10 28 -23 c20 -16 26 -28 21 -40 -12 -31 27 -15 46
19 16 27 16 32 2 48 -17 19 -35 21 -72 6z"/>
<path d="M9625 3800 c3 -5 10 -10 16 -10 5 0 9 5 9 10 0 6 -7 10 -16 10 -8 0
-12 -4 -9 -10z"/>
<path d="M9585 3781 c-3 -5 -1 -12 5 -16 5 -3 10 1 10 9 0 18 -6 21 -15 7z"/>
<path d="M9650 3691 c0 -17 12 -41 21 -41 5 0 9 11 9 25 0 16 -6 25 -15 25 -8
0 -15 -4 -15 -9z"/>
<path d="M6607 3623 c-24 -6 -53 -35 -62 -63 -5 -15 0 -27 19 -45 14 -13 26
-31 26 -40 0 -8 5 -15 11 -15 6 0 8 9 4 20 -4 11 -2 20 4 20 6 0 11 -4 11 -10
0 -5 11 -10 25 -10 33 0 46 44 19 65 -11 8 -14 14 -6 15 6 0 12 9 12 20 0 43
100 9 153 -52 13 -16 17 -17 17 -5 0 17 -46 55 -95 79 -33 17 -109 28 -138 21z"/>
<path d="M7296 3615 c-44 -15 -51 -24 -68 -78 -14 -46 -5 -57 46 -62 30 -2 40
1 53 22 10 15 13 27 7 31 -6 4 -11 24 -11 46 l-1 38 49 -4 c30 -3 67 -16 96
-35 48 -29 55 -46 42 -93 -6 -24 63 -17 96 8 15 12 34 22 41 22 26 0 14 28
-18 45 -60 31 -208 75 -251 75 -23 -1 -60 -7 -81 -15z"/>
<path d="M1632 3360 c0 -14 2 -19 5 -12 2 6 2 18 0 25 -3 6 -5 1 -5 -13z"/>
<path d="M1661 3354 c0 -11 3 -14 6 -6 3 7 2 16 -1 19 -3 4 -6 -2 -5 -13z"/>
<path d="M1706 3345 c-3 -8 -1 -15 4 -15 6 0 10 7 10 15 0 8 -2 15 -4 15 -2 0
-6 -7 -10 -15z"/>
<path d="M1741 3344 c0 -11 3 -14 6 -6 3 7 2 16 -1 19 -3 4 -6 -2 -5 -13z"/>
<path d="M2131 3254 c0 -11 3 -14 6 -6 3 7 2 16 -1 19 -3 4 -6 -2 -5 -13z"/>
<path d="M8121 3164 c0 -11 3 -14 6 -6 3 7 2 16 -1 19 -3 4 -6 -2 -5 -13z"/>
<path d="M8111 3133 c-1 -7 -14 -27 -29 -45 -41 -46 -76 -122 -111 -235 -30
-98 -98 -245 -147 -317 -14 -21 -20 -35 -13 -31 9 6 11 0 6 -23 -9 -44 -45
-122 -57 -122 -6 0 -9 -3 -8 -7 2 -11 -12 -65 -21 -83 -4 -8 -9 -44 -10 -80
-4 -98 -6 -114 -15 -128 -10 -16 -8 -19 25 -27 29 -7 40 5 74 85 11 25 37 72
58 105 20 33 48 81 61 107 12 26 29 54 36 63 7 9 15 50 18 92 4 63 8 76 23 80
13 4 19 14 19 34 0 16 4 29 9 29 6 0 8 27 5 64 -2 36 0 83 5 105 7 32 6 41 -4
41 -10 0 -12 10 -8 38 8 50 50 169 75 210 11 17 17 38 15 45 -4 9 -6 9 -6 0z"/>
<path d="M16 3072 c-4 -3 -6 -20 -6 -37 0 -31 2 -33 63 -45 34 -8 89 -28 122
-45 33 -18 85 -40 115 -50 30 -9 64 -23 76 -30 19 -12 151 -55 169 -55 4 0
-12 13 -36 30 -24 16 -49 30 -56 30 -6 0 -18 9 -26 20 -13 19 -24 22 -184 47
-40 6 -67 33 -33 33 29 0 23 27 -12 53 -27 20 -182 60 -192 49z"/>
<path d="M6860 3070 c0 -13 28 -25 38 -16 3 4 0 11 -8 16 -20 13 -30 12 -30 0z"/>
<path d="M7055 3068 c-24 -14 -35 -29 -29 -40 3 -4 0 -8 -6 -8 -6 0 -9 -4 -5
-9 3 -6 26 -4 58 6 76 22 82 26 62 46 -19 20 -51 21 -80 5z"/>
<path d="M7201 3039 c-13 -11 -22 -22 -19 -25 3 -2 16 4 29 15 13 11 22 22 19
24 -3 3 -16 -3 -29 -14z"/>
<path d="M6853 2869 c-13 -4 -23 -10 -23 -12 0 -2 10 -3 23 -4 54 -1 66 -4 81
-19 9 -9 44 -18 86 -23 64 -7 90 -15 79 -25 -10 -10 -129 -8 -187 4 -48 10
-60 16 -52 25 8 10 3 11 -22 6 -30 -6 -33 -10 -36 -46 -1 -26 4 -50 15 -66 10
-15 35 -52 55 -82 56 -84 108 -105 108 -43 0 41 17 56 68 63 37 5 40 3 50 -25
10 -30 11 -30 47 -18 37 13 66 13 103 2 14 -5 27 2 46 24 63 75 6 151 -169
226 -36 15 -241 25 -272 13z"/>
<path d="M372 2798 c2 -6 35 -24 73 -39 38 -16 92 -44 120 -63 32 -22 76 -41
120 -51 101 -23 101 -23 146 -61 56 -46 86 -61 179 -88 92 -27 284 -128 306
-161 15 -24 82 -60 167 -92 33 -12 61 -33 87 -64 44 -52 76 -64 190 -75 41 -4
105 -18 143 -31 37 -13 112 -28 167 -34 151 -15 262 -53 374 -130 71 -47 198
-99 245 -99 23 0 41 3 41 8 0 4 -27 15 -59 25 -125 39 -179 76 -337 227 -67
64 -93 81 -155 105 -90 34 -225 100 -234 115 -9 14 23 39 49 40 10 0 71 -28
135 -62 93 -51 134 -80 209 -152 93 -90 123 -98 54 -15 -55 67 -97 101 -192
154 -47 26 -113 67 -147 91 -102 73 -152 94 -235 98 -143 8 -293 60 -322 111
-19 34 -50 54 -106 72 -30 9 -63 23 -72 31 -17 14 -43 8 -33 -9 9 -14 -27 -11
-59 6 -15 8 -32 12 -37 9 -5 -3 -9 1 -9 8 0 22 -133 18 -159 -4 -18 -15 -24
-15 -73 -1 -29 8 -91 19 -138 24 -109 12 -250 52 -316 89 -53 31 -130 42 -122
18z m915 -224 c-3 -3 -12 -4 -19 -1 -8 3 -5 6 6 6 11 1 17 -2 13 -5z m510
-174 c22 -27 22 -29 5 -50 -37 -45 -282 -37 -363 12 l-33 20 27 24 c27 23 34
24 185 23 l157 0 22 -29z"/>
<path d="M1242 2709 c2 -6 7 -10 12 -9 5 1 12 -4 17 -11 4 -8 11 -10 15 -6 4
4 -1 14 -12 22 -23 17 -37 19 -32 4z"/>
<path d="M20 2567 c54 -48 108 -86 168 -116 57 -29 66 -38 87 -86 14 -30 32
-58 42 -63 10 -6 47 -33 82 -61 74 -59 136 -82 239 -86 45 -2 80 -9 90 -17 9
-8 42 -25 72 -38 85 -35 170 -79 170 -89 0 -4 -20 -5 -45 -1 -27 4 -45 3 -45
-3 0 -5 -7 -6 -16 -3 -29 11 -5 -10 68 -58 40 -28 83 -59 95 -70 13 -10 26
-16 30 -12 4 4 1 11 -6 16 -8 4 -11 15 -7 25 5 14 9 15 21 5 8 -7 15 -8 15 -3
0 5 7 10 15 10 8 0 15 -7 15 -16 0 -13 2 -13 9 -3 6 10 10 7 15 -11 3 -14 9
-32 12 -40 3 -10 -1 -17 -13 -19 -12 -3 6 -17 57 -43 89 -47 105 -53 67 -28
-15 11 -24 23 -20 26 4 4 -3 14 -15 23 -12 8 -22 22 -22 30 0 8 -4 12 -10 9
-6 -4 -10 8 -10 28 0 31 3 34 21 30 11 -3 24 -15 28 -26 7 -19 8 -19 15 -2 4
12 0 22 -13 32 -11 7 -26 19 -33 26 -7 8 -46 26 -87 41 -40 16 -103 47 -140
69 -36 22 -92 53 -123 69 -32 15 -77 41 -100 58 -38 28 -46 30 -102 24 -34 -3
-79 -1 -102 5 -55 15 -147 82 -181 134 -33 48 -138 132 -233 184 -36 19 -77
44 -92 54 -37 26 -48 24 -18 -4z m1010 -657 c0 -5 -7 -7 -15 -4 -8 4 -15 8
-15 10 0 2 7 4 15 4 8 0 15 -4 15 -10z m134 -15 c-4 -8 -8 -15 -10 -15 -2 0
-4 7 -4 15 0 8 4 15 10 15 5 0 7 -7 4 -15z"/>
<path d="M6870 2509 c19 -68 92 -109 195 -109 57 0 112 25 163 73 29 28 45 56
24 43 -5 -3 -30 -6 -56 -7 -26 -2 -49 -7 -52 -11 -3 -5 -21 -15 -40 -23 -61
-25 -166 -3 -221 48 l-22 20 9 -34z"/>
<path d="M14 2495 c11 -8 24 -15 30 -15 5 0 1 7 -10 15 -10 8 -23 14 -29 14
-6 0 -1 -6 9 -14z"/>
<path d="M77 2461 c6 -25 140 -99 182 -100 24 -1 -111 89 -164 109 -19 7 -22
6 -18 -9z"/>
<path d="M3248 2335 c-3 -3 -43 -10 -89 -15 -112 -12 -149 -20 -149 -33 0 -6
21 -8 57 -4 62 6 116 -1 107 -14 -3 -5 -16 -9 -30 -9 -51 0 -21 -18 49 -28
152 -23 187 -24 187 -9 0 8 -9 22 -20 32 -27 24 -25 33 8 47 26 10 24 11 -38
24 -79 16 -75 15 -82 9z"/>
<path d="M3534 2305 c11 -8 23 -15 28 -15 4 0 8 -9 8 -20 0 -15 7 -20 28 -21
15 0 37 -2 50 -5 22 -4 22 -3 9 17 -8 11 -13 29 -10 40 5 17 0 19 -63 19 -63
-1 -67 -2 -50 -15z m96 -17 c0 -6 -6 -5 -15 2 -8 7 -15 14 -15 16 0 2 7 1 15
-2 8 -4 15 -11 15 -16z"/>
<path d="M2795 2261 c-9 -15 31 -32 91 -38 38 -4 54 -2 54 6 0 28 -130 56
-145 32z"/>
<path d="M4106 2261 c-19 -30 20 -55 114 -74 44 -9 65 -18 65 -27 0 -24 25
-34 42 -17 24 24 3 46 -78 82 -86 38 -135 50 -143 36z"/>
<path d="M4935 2262 c-44 -5 -53 -19 -20 -32 39 -15 100 -9 100 9 0 17 -38 28
-80 23z"/>
<path d="M3712 2205 c41 -38 59 -41 120 -23 44 13 34 28 -19 28 -17 0 -42 4
-55 9 -13 4 -36 11 -53 15 l-30 6 37 -35z"/>
<path d="M4500 2222 c0 -20 28 -32 78 -32 29 0 62 -5 74 -11 11 -6 22 -8 26
-5 8 9 -3 16 -33 22 -15 3 -34 11 -42 19 -15 16 -103 21 -103 7z"/>
<path d="M7412 2175 c-101 -52 -166 -70 -262 -68 -47 0 -106 7 -131 15 l-47
15 10 -31 c5 -17 12 -40 15 -51 3 -11 12 -27 19 -35 7 -9 18 -39 24 -68 7 -29
16 -52 22 -52 6 0 8 -6 5 -13 -3 -7 3 -28 13 -47 l18 -34 11 53 c21 97 65 150
144 172 117 33 152 50 182 92 16 23 28 46 27 51 -2 4 3 14 9 22 14 18 16 18
-59 -21z"/>
<path d="M546 2137 c3 -8 17 -20 32 -25 72 -27 129 -42 161 -42 l36 0 -34 22
c-26 17 -46 21 -89 19 -46 -2 -54 0 -49 13 4 9 1 16 -6 16 -7 0 -22 3 -35 6
-17 5 -21 3 -16 -9z"/>
<path d="M4590 2119 c-19 -12 -45 -32 -58 -45 -13 -12 -38 -25 -55 -27 -18 -2
27 -5 100 -5 137 -2 165 2 157 21 -2 7 6 17 18 22 56 25 15 55 -75 55 -35 0
-63 -7 -87 -21z"/>
<path d="M5076 2122 c-3 -5 3 -25 12 -45 13 -28 23 -36 44 -37 15 0 30 5 33
10 10 16 100 12 145 -6 23 -9 48 -29 60 -48 17 -29 25 -33 65 -34 51 -2 52 8
5 28 -16 7 -30 19 -30 28 0 21 62 11 129 -21 30 -14 61 -22 73 -19 19 5 19 7
-13 34 -73 62 -76 63 -193 64 -85 1 -134 8 -210 28 -109 29 -113 29 -120 18z"/>
<path d="M765 2060 c-16 -6 -15 -8 11 -17 16 -6 37 -14 46 -18 13 -5 15 -2 11
13 -5 22 -38 32 -68 22z"/>
<path d="M5360 1927 c0 -26 -28 -37 -90 -37 -15 0 -33 -7 -40 -15 -7 -8 -28
-18 -49 -21 l-36 -7 30 -13 c17 -7 39 -13 50 -14 12 0 38 -9 60 -20 22 -11 45
-20 52 -20 7 0 40 17 72 37 49 30 57 39 46 50 -8 7 -22 23 -32 36 -10 13 -28
29 -41 36 -20 11 -22 9 -22 -12z"/>
<path d="M5535 1940 c27 -12 35 -12 35 0 0 6 -12 10 -27 9 -25 0 -26 -1 -8 -9z"/>
<path d="M3122 1870 c-40 -5 -94 -14 -119 -22 l-46 -13 44 -7 c24 -4 79 -15
122 -24 62 -14 82 -15 100 -5 34 18 51 49 36 67 -12 15 -25 15 -137 4z m-37
-30 c19 -8 19 -9 -2 -9 -12 -1 -25 4 -28 9 -7 12 2 12 30 0z"/>
<path d="M1070 1856 c0 -3 9 -10 20 -16 11 -6 20 -8 20 -6 0 3 -9 10 -20 16
-11 6 -20 8 -20 6z"/>
<path d="M1260 1829 c0 -30 106 -144 173 -185 31 -20 57 -41 57 -46 0 -24 -55
-169 -86 -228 -70 -133 -174 -220 -262 -220 -42 0 -99 23 -156 63 l-28 20 7
-24 c32 -103 148 -268 243 -346 51 -42 64 -39 136 27 118 109 204 316 237 567
10 82 16 101 29 100 14 -1 15 -9 3 -81 -22 -143 -52 -259 -87 -338 -22 -50
-12 -48 14 2 63 123 132 357 123 418 -3 18 0 38 6 46 14 17 27 146 15 146 -29
0 -53 -33 -56 -75 -4 -56 -22 -64 -26 -12 l-3 38 -37 -21 -37 -21 -53 28 c-54
29 -136 89 -184 135 -26 24 -28 25 -28 7z"/>
<path d="M5078 1844 c-3 -3 -26 -7 -49 -9 -180 -17 -220 -29 -132 -40 27 -3
62 -7 80 -10 23 -2 42 4 72 27 23 16 41 32 41 34 0 6 -6 5 -12 -2z"/>
<path d="M1743 1792 c-6 -4 -14 -34 -17 -67 -12 -110 -16 -127 -31 -121 -7 2
-16 -2 -19 -10 -10 -27 -6 -52 9 -58 12 -4 14 -14 9 -43 -11 -65 -65 -225 -95
-285 -16 -32 -27 -58 -23 -58 3 0 25 42 49 93 40 86 56 132 84 243 l11 41 52
-8 c29 -4 73 -12 98 -18 65 -15 85 -14 71 3 -8 10 -8 16 1 24 26 21 73 25 169
12 79 -11 104 -11 126 -1 26 12 26 13 9 23 -11 6 -108 12 -225 15 -259 5 -295
9 -286 31 8 21 28 182 23 187 -2 2 -9 1 -15 -3z"/>
<path d="M9623 1594 c-72 -31 -135 -122 -151 -217 l-8 -42 -129 -5 -130 -5 3
-55 c1 -30 7 -158 12 -285 20 -465 20 -465 49 -497 l26 -28 420 -1 420 0 26
29 c30 33 29 28 49 417 5 110 13 251 16 313 l6 112 -130 0 -130 0 -7 43 c-15
93 -74 181 -146 218 -46 23 -147 25 -196 3z m172 -62 c52 -28 99 -102 107
-167 l3 -30 -185 0 -185 0 2 37 c5 79 73 162 146 177 34 8 80 1 112 -17z m38
-364 c47 -21 59 -42 36 -65 -9 -9 -22 -7 -53 9 -27 14 -61 21 -99 22 -54 1
-61 -2 -88 -32 -16 -18 -29 -44 -29 -58 0 -35 45 -75 111 -98 147 -51 205
-108 197 -195 -6 -59 -35 -103 -85 -126 -77 -37 -171 -29 -260 22 -46 25 -51
37 -29 66 13 17 16 17 51 -8 82 -55 182 -56 235 -3 60 60 28 120 -87 168 -127
52 -143 61 -169 95 -35 46 -34 122 2 164 60 72 155 86 267 39z"/>
<path d="M2591 1581 c-10 -7 1 -16 44 -36 54 -26 59 -27 71 -11 11 16 16 16
76 -7 97 -38 98 -38 98 -22 0 8 6 15 13 15 15 1 -8 15 -42 25 -16 5 -21 4 -17
-4 5 -7 -3 -11 -21 -11 -18 0 -24 3 -15 9 20 12 -4 27 -66 40 -63 13 -122 14
-141 2z"/>
<path d="M4310 1438 c-25 -27 -25 -38 0 -45 11 -3 18 -9 15 -13 -3 -5 32 -23
77 -40 46 -18 87 -34 91 -37 5 -3 5 11 2 30 -9 45 3 52 85 48 36 -1 76 2 90 7
l25 10 -25 6 c-14 3 -68 7 -120 9 -70 3 -107 10 -140 25 -57 27 -74 27 -100 0z"/>
<path d="M4086 1394 c-66 -21 -141 -96 -158 -158 l-12 -46 -133 0 -133 0 0
-480 0 -481 398 3 397 3 50 25 c67 33 131 99 163 168 l27 57 3 353 3 352 -136
0 c-115 0 -135 2 -135 15 0 31 -50 114 -87 144 -41 34 -118 61 -167 60 -17 0
-53 -7 -80 -15z m137 -55 c47 -13 106 -63 123 -106 20 -47 19 -50 -33 -58 -27
-4 -69 -15 -94 -25 -46 -17 -48 -17 -115 6 -38 13 -82 24 -98 24 -26 0 -28 2
-22 30 14 72 95 136 176 139 14 0 42 -4 63 -10z m-138 -218 c74 -29 91 -29
185 -2 54 16 117 23 228 28 l152 6 0 -169 c-1 -166 -1 -168 -17 -124 -21 62
-71 121 -128 149 -104 52 -242 19 -308 -75 -27 -38 -32 -42 -40 -27 -37 70
-131 123 -217 123 -62 0 -141 -32 -176 -71 -33 -36 -64 -100 -64 -131 0 -16
-5 -28 -11 -28 -7 0 -9 9 -5 23 3 12 6 91 6 176 l0 153 168 -4 c143 -4 176 -8
227 -27z m-55 -153 c124 -63 155 -217 64 -318 -45 -49 -90 -70 -153 -70 -116
0 -201 87 -201 205 0 156 153 252 290 183z m457 -3 c32 -16 61 -41 79 -67 25
-36 29 -50 29 -114 0 -64 -3 -77 -30 -116 -38 -55 -102 -88 -169 -88 -149 0
-248 152 -187 286 50 110 170 153 278 99z m-787 -228 c1 -62 73 -153 146 -183
38 -16 102 -20 160 -10 41 7 41 7 102 -60 l60 -68 64 69 64 69 46 -13 c117
-33 246 39 290 161 l19 53 -4 -130 c-3 -104 -8 -139 -24 -177 -29 -65 -94
-131 -156 -159 -51 -24 -58 -24 -414 -27 l-363 -3 0 233 c0 128 -3 244 -7 257
-4 17 -3 22 5 17 7 -4 12 -17 12 -29z m471 -90 c-13 -13 -26 -3 -16 12 3 6 11
8 17 5 6 -4 6 -10 -1 -17z m66 -61 l27 -24 -47 -48 -46 -49 -46 45 c-25 24
-45 50 -45 57 0 19 50 42 92 43 25 0 46 -8 65 -24z"/>
<path d="M3976 886 c13 -52 -42 -97 -91 -74 -14 6 -25 15 -25 20 0 5 -4 6 -10
3 -16 -10 -12 -94 6 -125 22 -37 64 -60 109 -60 133 0 179 162 66 237 -45 30
-63 30 -55 -1z"/>
<path d="M4377 878 c4 -30 1 -38 -22 -56 -34 -27 -46 -27 -78 -2 l-25 20 -6
-23 c-10 -39 -6 -71 14 -104 37 -62 125 -82 181 -42 95 67 69 207 -43 234 -26
7 -27 6 -21 -27z"/>
<path d="M1495 1079 c-4 -6 -5 -12 -2 -15 2 -3 7 2 10 11 7 17 1 20 -8 4z"/>
<path d="M530 730 l0 -80 46 0 c25 0 54 5 65 10 21 12 25 50 7 68 -9 9 -9 15
0 24 29 29 -5 58 -69 58 l-49 0 0 -80z m98 38 c-7 -20 -68 -23 -68 -4 0 12 10
16 36 16 24 0 34 -4 32 -12z m0 -65 c-2 -12 -14 -19 -36 -21 -27 -3 -32 0 -32
17 0 17 6 21 36 21 28 0 35 -3 32 -17z"/>
<path d="M731 793 c-12 -24 -51 -126 -51 -135 0 -17 29 -7 35 12 4 14 15 20
35 20 19 0 33 -7 40 -20 6 -11 17 -20 25 -20 19 0 20 -8 -14 80 -29 77 -51 97
-70 63z m35 -70 c-2 -3 -11 -3 -19 -1 -11 2 -12 9 -5 28 l10 25 9 -24 c5 -13
7 -26 5 -28z"/>
<path d="M850 730 l0 -80 43 0 c56 0 87 30 87 83 0 52 -28 77 -85 77 l-45 0 0
-80z m96 24 c10 -38 -10 -74 -41 -74 -23 0 -25 3 -25 50 0 49 1 50 30 50 23 0
31 -5 36 -26z"/>
<path d="M1053 798 c-14 -18 -53 -118 -53 -134 0 -21 18 -17 30 6 15 28 63 27
83 -2 25 -38 32 -11 13 45 -31 88 -52 112 -73 85z m30 -58 c6 -22 -10 -37 -24
-23 -10 10 0 55 11 48 4 -3 10 -14 13 -25z"/>
<path d="M1170 729 c0 -60 3 -80 13 -77 6 3 14 23 17 46 l5 42 28 -45 c44 -69
57 -61 57 36 0 60 -3 80 -12 76 -8 -2 -13 -21 -13 -45 0 -23 -3 -42 -7 -42 -3
0 -18 20 -32 45 -41 70 -56 61 -56 -36z"/>
<path d="M1569 803 c-20 -5 -39 -45 -39 -79 0 -27 40 -74 64 -74 36 0 65 20
75 53 24 72 -25 121 -100 100z m65 -35 c9 -12 16 -30 16 -40 0 -19 -33 -58
-49 -58 -20 0 -41 33 -41 64 0 56 45 76 74 34z"/>
<path d="M1710 728 c0 -45 4 -78 10 -78 6 0 10 27 10 62 0 72 7 71 24 -4 15
-71 37 -71 51 -1 14 74 25 76 25 5 0 -35 4 -62 10 -62 6 0 10 33 10 80 0 64
-3 80 -15 80 -17 0 -45 -49 -45 -79 0 -42 -17 -28 -29 22 -9 42 -16 53 -31 53
-18 0 -20 -7 -20 -78z"/>
<path d="M1390 726 c0 -75 16 -106 22 -43 3 29 6 32 43 37 38 5 40 7 40 40 l0
35 -52 3 -53 3 0 -75z m74 58 c22 -9 20 -31 -5 -44 -26 -15 -49 -6 -49 18 0
31 19 40 54 26z"/>
<path d="M9180 330 c-41 -41 -23 -75 56 -111 53 -23 64 -32 64 -52 0 -14 -7
-30 -15 -37 -15 -12 -75 -10 -107 4 -12 5 -18 4 -18 -3 0 -7 17 -19 37 -27 51
-22 107 -6 121 34 15 45 -2 70 -65 98 -64 29 -73 37 -66 65 7 24 35 32 86 24
38 -7 40 -6 28 9 -20 24 -96 21 -121 -4z"/>
<path d="M9360 220 c0 -80 4 -130 10 -130 6 0 10 21 10 48 0 56 21 92 55 92
34 0 55 -36 55 -92 0 -27 5 -48 10 -48 6 0 10 24 10 54 0 39 -6 60 -22 81 -19
24 -26 27 -65 22 l-43 -5 0 54 c0 30 -4 54 -10 54 -6 0 -10 -50 -10 -130z"/>
<path d="M9561 224 c-28 -35 -26 -69 4 -99 50 -51 135 -17 135 55 0 65 -98 96
-139 44z m101 -11 c39 -35 7 -98 -48 -91 -18 2 -34 13 -43 29 -13 24 -13 29 2
53 20 30 61 35 89 9z"/>
<path d="M9740 128 c0 -72 4 -118 10 -118 6 0 10 23 10 51 0 45 2 50 18 43 35
-16 75 -7 99 20 29 34 29 65 2 100 -19 24 -26 26 -80 24 l-59 -2 0 -118z m114
89 c21 -16 24 -60 6 -82 -16 -20 -64 -19 -84 1 -49 49 22 122 78 81z"/>
<path d="M9955 230 c-27 -30 -25 -88 4 -111 23 -19 74 -25 105 -13 31 12 15
24 -23 18 -42 -7 -81 8 -81 31 0 15 22 19 88 15 28 -1 32 2 32 23 0 53 -87 79
-125 37z m93 -12 c22 -22 13 -28 -38 -28 -27 0 -50 4 -50 8 0 16 25 32 50 32
14 0 31 -5 38 -12z"/>
<path d="M10145 230 c-24 -26 -24 -83 -1 -108 22 -25 69 -35 101 -20 39 17 30
26 -26 24 -38 -1 -54 3 -62 16 -16 25 -5 30 57 29 49 0 56 2 56 19 0 53 -88
81 -125 40z m93 -12 c22 -22 13 -28 -38 -28 -27 0 -50 4 -50 8 0 16 25 32 50
32 14 0 31 -5 38 -12z"/>
<path d="M10531 40 c8 -5 40 -11 70 -14 l54 -6 -35 14 c-40 16 -116 22 -89 6z"/>
</g>
</svg>
