<?xml version="1.0" standalone="no"?>
<!DOCTYPE svg PUBLIC "-//W3C//DTD SVG 20010904//EN"
 "http://www.w3.org/TR/2001/REC-SVG-20010904/DTD/svg10.dtd">
<svg version="1.0" xmlns="http://www.w3.org/2000/svg"
 width="1080.000000pt" height="1080.000000pt" viewBox="0 0 1080.000000 1080.000000"
 preserveAspectRatio="xMidYMid meet">

<g transform="translate(0.000000,1080.000000) scale(0.100000,-0.100000)"
fill="#000000" stroke="none">
<path d="M9660 10262 c1 -15 38 -52 80 -78 l45 -28 -30 -7 c-27 -6 -25 -7 15
-8 l45 -2 -30 -14 c-16 -7 -46 -28 -65 -44 l-35 -31 48 14 c27 8 56 21 65 30
10 8 30 21 45 29 l29 15 -34 7 c-21 5 -52 26 -85 60 -45 46 -93 75 -93 57z
m60 -37 c7 -8 8 -15 2 -15 -5 0 -15 7 -22 15 -7 8 -8 15 -2 15 5 0 15 -7 22
-15z m61 -129 c-6 -8 -22 -16 -34 -20 -21 -5 -21 -4 3 14 29 23 48 26 31 6z"/>
<path d="M9840 10255 c0 -17 30 -73 49 -89 11 -11 21 -25 21 -32 0 -7 10 -18
21 -25 20 -10 21 -9 16 13 -13 52 -38 97 -63 117 -26 20 -44 27 -44 16z m54
-34 c27 -29 15 -50 -12 -23 -22 22 -29 42 -14 42 5 0 17 -9 26 -19z"/>
<path d="M9365 10201 c27 -16 52 -28 56 -25 4 2 28 -5 53 -16 25 -10 46 -17
46 -15 0 11 -130 74 -165 79 l-40 7 50 -30z m50 -11 c3 -6 -1 -7 -9 -4 -18 7
-21 14 -7 14 6 0 13 -4 16 -10z"/>
<path d="M9530 10224 c0 -18 43 -51 82 -63 21 -7 40 -17 43 -22 4 -5 18 -8 33
-8 l27 2 -25 4 c-14 3 -44 20 -67 39 -23 19 -45 34 -50 34 -4 0 -1 -4 7 -10 8
-5 11 -13 6 -17 -4 -4 -19 6 -32 22 -13 17 -24 25 -24 19z"/>
<path d="M9990 10160 c0 -17 3 -29 8 -27 4 3 6 -9 6 -26 -1 -22 9 -45 30 -72
18 -22 43 -67 55 -100 52 -135 78 -196 86 -198 4 -1 14 8 23 21 10 15 11 22 3
20 -14 -4 -84 169 -77 189 3 8 -2 13 -13 13 -23 0 -81 72 -81 102 0 32 -19 96
-30 103 -6 4 -10 -8 -10 -25z"/>
<path d="M9514 10112 c-47 -20 -90 -49 -83 -57 9 -8 70 16 64 25 -3 4 2 11 11
14 8 3 12 2 9 -4 -10 -16 7 -12 27 7 10 9 38 20 61 24 l42 6 -45 1 c-25 1 -63
-7 -86 -16z"/>
<path d="M9951 10078 c-11 -17 -20 -20 -62 -16 -34 4 -49 2 -46 -6 6 -18 57
-19 103 -1 45 17 54 29 31 38 -7 3 -19 -4 -26 -15z"/>
<path d="M9105 9860 l0 -120 35 1 c19 0 29 3 23 6 -9 3 -13 37 -13 119 0 112
0 114 -22 114 -23 0 -23 -2 -23 -120z"/>
<path d="M9226 9966 c18 -8 36 -27 44 -47 18 -41 18 -123 1 -143 -8 -10 -9
-16 -3 -16 26 0 52 53 52 105 0 48 -3 56 -35 84 -22 19 -46 31 -63 31 l-27 -1
31 -13z"/>
<path d="M9365 9860 c0 -118 0 -120 23 -120 20 0 22 5 22 51 0 43 3 50 16 45
9 -3 19 -6 23 -6 4 0 22 -20 40 -45 25 -34 39 -45 59 -45 23 1 25 2 12 13 -9
7 -28 28 -43 48 -21 28 -37 38 -67 43 l-40 6 0 65 c0 61 -1 65 -22 65 -23 0
-23 -2 -23 -120z"/>
<path d="M9480 9969 c13 -6 28 -15 32 -22 12 -19 9 -72 -4 -85 -8 -8 -9 -12
-1 -12 15 0 53 48 53 67 0 25 -47 63 -77 62 l-28 0 25 -10z"/>
<path d="M9758 9874 c2 -71 -1 -110 -9 -120 -9 -11 -7 -14 14 -14 l26 0 3 120
c3 114 2 120 -17 120 -19 0 -20 -6 -17 -106z"/>
<path d="M9955 9963 c4 -10 25 -67 47 -126 39 -104 41 -107 60 -91 10 10 15
20 10 23 -13 8 -72 166 -72 191 0 15 -7 20 -26 20 -21 0 -25 -4 -19 -17z"/>
<path d="M10265 9970 c3 -5 -1 -26 -10 -46 -8 -20 -14 -39 -12 -41 2 -2 14 19
25 47 18 42 18 50 6 50 -8 0 -13 -4 -9 -10z"/>
<path d="M9911 9783 c0 -7 -13 -19 -27 -26 l-27 -14 27 -5 c30 -6 41 8 33 39
-3 10 -5 13 -6 6z"/>
<path d="M9596 9765 c-3 -9 1 -18 10 -22 19 -7 39 11 30 26 -10 16 -33 13 -40
-4z"/>
<path d="M9846 9654 c-9 -8 -16 -21 -16 -28 0 -16 21 -36 38 -36 9 0 5 7 -9
19 -23 19 -24 19 -5 40 22 24 15 29 -8 5z"/>
<path d="M10109 9663 c-6 -56 -5 -60 21 -59 44 2 37 65 -7 66 -7 0 -13 -3 -14
-7z m36 -23 c0 -7 -6 -15 -12 -17 -8 -3 -13 4 -13 17 0 13 5 20 13 18 6 -3 12
-11 12 -18z"/>
<path d="M10247 9663 c-4 -3 -7 -21 -7 -40 0 -28 3 -33 23 -32 16 1 18 2 5 6
-10 2 -18 8 -18 13 0 5 8 11 18 13 16 4 16 5 0 6 -10 0 -18 5 -18 11 0 5 8 14
18 19 14 9 15 10 1 11 -9 0 -19 -3 -22 -7z"/>
<path d="M9340 9651 c0 -5 9 -16 21 -24 20 -14 20 -16 2 -26 -10 -6 -13 -10
-8 -11 6 0 17 5 25 10 13 8 11 14 -12 35 -16 14 -28 21 -28 16z"/>
<path d="M9493 9643 c-22 -15 -33 -41 -13 -28 6 4 19 1 28 -7 15 -12 16 -11 3
5 -11 14 -11 20 -1 32 16 19 11 18 -17 -2z"/>
<path d="M9602 9630 c0 -19 2 -27 5 -17 2 9 2 25 0 35 -3 9 -5 1 -5 -18z"/>
<path d="M9691 9628 c1 -29 2 -30 8 -10 l6 24 19 -21 c27 -29 36 -26 35 12 -1
23 -3 26 -6 10 -5 -28 -14 -29 -31 -3 -18 30 -32 24 -31 -12z"/>
<path d="M10000 9640 c7 -14 7 -20 0 -20 -5 0 -10 6 -10 13 0 8 -4 7 -10 -3
-14 -22 -13 -25 18 -25 27 0 28 2 18 28 -6 15 -14 27 -19 27 -4 0 -3 -9 3 -20z"/>
<path d="M3076 9061 c-4 -7 -5 -15 -2 -18 9 -9 19 4 14 18 -4 11 -6 11 -12 0z"/>
<path d="M3490 8961 c0 -67 4 -111 10 -111 6 0 10 41 10 104 0 59 -4 108 -10
111 -6 4 -10 -33 -10 -104z"/>
<path d="M3560 8961 c0 -67 4 -111 10 -111 6 0 10 41 10 104 0 59 -4 108 -10
111 -6 4 -10 -33 -10 -104z"/>
<path d="M5060 9030 c0 -37 -2 -40 -19 -30 -52 27 -111 -10 -111 -70 0 -59 71
-103 109 -67 11 10 14 10 18 0 14 -38 23 0 23 97 0 67 -4 110 -10 110 -5 0
-10 -18 -10 -40z m-37 -41 c28 -15 37 -28 37 -58 0 -55 -65 -81 -94 -39 -22
31 -20 64 4 88 23 23 25 24 53 9z"/>
<path d="M5420 9055 c0 -8 5 -15 10 -15 6 0 10 7 10 15 0 8 -4 15 -10 15 -5 0
-10 -7 -10 -15z"/>
<path d="M6800 9030 c0 -45 -1 -46 -34 -25 -28 19 -69 7 -85 -24 -19 -34 -13
-86 12 -109 26 -25 48 -27 80 -11 16 9 22 9 25 0 2 -6 8 -11 13 -11 5 0 9 50
9 110 0 67 -4 110 -10 110 -5 0 -10 -18 -10 -40z m-25 -55 c29 -28 31 -51 9
-83 -20 -28 -69 -30 -84 -3 -16 31 -12 69 10 91 26 26 36 25 65 -5z"/>
<path d="M9167 9063 c-11 -11 -8 -213 3 -213 6 0 10 43 10 110 0 110 -1 116
-13 103z"/>
<path d="M2820 8956 c0 -64 4 -106 10 -106 6 0 10 34 10 83 l1 82 35 -67 c19
-38 38 -68 42 -68 4 0 24 30 45 68 l37 67 0 -82 c0 -49 4 -83 10 -83 6 0 10
42 10 105 0 128 -12 135 -60 35 -19 -38 -36 -70 -39 -70 -3 0 -22 30 -41 67
-52 99 -60 95 -60 -31z"/>
<path d="M5587 8958 l2 -103 55 2 c69 2 94 15 112 60 20 46 10 86 -28 118 -24
20 -40 25 -86 25 l-57 0 2 -102z m123 72 c10 -5 24 -25 30 -44 21 -64 -25
-116 -101 -116 l-29 0 0 85 0 85 41 0 c22 0 49 -4 59 -10z"/>
<path d="M5821 8953 c1 -68 4 -93 8 -68 5 36 9 40 36 42 25 3 35 -4 58 -38 33
-48 49 -45 19 3 l-21 33 25 22 c29 26 31 66 4 93 -15 15 -33 20 -75 20 l-55 0
1 -107z m117 75 c19 -19 14 -56 -8 -68 -12 -6 -38 -10 -58 -8 -36 3 -37 4 -40
46 l-3 42 48 0 c27 0 54 -5 61 -12z"/>
<path d="M6082 8958 l3 -103 68 -3 c42 -2 67 1 67 8 0 6 -23 10 -55 10 l-55 0
0 95 c0 79 -3 95 -15 95 -13 0 -15 -16 -13 -102z"/>
<path d="M6251 9053 c2 -27 66 -198 75 -200 6 -2 24 36 41 89 l29 93 28 -85
c16 -47 32 -89 36 -94 11 -11 21 11 59 117 23 66 27 87 17 87 -9 0 -25 -31
-41 -80 -15 -44 -28 -80 -30 -80 -2 0 -15 36 -30 80 -16 47 -32 80 -40 80 -8
0 -22 -30 -36 -75 -12 -42 -25 -78 -28 -80 -4 -2 -20 32 -35 76 -16 43 -32 79
-37 79 -5 0 -9 -3 -8 -7z"/>
<path d="M4450 9030 c0 -12 -7 -20 -17 -20 -17 -1 -17 -1 0 -14 12 -10 17 -28
17 -68 0 -30 5 -59 12 -66 15 -15 48 -16 48 -2 0 6 -9 10 -20 10 -18 0 -20 7
-20 60 0 53 2 60 20 60 11 0 20 5 20 10 0 6 -9 10 -20 10 -13 0 -20 7 -20 20
0 11 -4 20 -10 20 -5 0 -10 -9 -10 -20z"/>
<path d="M8230 9031 c0 -11 -6 -22 -12 -25 -10 -5 -10 -7 0 -12 7 -4 12 -27
12 -63 0 -31 5 -62 12 -69 15 -15 48 -16 48 -2 0 6 -9 10 -20 10 -18 0 -20 7
-20 60 0 53 2 60 20 60 11 0 20 5 20 10 0 6 -9 10 -20 10 -13 0 -20 7 -20 20
0 11 -4 20 -10 20 -5 0 -10 -9 -10 -19z"/>
<path d="M8800 9031 c0 -11 -6 -22 -12 -25 -10 -5 -10 -7 0 -12 7 -3 12 -25
12 -55 0 -60 13 -89 40 -89 26 0 26 16 0 23 -17 4 -20 14 -20 61 0 49 2 56 20
56 11 0 20 5 20 10 0 6 -9 10 -20 10 -13 0 -20 7 -20 20 0 11 -4 20 -10 20 -5
0 -10 -9 -10 -19z"/>
<path d="M3195 9010 c-60 -23 -76 -98 -30 -137 30 -27 63 -29 91 -8 18 14 16
15 -22 9 -49 -7 -74 12 -74 57 0 45 56 90 75 59 9 -14 28 -13 23 2 -6 17 -40
27 -63 18z"/>
<path d="M3329 8991 c-66 -67 -2 -168 85 -135 29 11 16 23 -19 17 -34 -5 -75
15 -75 38 0 4 28 9 63 11 59 3 62 4 59 28 -2 27 -44 70 -68 70 -9 0 -29 -13
-45 -29z m81 -11 c32 -32 24 -40 -35 -40 -30 0 -55 5 -55 10 0 15 38 50 55 50
8 0 24 -9 35 -20z"/>
<path d="M4294 9004 l-29 -14 37 5 c25 4 41 1 52 -10 25 -25 19 -35 -20 -35
-50 0 -74 -15 -74 -48 0 -16 5 -33 12 -40 15 -15 53 -16 79 -2 13 7 19 7 19 0
0 -5 5 -10 10 -10 6 0 10 26 10 58 0 88 -36 124 -96 96z m76 -92 c0 -26 -20
-42 -52 -42 -30 0 -44 19 -34 45 3 10 19 15 46 15 32 0 40 -4 40 -18z"/>
<path d="M4590 9007 c-34 -17 -55 -57 -46 -90 14 -59 77 -86 122 -52 17 13 15
14 -27 9 -41 -6 -48 -4 -63 17 l-17 24 63 5 c60 5 63 6 60 30 -2 23 -43 70
-60 70 -4 0 -18 -6 -32 -13z m60 -27 c32 -32 24 -40 -35 -40 -30 0 -55 5 -55
10 0 15 38 50 55 50 8 0 24 -9 35 -20z"/>
<path d="M5175 9013 c-40 -10 -41 -25 -1 -21 31 2 41 -1 53 -19 15 -22 15 -23
-21 -23 -52 0 -76 -15 -76 -48 0 -16 5 -33 12 -40 16 -16 60 -15 77 1 11 10
14 10 18 0 12 -32 23 -8 23 47 0 51 -4 65 -25 85 -13 14 -28 24 -32 24 -4 -1
-17 -3 -28 -6z m62 -99 c10 -32 -59 -58 -85 -32 -22 22 5 50 45 46 20 -2 38
-8 40 -14z"/>
<path d="M6910 9007 c-32 -16 -54 -61 -46 -93 15 -56 78 -82 122 -49 17 13 15
14 -27 9 -41 -6 -48 -4 -63 17 l-17 24 63 5 c75 6 85 24 40 70 -34 34 -37 35
-72 17z m60 -27 c32 -32 24 -40 -35 -40 -30 0 -55 3 -55 7 0 12 43 53 57 53 7
0 22 -9 33 -20z"/>
<path d="M7096 9005 c-14 -8 -26 -10 -26 -4 0 5 -4 9 -10 9 -6 0 -10 -33 -10
-80 0 -47 4 -80 10 -80 6 0 10 27 10 60 0 52 3 62 24 75 19 13 29 14 45 5 18
-9 21 -20 21 -70 0 -32 5 -62 10 -65 15 -9 13 130 -2 142 -25 19 -46 21 -72 8z"/>
<path d="M7273 9010 c-51 -21 -65 -86 -27 -124 18 -19 75 -21 92 -4 9 9 12 6
12 -15 0 -34 -31 -51 -79 -43 -34 6 -35 5 -17 -9 11 -8 28 -15 39 -15 21 0 59
18 69 34 12 17 10 176 -2 176 -5 0 -10 -5 -10 -11 0 -5 -10 -3 -22 5 -25 18
-25 18 -55 6z m55 -26 c31 -21 30 -69 -3 -90 -32 -21 -60 -11 -76 28 -12 29
-11 32 15 54 32 28 35 29 64 8z"/>
<path d="M7465 9013 c-39 -9 -42 -26 -3 -19 27 5 40 2 52 -10 24 -24 14 -39
-23 -36 -39 4 -71 -21 -71 -55 0 -33 41 -51 81 -36 16 6 29 7 29 2 0 -5 5 -9
10 -9 6 0 10 28 10 64 0 58 -3 67 -26 85 -15 12 -29 20 -33 20 -3 -1 -15 -3
-26 -6z m61 -98 c9 -23 -15 -45 -48 -45 -30 0 -44 19 -34 45 7 20 75 20 82 0z"/>
<path d="M7652 9009 c-12 -5 -29 -6 -37 -3 -13 5 -15 -7 -15 -75 0 -47 4 -81
10 -81 6 0 10 27 10 60 0 52 3 62 24 75 19 13 29 14 45 5 18 -9 21 -20 21 -70
0 -32 5 -62 10 -65 15 -9 13 118 -2 137 -18 21 -39 27 -66 17z"/>
<path d="M7913 9010 c-80 -33 -59 -160 27 -160 15 0 35 7 46 15 17 14 16 14
-24 9 -33 -5 -47 -3 -62 11 -11 10 -20 22 -20 26 0 4 28 9 62 11 75 4 86 22
40 68 -33 32 -36 33 -69 20z m57 -30 c32 -32 24 -40 -35 -40 -30 0 -55 4 -55
8 0 13 23 39 40 45 25 9 29 8 50 -13z"/>
<path d="M9035 9012 c-11 -2 -24 -9 -30 -14 -7 -7 0 -9 23 -5 25 5 37 2 53
-14 23 -23 18 -39 -11 -32 -30 8 -68 -5 -80 -28 -24 -44 51 -94 87 -58 8 8 13
8 17 0 16 -25 26 -7 26 47 0 81 -28 115 -85 104z m55 -106 c0 -35 -64 -53 -76
-21 -11 28 4 45 41 45 30 0 35 -3 35 -24z"/>
<path d="M9290 9012 c-62 -20 -82 -103 -34 -141 54 -43 124 -10 124 58 0 51
-49 96 -90 83z m58 -40 c44 -56 -33 -137 -81 -84 -27 30 -26 63 4 93 22 22 55
19 77 -9z"/>
<path d="M9451 8994 c-24 -20 -31 -34 -31 -60 0 -64 68 -105 116 -70 17 13 15
14 -22 9 -30 -4 -45 -1 -57 12 -28 27 -20 34 46 37 60 3 62 4 59 28 -4 29 -28
55 -58 64 -15 5 -31 -1 -53 -20z m70 -4 c10 -6 19 -20 19 -30 0 -17 -7 -20
-50 -20 -56 0 -67 17 -28 44 26 19 33 19 59 6z"/>
<path d="M9904 9010 c-30 -12 -54 -49 -54 -83 0 -59 78 -98 126 -62 17 13 15
14 -27 9 -41 -6 -48 -4 -63 17 l-17 24 63 5 c75 6 85 24 40 70 -33 32 -36 33
-68 20z m56 -30 c29 -29 17 -40 -41 -40 -54 0 -60 9 -27 40 27 25 43 25 68 0z"/>
<path d="M10205 9012 c-34 -7 -44 -25 -10 -19 37 6 65 -8 65 -33 0 -16 -5 -18
-35 -13 -61 10 -98 -43 -57 -80 21 -19 45 -21 73 -7 13 7 19 7 19 0 0 -5 5
-10 10 -10 11 0 14 119 2 136 -11 18 -45 31 -67 26z m55 -101 c0 -26 -24 -43
-57 -39 -18 2 -29 10 -31 22 -5 24 14 36 56 36 25 0 32 -4 32 -19z"/>
<path d="M3070 8936 c0 -41 5 -78 10 -81 6 -4 10 23 10 74 0 47 -4 81 -10 81
-6 0 -10 -31 -10 -74z"/>
<path d="M3647 9003 c-15 -15 -5 -22 19 -13 31 12 64 -3 64 -28 0 -14 -7 -17
-33 -14 -22 2 -41 -3 -56 -15 -50 -41 4 -102 65 -74 15 6 24 7 24 1 0 -6 5
-10 10 -10 13 0 13 116 0 141 -8 14 -21 19 -49 19 -21 0 -41 -3 -44 -7z m83
-91 c0 -26 -20 -42 -52 -42 -30 0 -44 19 -34 45 3 10 19 15 46 15 32 0 40 -4
40 -18z"/>
<path d="M3800 8930 c0 -91 17 -109 22 -23 3 53 6 59 37 80 26 18 30 23 14 23
-10 0 -25 -6 -32 -12 -11 -10 -14 -10 -18 0 -13 34 -23 4 -23 -68z"/>
<path d="M4006 8983 c15 -60 41 -127 51 -130 5 -2 18 24 28 57 10 33 21 60 25
60 4 0 15 -27 25 -60 10 -33 23 -59 28 -57 10 3 57 128 57 150 0 25 -22 -11
-36 -60 -9 -30 -19 -51 -24 -46 -4 4 -15 32 -25 61 -9 28 -20 52 -25 52 -5 0
-18 -30 -31 -67 l-22 -67 -20 67 c-11 37 -24 67 -29 67 -4 0 -5 -12 -2 -27z"/>
<path d="M4730 8936 c0 -92 15 -107 24 -25 6 53 11 62 39 79 26 16 28 20 12
20 -12 0 -26 -5 -32 -11 -8 -8 -13 -8 -17 0 -17 27 -26 5 -26 -63z"/>
<path d="M5310 8930 c0 -94 18 -108 22 -18 3 59 5 64 33 77 24 12 26 16 12 19
-10 2 -24 -2 -32 -8 -11 -9 -15 -9 -15 -1 0 6 -4 11 -10 11 -6 0 -10 -33 -10
-80z"/>
<path d="M5420 8936 c0 -41 5 -78 10 -81 6 -4 10 23 10 74 0 47 -4 81 -10 81
-6 0 -10 -31 -10 -74z"/>
<path d="M8050 9003 c0 -5 9 -19 20 -33 25 -32 25 -39 -5 -80 -33 -45 -20 -54
16 -10 l29 34 29 -34 c36 -44 49 -35 16 10 -31 42 -31 45 1 87 16 21 20 33 12
33 -7 0 -22 -14 -33 -30 -11 -16 -22 -30 -25 -30 -3 0 -14 14 -25 30 -19 28
-35 39 -35 23z"/>
<path d="M8330 8930 c0 -47 4 -80 10 -80 6 0 10 24 10 54 0 50 3 57 33 80 20
16 26 26 17 26 -9 0 -22 -6 -29 -12 -11 -10 -14 -10 -18 0 -13 34 -23 4 -23
-68z"/>
<path d="M8464 8999 c-5 -8 2 -10 22 -6 35 6 64 -8 64 -31 0 -15 -7 -17 -35
-14 -61 7 -97 -45 -57 -81 21 -19 49 -22 72 -7 9 5 19 5 27 -2 18 -14 18 123
1 140 -15 15 -85 16 -94 1z m86 -87 c0 -39 -55 -57 -80 -27 -19 22 5 45 46 45
26 0 34 -4 34 -18z"/>
<path d="M8642 8987 c-64 -68 22 -179 94 -122 18 15 17 16 -13 10 -45 -9 -70
1 -81 33 -19 55 23 101 73 82 20 -8 26 -7 23 2 -3 7 -20 14 -39 16 -26 2 -40
-3 -57 -21z"/>
<path d="M9714 8933 c18 -42 37 -78 42 -80 10 -3 78 147 70 155 -10 10 -24
-10 -41 -62 -11 -31 -22 -56 -26 -56 -4 0 -18 27 -31 60 -12 33 -28 60 -35 60
-8 0 0 -28 21 -77z"/>
<path d="M10040 8930 c0 -47 4 -80 10 -80 6 0 10 24 10 53 0 59 5 69 40 87 14
7 20 15 13 17 -7 3 -21 -1 -32 -7 -14 -7 -21 -7 -21 0 0 5 -4 10 -10 10 -6 0
-10 -33 -10 -80z"/>
<path d="M6017 8874 c-8 -8 1 -24 14 -24 5 0 9 7 9 15 0 15 -12 20 -23 9z"/>
<path d="M4479 8685 c-1 -11 -3 -27 -3 -35 -2 -15 -14 -16 -51 -5 -26 8 -70
-26 -79 -59 -8 -34 8 -72 40 -92 25 -17 28 -17 55 -1 16 9 29 12 29 7 0 -6 6
-10 13 -10 15 0 21 140 8 185 -7 23 -10 25 -12 10z m-27 -72 c35 -32 13 -113
-32 -113 -46 0 -70 79 -34 114 20 21 43 20 66 -1z"/>
<path d="M5790 8690 c0 -5 5 -10 10 -10 6 0 10 5 10 10 0 6 -4 10 -10 10 -5 0
-10 -4 -10 -10z"/>
<path d="M5860 8595 c0 -63 4 -105 10 -105 6 0 10 11 10 24 0 13 6 29 13 35
11 8 21 2 47 -31 19 -23 36 -36 38 -30 2 7 -8 26 -22 43 -32 38 -32 49 -1 79
14 13 23 26 20 29 -3 2 -26 -15 -50 -39 l-45 -44 0 72 c0 41 -4 72 -10 72 -6
0 -10 -42 -10 -105z"/>
<path d="M6210 8595 c0 -63 4 -105 10 -105 6 0 10 42 10 105 0 63 -4 105 -10
105 -6 0 -10 -42 -10 -105z"/>
<path d="M6360 8595 c0 -63 4 -105 10 -105 6 0 10 8 10 19 0 10 7 25 16 32 14
12 20 9 44 -19 39 -47 57 -39 19 9 l-32 40 34 35 c23 24 28 34 17 34 -9 0 -32
-18 -52 -40 -20 -22 -38 -40 -41 -40 -3 0 -5 32 -5 70 0 40 -4 70 -10 70 -6 0
-10 -42 -10 -105z"/>
<path d="M6870 8690 c0 -5 5 -10 10 -10 6 0 10 5 10 10 0 6 -4 10 -10 10 -5 0
-10 -4 -10 -10z"/>
<path d="M6940 8595 c0 -63 4 -105 10 -105 6 0 10 42 10 105 0 63 -4 105 -10
105 -6 0 -10 -42 -10 -105z"/>
<path d="M8040 8660 l0 -39 -28 16 c-63 36 -124 -40 -89 -111 19 -41 58 -54
93 -31 13 8 24 11 24 5 0 -5 5 -10 10 -10 6 0 10 42 10 105 0 63 -4 105 -10
105 -5 0 -10 -18 -10 -40z m-18 -47 c35 -32 9 -113 -37 -113 -23 0 -55 37 -55
65 0 29 32 65 57 65 9 0 25 -7 35 -17z"/>
<path d="M8110 8690 c0 -5 5 -10 10 -10 6 0 10 5 10 10 0 6 -4 10 -10 10 -5 0
-10 -4 -10 -10z"/>
<path d="M8520 8595 c0 -63 4 -105 10 -105 6 0 10 4 10 10 0 5 13 1 29 -8 29
-16 31 -16 58 4 40 30 51 66 31 108 -20 41 -59 54 -94 31 -24 -15 -24 -15 -24
25 0 22 -4 40 -10 40 -6 0 -10 -42 -10 -105z m110 15 c22 -22 24 -37 11 -73
-22 -56 -101 -36 -101 25 0 60 51 87 90 48z"/>
<path d="M9360 8690 c0 -5 5 -10 10 -10 6 0 10 5 10 10 0 6 -4 10 -10 10 -5 0
-10 -4 -10 -10z"/>
<path d="M9780 8595 c0 -63 4 -105 10 -105 6 0 10 42 10 105 0 63 -4 105 -10
105 -6 0 -10 -42 -10 -105z"/>
<path d="M9850 8595 c0 -63 4 -105 10 -105 6 0 10 42 10 105 0 63 -4 105 -10
105 -6 0 -10 -42 -10 -105z"/>
<path d="M5690 8665 c0 -17 -6 -25 -17 -25 -17 -1 -17 -1 0 -14 12 -10 17 -28
17 -68 0 -58 16 -85 45 -74 21 8 19 24 -2 22 -15 -1 -19 9 -21 55 -3 51 -1 57
20 64 l23 8 -22 4 c-16 3 -23 11 -23 29 0 13 -4 24 -10 24 -5 0 -10 -11 -10
-25z"/>
<path d="M8908 8684 c-5 -4 -8 -16 -8 -26 0 -10 -5 -18 -12 -18 -9 0 -9 -3 0
-12 7 -7 12 -30 12 -52 0 -54 9 -83 26 -90 18 -7 45 3 39 15 -3 4 -12 6 -19 3
-18 -7 -28 23 -24 75 1 32 6 41 20 41 24 0 23 16 -1 23 -11 2 -21 15 -23 27
-1 12 -6 18 -10 14z"/>
<path d="M3211 8641 c-8 -5 -20 -7 -28 -4 -10 4 -13 -11 -13 -71 0 -91 18
-102 22 -15 3 69 22 94 56 73 12 -8 18 -27 20 -73 2 -33 7 -61 12 -61 5 0 10
28 12 61 3 69 22 94 56 73 12 -8 18 -27 20 -73 4 -79 22 -80 22 -1 0 47 -4 64
-20 80 -24 24 -39 25 -65 6 -17 -12 -22 -12 -39 0 -24 16 -35 17 -55 5z"/>
<path d="M3472 8634 c-74 -52 -18 -174 66 -146 14 4 28 14 30 21 3 10 0 10
-16 2 -30 -16 -57 -13 -75 7 -30 33 -21 42 43 42 54 0 60 2 60 20 0 26 -43 70
-67 70 -10 0 -29 -7 -41 -16z m69 -14 c38 -21 23 -40 -31 -40 -52 0 -60 8 -34
34 18 19 38 20 65 6z"/>
<path d="M3670 8640 c-8 -5 -23 -7 -32 -4 -16 5 -18 -3 -18 -70 0 -41 5 -78
10 -81 6 -4 10 16 10 53 0 44 5 63 18 75 43 39 70 15 74 -66 4 -77 23 -73 23
4 0 52 -4 64 -24 80 -26 21 -39 23 -61 9z"/>
<path d="M3835 8638 c-28 -16 -35 -28 -35 -65 0 -58 51 -89 102 -62 25 13 32
7 23 -21 -9 -29 -51 -44 -87 -31 -15 6 -28 6 -28 1 0 -30 84 -30 114 -1 17 17
22 36 24 100 4 77 3 79 -19 79 -13 0 -35 3 -49 6 -14 4 -34 1 -45 -6z m66 -18
c13 -7 19 -21 19 -43 0 -40 -15 -57 -50 -57 -35 0 -50 17 -50 57 0 45 38 66
81 43z"/>
<path d="M4028 8643 c-31 -8 -19 -23 12 -17 32 7 60 -8 60 -32 0 -10 -13 -14
-39 -14 -68 0 -95 -54 -45 -87 25 -16 28 -16 55 0 16 9 29 12 29 7 0 -6 5 -10
10 -10 6 0 10 28 10 64 0 56 -3 67 -22 80 -22 16 -37 18 -70 9z m70 -100 c6
-42 -69 -57 -84 -18 -10 25 16 46 50 43 23 -2 32 -9 34 -25z"/>
<path d="M4220 8640 c-8 -5 -23 -7 -32 -4 -16 5 -18 -3 -18 -70 0 -44 4 -76
10 -76 6 0 10 26 10 58 0 53 3 60 26 72 41 22 58 4 62 -66 5 -87 22 -93 22 -7
0 63 -3 74 -22 87 -26 18 -37 19 -58 6z"/>
<path d="M4775 8641 c-11 -5 -26 -6 -32 -4 -10 4 -13 -16 -13 -78 0 -95 17
-99 22 -4 3 55 5 60 31 70 40 14 57 -12 57 -88 0 -36 4 -56 10 -52 14 9 12
118 -2 137 -17 21 -48 28 -73 19z"/>
<path d="M4925 8625 c-62 -61 9 -156 86 -115 31 17 25 -26 -7 -47 -21 -13 -32
-15 -55 -6 -17 7 -29 7 -29 2 0 -5 11 -14 25 -19 30 -11 81 5 95 30 13 25 13
170 0 170 -5 0 -10 -5 -10 -11 0 -5 -10 -3 -22 5 -32 22 -55 20 -83 -9z m87
-12 c35 -32 13 -93 -34 -93 -49 0 -74 56 -41 92 20 22 51 23 75 1z"/>
<path d="M5247 8639 c-9 -6 -26 -7 -37 -4 -19 6 -20 1 -20 -94 0 -56 4 -103
10 -106 6 -4 10 10 10 35 l0 41 30 -16 c39 -20 47 -19 75 10 17 16 25 35 25
60 0 25 -8 44 -25 60 -26 27 -40 30 -68 14z m55 -26 c24 -22 23 -75 -2 -98
-26 -24 -64 -13 -79 23 -26 63 33 119 81 75z"/>
<path d="M5418 8643 c-31 -8 -19 -23 12 -17 32 7 60 -8 60 -32 0 -10 -13 -14
-43 -14 -24 0 -48 -5 -55 -12 -37 -37 15 -102 63 -80 14 6 32 9 40 6 12 -5 15
5 15 55 0 84 -27 111 -92 94z m69 -88 c7 -21 -26 -57 -50 -53 -29 4 -44 33
-28 52 17 21 70 21 78 1z"/>
<path d="M5607 8635 c-15 -8 -27 -10 -27 -4 0 5 -4 9 -10 9 -6 0 -10 -32 -10
-75 0 -43 4 -75 10 -75 6 0 10 23 10 50 0 50 17 80 51 92 8 3 12 8 9 11 -3 4
-18 0 -33 -8z"/>
<path d="M6046 8629 c-36 -28 -37 -89 -1 -124 13 -14 31 -25 39 -25 25 0 66
19 66 30 0 7 -6 8 -19 0 -29 -15 -56 -12 -74 8 -30 33 -21 42 43 42 57 0 60 1
60 24 0 27 -42 66 -70 66 -10 0 -29 -9 -44 -21z m84 -18 c15 -30 14 -31 -40
-31 -54 0 -59 4 -33 32 21 24 60 23 73 -1z"/>
<path d="M6564 8638 c-24 -11 -44 -48 -44 -79 0 -11 14 -34 30 -51 25 -24 36
-29 58 -23 15 3 34 13 42 22 13 14 13 15 -5 8 -45 -17 -63 -17 -84 4 -34 34
-26 41 44 41 59 0 65 2 65 20 0 26 -43 70 -67 69 -10 0 -28 -5 -39 -11z m71
-28 c24 -27 17 -32 -46 -28 l-54 3 23 23 c27 27 53 28 77 2z"/>
<path d="M6729 8621 c-17 -18 -29 -40 -29 -56 0 -30 49 -85 75 -85 21 0 55 18
55 29 0 5 -13 4 -30 -2 -26 -10 -32 -8 -55 13 -31 29 -32 59 -4 89 18 19 28
22 58 17 34 -6 35 -5 17 9 -29 22 -54 18 -87 -14z"/>
<path d="M7304 8636 c-17 -14 -15 -15 26 -13 40 2 45 -1 48 -20 3 -21 -1 -23
-37 -23 -29 0 -44 -6 -54 -21 -31 -44 10 -89 64 -70 16 6 36 8 44 5 12 -5 15
5 15 50 0 47 -4 61 -25 81 -27 28 -52 31 -81 11z m70 -72 c21 -8 20 -20 -4
-44 -25 -25 -56 -26 -70 -1 -18 35 28 63 74 45z"/>
<path d="M7501 8641 c-8 -5 -20 -7 -28 -4 -10 4 -13 -12 -13 -77 0 -51 4 -79
10 -75 6 3 10 33 10 66 0 54 2 60 26 71 42 20 59 1 62 -71 2 -35 8 -61 14 -61
7 0 9 23 6 66 -3 50 -9 70 -23 80 -22 16 -44 18 -64 5z"/>
<path d="M7656 8627 c-63 -63 7 -158 85 -117 30 17 25 -26 -6 -46 -20 -13 -31
-14 -56 -5 -39 13 -39 13 -39 2 0 -18 58 -30 90 -19 42 14 50 35 50 121 0 71
-1 75 -22 75 -13 0 -35 3 -50 7 -21 6 -32 2 -52 -18z m86 -14 c34 -31 11 -93
-35 -93 -27 0 -57 28 -57 53 0 48 56 73 92 40z"/>
<path d="M8203 8640 c-16 -6 -23 -18 -23 -35 0 -21 8 -29 45 -45 68 -29 52
-78 -16 -53 -17 7 -29 7 -29 2 0 -15 49 -30 76 -23 28 7 42 47 24 69 -6 8 -27
19 -46 25 -24 8 -34 17 -32 28 3 13 14 17 47 15 26 -1 40 2 35 7 -15 14 -58
20 -81 10z"/>
<path d="M8356 8628 c-14 -13 -28 -34 -31 -48 -7 -33 25 -85 58 -94 30 -7 77
8 77 25 0 7 -7 8 -17 4 -45 -19 -60 -17 -83 12 l-22 28 66 3 c58 3 66 5 66 23
0 26 -43 69 -69 69 -11 0 -31 -10 -45 -22z m78 -14 c26 -26 18 -34 -34 -34
-27 0 -50 4 -50 9 0 16 31 41 50 41 10 0 26 -7 34 -16z"/>
<path d="M9135 8641 c-11 -5 -26 -6 -32 -4 -10 4 -13 -14 -13 -71 0 -44 4 -76
10 -76 6 0 10 24 10 54 0 55 16 86 44 86 24 0 35 -25 38 -83 4 -77 22 -78 26
0 3 68 21 95 50 76 12 -7 19 -29 22 -72 6 -75 24 -81 28 -8 5 83 -44 132 -89
91 -16 -15 -20 -15 -41 0 -25 18 -25 18 -53 7z"/>
<path d="M9480 8643 c-33 -12 -50 -37 -50 -72 0 -69 56 -109 107 -76 32 22 25
28 -15 13 -27 -10 -34 -9 -51 7 -13 11 -21 31 -21 50 0 46 32 73 70 58 18 -7
32 -7 36 -2 3 5 -7 14 -21 19 -29 11 -33 11 -55 3z"/>
<path d="M9635 8638 c-55 -30 -62 -92 -14 -132 17 -14 34 -26 39 -26 19 0 60
20 60 30 0 6 -9 6 -26 0 -35 -14 -41 -13 -64 10 -33 33 -24 40 46 40 56 0 65
2 60 16 -3 9 -6 20 -6 25 0 16 -39 49 -57 49 -10 0 -27 -6 -38 -12z m73 -35
c14 -23 14 -23 -42 -23 -61 0 -65 4 -39 32 22 24 61 20 81 -9z"/>
<path d="M9953 8640 c-52 -21 -59 -95 -12 -134 17 -14 34 -26 39 -26 20 0 60
20 60 30 0 7 -6 8 -19 0 -29 -15 -49 -12 -71 10 -33 33 -24 40 45 40 39 0 65
4 65 10 0 25 -31 68 -52 74 -28 7 -27 7 -55 -4z m75 -37 c14 -23 14 -23 -42
-23 -61 0 -65 4 -39 32 22 24 61 20 81 -9z"/>
<path d="M10118 8639 c-10 -5 -18 -21 -18 -35 0 -20 9 -29 45 -44 48 -21 54
-30 30 -50 -14 -12 -29 -11 -67 5 -10 4 -18 3 -18 -3 0 -6 16 -16 35 -22 30
-10 40 -9 60 4 44 29 28 69 -32 85 -18 5 -28 14 -28 27 0 16 6 19 38 17 41 -3
50 11 15 21 -31 8 -40 7 -60 -5z"/>
<path d="M4542 8579 c4 -50 9 -66 28 -81 16 -13 31 -17 44 -13 12 4 31 7 44 7
21 0 22 4 22 74 0 43 -4 74 -10 74 -5 0 -10 -24 -10 -53 0 -40 -5 -58 -18 -70
-43 -39 -72 -13 -72 65 0 47 -3 58 -16 58 -14 0 -16 -10 -12 -61z"/>
<path d="M5790 8565 c0 -43 4 -75 10 -75 6 0 10 32 10 75 0 43 -4 75 -10 75
-6 0 -10 -32 -10 -75z"/>
<path d="M6870 8565 c0 -43 4 -75 10 -75 6 0 10 32 10 75 0 43 -4 75 -10 75
-6 0 -10 -32 -10 -75z"/>
<path d="M7092 8629 c3 -8 18 -42 33 -76 29 -66 28 -92 -5 -100 -25 -7 -26
-23 -2 -23 28 0 47 27 82 115 18 44 35 84 38 89 2 5 -1 7 -9 4 -7 -2 -23 -29
-35 -59 -12 -30 -26 -52 -30 -50 -5 2 -18 26 -29 54 -12 28 -27 53 -34 55 -9
3 -12 0 -9 -9z"/>
<path d="M8110 8565 c0 -43 4 -75 10 -75 6 0 10 32 10 75 0 43 -4 75 -10 75
-6 0 -10 -32 -10 -75z"/>
<path d="M8710 8582 c0 -68 15 -94 53 -93 85 3 77 -5 77 77 0 43 -4 74 -10 74
-6 0 -10 -27 -10 -60 0 -55 -2 -61 -26 -72 -42 -20 -59 -1 -62 71 -4 78 -22
80 -22 3z"/>
<path d="M9360 8565 c0 -43 4 -75 10 -75 6 0 10 32 10 75 0 43 -4 75 -10 75
-6 0 -10 -32 -10 -75z"/>
<path d="M10254 8480 c1 -33 10 -39 20 -14 10 26 7 44 -8 44 -8 0 -13 -11 -12
-30z"/>
<path d="M9908 8334 c-5 -4 -8 -23 -8 -43 0 -27 -3 -32 -12 -23 -19 19 -73 14
-93 -8 -11 -12 -18 -35 -18 -60 0 -51 25 -80 69 -80 18 0 36 5 39 10 5 8 11 8
20 0 7 -6 15 -7 17 -3 6 16 -7 215 -14 207z m-20 -86 c16 -16 15 -83 0 -95
-26 -20 -48 -21 -69 -4 -25 20 -30 71 -9 95 15 19 61 21 78 4z"/>
<path d="M4150 8225 c0 -63 4 -105 10 -105 6 0 10 7 10 17 0 15 1 15 18 0 47
-42 112 -5 112 63 0 27 -7 47 -20 60 -21 21 -74 27 -85 10 -13 -21 -25 -9 -25
25 0 19 -4 35 -10 35 -6 0 -10 -42 -10 -105z m110 25 c11 -11 20 -33 20 -50 0
-29 -29 -70 -50 -70 -6 0 -22 11 -36 26 -30 29 -27 67 8 97 26 22 34 21 58 -3z"/>
<path d="M4532 8227 c-1 -70 2 -106 8 -102 6 3 10 14 10 24 0 10 6 24 14 30
11 9 20 4 44 -26 17 -21 33 -35 37 -31 4 4 -6 24 -23 46 l-31 38 32 32 c17 17
28 35 24 39 -4 4 -27 -12 -50 -35 -24 -23 -46 -42 -49 -42 -4 0 -9 30 -11 68
-2 49 -4 38 -5 -41z"/>
<path d="M4990 8320 c0 -5 5 -10 10 -10 6 0 10 5 10 10 0 6 -4 10 -10 10 -5 0
-10 -4 -10 -10z"/>
<path d="M6260 8320 c0 -5 5 -10 10 -10 6 0 10 5 10 10 0 6 -4 10 -10 10 -5 0
-10 -4 -10 -10z"/>
<path d="M8280 8225 c0 -63 4 -105 10 -105 6 0 10 11 10 24 0 13 6 29 14 35
11 9 20 4 44 -26 37 -47 54 -37 18 10 -32 42 -32 44 1 79 43 45 19 43 -31 -2
l-46 -43 0 67 c0 37 -4 66 -10 66 -6 0 -10 -42 -10 -105z"/>
<path d="M9455 8320 c3 -5 10 -10 16 -10 5 0 9 5 9 10 0 6 -7 10 -16 10 -8 0
-12 -4 -9 -10z"/>
<path d="M9530 8225 c0 -63 4 -105 10 -105 6 0 10 10 10 23 0 13 6 29 12 35
10 10 19 5 44 -25 42 -49 56 -36 16 15 l-31 38 32 32 c17 17 28 35 24 39 -4 4
-28 -13 -52 -37 l-45 -44 0 67 c0 38 -4 67 -10 67 -6 0 -10 -42 -10 -105z"/>
<path d="M6160 8301 c0 -11 -6 -22 -12 -25 -10 -5 -10 -7 0 -12 7 -4 12 -27
12 -63 0 -31 5 -62 12 -69 15 -15 48 -16 48 -2 0 6 -9 10 -20 10 -18 0 -20 7
-20 60 0 53 2 60 20 60 11 0 20 5 20 10 0 6 -9 10 -20 10 -13 0 -20 7 -20 20
0 11 -4 20 -10 20 -5 0 -10 -9 -10 -19z"/>
<path d="M7433 8303 c-4 -10 -11 -22 -17 -26 -8 -6 -7 -10 2 -14 7 -3 12 -24
12 -54 0 -28 5 -59 10 -70 11 -20 60 -27 60 -9 0 6 -8 10 -17 8 -15 -3 -18 6
-21 59 -3 57 -1 62 20 65 22 4 22 5 -6 16 -18 8 -26 17 -22 27 3 8 1 15 -5 15
-5 0 -13 -8 -16 -17z"/>
<path d="M8000 8304 c0 -9 -8 -23 -17 -30 -17 -12 -17 -13 -1 -14 14 0 18 -12
20 -67 3 -66 4 -68 31 -71 15 -2 27 1 27 7 0 6 -9 11 -20 11 -18 0 -20 7 -20
60 0 53 2 60 20 60 11 0 20 5 20 10 0 6 -9 10 -20 10 -13 0 -20 7 -20 20 0 11
-4 20 -10 20 -5 0 -10 -7 -10 -16z"/>
<path d="M3330 8267 c0 -8 11 -40 26 -72 30 -68 28 -95 -6 -112 l-25 -13 26 0
c34 0 40 8 83 113 40 96 40 97 27 97 -5 0 -19 -26 -31 -57 -13 -32 -26 -62
-30 -66 -4 -5 -17 19 -30 53 -22 60 -40 85 -40 57z"/>
<path d="M3532 8273 c-23 -9 -2 -22 22 -13 26 10 66 -11 66 -35 0 -9 -10 -12
-38 -8 -44 6 -72 -14 -72 -51 0 -42 45 -60 91 -36 13 7 19 7 19 0 0 -5 5 -10
10 -10 16 0 12 113 -6 138 -15 21 -58 29 -92 15z m85 -88 c11 -34 -60 -64 -80
-34 -19 29 -1 51 40 47 20 -2 38 -8 40 -13z"/>
<path d="M3690 8201 c0 -47 4 -81 10 -81 6 0 10 26 10 59 0 51 3 62 22 75 28
20 33 20 52 0 11 -10 16 -34 16 -75 0 -33 4 -59 10 -59 17 0 12 126 -6 144
-17 18 -69 21 -79 6 -5 -8 -11 -7 -21 1 -12 10 -14 -1 -14 -70z"/>
<path d="M3881 8254 c-25 -32 -26 -46 -6 -83 18 -35 50 -45 87 -26 27 13 28
12 28 -10 0 -34 -24 -48 -70 -42 -40 5 -55 -5 -24 -17 31 -12 74 -6 94 14 17
17 20 33 20 106 0 73 -2 85 -14 75 -10 -8 -16 -9 -21 -1 -3 5 -21 10 -40 10
-24 0 -39 -7 -54 -26z m87 0 c28 -19 29 -65 2 -89 -28 -25 -71 -10 -85 29 -8
25 -6 31 18 52 33 28 36 29 65 8z"/>
<path d="M4362 8257 c-46 -49 -14 -137 50 -137 33 0 58 9 58 22 0 8 -18 5 -57
-9 -13 -5 -53 31 -53 47 0 6 26 10 59 10 33 0 62 4 65 8 3 5 -3 24 -12 43 -22
45 -76 53 -110 16z m76 -3 c39 -27 28 -44 -28 -44 -54 0 -61 9 -30 40 24 24
29 24 58 4z"/>
<path d="M4717 8268 c-21 -17 -38 -63 -30 -85 18 -53 81 -80 123 -53 23 14 6
22 -25 10 -22 -8 -33 -7 -51 5 -44 28 -31 45 36 45 57 0 60 1 60 25 0 52 -71
84 -113 53z m71 -14 c39 -27 28 -44 -28 -44 -37 0 -50 4 -50 14 0 13 36 46 50
46 3 0 16 -7 28 -16z"/>
<path d="M4877 8273 c-11 -10 -8 -141 3 -148 6 -4 10 10 10 34 0 55 14 87 47
105 24 13 25 15 8 16 -12 0 -27 -6 -33 -12 -10 -10 -14 -10 -21 0 -4 7 -10 9
-14 5z"/>
<path d="M4990 8185 c0 -90 -1 -96 -22 -105 -21 -9 -20 -9 7 -7 l30 2 3 103
c2 65 -1 102 -8 102 -6 0 -10 -36 -10 -95z"/>
<path d="M5074 8268 c-5 -8 2 -9 25 -5 24 5 36 2 51 -13 29 -29 25 -39 -14
-33 -46 7 -76 -11 -76 -45 0 -16 5 -33 12 -40 15 -15 64 -16 73 -2 5 8 11 8
19 1 7 -6 15 -8 18 -6 9 9 -3 129 -14 143 -13 15 -84 16 -94 0z m93 -83 c11
-33 -56 -65 -81 -40 -27 27 -3 57 41 53 20 -2 38 -8 40 -13z"/>
<path d="M5328 8255 c-14 -31 0 -49 48 -65 22 -8 34 -18 34 -30 0 -24 -33 -34
-60 -20 -25 13 -42 4 -20 -10 21 -14 74 -12 88 2 7 7 12 23 12 35 0 19 -10 28
-45 43 -25 11 -45 23 -45 28 0 19 25 30 59 25 27 -3 32 -2 21 6 -8 6 -30 11
-48 11 -25 0 -35 -6 -44 -25z"/>
<path d="M5491 8254 c-27 -34 -27 -74 0 -108 21 -27 69 -35 99 -16 21 13 5 23
-18 11 -19 -10 -72 0 -72 13 0 2 -3 11 -6 20 -5 14 3 16 54 16 34 0 63 4 66 8
3 5 -3 24 -12 43 -14 28 -23 35 -53 37 -30 3 -41 -2 -58 -24z m77 0 c39 -27
28 -44 -28 -44 -54 0 -61 9 -30 40 24 24 29 24 58 4z"/>
<path d="M5660 8175 c0 -63 4 -105 10 -105 6 0 10 16 10 35 0 32 2 35 19 25
34 -18 68 -12 90 16 55 70 -14 164 -90 124 -13 -7 -19 -7 -19 0 0 5 -4 10 -10
10 -6 0 -10 -42 -10 -105z m105 70 c14 -13 25 -33 25 -45 0 -21 -41 -70 -58
-70 -20 0 -52 43 -52 70 0 29 30 70 50 70 6 0 22 -11 35 -25z"/>
<path d="M5865 8255 c-29 -28 -31 -54 -10 -94 22 -43 73 -55 111 -25 18 14 18
15 -6 8 -14 -4 -30 -9 -37 -11 -7 -3 -25 8 -40 24 l-28 28 68 3 c76 3 85 16
46 66 -27 34 -71 35 -104 1z m85 -5 c32 -32 24 -40 -35 -40 -52 0 -55 1 -45
20 10 18 37 39 53 40 4 0 16 -9 27 -20z"/>
<path d="M6035 8269 c-9 -25 -1 -145 10 -139 5 3 8 19 6 35 -3 45 15 84 46 97
23 9 25 12 10 15 -10 3 -25 -1 -33 -8 -13 -10 -17 -10 -24 1 -8 12 -10 12 -15
-1z"/>
<path d="M6260 8200 c0 -47 4 -80 10 -80 6 0 10 33 10 80 0 47 -4 80 -10 80
-6 0 -10 -33 -10 -80z"/>
<path d="M6420 8198 c0 -46 4 -78 10 -78 6 0 10 28 10 63 0 52 3 64 20 75 15
9 26 10 40 2 17 -9 20 -21 20 -75 0 -37 4 -65 10 -65 6 0 10 26 10 59 0 50 4
62 22 75 15 11 26 12 40 5 15 -8 18 -22 18 -74 0 -37 4 -65 10 -65 13 0 13
116 0 141 -13 23 -62 26 -81 3 -11 -14 -13 -14 -21 1 -7 11 -22 15 -59 13
l-49 -3 0 -77z"/>
<path d="M6710 8269 c-12 -8 -8 -9 15 -6 37 6 65 -8 65 -33 0 -16 -5 -19 -29
-14 -57 12 -100 -39 -65 -77 18 -20 69 -26 79 -9 5 8 11 7 21 -1 11 -9 15 -8
20 5 10 25 -1 113 -16 131 -14 17 -68 20 -90 4z m83 -76 c9 -15 -12 -50 -32
-56 -12 -3 -30 2 -43 13 -19 15 -20 20 -9 34 14 16 76 23 84 9z"/>
<path d="M6888 8269 c-22 -13 -33 -71 -18 -98 17 -33 56 -44 91 -27 26 13 29
13 29 -3 0 -39 -24 -54 -76 -48 -43 4 -47 4 -29 -9 28 -20 78 -17 103 6 19 18
22 31 22 105 0 50 -4 85 -10 85 -5 0 -10 -5 -10 -10 0 -7 -6 -7 -19 0 -25 13
-61 12 -83 -1z m93 -31 c15 -28 3 -67 -26 -80 -50 -23 -97 40 -62 84 25 32 70
29 88 -4z"/>
<path d="M7060 8200 c0 -47 4 -80 10 -80 6 0 10 26 10 59 0 66 13 84 57 79 27
-3 28 -5 31 -70 4 -90 22 -88 22 2 0 66 -2 71 -26 82 -19 9 -33 9 -55 1 -16
-6 -29 -7 -29 -2 0 5 -4 9 -10 9 -6 0 -10 -33 -10 -80z"/>
<path d="M7255 8255 c-68 -67 27 -179 101 -119 19 15 19 15 -1 11 -11 -3 -28
-8 -37 -12 -12 -5 -26 2 -45 22 l-28 28 68 3 c76 3 85 16 46 66 -27 34 -71 35
-104 1z m85 -5 c32 -32 24 -40 -35 -40 -61 0 -68 9 -29 39 33 26 39 26 64 1z"/>
<path d="M7628 8274 c-14 -14 -8 -109 8 -132 16 -24 53 -29 85 -12 13 8 19 7
19 0 0 -6 5 -8 10 -5 12 8 13 142 1 149 -10 7 -21 -41 -21 -91 0 -26 -5 -36
-22 -42 -41 -16 -62 8 -68 79 -3 34 -8 58 -12 54z"/>
<path d="M7807 8274 c-11 -11 -8 -154 3 -154 6 0 10 24 10 53 0 58 5 69 37 86
19 10 26 8 43 -9 15 -15 20 -33 20 -75 0 -30 5 -55 10 -55 14 0 12 100 -3 130
-14 27 -59 39 -81 21 -8 -7 -16 -7 -22 -1 -6 6 -13 7 -17 4z"/>
<path d="M8100 8216 c0 -87 32 -117 91 -86 13 7 19 7 19 0 0 -5 5 -10 10 -10
6 0 10 33 10 80 0 47 -4 80 -10 80 -6 0 -10 -27 -10 -60 0 -52 -3 -62 -24 -75
-19 -13 -29 -14 -45 -5 -18 9 -21 20 -21 70 0 32 -4 62 -10 65 -6 4 -10 -18
-10 -59z"/>
<path d="M8530 8200 c0 -47 4 -80 10 -80 6 0 10 26 10 59 0 50 4 62 22 75 15
11 26 12 40 5 15 -8 18 -22 18 -74 0 -37 4 -65 10 -65 6 0 10 26 10 59 0 50 4
62 22 75 15 11 26 12 40 5 15 -8 18 -22 18 -74 0 -37 4 -65 10 -65 14 0 13
133 -2 148 -7 7 -24 12 -38 12 -14 0 -31 -5 -38 -12 -9 -9 -15 -9 -24 0 -7 7
-24 12 -38 12 -14 0 -31 -5 -38 -12 -9 -9 -12 -9 -12 0 0 7 -4 12 -10 12 -6 0
-10 -33 -10 -80z"/>
<path d="M8822 8257 c-46 -49 -14 -137 50 -137 33 0 58 9 58 22 0 8 -18 5 -57
-9 -13 -5 -53 31 -53 47 0 6 27 10 60 10 57 0 60 1 60 25 0 59 -77 86 -118 42z
m76 -3 c39 -27 28 -44 -28 -44 -37 0 -50 4 -50 14 0 13 36 46 50 46 3 0 16 -7
28 -16z"/>
<path d="M8985 8257 c-10 -38 -1 -130 13 -135 9 -3 12 14 12 61 0 58 2 65 24
75 18 8 28 7 45 -4 17 -13 21 -25 21 -75 0 -33 4 -59 10 -59 6 0 10 28 10 63
0 49 -4 68 -18 80 -22 20 -63 22 -80 5 -9 -9 -12 -9 -12 0 0 21 -19 13 -25
-11z"/>
<path d="M9187 8273 c-15 -15 -5 -22 19 -13 31 12 64 -3 64 -30 0 -16 -5 -18
-33 -13 -23 3 -39 -1 -57 -15 -21 -17 -23 -24 -15 -48 12 -32 49 -43 85 -24
13 7 20 7 20 0 0 -5 5 -10 10 -10 17 0 12 126 -6 144 -15 16 -75 22 -87 9z
m83 -93 c0 -29 -43 -54 -69 -40 -41 21 -18 60 36 60 26 0 33 -4 33 -20z"/>
<path d="M9340 8200 c0 -47 4 -80 10 -80 6 0 10 21 10 46 0 55 12 79 48 98 23
13 24 15 7 16 -12 0 -27 -6 -34 -12 -11 -10 -14 -10 -18 0 -13 34 -23 4 -23
-68z"/>
<path d="M9460 8201 c0 -47 4 -81 10 -81 6 0 10 31 10 74 0 41 -4 78 -10 81
-6 4 -10 -23 -10 -74z"/>
<path d="M9997 8273 c-15 -15 -5 -22 19 -13 31 12 64 -3 64 -30 0 -16 -5 -18
-33 -13 -23 3 -39 -1 -57 -15 -21 -17 -23 -24 -15 -48 8 -23 17 -30 43 -32 18
-2 40 2 48 9 10 8 14 8 14 0 0 -6 5 -11 10 -11 6 0 10 28 10 63 0 49 -4 68
-18 80 -18 17 -73 23 -85 10z m81 -95 c-4 -29 -45 -50 -70 -37 -38 21 -13 59
40 59 29 0 33 -3 30 -22z"/>
<path d="M10150 8200 c0 -47 4 -80 10 -80 6 0 10 26 10 59 0 66 13 84 57 79
27 -3 28 -5 31 -70 4 -86 22 -89 22 -4 0 45 -5 69 -16 80 -18 19 -65 21 -82 4
-9 -9 -12 -9 -12 0 0 7 -4 12 -10 12 -6 0 -10 -33 -10 -80z"/>
<path d="M4820 7865 c0 -63 4 -105 10 -105 6 0 10 11 10 24 0 39 29 41 61 4
36 -44 48 -29 13 17 l-27 36 33 34 c49 51 15 44 -37 -7 l-43 -42 0 72 c0 41
-4 72 -10 72 -6 0 -10 -42 -10 -105z"/>
<path d="M5368 7964 c-12 -11 -10 -204 2 -204 6 0 10 8 10 19 0 10 7 24 15 31
13 11 21 7 51 -25 45 -50 56 -38 13 14 l-33 41 34 35 c47 48 20 44 -31 -5 -23
-22 -44 -40 -45 -40 -2 0 -4 32 -6 71 -2 39 -6 67 -10 63z"/>
<path d="M6940 7954 c0 -8 5 -12 10 -9 6 3 10 10 10 16 0 5 -4 9 -10 9 -5 0
-10 -7 -10 -16z"/>
<path d="M7545 7957 c-10 -24 -1 -202 10 -202 6 0 11 12 13 27 6 47 26 53 53
13 13 -19 30 -35 37 -35 9 0 2 16 -17 42 l-31 42 32 33 c47 48 21 40 -29 -9
l-43 -42 0 66 c0 63 -13 97 -25 65z"/>
<path d="M8008 7964 c-5 -4 -8 -22 -8 -40 l0 -33 -29 17 c-29 16 -31 16 -58
-4 -40 -30 -51 -66 -31 -108 20 -41 59 -54 93 -32 18 12 25 12 28 3 11 -32 17
10 15 103 -2 56 -6 98 -10 94z m-30 -80 c44 -30 19 -114 -34 -114 -48 0 -71
73 -34 110 24 24 38 25 68 4z"/>
<path d="M8966 7918 c-3 -29 -4 -62 -2 -73 3 -11 5 -36 6 -55 l1 -35 14 33
c12 28 45 46 45 24 0 -12 52 -64 58 -58 3 3 -9 24 -27 47 l-33 41 33 34 c18
19 28 34 23 34 -5 0 -28 -18 -49 -40 -21 -22 -42 -40 -46 -40 -4 0 -7 30 -8
66 0 83 -7 92 -15 22z"/>
<path d="M9900 7930 l0 -41 -30 16 c-39 20 -47 19 -75 -10 -17 -16 -25 -35
-25 -60 0 -25 8 -44 25 -60 28 -29 51 -31 83 -9 20 14 22 14 22 -1 0 -9 5 -13
10 -10 6 3 10 52 10 111 0 63 -4 104 -10 104 -5 0 -10 -18 -10 -40z m-20 -50
c54 -54 -15 -145 -72 -93 -36 32 -12 113 34 113 10 0 27 -9 38 -20z"/>
<path d="M10260 7960 c0 -5 5 -10 10 -10 6 0 10 5 10 10 0 6 -4 10 -10 10 -5
0 -10 -4 -10 -10z"/>
<path d="M5181 7948 c0 -9 -9 -24 -18 -34 -13 -13 -14 -19 -5 -22 6 -2 12 -18
12 -37 0 -80 26 -121 62 -99 9 6 5 10 -12 14 -23 5 -25 11 -28 63 -3 52 -1 57
18 57 25 0 26 16 1 23 -11 2 -21 15 -24 28 -2 13 -5 16 -6 7z"/>
<path d="M5737 7954 c-4 -4 -7 -15 -7 -25 0 -9 -6 -20 -12 -23 -10 -5 -10 -7
0 -12 7 -3 12 -26 12 -59 0 -35 5 -59 16 -69 18 -18 40 -21 49 -6 3 6 -3 10
-13 10 -21 0 -32 25 -32 78 0 26 5 35 28 44 l27 11 -25 6 c-14 4 -27 16 -30
30 -3 12 -8 19 -13 15z"/>
<path d="M3491 7911 c-7 -5 -21 -6 -31 -4 -16 4 -17 -3 -16 -71 1 -89 20 -103
24 -18 2 39 8 61 19 70 39 29 63 -2 63 -79 0 -38 4 -58 10 -54 6 3 10 33 10
65 0 48 4 61 19 70 25 13 27 13 45 -6 11 -10 16 -34 16 -70 0 -30 5 -54 10
-54 6 0 10 27 10 60 0 47 -4 64 -20 80 -24 24 -38 25 -68 4 -20 -14 -24 -14
-44 0 -26 18 -28 19 -47 7z"/>
<path d="M3754 7908 c-12 -5 -27 -20 -34 -33 -14 -27 -6 -87 14 -104 24 -20
70 -23 91 -6 19 15 18 15 -18 9 -29 -5 -43 -2 -57 11 -37 34 -25 45 45 45 76
0 83 13 36 61 -31 31 -44 34 -77 17z m67 -29 c29 -29 12 -42 -45 -34 -51 8
-56 17 -24 39 30 21 44 20 69 -5z"/>
<path d="M3950 7910 c-8 -5 -23 -7 -32 -4 -16 5 -18 -3 -18 -70 0 -44 4 -76
10 -76 6 0 10 27 10 60 0 48 4 61 19 70 46 24 71 -3 71 -76 0 -30 5 -54 10
-54 11 0 13 81 4 116 -3 12 -17 27 -30 33 -30 13 -25 13 -44 1z"/>
<path d="M4113 7910 c-45 -18 -55 -72 -22 -114 22 -28 56 -34 90 -16 16 9 19
7 19 -8 0 -35 -34 -55 -82 -47 -31 4 -39 3 -28 -4 22 -16 82 -13 108 5 20 14
22 24 22 100 0 49 -4 84 -10 84 -5 0 -10 -5 -10 -11 0 -5 -10 -3 -22 5 -25 18
-33 19 -65 6z m65 -26 c42 -29 17 -104 -35 -104 -22 0 -53 38 -53 64 0 24 32
56 55 56 6 0 21 -7 33 -16z"/>
<path d="M4303 7910 c-31 -13 -29 -24 3 -16 35 9 61 -1 67 -24 4 -18 0 -20
-37 -20 -49 0 -66 -13 -66 -52 0 -37 38 -57 75 -40 14 6 32 9 40 6 25 -10 21
96 -6 130 -21 27 -39 31 -76 16z m71 -91 c14 -13 -23 -49 -50 -49 -13 0 -28 9
-34 19 -20 38 50 62 84 30z"/>
<path d="M4500 7910 c-8 -5 -23 -7 -32 -4 -16 5 -18 -3 -18 -70 0 -44 4 -76
10 -76 6 0 10 27 10 60 0 55 2 61 26 72 42 20 59 1 62 -71 4 -79 22 -80 22 -1
0 47 -4 64 -20 80 -22 22 -37 25 -60 10z"/>
<path d="M4660 7907 c-14 -7 -28 -26 -34 -45 -17 -61 48 -112 104 -82 17 9 20
8 20 -9 0 -35 -29 -54 -72 -47 -26 4 -37 3 -33 -4 3 -5 25 -10 49 -10 64 0 76
19 76 118 0 48 -4 82 -10 82 -5 0 -10 -5 -10 -11 0 -5 -10 -3 -22 5 -27 19
-36 19 -68 3z m72 -24 c36 -33 10 -103 -39 -103 -20 0 -53 38 -53 60 0 24 34
60 57 60 9 0 25 -7 35 -17z"/>
<path d="M5014 7905 c-18 -15 -17 -16 14 -10 35 7 62 -7 62 -31 0 -10 -13 -14
-39 -14 -66 0 -96 -53 -47 -85 16 -11 33 -14 52 -8 16 4 35 6 42 5 8 -2 12 15
12 58 0 47 -4 64 -20 80 -24 24 -49 25 -76 5z m67 -75 c21 0 8 -41 -17 -52
-29 -13 -57 -2 -62 26 -4 17 34 38 56 30 8 -2 18 -4 23 -4z"/>
<path d="M5575 7910 c-52 -20 -69 -84 -33 -123 37 -42 72 -45 108 -9 39 39 39
74 1 113 -31 30 -42 33 -76 19z m62 -32 c28 -26 30 -61 3 -88 -26 -26 -54 -25
-80 2 -25 28 -25 48 1 82 25 32 45 33 76 4z"/>
<path d="M5875 7908 c-48 -26 -60 -87 -26 -129 42 -52 131 -17 131 51 0 42 -9
59 -41 75 -33 18 -38 18 -64 3z m63 -24 c43 -30 19 -114 -33 -114 -52 0 -77
78 -35 112 27 22 39 22 68 2z"/>
<path d="M6076 7905 c-33 -18 -39 -19 -31 -5 3 6 1 10 -4 10 -7 0 -11 -29 -11
-75 0 -43 4 -75 10 -75 6 0 10 25 10 55 0 52 2 57 30 73 16 9 30 20 30 25 0 9
0 9 -34 -8z"/>
<path d="M6178 7913 c-31 -8 -20 -25 11 -18 20 4 34 1 45 -10 25 -25 19 -35
-20 -35 -19 0 -44 -5 -55 -10 -50 -27 4 -105 56 -82 14 6 32 9 40 6 12 -5 15
5 15 55 0 84 -27 111 -92 94z m70 -88 c2 -2 1 -13 -3 -24 -7 -22 -45 -37 -70
-27 -20 7 -19 43 3 55 15 9 60 7 70 -4z"/>
<path d="M6370 7910 c-8 -5 -23 -7 -32 -4 -16 5 -18 -3 -18 -70 0 -44 4 -76
10 -76 6 0 10 26 10 59 0 56 1 59 30 71 45 19 60 1 60 -71 0 -32 5 -61 10 -64
6 -4 10 18 10 59 0 53 -4 70 -20 86 -22 22 -37 25 -60 10z"/>
<path d="M6715 7911 c-11 -5 -26 -6 -32 -4 -10 4 -13 -14 -13 -71 0 -44 4 -76
10 -76 6 0 10 27 10 60 0 55 2 62 25 72 39 18 55 -3 55 -73 0 -33 4 -59 10
-59 6 0 10 24 10 54 0 36 5 60 16 70 37 38 64 10 64 -66 0 -32 4 -58 10 -58 6
0 10 27 10 60 0 47 -4 64 -20 80 -24 24 -38 25 -66 6 -17 -12 -22 -12 -39 0
-21 16 -22 16 -50 5z"/>
<path d="M7060 7910 c-8 -5 -23 -7 -32 -4 -16 5 -18 -3 -18 -70 0 -44 4 -76
10 -76 6 0 10 27 10 60 0 55 2 61 26 72 42 20 59 1 62 -71 4 -79 22 -80 22 -1
0 47 -4 64 -20 80 -22 22 -37 25 -60 10z"/>
<path d="M7394 7905 c-18 -13 -16 -14 19 -12 31 2 42 -3 54 -20 15 -23 15 -23
-31 -23 -37 0 -48 -4 -61 -24 -13 -19 -14 -29 -5 -45 13 -25 51 -36 78 -22 13
7 22 7 30 -1 9 -9 12 5 12 59 0 63 -3 74 -22 87 -28 20 -49 20 -74 1z m67 -75
c13 0 11 -34 -3 -48 -16 -16 -53 -15 -67 2 -22 26 10 60 47 50 8 -2 18 -4 23
-4z"/>
<path d="M8103 7910 c-36 -15 -27 -22 16 -15 33 5 41 3 50 -14 16 -29 15 -31
-32 -31 -47 0 -67 -13 -67 -44 0 -35 16 -49 51 -48 84 3 79 0 79 54 0 90 -33
123 -97 98z m75 -86 c2 -1 1 -12 -3 -23 -7 -22 -45 -37 -70 -27 -21 7 -19 43
3 55 14 8 58 5 70 -5z"/>
<path d="M8300 7910 c-8 -5 -23 -7 -32 -4 -16 5 -18 -3 -18 -70 0 -44 4 -76
10 -76 6 0 10 27 10 60 0 54 3 62 24 71 17 8 29 8 45 0 18 -10 21 -21 21 -71
0 -33 4 -60 10 -60 6 0 10 27 10 60 0 47 -4 64 -20 80 -22 22 -37 25 -60 10z"/>
<path d="M8561 7911 c-8 -5 -20 -7 -28 -4 -10 4 -13 -11 -13 -71 0 -44 4 -76
10 -76 6 0 10 27 10 60 0 55 2 62 25 72 39 18 55 -3 55 -73 0 -33 4 -59 10
-59 6 0 10 27 10 60 0 49 3 61 20 70 14 8 26 8 40 0 17 -9 20 -21 20 -70 0
-33 4 -60 10 -60 6 0 10 27 10 60 0 47 -4 64 -20 80 -24 24 -39 25 -65 6 -17
-12 -22 -12 -39 0 -24 16 -35 17 -55 5z"/>
<path d="M8814 7905 c-18 -15 -17 -16 14 -10 35 7 62 -7 62 -31 0 -10 -13 -14
-40 -14 -31 0 -43 -5 -55 -24 -29 -43 15 -88 68 -70 12 4 30 7 41 5 17 -2 18
3 14 60 -4 49 -9 66 -27 80 -28 23 -51 24 -77 4z m67 -75 c13 0 11 -34 -3 -48
-16 -16 -53 -15 -67 2 -22 26 10 60 47 50 8 -2 18 -4 23 -4z"/>
<path d="M9154 7896 c-40 -33 -39 -89 1 -123 22 -19 35 -23 59 -19 17 4 35 11
41 17 7 7 -1 9 -26 4 -43 -8 -74 6 -82 35 -5 19 -1 20 59 20 58 0 64 2 64 20
0 27 -43 70 -69 70 -11 0 -32 -11 -47 -24z m77 -15 c32 -26 22 -33 -42 -29
l-54 3 23 23 c27 27 43 28 73 3z"/>
<path d="M9540 7903 c-17 -12 -25 -13 -28 -5 -2 7 -8 12 -13 12 -12 0 -12
-197 1 -205 6 -4 10 10 10 36 l0 41 25 -16 c34 -22 58 -20 83 7 33 35 30 99
-4 126 -32 25 -43 26 -74 4z m62 -20 c22 -20 23 -70 1 -95 -49 -54 -118 27
-72 86 24 30 45 33 71 9z"/>
<path d="M9998 7913 c-32 -8 -19 -22 18 -20 28 1 39 -3 51 -20 15 -23 15 -23
-31 -23 -37 0 -48 -4 -61 -24 -29 -44 14 -87 66 -68 13 5 30 7 37 5 9 -3 12
13 12 61 0 56 -3 67 -22 80 -22 16 -37 18 -70 9z m74 -92 c13 -12 -22 -51 -46
-51 -44 0 -59 53 -18 63 19 5 53 -2 64 -12z"/>
<path d="M10192 7904 c-13 -9 -22 -11 -22 -5 0 6 -7 11 -15 11 -13 0 -15 -13
-13 -75 3 -87 22 -101 26 -20 3 50 6 58 33 74 17 10 27 21 21 24 -5 4 -18 -1
-30 -9z"/>
<path d="M6940 7830 c0 -47 4 -80 10 -80 6 0 10 33 10 80 0 47 -4 80 -10 80
-6 0 -10 -33 -10 -80z"/>
<path d="M7180 7907 c0 -3 14 -37 30 -77 33 -75 32 -110 -1 -110 -10 0 -19 -4
-19 -10 0 -16 36 -11 53 8 8 9 30 53 47 97 18 44 34 83 37 88 2 4 -1 7 -7 7
-6 0 -20 -21 -31 -47 -10 -27 -23 -57 -27 -67 -7 -16 -13 -8 -34 44 -14 35
-31 66 -37 68 -6 2 -11 2 -11 -1z"/>
<path d="M9310 7850 c0 -73 24 -106 68 -95 15 3 35 6 45 6 15 0 17 10 17 75 0
43 -4 74 -10 74 -6 0 -10 -27 -10 -60 0 -55 -2 -61 -26 -72 -42 -20 -59 -1
-62 71 -4 79 -22 80 -22 1z"/>
<path d="M10260 7830 c0 -47 4 -80 10 -80 6 0 10 33 10 80 0 47 -4 80 -10 80
-6 0 -10 -33 -10 -80z"/>
<path d="M6504 7750 c1 -33 10 -39 20 -14 10 26 7 44 -8 44 -8 0 -13 -11 -12
-30z"/>
<path d="M7714 7750 c1 -33 10 -39 20 -14 10 26 7 44 -8 44 -8 0 -13 -11 -12
-30z"/>
<path d="M9459 7603 c-1 -5 0 -23 1 -40 2 -37 1 -37 -34 -22 -75 35 -135 -68
-78 -133 17 -20 77 -25 87 -8 5 8 11 7 21 -1 12 -10 14 5 14 100 0 61 -2 111
-5 111 -3 0 -5 -3 -6 -7z m-19 -92 c19 -36 12 -79 -15 -97 -23 -15 -27 -15
-50 0 -33 22 -42 59 -21 91 21 31 70 35 86 6z"/>
<path d="M6890 7495 c0 -63 4 -105 10 -105 6 0 10 11 10 24 0 13 6 29 14 35
12 10 20 5 43 -23 15 -20 34 -36 41 -36 8 0 2 15 -17 39 -17 21 -31 43 -31 48
0 5 13 22 30 38 16 16 27 31 25 34 -3 2 -28 -17 -55 -44 l-50 -49 0 72 c0 41
-4 72 -10 72 -6 0 -10 -42 -10 -105z"/>
<path d="M7230 7495 c0 -63 4 -105 10 -105 6 0 10 42 10 105 0 63 -4 105 -10
105 -6 0 -10 -42 -10 -105z"/>
<path d="M7300 7590 c0 -5 7 -10 15 -10 8 0 15 5 15 10 0 6 -7 10 -15 10 -8 0
-15 -4 -15 -10z"/>
<path d="M8990 7495 c0 -63 4 -105 10 -105 6 0 10 42 10 105 0 63 -4 105 -10
105 -6 0 -10 -42 -10 -105z"/>
<path d="M9520 7590 c0 -5 7 -10 15 -10 8 0 15 5 15 10 0 6 -7 10 -15 10 -8 0
-15 -4 -15 -10z"/>
<path d="M9590 7495 c0 -87 3 -105 15 -105 8 0 15 5 15 12 0 9 3 9 12 0 19
-19 73 -14 94 9 28 31 25 96 -5 120 -25 20 -66 25 -76 9 -13 -21 -25 -9 -25
25 0 24 -5 35 -15 35 -12 0 -15 -18 -15 -105z m126 10 c21 -32 12 -69 -21 -91
-23 -15 -27 -15 -50 0 -19 12 -25 25 -25 51 0 63 63 90 96 40z"/>
<path d="M9785 7590 c3 -5 10 -10 16 -10 5 0 9 5 9 10 0 6 -7 10 -16 10 -8 0
-12 -4 -9 -10z"/>
<path d="M9860 7495 c0 -63 4 -105 10 -105 6 0 10 42 10 105 0 63 -4 105 -10
105 -6 0 -10 -42 -10 -105z"/>
<path d="M7390 7570 c0 -10 -8 -24 -17 -29 -17 -10 -17 -10 -1 -11 14 0 18
-12 20 -67 3 -66 4 -68 31 -71 15 -2 27 1 27 7 0 6 -9 11 -20 11 -18 0 -20 7
-20 60 0 54 2 60 21 60 11 0 18 4 14 10 -3 5 -12 7 -20 3 -11 -4 -15 2 -15 21
0 14 -4 26 -10 26 -5 0 -10 -9 -10 -20z"/>
<path d="M7590 7570 c0 -10 -8 -24 -17 -29 -17 -10 -17 -10 -1 -11 14 0 18
-12 20 -67 3 -66 4 -68 31 -71 15 -2 27 1 27 7 0 6 -9 11 -20 11 -18 0 -20 7
-20 60 0 55 2 60 23 61 l22 0 -22 9 c-13 6 -23 18 -23 30 0 11 -4 20 -10 20
-5 0 -10 -9 -10 -20z"/>
<path d="M7060 7483 c0 -77 9 -93 55 -93 17 0 36 5 43 12 9 9 12 9 12 0 0 -7
5 -12 10 -12 13 0 13 147 0 155 -5 3 -10 -21 -12 -57 -3 -55 -6 -64 -27 -75
-43 -21 -61 -2 -61 67 0 32 -4 62 -10 65 -6 4 -10 -19 -10 -62z"/>
<path d="M7713 7543 c-27 -10 -11 -21 23 -16 25 4 39 2 45 -8 17 -27 9 -36
-30 -35 -44 1 -71 -17 -71 -48 0 -31 19 -46 55 -46 17 0 36 5 43 12 9 9 12 9
12 0 0 -7 5 -12 10 -12 6 0 10 28 10 63 0 49 -4 68 -18 80 -18 16 -54 21 -79
10z m77 -91 c0 -10 -5 -23 -12 -30 -17 -17 -67 -15 -74 3 -10 24 15 45 52 45
26 0 34 -4 34 -18z"/>
<path d="M7860 7470 c0 -47 4 -80 10 -80 6 0 10 26 10 59 0 66 13 84 57 79 27
-3 28 -5 31 -70 4 -86 22 -89 22 -5 0 49 -4 68 -18 80 -21 19 -45 21 -73 7
-13 -7 -19 -7 -19 0 0 5 -4 10 -10 10 -6 0 -10 -33 -10 -80z"/>
<path d="M8045 7539 c-10 -26 -1 -204 10 -202 6 1 12 19 15 40 3 24 8 33 13
26 5 -7 23 -13 42 -13 42 0 65 29 65 82 0 63 -49 95 -102 67 -16 -8 -22 -8
-29 2 -6 11 -9 10 -14 -2z m113 -21 c7 -7 12 -29 12 -50 0 -29 -6 -41 -25 -54
-23 -15 -27 -15 -50 0 -27 18 -34 61 -15 97 12 22 59 26 78 7z"/>
<path d="M8263 7543 c-25 -10 -12 -22 17 -17 32 7 60 -8 60 -32 0 -9 -13 -12
-39 -11 -45 1 -71 -16 -71 -47 0 -31 19 -46 55 -46 17 0 36 5 43 12 9 9 12 9
12 0 0 -7 5 -12 10 -12 6 0 10 28 10 63 0 49 -4 68 -18 80 -18 16 -54 21 -79
10z m75 -95 c-4 -29 -45 -50 -70 -37 -38 21 -13 59 40 59 29 0 33 -3 30 -22z"/>
<path d="M8507 7543 c-11 -11 -8 -203 3 -203 6 0 10 16 10 35 0 34 12 46 25
25 11 -17 64 -11 85 10 13 13 20 33 20 60 0 65 -48 98 -102 69 -15 -8 -22 -8
-27 0 -4 6 -10 8 -14 4z m113 -32 c19 -36 12 -79 -15 -97 -23 -15 -27 -15 -50
0 -33 22 -42 59 -21 91 21 31 70 35 86 6z"/>
<path d="M8711 7524 c-55 -70 11 -160 93 -128 9 3 16 10 16 16 0 8 -18 5 -57
-9 -13 -5 -53 31 -53 47 0 6 26 10 58 10 32 0 61 3 65 6 10 10 -14 64 -33 74
-33 18 -68 11 -89 -16z m97 -21 c14 -23 14 -23 -42 -23 -60 0 -62 1 -45 31 14
27 66 22 87 -8z"/>
<path d="M8880 7473 c0 -49 4 -83 10 -83 6 0 10 22 10 49 0 27 2 55 5 63 3 7
-1 22 -9 33 -14 18 -15 13 -16 -62z"/>
<path d="M8919 7533 c-12 -15 -12 -16 4 -10 10 4 23 7 28 7 5 0 9 5 9 10 0 16
-26 12 -41 -7z"/>
<path d="M9068 7544 c-14 -14 -9 -109 7 -131 13 -19 24 -22 71 -21 l55 2 -2
73 c-1 41 -5 76 -9 78 -4 3 -11 -25 -15 -61 -6 -56 -10 -67 -31 -76 -39 -18
-62 11 -66 84 -2 33 -6 56 -10 52z"/>
<path d="M9953 7543 c-27 -10 -11 -21 23 -16 36 6 54 -5 54 -36 0 -9 -7 -11
-24 -7 -55 14 -100 -30 -76 -74 12 -23 68 -28 88 -8 9 9 12 9 12 0 0 -7 5 -12
10 -12 6 0 10 28 10 63 0 49 -4 68 -18 80 -18 16 -54 21 -79 10z m77 -97 c0
-13 -7 -27 -16 -30 -28 -11 -65 -6 -70 9 -10 24 15 45 52 45 29 0 34 -3 34
-24z"/>
<path d="M10116 7537 c-28 -21 -15 -50 32 -72 24 -11 42 -26 42 -36 0 -20 -37
-31 -61 -18 -28 15 -47 10 -25 -6 24 -18 77 -20 94 -3 25 25 14 54 -30 74 -58
26 -58 50 0 47 37 -2 42 0 32 13 -15 18 -60 18 -84 1z"/>
<path d="M7310 7465 c0 -43 4 -75 10 -75 6 0 10 32 10 75 0 43 -4 75 -10 75
-6 0 -10 -32 -10 -75z"/>
<path d="M9525 7465 c0 -54 3 -75 12 -75 9 0 13 21 13 75 0 53 -4 75 -12 75
-9 0 -13 -22 -13 -75z"/>
<path d="M9790 7465 c0 -43 4 -75 10 -75 6 0 10 32 10 75 0 43 -4 75 -10 75
-6 0 -10 -32 -10 -75z"/>
<path d="M10256 7413 c-11 -11 -6 -23 9 -23 8 0 15 4 15 9 0 13 -16 22 -24 14z"/>
<path d="M8300 6107 c-14 -7 -37 -20 -52 -30 -27 -19 -84 -29 -151 -27 -31 0
-40 -3 -44 -20 -3 -11 -17 -23 -32 -26 -14 -4 -32 -12 -40 -18 -12 -9 -13 -7
-8 8 6 16 4 17 -15 12 -60 -19 -96 -26 -134 -26 -32 0 -53 -9 -100 -44 -32
-24 -79 -50 -104 -56 -46 -13 -90 -50 -90 -75 0 -8 -24 -33 -54 -55 -39 -29
-62 -57 -86 -104 -18 -35 -45 -77 -61 -92 -16 -15 -29 -33 -29 -41 0 -7 -9
-17 -20 -23 -11 -6 -17 -16 -14 -25 4 -9 -3 -18 -18 -24 -13 -5 -45 -36 -71
-69 -52 -66 -131 -217 -122 -232 3 -5 0 -19 -7 -30 -11 -17 -11 -22 1 -29 8
-5 10 -14 6 -22 -20 -31 -52 -187 -61 -294 -3 -46 -2 -56 6 -42 6 9 9 21 5 26
-9 15 13 61 30 61 8 0 15 -5 15 -11 0 -8 5 -8 15 1 8 7 15 20 15 30 0 46 167
405 204 439 14 14 26 30 26 36 0 33 194 167 350 242 97 46 209 73 374 89 39 4
95 16 125 26 45 17 81 20 235 22 120 1 201 -4 241 -12 195 -44 304 -77 350
-105 28 -17 65 -38 83 -48 49 -26 167 -126 212 -179 23 -27 47 -70 55 -97 8
-26 24 -66 35 -88 11 -21 20 -54 20 -73 0 -29 33 -100 132 -285 9 -18 17 -40
18 -50 0 -9 4 -25 9 -35 5 -9 14 -42 20 -72 5 -30 22 -98 37 -150 14 -52 27
-122 28 -155 1 -33 5 -66 9 -72 9 -14 11 -33 28 -236 6 -75 8 -163 5 -195 -4
-35 -3 -52 2 -44 10 15 22 -51 22 -127 1 -83 21 -19 22 70 1 62 5 83 18 92 28
21 50 60 50 92 0 33 54 123 93 156 12 10 38 21 57 24 19 4 44 10 55 15 43 19
66 21 81 9 22 -18 26 -7 17 47 -6 37 -14 52 -35 63 -63 36 -153 -52 -279 -271
l-54 -93 -3 70 c-4 80 5 158 18 150 13 -8 26 16 43 75 36 129 34 220 -6 220
l-22 1 23 18 c25 21 28 37 10 44 -8 3 -5 6 6 6 16 1 18 7 13 37 -4 25 -2 37 9
41 14 5 20 33 7 33 -5 0 -9 20 -10 45 -1 27 -12 64 -27 90 -14 25 -20 42 -14
39 7 -5 9 13 4 57 -4 35 -8 89 -9 120 -1 31 -8 63 -15 72 -7 8 -12 21 -10 29
1 7 -3 40 -11 73 -39 171 -53 220 -66 235 -8 9 -15 24 -15 33 0 8 -9 18 -19
22 -12 3 -18 12 -15 20 3 7 -5 30 -19 50 -28 41 -155 175 -166 175 -5 0 -16 9
-26 20 -10 11 -23 20 -30 20 -6 0 -29 16 -51 35 -21 19 -44 35 -51 35 -7 0
-10 6 -8 13 7 18 -84 107 -116 114 -15 3 -37 16 -49 28 -12 13 -28 21 -36 18
-8 -3 -21 1 -30 8 -9 7 -25 13 -36 14 -11 1 -24 8 -29 16 -8 14 -14 16 -55 18
-12 0 -24 9 -26 19 -3 11 -26 26 -54 37 -27 10 -66 29 -86 42 -21 12 -50 23
-66 23 -16 0 -55 9 -87 20 -55 19 -156 23 -181 7 -6 -3 -16 -2 -24 4 -20 12
-59 10 -90 -4z m1280 -697 c0 -5 -15 -9 -32 -9 l-33 1 30 8 c17 4 31 8 33 9 1
0 2 -3 2 -9z m147 -366 c-3 -3 -12 -4 -19 -1 -8 3 -5 6 6 6 11 1 17 -2 13 -5z"/>
<path d="M8876 4841 c-4 -6 -19 -9 -34 -6 -23 4 -24 4 -7 -4 11 -5 15 -10 9
-10 -6 -1 -22 -12 -35 -25 -15 -14 -34 -22 -49 -21 -45 4 -103 -32 -137 -85
-18 -27 -33 -52 -33 -55 0 -3 11 -10 25 -15 30 -11 100 2 161 32 25 11 50 17
65 13 13 -3 53 1 89 9 145 35 328 3 413 -72 29 -26 19 -2 -28 63 -51 72 -139
155 -164 155 -9 0 -23 6 -29 12 -17 17 -237 25 -246 9z"/>
<path d="M7413 4710 c-26 -9 -62 -24 -79 -33 -31 -16 -63 -47 -48 -47 4 0 -5
-13 -21 -30 -16 -16 -26 -30 -22 -30 4 0 0 -11 -9 -25 l-16 -25 44 20 c24 10
75 24 113 30 85 14 323 14 339 0 7 -5 36 -14 65 -21 39 -8 55 -8 66 1 8 7 21
10 30 7 25 -10 28 13 3 33 -13 11 -17 19 -10 20 24 0 1 20 -23 20 -13 0 -26 4
-30 9 -3 6 -13 9 -23 9 -9 -1 -28 2 -42 6 -19 6 -21 5 -10 -3 10 -7 11 -11 3
-11 -7 0 -26 14 -43 30 -18 17 -41 30 -56 30 -14 0 -35 6 -47 12 -33 19 -129
18 -184 -2z"/>
<path d="M8561 4688 c-41 -43 -39 -52 4 -27 20 12 35 29 35 40 0 26 -4 24 -39
-13z"/>
<path d="M6996 4683 c-9 -9 -7 -33 3 -33 12 0 22 28 12 34 -5 3 -11 3 -15 -1z"/>
<path d="M6996 4613 c-6 -14 -5 -15 5 -6 7 7 10 15 7 18 -3 3 -9 -2 -12 -12z"/>
<path d="M1078 4523 c6 -2 18 -2 25 0 6 3 1 5 -13 5 -14 0 -19 -2 -12 -5z"/>
<path d="M8795 4516 c-43 -14 -105 -44 -105 -51 0 -2 20 4 43 14 71 31 155 44
232 37 84 -8 145 -23 145 -36 0 -6 9 -10 19 -10 11 0 26 -6 33 -13 7 -8 20
-11 28 -9 11 4 10 -1 -4 -16 -18 -20 -20 -20 -50 -5 -17 9 -33 19 -36 22 -3 3
-18 7 -35 9 -16 1 -61 6 -100 10 -79 9 -173 -5 -246 -36 -37 -16 -53 -32 -82
-79 -19 -32 -38 -68 -41 -80 l-7 -23 53 19 c116 41 377 65 513 47 60 -8 61 -8
113 30 l52 39 -40 3 -41 3 21 26 c28 36 16 42 -18 10 -16 -15 -37 -27 -48 -27
-16 1 -14 5 14 30 34 32 41 46 17 36 -9 -3 -15 0 -15 10 0 11 -6 13 -20 9 -11
-4 -20 -2 -20 4 0 6 -7 11 -15 11 -8 0 -15 3 -15 8 0 18 -293 25 -345 8z m40
-116 c-3 -5 -16 -10 -28 -9 -21 0 -21 1 -2 9 28 12 37 12 30 0z m133 -31 c10
-16 9 -19 -11 -24 -48 -10 -62 -10 -61 3 1 6 2 20 3 30 1 25 52 18 69 -9z
m-131 5 c-3 -3 -12 -4 -19 -1 -8 3 -5 6 6 6 11 1 17 -2 13 -5z"/>
<path d="M1220 4505 c122 -20 196 -27 185 -17 -9 9 -210 34 -245 31 -8 -1 19
-7 60 -14z"/>
<path d="M2670 4500 c-20 -6 -21 -8 -5 -8 11 0 34 4 50 8 27 7 27 8 5 8 -14 0
-36 -4 -50 -8z"/>
<path d="M2458 4493 c6 -2 18 -2 25 0 6 3 1 5 -13 5 -14 0 -19 -2 -12 -5z"/>
<path d="M7435 4401 c-112 -41 -155 -87 -95 -101 17 -4 21 -8 12 -14 -7 -4
-20 -2 -28 5 -8 7 -26 14 -40 15 -21 2 -23 0 -13 -12 6 -8 20 -14 30 -14 11 0
19 -4 19 -10 0 -13 -22 -13 -56 0 -24 9 -25 9 -14 -5 7 -8 19 -15 27 -15 26 0
4 -18 -31 -24 -43 -8 -55 -33 -21 -42 31 -8 93 0 170 20 71 18 399 23 455 7
59 -18 54 4 -10 48 -34 22 -58 41 -54 41 25 2 -101 42 -170 54 -96 18 -135 14
-199 -18 -52 -25 -76 -16 -36 15 83 63 281 65 397 5 19 -10 36 -15 39 -12 7 7
-65 42 -126 60 -72 21 -192 20 -256 -3z m260 -127 c12 -12 13 -19 4 -30 -15
-19 -58 -18 -65 1 -16 40 29 61 61 29z"/>
<path d="M6999 4198 c-3 -108 -1 -134 9 -126 8 7 12 43 11 117 -1 162 -16 169
-20 9z"/>
<path d="M2665 4045 c-38 -8 -169 -23 -290 -35 -238 -24 -651 -31 -985 -18
-118 4 -162 4 -136 -3 22 -5 45 -14 53 -20 7 -6 13 -8 13 -4 0 4 6 2 14 -4 7
-6 11 -22 8 -36 -6 -33 16 -85 46 -109 13 -10 21 -24 18 -31 -5 -14 62 -20
339 -31 155 -6 483 7 650 26 107 12 381 63 366 68 -6 2 -11 10 -11 17 0 7 -4
15 -9 17 -5 2 -11 23 -12 48 -2 25 -7 47 -11 50 -4 3 -9 17 -11 30 -4 20 2 27
27 37 40 15 19 14 -69 -2z"/>
<path d="M850 4025 c-11 -13 -10 -14 4 -9 9 3 16 10 16 15 0 13 -6 11 -20 -6z"/>
<path d="M7013 3960 c0 -36 2 -50 4 -32 2 17 2 47 0 65 -2 17 -4 3 -4 -33z"/>
<path d="M6777 3983 c-4 -3 -7 -27 -7 -53 0 -36 6 -53 25 -74 13 -14 31 -26
39 -26 8 0 20 -8 25 -17 9 -16 10 -15 11 7 0 14 3 48 6 75 l6 50 -40 23 c-42
23 -54 26 -65 15z"/>
<path d="M6995 3713 c4 -43 13 -88 19 -101 10 -19 11 -12 9 45 -5 94 -12 133
-24 133 -7 0 -8 -26 -4 -77z"/>
<path d="M9662 3740 c-1 -14 -5 -43 -7 -65 -5 -35 -4 -37 5 -15 6 13 9 42 7
65 -2 22 -4 29 -5 15z"/>
<path d="M8625 3620 c-9 -10 -33 -24 -51 -30 -29 -10 -41 -8 -91 15 -70 32
-126 28 -173 -11 -44 -37 -40 -59 8 -48 52 12 159 9 187 -6 18 -9 31 -10 58
-1 48 16 122 101 89 101 -5 0 -17 -9 -27 -20z"/>
<path d="M7940 3570 c-38 -41 -65 -49 -101 -30 -23 13 -26 -2 -3 -24 21 -22
86 -20 115 2 33 25 112 46 140 37 22 -7 23 -6 10 9 -21 25 -66 46 -97 46 -19
0 -38 -12 -64 -40z"/>
<path d="M1940 3590 c0 -5 5 -10 10 -10 6 0 10 5 10 10 0 6 -4 10 -10 10 -5 0
-10 -4 -10 -10z"/>
<path d="M9701 3581 c-15 -28 -30 -101 -21 -101 11 0 50 81 50 103 0 23 -17
22 -29 -2z"/>
<path d="M1603 3544 c27 -14 51 -23 53 -21 5 5 -81 47 -93 47 -5 -1 14 -12 40
-26z"/>
<path d="M1856 3553 c-4 -4 3 -15 16 -25 23 -17 23 -18 -27 -18 -30 0 -60 6
-73 16 -12 8 -22 11 -22 6 0 -17 55 -35 105 -33 l50 1 -37 -22 c-21 -13 -38
-27 -38 -31 0 -5 13 1 29 12 16 12 37 21 48 21 10 1 29 7 43 15 l25 14 -27 1
c-14 0 -40 11 -56 25 -16 13 -32 21 -36 18z"/>
<path d="M1991 3533 c7 -20 6 -28 -3 -35 -10 -6 -9 -8 3 -8 9 0 20 -7 23 -16
9 -22 8 -24 -11 -24 -9 0 -14 -3 -10 -6 3 -4 20 -1 37 5 41 14 70 -6 101 -71
20 -44 21 -51 9 -90 l-13 -43 -24 53 c-13 30 -25 64 -27 75 -3 23 -30 35 -40
19 -8 -14 65 -172 80 -172 6 0 20 19 29 43 l18 42 18 -40 c10 -22 23 -40 29
-40 13 0 73 132 67 149 -2 5 -15 -19 -29 -55 l-26 -64 -22 50 c-12 28 -23 60
-23 72 -1 14 -9 23 -18 23 -27 0 -67 53 -74 97 -4 24 -11 46 -17 49 -18 11
-20 -4 -3 -35 15 -30 15 -31 -8 -31 -18 0 -28 10 -42 40 -20 44 -40 56 -24 13z"/>
<path d="M1700 3490 c-12 -8 -11 -10 7 -10 12 0 25 5 28 10 8 13 -15 13 -35 0z"/>
<path d="M1958 3463 c-10 -2 -18 -9 -18 -14 0 -13 12 -11 34 6 20 15 16 17
-16 8z"/>
<path d="M2270 3400 c0 -5 4 -10 9 -10 6 0 13 5 16 10 3 6 -1 10 -9 10 -9 0
-16 -4 -16 -10z"/>
<path d="M7190 3340 c0 -72 1 -76 28 -91 l29 -16 -8 36 c-4 20 -17 61 -28 91
l-20 55 -1 -75z"/>
<path d="M1378 3315 c2 -57 7 -85 15 -85 8 0 12 26 12 85 0 69 -3 85 -15 85
-12 0 -14 -15 -12 -85z"/>
<path d="M1481 3371 c20 -16 24 -28 24 -76 0 -56 0 -56 18 -33 34 41 0 128
-50 128 -11 0 -8 -6 8 -19z"/>
<path d="M1572 3303 c2 -55 7 -88 15 -90 14 -5 20 46 15 125 -3 37 -8 52 -18
52 -12 0 -14 -16 -12 -87z"/>
<path d="M1675 3370 c11 -12 16 -29 13 -45 -7 -33 9 -32 24 1 11 23 10 29 -11
45 -31 25 -49 24 -26 -1z"/>
<path d="M1874 3300 l1 -90 62 0 c52 0 64 3 73 20 12 23 -2 27 -20 5 -7 -8
-28 -15 -46 -15 l-34 0 0 85 c0 76 -2 85 -19 85 -16 0 -18 -9 -17 -90z"/>
<path d="M7573 3353 c-4 -10 -17 -32 -30 -49 -13 -17 -23 -38 -23 -47 0 -9 -4
-19 -10 -22 -12 -7 -13 -35 -2 -35 8 0 92 150 92 164 0 14 -21 5 -27 -11z"/>
<path d="M8439 3296 c-3 -3 -21 -8 -40 -11 -19 -3 -58 -14 -87 -23 -42 -14
-69 -16 -140 -10 -48 4 -125 8 -172 8 -76 1 -94 -3 -169 -35 -46 -19 -95 -42
-110 -49 -14 -7 -42 -21 -63 -29 -56 -24 -59 -54 -12 -95 50 -43 144 -107 206
-138 55 -28 184 -50 203 -34 8 7 22 7 43 -1 32 -11 423 -6 497 7 22 3 52 15
66 25 15 10 38 23 53 29 42 16 224 139 245 166 23 29 17 59 -16 81 -29 19
-139 57 -243 84 -75 19 -250 36 -261 25z m156 -108 c17 0 49 4 72 7 l42 7 6
-39 c4 -21 8 -42 9 -47 1 -5 12 1 23 14 32 34 63 14 53 -35 -1 -5 8 -1 19 9
23 21 37 16 28 -9 -4 -8 -14 -15 -24 -15 -10 0 -24 -9 -31 -21 -11 -17 -20
-20 -47 -15 -28 6 -36 3 -45 -14 -12 -23 -48 -26 -75 -6 -16 12 -21 11 -35 -7
-19 -23 -122 -37 -134 -18 -11 17 -23 13 -29 -8 -6 -23 -50 -30 -204 -31 -105
0 -113 1 -124 21 -8 16 -13 18 -19 9 -4 -7 -28 -15 -54 -17 -36 -4 -51 -2 -66
12 -15 13 -24 15 -31 8 -12 -12 -49 -6 -49 8 0 5 -11 14 -25 19 -14 5 -29 20
-34 32 -10 26 3 59 21 55 6 -1 14 9 18 23 8 34 34 36 59 4 12 -15 23 -25 24
-23 2 2 11 16 20 32 14 22 25 27 55 27 21 0 43 -5 48 -10 7 -7 30 -8 70 -2 32
5 78 7 100 5 23 -3 52 0 64 7 16 9 33 9 70 -1 43 -11 52 -10 67 3 28 24 45 28
88 21 22 -4 54 -6 70 -5z"/>
<path d="M1640 3284 c0 -16 58 -74 75 -74 16 0 12 7 -20 40 -36 37 -55 49 -55
34z"/>
<path d="M9591 3229 c-13 -38 -8 -49 25 -49 l25 0 -19 28 c-10 15 -17 33 -15
40 3 6 2 12 0 12 -3 0 -10 -14 -16 -31z"/>
<path d="M1757 3234 c-8 -8 1 -24 14 -24 5 0 9 7 9 15 0 15 -12 20 -23 9z"/>
<path d="M7260 3211 c0 -5 5 -13 10 -16 6 -3 10 -2 10 4 0 5 -4 13 -10 16 -5
3 -10 2 -10 -4z"/>
<path d="M2260 3150 c0 -18 5 -30 13 -30 7 0 14 13 15 30 2 21 -2 30 -13 30
-10 0 -15 -10 -15 -30z"/>
<path d="M7070 3113 c-40 -41 -71 -84 -79 -108 -21 -63 -69 -141 -127 -208
-29 -33 -51 -63 -48 -66 2 -3 26 16 52 41 26 24 69 57 95 72 56 32 61 41 86
159 18 84 40 127 65 127 6 0 25 -39 42 -87 30 -84 33 -88 63 -91 17 -2 31 0
31 4 0 10 -49 93 -78 132 -13 18 -27 46 -31 63 l-6 30 -65 -68z"/>
<path d="M1832 3135 c0 -16 2 -22 5 -12 2 9 2 23 0 30 -3 6 -5 -1 -5 -18z"/>
<path d="M1867 3130 c-3 -11 -1 -20 4 -20 5 0 9 9 9 20 0 11 -2 20 -4 20 -2 0
-6 -9 -9 -20z"/>
<path d="M1944 3139 c-3 -6 -2 -15 3 -20 5 -5 9 -1 9 11 0 23 -2 24 -12 9z"/>
<path d="M2160 3139 c0 -5 9 -9 20 -9 11 0 20 2 20 4 0 2 -9 6 -20 9 -11 3
-20 1 -20 -4z"/>
<path d="M2070 3130 c0 -5 5 -10 10 -10 6 0 10 5 10 10 0 6 -4 10 -10 10 -5 0
-10 -4 -10 -10z"/>
<path d="M7439 2833 c-13 -16 -12 -17 4 -4 16 13 21 21 13 21 -2 0 -10 -8 -17
-17z"/>
<path d="M7946 2805 c-3 -10 5 -20 24 -30 55 -28 81 -16 64 29 -7 19 -30 21
-37 4 -4 -10 -7 -10 -18 0 -17 16 -26 15 -33 -3z"/>
<path d="M7400 2795 c-11 -13 -10 -14 4 -9 9 3 16 10 16 15 0 13 -6 11 -20 -6z"/>
<path d="M2293 2790 c-17 -7 -22 -16 -19 -32 3 -13 5 -51 5 -85 1 -35 5 -63
11 -63 6 0 10 18 10 40 0 22 2 40 4 40 2 0 11 3 20 6 10 4 21 -7 36 -35 11
-23 25 -41 30 -41 14 0 12 10 -6 45 -14 27 -13 32 3 63 18 33 18 34 -6 53 -25
20 -52 23 -88 9z m77 -39 c0 -22 -4 -26 -42 -35 -26 -6 -28 -4 -28 24 0 28 3
30 35 30 28 0 35 -4 35 -19z"/>
<path d="M9432 2717 c-41 -83 -44 -96 -57 -235 -8 -81 -15 -256 -15 -388 0
-216 2 -244 18 -263 15 -18 236 -151 251 -151 11 0 5 245 -8 345 -24 188 -67
400 -116 576 -8 30 -19 89 -23 130 l-8 74 -42 -88z"/>
<path d="M1290 2703 c0 -47 3 -83 7 -80 3 4 5 38 4 77 -1 38 0 70 3 70 3 0 14
-30 26 -67 22 -73 35 -100 42 -87 2 5 13 35 23 67 11 31 23 57 27 57 4 0 9
-30 11 -67 3 -64 3 -63 5 20 3 110 -16 119 -48 22 -12 -36 -23 -65 -26 -65 -2
0 -13 32 -25 70 -30 101 -49 95 -49 -17z"/>
<path d="M2170 2788 c0 -1 -14 -43 -30 -92 -34 -102 -33 -96 -19 -96 5 0 15
14 20 30 9 25 16 30 44 30 27 0 34 -4 37 -22 3 -23 28 -38 27 -16 -1 28 -55
162 -66 166 -7 2 -13 2 -13 0z m29 -95 c1 -7 -8 -13 -19 -13 -23 0 -23 0 -9
37 10 26 12 27 19 8 5 -11 9 -26 9 -32z"/>
<path d="M1490 2696 c0 -47 5 -88 10 -91 6 -4 10 27 10 84 0 54 -4 91 -10 91
-6 0 -10 -35 -10 -84z"/>
<path d="M1593 2769 c-28 -10 -43 -39 -43 -84 0 -46 15 -73 46 -85 29 -11 72
2 80 25 10 26 -5 30 -22 7 -33 -47 -84 -13 -84 56 0 66 41 92 80 50 21 -23 34
-21 24 5 -8 21 -54 36 -81 26z"/>
<path d="M1996 2773 c-9 -9 -8 -171 2 -176 12 -8 102 5 102 14 0 5 -18 9 -40
9 l-40 0 0 74 c0 69 -8 95 -24 79z"/>
<path d="M1714 2757 c-3 -8 -4 -47 -2 -88 l3 -74 58 -3 c35 -2 57 1 57 8 0 5
-20 10 -44 10 -34 0 -45 4 -48 18 -8 34 3 52 33 52 16 0 29 5 29 11 0 6 -14 9
-32 7 -28 -3 -32 0 -33 25 -2 26 0 27 42 27 23 0 43 5 43 10 0 16 -100 12
-106 -3z"/>
<path d="M1860 2680 l0 -90 55 0 c65 0 74 17 13 22 l-43 3 -3 78 c-4 108 -22
97 -22 -13z"/>
<path d="M7300 2750 c-30 -10 -65 -19 -77 -19 -30 -1 -39 -39 -23 -94 6 -23
11 -70 10 -105 -1 -54 3 -70 32 -120 32 -56 33 -59 38 -207 5 -145 5 -147 13
-71 4 43 7 118 7 166 0 47 7 133 17 191 21 133 20 139 -11 185 -14 21 -26 42
-26 45 0 4 17 9 39 13 21 3 44 13 51 21 17 20 1 19 -70 -5z"/>
<path d="M7344 2670 c4 -50 44 -120 143 -251 l84 -111 -19 -22 c-19 -20 -52
-78 -52 -91 0 -3 8 0 18 6 20 13 29 7 140 -99 l67 -63 93 -4 c176 -9 222 -53
214 -202 -4 -61 -84 -123 -161 -123 -11 0 -21 -6 -21 -14 0 -32 73 -265 106
-338 52 -115 67 -199 61 -348 -5 -142 -1 -131 -127 -385 -71 -142 -202 -488
-224 -593 l-8 -32 124 0 124 0 2 52 c1 29 9 80 18 114 8 34 16 87 17 118 1 31
5 56 9 56 3 0 9 18 13 40 4 22 10 40 14 40 4 0 7 29 7 64 0 35 4 70 10 77 6 8
21 43 34 79 13 36 30 73 39 84 16 18 23 77 9 86 -13 10 -19 131 -8 146 9 9 7
21 -4 46 -9 18 -15 42 -15 53 0 11 -5 53 -12 94 -9 56 -9 79 0 92 6 10 11 22
11 26 0 5 -5 1 -10 -7 -5 -8 -10 -10 -10 -4 0 14 29 51 31 39 1 -5 6 17 13 50
12 66 23 74 72 54 16 -7 37 -11 47 -10 9 1 17 -3 17 -10 0 -8 4 -8 15 1 9 7
15 8 15 2 0 -15 48 -24 70 -12 14 7 20 7 20 0 0 -22 18 -9 23 18 4 17 18 34
38 45 24 14 29 21 21 29 -19 19 -15 126 5 146 36 37 86 71 94 66 5 -3 9 2 9
11 0 8 7 18 15 21 14 6 31 42 26 58 -1 5 3 12 10 16 17 11 29 88 23 151 -5 46
-3 60 12 78 10 11 22 21 27 21 5 0 27 20 48 44 22 24 64 56 95 72 52 26 126
105 105 112 -5 2 -33 -12 -62 -29 -180 -107 -217 -118 -399 -119 -141 -1 -196
6 -325 45 -49 14 -107 30 -128 36 -36 9 -70 27 -162 87 -49 32 -136 107 -228
196 -38 36 -73 66 -78 66 -5 0 -9 6 -9 14 0 8 -11 28 -25 44 -14 17 -25 34
-25 39 0 5 -9 15 -20 23 -11 8 -20 20 -20 28 0 7 -4 10 -10 7 -5 -3 -10 -2
-10 4 0 5 -9 9 -19 8 -16 -1 -19 -8 -17 -37z"/>
<path d="M1410 2511 c0 -5 4 -11 9 -13 5 -1 18 -43 28 -92 11 -50 24 -91 30
-93 6 -2 21 21 34 52 12 30 26 55 30 55 4 0 11 -25 14 -55 10 -76 30 -70 68
20 16 39 38 79 48 91 27 29 24 34 -21 34 -37 0 -39 -2 -28 -19 9 -15 8 -28 -6
-65 -10 -25 -21 -48 -26 -51 -14 -8 -24 103 -11 118 15 19 4 27 -36 27 -32 0
-43 -12 -23 -25 15 -9 12 -36 -12 -85 l-21 -45 -12 60 c-6 33 -8 64 -3 70 16
18 8 25 -27 25 -19 0 -35 -4 -35 -9z"/>
<path d="M1911 2490 c-6 -18 -17 -30 -28 -31 -16 0 -16 -1 -2 -11 14 -9 14
-16 0 -70 -14 -52 -14 -60 -1 -68 24 -15 39 -12 67 16 28 28 24 47 -5 21 -23
-21 -46 -22 -39 -3 3 8 11 32 18 55 7 25 20 43 32 47 17 5 18 8 5 15 -10 5
-14 18 -10 34 7 37 -23 33 -37 -5z"/>
<path d="M2241 2476 c-10 -12 -16 -13 -32 -3 -16 10 -23 8 -46 -15 -15 -15
-24 -31 -20 -35 4 -3 13 -1 19 5 23 23 27 12 13 -35 -32 -104 -6 -113 34 -13
22 55 30 65 51 65 18 0 25 5 25 20 0 24 -27 31 -44 11z"/>
<path d="M2060 2473 c-29 -10 -69 -56 -75 -85 -16 -71 67 -107 122 -52 33 33
23 42 -15 14 -36 -26 -66 -23 -70 8 -3 17 2 22 20 22 34 0 88 36 88 60 0 29
-35 46 -70 33z m30 -38 c0 -17 -46 -42 -57 -32 -8 9 27 47 44 47 7 0 13 -7 13
-15z"/>
<path d="M1713 2450 c-79 -48 -53 -173 29 -141 15 6 31 5 42 -1 21 -12 66 14
66 39 0 14 -2 14 -20 -2 -11 -10 -22 -16 -25 -14 -2 3 4 33 14 67 19 63 14 85
-15 61 -11 -9 -18 -9 -26 -1 -16 16 -28 15 -65 -8z m67 -44 c0 -43 -37 -90
-63 -81 -28 11 -17 85 17 107 28 19 46 8 46 -26z"/>
<path d="M2470 2209 c-121 -18 -286 -31 -549 -44 l-276 -12 190 -2 c276 -1
675 31 725 60 19 11 -12 10 -90 -2z"/>
<path d="M3400 2166 c0 -2 8 -10 18 -17 15 -13 16 -12 3 4 -13 16 -21 21 -21
13z"/>
<path d="M3449 2127 c14 -18 51 -42 51 -33 0 3 -15 15 -32 27 -24 17 -29 18
-19 6z"/>
<path d="M3530 2074 c0 -9 63 -35 80 -32 12 2 0 9 -30 20 -28 9 -50 14 -50 12z"/>
<path d="M2290 2022 c-171 -20 -752 -22 -954 -3 l-150 14 -23 -27 c-46 -54
-15 -142 60 -165 127 -39 839 -50 1107 -17 80 9 156 23 170 29 40 20 73 76 66
117 -11 74 -45 80 -276 52z m-1063 -62 c-3 -11 -1 -18 4 -14 5 3 9 1 9 -5 0
-5 3 -18 7 -28 6 -15 4 -16 -9 -5 -8 7 -24 9 -33 5 -12 -4 -16 -3 -12 4 4 6
11 22 16 37 12 30 26 35 18 6z m59 -63 c9 -3 8 -4 -3 -3 -13 1 -18 10 -19 36
-1 34 -1 34 3 3 2 -17 11 -34 19 -36z m72 61 c15 -15 15 -51 0 -66 -18 -18
-48 4 -48 37 0 41 22 55 48 29z m1012 8 c0 -3 -4 -8 -10 -11 -5 -3 -10 -1 -10
4 0 6 5 11 10 11 6 0 10 -2 10 -4z m-957 -13 c-16 -3 -21 -10 -19 -30 2 -13 9
-29 17 -34 11 -8 9 -9 -6 -7 -15 2 -21 12 -23 41 -3 35 -2 37 25 36 22 -1 24
-3 6 -6z m88 -53 c4 0 10 12 13 26 4 15 9 24 12 22 6 -7 -17 -68 -26 -68 -4 0
-13 14 -19 31 -14 41 -12 53 2 17 6 -16 14 -28 18 -28z m67 43 c-12 -3 -16
-13 -14 -39 2 -19 -1 -34 -5 -34 -5 0 -9 18 -9 40 0 35 3 40 23 39 15 -1 17
-3 5 -6z m62 3 c0 -3 -4 -8 -10 -11 -5 -3 -10 -1 -10 4 0 6 5 11 10 11 6 0 10
-2 10 -4z m27 -41 c-2 -31 -4 -33 -14 -18 -10 12 -10 19 -2 24 6 4 8 12 5 18
-4 6 -3 11 3 11 5 0 9 -16 8 -35z m63 9 c13 -32 12 -37 0 -29 -5 3 -10 15 -10
25 0 10 -6 21 -12 23 -10 4 -10 6 0 6 7 1 17 -11 22 -25z m-103 -26 c-3 -7 -5
-2 -5 12 0 14 2 19 5 13 2 -7 2 -19 0 -25z"/>
<path d="M1324 1946 c-8 -22 3 -49 19 -43 6 2 12 14 12 27 0 27 -22 39 -31 16z"/>
<path d="M4076 2015 c-29 -29 -20 -47 22 -43 32 3 37 6 37 28 0 31 -34 39 -59
15z"/>
<path d="M3740 2002 c0 -25 21 -30 125 -33 75 -2 80 -1 83 19 3 21 0 22 -71
22 -41 0 -89 3 -106 6 -26 6 -31 4 -31 -14z"/>
<path d="M7287 1938 c-14 -12 -15 -18 -2 -66 12 -43 28 -68 87 -131 l73 -78
13 41 c27 84 -3 205 -59 233 -31 16 -91 16 -112 1z"/>
<path d="M7807 1943 c-10 -10 -8 -58 3 -89 7 -19 7 -30 -1 -40 -9 -12 -5 -14
25 -14 21 0 46 5 57 11 40 21 47 99 10 118 -24 13 -86 22 -94 14z"/>
<path d="M3370 1646 c0 -10 85 -66 99 -66 9 0 -2 11 -24 25 -22 13 -48 29 -57
35 -10 6 -18 9 -18 6z"/>
<path d="M9649 1607 c-98 -37 -179 -145 -179 -238 l0 -29 -122 0 c-68 0 -129
-4 -136 -9 -11 -7 -12 -43 -3 -202 6 -107 16 -286 22 -399 6 -112 14 -211 19
-220 4 -8 18 -24 30 -35 21 -19 37 -20 437 -20 l415 0 27 31 c23 25 29 44 34
100 8 85 30 560 31 669 l1 80 -126 3 -127 3 -7 37 c-17 93 -74 175 -148 213
-50 26 -123 33 -168 16z m139 -71 c59 -31 112 -112 112 -171 l0 -25 -186 0
-186 0 6 32 c4 18 16 52 28 76 40 84 151 127 226 88z m-14 -351 c45 -7 106
-35 106 -48 0 -4 -5 -17 -10 -28 -11 -19 -11 -19 -48 0 -80 41 -152 39 -196
-6 -32 -32 -34 -73 -3 -107 12 -13 58 -39 102 -57 110 -45 149 -71 170 -115
22 -46 16 -110 -13 -152 -53 -73 -188 -91 -295 -38 -65 31 -78 49 -54 74 15
14 20 13 64 -10 90 -48 170 -47 223 2 62 58 20 139 -92 175 -130 41 -188 92
-188 167 0 49 21 90 59 117 30 22 95 41 121 36 8 -2 32 -6 54 -10z"/>
<path d="M4060 1544 c-32 -10 -91 -14 -210 -13 -247 2 -284 1 -288 -11 -2 -5
-11 -10 -19 -10 -9 0 -14 -2 -11 -5 11 -11 588 -22 634 -13 54 12 61 38 10 38
-21 0 -36 6 -40 15 -6 18 -16 18 -76 -1z"/>
<path d="M2301 1498 c1 -31 1 -32 9 -8 8 25 8 25 9 2 1 -27 21 -20 21 8 0 15
-18 30 -36 30 -2 0 -4 -15 -3 -32z"/>
<path d="M1380 1512 c0 -7 6 -20 14 -27 15 -16 36 -2 36 25 -1 12 -3 11 -11
-3 -10 -18 -11 -18 -25 0 -9 12 -13 13 -14 5z"/>
<path d="M2027 1502 c-10 -10 -17 -25 -18 -33 0 -8 -4 -4 -10 9 -5 13 -14 20
-20 16 -6 -3 -15 0 -20 7 -6 10 -9 5 -9 -16 0 -28 3 -31 36 -33 30 -2 37 1 42
20 5 21 6 21 13 2 6 -15 8 -12 8 14 1 37 0 38 -22 14z"/>
<path d="M2200 1510 c-19 -5 -38 -6 -42 -4 -5 3 -8 1 -8 -5 0 -6 -7 -8 -15 -5
-17 7 -19 -4 -5 -26 8 -12 11 -13 19 -1 7 11 9 11 14 0 4 -12 7 -11 16 1 8 12
11 12 11 1 0 -8 7 -11 20 -8 11 3 20 1 20 -4 0 -5 5 -9 10 -9 6 0 10 16 10 35
0 19 -3 35 -7 34 -5 -1 -24 -5 -43 -9z m10 -20 c0 -5 -2 -10 -4 -10 -3 0 -8 5
-11 10 -3 6 -1 10 4 10 6 0 11 -4 11 -10z"/>
<path d="M2260 1495 c0 -16 6 -25 15 -25 9 0 15 9 15 25 0 16 -6 25 -15 25 -9
0 -15 -9 -15 -25z"/>
<path d="M1442 1489 c-8 -12 -9 -18 -3 -14 6 3 11 1 11 -4 0 -23 15 -10 16 14
2 31 -7 32 -24 4z"/>
<path d="M1560 1487 c0 -29 18 -46 30 -27 5 9 9 9 14 1 4 -6 13 -11 19 -11 7
0 6 4 -3 10 -13 9 -13 11 0 19 8 6 11 13 7 17 -4 4 -13 2 -19 -4 -9 -9 -16 -8
-30 5 -17 15 -18 15 -18 -10z m25 -6 c3 -5 1 -12 -5 -16 -5 -3 -10 1 -10 9 0
18 6 21 15 7z"/>
<path d="M1781 1480 c0 -23 2 -30 8 -21 6 9 11 10 15 2 4 -6 18 -11 32 -11 17
0 24 5 24 20 0 25 -18 26 -36 3 -13 -17 -13 -17 -14 0 0 10 -4 16 -9 12 -5 -3
-12 3 -14 12 -3 10 -5 2 -6 -17z"/>
<path d="M2067 1504 c-4 -4 -7 -17 -7 -28 0 -17 2 -18 10 -6 8 13 10 12 10 -3
0 -10 4 -16 8 -13 5 3 8 15 7 28 -2 22 -16 34 -28 22z"/>
<path d="M1491 1484 c0 -11 3 -14 6 -6 3 7 2 16 -1 19 -3 4 -6 -2 -5 -13z"/>
<path d="M1510 1491 c0 -6 6 -8 14 -5 8 3 16 -2 20 -13 4 -15 5 -15 3 2 -2 20
-37 35 -37 16z"/>
<path d="M1645 1482 c-3 -7 -2 -19 2 -25 4 -7 9 -3 14 9 7 17 8 17 8 2 1 -10
8 -18 17 -18 10 0 14 7 12 22 -4 25 -44 33 -53 10z"/>
<path d="M1712 1475 c0 -16 2 -22 5 -12 2 9 2 23 0 30 -3 6 -5 -1 -5 -18z"/>
<path d="M1730 1473 c1 -26 2 -27 14 -10 14 18 14 18 19 0 4 -11 5 -9 4 7 -1
15 -9 26 -19 28 -14 3 -18 -3 -18 -25z"/>
<path d="M1874 1486 c-3 -8 -4 -21 -1 -28 4 -8 6 -6 6 5 1 9 6 17 12 17 6 0 9
-7 5 -15 -3 -8 -1 -15 5 -15 14 0 7 42 -8 48 -7 2 -16 -3 -19 -12z"/>
<path d="M2294 1428 c-2 -3 -13 -4 -24 -1 -15 4 -20 0 -20 -13 0 -17 -1 -16
-15 2 -14 18 -16 18 -29 1 -12 -16 -15 -16 -18 -3 -2 9 -8 12 -15 8 -7 -4 -10
-17 -7 -28 4 -16 13 -21 35 -20 16 1 29 5 29 10 0 6 6 2 13 -8 12 -16 15 -16
42 -2 17 9 35 16 41 16 7 0 14 11 16 24 4 20 1 23 -20 22 -13 0 -26 -4 -28 -8z"/>
<path d="M1380 1423 c0 -6 -18 -13 -41 -17 -92 -15 -177 -84 -204 -167 l-17
-49 -134 0 -134 0 0 -480 0 -480 268 -1 c477 -2 572 2 572 24 0 7 5 5 10 -3 8
-13 10 -12 10 3 0 9 4 17 9 17 20 0 109 92 136 142 l30 53 7 325 c4 179 6 330
3 337 -2 6 4 13 14 16 14 3 17 12 13 36 -4 31 -15 40 -27 21 -8 -14 -245 -9
-245 4 0 6 -4 4 -10 -4 -7 -11 -11 -8 -20 15 -26 73 -35 87 -77 125 -32 31
-42 46 -38 61 9 27 -4 24 -15 -3 l-9 -23 0 23 c-1 12 -6 22 -12 22 -5 0 -7 -4
-4 -10 3 -5 -1 -10 -9 -10 -9 0 -16 6 -16 13 0 8 -4 7 -10 -3 -8 -12 -10 -12
-10 -1 0 8 -3 11 -7 8 -3 -4 -12 -2 -20 4 -8 7 -13 8 -13 2z m96 -103 c41 -26
72 -68 80 -108 6 -28 4 -29 -36 -36 -23 -4 -67 -15 -97 -26 -53 -19 -55 -19
-99 0 -24 11 -67 22 -94 26 -55 7 -57 11 -35 59 49 103 185 144 281 85z m-176
-202 l75 -26 84 24 c64 18 119 25 237 30 l154 7 -1 -164 c-1 -127 -3 -156 -11
-129 -10 35 -48 93 -78 118 -65 55 -192 72 -266 34 -45 -23 -101 -76 -110
-104 -5 -16 -13 -10 -52 33 -58 65 -108 89 -187 89 -78 0 -130 -24 -183 -85
-156 -177 -2 -445 232 -402 l49 8 67 -66 67 -66 60 66 61 67 55 -12 c124 -28
258 53 288 175 4 18 7 -15 8 -86 1 -82 -4 -129 -15 -162 -20 -60 -93 -141
-158 -175 l-51 -27 -367 -3 -368 -3 0 446 0 447 168 -4 c147 -4 176 -8 242
-30z m-64 -153 c193 -96 123 -385 -93 -385 -219 0 -279 300 -78 391 56 26 112
24 171 -6z m442 10 c85 -36 126 -106 120 -206 -3 -58 -8 -74 -34 -106 -109
-135 -313 -99 -360 65 -17 57 -13 95 16 152 48 94 161 135 258 95z m-307 -328
c-8 -8 -11 -7 -11 4 0 20 13 34 18 19 3 -7 -1 -17 -7 -23z m59 -52 c17 -9 30
-21 30 -28 0 -7 -20 -33 -46 -57 l-45 -45 -46 49 -47 49 28 23 c32 28 83 31
126 9z"/>
<path d="M1178 876 c3 -27 -1 -37 -23 -55 -34 -26 -46 -26 -78 -1 l-26 21 -7
-36 c-14 -78 48 -155 126 -155 43 0 99 33 117 70 32 62 1 149 -62 176 -48 20
-51 18 -47 -20z"/>
<path d="M1581 893 c10 -63 -40 -105 -94 -78 -16 8 -31 15 -32 15 -2 0 -5 -14
-9 -31 -8 -44 24 -113 63 -133 62 -33 146 -11 177 46 8 13 13 44 14 69 0 52
-23 90 -70 114 -38 20 -52 19 -49 -2z"/>
<path d="M2018 1416 c-20 -15 -24 -41 -7 -52 16 -10 31 11 27 39 -3 23 -5 24
-20 13z m12 -26 c0 -5 -4 -10 -10 -10 -5 0 -10 5 -10 10 0 6 5 10 10 10 6 0
10 -4 10 -10z"/>
<path d="M1540 1401 c0 -25 6 -27 13 -6 4 8 2 17 -3 20 -6 4 -10 -3 -10 -14z"/>
<path d="M1611 1392 c0 -24 1 -25 9 -7 6 15 9 16 9 4 1 -9 8 -16 16 -16 24 0
17 23 -10 35 -23 11 -25 10 -24 -16z"/>
<path d="M1671 1392 c1 -17 3 -21 6 -9 2 9 8 17 13 17 5 0 11 -8 13 -17 4 -14
5 -14 6 3 1 14 -6 24 -19 27 -16 4 -20 0 -19 -21z"/>
<path d="M1750 1392 c0 -27 2 -29 41 -29 35 0 40 2 37 21 -2 14 -10 20 -23 19
-10 -1 -27 3 -37 8 -15 8 -18 5 -18 -19z m25 -1 c3 -5 1 -12 -5 -16 -5 -3 -10
1 -10 9 0 18 6 21 15 7z"/>
<path d="M1932 1395 c0 -16 2 -22 5 -12 2 9 2 23 0 30 -3 6 -5 -1 -5 -18z"/>
<path d="M2054 1405 c-4 -8 -4 -21 -1 -29 8 -21 48 -7 55 18 6 20 6 20 13 -4
l7 -25 1 28 c1 20 -4 27 -18 27 -11 0 -22 -8 -24 -17 -4 -17 -5 -17 -6 0 -1
21 -19 23 -27 2z"/>
<path d="M1564 1399 c-3 -6 -1 -16 6 -22 10 -9 11 -9 6 1 -5 7 -1 12 9 12 9 0
13 5 10 10 -8 13 -22 13 -31 -1z"/>
<path d="M1841 1383 c1 -17 3 -21 6 -10 6 21 23 23 23 1 0 -11 5 -14 16 -10 9
3 20 6 25 6 5 0 9 10 9 23 -1 21 -1 22 -15 3 -13 -17 -15 -18 -15 -3 0 11 -8
17 -25 17 -21 0 -25 -5 -24 -27z"/>
<path d="M1950 1403 c0 -5 5 -15 10 -23 8 -12 10 -11 10 8 0 12 -4 22 -10 22
-5 0 -10 -3 -10 -7z"/>
<path d="M3260 1401 c0 -6 4 -12 8 -15 5 -3 9 1 9 9 0 8 -4 15 -9 15 -4 0 -8
-4 -8 -9z"/>
<path d="M3290 1325 c0 -10 40 -75 47 -75 2 0 -6 17 -18 38 -28 45 -29 47 -29
37z"/>
<path d="M4470 1210 c-110 -111 -177 -151 -265 -161 -33 -3 -107 -12 -165 -19
-119 -14 -311 -6 -393 15 -78 20 -179 68 -223 106 -21 19 -33 26 -25 16 8 -10
43 -41 78 -69 37 -29 62 -56 59 -63 -6 -18 19 -26 33 -12 8 8 11 7 11 -6 0 -9
8 -17 18 -17 151 -3 676 -54 717 -70 39 -15 52 -12 58 10 3 11 13 20 23 20 16
0 16 1 -2 14 -38 28 -8 24 35 -5 24 -16 53 -29 64 -29 19 0 20 -16 1 -64 -5
-12 1 -16 22 -17 27 0 27 -1 10 -12 -38 -24 -54 -46 -76 -103 -12 -33 -30 -69
-41 -80 l-20 -22 66 -12 c36 -7 68 -10 70 -8 3 2 14 51 25 109 23 116 20 173
-11 213 -20 25 -20 26 -2 32 66 20 100 66 124 172 12 50 11 54 -10 68 -12 9
-29 32 -39 51 -9 20 -24 37 -32 38 -8 0 -58 -42 -110 -95z"/>
<path d="M1996 1205 c-9 -9 -16 -12 -16 -6 0 6 -9 11 -20 11 -11 0 -20 -5 -20
-11 0 -5 5 -7 10 -4 14 8 13 -8 -1 -22 -6 -6 -8 -16 -5 -22 9 -14 36 -14 36
-1 0 6 -5 10 -11 10 -5 0 -7 5 -4 11 5 7 14 3 27 -11 16 -17 23 -19 34 -9 18
15 18 43 0 58 -11 9 -18 8 -30 -4z m24 -27 c0 -16 -3 -19 -11 -11 -6 6 -8 16
-5 22 11 17 16 13 16 -11z"/>
<path d="M2150 1207 c0 -9 -12 -11 -40 -9 -37 4 -40 2 -40 -22 0 -31 33 -37
49 -8 9 15 10 15 11 0 0 -11 6 -15 20 -11 14 4 20 14 20 34 0 16 -4 29 -10 29
-5 0 -10 -6 -10 -13z"/>
<path d="M6471 1034 c0 -11 3 -14 6 -6 3 7 2 16 -1 19 -3 4 -6 -2 -5 -13z"/>
<path d="M6961 974 c0 -11 3 -14 6 -6 3 7 2 16 -1 19 -3 4 -6 -2 -5 -13z"/>
<path d="M6921 956 c-9 -11 -10 -20 -2 -33 9 -16 10 -16 11 -1 0 9 4 18 10 20
5 2 6 9 1 16 -6 10 -10 10 -20 -2z"/>
<path d="M2485 919 c-4 -6 -13 -8 -21 -5 -13 5 -61 -31 -52 -38 2 -2 27 -6 56
-9 47 -6 52 -4 52 14 0 26 -26 54 -35 38z"/>
<path d="M2583 904 c-3 -9 -1 -25 5 -35 9 -13 8 -19 -1 -22 -7 -3 9 -6 35 -6
l47 -1 -2 38 c-3 35 -5 37 -40 40 -28 2 -39 -1 -44 -14z"/>
<path d="M3210 900 c0 -11 5 -20 10 -20 6 0 10 9 10 20 0 11 -4 20 -10 20 -5
0 -10 -9 -10 -20z"/>
<path d="M4130 893 c0 -5 7 -16 14 -25 12 -17 16 -17 45 -2 44 22 39 34 -14
34 -25 0 -45 -3 -45 -7z"/>
<path d="M6950 855 c0 -5 5 -17 10 -25 5 -8 10 -10 10 -5 0 6 -5 17 -10 25 -5
8 -10 11 -10 5z"/>
<path d="M4355 833 c21 -20 35 -57 35 -89 0 -14 4 -22 10 -19 6 3 10 14 10 24
0 10 9 30 21 45 19 24 19 26 2 26 -10 0 -31 7 -47 15 -37 20 -51 19 -31 -2z"/>
<path d="M4218 803 c-16 -10 -28 -21 -28 -24 0 -6 27 -18 73 -33 29 -9 20 -41
-19 -59 -19 -10 -32 -22 -29 -27 9 -15 61 -12 75 5 7 8 19 15 27 15 13 0 15
10 11 51 -3 28 -11 57 -19 64 -24 23 -62 26 -91 8z"/>
<path d="M3257 765 c9 -19 18 -33 21 -31 4 5 -26 66 -33 66 -3 0 3 -16 12 -35z"/>
<path d="M3346 629 c35 -38 171 -105 240 -119 27 -5 146 -13 264 -16 243 -8
277 -2 365 60 l46 34 -34 6 c-19 4 -47 16 -62 28 -24 19 -30 20 -65 8 -22 -7
-41 -19 -44 -26 -4 -10 -12 -11 -36 -2 -26 8 -33 7 -43 -6 -7 -9 -23 -18 -36
-21 -32 -6 -38 -14 -21 -25 17 -11 7 -12 -217 -12 -83 0 -156 3 -162 7 -6 3
-11 14 -11 23 0 12 -9 17 -33 19 -35 2 -60 11 -126 48 -57 32 -61 31 -25 -6z"/>
<path d="M4275 590 c-3 -5 1 -10 9 -10 8 0 18 5 21 10 3 6 -1 10 -9 10 -8 0
-18 -4 -21 -10z"/>
<path d="M4315 570 c-16 -16 -24 -30 -18 -30 14 0 63 39 63 51 0 17 -16 9 -45
-21z"/>
<path d="M3815 560 c-3 -6 5 -10 19 -10 14 0 28 5 31 10 3 6 -5 10 -19 10 -14
0 -28 -4 -31 -10z"/>
<path d="M9179 329 c-13 -13 -19 -30 -17 -47 2 -22 14 -32 66 -57 66 -32 86
-61 61 -91 -13 -16 -75 -16 -113 1 -14 6 -18 5 -14 -6 2 -8 23 -20 45 -28 49
-18 94 -3 111 35 19 40 0 71 -65 101 -60 29 -75 52 -52 79 10 13 24 15 63 9
44 -5 48 -4 36 9 -19 24 -95 21 -121 -5z"/>
<path d="M9360 220 c0 -80 4 -130 10 -130 6 0 10 21 10 48 0 56 21 92 55 92
34 0 55 -36 55 -92 0 -27 5 -48 10 -48 6 0 10 24 10 54 0 39 -6 60 -22 81 -19
24 -26 27 -65 22 l-43 -5 0 54 c0 30 -4 54 -10 54 -6 0 -10 -50 -10 -130z"/>
<path d="M1801 254 c0 -11 3 -14 6 -6 3 7 2 16 -1 19 -3 4 -6 -2 -5 -13z"/>
<path d="M1841 254 c0 -11 3 -14 6 -6 3 7 2 16 -1 19 -3 4 -6 -2 -5 -13z"/>
<path d="M2002 250 c0 -14 2 -19 5 -12 2 6 2 18 0 25 -3 6 -5 1 -5 -13z"/>
<path d="M2060 253 c0 -13 5 -23 10 -23 13 0 13 11 0 30 -8 12 -10 11 -10 -7z"/>
<path d="M1931 244 c0 -11 3 -14 6 -6 3 7 2 16 -1 19 -3 4 -6 -2 -5 -13z"/>
<path d="M2031 244 c0 -11 3 -14 6 -6 3 7 2 16 -1 19 -3 4 -6 -2 -5 -13z"/>
<path d="M9561 224 c-28 -35 -26 -69 4 -99 50 -51 135 -18 135 53 0 69 -96
100 -139 46z m101 -11 c22 -20 23 -42 2 -71 -22 -32 -73 -27 -93 9 -13 24 -13
29 2 53 20 30 61 35 89 9z"/>
<path d="M9740 128 c0 -72 4 -118 10 -118 6 0 10 23 10 51 0 45 2 50 18 44 45
-19 62 -17 92 13 35 36 38 69 9 106 -19 24 -26 26 -80 24 l-59 -2 0 -118z
m106 94 c43 -29 30 -94 -20 -100 -33 -4 -66 22 -66 51 0 42 53 72 86 49z"/>
<path d="M9957 233 c-27 -30 -29 -65 -7 -100 17 -28 25 -33 59 -33 45 0 71 8
71 21 0 5 -17 6 -39 3 -42 -7 -81 8 -81 31 0 12 14 15 64 15 61 0 64 1 59 23
-10 38 -34 57 -73 57 -22 0 -43 -7 -53 -17z m91 -15 c22 -22 13 -28 -38 -28
-27 0 -50 4 -50 8 0 16 25 32 50 32 14 0 31 -5 38 -12z"/>
<path d="M10140 223 c-26 -33 -21 -79 11 -106 36 -29 143 -17 113 13 -9 9 -14
9 -18 1 -16 -25 -96 -5 -96 24 0 15 22 19 88 15 28 -1 32 2 32 23 0 59 -91 80
-130 30z m91 -3 c33 -18 21 -30 -31 -30 -51 0 -60 6 -38 28 15 15 43 15 69 2z"/>
<path d="M1851 174 c0 -11 3 -14 6 -6 3 7 2 16 -1 19 -3 4 -6 -2 -5 -13z"/>
<path d="M1951 174 c0 -11 3 -14 6 -6 3 7 2 16 -1 19 -3 4 -6 -2 -5 -13z"/>
<path d="M2041 164 c0 -11 3 -14 6 -6 3 7 2 16 -1 19 -3 4 -6 -2 -5 -13z"/>
<path d="M5975 113 c4 -10 14 -40 23 -67 9 -27 18 -44 19 -39 4 12 -36 123
-44 123 -3 0 -2 -8 2 -17z"/>
</g>
</svg>
