<?xml version="1.0" standalone="no"?>
<!DOCTYPE svg PUBLIC "-//W3C//DTD SVG 20010904//EN"
 "http://www.w3.org/TR/2001/REC-SVG-20010904/DTD/svg10.dtd">
<svg version="1.0" xmlns="http://www.w3.org/2000/svg"
 width="1080.000000pt" height="1080.000000pt" viewBox="0 0 1080.000000 1080.000000"
 preserveAspectRatio="xMidYMid meet">

<g transform="translate(0.000000,1080.000000) scale(0.100000,-0.100000)"
fill="#000000" stroke="none">
<path d="M0 5400 l0 -5400 5400 0 5400 0 0 1191 c0 1123 -1 1193 -17 1205 -17
13 -17 15 -1 28 17 13 18 224 18 4195 l0 4181 -5400 0 -5400 0 0 -5400z m1531
4969 c6 -12 8 -37 4 -58 -12 -66 -132 -301 -241 -468 -30 -46 -54 -85 -54 -88
0 -15 24 1 67 44 59 61 84 70 113 41 33 -33 23 -63 -23 -71 -44 -7 -90 -38
-95 -63 -6 -29 19 -76 44 -82 49 -12 164 93 164 151 0 22 36 55 60 55 36 0 45
-41 21 -94 -11 -26 -24 -45 -28 -43 -5 3 -9 -10 -10 -29 -1 -19 1 -34 4 -34
13 0 83 59 166 139 48 47 93 88 98 90 17 5 49 -31 49 -56 0 -29 5 -29 42 2 43
37 76 33 94 -10 7 -19 14 -48 14 -64 0 -38 9 -61 25 -61 13 0 108 97 144 148
41 59 120 82 142 41 7 -13 8 -39 4 -66 -9 -60 -14 -73 -31 -73 -17 0 -37 37
-30 55 12 34 -15 22 -42 -17 -51 -75 -65 -108 -51 -124 18 -21 50 -17 115 16
64 32 98 61 158 134 21 26 53 56 70 67 36 22 89 25 104 6 20 -24 24 -109 8
-156 -20 -54 -20 -61 0 -61 32 0 90 72 113 141 26 78 49 92 88 53 22 -22 25
-23 47 -9 32 21 54 10 67 -36 7 -21 20 -46 30 -55 23 -21 35 -13 90 66 68 97
149 110 149 24 0 -39 -33 -80 -107 -135 -38 -28 -53 -46 -53 -63 0 -61 69 -34
180 71 43 40 83 73 89 73 6 0 11 -14 11 -32 0 -26 -11 -43 -60 -90 -57 -56
-163 -118 -201 -118 -9 0 -28 9 -43 21 -21 17 -26 29 -26 68 0 44 -2 47 -32
56 -24 7 -38 21 -51 48 -33 66 -66 41 -108 -80 -10 -31 -26 -67 -34 -80 -26
-39 -85 -25 -85 20 0 14 -4 17 -17 11 -10 -4 -36 -9 -57 -12 -34 -4 -43 -1
-62 23 l-22 28 -34 -27 c-44 -33 -90 -35 -111 -3 l-15 24 -79 -39 c-43 -21
-91 -38 -106 -38 -35 0 -77 40 -77 75 0 31 -1 31 -55 -1 -34 -19 -48 -23 -63
-15 -29 16 -45 39 -51 78 -3 20 -11 38 -16 39 -6 1 -33 -25 -61 -59 -85 -104
-139 -114 -139 -28 0 22 -3 41 -6 41 -4 0 -28 -17 -55 -39 -96 -76 -148 -89
-182 -46 l-20 25 -25 -20 c-63 -49 -135 -46 -177 7 -11 14 -22 24 -23 22 -2
-2 -20 -40 -41 -84 -53 -114 -87 -145 -117 -109 -17 20 -6 67 59 249 27 77 68
194 91 260 84 241 201 445 256 445 14 0 29 -8 36 -21z m-380 -26 c37 -32 27
-128 -23 -231 -34 -68 -71 -102 -112 -102 -38 0 -34 36 9 94 60 78 99 176 77
190 -14 8 -137 -68 -232 -144 -105 -83 -166 -150 -192 -207 -32 -73 -14 -85
177 -118 104 -19 169 -45 184 -73 18 -34 13 -104 -10 -142 -35 -60 -145 -157
-213 -190 -75 -35 -108 -38 -137 -9 -17 17 -20 28 -14 57 16 86 103 197 148
190 38 -5 25 -54 -28 -108 -51 -51 -56 -70 -21 -70 57 0 216 140 216 191 0 54
-32 72 -155 88 -136 18 -172 30 -201 64 -51 60 -20 171 79 285 29 33 83 85
119 115 156 127 273 170 329 120z m-961 -58 c0 -8 -4 -15 -10 -15 -5 0 -10 7
-10 15 0 8 5 15 10 15 6 0 10 -7 10 -15z m9428 -179 c15 -8 41 -32 59 -54 23
-28 43 -42 68 -46 20 -4 43 -10 51 -13 9 -3 2 13 -16 39 -20 28 -30 54 -28 68
3 24 3 24 41 -9 25 -23 42 -48 50 -78 6 -25 20 -49 31 -55 17 -9 18 -7 12 37
-6 37 -5 46 6 43 19 -7 38 -48 38 -88 1 -40 48 -100 79 -100 14 0 18 -5 14
-19 -5 -19 47 -171 58 -171 3 0 20 37 38 81 24 63 29 85 20 95 -9 11 -6 14 16
14 14 0 25 -3 23 -7 -21 -43 -32 -70 -60 -143 -41 -105 -57 -112 -83 -35 -18
50 -35 72 -35 43 0 -24 -42 -98 -56 -98 -8 0 -14 6 -14 13 -1 6 -20 60 -44
120 l-43 107 33 0 c26 0 32 -3 27 -15 -5 -15 41 -161 57 -178 4 -5 16 15 25
43 17 51 17 53 -6 111 -13 33 -38 74 -56 91 l-32 31 -40 -18 c-39 -17 -111
-15 -111 4 0 13 48 31 82 31 39 0 28 13 -25 30 -35 11 -40 10 -72 -15 -35 -26
-95 -55 -115 -55 -21 0 -8 16 41 49 27 19 48 35 46 37 -1 2 -48 -2 -102 -8
-77 -9 -107 -16 -131 -34 -31 -23 -114 -48 -114 -35 0 10 82 61 100 61 21 1
-50 39 -74 40 -24 0 -126 51 -126 63 0 19 77 -6 143 -45 47 -28 84 -43 118
-46 27 -2 49 -2 49 1 0 3 -19 15 -42 25 -24 11 -52 29 -62 41 -19 21 -19 21 6
21 15 0 46 -16 74 -41 40 -32 54 -39 78 -35 16 4 38 6 50 7 20 0 20 1 -4 17
-92 63 -123 120 -42 78z m-7947 -86 c20 -11 26 -63 11 -87 -10 -15 -53 -31
-69 -26 -19 7 -16 88 3 107 18 19 28 20 55 6z m3314 -180 c3 -5 1 -10 -4 -10
-6 0 -11 5 -11 10 0 6 2 10 4 10 3 0 8 -4 11 -10z m4211 -5 c83 -34 78 -166
-7 -211 -15 -7 -54 -14 -86 -14 l-58 0 3 105 c3 73 0 110 -8 120 -11 13 -3 15
54 15 37 0 82 -7 102 -15z m259 -10 c32 -31 31 -47 -5 -89 l-30 -34 27 -34
c16 -18 31 -34 36 -36 16 -8 6 -22 -16 -22 -15 0 -33 15 -57 48 -43 58 -73 63
-78 14 -2 -18 2 -40 9 -48 10 -12 5 -14 -27 -14 -30 0 -35 3 -26 12 8 8 12 47
12 108 0 61 -4 100 -12 108 -9 9 5 12 65 12 69 0 81 -3 102 -25z m256 11 c-8
-9 -11 -48 -9 -112 l3 -99 33 -3 c25 -3 39 3 63 28 29 28 31 29 25 8 -3 -13
-6 -29 -6 -35 0 -10 -24 -13 -86 -13 -77 0 -85 2 -80 18 11 35 15 185 5 203
-9 17 -6 19 27 19 30 0 34 -2 25 -14z m-9461 -116 c0 -5 -2 -10 -4 -10 -3 0
-8 5 -11 10 -3 6 -1 10 4 10 6 0 11 -4 11 -10z m130 -44 c0 -8 -5 -18 -10 -21
-17 -11 -40 3 -34 20 8 19 44 20 44 1z m9169 -30 c9 -10 8 -16 -4 -26 -19 -16
-41 1 -32 24 8 20 21 20 36 2z m-239 -106 c0 -5 -8 -10 -17 -11 -14 0 -13 -3
5 -11 12 -6 22 -17 22 -23 0 -17 -31 -28 -44 -15 -7 7 -4 10 10 10 18 0 17 2
-4 18 -18 14 -20 20 -10 30 15 15 38 16 38 2z m109 -6 c7 9 18 16 24 16 5 0 3
-8 -7 -19 -15 -16 -15 -19 -1 -31 9 -7 13 -15 10 -18 -2 -3 -12 1 -21 8 -12
11 -17 11 -23 1 -6 -9 -10 -4 -14 16 -6 33 4 55 13 29 5 -16 7 -16 19 -2z
m107 -52 c-13 -12 -17 8 -10 40 l9 33 3 -33 c2 -19 1 -36 -2 -40z m128 28 c3
0 3 7 0 15 -4 8 -1 15 5 15 6 0 11 -13 11 -30 0 -34 -6 -37 -32 -13 -17 15
-18 15 -18 0 0 -10 -4 -17 -10 -17 -11 0 -14 53 -3 64 4 4 15 -2 24 -13 10
-12 20 -21 23 -21z m141 31 c3 -5 -5 -11 -17 -13 -31 -4 -29 -30 2 -39 22 -5
23 -7 7 -14 -21 -9 -47 10 -47 34 0 31 40 55 55 32z m120 -21 c20 -38 20 -36
-19 -36 l-34 0 16 33 c9 18 17 33 19 33 1 0 9 -13 18 -30z m134 16 c7 -8 8
-22 3 -36 -6 -16 -11 -20 -16 -11 -6 9 -11 9 -22 0 -12 -9 -14 -5 -14 25 0 29
4 36 19 36 10 0 24 -6 30 -14z m131 9 c0 -3 -10 -10 -22 -15 -18 -7 -19 -9 -5
-9 9 -1 17 -5 17 -11 0 -5 -8 -11 -17 -11 -17 -1 -17 -2 0 -6 20 -5 23 -23 4
-23 -29 0 -51 53 -30 73 8 8 53 9 53 2z m-5232 -163 c2 -7 -3 -12 -12 -12 -9
0 -16 7 -16 16 0 17 22 14 28 -4z m-3879 -136 c7 -8 39 -15 79 -18 85 -6 143
-35 179 -89 22 -34 27 -52 27 -108 1 -59 -3 -72 -33 -119 -72 -113 -229 -222
-385 -267 l-59 -16 24 -22 c13 -12 45 -39 71 -60 48 -38 240 -211 332 -298 57
-54 58 -79 2 -79 -42 0 -74 27 -319 263 -91 86 -169 157 -174 157 -8 0 -73
-184 -89 -253 -9 -40 -44 -60 -79 -47 -26 10 -27 13 -22 54 5 34 3 45 -9 50
-8 3 -12 11 -9 17 4 6 13 8 20 5 20 -7 106 213 93 237 -13 25 -4 45 24 56 16
6 31 28 47 67 13 33 51 123 84 202 33 78 58 145 54 148 -12 13 -111 -53 -160
-106 -51 -55 -117 -164 -117 -192 0 -8 -9 -23 -19 -32 -16 -14 -23 -15 -41 -6
-19 10 -22 18 -18 53 17 151 174 304 369 360 30 9 64 26 74 37 21 23 38 25 54
6z m1142 -56 c25 -14 24 -42 -2 -66 -12 -10 -28 -31 -35 -47 l-15 -27 98 7
c219 18 262 11 263 -39 0 -16 -14 -18 -147 -18 -82 0 -171 -3 -199 -6 l-51 -6
-61 -147 c-110 -262 -153 -401 -161 -521 l-6 -85 -32 -3 c-28 -3 -32 0 -38 28
-9 39 1 114 26 209 11 40 18 75 16 77 -2 3 -16 -5 -30 -16 -15 -12 -43 -24
-63 -27 -34 -6 -40 -2 -72 33 -20 21 -33 31 -29 21 8 -20 -70 -107 -96 -107
-24 0 -57 49 -57 84 0 17 14 73 31 124 17 51 29 95 26 98 -2 3 -29 -7 -59 -22
l-54 -26 -12 -78 c-17 -122 -63 -193 -124 -193 -43 0 -68 33 -68 90 0 65 19
120 54 156 17 18 35 41 41 52 6 12 23 21 40 23 17 2 58 14 92 28 151 59 198 3
138 -164 -29 -81 -31 -94 -10 -85 9 3 14 8 11 10 -7 7 28 76 67 135 36 54 62
61 79 23 9 -21 8 -32 -5 -61 -17 -34 -23 -94 -11 -94 4 0 23 10 43 22 66 39
108 88 140 162 109 259 102 236 78 236 -12 -1 -51 -7 -87 -15 -92 -20 -166
-20 -174 2 -12 30 17 41 144 58 181 23 167 16 201 92 17 37 35 73 41 80 13 16
42 17 69 3z m-1843 -11 c-2 -6 -8 -10 -13 -10 -5 0 -11 4 -13 10 -2 6 4 11 13
11 9 0 15 -5 13 -11z m4800 -198 c3 -8 -1 -12 -9 -9 -7 2 -15 10 -17 17 -3 8
1 12 9 9 7 -2 15 -10 17 -17z m-2930 -73 c21 -21 15 -75 -10 -92 -32 -22 -65
-20 -73 4 -6 19 1 75 12 93 7 11 58 8 71 -5z m1860 -81 c2 -11 -3 -17 -17 -17
-23 0 -35 15 -26 31 10 15 39 6 43 -14z m-1014 -55 c8 -13 -11 -35 -23 -28
-16 10 -14 36 3 36 8 0 17 -4 20 -8z m-214 -27 c17 -46 -28 -116 -105 -161
-59 -34 -74 -94 -24 -94 37 0 94 38 164 109 39 39 73 71 78 71 14 0 7 -56 -12
-87 -21 -34 -104 -104 -155 -130 -55 -28 -86 -33 -116 -18 -30 15 -40 33 -40
71 0 27 -16 30 -44 9 -47 -36 -98 -1 -111 75 l-7 40 -69 -74 c-39 -41 -79 -78
-90 -81 -30 -10 -49 12 -49 56 0 22 -3 39 -6 39 -3 0 -26 -16 -50 -34 -73 -56
-127 -78 -158 -66 -46 17 -53 50 -27 138 12 42 30 85 38 95 23 25 61 22 74 -7
9 -19 6 -34 -20 -86 -32 -63 -38 -90 -22 -90 5 0 63 52 130 115 66 63 126 115
132 115 21 0 49 -32 49 -57 l0 -23 42 30 c22 16 46 30 53 30 23 0 44 -36 51
-90 4 -30 11 -61 16 -67 15 -19 60 17 114 93 55 77 87 104 126 104 21 0 31 -6
38 -25z m2330 -1 c0 -16 -16 -19 -25 -4 -8 13 4 32 16 25 5 -4 9 -13 9 -21z
m210 -229 c0 -8 -4 -15 -10 -15 -5 0 -10 7 -10 15 0 8 5 15 10 15 6 0 10 -7
10 -15z m-5050 -45 c0 -5 -4 -10 -10 -10 -5 0 -10 5 -10 10 0 6 5 10 10 10 6
0 10 -4 10 -10z m5188 -113 c2 -10 -3 -17 -12 -17 -10 0 -16 9 -16 21 0 24 23
21 28 -4z m-2150 -43 c4 -27 -26 -40 -46 -20 -21 20 -8 48 20 44 14 -2 24 -11
26 -24z m1062 -10 c0 -8 -4 -14 -10 -14 -5 0 -10 9 -10 21 0 11 5 17 10 14 6
-3 10 -13 10 -21z m954 -6 c12 -20 2 -35 -29 -40 -12 -2 -21 3 -23 15 -9 45
28 63 52 25z m-1053 -104 c11 -14 10 -18 -5 -29 -22 -17 -46 -9 -46 14 0 34
28 42 51 15z m5427 -2 c2 -7 -3 -12 -12 -12 -9 0 -16 7 -16 16 0 17 22 14 28
-4z m-6443 -32 c8 -13 -14 -42 -26 -34 -5 3 -9 14 -9 25 0 20 24 26 35 9z
m1308 -85 c1 -5 -6 -11 -15 -13 -11 -2 -18 3 -18 13 0 17 30 18 33 0z m-3693
-30 c0 -8 -4 -15 -10 -15 -5 0 -10 7 -10 15 0 8 5 15 10 15 6 0 10 -7 10 -15z
m4593 1 c7 -18 -1 -26 -25 -26 -18 0 -25 20 -11 33 11 12 31 8 36 -7z m-4713
-72 c0 -17 -22 -14 -28 4 -2 7 3 12 12 12 9 0 16 -7 16 -16z m2649 -38 c4 -23
-24 -47 -45 -39 -8 3 -14 18 -14 35 0 26 3 29 27 26 18 -2 29 -10 32 -22z
m-2419 -22 c0 -8 -4 -14 -9 -14 -11 0 -22 26 -14 34 9 9 23 -3 23 -20z m110
-75 c0 -22 -13 -31 -34 -23 -15 6 -22 35 -10 46 11 12 44 -5 44 -23z m2450 -9
c0 -5 -5 -10 -11 -10 -5 0 -7 5 -4 10 3 6 8 10 11 10 2 0 4 -4 4 -10z m980
-25 c10 -12 10 -18 0 -30 -17 -20 -37 -19 -48 3 -19 37 21 60 48 27z m-806
-41 c24 -9 21 -54 -4 -54 -23 0 -35 22 -26 45 6 17 8 17 30 9z m-2804 -95 c0
-5 -4 -9 -10 -9 -5 0 -10 7 -10 16 0 8 5 12 10 9 6 -3 10 -10 10 -16z m4705
-9 c0 -22 -29 -18 -33 3 -3 14 1 18 15 15 10 -2 18 -10 18 -18z m-1793 -105
l3 -55 38 26 c50 37 61 21 13 -20 l-39 -32 42 -34 c22 -19 41 -38 41 -42 0
-18 -27 -6 -62 29 l-38 37 0 -37 c0 -26 -4 -37 -15 -37 -12 0 -15 19 -15 110
0 89 3 110 15 110 10 0 15 -15 17 -55z m328 40 c0 -8 -7 -15 -15 -15 -8 0 -15
7 -15 15 0 8 7 15 15 15 8 0 15 -7 15 -15z m470 1 c0 -8 -5 -18 -11 -22 -14
-8 -33 11 -25 25 10 16 36 13 36 -3z m250 -20 c0 -34 0 -34 38 -29 56 8 72
-13 72 -93 0 -81 -16 -84 -22 -3 -3 38 -10 64 -19 70 -41 26 -69 -6 -69 -77 0
-41 -4 -54 -15 -54 -12 0 -15 18 -15 103 0 57 3 107 7 110 15 15 23 5 23 -27z
m198 1 c2 -19 9 -27 23 -27 10 0 19 -7 19 -15 0 -8 -9 -15 -21 -15 -18 0 -20
-5 -17 -52 3 -46 6 -53 26 -56 29 -4 18 -22 -13 -22 -31 0 -45 26 -45 83 0 31
-5 47 -15 51 -8 3 -15 10 -15 16 0 5 7 10 15 10 10 0 15 10 15 31 0 38 24 35
28 -4z m462 18 c0 -8 -7 -15 -15 -15 -8 0 -15 7 -15 15 0 8 7 15 15 15 8 0 15
-7 15 -15z m610 0 c17 -9 30 -17 30 -19 0 -3 3 -11 6 -20 9 -23 -19 -20 -41 4
-10 11 -28 20 -41 20 -37 0 -54 -26 -54 -82 0 -78 37 -108 88 -72 31 21 29 54
-3 54 -14 0 -25 6 -25 13 0 9 12 13 38 13 35 -2 37 -4 40 -38 2 -29 -2 -40
-24 -57 -37 -29 -88 -28 -119 4 -21 20 -25 34 -25 80 0 49 4 60 29 86 33 33
58 36 101 14z m110 -95 c0 -91 -3 -110 -15 -110 -12 0 -15 18 -15 103 0 57 3
107 7 110 18 19 23 -2 23 -103z m770 95 c0 -8 -7 -15 -15 -15 -8 0 -15 7 -15
15 0 8 7 15 15 15 8 0 15 -7 15 -15z m258 -22 c3 -30 5 -31 41 -26 32 4 41 1
55 -18 22 -32 23 -139 1 -139 -12 0 -15 13 -15 60 0 49 -3 61 -20 70 -14 8
-26 8 -40 0 -17 -9 -20 -21 -20 -70 0 -47 -3 -60 -15 -60 -12 0 -15 19 -15
111 0 84 3 110 13 107 6 -3 13 -18 15 -35z m192 7 c0 -26 4 -30 26 -30 31 0
28 -23 -4 -28 -19 -3 -22 -10 -22 -53 0 -44 3 -49 25 -55 31 -8 33 -24 2 -24
-35 0 -47 19 -47 76 0 44 -3 52 -21 57 -23 6 -17 27 7 27 9 0 14 11 14 30 0
17 5 30 10 30 6 0 10 -13 10 -30z m279 15 c39 -20 57 -65 26 -65 -8 0 -15 4
-15 9 0 18 -31 41 -55 41 -39 0 -55 -25 -55 -85 0 -47 3 -57 25 -71 21 -14 31
-15 51 -6 13 7 27 19 30 27 7 16 34 21 34 6 0 -6 -10 -21 -22 -34 -18 -20 -36
-26 -85 -30 -40 -3 -65 -1 -70 6 -3 6 -2 12 3 14 5 2 8 36 6 76 -3 75 4 93 43
115 27 15 51 15 84 -3z m2239 -18 c2 -19 9 -27 23 -27 25 0 24 -20 -1 -27 -18
-5 -21 -12 -18 -57 3 -44 6 -51 26 -54 29 -4 18 -22 -13 -22 -31 0 -45 26 -45
83 0 31 -5 47 -15 51 -8 3 -15 10 -15 16 0 5 7 10 15 10 10 0 15 10 15 31 0
38 24 35 28 -4z m102 18 c0 -8 -7 -15 -15 -15 -8 0 -15 7 -15 15 0 8 7 15 15
15 8 0 15 -7 15 -15z m-6510 -15 c44 -44 3 -110 -70 -110 l-40 0 0 -40 c0 -29
-4 -40 -15 -40 -12 0 -15 18 -15 105 l0 105 60 0 c47 0 64 -4 80 -20z m834 -2
c20 -28 20 -43 1 -61 -13 -13 -13 -16 0 -27 8 -7 15 -25 15 -41 0 -40 -32 -59
-102 -59 l-58 0 0 105 0 105 64 0 c56 0 67 -3 80 -22z m2445 -48 c24 -39 47
-70 51 -70 4 0 5 32 2 70 -4 60 -2 70 12 70 14 0 16 -15 16 -106 0 -80 -3
-105 -12 -102 -7 3 -35 38 -63 79 l-50 74 -3 -77 c-4 -117 -22 -95 -22 27 0
77 3 105 13 105 6 0 32 -32 56 -70z m-5969 35 c0 -8 -6 -15 -14 -15 -17 0 -28
14 -19 24 12 12 33 6 33 -9z m2842 -32 c14 -12 18 -31 18 -80 l0 -63 -53 0
c-58 0 -77 12 -77 46 0 27 12 36 60 44 22 3 36 12 38 23 5 25 -26 32 -59 13
-23 -13 -29 -14 -29 -4 0 38 68 52 102 21z m322 1 c11 -11 16 -34 16 -78 l0
-62 -56 1 c-47 0 -59 4 -71 22 -13 19 -12 24 6 42 12 12 31 21 44 21 31 0 51
15 44 34 -8 20 -41 21 -57 1 -15 -18 -30 -19 -30 -2 0 36 74 51 104 21z m96
-64 c0 -64 -3 -80 -15 -80 -12 0 -15 16 -15 80 0 64 3 80 15 80 12 0 15 -16
15 -80z m407 67 c-2 -6 -14 -14 -28 -17 -22 -5 -24 -12 -27 -68 -2 -46 -7 -62
-17 -62 -12 0 -15 16 -15 78 l0 77 46 2 c30 1 44 -2 41 -10z m58 -67 c0 -50
-4 -75 -12 -77 -10 -4 -13 16 -13 77 0 61 3 81 13 78 8 -3 12 -28 12 -78z
m185 -12 c0 -81 -2 -91 -25 -113 -13 -14 -35 -25 -47 -25 -29 0 -68 26 -68 46
0 18 14 18 30 -1 23 -28 80 -13 80 22 0 9 -8 11 -25 7 -77 -19 -125 65 -75
129 18 23 28 26 75 25 l55 -2 0 -88z m459 66 c12 -15 21 -35 21 -45 0 -16 -8
-19 -56 -19 -46 0 -55 -3 -52 -16 5 -29 34 -40 62 -24 32 16 49 4 22 -16 -31
-22 -82 -18 -100 8 -23 32 -20 94 4 118 29 29 74 26 99 -6z m181 6 c26 -26 30
-140 5 -140 -11 0 -15 13 -15 54 0 36 -5 60 -16 70 -18 19 -20 19 -45 6 -15
-9 -19 -22 -19 -70 0 -47 -3 -60 -15 -60 -12 0 -15 15 -15 78 l0 77 50 2 c39
2 55 -2 70 -17z m90 -60 c0 -64 -3 -80 -15 -80 -12 0 -15 16 -15 80 0 64 3 80
15 80 12 0 15 -16 15 -80z m164 61 c21 -23 28 -132 9 -138 -10 -3 -13 11 -13
50 0 41 -5 58 -20 72 -18 17 -21 17 -45 1 -22 -14 -25 -24 -25 -72 0 -40 -4
-55 -12 -52 -13 4 -24 118 -15 142 3 6 27 13 54 14 38 1 54 -3 67 -17z m204
-47 c6 -108 -19 -164 -72 -164 -29 0 -85 43 -68 53 6 4 17 0 25 -8 22 -21 64
-19 77 4 15 30 13 32 -29 25 -52 -8 -81 19 -81 76 0 59 26 81 92 77 l53 -3 3
-60z m516 44 c21 -30 20 -96 -1 -120 -24 -27 -87 -24 -107 4 -23 32 -20 94 4
118 28 28 84 27 104 -2z m86 -36 c8 -29 18 -52 21 -52 4 0 12 23 19 50 19 80
39 77 62 -7 7 -24 15 -43 19 -43 4 0 10 18 14 39 7 43 29 80 41 69 12 -12 -39
-153 -56 -153 -8 0 -20 19 -29 48 -8 26 -17 47 -21 47 -4 0 -13 -21 -21 -47
-21 -67 -39 -62 -66 17 -25 77 -27 93 -10 88 6 -3 19 -28 27 -56z m520 -22 c0
-64 -3 -80 -15 -80 -12 0 -15 16 -15 80 0 64 3 80 15 80 12 0 15 -16 15 -80z
m180 -13 c0 -49 -4 -97 -10 -107 -19 -36 -98 -34 -122 4 -12 19 4 27 22 11 26
-24 74 -16 78 12 3 20 0 21 -31 16 -27 -4 -40 0 -56 16 -25 25 -28 86 -6 119
14 18 24 21 70 19 l55 -2 0 -88z m708 78 c2 -5 -5 -12 -15 -14 -34 -6 -43 -23
-43 -78 0 -39 -4 -53 -12 -50 -12 3 -22 115 -14 142 2 6 21 10 42 10 22 0 40
-4 42 -10z m145 -2 c8 -10 19 -30 22 -45 l7 -28 -61 0 c-59 0 -61 -1 -51 -21
15 -28 37 -34 66 -19 30 17 46 3 20 -16 -31 -22 -82 -18 -100 8 -23 32 -20 94
4 118 25 25 72 26 93 3z m161 1 c11 -11 16 -34 16 -77 l0 -62 -52 -2 c-58 -3
-78 8 -78 43 0 25 18 37 73 48 30 7 37 33 11 43 -9 3 -29 -2 -45 -11 -23 -13
-29 -14 -29 -4 0 37 74 53 104 22z m172 5 c9 -7 19 -7 33 0 57 31 91 -4 91
-91 0 -44 -4 -58 -15 -58 -10 0 -15 16 -17 61 -2 45 -8 65 -20 72 -30 19 -48
-8 -48 -74 0 -46 -3 -59 -15 -59 -12 0 -15 13 -15 59 0 67 -15 90 -49 71 -18
-9 -21 -20 -21 -70 0 -47 -3 -60 -15 -60 -12 0 -15 15 -15 78 l0 78 47 2 c25
1 52 -3 59 -9z m340 -3 c26 -19 13 -30 -19 -15 -14 6 -33 9 -41 6 -25 -10 -18
-34 12 -42 38 -9 72 -33 72 -50 0 -40 -75 -60 -116 -31 -26 19 -10 33 20 17
13 -7 32 -11 42 -9 30 5 22 32 -14 44 -18 5 -40 17 -49 26 -15 16 -15 19 1 42
19 30 60 35 92 12z m173 -12 c12 -15 21 -35 21 -45 0 -16 -8 -19 -56 -19 -46
0 -55 -3 -52 -16 5 -29 34 -40 62 -24 32 16 49 4 22 -16 -27 -19 -75 -18 -98
3 -26 23 -25 96 2 123 29 29 74 26 99 -6z m165 7 c27 -29 9 -48 -19 -21 -29
27 -62 19 -71 -17 -15 -59 32 -105 69 -69 16 16 37 21 37 9 0 -19 -37 -43 -66
-43 -36 0 -61 19 -70 56 -8 30 1 68 22 88 22 22 77 20 98 -3z m165 5 c6 -7 12
-42 13 -76 l3 -64 -40 -3 c-56 -4 -83 4 -90 28 -9 28 10 48 61 60 48 12 53 19
28 40 -13 11 -21 11 -44 -3 -34 -19 -47 -12 -23 14 19 21 75 24 92 4z m142 -1
c0 -5 -10 -12 -23 -15 -21 -5 -23 -12 -26 -68 -2 -46 -7 -62 -17 -62 -12 0
-15 16 -15 78 l0 78 40 0 c22 -1 40 -5 41 -11z m133 -1 c11 -11 16 -34 16 -77
l0 -62 -52 -2 c-58 -3 -78 8 -78 43 0 25 18 37 73 48 30 7 37 33 11 43 -9 3
-29 -2 -45 -11 -23 -13 -29 -14 -29 -4 0 37 74 53 104 22z m226 0 c0 -8 -10
-14 -24 -14 -19 0 -24 -6 -30 -37 -3 -21 -6 -50 -6 -65 0 -18 -5 -28 -15 -28
-12 0 -15 15 -15 73 0 41 2 76 5 78 2 3 22 5 45 6 29 1 40 -2 40 -13z m62 -45
c3 -69 22 -94 56 -73 12 8 18 27 20 73 2 45 7 61 17 61 12 0 15 -16 15 -77 l0
-78 -55 -2 c-46 -2 -56 1 -70 19 -20 30 -21 138 0 138 10 0 15 -16 17 -61z
m298 -19 c0 -64 -3 -80 -15 -80 -12 0 -15 15 -15 73 0 41 3 77 7 80 17 18 23
0 23 -73z m175 58 c21 -31 21 -138 0 -138 -11 0 -15 13 -15 54 0 59 -14 80
-52 74 -21 -3 -23 -9 -26 -65 -2 -47 -7 -63 -17 -63 -12 0 -15 16 -15 78 l0
77 55 2 c46 2 56 -1 70 -19z m-9205 -8 c0 -11 -4 -20 -10 -20 -5 0 -10 9 -10
20 0 11 5 20 10 20 6 0 10 -9 10 -20z m3775 -161 c10 -15 -1 -23 -20 -15 -9 3
-13 10 -10 16 8 13 22 13 30 -1z m-695 -154 c0 -33 1 -34 25 -25 55 21 98 -27
87 -98 -6 -44 -35 -62 -92 -57 l-45 3 -3 106 c-2 90 0 106 13 106 11 0 15 -10
15 -35z m170 19 c0 -9 -5 -14 -12 -12 -18 6 -21 28 -4 28 9 0 16 -7 16 -16z
m1190 -15 c0 -30 1 -31 34 -25 51 10 81 -19 81 -79 0 -63 -27 -86 -93 -81
l-47 4 -3 93 c-1 51 -1 98 2 106 10 24 26 13 26 -18z m542 4 c2 -20 9 -29 26
-31 27 -4 29 -22 2 -22 -18 0 -20 -7 -20 -55 0 -48 2 -55 20 -55 11 0 20 -4
20 -9 0 -17 -18 -21 -44 -11 -24 9 -26 14 -26 70 0 47 -3 60 -15 60 -8 0 -15
5 -15 10 0 6 7 10 15 10 10 0 15 10 15 30 0 38 18 40 22 3z m1078 -4 c0 -29 2
-31 27 -26 42 8 70 -8 82 -46 24 -73 -12 -118 -89 -112 l-45 3 -3 106 c-2 90
0 106 13 106 10 0 15 -10 15 -31z m552 4 c2 -20 9 -29 26 -31 12 -2 22 -7 22
-12 0 -5 -10 -10 -22 -12 -17 -2 -24 -11 -26 -32 -5 -45 6 -76 28 -76 11 0 20
-7 20 -15 0 -18 -9 -19 -44 -5 -24 9 -26 14 -26 70 0 53 -2 60 -20 60 -11 0
-20 4 -20 9 0 5 9 11 20 14 14 3 20 14 20 31 0 35 18 33 22 -1z m180 -30 l3
-56 31 26 c18 15 40 27 50 27 14 0 9 -9 -21 -34 l-40 -34 38 -39 c20 -21 37
-42 37 -46 0 -16 -22 -5 -59 29 l-40 35 -3 -33 c-2 -18 -7 -33 -13 -33 -10 0
-20 178 -11 202 12 30 25 9 28 -44z m336 -50 c-2 -64 -7 -108 -13 -108 -6 0
-11 44 -13 108 -2 92 0 107 13 107 13 0 15 -15 13 -107z m72 91 c0 -17 -22
-14 -28 4 -2 7 3 12 12 12 9 0 16 -7 16 -16z m90 -14 c0 -23 4 -30 20 -30 11
0 20 -4 20 -10 0 -5 -9 -10 -20 -10 -18 0 -20 -7 -20 -55 0 -52 1 -55 26 -55
27 0 30 -23 3 -28 -31 -6 -52 24 -57 82 -3 39 -9 56 -18 56 -8 0 -14 5 -14 10
0 6 7 10 15 10 10 0 15 10 15 30 0 20 5 30 15 30 10 0 15 -10 15 -30z m190 0
c0 -25 4 -30 25 -30 14 0 25 -4 25 -10 0 -5 -11 -10 -26 -10 -24 0 -25 -2 -22
-52 3 -46 6 -53 26 -56 12 -2 22 -7 22 -12 0 -16 -18 -20 -44 -10 -24 9 -26
14 -26 70 0 53 -2 60 -20 60 -11 0 -20 5 -20 10 0 6 9 10 20 10 16 0 20 7 20
30 0 17 5 30 10 30 6 0 10 -13 10 -30z m890 -19 c0 -60 10 -68 40 -36 13 14
33 25 44 25 18 0 14 -6 -19 -34 l-40 -34 39 -41 c50 -51 39 -68 -12 -18 -21
20 -41 37 -46 37 -4 0 -6 -14 -4 -32 2 -18 -2 -33 -9 -35 -10 -4 -13 22 -13
106 0 67 4 111 10 111 6 0 10 -22 10 -49z m230 -62 c0 -84 -3 -110 -12 -107
-9 3 -14 37 -16 111 -2 91 0 107 13 107 13 0 15 -18 15 -111z m250 76 c0 -33
1 -34 25 -25 30 11 70 -1 79 -25 3 -9 6 -36 6 -61 0 -55 -25 -74 -90 -69 l-45
3 -3 106 c-2 90 0 106 13 106 11 0 15 -10 15 -35z m180 19 c0 -17 -22 -14 -28
4 -2 7 3 12 12 12 9 0 16 -7 16 -16z m80 -19 c0 -33 1 -34 27 -24 22 8 32 6
52 -9 23 -17 26 -26 26 -81 0 -77 -18 -81 -25 -5 -6 64 -26 88 -57 68 -13 -8
-20 -29 -23 -69 -3 -34 -10 -60 -17 -63 -10 -3 -13 23 -13 107 0 92 3 111 15
111 10 0 15 -11 15 -35z m-6382 2 c2 -12 -3 -17 -17 -17 -15 0 -21 6 -21 21 0
25 33 22 38 -4z m673 -36 l24 -20 -45 2 c-59 3 -61 -21 -3 -40 52 -18 66 -48
33 -75 -37 -30 -110 -18 -110 18 0 13 4 13 30 -3 23 -13 35 -15 47 -7 30 19
25 33 -16 45 -23 7 -46 18 -52 25 -15 18 -1 54 24 64 33 13 43 12 68 -9z m176
-9 c8 -11 12 -39 10 -75 l-2 -59 -51 -4 c-58 -4 -91 18 -79 54 6 20 51 42 87
42 28 0 18 34 -11 38 -13 2 -28 -1 -34 -7 -17 -17 -37 -13 -30 5 13 36 84 40
110 6z m225 17 c15 -8 27 -8 44 2 21 11 28 10 52 -8 22 -17 28 -29 30 -73 5
-77 -1 -86 -38 -60 -35 25 -39 53 -8 74 18 13 19 18 8 31 -7 9 -23 15 -34 13
-18 -3 -22 -12 -26 -67 -7 -90 -30 -96 -30 -8 0 57 -3 66 -20 72 -35 11 -50
-12 -50 -76 0 -46 -3 -59 -15 -59 -12 0 -15 15 -15 79 l0 80 33 4 c17 2 36 5
40 5 5 1 18 -3 29 -9z m291 -21 c9 -11 17 -31 17 -44 0 -22 -4 -24 -55 -24
-58 0 -71 -14 -40 -40 13 -11 21 -10 43 1 15 7 30 15 35 17 17 8 5 -28 -12
-38 -55 -29 -111 5 -111 66 0 44 15 72 43 84 29 11 58 3 80 -22z m143 18 c13
-10 25 -11 35 -5 8 5 26 9 41 9 40 0 60 -36 56 -102 -4 -68 -22 -65 -26 6 -3
59 -19 81 -51 71 -17 -5 -21 -16 -23 -68 -4 -76 -22 -78 -26 -3 -3 59 -19 81
-51 71 -17 -5 -21 -16 -23 -67 -2 -38 -8 -63 -15 -66 -10 -3 -13 17 -13 77 l0
80 33 4 c17 2 34 5 37 5 3 1 15 -4 26 -12z m471 -8 c8 -6 13 -36 13 -77 l0
-66 -50 -2 c-40 -2 -55 2 -71 18 -18 18 -19 23 -6 42 8 13 31 26 56 31 29 7
41 15 39 25 -4 19 -46 27 -61 12 -15 -15 -27 -14 -27 2 0 32 75 42 107 15z
m181 -6 c7 -9 12 -44 12 -80 0 -46 -3 -63 -12 -60 -8 3 -14 28 -16 66 -3 56
-5 62 -28 68 -37 9 -53 -11 -56 -72 -4 -80 -23 -66 -26 20 l-3 75 31 -1 c17
-1 33 2 37 6 10 9 46 -4 61 -22z m537 15 c15 -12 23 -12 47 0 25 13 32 13 53
-1 23 -15 25 -23 25 -86 0 -40 -4 -70 -10 -70 -6 0 -10 26 -10 59 0 62 -14 86
-47 79 -14 -3 -19 -16 -23 -67 -7 -87 -30 -96 -30 -13 0 63 -14 87 -47 80 -14
-3 -19 -16 -23 -67 -3 -39 -10 -66 -17 -69 -10 -3 -13 17 -13 77 l0 80 33 4
c17 2 35 5 38 5 3 1 13 -4 24 -11z m283 -11 c7 -7 14 -26 15 -42 2 -29 1 -29
-57 -34 l-58 -5 20 -25 c18 -23 21 -23 48 -10 16 8 32 16 37 18 4 2 7 -4 7
-12 0 -17 -37 -36 -71 -36 -34 0 -59 36 -59 84 0 36 5 48 27 66 29 22 66 21
91 -4z m157 11 c15 -12 23 -12 47 0 25 13 32 13 53 -1 23 -15 25 -23 25 -86 0
-40 -4 -70 -10 -70 -5 0 -10 23 -10 51 0 60 -13 89 -41 89 -24 0 -39 -36 -39
-96 0 -46 -14 -59 -25 -24 -4 11 -5 38 -4 60 4 44 -9 64 -37 58 -21 -4 -32
-35 -33 -95 -1 -24 -5 -43 -11 -43 -6 0 -10 34 -10 81 0 72 2 80 18 75 9 -3
24 -1 32 4 20 13 23 12 45 -3z m633 -3 c19 -13 22 -24 22 -82 l0 -67 -47 -2
c-58 -2 -83 10 -83 41 0 28 15 42 55 51 57 13 58 14 45 30 -15 18 -51 20 -68
3 -14 -14 -27 -4 -17 12 7 12 41 28 60 29 6 1 21 -6 33 -15z m1170 -6 c7 -7
12 -35 12 -73 l0 -63 -43 -6 c-54 -8 -75 -1 -83 30 -8 32 10 52 55 60 47 9 51
12 44 29 -6 17 -63 21 -63 5 0 -5 -7 -10 -16 -10 -22 0 -12 23 17 37 24 13 53
9 77 -9z m157 8 c15 -11 23 -11 43 0 24 12 46 10 70 -9 18 -14 17 -137 -3
-137 -10 0 -15 16 -17 62 -3 53 -6 63 -22 66 -29 6 -46 -25 -46 -86 0 -78 -24
-64 -30 19 -4 53 -8 64 -24 67 -29 6 -46 -25 -46 -86 0 -38 -4 -52 -12 -50 -9
3 -14 31 -16 83 -3 72 -2 77 16 73 11 -3 26 -2 33 3 20 12 32 11 54 -5z m289
-7 c21 -17 26 -29 26 -65 0 -59 -28 -89 -76 -79 -33 6 -34 5 -34 -25 0 -20 -5
-30 -15 -30 -12 0 -15 18 -15 106 0 99 1 106 19 101 10 -2 25 -1 32 4 21 13
34 11 63 -12z m174 -1 c7 -7 12 -36 12 -80 0 -56 -3 -68 -13 -60 -8 7 -18 7
-27 2 -35 -23 -90 3 -90 41 0 22 48 49 85 49 20 0 26 4 23 17 -4 23 -34 28
-64 12 -26 -13 -41 -8 -29 11 17 28 72 32 103 8z m467 -3 c14 -13 25 -36 25
-50 0 -24 -3 -25 -55 -25 -57 0 -66 -8 -39 -34 19 -20 29 -20 58 0 31 20 44 1
14 -20 -34 -24 -73 -20 -97 10 -35 45 -24 116 22 134 35 14 46 12 72 -15z
m-8580 -3 c0 -18 -20 -15 -23 4 -3 10 1 15 10 12 7 -3 13 -10 13 -16z m3075
-62 c0 -84 -13 -107 -24 -42 -11 69 -7 122 9 122 12 0 15 -16 15 -80z m1840
20 c0 -49 3 -61 20 -70 14 -8 26 -8 40 0 17 9 20 21 20 70 0 47 3 60 15 60 12
0 15 -16 15 -80 0 -73 -9 -97 -25 -70 -4 6 -12 6 -24 -2 -27 -16 -70 -2 -81
28 -16 42 -13 124 5 124 12 0 15 -13 15 -60z m190 51 c0 -12 -20 -25 -27 -18
-7 7 6 27 18 27 5 0 9 -4 9 -9z m960 -33 c0 -74 8 -89 44 -86 28 3 31 6 34 43
7 111 32 116 32 7 l0 -78 -37 -1 c-83 -3 -103 18 -103 107 0 38 4 50 15 50 11
0 15 -11 15 -42z m710 -17 c0 -72 16 -92 55 -67 22 14 25 24 25 71 0 43 3 55
15 55 13 0 15 -13 13 -76 l-3 -76 -45 -3 c-72 -6 -90 12 -90 90 0 51 3 65 15
65 12 0 15 -13 15 -59z m250 -22 c0 -53 -4 -79 -11 -77 -6 2 -10 7 -10 11 1 4
1 39 1 77 0 40 4 70 10 70 6 0 10 -34 10 -81z m1828 4 c-2 -44 -7 -78 -13 -78
-6 0 -11 34 -13 78 -2 65 0 77 13 77 13 0 15 -12 13 -77z m-8889 -84 c14 -40
14 -39 -3 -39 -15 0 -26 21 -26 51 0 30 17 22 29 -12z m3629 -57 c2 -7 -3 -12
-12 -12 -9 0 -16 7 -16 16 0 17 22 14 28 -4z m3012 -3 c0 -5 -7 -9 -15 -9 -15
0 -20 12 -9 23 8 8 24 -1 24 -14z m-2640 -49 c0 -23 -35 -28 -43 -6 -7 18 1
26 25 26 11 0 18 -7 18 -20z m5458 -22 c19 -19 14 -28 -13 -28 -24 0 -34 18
-18 33 9 10 17 9 31 -5z m-4350 -46 c3 -29 5 -30 36 -25 48 8 76 -23 76 -80 0
-59 -21 -77 -88 -76 l-52 2 0 109 c0 83 3 109 13 106 6 -3 13 -18 15 -36z
m392 28 c0 -5 -4 -10 -10 -10 -5 0 -10 5 -10 10 0 6 5 10 10 10 6 0 10 -4 10
-10z m410 -25 c0 -35 0 -35 38 -29 57 9 72 -11 72 -93 0 -78 -21 -84 -24 -7
-1 48 -17 84 -37 84 -5 0 -18 -9 -29 -20 -15 -15 -20 -33 -20 -70 0 -38 -4
-50 -15 -50 -12 0 -15 18 -15 103 0 57 3 107 7 110 15 15 23 5 23 -28z m1863
-75 l1 -104 -56 -4 c-64 -3 -77 7 -85 65 -9 67 44 111 98 83 17 -10 19 -7 19
30 0 27 4 40 11 38 8 -3 12 -40 12 -108z m827 75 c0 -36 0 -36 35 -29 56 10
75 -14 75 -93 0 -49 -3 -63 -15 -63 -12 0 -15 13 -15 59 0 72 -16 92 -55 67
-22 -14 -25 -24 -25 -71 0 -42 -3 -55 -15 -55 -12 0 -15 18 -15 103 0 57 3
107 7 110 15 15 23 5 23 -28z m370 0 c0 -16 7 -25 20 -27 29 -4 30 -22 2 -26
-21 -3 -23 -8 -20 -55 3 -45 6 -52 26 -55 33 -5 27 -22 -8 -22 -35 0 -50 27
-50 91 0 28 -4 39 -15 39 -8 0 -15 5 -15 10 0 6 7 10 15 10 10 0 15 10 15 28
0 16 3 32 6 35 12 11 24 -3 24 -28z m-6132 -38 c2 -10 -3 -17 -12 -17 -18 0
-29 16 -21 31 9 14 29 6 33 -14z m2530 -4 c11 -10 23 -30 26 -45 l6 -28 -60 0
c-64 0 -66 -1 -50 -31 12 -22 41 -25 70 -7 24 15 37 4 20 -17 -13 -16 -76 -20
-97 -7 -19 12 -34 63 -28 94 12 52 74 75 113 41z m153 2 c0 -5 -10 -12 -23
-15 -20 -5 -24 -13 -28 -65 -4 -44 -9 -60 -20 -60 -17 0 -26 67 -16 120 6 29
9 31 46 31 22 -1 40 -5 41 -11z m140 -6 c15 -15 18 -24 10 -32 -8 -8 -17 -5
-31 11 -24 26 -30 27 -54 9 -13 -9 -17 -23 -14 -51 5 -58 31 -69 80 -34 26 19
35 0 11 -24 -26 -26 -77 -27 -104 -2 -27 24 -26 97 1 124 26 26 74 26 101 -1z
m150 11 c16 -9 19 -22 19 -79 l0 -68 -56 1 c-95 2 -103 56 -13 85 56 17 56 18
36 38 -14 15 -20 15 -44 3 -15 -8 -31 -16 -35 -18 -14 -7 -8 16 8 32 18 18 56
21 85 6z m361 -7 c14 -12 18 -31 18 -78 l0 -62 -52 -1 c-57 -2 -71 4 -81 31
-8 21 25 57 52 57 30 0 51 11 51 25 0 22 -39 29 -59 11 -22 -20 -31 -20 -31
-1 0 33 71 47 102 18z m94 -40 l26 -58 27 55 c14 30 31 53 36 52 13 -5 11 -9
-37 -119 -23 -54 -46 -93 -54 -93 -12 0 -12 5 0 35 14 33 14 39 -14 101 -32
71 -35 84 -20 84 6 0 22 -26 36 -57z m232 41 c19 -13 22 -24 22 -78 l0 -63
-60 -2 c-50 -1 -61 2 -70 19 -7 14 -8 26 0 39 10 19 18 23 73 35 31 7 34 18
11 37 -13 10 -20 10 -44 -4 -35 -21 -50 -5 -18 17 28 20 57 20 86 0z m317 -4
c20 -22 7 -27 -25 -10 -10 5 -26 7 -34 4 -28 -11 -17 -32 22 -44 34 -11 62
-34 62 -51 0 -35 -95 -54 -120 -24 -16 20 -5 32 14 16 19 -16 71 -10 71 8 0 7
-20 21 -45 30 -31 11 -46 23 -48 37 -7 49 68 73 103 34z m165 0 c11 -11 20
-31 20 -45 0 -24 -3 -25 -55 -25 -59 0 -60 -1 -45 -31 11 -20 54 -26 65 -9 8
13 35 13 35 0 0 -20 -61 -39 -91 -28 -52 18 -62 111 -16 143 30 21 63 19 87
-5z m146 9 c4 -8 9 -8 17 0 23 23 27 8 27 -88 0 -92 -2 -101 -22 -115 -31 -22
-74 -20 -98 4 -30 30 -14 44 21 18 33 -25 62 -17 67 19 2 16 -2 19 -33 15 -51
-6 -75 18 -75 75 0 30 6 49 20 63 22 22 65 27 76 9z m198 -5 c11 -11 16 -34
16 -78 l0 -63 -56 1 c-97 2 -103 56 -9 86 45 15 47 17 31 33 -21 21 -40 22
-56 2 -16 -19 -30 -19 -30 0 0 33 76 47 104 19z m156 1 c0 -8 -12 -15 -27 -17
-27 -3 -28 -6 -31 -65 -2 -47 -7 -63 -17 -63 -12 0 -15 16 -15 73 0 41 2 76 4
78 3 2 23 5 45 6 28 1 41 -3 41 -12z m441 5 c16 -9 19 -22 19 -78 l0 -68 -55
-2 c-51 -2 -56 0 -67 24 -11 23 -10 29 11 45 13 11 33 19 45 19 11 0 28 5 36
10 13 8 13 12 -3 27 -17 17 -19 17 -47 1 -34 -19 -47 -12 -23 14 18 20 54 23
84 8z m185 -4 c25 -19 35 -146 10 -146 -13 0 -16 11 -16 53 0 55 -6 71 -30 79
-35 12 -50 -10 -50 -72 0 -47 -3 -60 -15 -60 -12 0 -15 15 -15 78 l0 77 49 2
c28 1 56 -4 67 -11z m245 -6 c27 -22 13 -26 -26 -8 -21 10 -29 9 -42 -5 -20
-19 -20 -19 31 -38 47 -17 66 -41 50 -66 -19 -31 -114 -29 -114 2 0 17 16 20
25 5 3 -5 19 -10 36 -10 47 0 38 32 -13 50 -33 11 -44 21 -46 39 -7 48 56 67
99 31z m155 12 c15 -10 34 -47 34 -66 0 -13 -12 -16 -55 -16 -38 0 -55 -4 -55
-13 0 -33 53 -50 78 -25 17 17 28 2 12 -17 -20 -24 -86 -20 -104 7 -23 33 -20
87 6 115 21 22 62 30 84 15z m364 -12 c15 -15 20 -33 20 -78 l0 -58 -60 -2
c-50 -1 -61 1 -70 18 -7 14 -8 26 0 39 10 19 18 23 73 35 30 7 34 18 12 36
-15 12 -55 5 -55 -11 0 -5 -4 -9 -10 -9 -17 0 -11 28 8 39 27 16 60 13 82 -9z
m-4995 -6 c22 -23 15 -49 -14 -49 -32 0 -49 28 -32 49 17 20 26 20 46 0z
m-1165 -64 c0 -5 -4 -10 -10 -10 -5 0 -10 5 -10 10 0 6 5 10 10 10 6 0 10 -4
10 -10z m3876 -56 c-3 -9 -6 -20 -6 -25 0 -5 -6 -9 -14 -9 -9 0 -12 8 -8 25 2
14 11 25 19 25 10 0 13 -6 9 -16z m934 7 c0 -17 -12 -41 -21 -41 -5 0 -9 11
-9 25 0 16 6 25 15 25 8 0 15 -4 15 -9z m-7312 -23 c-6 -18 -28 -21 -28 -4 0
9 7 16 16 16 9 0 14 -5 12 -12z m3860 -37 c8 -4 12 -19 10 -32 -2 -19 -9 -24
-33 -24 -21 0 -31 5 -33 18 -8 40 22 60 56 38z m151 -45 c9 -10 8 -16 -4 -26
-17 -14 -45 -7 -45 13 0 29 30 37 49 13z m-1329 -4 c0 -13 -12 -22 -22 -16
-10 6 -1 24 13 24 5 0 9 -4 9 -8z m2915 -12 c3 -5 2 -10 -4 -10 -5 0 -13 5
-16 10 -3 6 -2 10 4 10 5 0 13 -4 16 -10z m952 -26 c-3 -4 -14 -3 -24 0 -15 6
-15 8 -3 16 16 10 39 -4 27 -16z m-3569 -82 l3 -52 33 25 c50 38 67 29 21 -11
l-40 -35 43 -39 c23 -22 42 -42 42 -45 0 -15 -30 -1 -60 29 l-35 34 -5 -30
c-3 -17 -11 -33 -17 -36 -10 -3 -13 23 -13 108 0 85 3 111 13 108 7 -3 13 -26
15 -56z m1412 28 c0 -23 5 -30 19 -30 11 0 23 -4 26 -10 4 -6 -5 -10 -19 -10
-25 0 -26 -3 -26 -54 0 -49 2 -55 23 -58 28 -4 29 -22 1 -26 -36 -5 -54 23
-54 84 0 41 -4 54 -15 54 -8 0 -15 5 -15 10 0 6 7 10 15 10 9 0 15 9 15 23 0
13 3 27 7 30 14 15 23 6 23 -23z m228 18 c-3 -7 -11 -13 -18 -13 -7 0 -15 6
-17 13 -3 7 4 12 17 12 13 0 20 -5 18 -12z m222 -3 c0 -8 -7 -15 -15 -15 -8 0
-15 7 -15 15 0 8 7 15 15 15 8 0 15 -7 15 -15z m1014 -31 c-1 -21 -2 -68 -3
-104 l-1 -66 -42 -2 c-58 -2 -73 4 -86 34 -29 62 -3 124 52 124 17 0 37 -5 44
-12 9 -9 12 -2 12 31 0 30 4 41 13 38 7 -2 12 -20 11 -43z m76 31 c0 -8 -7
-15 -15 -15 -8 0 -15 7 -15 15 0 8 7 15 15 15 8 0 15 -7 15 -15z m72 -2 c0
-10 2 -25 2 -33 1 -8 8 -13 16 -11 65 15 95 -10 95 -80 0 -64 -18 -80 -89 -76
l-51 3 -3 93 c-2 51 -1 99 2 107 8 20 26 18 28 -3z m468 2 c0 -8 -7 -15 -15
-15 -8 0 -15 7 -15 15 0 8 7 15 15 15 8 0 15 -7 15 -15z m70 -40 c0 -30 3 -55
6 -55 3 0 19 11 36 25 16 14 37 25 46 25 11 0 3 -13 -25 -36 l-42 -35 39 -36
c22 -19 40 -39 40 -44 0 -19 -26 -7 -62 28 l-38 37 0 -38 c0 -26 -4 -36 -12
-34 -9 3 -14 37 -16 111 -2 91 0 107 13 107 12 0 15 -12 15 -55z m920 -55 c0
-91 -3 -110 -15 -110 -12 0 -15 19 -15 110 0 91 3 110 15 110 12 0 15 -19 15
-110z m760 80 c0 -25 4 -30 25 -30 14 0 25 -4 25 -10 0 -5 -11 -10 -25 -10
-24 0 -25 -3 -25 -54 0 -49 2 -55 23 -58 24 -3 27 -21 3 -26 -30 -6 -56 35
-56 88 0 38 -4 50 -15 50 -8 0 -15 5 -15 10 0 6 7 10 15 10 9 0 15 9 15 23 0
13 3 27 7 30 14 15 23 6 23 -23z m108 18 c-6 -18 -28 -21 -28 -4 0 9 7 16 16
16 9 0 14 -5 12 -12z m180 -94 l-3 -106 -49 -5 c-65 -5 -86 13 -86 78 0 62 20
83 72 76 38 -5 38 -5 38 29 0 24 5 34 15 34 13 0 15 -16 13 -106z m-8330 58
c2 -13 -3 -25 -13 -28 -23 -9 -36 7 -28 34 7 29 37 25 41 -6z m3660 -22 c18
-17 22 -32 22 -84 l0 -63 -56 1 c-45 1 -59 5 -70 21 -20 31 6 63 57 71 29 5
39 11 37 23 -4 23 -46 26 -69 5 -24 -22 -27 1 -2 28 21 24 54 23 81 -2z m-634
-6 c11 -11 16 -34 16 -78 l0 -62 -55 -2 c-48 -1 -57 2 -71 24 -16 23 -15 26 1
44 10 11 36 23 57 27 29 4 38 10 36 22 -4 22 -46 26 -68 6 -23 -21 -36 -3 -14
19 20 21 78 21 98 0z m154 4 c-3 -7 -15 -15 -29 -18 -22 -5 -24 -12 -27 -68
-2 -46 -7 -62 -17 -62 -12 0 -15 16 -15 78 l0 78 46 2 c32 1 44 -2 42 -10z
m136 -10 c9 -12 16 -33 16 -45 0 -21 -4 -23 -55 -23 -59 0 -60 -1 -45 -31 11
-20 45 -26 55 -9 3 6 16 10 28 10 l22 -1 -24 -19 c-23 -20 -67 -26 -87 -12
-34 23 -44 88 -18 127 22 34 86 35 108 3z m178 5 c22 -20 27 -148 6 -141 -8 3
-14 27 -16 60 -4 67 -20 87 -57 70 -23 -10 -25 -17 -25 -72 0 -47 -3 -60 -15
-60 -12 0 -15 15 -15 78 l0 79 52 1 c36 1 58 -4 70 -15z m438 -2 c15 -29 13
-144 -2 -139 -8 3 -14 27 -16 60 -4 67 -20 87 -57 70 -22 -10 -25 -18 -25 -59
0 -39 5 -51 27 -68 29 -24 24 -45 -10 -45 -32 0 -47 41 -47 126 l0 71 60 2
c49 1 61 -2 70 -18z m80 -35 c0 -49 16 -86 36 -86 27 0 42 25 48 80 10 85 26
75 26 -17 l0 -78 -49 -2 c-70 -3 -84 11 -89 91 -4 56 -2 66 12 66 13 0 16 -11
16 -54z m365 44 c3 -4 -8 -11 -24 -15 -29 -6 -30 -9 -33 -68 -2 -41 -7 -62
-15 -62 -7 0 -13 3 -13 8 0 4 0 38 0 75 l0 68 40 1 c22 1 42 -2 45 -7z m55
-71 c0 -60 -3 -80 -12 -77 -8 3 -14 29 -16 67 -4 66 1 91 18 91 6 0 10 -32 10
-81z m150 66 c16 -20 5 -32 -14 -16 -19 16 -61 10 -61 -8 0 -8 19 -21 42 -28
49 -17 64 -45 37 -74 -20 -23 -72 -25 -100 -5 -26 19 -10 33 20 17 27 -15 66
-6 66 14 0 8 -12 17 -27 21 -39 9 -73 32 -73 49 0 40 83 62 110 30z m80 -65
c0 -64 -3 -80 -15 -80 -12 0 -15 16 -15 80 0 64 3 80 15 80 12 0 15 -16 15
-80z m132 59 c4 -8 16 -32 25 -54 l16 -40 25 58 c14 31 31 57 39 57 11 0 11
-5 0 -32 -8 -18 -27 -62 -42 -98 -15 -36 -32 -71 -37 -77 -15 -19 -30 -5 -18
17 15 29 12 56 -15 120 -14 33 -25 62 -25 66 0 10 23 -2 32 -17z m258 2 c5
-11 10 -46 10 -78 l0 -59 -56 1 c-46 0 -59 4 -70 20 -20 31 5 61 56 70 31 5
40 11 38 23 -4 23 -46 27 -67 8 -23 -21 -36 -8 -14 16 23 25 89 25 103 -1z
m172 2 c24 -21 27 -143 3 -143 -10 0 -15 16 -17 61 -2 46 -8 65 -20 73 -34 21
-53 -4 -56 -73 -2 -45 -7 -61 -17 -61 -12 0 -15 16 -15 78 l0 77 52 2 c36 2
57 -2 70 -14z m198 -73 c0 -106 -13 -130 -70 -130 -36 0 -70 20 -70 41 0 14
16 11 30 -6 24 -28 80 -13 80 22 0 10 -9 12 -34 8 -47 -9 -76 20 -76 77 0 60
20 78 86 76 l54 -2 0 -86z m330 10 c0 -64 -3 -80 -15 -80 -12 0 -15 16 -15 80
0 64 3 80 15 80 12 0 15 -16 15 -80z m344 58 c9 -12 16 -33 16 -45 0 -21 -4
-23 -56 -23 -46 0 -55 -3 -52 -16 5 -28 35 -41 58 -26 11 6 28 12 37 12 32 -1
-26 -40 -58 -40 -41 0 -69 32 -69 78 0 55 23 82 70 82 29 0 43 -6 54 -22z
m146 7 c0 -8 -12 -15 -27 -17 -27 -3 -28 -6 -31 -65 -2 -47 -7 -63 -17 -63
-12 0 -15 17 -15 78 l0 79 45 1 c31 0 45 -4 45 -13z m50 -65 c0 -64 -3 -80
-15 -80 -12 0 -15 16 -15 80 0 64 3 80 15 80 12 0 15 -16 15 -80z m308 68 c7
-7 12 -40 12 -78 l0 -66 -49 -2 c-54 -2 -81 14 -81 49 0 21 51 49 90 49 22 0
23 1 14 24 -7 19 -37 21 -64 4 -24 -15 -37 -4 -20 17 15 18 81 20 98 3z m188
1 c17 -14 20 -149 4 -149 -5 0 -10 24 -10 54 0 76 -36 109 -75 70 -12 -12 -16
-31 -14 -68 2 -39 0 -51 -11 -51 -11 0 -16 16 -18 64 -2 35 -1 69 1 75 6 15
106 19 123 5z m234 -4 c16 -20 5 -32 -14 -16 -19 16 -61 10 -61 -8 0 -7 20
-21 45 -30 50 -18 61 -42 34 -72 -21 -23 -76 -25 -99 -3 -21 22 -11 30 19 15
31 -17 61 -10 61 14 0 14 -10 22 -38 28 -46 11 -62 36 -41 65 18 26 75 30 94
7z m170 -5 c11 -11 20 -31 20 -45 0 -24 -3 -25 -56 -25 -46 0 -55 -3 -52 -16
5 -28 35 -41 58 -26 11 6 28 12 37 12 15 -1 14 -4 -6 -20 -30 -26 -76 -25
-101 0 -24 24 -27 86 -4 118 20 29 76 30 104 2z m240 5 c15 -18 26 -106 16
-131 -5 -13 -9 -14 -20 -5 -10 8 -16 9 -21 1 -16 -26 -95 2 -95 35 0 20 36 46
74 52 27 4 36 10 34 22 -4 19 -46 27 -61 12 -6 -6 -17 -11 -24 -11 -11 0 -11
5 -3 20 13 25 81 28 100 5z m165 5 c4 -7 12 -7 25 0 30 16 68 12 80 -9 13 -25
13 -141 0 -141 -5 0 -10 23 -10 51 0 54 -13 89 -33 89 -30 -1 -41 -20 -43 -77
-1 -42 -5 -58 -15 -58 -10 0 -15 17 -17 60 -3 67 -11 80 -41 70 -17 -5 -21
-16 -23 -67 -2 -38 -8 -63 -15 -66 -10 -3 -13 17 -13 75 l0 79 49 2 c28 1 53
-3 56 -8z m273 -2 c7 -7 12 -40 12 -78 l0 -66 -49 -2 c-102 -4 -111 78 -10 94
21 4 39 8 39 9 0 33 -35 44 -70 23 -24 -15 -37 -4 -20 17 15 18 81 20 98 3z
m272 -68 c0 -47 -4 -80 -10 -80 -6 0 -10 33 -10 80 0 47 4 80 10 80 6 0 10
-33 10 -80z m260 20 c0 -49 3 -61 20 -70 14 -8 26 -8 40 0 17 9 20 21 20 70 0
47 3 60 15 60 12 0 15 -15 15 -77 l0 -78 -49 -2 c-70 -3 -84 11 -89 91 -4 56
-2 66 12 66 13 0 16 -11 16 -60z m250 51 c0 -5 -13 -14 -29 -19 -28 -10 -30
-15 -33 -68 -2 -35 -8 -59 -15 -62 -10 -3 -13 17 -13 75 l0 79 45 2 c25 1 45
-2 45 -7z m-6010 -27 c0 -8 -9 -14 -20 -14 -19 0 -27 19 -14 33 10 9 34 -4 34
-19z m-2780 -25 c0 -5 -7 -9 -15 -9 -15 0 -20 12 -9 23 8 8 24 -1 24 -14z
m2877 -11 c-3 -8 -6 -5 -6 6 -1 11 2 17 5 13 3 -3 4 -12 1 -19z m5953 -68 c0
-21 -24 -28 -35 -10 -8 14 3 30 21 30 8 0 14 -9 14 -20z m-8522 -27 c2 -8 -5
-13 -17 -13 -12 0 -21 6 -21 16 0 18 31 15 38 -3z m1149 -89 c-3 -3 -12 -4
-19 -1 -8 3 -5 6 6 6 11 1 17 -2 13 -5z m184 -75 c18 -12 28 -27 25 -35 -3 -8
-1 -14 4 -14 6 0 10 5 10 10 0 6 4 10 10 10 5 0 7 -7 3 -17 -5 -13 -2 -15 14
-11 12 3 20 1 19 -6 0 -6 4 -13 9 -15 6 -2 15 -11 22 -20 7 -9 13 -12 13 -8 0
4 6 2 14 -5 8 -7 12 -16 10 -19 -7 -12 49 -30 60 -19 33 33 83 -8 106 -90 10
-37 2 -50 -35 -50 -11 0 -33 -7 -48 -15 -16 -8 -25 -9 -21 -3 5 8 1 9 -10 5
-13 -5 -17 -3 -13 6 4 10 -2 13 -21 9 -26 -4 -26 -4 -9 14 9 10 29 19 45 20
36 1 38 24 3 51 l-29 23 -56 -19 c-31 -10 -56 -15 -56 -11 0 4 -18 4 -40 0
-49 -9 -51 1 -5 23 42 20 49 21 39 6 -4 -8 4 -9 27 -4 42 9 47 14 29 25 -10 7
-11 10 -2 10 23 0 12 18 -15 23 -16 3 -39 8 -53 11 -52 14 -163 17 -196 6 -18
-6 -47 -29 -64 -50 -39 -49 -39 -64 -1 -22 17 17 35 32 40 32 20 0 26 2 53 21
35 26 42 24 15 -4 -12 -12 -50 -58 -85 -101 -35 -43 -66 -75 -69 -73 -3 3 20
37 51 75 31 38 56 71 56 74 0 3 -21 -14 -47 -38 -25 -24 -50 -41 -54 -38 -4 2
-10 0 -13 -5 -4 -5 4 -11 16 -13 21 -4 19 -6 -14 -22 -21 -11 -34 -24 -31 -31
4 -13 -13 -30 -32 -30 -5 0 -10 -5 -10 -10 0 -13 -75 -95 -87 -95 -5 0 -6 5
-3 10 3 6 1 10 -5 10 -6 0 -8 5 -5 10 4 6 10 8 15 5 13 -8 75 69 143 180 34
55 64 103 65 107 2 5 -18 -3 -45 -17 -47 -23 -66 -46 -132 -155 -12 -20 -8
-19 22 9 20 19 37 40 37 46 0 5 10 16 22 24 l22 14 -19 -29 c-10 -16 -29 -45
-42 -65 -13 -20 -35 -42 -48 -49 -14 -7 -25 -16 -25 -19 0 -23 -72 -77 -95
-72 -5 2 -7 0 -3 -4 4 -4 -5 -17 -19 -29 -18 -16 -23 -25 -15 -30 7 -4 12 -1
12 6 0 24 34 37 55 22 18 -13 18 -14 1 -14 -11 0 -16 -5 -13 -14 4 -10 0 -12
-14 -9 -11 3 -19 0 -19 -6 0 -19 -111 -12 -134 8 -10 9 -21 14 -24 11 -3 -3
-18 13 -33 34 -38 57 -46 146 -19 199 17 32 19 42 8 55 -11 13 -10 14 9 4 16
-9 24 -9 29 0 4 6 3 8 -3 5 -6 -4 -13 2 -16 12 -5 22 23 52 88 92 51 32 72 40
114 45 52 5 56 15 12 29 -18 5 -22 4 -16 -6 6 -9 4 -11 -7 -6 -9 3 -26 -2 -38
-10 -17 -12 -24 -13 -30 -3 -6 9 -14 8 -36 -6 -23 -15 -21 -10 11 22 47 46
108 78 136 71 10 -3 22 -1 25 5 9 15 164 6 224 -13 30 -10 57 -16 62 -13 4 3
24 -3 45 -12 21 -9 44 -16 51 -15 6 1 12 -6 12 -16 0 -15 2 -16 10 -3 15 24
13 26 -45 50 -31 12 -58 26 -61 31 -9 14 124 -38 157 -62z m-606 -65 c-36 -28
-61 -36 -30 -10 17 14 35 26 40 26 6 -1 1 -8 -10 -16z m3142 -10 c3 -8 1 -20
-6 -27 -14 -14 -47 15 -37 32 10 16 36 13 43 -5z m-3921 -35 c10 -17 -13 -36
-27 -22 -12 12 -4 33 11 33 5 0 12 -5 16 -11z m1604 -19 c0 -5 -4 -10 -10 -10
-5 0 -10 5 -10 10 0 6 5 10 10 10 6 0 10 -4 10 -10z m-295 -20 c-3 -5 -12 -10
-18 -10 -7 0 -6 4 3 10 19 12 23 12 15 0z m78 -11 c-10 -10 -123 -59 -123 -54
0 12 105 73 117 68 8 -3 11 -9 6 -14z m197 -55 c0 -2 -9 -4 -21 -4 -11 0 -18
4 -14 10 5 8 35 3 35 -6z m-1297 -9 c-4 -15 -36 -12 -41 3 -3 9 3 13 19 10 13
-1 23 -7 22 -13z m1247 -29 c0 -2 -7 -7 -16 -10 -8 -3 -12 -2 -9 4 6 10 25 14
25 6z m-1440 -77 c14 -26 -3 -49 -36 -49 -17 0 -25 7 -30 24 -3 14 -3 30 1 35
11 19 54 12 65 -10z m-380 -4 c0 -8 -7 -15 -15 -15 -8 0 -15 7 -15 15 0 8 7
15 15 15 8 0 15 -7 15 -15z m1392 -7 c-7 -7 -12 -8 -12 -2 0 14 12 26 19 19 2
-3 -1 -11 -7 -17z m-112 -28 c0 -5 -5 -10 -11 -10 -5 0 -7 5 -4 10 3 6 8 10
11 10 2 0 4 -4 4 -10z m3190 -89 c509 -56 655 -77 622 -89 -8 -2 -32 1 -55 7
-42 12 -117 11 -117 0 0 -6 -122 12 -180 26 -60 14 -91 17 -117 10 -22 -6 -4
-12 87 -26 123 -20 256 -44 330 -59 25 -6 61 -12 80 -15 19 -4 55 -11 80 -16
25 -6 59 -12 76 -14 58 -5 119 -17 129 -25 19 -14 68 -21 74 -11 5 7 37 0 91
-19 89 -32 196 -106 270 -186 35 -38 40 -49 40 -91 0 -83 -17 -122 -79 -183
-87 -85 -241 -158 -451 -214 -454 -122 -968 -166 -1650 -143 -190 6 -404 10
-477 9 -73 -2 -165 1 -205 7 -177 24 -198 25 -197 5 0 -11 3 -14 6 -6 7 17 33
15 33 -3 0 -14 12 -19 33 -16 4 0 7 -4 7 -9 0 -6 12 -10 27 -10 45 0 160 -40
143 -50 -19 -12 84 -26 460 -63 19 -2 -18 -5 -83 -5 -113 -2 -119 -3 -142 -28
-29 -31 -43 -70 -39 -107 1 -15 -1 -25 -5 -23 -8 6 -5 -551 4 -630 10 -85 40
-101 230 -129 138 -21 612 -24 825 -5 342 29 779 117 838 168 11 10 24 31 28
48 4 16 12 32 18 36 7 5 12 103 14 304 2 249 0 301 -13 327 -8 16 -15 37 -15
46 0 12 -2 13 -8 3 -6 -9 -11 -6 -19 11 -14 31 -70 57 -120 57 -21 0 -83 -7
-138 -15 -158 -23 -164 -16 -10 11 470 82 828 221 962 373 33 37 42 36 22 -1
-36 -67 -53 -165 -53 -308 0 -80 2 -172 6 -205 4 -33 9 -91 11 -130 8 -118 22
-169 53 -188 8 -5 14 -25 14 -49 0 -47 -36 -100 -125 -187 -46 -44 -55 -59
-55 -88 l0 -34 42 23 c49 27 128 103 128 124 0 8 5 14 10 14 12 0 12 -4 1
-110 -6 -47 -15 -177 -21 -290 -23 -452 -52 -867 -61 -896 -9 -29 -101 -126
-159 -167 -14 -10 -6 -8 20 5 24 13 66 44 93 69 38 37 47 42 45 25 -2 -11 -9
-20 -16 -19 -7 2 -14 -14 -18 -37 -4 -22 -10 -40 -14 -40 -4 0 -12 -19 -18
-42 -12 -47 -1 -81 23 -72 12 5 14 -5 12 -54 -1 -33 -5 -55 -9 -49 -4 6 -5 -9
-3 -35 3 -41 -1 -53 -37 -103 -37 -52 -39 -57 -17 -50 13 4 28 11 33 16 6 5
21 9 34 9 17 0 23 4 18 15 -3 9 0 15 8 15 8 0 16 6 19 14 7 18 64 28 90 15 21
-10 21 -10 3 5 -34 28 -11 27 30 0 39 -26 39 -26 17 -2 -28 30 -32 59 -5 35
11 -10 23 -13 31 -8 11 7 7 13 -15 26 -33 18 -30 18 115 -24 57 -17 107 -29
111 -26 4 3 24 -2 44 -10 46 -19 68 -19 36 1 -17 11 -19 13 -5 9 11 -4 61 -17
112 -31 50 -13 126 -37 168 -54 43 -17 79 -29 81 -27 2 2 -41 23 -97 48 -55
24 -115 57 -132 72 l-32 29 35 -20 c19 -11 78 -37 130 -57 52 -21 112 -46 132
-56 84 -43 45 -15 -62 44 -63 35 -115 70 -115 78 0 7 -17 25 -37 38 -21 13
-36 26 -35 28 2 2 30 -3 63 -11 33 -8 48 -15 34 -16 l-25 -1 25 -14 c22 -12
168 -71 225 -90 11 -4 36 -8 55 -9 51 -3 205 -35 275 -57 66 -21 155 -35 155
-26 0 7 -103 61 -148 78 -26 10 -26 10 -7 -11 17 -19 15 -19 -37 4 -30 13 -97
32 -149 42 -69 13 -87 19 -69 24 24 6 23 7 -9 13 -18 4 -48 7 -65 7 -17 1 -65
9 -106 20 -72 18 -73 19 -30 19 25 0 88 -6 140 -14 118 -18 141 -19 120 -4
-12 9 -11 9 5 4 43 -15 92 -25 131 -25 23 0 79 -9 125 -21 46 -12 113 -27 149
-34 93 -18 50 -32 -49 -16 -42 7 -89 15 -106 18 -24 3 -17 -3 30 -29 33 -18
71 -41 85 -51 27 -19 45 -22 35 -7 -4 6 17 10 55 10 35 0 73 6 90 15 17 9 30
13 30 9 0 -4 7 -1 15 6 24 20 18 26 -26 29 -22 1 -75 16 -117 33 -43 16 -108
34 -147 38 -58 6 -62 8 -25 9 96 3 69 18 -72 40 -189 30 -192 31 -63 26 106
-4 215 -26 215 -45 0 -13 126 -48 195 -54 l60 -5 -64 30 c-91 43 -228 72 -491
104 -69 8 -163 21 -210 30 -47 8 -89 15 -94 15 -5 0 -7 2 -4 5 3 3 52 -1 109
-9 105 -15 270 -32 389 -40 36 -3 85 -7 110 -11 39 -5 42 -5 25 6 -11 7 -54
28 -95 46 -65 28 -70 32 -38 29 20 -2 72 -20 115 -40 68 -33 144 -58 300 -98
24 -6 46 -8 50 -5 9 9 -26 35 -57 43 -33 8 -88 33 -72 34 6 0 12 4 12 9 0 6
-21 13 -47 16 -48 6 -137 34 -131 41 2 2 24 -3 48 -10 79 -23 110 -27 110 -13
0 24 -75 86 -145 122 -39 19 -65 35 -60 35 16 0 158 -31 167 -36 4 -3 47 -34
94 -70 47 -36 99 -68 115 -71 39 -8 47 -23 12 -23 -25 -1 -26 -2 -9 -12 17 -9
25 -5 58 30 31 34 36 45 29 64 -8 21 -42 36 -96 41 -11 1 -23 7 -27 12 -5 6
-8 6 -8 -1 0 -16 29 -39 80 -62 32 -15 39 -21 23 -21 -33 -1 -75 17 -106 47
-15 14 -38 27 -50 28 -29 2 -77 25 -77 37 0 5 7 6 16 3 9 -3 12 -2 9 5 -4 6
-13 8 -21 5 -8 -3 -14 -2 -14 2 0 28 -176 56 -205 32 -10 -9 -19 -9 -28 -2 -6
6 -28 12 -47 15 -19 2 12 5 70 6 75 2 99 5 85 12 -17 8 -17 9 5 4 14 -3 48 -8
75 -11 48 -5 49 -5 25 10 -41 25 -16 18 52 -14 34 -16 76 -30 91 -30 15 0 30
-7 33 -15 6 -15 71 -41 81 -32 2 3 -10 13 -29 23 -18 9 -46 28 -62 41 -57 48
-126 75 -271 106 -11 3 -4 5 15 6 44 1 162 -24 192 -41 13 -7 35 -12 49 -13
l26 0 -18 31 c-23 41 -29 104 -10 104 5 0 12 -16 15 -36 7 -35 36 -74 56 -74
6 0 8 11 4 28 -6 26 -5 26 15 -5 16 -26 28 -33 52 -33 17 0 47 -10 67 -22 l35
-21 -18 26 c-9 15 -39 42 -65 61 -26 19 -60 52 -76 73 -15 21 -40 48 -54 60
-15 14 -20 22 -11 23 11 0 11 3 1 15 -7 9 -11 18 -8 20 3 3 10 -6 17 -18 13
-25 69 -63 78 -54 3 3 -5 21 -17 39 l-22 33 26 -30 c14 -16 26 -34 27 -40 0
-5 4 -1 9 10 8 19 9 19 9 -2 1 -15 14 -31 39 -47 20 -13 72 -60 114 -104 74
-78 79 -81 104 -70 21 10 27 9 35 -3 6 -10 2 -19 -15 -32 -22 -16 -23 -21 -14
-55 6 -20 28 -59 50 -87 52 -65 68 -106 67 -169 0 -51 -1 -51 -17 29 -10 47
-27 94 -42 115 l-24 34 -9 -42 c-4 -23 -12 -40 -16 -37 -5 2 -15 -2 -22 -11
-10 -12 -10 -25 0 -65 14 -53 8 -79 -8 -38 l-10 24 0 -27 c-1 -15 4 -39 11
-55 l11 -28 7 30 c5 21 8 7 8 -45 0 -68 -1 -71 -9 -35 -5 22 -18 51 -29 65
-17 21 -21 23 -30 10 -5 -8 -7 -24 -4 -35 3 -11 8 -29 10 -40 5 -18 4 -19 -6
-2 -16 25 -31 11 -20 -19 14 -35 12 -41 -5 -18 -14 18 -14 18 -8 -3 3 -13 1
-23 -5 -23 -5 0 -13 -24 -16 -54 -14 -107 -24 -117 -26 -26 l-1 85 -22 -39
c-22 -38 -175 -226 -184 -226 -3 0 5 12 17 27 52 69 140 209 140 225 -1 18
-48 -39 -65 -79 -14 -34 -171 -203 -188 -203 -5 0 26 37 69 83 44 45 84 98 91
117 9 27 9 30 0 15 -17 -28 -189 -196 -195 -191 -2 3 9 22 25 43 38 49 55 81
50 96 -2 7 -14 0 -30 -17 -29 -31 -38 -16 -13 20 18 25 56 123 56 144 0 8 -9
21 -20 27 -17 12 -20 9 -26 -25 -22 -131 -36 -178 -69 -231 -37 -63 -42 -76
-22 -65 6 4 9 4 5 0 -3 -4 -9 -6 -12 -4 -8 4 -55 -73 -56 -91 0 -27 -82 -141
-134 -187 -47 -43 -149 -102 -206 -119 l-25 -7 25 19 c14 11 49 33 78 48 49
26 138 116 185 185 27 40 20 46 -15 13 -18 -16 -51 -43 -73 -59 -22 -15 0 9
48 55 122 116 195 227 232 354 32 110 9 91 -28 -24 -21 -64 -46 -127 -55 -141
-43 -65 -278 -286 -315 -296 -14 -4 44 52 126 121 31 26 56 51 54 55 -1 5 17
30 41 56 23 27 42 43 42 37 0 -7 5 -9 11 -5 8 5 8 9 -1 14 -9 6 -9 13 0 31 8
18 5 16 -12 -6 -60 -81 -173 -184 -278 -255 -63 -44 -130 -95 -149 -115 -20
-22 -39 -34 -48 -30 -9 3 -39 -8 -68 -25 -29 -17 -79 -35 -111 -42 -33 -6 -65
-16 -72 -22 -23 -17 -241 -18 -266 -1 -12 9 -44 15 -77 15 -31 0 -72 3 -90 7
-26 6 3 11 116 23 l150 16 -205 7 c-112 4 -208 11 -213 16 -4 4 95 8 220 7
147 -1 234 3 246 10 18 10 -222 10 -443 0 -111 -6 -121 -8 -217 -42 l-81 -29
-29 29 c-24 24 -24 27 -5 17 12 -6 22 -16 22 -21 0 -20 31 -11 155 44 17 7 46
20 65 29 l35 15 -67 -1 c-60 0 -66 -2 -55 -15 9 -12 5 -11 -15 2 -15 10 -35
15 -46 12 -10 -3 -27 1 -38 9 -18 15 -16 16 27 13 33 -2 45 0 42 9 -5 13 -123
11 -177 -3 -19 -4 -27 -3 -23 3 4 6 -2 13 -13 16 -11 3 -23 13 -26 24 -3 10
-12 30 -20 45 -17 32 -18 55 -1 61 7 3 4 6 -6 6 -13 1 -18 8 -16 24 2 12 -1
28 -6 36 -5 9 -5 16 1 18 6 2 9 18 7 36 -9 96 -4 214 10 249 18 44 16 46 -23
18 -16 -11 -45 -27 -64 -35 l-36 -15 0 -170 0 -170 -50 0 -49 0 -3 108 -3 107
-100 0 -100 0 -3 -107 -3 -108 -49 0 -50 0 0 95 c0 104 1 102 -62 84 -35 -9
-38 -13 -38 -47 0 -49 -29 -95 -75 -116 -43 -21 -156 -24 -210 -6 -33 11 -35
14 -35 55 l0 44 -115 -6 c-72 -4 -115 -2 -115 4 0 5 86 22 192 37 205 30 226
35 209 45 -6 4 -68 -1 -139 -11 -70 -9 -164 -20 -209 -24 l-83 -7 0 -28 0 -29
100 0 100 0 0 -45 0 -45 -155 0 -155 0 0 255 0 255 55 0 55 0 0 -174 0 -174
61 13 c34 7 64 17 68 22 9 14 125 83 139 83 15 0 15 6 2 29 -6 13 -27 21 -67
26 -32 4 -52 10 -44 13 11 4 11 6 0 13 -11 7 -9 9 7 9 46 0 84 22 106 62 32
56 80 78 165 78 37 -1 86 -7 108 -15 55 -20 125 -20 125 0 0 12 13 15 60 15
33 0 60 -4 60 -8 0 -11 44 -8 108 7 32 8 52 18 52 27 0 12 -20 13 -112 9 -199
-10 -316 -9 -305 2 7 6 -22 32 -36 33 -5 0 -5 -9 -2 -20 6 -20 4 -21 -42 -15
-54 7 -268 8 -1210 3 l-653 -3 -25 -27 c-27 -29 -27 -32 -1 -22 9 3 14 10 11
14 -3 4 2 10 10 14 8 3 15 2 15 -2 0 -5 35 -9 78 -9 166 -1 242 -84 242 -264
0 -86 -4 -82 82 -94 l47 -6 37 55 36 55 -23 38 c-12 21 -45 71 -71 111 -71
105 -71 102 0 102 l61 0 54 -91 55 -90 52 90 52 91 59 0 c32 0 59 -2 59 -5 0
-3 -34 -59 -75 -124 -41 -65 -75 -122 -75 -127 0 -5 11 -25 24 -44 13 -19 49
-74 80 -123 l56 -87 -60 0 -59 0 -60 90 c-59 89 -60 90 -75 68 -12 -17 -13
-24 -3 -30 8 -5 7 -8 -5 -8 -10 0 -18 -3 -18 -6 0 -4 8 -13 18 -21 15 -13 14
-14 -12 -10 -25 4 -32 -1 -55 -39 -26 -43 -26 -43 -84 -44 l-58 0 26 37 c37
56 34 63 -33 63 -52 0 -61 -3 -88 -31 -83 -90 -264 -98 -353 -16 -23 22 -86
144 -82 160 1 5 -8 11 -19 14 -27 7 -25 21 4 29 19 5 25 14 29 52 4 26 9 59
12 73 6 24 4 26 -37 32 -24 3 -52 9 -61 13 -15 5 -17 -3 -17 -73 0 -44 -3
-141 -7 -216 l-6 -137 -47 0 -47 0 -6 158 c-4 86 -7 201 -7 255 l0 97 27 0
c14 0 24 2 22 4 -2 2 -62 7 -132 10 -129 6 -297 30 -329 47 -9 5 -21 8 -26 7
-4 -2 -37 24 -72 57 -34 33 -81 77 -102 97 -51 48 -41 64 20 31 l47 -26 -32
31 c-18 17 -34 38 -34 46 -1 9 -2 19 -3 24 -1 4 -6 27 -10 52 -5 25 -19 55
-31 68 -26 26 -32 50 -40 187 l-7 100 20 -31 c45 -70 57 -50 14 23 -16 27 -32
62 -36 78 -6 25 -2 22 24 -19 17 -26 33 -46 36 -43 7 7 -43 104 -55 109 -13 4
-28 318 -15 318 5 0 18 -20 29 -43 14 -31 20 -37 23 -23 2 10 -5 30 -15 45
-34 45 -60 155 -43 181 7 11 11 9 19 -12 10 -28 31 -47 31 -28 0 5 -13 34 -29
63 -25 45 -30 66 -35 157 -3 58 -8 134 -12 170 l-6 65 27 -52 c65 -127 275
-242 597 -327 115 -31 120 -31 88 -6 -14 11 -18 18 -9 14 10 -3 20 0 25 7 5 8
3 10 -7 4 -12 -7 -12 -6 0 9 12 15 24 17 75 11 80 -8 393 -53 458 -65 28 -6
53 -10 56 -10 2 0 -1 -6 -7 -14 -7 -8 -11 -23 -9 -33 3 -16 -4 -18 -62 -16
-129 3 9 -15 241 -32 257 -18 676 -21 906 -5 842 59 1529 275 1628 513 9 22
11 36 6 32 -6 -3 -11 -14 -11 -23 0 -28 -123 -135 -208 -180 -108 -57 -266
-113 -462 -162 -160 -40 -254 -54 -130 -20 40 11 55 19 40 20 l-25 1 25 10
c14 6 75 24 135 41 61 16 117 34 125 40 12 7 10 8 -5 3 -11 -3 -33 -9 -50 -11
l-30 -5 30 18 c22 13 29 24 27 40 -2 13 6 31 19 44 12 12 16 20 8 17 -8 -3
-68 -18 -134 -33 -66 -14 -133 -33 -150 -40 -16 -7 -44 -11 -61 -8 -17 3 -110
-7 -205 -21 -230 -34 -454 -56 -548 -55 -66 1 -56 3 69 15 226 20 344 35 360
45 10 6 4 8 -20 4 -184 -27 -633 -48 -960 -44 -294 4 -641 0 -624 -7 6 -2 9
-17 6 -33 -3 -23 1 -30 27 -41 53 -22 48 -33 -10 -25 -184 24 -436 74 -568
111 -98 28 -116 40 -48 30 46 -7 47 -6 47 18 0 14 -1 29 -2 33 -2 4 -45 22
-96 39 -52 18 -97 36 -100 40 -4 4 1 4 11 1 11 -4 31 -10 45 -13 15 -3 44 -12
65 -20 20 -8 50 -14 65 -13 16 0 -22 17 -94 43 -212 75 -440 203 -475 267 -8
15 7 8 50 -25 105 -81 271 -150 390 -162 55 -6 60 -5 75 18 11 17 18 58 22
129 3 57 7 118 9 134 13 131 15 237 6 285 -22 118 -31 151 -56 199 -37 70
-156 174 -235 205 -73 29 -196 106 -241 152 -36 37 -40 46 -34 73 4 19 11 28
17 25 6 -4 -3 14 -20 39 -18 25 -32 54 -32 63 0 11 12 0 29 -27 58 -93 279
-205 530 -269 118 -30 119 -24 1 19 -173 62 -336 155 -387 220 -25 33 -12 -2
17 -45 17 -24 28 -44 25 -44 -19 0 -95 48 -136 87 -55 51 -85 117 -74 160 21
83 161 204 302 259 88 35 112 41 80 23 -32 -19 -7 -28 41 -15 26 8 67 14 92
15 25 1 74 10 110 21 144 42 531 113 695 127 50 4 79 9 65 11 -14 2 -29 7 -35
12 -5 4 -39 8 -75 9 -46 1 -61 -1 -50 -9 8 -5 10 -10 4 -10 -5 0 -14 4 -20 9
-11 10 -136 2 -129 -8 2 -4 -10 -5 -28 -3 -30 5 -28 6 23 18 30 7 89 13 130
14 41 0 120 5 175 11 137 15 571 28 795 24 102 -2 268 -13 370 -24z m-3250 -1
c0 -5 -2 -10 -4 -10 -3 0 -8 5 -11 10 -3 6 -1 10 4 10 6 0 11 -4 11 -10z
m1697 -46 c-3 -3 -12 -4 -19 -1 -8 3 -5 6 6 6 11 1 17 -2 13 -5z m-44 -11 c-7
-2 -19 -2 -25 0 -7 3 -2 5 12 5 14 0 19 -2 13 -5z m192 -3 c3 -5 1 -10 -4 -10
-6 0 -11 5 -11 10 0 6 2 10 4 10 3 0 8 -4 11 -10z m-2450 -40 c0 -22 -29 -18
-33 3 -3 14 1 18 15 15 10 -2 18 -10 18 -18z m4522 4 c-3 -3 -12 -4 -19 -1 -8
3 -5 6 6 6 11 1 17 -2 13 -5z m58 -14 c13 -5 14 -9 5 -9 -8 0 -24 4 -35 9 -13
5 -14 9 -5 9 8 0 24 -4 35 -9z m-4887 -83 c2 -12 -3 -17 -17 -17 -12 0 -21 6
-21 13 0 31 32 34 38 4z m5529 -113 c8 -21 -13 -42 -28 -27 -13 13 -5 43 11
43 6 0 13 -7 17 -16z m-5082 -54 c8 -25 -1 -40 -24 -40 -24 0 -43 23 -35 44 9
23 51 20 59 -4z m-149 -121 c7 -12 -15 -31 -31 -26 -5 2 -11 11 -13 20 -4 19
32 24 44 6z m5634 -5 c0 -17 -22 -14 -28 4 -2 7 3 12 12 12 9 0 16 -7 16 -16z
m-5265 -54 c0 -8 -10 -16 -22 -18 -18 -3 -23 2 -23 18 0 16 5 21 23 18 12 -2
22 -10 22 -18z m-1528 -11 c17 -17 26 -19 36 -11 7 6 54 13 105 15 51 2 95 6
98 10 3 3 14 -3 25 -14 10 -10 31 -19 46 -19 28 0 25 -11 -5 -18 -9 -2 -53 -7
-96 -10 l-79 -7 53 -23 c51 -22 53 -22 73 -5 20 18 20 18 2 -9 -9 -16 -25 -29
-34 -29 -28 -2 -56 3 -61 11 -9 13 -68 22 -74 11 -9 -14 29 -32 50 -24 11 4
15 3 10 -5 -11 -19 31 -24 69 -7 21 8 45 15 55 15 9 0 25 9 34 19 10 10 27 22
39 25 16 4 10 -6 -24 -39 -50 -47 -51 -55 -10 -55 27 0 157 -57 149 -65 -2 -2
-31 6 -63 20 -33 13 -89 26 -125 30 l-65 6 70 -24 c39 -13 104 -42 145 -65 80
-44 83 -55 6 -21 -26 11 -52 18 -59 16 -7 -3 11 -15 38 -26 28 -12 59 -26 70
-31 13 -6 -3 -7 -43 -3 -41 4 -77 1 -104 -8 -35 -11 -42 -11 -52 3 -12 16 -48
18 -56 3 -3 -6 15 -16 40 -23 25 -8 65 -22 90 -32 25 -10 72 -23 105 -30 83
-16 96 -21 66 -29 -22 -6 -18 -10 37 -36 34 -16 62 -33 62 -37 0 -4 8 -5 18
-2 15 5 15 4 -1 -6 -14 -9 -27 -8 -55 3 -20 8 -86 27 -145 41 -59 14 -117 31
-128 37 -12 6 -23 8 -26 6 -6 -7 130 -103 175 -124 18 -9 29 -19 23 -22 -12
-8 65 -71 86 -71 7 0 13 -5 13 -11 0 -23 36 -38 85 -37 l50 1 -47 6 c-27 4
-54 13 -60 20 -11 11 -2 13 54 8 47 -4 68 -3 72 6 3 8 7 9 13 2 4 -6 35 -12
68 -14 33 -2 74 -4 90 -5 17 -2 43 -3 59 -4 43 -3 24 -14 -31 -20 -27 -2 -50
-8 -53 -12 -3 -5 -21 -11 -40 -13 -19 -2 -10 -2 20 1 66 6 190 6 363 1 90 -3
126 -1 123 7 -3 7 7 10 28 7 18 -1 54 3 81 11 27 9 52 13 57 10 4 -3 42 -6 83
-8 90 -3 115 -19 95 -57 -42 -79 -214 -175 -333 -184 -26 -2 -52 -7 -59 -11
-6 -4 -34 -8 -62 -9 -97 -4 -251 -16 -311 -26 -33 -5 -73 -9 -90 -9 l-30 0 25
20 c14 11 20 20 13 20 -6 0 -19 3 -29 7 -11 4 -15 3 -11 -4 4 -6 4 -18 1 -27
-14 -36 -201 -11 -266 35 -14 11 -31 19 -37 19 -6 0 -17 12 -25 28 -8 15 -38
50 -66 77 -65 63 -105 126 -136 212 -24 65 -24 66 -18 22 4 -29 2 -49 -5 -53
-8 -5 -6 -18 4 -43 8 -19 12 -39 9 -44 -10 -18 32 -113 65 -146 19 -18 28 -33
21 -33 -7 0 -33 20 -56 45 -42 44 -74 118 -74 172 0 13 -7 53 -16 88 -13 51
-14 74 -6 106 14 54 7 71 -23 59 -14 -5 -26 -5 -34 3 -23 23 -11 -42 14 -71
29 -35 33 -53 6 -28 -15 13 -20 14 -25 4 -4 -9 -5 -9 -4 2 3 25 -54 134 -62
120 -5 -7 -2 -31 6 -54 14 -41 14 -41 -5 -19 -10 12 -21 20 -23 17 -3 -2 -8 8
-11 23 -3 15 -13 37 -22 48 -15 19 -15 19 -9 -10 3 -16 12 -47 20 -68 8 -21
10 -36 6 -33 -5 3 -20 34 -32 68 -29 78 -37 88 -46 54 -3 -14 -11 -26 -16 -26
-6 0 -7 11 -4 24 4 15 1 26 -6 28 -8 3 -9 12 0 36 6 19 7 32 1 32 -5 0 -9 -5
-9 -12 0 -6 -3 -8 -7 -5 -3 4 0 18 7 32 18 33 7 42 -25 21 -39 -25 -32 -8 29
78 15 21 16 29 6 41 -7 8 -10 24 -7 35 9 34 -34 20 -87 -29 -27 -25 -28 -25
-17 -3 7 13 33 32 59 44 104 45 105 46 87 91 -10 23 4 22 32 -4z m368 -49 c-3
-5 -11 -10 -16 -10 -6 0 -7 5 -4 10 3 6 11 10 16 10 6 0 7 -4 4 -10z m35 6 c0
-2 -8 -10 -17 -17 -16 -13 -17 -12 -4 4 13 16 21 21 21 13z m6830 -66 c0 -5
-7 -10 -15 -10 -8 0 -15 5 -15 10 0 6 7 10 15 10 8 0 15 -4 15 -10z m-5835
-20 c0 -22 -39 -19 -43 3 -3 15 1 18 20 15 12 -2 23 -10 23 -18z m199 -162 c7
-12 6 -21 -3 -32 -19 -22 -38 -20 -52 6 -10 18 -8 24 7 35 21 15 34 13 48 -9z
m154 -35 c5 -17 -26 -29 -40 -15 -6 6 -7 15 -3 22 9 14 37 9 43 -7z m5852 7
c0 -5 -4 -10 -10 -10 -5 0 -10 5 -10 10 0 6 5 10 10 10 6 0 10 -4 10 -10z
m-7680 -4 c0 -3 -4 -8 -10 -11 -5 -3 -10 -1 -10 4 0 6 5 11 10 11 6 0 10 -2
10 -4z m1010 -30 c0 -8 -5 -18 -11 -22 -14 -8 -33 11 -25 25 10 16 36 13 36
-3z m609 -89 c6 -8 8 -17 4 -20 -11 -12 -41 -7 -46 7 -10 27 22 36 42 13z
m-979 -106 c169 -58 222 -79 213 -84 -9 -6 -185 35 -248 57 l-40 14 30 4 c29
3 29 4 -15 20 -77 28 -29 19 60 -11z m-10 -51 c13 -9 13 -10 0 -9 -8 0 -24 4
-35 9 l-20 9 20 0 c11 0 27 -4 35 -9z m4733 3 c-7 -2 -21 -2 -30 0 -10 3 -4 5
12 5 17 0 24 -2 18 -5z m-3507 -42 c-10 -16 -36 -13 -43 5 -8 22 18 37 36 20
7 -8 10 -19 7 -25z m-1120 4 c18 -14 18 -14 -4 -15 -14 0 -21 4 -17 10 4 7 -3
9 -22 5 -21 -5 -24 -4 -13 4 20 14 33 14 56 -4z m159 -5 c3 -5 -1 -10 -9 -10
-9 0 -16 5 -16 10 0 6 4 10 9 10 6 0 13 -4 16 -10z m-461 -153 c16 -21 26 -40
23 -43 -9 -9 -117 159 -116 181 0 6 14 -15 32 -45 18 -31 45 -73 61 -93z m353
137 c-3 -3 -12 -4 -19 -1 -8 3 -5 6 6 6 11 1 17 -2 13 -5z m563 -30 c0 -17
-22 -14 -28 4 -2 7 3 12 12 12 9 0 16 -7 16 -16z m-133 -10 c-3 -3 -12 -4 -19
-1 -8 3 -5 6 6 6 11 1 17 -2 13 -5z m-847 -59 c14 -19 14 -19 -2 -6 -10 7 -18
18 -18 24 0 6 1 8 3 6 1 -2 9 -13 17 -24z m1658 -108 c4 -20 -25 -34 -40 -19
-15 15 -1 44 19 40 10 -2 19 -11 21 -21z m-398 -151 c0 -8 -5 -18 -11 -22 -14
-8 -33 11 -25 25 10 16 36 13 36 -3z m110 -6 c0 -5 -4 -10 -10 -10 -5 0 -10 5
-10 10 0 6 5 10 10 10 6 0 10 -4 10 -10z m4975 -10 c3 -5 -1 -10 -10 -10 -9 0
-13 5 -10 10 3 6 8 10 10 10 2 0 7 -4 10 -10z m-6995 -110 c0 -5 -5 -10 -11
-10 -5 0 -7 5 -4 10 3 6 8 10 11 10 2 0 4 -4 4 -10z m2836 -131 c26 -38 59
-65 173 -143 73 -49 43 -46 -43 6 -123 73 -187 156 -185 238 0 19 4 14 14 -18
7 -24 26 -61 41 -83z m-59 -6 c-3 -10 -5 -4 -5 12 0 17 2 24 5 18 2 -7 2 -21
0 -30z m4393 -3 c0 -11 -6 -20 -14 -20 -18 0 -29 16 -21 30 11 18 35 11 35
-10z m-490 -30 c0 -5 -2 -10 -4 -10 -3 0 -8 5 -11 10 -3 6 -1 10 4 10 6 0 11
-4 11 -10z m914 -59 c11 -18 -6 -41 -31 -41 -19 0 -24 4 -19 16 3 9 6 20 6 25
0 12 37 12 44 0z m-7474 -41 c0 -5 -4 -10 -10 -10 -5 0 -10 5 -10 10 0 6 5 10
10 10 6 0 10 -4 10 -10z m3195 -130 c13 -5 14 -9 5 -9 -8 0 -24 4 -35 9 -13 5
-14 9 -5 9 8 0 24 -4 35 -9z m4720 -15 c0 -30 -39 -27 -43 3 -3 20 0 23 20 20
15 -2 23 -10 23 -23z m-2395 -44 c-15 -8 -153 -26 -265 -35 -113 -8 -24 13
115 28 174 18 169 18 150 7z m360 -31 c-8 -5 -24 -10 -35 -10 -17 0 -17 2 -5
10 8 5 24 10 35 10 17 0 17 -2 5 -10z m-533 -36 c-3 -3 -12 -4 -19 -1 -8 3 -5
6 6 6 11 1 17 -2 13 -5z m81 -24 c63 0 29 -7 -63 -13 -84 -6 -88 -5 -60 8 17
8 43 13 59 10 16 -3 44 -5 64 -5z m75 3 c-7 -2 -19 -2 -25 0 -7 3 -2 5 12 5
14 0 19 -2 13 -5z m-1468 -13 c-3 -5 -18 -10 -33 -9 -24 0 -25 1 -7 9 28 12
47 12 40 0z m4380 -100 c3 -5 1 -10 -4 -10 -6 0 -11 5 -11 10 0 6 2 10 4 10 3
0 8 -4 11 -10z m475 -76 c0 -9 -5 -14 -12 -12 -18 6 -21 28 -4 28 9 0 16 -7
16 -16z m411 -117 c-1 -12 -15 -9 -19 4 -3 6 1 10 8 8 6 -3 11 -8 11 -12z
m-1167 -46 c8 -13 -3 -38 -19 -45 -20 -7 -47 17 -39 37 6 18 49 24 58 8z m275
-75 c15 -18 4 -46 -18 -46 -27 0 -42 20 -30 42 12 21 32 23 48 4z m289 -9 c2
-10 -3 -17 -12 -17 -18 0 -29 16 -21 31 9 14 29 6 33 -14z m56 -102 c27 -20
14 -65 -19 -65 -32 0 -39 15 -25 51 14 33 18 34 44 14z m-394 -59 c14 -16 19
-26 11 -21 -7 4 -16 3 -20 -4 -4 -6 -12 8 -18 30 -6 22 -8 37 -4 32 3 -4 17
-21 31 -37z m660 34 c12 -7 12 -13 4 -27 -23 -38 -66 -19 -50 22 6 17 24 19
46 5z m300 -20 c0 -5 -7 -10 -15 -10 -8 0 -15 5 -15 10 0 6 7 10 15 10 8 0 15
-4 15 -10z m-823 -32 c-3 -8 -6 -5 -6 6 -1 11 2 17 5 13 3 -3 4 -12 1 -19z
m123 -23 c13 -16 6 -35 -15 -35 -18 0 -28 17 -21 35 7 19 20 19 36 0z m-113
-27 c-3 -7 -5 -2 -5 12 0 14 2 19 5 13 2 -7 2 -19 0 -25z m-144 2 c3 -11 1
-20 -4 -20 -5 0 -9 9 -9 20 0 11 2 20 4 20 2 0 6 -9 9 -20z m17 -53 c0 -7 -7
-22 -16 -33 -14 -17 -15 -17 -10 -1 3 10 6 25 6 33 0 8 5 14 10 14 6 0 10 -6
10 -13z m915 -21 c19 -14 19 -15 1 -35 -22 -25 -39 -27 -55 -7 -9 11 -10 20
-1 35 13 25 29 26 55 7z m-282 -42 c-8 -21 -43 -18 -43 5 0 11 6 21 13 24 17
6 37 -12 30 -29z m-986 -50 c-3 -3 -12 -4 -19 -1 -8 3 -5 6 6 6 11 1 17 -2 13
-5z m61 -11 c-10 -2 -26 -2 -35 0 -10 3 -2 5 17 5 19 0 27 -2 18 -5z m1817
-17 c17 -12 18 -18 7 -40 -11 -26 -34 -32 -66 -20 -20 8 -21 38 0 58 19 20 35
20 59 2z m-340 -26 c0 -8 -10 -16 -22 -18 -22 -3 -32 16 -16 32 12 11 38 2 38
-14z m249 -219 c8 -12 -21 -34 -34 -26 -17 11 -11 35 9 35 11 0 22 -4 25 -9z
m-1576 -68 c-10 -2 -28 -2 -40 0 -13 2 -5 4 17 4 22 1 32 -1 23 -4z m-678 -34
c52 -27 23 -22 -35 7 -27 13 -39 21 -25 18 14 -4 41 -15 60 -25z m-4753 -72
c26 -36 18 -61 -9 -26 -43 57 -48 63 -48 71 0 14 35 -13 57 -45z m4833 38 c14
-8 21 -14 15 -14 -5 0 -21 6 -35 14 -14 8 -20 14 -15 14 6 0 21 -6 35 -14z
m-635 -53 c3 -8 -8 -3 -24 10 -17 13 -30 27 -30 31 -1 11 47 -25 54 -41z m581
-23 c8 -14 -20 -10 -41 5 -18 13 -18 14 8 9 15 -3 30 -9 33 -14z m-4557 -131
c12 -35 24 -76 27 -93 3 -16 16 -66 29 -110 14 -44 28 -95 32 -114 8 -31 10
-27 37 70 15 57 42 150 60 206 l31 103 58 0 c31 0 57 -1 57 -3 0 -8 -82 -246
-94 -272 -8 -16 -29 -76 -47 -133 l-34 -103 -59 3 -59 3 -68 200 c-37 110 -77
224 -88 253 l-21 52 59 0 59 0 21 -62z m1951 12 l0 -50 -90 0 -90 0 0 -50 0
-50 86 0 85 0 -3 -47 -3 -48 -82 -3 -83 -3 0 -59 0 -60 91 0 c90 0 91 0 85
-22 -3 -13 -6 -33 -6 -45 0 -23 -2 -23 -139 -23 l-138 0 -7 46 c-3 26 -6 141
-6 255 l0 209 150 0 150 0 0 -50z m-2800 -165 l0 -205 105 0 105 0 0 -45 0
-45 -155 0 -155 0 0 250 0 250 50 0 50 0 0 -205z m549 178 c22 -57 161 -456
161 -464 0 -5 -25 -9 -54 -9 l-55 0 -17 60 -17 60 -93 0 -94 0 -17 -60 -16
-60 -58 0 -58 0 24 68 c74 213 146 415 151 423 3 5 34 9 68 9 60 0 64 -2 75
-27z m5971 -93 c0 -5 -4 -10 -10 -10 -5 0 -10 5 -10 10 0 6 5 10 10 10 6 0 10
-4 10 -10z m88 -71 c-3 -20 -5 -19 -9 9 -3 20 -2 29 4 23 5 -5 7 -19 5 -32z
m-7998 21 c0 -4 13 -10 30 -13 19 -4 35 -17 45 -37 8 -16 19 -30 24 -30 9 0
31 -45 31 -63 0 -7 -7 -4 -15 7 -16 21 -82 31 -102 15 -7 -7 -29 -8 -55 -4
-39 7 -41 6 -29 -9 12 -14 10 -16 -12 -16 -16 0 -26 7 -30 20 -7 28 -26 25
-37 -5 -11 -29 -22 -31 -41 -9 -11 13 -10 22 6 52 11 20 34 43 50 51 17 8 32
17 35 20 19 23 100 39 100 21z m789 -135 c13 -12 9 -13 -22 -4 -25 7 -43 7
-55 0 -13 -8 -6 -11 33 -12 28 -2 58 -3 67 -4 25 -1 118 -112 118 -141 0 -13
-4 -24 -10 -24 -5 0 -10 6 -10 13 0 6 -5 19 -10 27 -8 12 -12 13 -19 1 -6 -10
-13 -11 -29 -2 -29 15 -51 14 -70 -5 -12 -12 -27 -15 -63 -11 -38 5 -47 3 -43
-8 3 -7 1 -16 -5 -20 -19 -11 -47 4 -57 33 l-10 27 -29 -42 c-17 -23 -33 -42
-37 -43 -4 0 -14 12 -21 28 -29 57 23 133 128 184 64 30 115 32 144 3z m-969
-76 c0 -5 -4 -9 -10 -9 -5 0 -10 7 -10 16 0 8 5 12 10 9 6 -3 10 -10 10 -16z
m7709 -31 c-2 -2 -29 -25 -59 -53 l-55 -50 54 57 c30 32 57 55 60 53 2 -3 2
-6 0 -7z m-7487 -30 c-13 -13 -91 -20 -107 -9 -5 3 15 9 45 12 30 3 59 6 65 7
5 1 4 -3 -3 -10z m472 -130 c-9 -14 -22 15 -23 47 0 16 2 15 15 -8 8 -15 12
-33 8 -39z m316 -73 c-18 -22 -71 -34 -124 -28 -60 7 -50 20 16 21 29 0 64 5
78 11 36 14 44 13 30 -4z m5033 -74 c7 -8 -7 -2 -30 14 -24 15 -43 30 -43 32
0 7 61 -31 73 -46z m-5849 3 c-3 -40 -14 -60 -14 -25 0 12 -4 20 -9 17 -5 -4
-8 1 -7 10 2 12 21 32 32 34 1 0 0 -16 -2 -36z m5789 11 c42 -29 51 -46 10
-20 -55 36 -67 45 -58 45 6 0 27 -11 48 -25z m78 8 c13 -17 13 -17 -6 -3 -11
8 -22 16 -24 17 -2 2 0 3 6 3 6 0 17 -8 24 -17z m-111 -18 c55 -35 50 -39 -7
-8 -58 32 -60 33 -44 33 6 0 29 -11 51 -25z m-5765 -107 c-23 -145 -60 -288
-74 -288 -13 0 -5 78 9 96 7 7 9 14 4 14 -5 0 -4 4 2 8 8 6 35 105 50 190 8
41 16 23 9 -20z m2533 -133 c35 -8 77 -22 94 -31 25 -13 35 -14 57 -4 59 28
144 41 294 47 l157 6 -1 -169 c0 -168 0 -169 -16 -122 -66 199 -320 237 -443
66 -17 -22 -30 -36 -30 -30 0 23 -76 95 -119 115 -60 26 -144 25 -204 -3 -74
-35 -137 -119 -137 -185 0 -14 -3 -25 -7 -25 -5 0 -8 79 -8 175 l0 175 150 0
c97 0 172 -6 213 -15z m-26 -159 c48 -20 105 -86 119 -138 25 -95 -33 -208
-126 -244 -93 -35 -202 5 -253 91 -19 34 -22 52 -20 112 3 63 7 76 34 110 62
77 161 104 246 69z m469 -9 c175 -92 126 -361 -70 -384 -148 -17 -267 128
-220 268 41 120 178 175 290 116z m906 -195 c18 -3 29 7 50 42 27 43 57 65 71
51 4 -3 -6 -28 -22 -56 l-27 -50 21 -17 c15 -12 23 -33 27 -76 5 -53 4 -58
-13 -54 -18 3 -27 22 -39 81 -5 25 -9 27 -50 27 l-45 0 0 -55 c0 -30 -4 -55
-9 -55 -25 0 -33 36 -36 171 -3 137 3 186 28 201 9 5 13 -21 17 -100 5 -102 6
-107 27 -110z m1325 71 c3 -151 -4 -179 -56 -218 -35 -25 -110 -26 -148 -1
-35 23 -62 94 -54 139 3 18 19 48 34 66 21 26 37 34 73 38 54 6 89 -9 89 -38
0 -17 -4 -19 -22 -12 -36 12 -88 6 -109 -13 -13 -12 -19 -31 -19 -62 0 -62 28
-92 86 -92 36 0 46 5 63 29 19 26 21 44 21 153 0 117 7 148 31 148 5 0 9 -62
11 -137z m123 82 c0 -30 -39 -27 -43 3 -3 20 0 23 20 20 15 -2 23 -10 23 -23z
m-1955 -24 c0 -28 3 -30 43 -33 35 -2 43 -7 45 -25 3 -21 -1 -23 -42 -23 l-46
0 0 -69 c0 -93 4 -101 51 -101 35 0 39 -3 39 -25 0 -20 -5 -25 -24 -25 -37 0
-86 20 -96 40 -15 27 -13 263 2 278 19 19 28 14 28 -17z m327 -56 c33 -22 63
-74 63 -111 0 -72 -86 -143 -157 -129 -47 9 -103 63 -104 102 -3 72 9 107 45
133 45 33 107 35 153 5z m530 8 c65 -31 93 -116 59 -182 -42 -80 -161 -91
-221 -20 -34 41 -36 123 -3 164 41 52 105 67 165 38z m309 1 c43 -21 64 -59
64 -119 0 -60 -21 -98 -64 -119 -58 -27 -126 -14 -126 24 0 18 4 20 23 13 69
-24 127 14 127 81 -1 44 -13 66 -47 84 -33 18 -59 14 -92 -14 l-31 -26 0 -144
c0 -79 -4 -144 -8 -144 -26 0 -32 30 -32 157 0 151 9 180 62 206 42 21 81 21
124 1z m330 -25 c33 -34 37 -45 35 -86 -1 -22 -4 -23 -106 -23 -115 0 -126 -7
-80 -50 30 -29 84 -32 109 -7 20 20 28 21 44 5 26 -26 -33 -68 -97 -68 -59 0
-131 73 -131 133 0 34 20 75 52 103 32 30 46 34 97 30 33 -3 51 -12 77 -37z
m464 -94 c0 -130 -1 -135 -19 -126 -10 6 -21 18 -25 27 -8 21 -8 219 1 227 3
4 15 7 25 7 17 0 18 -11 18 -135z m274 114 c43 -34 56 -70 56 -159 0 -65 -3
-80 -15 -80 -22 0 -35 42 -35 110 0 78 -21 105 -81 104 -54 -2 -89 -37 -89
-90 0 -38 35 -83 67 -85 32 -2 58 3 71 14 11 9 13 5 10 -18 -2 -23 -10 -31
-35 -38 -133 -38 -219 161 -104 239 47 31 117 33 155 3z m-5741 -24 c-3 -9 -8
-14 -10 -11 -3 3 -2 9 2 15 9 16 15 13 8 -4z m2320 -94 c13 -97 113 -182 221
-189 33 -2 72 1 86 6 23 9 31 4 92 -56 l68 -66 64 63 64 63 54 -12 c47 -11 63
-10 112 4 75 22 147 91 170 162 16 49 16 49 13 -81 -5 -152 -20 -196 -96 -274
-78 -80 -94 -83 -501 -85 -191 0 -351 1 -353 4 -8 8 -13 500 -6 500 4 0 9 -18
12 -39z m477 -72 c0 -5 -7 -9 -15 -9 -9 0 -12 6 -9 15 6 15 24 11 24 -6z m62
-76 c16 -17 15 -20 -28 -67 l-46 -49 -46 47 c-39 38 -45 49 -36 64 26 42 116
45 156 5z m-2912 -142 c18 -35 -12 -71 -59 -71 -17 0 -21 -6 -21 -30 0 -16 -4
-30 -10 -30 -6 0 -10 32 -10 75 l0 75 45 0 c34 0 47 -5 55 -19z m169 -12 c22
-39 8 -94 -29 -109 -54 -22 -99 9 -100 69 0 50 25 73 74 69 31 -2 44 -9 55
-29z m90 9 c-1 -17 -2 -19 -6 -5 -10 39 -22 13 -26 -55 l-3 -73 -2 78 c-2 71
0 77 18 77 14 0 20 -6 19 -22z m101 11 c0 -6 -7 -8 -17 -5 -9 4 -20 1 -25 -6
-6 -10 -8 -8 -8 5 0 12 8 17 25 17 14 0 25 -5 25 -11z m-80 -90 c0 -5 5 -7 11
-3 7 4 9 -2 7 -15 -1 -12 -7 -22 -13 -21 -13 1 -27 50 -14 50 5 0 9 -5 9 -11z
m67 -36 c-3 -10 -5 -2 -5 17 0 19 2 27 5 18 2 -10 2 -26 0 -35z"/>
<path d="M2510 9738 c-25 -34 -40 -78 -26 -78 4 0 76 108 76 115 0 17 -24 -1
-50 -37z"/>
<path d="M1650 9990 c-9 -6 -10 -10 -3 -10 6 0 15 5 18 10 8 12 4 12 -15 0z"/>
<path d="M9090 9736 c0 -85 3 -105 16 -110 28 -11 51 -6 77 14 71 56 24 200
-64 200 l-29 0 0 -104z"/>
<path d="M9334 9826 c-3 -7 -4 -33 -2 -57 3 -43 4 -44 41 -47 48 -4 67 11 67
54 0 23 -7 38 -22 48 -28 20 -77 21 -84 2z"/>
<path d="M10016 9533 c-11 -11 -6 -23 9 -23 8 0 15 4 15 9 0 13 -16 22 -24 14z"/>
<path d="M1063 9163 c-15 -5 -19 -15 -106 -223 -75 -178 -87 -216 -66 -208 8
3 59 20 114 37 115 37 205 89 249 144 28 35 31 46 31 107 0 62 -3 72 -28 98
-40 42 -143 66 -194 45z"/>
<path d="M2000 8790 c0 -5 5 -10 11 -10 5 0 7 5 4 10 -3 6 -8 10 -11 10 -2 0
-4 -4 -4 -10z"/>
<path d="M1347 8593 c-32 -48 -39 -74 -27 -93 8 -13 11 -12 24 5 17 22 41 113
33 121 -3 3 -17 -11 -30 -33z"/>
<path d="M2110 8670 c-8 -5 -11 -10 -5 -10 5 0 4 -5 -2 -11 -6 -6 -8 -19 -6
-30 5 -19 6 -19 22 3 17 25 25 58 13 58 -4 0 -14 -5 -22 -10z"/>
<path d="M3560 7540 c0 -40 0 -40 40 -40 29 0 42 5 50 19 13 25 13 27 -6 45
-8 9 -31 16 -50 16 -33 0 -34 -1 -34 -40z"/>
<path d="M4390 7545 c0 -33 2 -35 34 -35 44 0 70 24 56 51 -8 14 -21 19 -50
19 -39 0 -40 -1 -40 -35z"/>
<path d="M4392 7453 c3 -33 7 -38 30 -41 35 -4 68 14 68 36 0 28 -21 42 -63
42 -38 0 -38 0 -35 -37z"/>
<path d="M3780 7462 c-33 -5 -50 -20 -43 -38 7 -18 47 -18 63 1 18 22 8 40
-20 37z"/>
<path d="M4095 7463 c-47 -12 -55 -53 -11 -53 27 0 46 18 46 42 0 19 -1 19
-35 11z"/>
<path d="M4786 7514 c-31 -30 -11 -104 28 -104 21 0 46 35 46 63 0 15 -9 32
-22 41 -28 20 -33 20 -52 0z"/>
<path d="M5272 7518 c-24 -24 -13 -38 28 -38 43 0 49 9 24 34 -19 19 -36 20
-52 4z"/>
<path d="M5888 7519 c-23 -13 -24 -72 -2 -93 19 -19 25 -20 49 -2 24 17 23 75
-1 93 -21 15 -24 15 -46 2z"/>
<path d="M6426 7514 c-22 -21 -18 -83 7 -98 37 -24 76 39 53 85 -15 30 -39 35
-60 13z"/>
<path d="M7198 7519 c-12 -7 -18 -22 -18 -48 0 -49 21 -69 55 -53 20 9 25 19
25 46 0 19 -7 42 -16 50 -18 19 -23 19 -46 5z"/>
<path d="M8067 7512 c-25 -28 -21 -32 28 -32 49 0 50 1 35 31 -13 24 -42 25
-63 1z"/>
<path d="M8255 7463 c-47 -12 -55 -53 -11 -53 27 0 46 18 46 42 0 19 -1 19
-35 11z"/>
<path d="M8912 7518 c-24 -24 -13 -38 28 -38 43 0 49 9 24 34 -19 19 -36 20
-52 4z"/>
<path d="M9260 7461 c-34 -9 -34 -45 -1 -49 25 -4 51 19 51 45 0 14 -11 15
-50 4z"/>
<path d="M9545 7463 c-47 -12 -55 -53 -11 -53 27 0 46 18 46 42 0 19 -1 19
-35 11z"/>
<path d="M4242 7148 c-7 -7 -12 -27 -12 -45 0 -24 7 -37 26 -50 26 -16 27 -16
45 6 22 26 23 39 9 75 -10 28 -47 35 -68 14z"/>
<path d="M5611 7151 c-22 -14 -19 -80 4 -97 24 -18 36 -14 55 19 28 50 -15
106 -59 78z"/>
<path d="M7220 7141 c-18 -35 -12 -69 16 -88 26 -16 27 -16 45 6 33 41 18 101
-26 101 -14 0 -29 -8 -35 -19z"/>
<path d="M10012 7148 c-7 -7 -12 -27 -12 -45 0 -24 7 -37 26 -50 26 -16 27
-16 45 6 21 26 24 53 9 82 -12 21 -50 25 -68 7z"/>
<path d="M4648 7089 c-24 -14 -23 -36 3 -44 22 -7 59 18 59 42 0 15 -37 17
-62 2z"/>
<path d="M5151 7141 c-14 -25 -5 -31 41 -31 24 0 38 5 38 13 0 37 -62 51 -79
18z"/>
<path d="M5783 7090 c-27 -11 -29 -23 -8 -40 21 -18 65 2 65 30 0 22 -19 25
-57 10z"/>
<path d="M6771 7141 c-13 -24 -5 -31 35 -31 38 0 51 14 34 35 -17 21 -57 19
-69 -4z"/>
<path d="M7583 7093 c-18 -7 -16 -42 1 -49 22 -8 56 14 56 36 0 20 -27 26 -57
13z"/>
<path d="M8748 7093 c-22 -5 -24 -39 -3 -47 26 -10 65 19 65 48 0 7 -36 6 -62
-1z"/>
<path d="M9192 7148 c-17 -17 -15 -74 4 -92 18 -19 20 -19 45 -6 14 8 19 21
19 48 0 40 -14 62 -40 62 -9 0 -21 -5 -28 -12z"/>
<path d="M9368 7089 c-25 -14 -22 -36 4 -45 16 -5 27 -1 40 16 10 12 18 26 18
31 0 12 -41 11 -62 -2z"/>
<path d="M9832 7148 c-24 -24 -13 -38 29 -38 36 0 40 2 37 23 -3 25 -45 36
-66 15z"/>
<path d="M6416 6787 c-13 -9 -17 -23 -14 -51 4 -45 28 -67 56 -50 25 16 29 84
6 101 -10 7 -21 13 -24 13 -3 0 -14 -6 -24 -13z"/>
<path d="M8967 6782 c-20 -22 -22 -73 -5 -90 19 -19 45 -14 62 10 21 30 20 54
-4 78 -25 25 -32 25 -53 2z"/>
<path d="M6587 6782 c-25 -28 -21 -32 28 -32 49 0 55 8 27 33 -24 22 -35 21
-55 -1z"/>
<path d="M7033 6723 c-7 -2 -13 -14 -13 -24 0 -30 60 -22 71 9 7 19 5 22 -19
21 -15 0 -33 -3 -39 -6z"/>
<path d="M7380 6715 c-15 -19 -5 -35 24 -35 25 0 46 17 46 37 0 18 -55 17 -70
-2z"/>
<path d="M7710 6715 c-15 -19 -5 -35 24 -35 25 0 46 17 46 37 0 18 -55 17 -70
-2z"/>
<path d="M8197 6782 c-25 -28 -21 -32 28 -32 49 0 55 8 27 33 -24 22 -35 21
-55 -1z"/>
<path d="M8366 6787 c-23 -17 -19 -85 7 -101 42 -26 79 60 42 98 -20 19 -26
20 -49 3z"/>
<path d="M8537 6723 c-16 -16 -6 -43 16 -43 27 0 41 10 50 33 5 14 1 17 -27
17 -18 0 -36 -3 -39 -7z"/>
<path d="M9141 6721 c-21 -13 -5 -41 23 -41 22 0 46 24 46 44 0 9 -54 7 -69
-3z"/>
<path d="M9736 6784 c-25 -25 -19 -34 24 -34 41 0 52 14 28 38 -16 16 -33 15
-52 -4z"/>
<path d="M10081 6721 c-21 -13 -5 -41 23 -41 22 0 46 24 46 44 0 9 -54 7 -69
-3z"/>
<path d="M7250 6411 c-22 -42 -2 -101 34 -101 20 0 46 34 46 62 0 48 -59 77
-80 39z"/>
<path d="M7515 6406 c-20 -31 -13 -71 14 -86 27 -14 50 -3 58 28 16 64 -39
108 -72 58z"/>
<path d="M9899 6409 c-16 -30 -3 -86 22 -94 28 -9 59 21 59 56 0 53 -58 80
-81 38z"/>
<path d="M5273 6360 c-27 -11 -30 -35 -7 -44 24 -9 31 -8 48 10 35 35 11 55
-41 34z"/>
<path d="M4633 6360 c-25 -10 -26 -11 -17 -34 8 -20 38 -21 58 0 35 35 11 55
-41 34z"/>
<path d="M4912 6418 c-24 -24 -13 -38 28 -38 26 0 40 5 40 13 0 18 -21 37 -40
37 -9 0 -21 -5 -28 -12z"/>
<path d="M6653 6360 c-27 -11 -29 -23 -8 -40 21 -18 65 2 65 30 0 22 -19 25
-57 10z"/>
<path d="M7002 6418 c-19 -19 -15 -86 6 -97 29 -16 62 13 62 53 0 35 -15 56
-40 56 -9 0 -21 -5 -28 -12z"/>
<path d="M7692 6418 c-24 -24 -13 -38 28 -38 26 0 40 5 40 13 0 18 -21 37 -40
37 -9 0 -21 -5 -28 -12z"/>
<path d="M8212 6359 c-29 -11 -26 -43 5 -47 19 -3 53 29 53 50 0 10 -29 9 -58
-3z"/>
<path d="M8792 6418 c-24 -24 -13 -38 28 -38 26 0 40 5 40 13 0 18 -21 37 -40
37 -9 0 -21 -5 -28 -12z"/>
<path d="M9042 6359 c-29 -11 -26 -43 4 -47 24 -3 54 21 54 44 0 16 -24 17
-58 3z"/>
<path d="M9482 6359 c-29 -11 -26 -43 5 -47 19 -3 53 29 53 50 0 10 -29 9 -58
-3z"/>
<path d="M2718 6113 c7 -3 16 -2 19 1 4 3 -2 6 -13 5 -11 0 -14 -3 -6 -6z"/>
<path d="M2785 6110 c19 -8 113 -14 104 -6 -2 2 -31 6 -64 9 -36 3 -52 2 -40
-3z"/>
<path d="M2945 6099 c-26 -17 -27 -19 -9 -19 12 0 27 7 34 15 19 23 9 25 -25
4z"/>
<path d="M3150 6107 c0 -7 9 -13 20 -13 24 0 26 11 4 20 -22 8 -24 8 -24 -7z"/>
<path d="M3015 6088 c17 -6 35 -15 41 -20 6 -4 20 -5 30 -1 15 5 12 9 -17 19
-19 7 -45 12 -59 12 -24 0 -23 0 5 -10z"/>
<path d="M2885 6030 c-13 -6 -15 -9 -5 -9 8 0 22 4 30 9 18 12 2 12 -25 0z"/>
<path d="M2774 5984 c-18 -14 -18 -14 6 -3 31 14 36 19 24 19 -6 0 -19 -7 -30
-16z"/>
<path d="M2480 5949 c0 -5 5 -7 10 -4 6 3 10 8 10 11 0 2 -4 4 -10 4 -5 0 -10
-5 -10 -11z"/>
<path d="M2719 5783 l-24 -28 28 24 c25 23 32 31 24 31 -2 0 -14 -12 -28 -27z"/>
<path d="M2580 5619 c0 -5 5 -7 10 -4 6 3 10 8 10 11 0 2 -4 4 -10 4 -5 0 -10
-5 -10 -11z"/>
<path d="M5293 5662 c-73 -1 -133 -7 -133 -12 0 -12 511 -13 530 0 13 8 13 10
-2 10 -9 0 -25 3 -35 6 -14 5 -15 4 -4 -4 13 -9 -110 -8 -204 1 -11 1 -80 1
-152 -1z"/>
<path d="M5130 5650 c0 -5 5 -10 11 -10 5 0 7 5 4 10 -3 6 -8 10 -11 10 -2 0
-4 -4 -4 -10z"/>
<path d="M5088 5643 c6 -2 18 -2 25 0 6 3 1 5 -13 5 -14 0 -19 -2 -12 -5z"/>
<path d="M5969 5636 c25 -14 51 -11 51 5 0 5 -17 9 -37 9 -37 -1 -38 -1 -14
-14z"/>
<path d="M4065 5450 c-16 -7 -17 -9 -3 -9 9 -1 20 4 23 9 7 11 7 11 -20 0z"/>
<path d="M3930 5416 c-148 -52 -284 -136 -321 -198 -17 -31 1 -20 45 27 24 25
47 45 51 45 16 0 120 53 127 65 4 7 29 18 55 25 54 16 145 59 123 59 -8 0 -44
-10 -80 -23z"/>
<path d="M7194 4989 c-45 -51 -143 -111 -256 -155 -65 -26 -117 -49 -114 -51
12 -13 357 124 371 148 3 5 -1 6 -9 3 -23 -9 -20 2 10 42 29 38 28 46 -2 13z"/>
<path d="M4138 4683 c7 -3 16 -2 19 1 4 3 -2 6 -13 5 -11 0 -14 -3 -6 -6z"/>
<path d="M4248 4663 c7 -3 16 -2 19 1 4 3 -2 6 -13 5 -11 0 -14 -3 -6 -6z"/>
<path d="M3980 4648 c13 -15 297 -79 340 -77 15 1 7 5 -20 10 -73 15 -273 59
-300 66 -14 3 -23 4 -20 1z"/>
<path d="M4693 4633 c9 -2 23 -2 30 0 6 3 -1 5 -18 5 -16 0 -22 -2 -12 -5z"/>
<path d="M4368 4563 c7 -3 16 -2 19 1 4 3 -2 6 -13 5 -11 0 -14 -3 -6 -6z"/>
<path d="M4468 4543 c7 -3 16 -2 19 1 4 3 -2 6 -13 5 -11 0 -14 -3 -6 -6z"/>
<path d="M3420 3544 c0 -11 7 -29 15 -40 14 -19 14 -19 14 1 0 11 -6 29 -14
39 -15 20 -15 20 -15 0z"/>
<path d="M7260 3467 c-12 -20 -12 -21 2 -9 13 10 17 10 21 0 4 -9 6 -7 6 4 1
26 -14 29 -29 5z"/>
<path d="M7312 3405 c0 -16 2 -22 5 -12 2 9 2 23 0 30 -3 6 -5 -1 -5 -18z"/>
<path d="M7193 3385 c0 -22 2 -30 4 -17 2 12 2 30 0 40 -3 9 -5 -1 -4 -23z"/>
<path d="M7115 3380 c-27 -30 -35 -147 -11 -156 26 -10 56 24 56 63 0 32 -12
43 -25 23 -3 -5 -1 -10 4 -10 15 0 14 -33 -1 -48 -7 -7 -18 -12 -25 -12 -19 0
-17 84 3 122 16 31 17 31 31 12 14 -19 15 -19 11 0 -4 28 -22 30 -43 6z"/>
<path d="M6960 3315 c-29 -31 -39 -120 -17 -149 14 -19 15 -19 45 0 27 15 32
24 32 55 0 32 -3 36 -20 32 -23 -6 -27 -23 -5 -23 21 0 19 -16 -5 -40 -29 -29
-40 -17 -40 44 0 41 5 57 21 72 17 15 22 16 29 4 11 -19 22 -8 14 14 -9 23
-27 20 -54 -9z"/>
<path d="M7265 3330 c-4 -6 -11 -8 -16 -5 -5 4 -9 1 -9 -4 0 -17 27 -13 34 4
6 17 0 20 -9 5z"/>
<path d="M4403 3323 c9 -2 23 -2 30 0 6 3 -1 5 -18 5 -16 0 -22 -2 -12 -5z"/>
<path d="M6280 3309 c-93 -13 -319 -38 -449 -50 -99 -9 -127 -15 -143 -31 -11
-11 -25 -17 -33 -15 -8 4 -11 -1 -8 -13 3 -11 0 -33 -6 -50 -5 -17 -7 -28 -2
-26 4 3 17 -1 27 -9 17 -13 14 -14 -38 -15 l-58 0 0 -95 0 -95 26 0 c14 0 23
-4 19 -9 -3 -6 3 -14 12 -20 16 -9 14 -10 -9 -11 -18 0 -28 -5 -28 -15 0 -8 5
-15 11 -15 6 0 8 -8 5 -17 -3 -10 -10 -37 -16 -61 -6 -24 -20 -52 -31 -63 -27
-27 -15 -42 27 -35 38 8 84 -2 84 -17 0 -6 -3 -8 -6 -4 -13 13 -33 -21 -28
-48 3 -15 1 -24 -5 -21 -5 3 -12 0 -14 -6 -4 -10 -6 -10 -6 0 -1 6 -13 12 -27
12 -23 0 -25 -3 -22 -37 2 -30 7 -37 25 -38 13 -1 26 -5 30 -10 5 -4 0 -5 -9
-2 -10 4 -18 2 -18 -3 0 -6 5 -10 10 -10 6 0 10 -7 10 -16 0 -12 -4 -11 -18 7
l-19 22 -7 -29 c-4 -16 -9 -37 -12 -47 -4 -14 -1 -18 13 -17 38 4 64 0 58 -10
-4 -6 -11 -8 -16 -5 -5 4 -9 -3 -9 -14 0 -12 -5 -21 -11 -21 -6 0 -8 7 -5 16
4 10 1 14 -6 12 -15 -5 -24 -78 -9 -78 5 0 11 6 13 12 3 9 9 8 22 -5 10 -9 14
-17 9 -17 -4 0 -1 -4 7 -10 9 -6 19 -5 28 2 15 13 52 19 52 9 0 -13 -75 -39
-84 -30 -6 5 -20 9 -33 9 -20 0 -23 -5 -23 -38 l0 -39 115 1 c63 1 115 5 115
9 0 5 6 5 12 1 7 -5 21 -9 31 -9 10 -1 22 -8 27 -15 4 -7 13 -9 19 -6 6 4 9
11 6 16 -3 5 -2 11 3 14 4 2 9 -12 10 -32 2 -20 7 -38 12 -40 6 -2 10 -11 11
-20 0 -11 3 -12 6 -5 3 8 11 10 21 5 19 -9 187 9 177 19 -3 4 1 9 10 12 8 4
15 2 15 -3 0 -11 61 -11 105 0 29 7 29 8 5 10 -33 4 -41 3 -65 -5 -20 -7 -20
-6 -1 9 11 9 15 16 9 16 -7 0 -15 -4 -18 -10 -3 -5 -10 -10 -15 -10 -14 0 -42
32 -33 39 4 3 9 14 10 24 1 13 -4 17 -15 12 -13 -5 -14 -3 -6 5 15 15 54 3 54
-16 0 -8 5 -14 11 -14 5 0 7 5 4 10 -3 6 -1 10 4 10 22 0 10 20 -11 21 -21 1
83 23 160 34 43 6 49 10 55 41 5 28 2 28 -98 10 -16 -3 -21 -3 -10 0 32 10 55
40 57 78 2 19 6 32 9 30 4 -2 10 3 13 12 9 22 8 24 -11 25 -15 0 -15 2 2 8 11
5 26 6 33 3 7 -2 18 1 26 7 11 9 73 25 136 35 36 6 50 19 50 47 0 25 -3 28
-17 20 -36 -19 -113 -32 -131 -22 -15 9 -15 10 3 11 l20 1 -20 9 c-17 6 -13 9
20 15 50 10 65 21 65 51 0 28 1 28 -70 9 -30 -8 -60 -15 -66 -15 -16 0 -16 80
-1 81 7 0 1 4 -11 10 -13 5 -28 7 -32 4 -5 -3 -12 0 -16 6 -4 7 -3 9 3 6 6 -4
17 1 24 10 8 9 9 14 3 10 -7 -4 -14 3 -17 19 l-4 25 22 -21 c27 -26 39 -14 37
36 -1 18 5 37 12 41 14 9 28 53 16 53 -4 0 -7 13 -6 30 1 16 4 30 9 30 4 0 7
7 7 16 0 8 -3 13 -7 11 -13 -8 -6 114 7 126 9 9 11 7 10 -8 -1 -11 -2 -43 -1
-71 l1 -52 52 12 c68 15 80 41 14 31 -45 -7 -46 -7 -44 19 2 18 10 28 30 35
35 13 38 36 3 27 -21 -5 -25 -3 -25 14 0 15 8 22 30 26 29 6 58 30 47 40 -2 3
-31 -2 -63 -10 -60 -16 -74 -14 -74 10 0 8 -7 14 -15 14 -8 0 -15 3 -14 8 3
18 -15 52 -27 52 -8 0 -14 4 -14 9 0 14 -31 17 -90 10z m130 -264 c-7 -49 -7
-49 -8 20 0 44 2 62 7 50 4 -11 5 -42 1 -70z m-582 68 c-10 -2 -28 -2 -40 0
-13 2 -5 4 17 4 22 1 32 -1 23 -4z m539 -65 c-3 -7 -5 -2 -5 12 0 14 2 19 5
13 2 -7 2 -19 0 -25z m23 -149 c-6 -10 -13 -19 -16 -19 -2 0 0 8 5 19 6 10 7
22 3 26 -4 5 -1 5 6 1 9 -5 9 -12 2 -27z m-715 -299 c4 -6 1 -18 -6 -26 -12
-14 -14 -14 -20 3 -10 29 11 47 26 23z m365 -374 c0 -3 -4 -8 -10 -11 -5 -3
-10 -1 -10 4 0 6 5 11 10 11 6 0 10 -2 10 -4z m-68 -22 c-13 -9 -21 -10 -32
-1 -8 6 -17 13 -19 14 -2 1 12 2 32 1 32 -1 34 -3 19 -14z"/>
<path d="M6896 3240 l-9 -64 -26 52 c-28 57 -51 68 -51 23 0 -15 -3 -56 -6
-90 -5 -43 -3 -61 5 -61 7 0 11 20 12 53 0 28 4 61 8 71 6 15 11 10 29 -32 39
-91 55 -78 50 39 l-3 74 -9 -65z"/>
<path d="M7215 3289 c-4 -6 -13 -8 -21 -5 -8 3 -14 -1 -14 -9 0 -21 14 -19 35
5 10 11 15 20 12 20 -3 0 -9 -5 -12 -11z"/>
<path d="M6757 3253 c-11 -11 -8 -163 3 -163 6 0 10 35 10 85 0 85 -1 91 -13
78z"/>
<path d="M6694 3189 l-7 -61 -28 49 c-16 26 -34 48 -41 48 -14 0 -34 -144 -24
-171 13 -33 26 1 26 64 l1 67 35 -57 c20 -32 39 -58 43 -58 9 0 21 83 21 143
0 59 -18 43 -26 -24z"/>
<path d="M3940 3192 c14 -9 34 -26 45 -37 11 -12 34 -29 50 -39 l30 -19 -20
22 c-24 28 -110 91 -121 90 -5 0 2 -8 16 -17z"/>
<path d="M3420 3135 c0 -18 12 -43 30 -65 38 -45 38 -24 0 43 -28 49 -30 50
-30 22z"/>
<path d="M7119 3128 c0 -2 -2 -36 -4 -75 -4 -68 6 -98 18 -53 3 11 2 20 -3 20
-4 0 -4 17 1 38 11 49 11 72 -1 72 -5 0 -10 -1 -11 -2z"/>
<path d="M5288 3034 c-5 -133 7 -832 15 -840 4 -4 10 -4 15 0 19 20 6 886 -15
907 -8 8 -12 -9 -15 -67z"/>
<path d="M7072 3098 c-7 -7 -17 -14 -22 -14 -6 -1 -14 -2 -18 -3 -5 0 -14 -13
-21 -28 -11 -24 -11 -25 5 -12 16 13 17 11 10 -26 -4 -22 -10 -51 -13 -64 -4
-15 -2 -22 4 -18 6 4 16 33 23 65 7 33 16 65 21 73 16 26 21 -1 9 -50 -6 -28
-10 -56 -8 -63 3 -7 13 20 23 60 18 74 12 105 -13 80z"/>
<path d="M4177 3079 c7 -7 15 -10 18 -7 3 3 -2 9 -12 12 -14 6 -15 5 -6 -5z"/>
<path d="M3425 3043 c7 -28 43 -93 51 -93 8 0 -10 55 -29 87 -23 40 -31 42
-22 6z"/>
<path d="M6976 3062 c-4 -7 -12 -10 -17 -6 -13 8 -47 -23 -65 -58 -8 -15 -14
-45 -14 -68 0 -33 3 -40 19 -40 11 0 23 5 26 10 3 6 15 10 25 10 19 0 54 39
44 49 -3 3 -9 -1 -14 -9 -14 -21 -13 14 1 63 11 41 8 70 -5 49z m-19 -68 c-11
-66 -57 -113 -57 -58 0 36 29 94 47 94 12 0 14 -8 10 -36z"/>
<path d="M4370 3024 c28 -32 38 -38 52 -30 15 9 13 12 -15 24 -17 7 -40 21
-52 30 -11 9 -4 -1 15 -24z"/>
<path d="M4095 3043 c-47 -7 -49 -19 -2 -15 23 2 46 8 52 13 9 9 5 9 -50 2z"/>
<path d="M4590 3020 c0 -5 5 -10 11 -10 5 0 7 5 4 10 -3 6 -8 10 -11 10 -2 0
-4 -4 -4 -10z"/>
<path d="M6808 3000 c-49 -38 -66 -141 -25 -148 22 -4 77 44 77 67 0 11 -8 6
-23 -13 -16 -20 -29 -27 -40 -23 -23 8 -13 29 24 51 31 18 50 52 42 74 -7 17
-27 15 -55 -8z m32 -18 c0 -5 -9 -17 -20 -27 -16 -14 -20 -15 -20 -4 0 16 19
39 32 39 4 0 8 -4 8 -8z"/>
<path d="M3764 2958 c3 -29 6 -90 6 -135 l0 -81 33 -11 c28 -9 30 -9 14 3 -14
11 -19 35 -24 130 -7 128 -2 137 50 96 39 -31 60 -98 55 -171 l-4 -62 19 24
c28 35 19 127 -18 175 -22 29 -108 84 -131 84 -4 0 -4 -24 0 -52z"/>
<path d="M6595 3001 c-55 -10 -82 -29 -105 -77 -24 -49 -26 -107 -4 -128 25
-26 72 -20 105 13 28 29 37 51 21 51 -5 0 -19 -11 -32 -25 -14 -15 -33 -25
-45 -23 -17 3 -20 10 -19 51 1 86 72 143 97 78 12 -32 34 -40 55 -19 15 15 15
15 -2 -49 -12 -45 -12 -53 0 -53 7 0 18 18 24 41 18 64 32 89 52 89 11 0 18 7
18 20 0 21 -24 27 -35 9 -4 -6 -13 -8 -21 -5 -8 3 -23 -3 -34 -14 -20 -20 -20
-20 -20 15 0 19 -3 34 -7 34 -5 -1 -26 -5 -48 -8z"/>
<path d="M4346 2991 c-3 -4 6 -6 19 -3 14 2 25 6 25 8 0 8 -39 4 -44 -5z"/>
<path d="M4460 2990 c8 -5 22 -9 30 -9 10 0 8 3 -5 9 -27 12 -43 12 -25 0z"/>
<path d="M3430 2961 c0 -26 42 -101 47 -84 3 7 -7 33 -21 60 -20 38 -25 43
-26 24z"/>
<path d="M4510 2976 c0 -2 7 -6 15 -10 8 -3 15 -1 15 4 0 6 -7 10 -15 10 -8 0
-15 -2 -15 -4z"/>
<path d="M3963 2926 c4 -10 7 -71 7 -136 0 -105 2 -118 18 -122 17 -5 18 0 14
50 -5 53 -4 54 19 47 25 -8 28 -12 69 -84 14 -24 35 -48 47 -52 19 -7 16 1
-20 58 -32 51 -50 70 -80 81 l-38 16 3 73 c2 40 0 73 -4 73 -3 0 -14 3 -24 7
-14 5 -16 3 -11 -11z"/>
<path d="M4572 2930 c2 -9 -9 -17 -32 -22 -25 -5 -21 -6 17 -2 30 2 54 0 58
-6 12 -19 25 -10 24 18 0 15 -3 21 -6 15 -2 -7 -12 -13 -22 -13 -9 0 -23 6
-30 13 -10 10 -12 9 -9 -3z"/>
<path d="M4085 2878 c21 -25 26 -40 23 -70 -2 -23 0 -37 7 -35 5 2 11 21 13
43 2 33 -2 45 -24 67 -37 38 -52 34 -19 -5z"/>
<path d="M7131 2840 c-82 -127 -127 -307 -105 -419 12 -59 21 -31 16 50 -5 90
7 158 45 252 30 76 48 97 39 47 -17 -99 -18 -207 -2 -263 9 -31 21 -57 26 -57
14 0 12 12 -6 56 -26 60 -21 199 10 304 13 47 23 87 21 89 -2 2 -22 -25 -44
-59z"/>
<path d="M7260 2862 c0 -13 -8 -37 -17 -55 -23 -42 -27 -181 -4 -147 7 11 20
20 27 20 10 0 14 12 13 38 -1 31 -2 33 -8 13 -11 -40 -31 -38 -31 3 0 67 39
113 41 48 1 -22 3 -20 10 12 5 22 6 42 1 45 -5 3 -14 15 -20 26 -11 19 -11 19
-12 -3z"/>
<path d="M4344 2718 c0 -69 5 -126 11 -130 6 -4 19 -7 30 -7 11 0 14 3 8 6
-10 3 -13 39 -13 129 0 114 -1 124 -19 124 -17 0 -18 -9 -17 -122z"/>
<path d="M4560 2795 c24 -63 103 -241 111 -250 6 -5 13 -5 20 2 8 8 -2 41 -35
120 -25 60 -46 119 -46 131 0 18 -6 22 -30 22 -27 0 -29 -2 -20 -25z"/>
<path d="M4707 2781 c9 -20 21 -54 27 -76 6 -22 16 -45 22 -52 6 -6 21 -37 34
-68 16 -39 28 -55 39 -53 15 3 61 73 60 93 0 6 -9 -7 -20 -28 -11 -22 -22 -37
-25 -35 -12 13 -84 192 -84 211 0 16 -9 25 -34 33 l-35 11 16 -36z"/>
<path d="M4920 2775 c9 -11 9 -22 1 -46 -6 -18 -11 -35 -10 -38 0 -6 49 89 49
96 0 2 -12 3 -26 3 -22 0 -24 -2 -14 -15z"/>
<path d="M9201 2654 c18 -20 42 -40 52 -46 31 -16 3 27 -37 57 -47 36 -56 31
-15 -11z"/>
<path d="M4190 2635 c0 -8 7 -15 15 -15 8 0 15 7 15 15 0 8 -7 15 -15 15 -8 0
-15 -7 -15 -15z"/>
<path d="M4726 2635 c-9 -26 -7 -32 5 -12 6 10 9 21 6 23 -2 3 -7 -2 -11 -11z"/>
<path d="M4512 2598 c-6 -6 -28 -14 -49 -18 l-38 -8 46 -1 c35 -1 48 3 53 15
8 21 3 27 -12 12z"/>
<path d="M9315 2579 c11 -13 36 -40 55 -59 20 -19 42 -44 48 -55 8 -15 14 -17
22 -9 17 17 -11 56 -69 97 -67 49 -79 55 -56 26z"/>
<path d="M4073 2525 c0 -8 4 -12 9 -9 5 3 6 10 3 15 -9 13 -12 11 -12 -6z"/>
<path d="M9160 2535 c0 -2 10 -10 23 -16 20 -11 21 -11 8 4 -13 16 -31 23 -31
12z"/>
<path d="M9094 2511 c9 -15 76 -51 76 -41 0 12 -50 50 -67 50 -8 0 -12 -4 -9
-9z"/>
<path d="M4291 2480 c0 -33 1 -34 10 -11 6 16 6 28 -1 35 -7 7 -10 -1 -9 -24z"/>
<path d="M9211 2459 c19 -27 58 -52 67 -44 5 5 -16 41 -34 59 -8 9 -24 16 -35
16 -20 0 -20 -1 2 -31z"/>
<path d="M4320 2470 c0 -4 7 -13 15 -20 12 -10 15 -9 15 7 0 11 -7 20 -15 20
-8 0 -15 -4 -15 -7z"/>
<path d="M9282 2446 c15 -22 32 -36 50 -38 16 -3 28 -2 28 2 0 15 -75 70 -94
70 -4 0 4 -15 16 -34z"/>
<path d="M4750 2425 c0 -28 3 -33 17 -28 11 4 12 8 5 11 -16 5 -15 39 1 45 7
3 5 6 -5 6 -14 1 -18 -7 -18 -34z"/>
<path d="M4917 2443 c-4 -3 -7 -21 -7 -40 0 -31 2 -33 33 -32 l32 1 -30 8 -30
7 24 10 25 10 -25 8 -24 8 23 4 c12 2 22 9 22 14 0 10 -33 12 -43 2z"/>
<path d="M4595 2420 c-3 -5 -1 -10 4 -10 6 0 11 5 11 10 0 6 -2 10 -4 10 -3 0
-8 -4 -11 -10z"/>
<path d="M8933 2375 c20 -19 37 -39 37 -44 0 -11 38 -45 54 -47 8 -1 23 -5 35
-9 15 -4 19 -3 15 7 -9 20 -120 107 -151 118 -26 10 -26 8 10 -25z"/>
<path d="M6610 2390 c-14 -4 -60 -16 -102 -26 -59 -13 -79 -22 -84 -36 -10
-33 8 -38 66 -22 30 8 70 17 89 20 50 7 71 22 71 49 0 27 -2 28 -40 15z m20
-30 c0 -5 -4 -10 -9 -10 -6 0 -13 5 -16 10 -3 6 1 10 9 10 9 0 16 -4 16 -10z"/>
<path d="M9270 2350 c0 -5 7 -10 15 -10 8 0 15 5 15 10 0 6 -7 10 -15 10 -8 0
-15 -4 -15 -10z"/>
<path d="M9020 2271 c0 -4 12 -14 28 -21 15 -8 41 -24 58 -37 28 -19 34 -20
44 -8 10 12 8 16 -11 24 -13 6 -45 19 -71 30 -27 11 -48 16 -48 12z"/>
<path d="M3870 2250 c8 -5 20 -10 25 -10 6 0 3 5 -5 10 -8 5 -19 10 -25 10 -5
0 -3 -5 5 -10z"/>
<path d="M9381 2223 c-1 -17 4 -35 9 -38 11 -7 11 9 0 45 -8 24 -8 24 -9 -7z"/>
<path d="M6615 2200 c-3 -6 1 -13 10 -16 19 -8 30 0 20 15 -8 14 -22 14 -30 1z"/>
<path d="M6488 2173 c6 -2 18 -2 25 0 6 3 1 5 -13 5 -14 0 -19 -2 -12 -5z"/>
<path d="M4180 2160 c14 -4 39 -8 55 -8 29 0 29 0 5 8 -14 4 -38 8 -55 8 -29
0 -29 0 -5 -8z"/>
<path d="M6457 2163 c-4 -6 -25 -10 -48 -11 -65 -3 -60 -12 7 -14 83 -2 143 2
184 13 27 7 18 8 -41 5 -44 -3 -81 0 -87 6 -6 6 -12 6 -15 1z"/>
<path d="M9370 2150 c0 -5 5 -10 10 -10 6 0 10 5 10 10 0 6 -4 10 -10 10 -5 0
-10 -4 -10 -10z"/>
<path d="M6658 2123 c7 -3 16 -2 19 1 4 3 -2 6 -13 5 -11 0 -14 -3 -6 -6z"/>
<path d="M7585 2120 c3 -5 8 -10 11 -10 2 0 4 5 4 10 0 6 -5 10 -11 10 -5 0
-7 -4 -4 -10z"/>
<path d="M9030 2120 c0 -5 10 -10 23 -10 18 0 19 2 7 10 -19 13 -30 13 -30 0z"/>
<path d="M7624 2111 c4 -6 12 -11 17 -11 6 0 21 -12 35 -27 23 -25 82 -44 68
-21 -4 6 -1 14 6 18 8 5 7 9 -5 13 -9 4 -13 3 -10 -3 10 -16 -3 -12 -33 10
-33 23 -89 39 -78 21z"/>
<path d="M7565 2100 c3 -5 11 -10 16 -10 6 0 7 5 4 10 -3 6 -11 10 -16 10 -6
0 -7 -4 -4 -10z"/>
<path d="M7470 2056 c0 -3 21 -20 48 -37 36 -25 42 -27 27 -10 -19 22 -75 57
-75 47z"/>
<path d="M7775 2050 c3 -5 11 -10 16 -10 6 0 7 5 4 10 -3 6 -11 10 -16 10 -6
0 -7 -4 -4 -10z"/>
<path d="M8310 2055 c0 -2 18 -14 39 -25 28 -14 46 -17 62 -11 20 7 18 10 -26
24 -49 17 -75 21 -75 12z"/>
<path d="M9322 2020 c-5 -14 -7 -29 -4 -34 7 -12 24 33 18 48 -2 6 -8 0 -14
-14z"/>
<path d="M4250 2002 l0 -31 77 5 c72 5 112 18 97 33 -3 3 -33 7 -67 7 -34 1
-72 5 -84 9 -21 7 -23 4 -23 -23z"/>
<path d="M8464 2022 c3 -5 39 -19 80 -32 42 -13 76 -27 76 -31 0 -8 -8 -6
-117 22 -84 22 -86 22 -79 10 4 -5 1 -11 -6 -13 -6 -2 23 -21 64 -41 56 -28
87 -37 126 -37 51 0 76 15 51 30 -8 6 1 10 27 12 37 3 34 5 -51 32 -156 50
-176 55 -171 48z"/>
<path d="M9266 1988 c-9 -21 -16 -48 -16 -61 0 -13 -6 -29 -12 -37 -11 -12
-10 -12 2 -3 19 14 54 107 47 125 -3 7 -12 -4 -21 -24z"/>
<path d="M8030 1936 c5 -13 6 -27 3 -30 -3 -3 10 -12 29 -20 19 -8 43 -27 52
-41 16 -24 16 -25 -4 -25 -14 0 -19 4 -14 12 5 7 3 8 -7 2 -8 -4 -24 -7 -36
-5 -15 1 -23 -3 -23 -12 0 -8 10 -17 23 -20 112 -25 193 -37 252 -37 l70 1
-85 42 c-47 24 -97 50 -111 60 -14 9 -29 15 -32 12 -4 -3 -5 -2 -2 2 6 7 -31
34 -87 64 l-38 19 10 -24z"/>
<path d="M9116 1907 c-16 -32 -26 -61 -23 -64 11 -10 59 76 55 99 -4 19 -9 13
-32 -35z"/>
<path d="M9200 1919 c-40 -53 -63 -91 -82 -132 -17 -36 -17 -37 2 -27 29 16
112 147 108 172 -3 20 -5 19 -28 -13z"/>
<path d="M4512 1918 c-21 -24 -42 -69 -42 -93 0 -8 12 -18 27 -21 15 -4 41
-15 58 -25 16 -10 46 -19 66 -20 37 -3 76 -29 43 -29 -23 0 -15 -6 19 -14 l27
-6 0 70 c0 78 -18 133 -48 149 -12 6 -45 11 -75 11 -43 0 -58 -5 -75 -22z"/>
<path d="M8230 1936 c0 -3 26 -19 58 -36 60 -33 58 -33 -26 -5 -29 9 -55 15
-58 13 -7 -8 148 -77 186 -83 31 -6 33 -5 18 8 -16 12 -12 14 37 11 31 -2 60
-6 67 -10 6 -4 9 -1 6 7 -4 14 -153 98 -173 98 -5 0 6 -13 25 -29 19 -16 31
-29 25 -29 -14 -1 -119 35 -144 49 -12 6 -21 8 -21 6z"/>
<path d="M8515 1870 c3 -5 16 -10 28 -10 18 0 19 2 7 10 -20 13 -43 13 -35 0z"/>
<path d="M8950 1807 c0 -1 -9 -27 -20 -56 -23 -63 -19 -82 5 -25 20 48 29 84
21 84 -3 0 -6 -1 -6 -3z"/>
<path d="M6517 1756 c3 -4 -4 -5 -16 -1 -13 4 -21 2 -21 -6 0 -8 12 -10 43 -5
53 9 67 21 22 21 -18 0 -31 -4 -28 -9z"/>
<path d="M8620 1709 c-45 -39 -47 -48 -7 -28 l22 10 -21 -18 c-12 -10 -30 -31
-40 -48 -10 -16 -31 -48 -48 -70 -17 -24 -2 -12 38 30 57 60 116 149 104 160
-1 2 -23 -15 -48 -36z m-19 -72 c-10 -9 -11 -8 -5 6 3 10 9 15 12 12 3 -3 0
-11 -7 -18z"/>
<path d="M8582 1713 c-23 -15 -39 -29 -37 -31 2 -2 17 5 33 17 17 12 35 21 40
21 6 0 14 5 17 10 11 17 -10 11 -53 -17z"/>
<path d="M8805 1695 c-15 -25 -25 -48 -22 -51 3 -3 17 15 32 41 15 25 25 48
22 51 -3 3 -17 -15 -32 -41z"/>
<path d="M7328 1713 c7 -3 16 -2 19 1 4 3 -2 6 -13 5 -11 0 -14 -3 -6 -6z"/>
<path d="M4495 1700 c11 -5 34 -8 50 -8 l30 0 -30 8 c-16 4 -39 8 -50 8 l-20
1 20 -9z"/>
<path d="M8714 1663 c-36 -46 -36 -47 -5 -18 30 28 57 65 48 65 -3 0 -22 -21
-43 -47z"/>
<path d="M4593 1683 c9 -2 25 -2 35 0 9 3 1 5 -18 5 -19 0 -27 -2 -17 -5z"/>
<path d="M6276 1662 c-81 -14 -86 -16 -65 -28 43 -23 126 -28 154 -10 26 17
35 57 13 55 -7 -1 -53 -9 -102 -17z"/>
<path d="M4490 1662 c0 -16 40 -41 77 -48 32 -6 103 11 103 25 0 5 -24 11 -52
15 -29 4 -70 10 -90 13 -24 3 -38 2 -38 -5z"/>
<path d="M8534 1633 c-16 -15 -31 -26 -34 -26 -3 1 -4 -3 -2 -9 1 -5 -44 -55
-100 -110 -57 -56 -91 -95 -78 -88 14 7 61 49 106 92 99 96 195 222 108 141z"/>
<path d="M8844 1618 c-35 -37 -36 -39 -8 -20 35 24 59 50 52 57 -2 3 -22 -14
-44 -37z"/>
<path d="M8459 1629 c-23 -19 -23 -20 -2 -10 12 6 25 16 28 21 10 16 -1 12
-26 -11z"/>
<path d="M8589 1583 l-24 -28 28 24 c15 14 27 26 27 28 0 8 -8 1 -31 -24z"/>
<path d="M8459 1583 c-13 -16 -12 -17 4 -4 16 13 21 21 13 21 -2 0 -10 -8 -17
-17z"/>
<path d="M7198 1543 c7 -3 16 -2 19 1 4 3 -2 6 -13 5 -11 0 -14 -3 -6 -6z"/>
<path d="M8494 1478 l-19 -23 23 19 c12 11 22 21 22 23 0 8 -8 2 -26 -19z"/>
<path d="M8235 1434 c-89 -54 -147 -95 -141 -101 9 -10 216 118 216 133 0 10
-19 2 -75 -32z"/>
<path d="M7338 1423 c6 -2 18 -2 25 0 6 3 1 5 -13 5 -14 0 -19 -2 -12 -5z"/>
<path d="M8055 1374 c-22 -7 -69 -20 -105 -28 l-65 -15 60 5 c72 6 131 22 146
41 6 7 10 12 8 12 -2 -1 -22 -7 -44 -15z"/>
<path d="M8150 1324 c-52 -19 -85 -34 -72 -34 29 0 139 37 166 56 28 19 16 16
-94 -22z"/>
<path d="M8313 1330 c-58 -33 -69 -45 -26 -29 31 12 93 48 93 55 0 9 -18 2
-67 -26z"/>
<path d="M990 5081 c0 -18 17 -20 36 -6 18 14 18 14 -8 15 -16 0 -28 -4 -28
-9z"/>
<path d="M1063 5083 c9 -2 23 -2 30 0 6 3 -1 5 -18 5 -16 0 -22 -2 -12 -5z"/>
<path d="M1165 5080 c-7 -12 2 -12 30 0 19 8 19 9 -2 9 -12 1 -25 -3 -28 -9z"/>
<path d="M1107 4896 c8 -42 35 -57 99 -57 76 -1 104 3 97 14 -3 5 -11 6 -19 3
-19 -7 -137 13 -149 26 -9 10 12 6 53 -9 6 -3 12 -1 12 5 0 7 -79 42 -95 42
-1 0 0 -11 2 -24z"/>
<path d="M870 4895 c-7 -9 -11 -18 -8 -20 3 -3 11 1 18 10 7 9 11 18 8 20 -3
3 -11 -1 -18 -10z"/>
<path d="M1150 4812 c0 -15 11 -21 27 -15 12 5 12 7 1 14 -17 11 -28 11 -28 1z"/>
<path d="M1260 4811 c-62 -8 -28 -21 53 -21 l62 1 -34 14 c-18 8 -34 14 -35
13 0 0 -21 -4 -46 -7z"/>
<path d="M965 4780 c2 -27 15 -38 15 -12 0 11 -4 23 -8 26 -5 3 -8 -4 -7 -14z"/>
<path d="M1000 4741 c0 -17 5 -31 10 -31 6 0 10 11 10 24 0 14 -4 28 -10 31
-6 4 -10 -7 -10 -24z"/>
<path d="M1254 4696 c20 -16 161 -66 186 -66 26 1 -35 28 -108 49 -40 11 -77
23 -84 26 -7 4 -4 0 6 -9z"/>
<path d="M1175 4598 c-3 -18 -1 -46 4 -63 8 -26 9 -22 10 33 1 68 -5 81 -14
30z"/>
<path d="M1285 4450 c4 -14 12 -29 17 -35 7 -7 8 -2 3 15 -4 14 -12 30 -17 35
-7 7 -8 2 -3 -15z"/>
<path d="M1420 4410 c0 -15 23 -60 31 -60 4 0 9 6 12 13 4 10 7 10 18 0 9 -9
9 -13 1 -13 -16 0 42 -98 80 -135 30 -29 30 -28 -5 23 -21 28 -37 55 -37 58 0
4 34 -26 75 -65 65 -61 95 -83 95 -67 0 2 -45 41 -100 87 -95 79 -121 108 -82
95 9 -3 -3 12 -27 34 -43 40 -61 49 -61 30z"/>
<path d="M1705 4390 c-3 -5 1 -10 9 -10 8 0 18 5 21 10 3 6 -1 10 -9 10 -8 0
-18 -4 -21 -10z"/>
<path d="M1640 4380 c0 -5 12 -10 26 -10 14 0 23 4 19 10 -3 6 -15 10 -26 10
-10 0 -19 -4 -19 -10z"/>
<path d="M2130 4347 c0 -8 7 -18 16 -21 11 -4 14 -1 12 11 -4 21 -28 30 -28
10z"/>
<path d="M2176 4344 c-8 -20 0 -32 14 -18 5 5 5 15 1 22 -6 11 -10 10 -15 -4z"/>
<path d="M2216 4346 c3 -8 12 -12 20 -9 17 6 9 23 -11 23 -8 0 -12 -6 -9 -14z"/>
<path d="M1870 4340 l-195 -5 70 -17 c78 -19 299 -32 290 -17 -4 5 -27 10 -53
11 -40 1 -36 3 31 11 42 6 77 14 77 19 0 4 -6 7 -12 6 -7 -1 -101 -5 -208 -8z"/>
<path d="M1456 4327 c3 -10 9 -15 12 -12 3 3 0 11 -7 18 -10 9 -11 8 -5 -6z"/>
<path d="M2063 4273 c9 -2 25 -2 35 0 9 3 1 5 -18 5 -19 0 -27 -2 -17 -5z"/>
<path d="M1600 4176 c0 -3 9 -10 20 -16 11 -6 20 -8 20 -6 0 3 -9 10 -20 16
-11 6 -20 8 -20 6z"/>
<path d="M1730 4159 c0 -5 5 -7 10 -4 6 3 10 8 10 11 0 2 -4 4 -10 4 -5 0 -10
-5 -10 -11z"/>
<path d="M3346 1865 c-15 -49 -29 -98 -32 -107 -5 -16 3 -18 61 -18 64 0 66 1
59 23 -4 12 -19 60 -34 107 l-27 85 -27 -90z"/>
<path d="M3975 830 c6 -20 -9 -59 -29 -72 -19 -13 -63 -9 -76 7 -20 24 -30 8
-30 -47 0 -43 4 -54 33 -83 19 -19 46 -37 60 -41 66 -16 135 24 157 91 16 50
-9 119 -54 146 -42 26 -69 25 -61 -1z"/>
<path d="M4378 825 c7 -39 -22 -75 -62 -75 -18 0 -39 7 -46 15 -32 39 -41 -61
-10 -112 69 -114 240 -61 240 74 0 38 -33 89 -69 108 -44 22 -59 20 -53 -10z"/>
<path d="M5086 747 c-20 -20 -26 -36 -26 -67 0 -55 13 -76 54 -90 68 -22 116
14 116 89 0 52 -25 81 -77 88 -35 5 -45 2 -67 -20z"/>
<path d="M5629 741 c-21 -21 -29 -39 -29 -64 0 -99 129 -131 166 -41 41 99
-63 178 -137 105z"/>
<path d="M6242 745 c-18 -15 -30 -31 -26 -36 7 -12 151 -12 158 0 11 17 -29
52 -65 57 -28 5 -41 1 -67 -21z"/>
<path d="M1250 360 c0 -25 4 -30 24 -30 13 0 29 6 35 14 18 22 2 46 -30 46
-26 0 -29 -4 -29 -30z"/>
<path d="M1400 370 c-6 -12 -10 -35 -8 -53 2 -24 9 -34 30 -41 50 -18 86 41
58 95 -15 26 -66 26 -80 -1z"/>
</g>
</svg>
