<?xml version="1.0" standalone="no"?>
<!DOCTYPE svg PUBLIC "-//W3C//DTD SVG 20010904//EN"
 "http://www.w3.org/TR/2001/REC-SVG-20010904/DTD/svg10.dtd">
<svg version="1.0" xmlns="http://www.w3.org/2000/svg"
 width="1080.000000pt" height="1080.000000pt" viewBox="0 0 1080.000000 1080.000000"
 preserveAspectRatio="xMidYMid meet">

<g transform="translate(0.000000,1080.000000) scale(0.100000,-0.100000)"
fill="#000000" stroke="none">
<path d="M0 5400 l0 -5400 893 1 c726 0 883 3 846 13 -145 39 -234 152 -246
311 l-6 75 37 0 36 0 0 104 c0 127 -12 146 -102 165 -147 31 -262 188 -246
336 l6 45 -34 0 c-32 0 -34 2 -28 28 14 58 44 113 90 163 57 60 108 91 186
114 l56 16 4 168 c3 164 4 169 33 227 l31 59 54 5 c30 3 73 14 95 25 40 20 81
20 3678 23 l3638 2 63 -25 c34 -14 81 -25 104 -25 34 0 44 -5 62 -29 41 -58
52 -110 59 -276 l6 -159 39 -8 c109 -23 228 -124 266 -226 27 -72 26 -82 -10
-82 l-30 0 0 -68 c0 -90 -22 -151 -77 -212 -51 -57 -96 -83 -180 -105 -32 -8
-64 -23 -70 -32 -9 -11 -13 -54 -13 -125 l0 -108 31 0 31 0 -4 -83 c-2 -61 -9
-94 -27 -128 -43 -85 -123 -152 -209 -175 -39 -10 107 -13 846 -13 l892 -1 0
5400 0 5400 -5400 0 -5400 0 0 -5400z m9965 5269 c37 -33 71 -86 61 -96 -3 -3
-13 0 -22 8 -16 13 -16 12 -6 -8 20 -37 -4 -35 -32 2 -27 35 -56 95 -56 115 0
18 18 11 55 -21z m220 -172 c4 -17 9 -40 11 -49 3 -10 1 -18 -4 -18 -12 0 -32
54 -32 87 0 33 17 20 25 -20z m190 -203 c26 -27 15 -58 -22 -62 -27 -3 -34 2
-47 26 -11 22 -12 32 -3 41 16 16 53 14 72 -5z m-6176 -30 c28 -35 26 -69 -4
-99 -49 -50 -125 -20 -125 50 0 72 86 104 129 49z m1643 -421 c40 -36 8 -113
-47 -113 -54 0 -85 71 -48 112 20 22 70 23 95 1z m-5262 -48 c17 -20 5 -45
-20 -45 -11 0 -23 7 -26 15 -6 15 11 45 26 45 4 0 13 -7 20 -15z m6672 -302
c36 -32 12 -103 -35 -103 -30 0 -57 29 -57 61 0 52 53 77 92 42z m-5492 -203
c11 -11 20 -24 20 -30 0 -13 -37 -50 -50 -50 -13 0 -50 37 -50 50 0 13 37 50
50 50 6 0 19 -9 30 -20z m7439 -231 c211 -48 370 -128 499 -253 61 -59 65 -82
26 -165 -15 -30 -31 -85 -37 -122 -9 -58 -8 -75 11 -135 37 -122 40 -109 -27
-139 -33 -15 -68 -36 -77 -46 -13 -14 -31 -19 -71 -19 -47 0 -58 -4 -92 -36
-22 -19 -45 -50 -51 -68 -10 -32 -13 -33 -75 -38 -103 -9 -175 -70 -175 -149
0 -59 -10 -77 -46 -89 -43 -15 -69 -48 -84 -109 l-11 -48 -47 5 c-105 12 -141
7 -173 -24 -16 -15 -34 -45 -39 -65 -11 -40 -37 -52 -96 -42 -44 7 -95 -12
-129 -47 -23 -24 -30 -41 -33 -88 -4 -53 -7 -61 -34 -76 -28 -17 -30 -17 -66
7 -155 103 -292 365 -338 645 -30 184 -22 343 26 522 24 88 190 284 332 392
130 99 235 149 403 193 130 34 232 33 404 -6z m-4764 -174 c0 -23 -34 -33 -45
-14 -13 20 1 40 24 37 13 -2 21 -10 21 -23z m1713 -653 c3 -16 -2 -22 -17 -22
-24 0 -35 15 -27 36 9 23 40 13 44 -14z m-3282 -33 c10 -17 -13 -36 -27 -22
-12 12 -4 33 11 33 5 0 12 -5 16 -11z m1678 -805 c31 -30 14 -85 -30 -98 -27
-8 -74 28 -74 56 0 50 69 77 104 42z m1124 -578 c61 1 102 -3 102 -9 0 -6 19
-7 50 -3 28 4 50 3 50 -1 0 -5 37 -14 83 -21 45 -7 102 -17 127 -22 25 -6 103
-21 174 -34 71 -13 131 -28 135 -34 3 -5 17 -8 31 -7 33 3 144 -39 180 -67 16
-13 40 -31 53 -40 36 -25 59 -81 51 -124 -40 -212 -693 -350 -1486 -314 -142
6 -262 9 -266 6 -5 -3 -49 -1 -98 4 -155 15 -167 15 -172 2 -2 -7 2 -10 12 -6
9 3 22 2 29 -4 6 -5 38 -13 70 -16 31 -4 57 -11 57 -15 0 -10 79 -29 190 -46
47 -7 73 -13 58 -14 -39 -1 -74 -20 -87 -45 -12 -23 -21 -367 -12 -456 5 -48
10 -57 35 -69 85 -40 430 -53 706 -27 224 22 458 75 506 114 29 25 34 62 34
269 1 205 -6 233 -61 252 -19 7 -54 8 -83 5 -77 -10 -50 4 60 31 227 55 392
122 474 192 24 21 41 32 37 26 -5 -7 -15 -39 -23 -70 -27 -99 -11 -420 22
-467 27 -39 17 -80 -33 -137 -27 -30 -52 -57 -57 -60 -5 -4 -6 -14 -3 -24 6
-14 11 -13 49 9 23 14 46 33 50 43 15 39 6 -178 -28 -707 -7 -104 -22 -156
-49 -166 -7 -3 -16 -13 -20 -22 -5 -13 -2 -13 15 3 29 26 33 15 10 -33 -19
-40 -18 -78 3 -65 17 11 -3 -119 -24 -154 -40 -65 -126 -124 -188 -129 -18 -1
-38 -7 -44 -13 -7 -7 -2 -8 14 -5 22 5 22 4 -4 -11 l-27 -16 24 -42 c64 -113
136 -246 136 -251 0 -3 -69 51 -154 119 l-154 125 -76 -20 c-124 -31 -362 -63
-344 -45 3 3 36 11 74 19 l69 14 -95 -5 -95 -5 103 53 c56 29 102 56 102 60 0
5 -25 8 -56 8 -65 -1 -77 6 -38 22 16 6 40 17 54 24 14 7 42 16 63 20 l38 7
-21 23 c-17 18 -19 25 -8 31 19 13 -248 21 -382 12 -63 -5 -254 -8 -425 -7
-226 1 -325 -2 -365 -12 -80 -19 -294 -10 -468 21 -57 10 -68 16 -127 73 -69
67 -78 83 -44 72 21 -7 21 -6 6 15 -8 12 -13 28 -11 35 3 7 -4 28 -15 47 -14
23 -23 62 -28 114 -6 73 -5 78 10 65 21 -17 21 -9 2 29 -14 27 -14 29 1 23 15
-5 15 -3 0 25 -18 36 -20 46 -6 37 14 -9 12 5 -5 35 -19 33 -19 49 0 24 11
-15 14 -16 15 -3 0 8 -7 24 -15 35 -8 10 -14 24 -15 29 0 6 4 3 10 -5 17 -28
21 -2 4 32 -15 30 -15 32 -1 19 22 -18 24 5 2 29 -8 9 -18 39 -21 66 -6 46 -5
48 9 29 13 -16 16 -17 17 -4 0 8 -5 20 -12 27 -13 13 -28 102 -17 102 4 0 9
-6 12 -12 2 -7 7 -10 11 -7 4 4 -1 14 -10 24 -10 9 -19 39 -22 68 l-5 52 52
-48 c73 -69 206 -126 394 -171 25 -6 32 0 28 27 -2 12 64 8 202 -13 169 -26
170 -27 165 -55 -4 -21 0 -24 48 -30 107 -13 442 -21 594 -14 183 9 424 40
570 75 107 25 264 73 258 79 -2 2 -32 -4 -68 -14 -36 -10 -83 -21 -104 -24
-34 -5 -37 -4 -25 7 8 8 39 22 69 31 57 19 79 37 80 68 0 13 -6 16 -22 12 -52
-12 -150 -27 -253 -39 -60 -7 -139 -23 -175 -36 -66 -22 -161 -23 -168 -1 -2
7 -115 8 -310 5 -169 -2 -358 -4 -419 -4 -109 0 -113 -1 -113 -21 0 -12 8 -28
18 -36 15 -13 11 -13 -33 -8 -84 10 -317 57 -348 70 -22 9 -25 13 -13 18 20 8
21 33 0 41 -8 3 -13 10 -10 15 3 5 -31 24 -77 41 -85 34 -203 95 -212 110 -3
5 23 -4 58 -20 88 -40 192 -59 212 -39 22 22 33 369 14 424 -23 65 -59 121
-90 139 -15 9 -34 22 -41 29 -8 7 -43 27 -79 45 -93 46 -150 96 -147 130 1 15
-3 36 -9 47 -5 11 -11 44 -12 73 -2 51 0 54 48 101 63 62 139 99 216 106 33 4
114 19 180 35 66 16 163 37 215 46 52 10 98 22 101 26 3 5 13 6 22 2 27 -10
114 6 96 17 -9 6 26 9 101 6 63 -2 129 0 145 4 17 3 93 4 170 1 77 -4 186 -6
243 -6z m-2019 -340 c8 -10 8 -16 -3 -25 -10 -9 -16 -8 -26 3 -12 15 -6 36 9
36 5 0 14 -6 20 -14z m-1879 -198 c11 -12 20 -32 20 -45 0 -29 -42 -73 -68
-73 -33 0 -72 38 -72 71 0 62 78 92 120 47z m-1000 -307 c15 -29 13 -39 -14
-56 -31 -21 -66 -5 -66 28 0 46 59 66 80 28z m9269 -7 c48 -61 10 -144 -67
-144 -76 0 -114 89 -62 145 34 36 100 36 129 -1z m-2146 -161 c46 -53 -6 -133
-66 -102 -28 15 -37 28 -37 58 0 53 68 82 103 44z m-3683 -246 c22 -17 26 -23
12 -17 -31 15 -100 78 -114 103 -6 12 7 3 28 -19 22 -21 55 -52 74 -67z m4220
-73 c11 -12 11 -18 -2 -30 -18 -18 -48 -8 -48 15 0 33 28 42 50 15z m-2580
-124 c0 -5 -7 -10 -16 -10 -8 0 -12 5 -9 10 3 6 10 10 16 10 5 0 9 -4 9 -10z
m4430 -566 c0 -1 -162 -133 -360 -294 -198 -160 -362 -296 -365 -301 -4 -5
-10 -9 -16 -9 -5 0 1 17 14 38 13 20 122 216 242 435 l218 398 134 -133 c73
-73 133 -133 133 -134z m-1175 16 c23 -19 18 -59 -21 -156 -59 -145 -103 -278
-150 -459 -53 -205 -74 -231 -153 -190 -33 17 -67 91 -127 278 -20 64 -39 115
-42 113 -2 -3 -28 -89 -58 -192 -29 -102 -58 -192 -64 -199 -19 -23 -66 -28
-98 -11 -25 13 -38 34 -72 122 -49 126 -170 487 -170 509 0 44 113 115 151 95
10 -6 33 -72 64 -182 26 -95 51 -179 55 -186 4 -9 14 10 24 48 34 120 115 324
139 347 14 14 40 27 63 30 50 6 66 -12 83 -92 7 -33 26 -118 43 -189 l30 -129
58 159 c110 304 113 310 187 301 24 -2 50 -10 58 -17z m-971 -146 c13 -34 6
-102 -13 -125 -16 -21 -42 -28 -193 -54 l-173 -30 -3 -49 c-3 -46 -2 -48 20
-43 13 3 67 11 122 18 98 13 99 13 117 -10 33 -41 19 -123 -23 -141 -13 -5
-70 -16 -128 -22 l-105 -13 -3 -47 c-2 -27 1 -48 5 -48 4 0 61 7 126 15 185
23 217 22 239 -4 32 -41 21 -122 -19 -140 -25 -12 -341 -41 -439 -41 -36 0
-56 5 -65 17 -11 13 -15 81 -18 317 -3 293 -3 302 17 320 15 13 79 28 234 56
246 43 293 47 302 24z m-618 -109 c13 -17 30 -464 22 -562 -6 -69 -22 -83 -94
-83 -59 0 -55 -3 -254 227 l-95 110 -3 -167 c-3 -196 -6 -203 -93 -204 -76 -1
-79 5 -79 208 0 155 -11 319 -25 387 -9 41 16 59 82 59 l56 0 89 -87 c49 -49
122 -125 161 -170 40 -46 74 -83 77 -83 3 0 4 72 2 160 -5 191 -2 206 41 219
42 13 99 6 113 -14z m-3322 -45 c-6 -5 -24 21 -24 34 0 6 6 1 14 -10 8 -10 12
-21 10 -24z m-689 0 c0 -18 -6 -26 -23 -28 -13 -2 -25 3 -28 12 -10 26 4 48
28 44 17 -2 23 -10 23 -28z m5916 -47 c51 -36 67 -52 63 -65 -3 -10 -31 -73
-63 -140 l-59 -123 -6 75 c-11 154 -17 300 -11 300 4 0 38 -21 76 -47z m-4584
-19 c-3 -3 -12 -4 -19 -1 -8 3 -5 6 6 6 11 1 17 -2 13 -5z m56 -34 c12 -11
-133 -23 -169 -14 -54 13 -49 19 21 25 74 6 135 1 148 -11z m647 0 c0 -5 -9
-10 -20 -10 -11 0 -20 5 -20 10 0 6 9 10 20 10 11 0 20 -4 20 -10z m-660 -122
c30 -6 62 -17 70 -23 8 -7 56 -18 105 -24 124 -17 135 -20 128 -38 -5 -13 -21
-15 -107 -9 -207 14 -371 53 -383 93 -8 22 86 23 187 1z m1795 -175 l-8 -138
-49 104 c-38 80 -46 106 -36 112 7 4 31 21 53 37 22 16 42 28 44 26 2 -2 0
-65 -4 -141z m3265 73 c0 -11 -53 -142 -60 -150 -5 -5 -73 4 -157 19 -81 16
-141 31 -133 34 53 18 327 100 338 100 6 1 12 -1 12 -3z m-3563 -207 c62 -18
110 -36 105 -40 -14 -12 -193 -42 -202 -33 -5 5 -18 33 -29 63 -18 48 -18 53
-3 48 9 -2 68 -19 129 -38z m-1955 -6 c22 -20 23 -61 1 -85 -22 -25 -79 -24
-93 1 -36 68 37 134 92 84z m4038 -113 c30 -16 37 -36 65 -199 15 -85 33 -172
41 -194 21 -59 61 -107 108 -128 56 -26 92 -24 121 6 34 33 33 79 -7 296 -17
96 -29 183 -25 192 11 30 52 42 96 28 49 -14 49 -15 97 -266 41 -217 42 -286
3 -357 -30 -54 -92 -88 -161 -88 -51 0 -142 30 -198 65 -59 37 -139 131 -171
200 -44 93 -100 407 -77 430 6 6 56 21 81 24 5 1 17 -4 27 -9z m-359 -31 c120
-30 235 -170 257 -314 18 -110 -7 -187 -79 -248 -56 -48 -109 -58 -264 -50
-122 6 -127 7 -149 34 -41 49 -129 476 -112 544 8 31 25 36 136 45 98 7 150 4
211 -11z m1289 -11 c117 -58 154 -123 110 -195 -24 -41 -36 -41 -88 -3 -23 17
-61 35 -85 41 -37 10 -49 9 -90 -9 -53 -23 -77 -63 -77 -126 0 -49 34 -134 71
-179 71 -86 197 -124 256 -77 14 11 31 20 38 20 24 0 115 -114 102 -127 -4 -4
-236 -19 -345 -23 -8 0 -10 -5 -6 -12 17 -26 -117 85 -149 125 -49 59 -93 142
-112 211 -23 78 -18 196 11 251 23 44 98 107 148 123 55 19 155 10 216 -20z
m444 -33 c152 -21 257 -40 271 -49 16 -11 27 -33 36 -71 17 -78 12 -81 -108
-63 -54 9 -100 14 -102 12 -4 -3 57 -297 86 -421 5 -22 3 -23 -65 -23 -59 0
-71 -3 -75 -17 -4 -15 -5 -15 -6 2 -2 30 -99 476 -104 481 -3 3 -47 11 -98 19
-114 16 -123 19 -138 51 -12 27 -15 97 -4 107 11 11 48 8 307 -28z m-2282 -3
c70 -31 141 -102 174 -175 24 -52 28 -75 29 -147 0 -76 -3 -91 -30 -139 -53
-96 -147 -133 -279 -112 -196 33 -336 164 -336 316 1 126 82 225 223 271 57
19 161 12 219 -14z m-575 -46 c39 -20 79 -65 97 -108 22 -52 20 -135 -3 -181
l-19 -37 46 -62 c87 -113 89 -124 31 -153 -47 -25 -72 -12 -141 71 l-63 75
-65 -7 c-36 -3 -67 -8 -69 -10 -2 -2 18 -70 36 -120 14 -38 -90 -60 -135 -29
-64 46 -137 523 -86 566 18 15 238 28 301 17 24 -4 55 -14 70 -22z m-545 -14
c92 -45 132 -118 126 -227 -3 -59 -8 -78 -30 -107 -43 -56 -89 -79 -181 -91
-45 -6 -83 -11 -84 -12 -2 -1 8 -34 21 -73 21 -60 22 -73 11 -89 -19 -25 -95
-25 -124 1 -24 22 -65 140 -87 251 -22 118 -31 347 -13 362 21 16 50 19 189
13 104 -4 133 -9 172 -28z m2995 -658 c-3 -3 -12 -4 -19 -1 -8 3 -5 6 6 6 11
1 17 -2 13 -5z m66 -11 c-7 -2 -19 -2 -25 0 -7 3 -2 5 12 5 14 0 19 -2 13 -5z
m554 -40 c-3 -10 -5 -4 -5 12 0 17 2 24 5 18 2 -7 2 -21 0 -30z m-34 -40 c-7
-2 -19 -2 -25 0 -7 3 -2 5 12 5 14 0 19 -2 13 -5z"/>
<path d="M4450 6666 c-89 -29 -200 -99 -200 -127 0 -7 8 -2 19 9 10 12 21 19
25 15 3 -3 6 -2 6 3 0 10 114 70 185 98 46 17 17 20 -35 2z"/>
<path d="M4160 6407 c14 -16 34 -33 45 -39 21 -11 20 -10 -35 37 l-35 30 25
-28z"/>
<path d="M4243 6388 c21 -33 22 -42 2 -34 -30 11 -14 -4 25 -24 75 -38 270
-101 270 -87 0 3 -17 11 -37 18 -61 19 -193 87 -237 122 -41 32 -41 32 -23 5z"/>
<path d="M6515 6330 c-38 -25 -21 -25 25 0 19 11 28 19 20 20 -8 0 -28 -9 -45
-20z"/>
<path d="M5779 5433 c26 -3 31 -7 20 -14 -12 -7 -12 -9 1 -9 8 1 24 7 34 15
18 14 15 15 -35 13 -39 -1 -44 -2 -20 -5z"/>
<path d="M6429 5293 c-12 -16 -12 -17 2 -6 9 7 19 10 22 6 4 -3 7 -1 7 5 0 17
-16 15 -31 -5z"/>
<path d="M5955 5285 c-55 -8 -154 -19 -220 -26 -66 -6 -128 -12 -138 -13 -23
-3 -51 -42 -36 -52 8 -4 7 -9 -2 -15 -10 -6 -7 -9 11 -10 16 -1 10 -4 -15 -8
l-40 -6 -1 -59 c0 -48 3 -59 19 -65 17 -6 17 -8 3 -20 -11 -10 -13 -17 -6 -26
10 -12 -3 -70 -21 -90 -17 -17 -9 -25 25 -25 33 0 46 -13 46 -45 0 -9 -10 -11
-35 -8 l-35 5 1 -49 c1 -26 0 -55 -2 -63 -3 -10 2 -14 14 -12 10 2 17 -3 17
-12 0 -10 -6 -13 -15 -10 -11 5 -15 -1 -15 -21 0 -20 4 -26 15 -22 8 4 17 1
21 -4 3 -6 15 -9 25 -6 11 3 16 1 13 -4 -3 -5 -21 -7 -40 -3 -33 6 -34 5 -34
-26 l0 -32 80 4 c57 2 79 0 76 -8 -3 -7 3 -10 14 -7 10 3 21 0 24 -6 10 -15
43 -14 50 2 3 6 4 3 3 -8 -2 -18 3 -20 57 -17 49 2 63 7 83 28 13 15 22 31 20
38 -3 6 7 12 22 12 54 3 106 17 119 33 9 11 15 13 20 4 5 -8 17 -7 47 4 22 8
51 16 65 16 17 2 26 9 28 23 3 21 3 21 -65 6 -37 -8 -69 -18 -71 -22 -3 -9
-80 4 -90 15 -4 4 2 5 13 1 16 -5 21 -1 22 14 2 22 25 50 42 50 6 0 11 5 11
10 0 6 11 10 24 10 36 0 96 28 96 45 0 13 -9 15 -52 9 -36 -4 -50 -3 -43 4 6
5 19 12 30 14 13 2 21 12 23 30 3 26 2 27 -30 17 -18 -5 -44 -9 -58 -9 -22 0
-25 4 -25 35 0 19 5 35 11 35 6 0 8 19 4 55 -5 41 -3 54 6 51 8 -3 11 4 7 25
-3 23 -1 28 11 23 9 -3 40 2 71 11 53 17 55 19 55 54 l0 36 21 -32 c12 -18 25
-30 30 -27 5 3 9 30 9 60 0 34 -4 53 -10 49 -5 -3 -10 -18 -10 -33 l-1 -27
-17 28 c-13 21 -23 26 -42 23 -14 -3 -45 -8 -70 -11 -41 -6 -46 -5 -47 14 -1
13 4 21 15 22 11 0 7 5 -11 13 -15 7 -24 15 -21 19 4 4 5 6 3 6 -2 -1 -49 -7
-104 -14z m229 -102 c-1 -16 -2 -34 -3 -40 -1 -15 -51 -18 -51 -3 0 6 7 13 15
16 8 4 15 12 15 20 0 8 -6 11 -15 8 -8 -4 -15 -1 -15 4 0 10 18 18 45 21 6 0
10 -11 9 -26z m-87 -75 c-3 -8 -6 -5 -6 6 -1 11 2 17 5 13 3 -3 4 -12 1 -19z
m-537 -352 c0 -11 -19 -15 -25 -6 -3 5 1 10 9 10 9 0 16 -2 16 -4z m240 -206
c0 -5 -8 -10 -17 -10 -15 0 -16 2 -3 10 19 12 20 12 20 0z"/>
<path d="M6330 5231 c0 -22 -3 -46 -6 -55 -3 -9 -1 -16 4 -16 6 0 12 17 14 38
l3 37 14 -27 c19 -37 31 -35 31 5 0 20 -3 27 -8 19 -6 -9 -12 -6 -20 13 -17
37 -32 30 -32 -14z"/>
<path d="M6411 5238 c0 -20 3 -40 9 -43 11 -7 55 14 46 22 -3 3 -12 0 -21 -7
-16 -13 -20 -8 -28 40 -3 18 -5 14 -6 -12z"/>
<path d="M6298 5254 c-5 -4 -8 -30 -8 -58 1 -40 3 -47 11 -33 11 19 8 103 -3
91z"/>
<path d="M5336 5137 c-9 -38 5 -556 16 -563 10 -6 9 544 -1 571 -7 17 -8 16
-15 -8z"/>
<path d="M6500 5151 c0 -6 5 -13 10 -16 6 -3 10 1 10 9 0 9 -4 16 -10 16 -5 0
-10 -4 -10 -9z"/>
<path d="M6471 5113 c0 -25 1 -26 9 -8 12 27 12 35 0 35 -5 0 -10 -12 -9 -27z"/>
<path d="M6384 5085 c-23 -55 -15 -71 30 -59 20 5 25 13 28 50 3 40 1 44 -20
44 -17 0 -27 -9 -38 -35z m37 -18 c-11 -29 -31 -36 -31 -11 0 8 5 25 11 36 16
29 32 8 20 -25z"/>
<path d="M6181 5090 c-50 -12 -74 -41 -75 -91 -1 -48 17 -65 57 -55 26 6 54
42 43 53 -3 4 -14 -1 -24 -10 -10 -10 -24 -17 -30 -17 -15 0 -16 45 -2 71 13
22 50 26 50 4 0 -8 8 -15 18 -15 15 0 18 -6 14 -30 -6 -43 14 -37 25 7 5 22
16 39 25 41 11 2 15 -2 12 -15 -10 -43 45 -57 61 -15 5 14 4 15 -6 5 -7 -7
-17 -13 -21 -13 -16 0 -7 23 17 42 14 11 25 24 25 29 0 16 -29 22 -45 9 -24
-20 -95 -23 -95 -5 0 16 0 16 -49 5z"/>
<path d="M4343 5008 c6 -109 23 -112 19 -3 -2 48 -8 85 -14 85 -6 0 -8 -31 -5
-82z"/>
<path d="M4420 5024 c6 -14 10 -44 10 -67 0 -31 3 -38 10 -27 13 20 12 64 -2
95 -15 33 -30 33 -18 -1z"/>
<path d="M4473 5005 c4 -26 7 -67 7 -91 0 -24 5 -44 10 -44 16 0 5 173 -11
179 -9 3 -10 -9 -6 -44z"/>
<path d="M4564 4985 c9 -30 12 -32 14 -15 2 13 -3 29 -11 37 -13 13 -13 10 -3
-22z"/>
<path d="M6072 4994 c-1 -14 2 -23 8 -19 12 7 14 45 2 45 -4 0 -9 -11 -10 -26z"/>
<path d="M6542 4989 c-7 -12 -11 -24 -7 -27 7 -8 25 17 25 36 0 17 -3 15 -18
-9z"/>
<path d="M4721 4907 c1 -57 5 -87 13 -87 8 0 10 24 8 78 -6 110 -23 119 -21 9z"/>
<path d="M6622 4979 c2 -7 10 -15 17 -17 8 -3 12 1 9 9 -2 7 -10 15 -17 17 -8
3 -12 -1 -9 -9z"/>
<path d="M4860 4964 c0 -16 74 -174 81 -174 16 0 10 27 -21 92 -16 34 -30 69
-30 76 0 6 -7 12 -15 12 -8 0 -15 -3 -15 -6z"/>
<path d="M4950 4955 c0 -2 18 -44 40 -92 52 -112 72 -101 27 14 -23 59 -37 83
-49 83 -10 0 -18 -2 -18 -5z"/>
<path d="M5100 4940 c0 -5 5 -10 10 -10 6 0 10 5 10 10 0 6 -4 10 -10 10 -5 0
-10 -4 -10 -10z"/>
<path d="M6506 4925 c-9 -26 -7 -32 5 -12 6 10 9 21 6 23 -2 3 -7 -2 -11 -11z"/>
<path d="M4550 4890 c11 -22 25 -40 31 -40 6 0 0 18 -12 40 -13 22 -26 40 -31
40 -5 0 1 -18 12 -40z"/>
<path d="M6610 4885 c0 -9 6 -12 15 -9 8 4 15 10 15 15 0 5 -7 9 -15 9 -8 0
-15 -7 -15 -15z"/>
<path d="M4620 4850 c0 -5 5 -10 10 -10 6 0 10 5 10 10 0 6 -4 10 -10 10 -5 0
-10 -4 -10 -10z"/>
<path d="M6473 4735 c0 -22 2 -30 4 -17 2 12 2 30 0 40 -3 9 -5 -1 -4 -23z"/>
<path d="M5097 4723 c-10 -9 -9 -43 1 -43 4 0 9 11 10 25 2 26 0 29 -11 18z"/>
<path d="M5938 4533 c6 -2 18 -2 25 0 6 3 1 5 -13 5 -14 0 -19 -2 -12 -5z"/>
<path d="M6313 4482 c-13 -4 -19 -11 -15 -17 5 -7 17 -7 40 0 50 17 27 32 -25
17z"/>
<path d="M7920 3670 c0 -23 34 -199 49 -258 l12 -42 71 0 c68 0 71 1 109 39
33 32 39 45 39 80 0 120 -87 201 -215 201 -58 0 -65 -2 -65 -20z"/>
<path d="M7350 3648 c-76 -39 -103 -122 -65 -202 40 -84 180 -125 255 -74 19
13 40 35 47 48 42 83 -25 212 -125 240 -52 14 -62 13 -112 -12z"/>
<path d="M6749 3615 c-6 -5 6 -134 13 -140 3 -3 33 -2 68 2 101 10 139 64 85
118 -21 22 -33 25 -93 25 -38 0 -71 -2 -73 -5z"/>
<path d="M6223 3524 c3 -42 7 -78 10 -80 2 -2 32 -1 67 3 43 4 70 13 88 28 24
20 25 26 17 61 -13 49 -41 64 -124 64 l-64 0 6 -76z"/>
<path d="M5810 1158 c-11 -35 -27 -74 -35 -88 l-14 -25 -15 37 c-9 20 -18 55
-22 77 -4 23 -10 44 -15 47 -5 2 -26 -30 -48 -73 -23 -46 -41 -72 -44 -63 -3
8 -10 34 -16 56 -6 23 -18 47 -26 54 -13 11 -15 8 -15 -20 0 -19 5 -63 11 -99
19 -112 44 -120 90 -28 l32 62 14 -35 c24 -64 38 -85 59 -88 22 -3 33 14 65
107 20 57 25 126 10 135 -5 4 -19 -22 -31 -56z"/>
<path d="M8324 1173 c-35 -62 -34 -60 -44 -43 -14 26 -61 73 -66 67 -3 -3 -19
-49 -34 -103 -21 -72 -26 -102 -18 -111 23 -28 36 -12 53 62 9 41 21 73 26 70
5 -4 9 -12 9 -18 0 -7 11 -25 23 -41 l23 -29 34 54 c32 52 34 53 41 29 4 -14
7 -41 8 -61 1 -39 38 -96 52 -82 5 5 2 46 -6 92 -15 84 -41 151 -62 158 -6 2
-24 -17 -39 -44z"/>
<path d="M2403 1191 c-18 -17 -33 -96 -38 -206 0 -5 11 -11 25 -13 14 -1 42
-5 62 -8 32 -5 41 -2 63 21 30 33 32 75 5 100 -17 16 -18 20 -5 38 20 29 19
43 -5 67 -26 26 -80 26 -107 1z m83 -23 c8 -13 -52 -72 -65 -64 -11 7 -1 59
13 68 17 11 44 9 52 -4z m14 -109 c0 -35 -52 -75 -83 -63 -19 7 -9 62 12 67
32 9 71 7 71 -4z"/>
<path d="M2680 1200 c-8 -5 -22 -7 -31 -5 -20 6 -29 -17 -54 -128 -12 -55 -14
-82 -7 -89 19 -19 39 -1 46 41 3 23 10 41 14 41 11 0 53 -29 89 -63 19 -18 38
-27 47 -24 22 9 10 34 -30 61 l-34 23 30 28 c17 16 30 39 30 51 0 46 -65 87
-100 64z m60 -47 c0 -21 -46 -63 -70 -63 -21 0 -24 10 -14 47 10 37 84 51 84
16z"/>
<path d="M2859 1183 c-6 -15 -11 -68 -12 -118 -2 -76 0 -90 15 -93 13 -3 18 9
23 61 12 110 11 170 -2 174 -7 3 -18 -8 -24 -24z"/>
<path d="M3035 1187 c-75 -43 -111 -152 -63 -197 18 -16 33 -20 80 -17 l58 2
20 48 c16 36 18 52 10 67 -13 24 -31 25 -71 5 -34 -18 -29 -40 7 -31 13 4 24
2 24 -3 0 -19 -54 -52 -79 -49 -23 3 -26 7 -25 39 1 20 11 50 22 67 19 26 38
37 96 56 15 5 16 9 6 21 -17 21 -38 19 -85 -8z"/>
<path d="M3324 1180 c-5 -23 -15 -34 -42 -45 -19 -8 -36 -15 -38 -15 -2 0 -4
18 -4 41 0 33 -3 40 -17 37 -25 -5 -49 -196 -28 -217 19 -20 26 -10 32 42 5
39 10 47 39 61 19 9 38 16 43 16 4 0 7 -31 7 -69 -1 -63 6 -92 19 -79 4 4 33
178 38 233 1 14 -5 21 -21 23 -18 3 -23 -2 -28 -28z"/>
<path d="M3483 1192 c-35 -8 -63 -19 -63 -24 0 -10 42 -20 66 -16 17 3 19 -3
15 -57 -9 -113 -8 -120 14 -120 18 0 21 10 30 95 l10 95 33 3 c25 3 32 8 30
20 -4 23 -56 25 -135 4z"/>
<path d="M3732 1197 c-41 -8 -52 -13 -47 -25 3 -8 -2 -53 -11 -99 -12 -59 -14
-87 -6 -95 7 -7 35 -7 93 1 90 12 95 14 84 32 -5 8 -28 10 -71 6 -57 -4 -64
-3 -64 14 0 23 9 28 62 37 28 5 43 13 43 22 0 11 -12 15 -48 13 -46 -1 -49 0
-43 20 3 12 6 25 6 30 0 4 10 7 23 7 32 0 67 11 67 21 0 18 -37 25 -88 16z"/>
<path d="M3940 1190 c-6 -12 -22 -58 -36 -102 -17 -59 -21 -85 -13 -99 14 -27
26 -24 33 9 20 79 28 102 36 102 5 0 21 -21 36 -47 34 -59 54 -83 69 -83 18 0
49 208 34 226 -19 23 -27 16 -34 -28 -14 -92 -17 -108 -24 -108 -12 1 -71 100
-71 119 0 29 -17 35 -30 11z"/>
<path d="M4177 1203 c-10 -16 -29 -203 -23 -218 3 -9 14 -15 23 -13 15 3 20
21 28 111 7 70 7 111 1 117 -12 12 -23 13 -29 3z"/>
<path d="M4312 1194 c-16 -31 -52 -159 -52 -187 0 -29 18 -46 30 -27 4 6 13
36 19 66 8 34 17 54 24 51 7 -2 26 -28 42 -57 30 -52 58 -80 70 -68 14 13 38
219 27 230 -18 18 -30 0 -37 -55 -13 -93 -17 -97 -53 -44 -18 25 -32 52 -32
59 0 8 -6 23 -14 33 -13 18 -14 18 -24 -1z"/>
<path d="M4625 1196 c-42 -18 -82 -68 -95 -117 -21 -77 14 -113 102 -106 45 4
55 8 70 33 22 36 23 77 3 94 -13 11 -22 10 -51 -3 -38 -19 -37 -42 2 -33 13 4
24 2 24 -3 0 -18 -53 -51 -81 -51 -26 0 -29 4 -29 31 0 58 45 115 97 125 24 5
33 11 31 23 -4 21 -35 24 -73 7z"/>
<path d="M4974 1191 c-49 -22 -85 -75 -91 -135 -5 -38 -2 -45 22 -65 23 -18
38 -21 84 -17 53 4 56 5 75 45 33 68 -5 115 -62 75 -30 -20 -28 -37 3 -32 31
6 32 -5 3 -32 -31 -28 -82 -24 -86 7 -7 51 65 133 117 133 25 0 28 25 5 34
-22 8 -24 8 -70 -13z"/>
<path d="M5166 1159 c-13 -31 -31 -80 -40 -110 -16 -53 -16 -54 5 -71 11 -10
31 -16 43 -14 11 3 38 8 58 11 42 7 55 20 39 39 -9 10 -21 12 -53 5 -22 -6
-43 -7 -46 -4 -3 3 6 43 21 88 23 71 25 83 12 96 -13 13 -17 8 -39 -40z"/>
<path d="M5394 1195 c-39 -17 -74 -85 -74 -142 0 -54 37 -88 89 -79 94 15 139
142 75 211 -26 28 -44 30 -90 10z m60 -37 c25 -35 19 -73 -15 -113 -35 -39
-64 -45 -74 -15 -9 28 22 127 43 139 24 15 29 14 46 -11z"/>
<path d="M6050 1153 c-33 -87 -47 -160 -33 -174 18 -18 29 -4 42 53 19 84 23
85 67 10 61 -101 75 -95 93 41 10 77 11 111 4 118 -19 19 -31 1 -38 -59 -3
-32 -10 -64 -14 -70 -9 -15 -71 70 -71 97 0 10 -6 24 -14 30 -12 10 -18 2 -36
-46z"/>
<path d="M6299 1183 c-6 -15 -11 -68 -12 -118 -2 -76 0 -90 15 -93 13 -3 18 9
23 61 12 110 11 170 -2 174 -7 3 -18 -8 -24 -24z"/>
<path d="M6475 1187 c-75 -43 -111 -152 -63 -197 18 -16 33 -20 80 -17 l58 2
20 48 c16 36 18 52 10 67 -13 24 -31 25 -71 5 -34 -18 -29 -40 7 -31 13 4 24
2 24 -3 0 -19 -54 -52 -79 -49 -23 3 -26 7 -25 39 1 20 11 50 22 67 19 26 38
37 96 56 15 5 16 9 6 21 -17 21 -38 19 -85 -8z"/>
<path d="M6764 1180 c-5 -23 -15 -34 -42 -45 -19 -8 -36 -15 -38 -15 -2 0 -4
18 -4 41 0 33 -3 40 -17 37 -25 -5 -49 -196 -28 -217 19 -20 26 -10 32 42 5
39 10 47 39 61 19 9 38 16 43 16 4 0 7 -31 7 -69 -1 -63 6 -92 19 -79 4 4 33
178 38 233 1 14 -5 21 -21 23 -18 3 -23 -2 -28 -28z"/>
<path d="M6925 1193 c-33 -9 -62 -18 -65 -20 -9 -9 26 -23 58 -23 l33 0 -7
-67 c-4 -38 -8 -74 -8 -82 -1 -15 30 -39 39 -30 3 4 9 48 13 100 7 91 8 94 32
97 46 6 54 11 40 27 -15 18 -57 18 -135 -2z"/>
<path d="M7284 1191 c-60 -37 -87 -158 -44 -201 29 -29 96 -27 135 4 35 28 30
41 -9 26 -15 -5 -45 -10 -67 -10 l-39 0 0 41 c0 75 50 126 98 100 34 -18 39 9
8 36 -33 28 -42 28 -82 4z"/>
<path d="M7540 1200 c-8 -5 -22 -7 -31 -5 -20 6 -29 -17 -54 -128 -12 -55 -14
-82 -7 -89 19 -19 39 -1 46 41 3 23 10 41 14 41 11 0 53 -29 89 -63 19 -18 38
-27 47 -24 22 9 10 34 -30 61 l-34 23 30 28 c17 16 30 39 30 51 0 46 -65 87
-100 64z m60 -47 c0 -21 -46 -63 -70 -63 -21 0 -24 10 -14 47 10 37 84 51 84
16z"/>
<path d="M7768 1196 c-55 -9 -69 -18 -49 -30 5 -3 1 -42 -9 -88 -23 -101 -17
-113 49 -104 112 15 121 18 121 33 0 13 -11 15 -70 11 -68 -5 -70 -5 -64 16 9
28 5 26 55 34 60 10 61 37 2 36 -41 -1 -43 1 -43 28 0 22 4 28 23 28 37 0 67
12 67 25 0 19 -19 22 -82 11z"/>
<path d="M7959 1105 c-28 -58 -49 -112 -47 -122 6 -34 28 -24 48 21 10 25 21
46 22 46 2 0 17 4 35 9 32 9 32 9 48 -39 14 -42 39 -69 52 -56 14 14 -71 232
-94 240 -10 4 -29 -25 -64 -99z m64 -8 c-21 -13 -26 -2 -12 24 12 23 12 23 19
4 5 -13 2 -23 -7 -28z"/>
<path d="M1478 1083 c12 -2 32 -2 45 0 12 2 2 4 -23 4 -25 0 -35 -2 -22 -4z"/>
<path d="M9278 1083 c12 -2 32 -2 45 0 12 2 2 4 -23 4 -25 0 -35 -2 -22 -4z"/>
<path d="M1380 970 c0 -26 32 -70 51 -70 19 0 19 1 5 22 -9 12 -16 30 -16 40
0 11 -8 18 -20 18 -11 0 -20 -5 -20 -10z"/>
<path d="M1567 940 c-14 -37 -14 -40 2 -40 18 0 41 37 41 65 0 30 -27 14 -43
-25z"/>
<path d="M9190 950 c12 -42 19 -50 40 -50 17 0 18 2 4 28 -7 15 -14 33 -14 40
0 6 -9 12 -19 12 -17 0 -18 -4 -11 -30z"/>
<path d="M9368 940 c-16 -38 -16 -40 2 -40 21 0 28 8 40 50 14 48 -21 39 -42
-10z"/>
<path d="M3007 643 c-9 -53 -14 -99 -12 -101 10 -11 23 12 29 53 5 32 14 50
31 61 38 25 48 10 41 -57 -4 -36 -3 -59 3 -59 12 0 34 101 26 122 -8 21 -43
30 -68 16 -19 -10 -20 -8 -14 26 4 26 2 36 -7 36 -9 0 -18 -33 -29 -97z"/>
<path d="M4901 693 c-18 -86 -24 -153 -14 -153 5 0 15 25 22 55 13 57 35 80
66 69 13 -5 15 -15 10 -48 -4 -22 -9 -49 -11 -58 -3 -11 0 -18 9 -18 14 0 27
47 27 102 0 34 -29 52 -64 39 -24 -10 -24 -9 -19 25 9 53 -14 41 -26 -13z"/>
<path d="M5550 738 c0 -2 -7 -41 -15 -88 -19 -107 -19 -110 3 -110 14 0 17 9
17 48 1 26 4 71 9 100 6 37 5 52 -3 52 -6 0 -11 -1 -11 -2z"/>
<path d="M6217 643 c-9 -53 -14 -99 -12 -101 10 -11 23 12 29 53 5 32 14 50
31 61 38 25 48 10 41 -57 -4 -36 -3 -59 3 -59 12 0 34 101 26 122 -8 21 -43
30 -68 16 -19 -10 -20 -8 -14 26 4 26 2 36 -7 36 -9 0 -18 -33 -29 -97z"/>
<path d="M7065 644 c-16 -91 -14 -125 5 -94 6 8 10 27 10 42 0 35 41 84 63 75
19 -7 21 -33 8 -89 -7 -29 -6 -38 4 -38 8 0 16 18 20 43 3 23 9 50 11 59 7 25
-37 51 -68 39 -23 -8 -24 -7 -20 25 2 19 0 34 -6 34 -5 0 -17 -43 -27 -96z"/>
<path d="M7445 728 c-2 -7 -9 -44 -15 -83 -6 -38 -13 -78 -16 -87 -4 -12 0
-18 10 -18 9 0 16 8 16 18 0 68 47 130 76 100 10 -10 10 -25 3 -62 -5 -27 -7
-52 -4 -54 12 -12 24 16 30 70 7 55 6 58 -16 67 -14 5 -34 5 -47 0 -22 -8 -23
-7 -16 26 4 23 2 35 -5 35 -6 0 -13 -6 -16 -12z"/>
<path d="M7976 724 c-3 -9 -6 -25 -6 -35 0 -13 -4 -18 -11 -13 -21 12 -70 6
-90 -12 -24 -21 -34 -76 -20 -103 10 -17 20 -21 65 -20 l53 2 17 91 c9 51 16
95 16 99 0 13 -18 7 -24 -9z m-26 -74 c23 -44 -22 -110 -62 -89 -24 13 -24 63
2 89 25 25 46 25 60 0z"/>
<path d="M2446 719 c-3 -8 -11 -51 -19 -96 l-14 -83 49 0 c38 0 54 5 73 24 24
24 25 66 2 66 -5 0 -3 8 6 18 17 19 23 57 10 65 -5 3 -29 8 -55 12 -36 6 -49
4 -52 -6z m88 -28 c13 -21 -7 -41 -40 -41 -30 0 -34 3 -34 25 0 22 4 25 34 25
19 0 37 -4 40 -9z m-18 -75 c28 -22 7 -50 -40 -54 -36 -3 -37 -2 -30 25 4 15
9 31 11 36 7 12 38 8 59 -7z"/>
<path d="M2747 723 c-12 -11 -8 -23 8 -23 8 0 15 7 15 15 0 16 -12 20 -23 8z"/>
<path d="M4630 715 c0 -9 5 -15 11 -13 6 2 11 8 11 13 0 5 -5 11 -11 13 -6 2
-11 -4 -11 -13z"/>
<path d="M3196 689 c-11 -14 -14 -24 -8 -28 8 -4 8 -20 1 -50 -12 -53 -7 -71
21 -71 21 0 28 16 9 22 -18 6 -2 98 17 98 8 0 14 5 14 10 0 6 -4 10 -10 10 -5
0 -10 7 -10 15 0 21 -12 19 -34 -6z"/>
<path d="M5090 695 c0 -8 -3 -15 -7 -15 -5 0 -9 -32 -10 -70 -2 -64 -1 -70 17
-70 11 0 20 5 20 10 0 6 -5 10 -10 10 -16 0 0 83 19 99 12 10 13 15 4 18 -7 3
-13 11 -13 19 0 8 -4 14 -10 14 -5 0 -10 -7 -10 -15z"/>
<path d="M6116 689 c-11 -14 -14 -24 -8 -28 8 -4 8 -20 1 -50 -12 -53 -7 -71
21 -71 21 0 28 16 9 22 -18 6 -2 98 17 98 8 0 14 5 14 10 0 6 -4 10 -10 10 -5
0 -10 7 -10 15 0 21 -12 19 -34 -6z"/>
<path d="M7326 688 c-13 -14 -15 -23 -7 -27 8 -5 8 -22 2 -56 -11 -56 -8 -65
20 -65 20 0 26 16 8 22 -16 5 0 98 17 98 8 0 14 5 14 10 0 6 -4 10 -10 10 -5
0 -10 7 -10 15 0 20 -11 18 -34 -7z"/>
<path d="M2865 682 c-49 -10 -79 -77 -55 -122 10 -18 19 -21 51 -18 31 3 39 0
37 -11 -2 -9 -16 -20 -32 -26 -23 -8 -30 -6 -41 8 -7 9 -18 17 -24 17 -20 0
-7 -24 22 -40 23 -13 29 -13 60 2 36 17 39 24 63 152 5 31 4 38 -7 34 -8 -3
-23 -2 -34 2 -11 3 -29 4 -40 2z m45 -32 c23 -44 -22 -110 -62 -89 -24 13 -24
63 2 89 25 25 46 25 60 0z"/>
<path d="M3334 680 c-46 -18 -72 -98 -42 -128 19 -19 73 -14 93 8 26 28 11 36
-20 12 -29 -23 -51 -20 -58 9 -5 17 0 19 49 19 53 0 54 0 54 29 0 20 -8 35
-22 45 -25 18 -25 18 -54 6z m44 -22 c24 -24 13 -38 -28 -38 -44 0 -48 5 -23
32 19 21 34 23 51 6z"/>
<path d="M3515 681 c-11 -5 -25 -6 -31 -4 -13 5 -41 -123 -30 -135 11 -10 26
20 26 50 0 35 41 84 63 75 19 -7 21 -33 8 -89 -7 -29 -6 -38 4 -38 8 0 17 22
23 58 10 52 9 58 -10 75 -22 19 -24 19 -53 8z"/>
<path d="M3920 681 c-15 -4 -32 -21 -43 -43 -16 -33 -17 -41 -5 -65 23 -48 97
-44 123 7 21 40 19 57 -10 85 -26 27 -26 27 -65 16z m48 -23 c19 -19 14 -66
-8 -88 -24 -24 -34 -25 -54 -4 -22 21 -20 60 4 84 23 23 41 25 58 8z"/>
<path d="M4485 681 c-11 -5 -25 -6 -31 -4 -13 5 -41 -123 -30 -135 11 -10 26
20 26 50 0 35 41 84 63 75 19 -7 21 -33 8 -89 -7 -29 -6 -38 4 -38 8 0 17 22
23 58 10 52 9 58 -10 75 -22 19 -24 19 -53 8z"/>
<path d="M4750 683 c-36 -13 -60 -47 -60 -84 0 -45 19 -62 65 -57 33 4 34 3
21 -17 -17 -25 -49 -31 -66 -10 -16 19 -30 19 -30 0 0 -20 44 -37 75 -29 38 9
53 34 68 116 14 77 14 78 -7 76 -11 0 -28 2 -36 5 -8 3 -22 3 -30 0z m38 -25
c7 -7 12 -24 12 -38 0 -48 -47 -82 -75 -54 -21 21 -19 46 6 78 22 28 39 32 57
14z"/>
<path d="M5384 680 c-31 -12 -54 -49 -54 -86 0 -41 21 -57 65 -52 39 4 43 -1
17 -25 -23 -21 -51 -22 -58 -2 -7 17 -34 21 -34 5 0 -19 48 -42 72 -35 40 13
57 36 68 94 6 31 13 66 16 78 3 19 0 23 -18 22 -13 -1 -30 1 -38 4 -8 3 -25 2
-36 -3z m40 -16 c27 -10 21 -80 -8 -99 -35 -23 -56 -10 -56 36 0 28 6 42 22
53 26 19 22 18 42 10z"/>
<path d="M5661 679 c-34 -14 -50 -39 -51 -80 0 -45 15 -59 61 -59 29 0 43 6
58 26 50 63 3 141 -68 113z m47 -21 c7 -7 12 -27 12 -45 0 -57 -70 -82 -84
-30 -8 31 -8 32 15 61 22 28 39 32 57 14z"/>
<path d="M6550 681 c-15 -4 -32 -21 -43 -43 -16 -33 -17 -41 -5 -65 23 -48 97
-44 123 7 21 40 19 57 -10 85 -26 27 -26 27 -65 16z m48 -23 c19 -19 14 -66
-8 -88 -24 -24 -34 -25 -54 -4 -22 21 -20 60 4 84 23 23 41 25 58 8z"/>
<path d="M6920 683 c-36 -13 -60 -47 -60 -84 0 -45 19 -62 65 -57 33 4 34 3
21 -17 -17 -25 -49 -31 -66 -10 -16 19 -30 19 -30 0 0 -20 44 -37 75 -29 38 9
53 34 68 116 14 77 14 78 -7 76 -11 0 -28 2 -36 5 -8 3 -22 3 -30 0z m38 -25
c7 -7 12 -24 12 -38 0 -48 -47 -82 -75 -54 -21 21 -19 46 6 78 22 28 39 32 57
14z"/>
<path d="M7650 680 c-32 -7 -63 -68 -54 -104 11 -45 104 -47 112 -2 4 18 2 18
-23 -2 -21 -17 -31 -19 -46 -11 -38 20 -22 39 31 39 56 0 70 15 52 54 -12 26
-36 35 -72 26z m34 -16 c9 -3 16 -15 16 -25 0 -15 -7 -19 -35 -19 -39 0 -48
21 -17 39 21 13 17 12 36 5z"/>
<path d="M8074 680 c-26 -10 -40 -40 -19 -40 8 0 15 4 15 9 0 15 32 22 46 10
19 -16 10 -26 -30 -33 -41 -8 -59 -27 -54 -58 3 -21 8 -23 53 -23 l50 0 8 60
c7 51 6 61 -9 72 -20 15 -30 15 -60 3z m46 -80 c0 -18 -39 -50 -55 -44 -20 8
-19 31 3 43 22 13 52 14 52 1z"/>
<path d="M2626 665 c-2 -6 -7 -37 -11 -68 -9 -68 9 -80 20 -14 9 53 22 77 40
77 8 0 15 4 15 9 0 14 -58 10 -64 -4z"/>
<path d="M2737 667 c-12 -31 -19 -127 -10 -127 9 0 33 93 33 127 0 17 -16 17
-23 0z"/>
<path d="M3710 676 c0 -3 7 -38 15 -78 15 -68 15 -74 -2 -85 -9 -7 -21 -13
-27 -13 -7 0 -6 -4 0 -10 20 -20 44 3 94 90 52 91 56 100 41 100 -5 0 -24 -26
-42 -57 l-33 -58 -9 58 c-6 38 -14 57 -23 57 -8 0 -14 -2 -14 -4z"/>
<path d="M4060 625 c-15 -72 -5 -85 60 -84 l48 2 7 46 c3 25 9 57 12 70 4 17
2 22 -8 19 -8 -3 -17 -24 -21 -47 -9 -53 -23 -71 -56 -71 -24 0 -24 1 -18 60
9 77 -8 80 -24 5z"/>
<path d="M4245 632 c-3 -26 -9 -58 -12 -71 -4 -17 -2 -22 8 -19 8 3 17 24 21
49 5 30 16 51 34 66 l27 21 -36 0 c-34 0 -35 -1 -42 -46z"/>
<path d="M4612 613 c-6 -37 -9 -69 -7 -71 11 -11 23 13 29 55 4 27 9 56 12 66
3 10 0 17 -9 17 -10 0 -18 -21 -25 -67z"/>
<path d="M5794 663 c2 -10 8 -42 11 -70 9 -69 29 -69 57 -2 23 56 38 51 38
-13 0 -60 25 -47 65 32 25 49 31 70 22 70 -8 0 -25 -25 -39 -56 l-26 -55 -6
55 c-9 72 -29 73 -60 4 l-24 -53 -7 53 c-5 35 -12 52 -22 52 -9 0 -12 -7 -9
-17z"/>
<path d="M6406 671 c-2 -3 -7 -28 -11 -55 -3 -27 -9 -55 -12 -62 -3 -8 1 -14
10 -14 9 0 17 17 23 53 7 39 14 54 32 62 12 5 22 13 22 17 0 8 -59 7 -64 -1z"/>
<path d="M6695 668 c-3 -7 -6 -38 -8 -68 l-2 -55 55 0 c54 0 54 0 61 35 18 97
19 100 5 100 -8 0 -16 -17 -20 -41 -9 -58 -23 -79 -51 -79 -30 0 -32 7 -20 78
5 28 3 42 -4 42 -7 0 -14 -6 -16 -12z"/>
<path d="M8194 663 c2 -10 10 -45 16 -77 12 -57 11 -61 -10 -78 -25 -20 -23
-32 3 -22 15 5 42 46 105 157 17 30 18 37 7 37 -9 0 -27 -25 -42 -54 -15 -30
-30 -53 -34 -51 -3 3 -9 27 -13 55 -5 35 -11 50 -22 50 -10 0 -14 -6 -10 -17z"/>
<path d="M5154 545 c-22 -34 -8 -47 16 -15 22 28 25 40 10 40 -5 0 -17 -11
-26 -25z"/>
<path d="M8340 555 c0 -8 7 -15 15 -15 8 0 15 7 15 15 0 8 -7 15 -15 15 -8 0
-15 -7 -15 -15z"/>
<path d="M1755 90 c25 -11 7251 -11 7285 0 14 4 -1624 8 -3640 8 -2052 0
-3656 -3 -3645 -8z"/>
</g>
</svg>
