<?xml version="1.0" standalone="no"?>
<!DOCTYPE svg PUBLIC "-//W3C//DTD SVG 20010904//EN"
 "http://www.w3.org/TR/2001/REC-SVG-20010904/DTD/svg10.dtd">
<svg version="1.0" xmlns="http://www.w3.org/2000/svg"
 width="1080.000000pt" height="1080.000000pt" viewBox="0 0 1080.000000 1080.000000"
 preserveAspectRatio="xMidYMid meet">

<g transform="translate(0.000000,1080.000000) scale(0.100000,-0.100000)"
fill="#000000" stroke="none">
<path d="M0 5400 l0 -5400 5400 0 5400 0 0 3750 0 3750 -49 -38 c-28 -20 -65
-46 -83 -56 -55 -32 -16 5 62 60 l70 49 0 1643 0 1642 -5400 0 -5400 0 0
-5400z m9647 5004 c11 -7 40 -35 63 -62 34 -41 48 -51 83 -56 23 -3 53 -9 67
-12 24 -7 24 -6 -7 27 -31 33 -69 106 -59 116 23 24 111 -67 121 -126 4 -25
15 -47 28 -56 32 -22 37 -19 26 17 -12 43 -12 88 1 88 18 0 51 -80 48 -120 -1
-31 5 -46 33 -78 23 -28 42 -41 62 -41 26 -1 36 -14 18 -25 -5 -3 10 -55 32
-116 24 -63 45 -104 49 -97 3 7 23 57 44 112 24 65 33 100 25 103 -22 7 -10
22 19 22 33 0 36 -6 17 -29 -8 -9 -31 -63 -53 -120 -36 -97 -66 -151 -83 -151
-3 0 -18 30 -31 66 -14 36 -28 67 -31 69 -3 2 -13 -18 -23 -44 -19 -53 -54
-97 -66 -84 -4 4 -27 59 -50 122 -23 63 -48 127 -56 143 l-15 28 46 0 c45 0
54 -7 35 -26 -7 -7 1 -42 27 -112 20 -56 40 -102 44 -102 3 0 16 26 27 58 l22
58 -31 75 c-18 43 -46 90 -69 113 -37 38 -38 38 -64 21 -41 -27 -156 -29 -156
-3 0 13 64 38 100 38 46 0 36 14 -22 33 -51 16 -54 16 -78 -3 -64 -51 -170
-96 -170 -72 0 4 27 27 60 51 33 24 59 46 57 48 -2 2 -60 -4 -128 -14 -105
-14 -130 -21 -165 -46 -44 -30 -114 -51 -127 -38 -8 8 65 58 112 77 22 9 20
12 -33 32 -32 12 -64 22 -72 22 -21 0 -134 59 -134 70 0 5 17 6 38 3 36 -5 64
-17 186 -82 43 -23 72 -31 109 -31 56 0 54 11 -4 29 -36 12 -97 66 -86 77 11
12 73 -16 119 -55 44 -36 50 -38 100 -34 75 6 77 8 38 29 -37 20 -110 91 -110
106 0 11 37 1 67 -18z m-510 -329 c84 -49 83 -176 -1 -240 -32 -25 -47 -28
-117 -30 -74 -2 -103 5 -79 20 13 8 14 255 0 255 -5 0 -10 5 -10 11 0 20 169
6 207 -16z m300 -1 c43 -32 43 -74 -2 -119 l-37 -36 28 -37 c16 -20 38 -44 49
-54 26 -21 15 -32 -23 -23 -22 4 -40 21 -66 61 -30 45 -41 54 -66 54 -29 0
-30 -2 -30 -44 0 -25 5 -48 10 -51 20 -12 9 -21 -25 -22 -35 -1 -54 10 -35 22
13 8 14 255 0 255 -5 0 -10 5 -10 11 0 7 29 10 89 7 72 -2 95 -7 118 -24z
m323 14 c0 -4 -4 -10 -10 -13 -6 -4 -10 -58 -10 -131 l0 -124 45 0 c36 0 51 6
81 33 37 31 37 31 31 7 -4 -14 -7 -33 -7 -43 0 -17 -9 -18 -105 -15 -90 2
-105 4 -99 18 13 29 17 241 5 253 -19 19 -12 24 29 23 22 0 40 -4 40 -8z
m-201 -241 c8 -10 7 -19 -4 -33 -13 -18 -15 -18 -31 -2 -18 18 -13 48 9 48 8
0 20 -6 26 -13z m-294 -126 c3 -5 -5 -11 -17 -13 -22 -4 -22 -5 5 -16 15 -6
27 -18 27 -27 0 -19 -48 -31 -63 -16 -8 8 -3 11 19 11 l29 1 -27 15 c-31 16
-34 24 -16 42 14 14 35 16 43 3z m115 -19 c0 -13 5 -12 20 8 10 14 22 21 26
17 4 -4 0 -15 -10 -26 -15 -16 -15 -19 -1 -31 8 -7 15 -17 15 -23 0 -5 -10 -2
-21 9 -16 14 -23 15 -26 7 -10 -27 -23 -11 -23 28 0 24 4 38 10 34 6 -3 10
-14 10 -23z m160 -17 c0 -19 -4 -37 -10 -40 -6 -4 -10 12 -10 40 0 28 4 44 10
40 6 -3 10 -21 10 -40z m140 14 c0 11 5 23 10 26 6 4 10 -10 10 -34 0 -47 -5
-49 -37 -19 l-23 21 0 -27 c0 -16 -4 -25 -10 -21 -12 7 -14 68 -3 79 4 4 18
-4 30 -19 21 -24 23 -24 23 -6z m175 21 c3 -6 -5 -10 -18 -10 -46 0 -43 -44 3
-52 23 -4 23 -5 6 -13 -20 -9 -44 2 -60 28 -8 12 -5 21 8 36 20 22 51 28 61
11z m148 -25 c22 -47 21 -58 -3 -43 -16 10 -24 10 -40 0 -11 -7 -20 -8 -20 -2
0 14 33 80 40 80 3 0 14 -16 23 -35z m163 -13 c1 -41 0 -42 -19 -25 -15 13
-21 15 -24 6 -9 -25 -23 -12 -23 20 0 41 7 49 40 45 22 -3 25 -8 26 -46z m154
38 c0 -5 -9 -10 -20 -10 -11 0 -20 -4 -20 -10 0 -5 7 -10 15 -10 21 0 19 -18
-2 -23 -14 -4 -12 -5 5 -6 12 0 22 -6 22 -12 0 -6 -12 -9 -27 -7 -25 3 -28 7
-31 46 -3 41 -2 42 27 42 17 0 31 -4 31 -10z m-8784 -689 c17 -10 53 -44 79
-75 27 -31 56 -56 65 -56 8 0 39 -6 68 -14 29 -7 52 -11 52 -9 0 3 -16 23 -35
46 -35 40 -64 111 -52 124 11 10 83 -44 105 -79 11 -18 26 -53 33 -78 13 -45
33 -69 56 -70 9 0 10 7 3 26 -15 38 -13 107 2 102 25 -9 50 -68 52 -121 1 -45
6 -59 41 -100 29 -35 46 -47 67 -47 29 0 35 -9 19 -25 -6 -6 9 -59 37 -133
l46 -124 12 34 c7 18 29 73 48 123 32 83 34 91 19 107 -15 17 -14 18 20 18 42
0 43 -2 23 -33 -8 -12 -35 -76 -60 -141 -44 -117 -74 -165 -94 -152 -5 3 -22
40 -37 81 -16 42 -31 72 -35 68 -4 -4 -15 -31 -24 -58 -19 -58 -42 -95 -59
-95 -7 0 -37 64 -67 143 -29 78 -57 146 -62 151 -20 24 -7 36 37 36 42 0 61
-13 33 -22 -8 -3 2 -42 32 -126 25 -67 47 -122 50 -122 7 0 50 114 50 133 0 9
-11 42 -25 73 -14 31 -25 62 -25 69 0 7 -21 36 -46 64 l-45 51 -47 -24 c-34
-17 -62 -24 -99 -22 -58 2 -89 20 -63 36 22 14 81 30 113 30 45 0 31 16 -33
35 l-60 18 -38 -30 c-56 -45 -120 -75 -154 -71 l-30 3 47 35 c26 19 60 42 76
50 34 18 38 34 7 27 -13 -3 -81 -14 -153 -23 -107 -14 -135 -21 -159 -41 -15
-13 -44 -30 -63 -38 -37 -16 -93 -20 -93 -7 0 10 87 65 124 78 l30 11 -58 26
c-32 15 -70 27 -84 27 -27 0 -152 65 -152 80 0 10 57 4 106 -11 16 -5 55 -25
85 -45 79 -51 114 -64 181 -64 68 0 69 12 3 30 -40 11 -122 76 -111 88 2 2 21
0 41 -4 23 -4 57 -24 92 -55 60 -52 71 -55 163 -41 l45 7 -56 33 c-48 27 -109
87 -109 106 0 12 36 5 66 -13z m6963 -316 c-1 -29 -1 -29 -8 -5 -4 14 -10 41
-14 60 l-6 35 14 -30 c8 -16 14 -43 14 -60z m-7542 -55 c55 -24 83 -70 83
-133 0 -55 -16 -90 -57 -129 -36 -34 -91 -48 -176 -46 -63 2 -80 9 -57 23 6 4
10 63 10 146 0 117 -2 139 -15 139 -8 0 -15 5 -15 10 0 6 37 10 93 10 69 0
103 -5 134 -20z m344 -3 c27 -18 35 -30 37 -61 3 -33 -2 -43 -36 -75 l-39 -38
33 -46 c19 -26 43 -53 54 -59 27 -17 25 -28 -4 -28 -41 0 -56 11 -97 71 -33
50 -44 59 -69 59 -30 0 -30 -1 -30 -55 0 -30 5 -55 10 -55 6 0 10 -4 10 -9 0
-5 -20 -9 -45 -9 -42 -1 -58 9 -35 23 6 4 10 61 10 137 0 108 -3 135 -17 150
-15 17 -12 18 84 18 88 0 104 -3 134 -23z m369 14 c0 -6 -4 -13 -10 -16 -6 -4
-10 -64 -10 -147 l0 -140 61 4 c55 4 65 8 91 39 l29 34 -7 -40 c-4 -22 -9 -44
-11 -48 -6 -10 -233 -7 -233 4 0 4 5 11 10 14 6 4 10 63 10 146 0 86 -4 139
-10 139 -5 0 -10 5 -10 10 0 6 20 10 45 10 25 0 45 -4 45 -9z m-226 -274 c16
-25 -16 -56 -38 -37 -19 15 -20 32 -4 48 15 15 28 11 42 -11z m6906 -49 c0
-10 -7 -18 -15 -18 -18 0 -55 -37 -75 -74 -8 -15 -29 -34 -47 -41 -19 -8 -35
-23 -38 -37 -4 -16 -17 -27 -38 -34 -25 -7 -33 -15 -35 -36 -5 -42 -40 -38
-45 5 l-3 32 -12 -30 c-11 -27 -17 -30 -54 -30 -38 0 -42 -2 -50 -32 -10 -39
-23 -41 -49 -10 l-20 22 6 -35 6 -35 -20 23 c-22 25 -36 29 -28 8 4 -10 0 -12
-14 -9 -25 7 -24 23 1 30 11 3 21 9 21 14 1 5 2 13 3 18 2 14 16 26 16 14 0
-14 26 -24 45 -17 8 4 15 15 15 26 0 10 -4 16 -10 13 -5 -3 -10 -2 -10 3 0 18
33 23 42 7 5 -8 18 -15 30 -15 19 0 20 1 4 25 -13 19 -13 23 -2 19 9 -3 17 3
21 15 8 27 35 27 42 1 7 -25 19 -26 33 0 6 12 19 19 33 17 16 -1 23 4 25 21 2
14 -2 22 -12 22 -10 0 -13 6 -10 15 9 22 19 18 34 -12 11 -23 14 -25 17 -10 3
9 13 17 23 17 29 0 32 16 6 33 -17 12 -26 13 -35 4 -6 -6 -11 -7 -11 -1 0 24
22 32 48 18 18 -9 28 -10 33 -3 5 8 9 8 13 0 9 -14 26 -14 26 0 0 6 -9 13 -20
16 -16 4 -18 8 -9 19 9 11 14 11 32 -1 24 -17 47 -4 47 25 0 10 3 26 7 36 6
16 7 16 20 -2 7 -10 13 -26 13 -36z m-55 3 c-3 -6 -11 -11 -17 -11 -6 0 -6 6
2 15 14 17 26 13 15 -4z m-7191 -87 c23 -9 20 -26 -4 -19 -29 9 -25 -14 5 -25
14 -5 25 -16 25 -24 0 -19 -34 -38 -54 -30 -23 9 -20 27 4 21 26 -7 36 10 11
18 -33 10 -44 31 -26 49 19 18 18 18 39 10z m181 -24 c-17 -19 -17 -21 0 -40
10 -11 15 -23 11 -28 -4 -4 -13 1 -20 11 -16 21 -36 22 -36 2 0 -8 -4 -15 -10
-15 -5 0 -10 20 -10 45 0 25 5 45 10 45 6 0 10 -10 10 -22 0 -22 0 -22 27 4
30 31 46 29 18 -2z m479 24 c23 -9 20 -27 -3 -19 -11 3 -24 -1 -32 -11 -17
-21 1 -50 30 -46 25 4 28 -13 5 -22 -25 -10 -64 20 -64 49 0 13 10 31 22 39
26 19 22 18 42 10z m186 -49 c23 -44 21 -52 -9 -33 -17 11 -25 11 -42 0 -31
-20 -33 -10 -7 42 24 50 28 49 58 -9z m174 39 c19 -18 20 -26 4 -42 -8 -8 -8
-15 2 -27 15 -18 7 -19 -21 -2 -17 10 -23 10 -26 0 -3 -7 -9 -13 -14 -13 -10
0 -13 83 -2 93 11 12 41 7 57 -9z m176 7 c0 -5 -10 -11 -22 -13 -28 -4 -26
-22 2 -26 25 -4 16 -22 -11 -22 -12 0 -17 -4 -13 -11 3 -6 15 -9 25 -6 12 3
19 0 19 -9 0 -21 -48 -17 -59 4 -9 17 -8 40 5 80 4 14 54 17 54 3z m6178 2
c-10 -2 -28 -2 -40 0 -13 2 -5 4 17 4 22 1 32 -1 23 -4z m-7058 -48 c0 -25 -4
-45 -10 -45 -5 0 -10 20 -10 45 0 25 5 45 10 45 6 0 10 -20 10 -45z m138 20
c11 -14 23 -25 27 -25 4 0 4 11 1 25 -5 18 -2 25 9 25 16 0 19 -28 9 -68 l-7
-23 -28 27 -29 28 0 -27 c0 -15 -4 -27 -10 -27 -5 0 -10 20 -10 45 0 51 10 56
38 20z m6890 -17 c-25 -7 -43 -6 -55 1 -14 8 -6 10 37 10 55 -1 55 -1 18 -11z
m-763 -78 c-3 -5 -12 -7 -20 -3 -21 7 -19 13 6 13 11 0 18 -4 14 -10z m205
-26 c0 -8 -4 -12 -10 -9 -5 3 -10 13 -10 21 0 8 5 12 10 9 6 -3 10 -13 10 -21z
m368 -1 c-10 -2 -26 -2 -35 0 -10 3 -2 5 17 5 19 0 27 -2 18 -5z m-513 -83 c3
-5 2 -10 -4 -10 -5 0 -13 5 -16 10 -3 6 -2 10 4 10 5 0 13 -4 16 -10z m692 -6
c-3 -3 -12 -4 -19 -1 -8 3 -5 6 6 6 11 1 17 -2 13 -5z m-6216 -74 c42 -12 104
-51 104 -66 0 -5 -10 -22 -22 -37 l-22 -28 -31 23 c-26 19 -44 23 -102 23 -68
0 -70 -1 -108 -41 -52 -56 -60 -107 -28 -172 30 -61 76 -92 138 -92 53 0 108
30 121 68 8 21 7 22 -56 22 l-65 0 0 40 0 40 110 0 110 0 0 -37 c0 -108 -65
-191 -164 -214 -230 -51 -400 214 -250 389 67 79 166 109 265 82z m1665 -159
c64 -86 120 -159 123 -163 3 -4 4 67 2 157 l-3 165 46 0 46 0 0 -236 0 -235
-42 3 c-42 3 -44 5 -163 160 -66 86 -122 157 -125 157 -3 1 -4 -71 -2 -159 l3
-160 -46 0 -45 0 0 233 c0 129 2 236 4 238 3 3 23 3 45 1 39 -4 44 -9 157
-161z m539 124 c0 -39 -1 -40 -37 -43 l-38 -3 0 -155 0 -154 41 0 40 0 -3 -37
-3 -38 -122 -3 -123 -3 0 41 0 40 40 0 40 0 0 155 0 155 -40 0 c-40 0 -40 0
-40 40 l0 39 98 4 c157 5 147 8 147 -38z m278 -120 c66 -88 123 -163 126 -167
4 -4 5 67 3 157 l-4 165 46 0 46 0 0 -235 0 -235 -42 0 c-41 1 -45 4 -93 68
-94 127 -190 251 -195 251 -3 1 -4 -71 -2 -159 l3 -160 -46 0 -45 0 0 233 c0
129 2 236 4 238 2 2 21 4 42 4 37 0 40 -3 157 -160z m598 155 c42 -12 104 -51
104 -66 0 -5 -10 -22 -22 -38 l-22 -28 -33 24 c-27 19 -46 23 -100 23 -63 0
-69 -2 -103 -35 -105 -102 -35 -270 113 -270 47 0 106 36 110 68 3 21 0 22
-57 22 l-61 0 0 40 0 40 110 0 110 0 0 -47 c-1 -152 -150 -249 -301 -198 -126
43 -195 176 -159 306 5 19 26 54 46 77 67 79 166 109 265 82z m694 -14 c28
-12 56 -30 64 -40 12 -14 11 -20 -10 -44 -13 -15 -25 -29 -26 -30 -1 -2 -16 7
-33 20 -26 19 -44 23 -100 23 -65 0 -71 -2 -105 -35 -64 -62 -69 -144 -13
-215 58 -74 208 -70 237 8 8 21 6 22 -58 27 l-66 5 0 35 0 35 113 3 112 3 0
-39 c0 -148 -127 -246 -275 -213 -104 23 -179 106 -192 210 -22 189 177 329
352 247z m255 -182 l0 -194 110 0 110 0 0 -40 0 -40 -155 0 -155 0 0 233 c0
129 2 236 4 238 3 3 23 3 45 1 l41 -4 0 -194z m597 182 c91 -43 140 -136 130
-247 -6 -64 -22 -101 -66 -145 -48 -49 -97 -68 -171 -68 -132 0 -227 87 -238
219 -12 148 93 265 238 265 37 0 72 -8 107 -24z m261 -92 c19 -60 42 -136 52
-169 10 -33 19 -53 19 -45 1 8 22 68 47 133 l47 118 39 -3 c39 -3 41 -5 64
-62 13 -32 34 -88 46 -125 l22 -66 12 40 c7 22 24 81 39 130 15 50 28 98 28
108 1 9 4 17 8 17 4 0 9 9 12 21 5 17 12 20 49 17 34 -2 42 -6 40 -20 -2 -10
3 -18 9 -18 9 0 7 -4 -3 -12 -8 -7 -45 -106 -82 -220 l-67 -208 -33 0 c-33 0
-33 1 -91 136 l-58 136 -24 -58 c-13 -33 -38 -94 -55 -137 l-31 -78 -35 3 -36
3 -71 230 c-40 127 -71 232 -70 235 2 3 23 4 47 4 l43 -1 33 -109z m-6063 91
c59 -29 76 -120 31 -172 l-24 -27 22 -11 c57 -28 71 -142 23 -193 -39 -43 -76
-52 -217 -52 l-130 0 0 235 0 235 131 0 c98 0 139 -4 164 -15z m447 -10 c24
-16 42 -40 53 -69 24 -62 14 -110 -34 -158 l-38 -38 48 -85 c27 -46 49 -87 49
-90 0 -3 -22 -5 -49 -5 l-50 0 -48 85 -48 84 -47 1 -48 0 0 -85 0 -85 -45 0
-45 0 0 235 0 235 133 0 c124 0 135 -1 169 -25z m376 -12 c-3 -36 -5 -38 -40
-41 l-38 -3 0 -155 0 -154 40 0 40 0 0 -40 0 -40 -125 0 -125 0 0 40 c0 40 0
40 39 40 l39 0 -1 155 -2 155 -37 0 c-38 0 -38 0 -38 40 l0 40 126 0 125 0 -3
-37z m642 -58 l0 -95 110 0 110 0 0 95 0 95 45 0 45 0 0 -235 0 -235 -45 0
-45 0 0 95 0 95 -110 0 -110 0 0 -95 0 -95 -45 0 -45 0 0 235 0 235 45 0 45 0
0 -95z m730 55 l0 -40 -70 0 -70 0 0 -195 0 -195 -45 0 -45 0 0 195 0 195 -70
0 -70 0 0 40 0 40 185 0 185 0 0 -40z m370 0 l0 -40 -115 0 -115 0 0 -55 0
-55 95 0 95 0 0 -40 0 -40 -95 0 -95 0 0 -60 0 -60 115 0 115 0 0 -40 0 -40
-160 0 -160 0 0 235 0 235 160 0 160 0 0 -40z m3637 24 c-3 -3 -12 -4 -19 -1
-8 3 -5 6 6 6 11 1 17 -2 13 -5z m944 -180 c41 -43 85 -68 94 -54 3 6 -3 10
-14 10 -11 0 -22 4 -25 8 -3 5 24 7 60 6 54 -2 66 1 78 17 10 15 20 18 40 13
42 -10 31 -29 -32 -54 -28 -11 -35 -10 -51 4 -17 15 -20 15 -42 -3 -23 -18
-29 -18 -79 -5 -65 17 -92 40 -84 72 8 30 14 28 55 -14z m-7240 -566 c67 -90
125 -166 128 -170 3 -4 4 67 2 157 l-3 165 46 0 46 0 0 -235 0 -235 -42 1 -43
0 -120 159 c-66 88 -122 160 -125 160 -3 0 -4 -72 -2 -160 l3 -160 -46 0 -45
0 0 234 0 235 38 4 c20 2 38 4 39 5 2 1 57 -71 124 -160z m544 117 c0 -39 -1
-40 -37 -43 l-38 -3 0 -155 0 -154 40 0 40 0 0 -40 0 -40 -125 0 -125 0 0 40
c0 39 1 40 35 40 l35 0 0 155 0 155 -35 0 c-34 0 -35 1 -35 40 l0 39 108 4
c59 1 114 3 122 2 11 0 15 -12 15 -40z m356 35 c42 -12 104 -51 104 -66 0 -5
-10 -22 -22 -37 l-22 -28 -29 21 c-64 48 -153 43 -208 -11 -106 -103 -33 -269
117 -269 47 0 103 35 112 70 5 19 1 20 -59 20 l-64 0 0 40 0 40 110 0 110 0 0
-37 c0 -108 -65 -191 -164 -214 -231 -51 -399 215 -248 391 65 77 165 107 263
80z m289 -90 l0 -100 110 0 110 0 0 95 0 95 45 0 45 0 0 -235 0 -235 -45 0
-45 0 0 95 0 95 -110 0 -110 0 0 -95 0 -95 -45 0 -45 0 0 234 0 235 38 4 c20
2 40 4 45 5 4 1 7 -43 7 -98z m1231 89 c43 -15 99 -56 99 -73 0 -7 -11 -23
-24 -35 l-24 -23 -30 22 c-43 32 -117 37 -162 12 -105 -58 -99 -232 10 -276
56 -22 98 -20 146 8 l40 23 23 -35 23 -35 -23 -19 c-13 -10 -48 -25 -78 -34
-151 -45 -294 49 -308 203 -8 88 10 137 70 197 71 71 153 93 238 65z m1228
-43 c29 -66 161 -411 161 -419 0 -4 -20 -7 -44 -7 -43 0 -43 0 -63 53 l-20 52
-95 3 -95 3 -20 -53 c-20 -53 -20 -53 -68 -56 -27 -2 -46 1 -44 6 2 6 44 111
94 235 l90 226 35 3 c46 4 49 3 69 -46z m287 42 c6 -4 41 -57 79 -118 72 -116
75 -118 108 -61 21 36 13 40 -20 9 -13 -12 -26 -19 -29 -16 -3 4 16 23 43 42
26 20 64 61 83 91 33 52 37 55 78 55 l42 0 0 -235 0 -235 -45 0 -45 0 0 157 0
157 -60 -92 c-80 -124 -88 -124 -169 1 l-61 92 0 -157 0 -158 -45 0 -45 0 0
233 c0 129 2 236 4 238 7 7 70 4 82 -3z m-2016 -38 l0 -40 -70 0 -70 0 0 -195
0 -195 -45 0 -45 0 0 195 0 195 -70 0 -70 0 0 40 0 40 185 0 185 0 0 -40z
m947 19 c37 -23 73 -84 73 -124 0 -40 -24 -88 -59 -117 l-31 -27 50 -83 c27
-46 50 -87 50 -91 0 -4 -23 -7 -51 -5 l-52 3 -46 82 -46 83 -47 0 -48 0 0 -85
0 -85 -45 0 -45 0 0 235 0 235 131 0 c116 0 136 -2 166 -21z m463 -19 l0 -40
-115 0 -115 0 0 -55 0 -55 95 0 95 0 0 -40 0 -40 -95 0 -95 0 0 -60 0 -60 115
0 115 0 0 -40 0 -40 -160 0 -160 0 0 235 0 235 160 0 160 0 0 -40z m5159 -50
c13 -25 16 -39 8 -37 -8 1 -13 -14 -15 -43 -3 -44 -3 -44 17 -26 12 11 21 26
21 35 0 9 14 22 31 28 33 13 49 10 49 -8 0 -14 -61 -136 -95 -190 l-27 -42
-13 30 c-7 17 -18 34 -24 37 -8 5 -7 12 4 22 12 12 15 41 15 125 0 60 2 109 4
109 2 0 13 -18 25 -40z m-266 -29 c18 -16 39 -42 47 -58 8 -15 21 -34 28 -41
11 -13 17 -42 8 -42 -2 0 -15 19 -29 43 -14 23 -44 61 -68 85 -48 47 -38 58
14 13z m417 -75 c0 -3 -4 -8 -10 -11 -5 -3 -10 -1 -10 4 0 6 5 11 10 11 6 0
10 -2 10 -4z m12 -38 c-7 -7 -12 -26 -12 -44 0 -18 -4 -34 -8 -36 -4 -1 -20
-24 -35 -50 -15 -27 -32 -48 -37 -48 -15 0 -12 11 15 55 14 22 36 64 50 94 14
29 29 51 32 47 4 -3 1 -12 -5 -18z m-244 -165 c20 -27 14 -35 -10 -13 -12 11
-34 26 -50 32 -15 7 -28 16 -28 21 0 12 74 -22 88 -40z m226 -38 c-4 -8 -8
-15 -10 -15 -2 0 -4 7 -4 15 0 8 4 15 10 15 5 0 7 -7 4 -15z m33 -47 c-2 -13
-4 -5 -4 17 -1 22 1 32 4 23 2 -10 2 -28 0 -40z m-27 -97 c0 -6 -4 -13 -10
-16 -5 -3 -10 1 -10 9 0 9 5 16 10 16 6 0 10 -4 10 -9z m90 -15 c0 -3 -4 -8
-10 -11 -5 -3 -10 -1 -10 4 0 6 5 11 10 11 6 0 10 -2 10 -4z m-440 -16 c8 -5
11 -10 5 -10 -5 0 -17 5 -25 10 -8 5 -10 10 -5 10 6 0 17 -5 25 -10z m320 -45
c0 -5 -5 -3 -10 5 -5 8 -10 20 -10 25 0 6 5 3 10 -5 5 -8 10 -19 10 -25z
m-8813 -27 c6 -7 18 -42 28 -78 33 -124 33 -123 61 -56 30 75 30 82 -3 89 -16
3 -37 13 -48 21 -18 14 -16 14 25 1 25 -8 58 -16 75 -18 27 -3 32 -11 58 -77
15 -41 29 -76 31 -77 2 -2 16 42 32 98 28 99 40 117 68 106 11 -5 8 -25 -20
-109 -19 -57 -39 -120 -45 -140 -17 -64 -41 -51 -82 44 l-36 83 -21 -50 c-12
-28 -28 -65 -36 -83 -25 -61 -43 -39 -90 108 -24 74 -44 138 -44 143 0 12 37
8 47 -5z m529 -123 c29 -72 53 -136 53 -142 1 -7 -8 -13 -20 -13 -13 0 -25 11
-35 35 -14 34 -15 35 -73 35 -59 0 -60 0 -72 -35 -10 -27 -19 -35 -37 -35 -15
0 -22 5 -19 13 64 164 101 255 110 265 23 29 42 4 93 -123z m132 65 l3 -62 69
66 c48 47 76 66 94 66 14 0 26 -3 26 -7 0 -4 -28 -32 -61 -63 l-62 -55 62 -78
c33 -42 61 -79 61 -82 0 -3 -11 -5 -25 -5 -19 0 -37 16 -76 65 -49 63 -52 65
-70 49 -14 -12 -19 -31 -19 -66 0 -45 -2 -48 -25 -48 l-25 0 0 138 c0 76 3
141 6 144 3 3 13 5 22 4 14 -2 18 -16 20 -66z m410 41 c3 -19 -2 -21 -62 -21
l-66 0 0 -34 0 -35 53 -3 c45 -3 52 -6 55 -25 3 -21 0 -23 -51 -23 l-55 0 -4
-35 c-2 -20 -2 -38 1 -40 2 -3 33 -5 68 -5 56 0 63 -2 63 -20 0 -19 -7 -20
-90 -20 l-90 0 0 143 0 142 87 -2 c81 -1 88 -3 91 -22z m192 -80 c5 -93 7
-105 29 -122 31 -25 63 -24 89 4 18 19 22 36 24 122 3 92 5 100 23 100 18 0
20 -8 23 -92 4 -148 -30 -200 -128 -191 -86 9 -110 50 -110 194 0 84 4 97 30
92 12 -3 16 -24 20 -107z m688 104 c52 -6 62 -10 62 -26 0 -16 -7 -19 -40 -19
l-40 0 0 -120 0 -120 -26 0 -25 0 3 120 3 120 -42 0 c-35 0 -43 3 -43 18 0 10
2 21 4 23 8 8 82 10 144 4z m281 -22 c111 -82 56 -266 -79 -266 -150 0 -194
206 -60 276 42 22 101 17 139 -10z m382 -12 c27 -33 24 -83 -5 -118 l-24 -29
29 -47 c16 -26 29 -50 29 -53 0 -3 -12 -4 -27 -2 -20 2 -34 15 -53 48 -21 36
-32 46 -58 48 l-32 3 0 -50 c0 -48 -2 -51 -25 -51 l-25 0 0 138 c0 76 2 141 4
143 2 2 41 2 86 -1 71 -4 84 -8 101 -29z m255 -96 c29 -72 53 -136 53 -142 1
-7 -10 -13 -23 -13 -18 0 -25 8 -32 33 -9 31 -11 32 -71 35 l-61 3 -12 -36
c-9 -28 -17 -35 -37 -35 -16 0 -23 4 -20 13 3 6 26 66 52 132 26 66 52 126 58
133 24 29 42 5 93 -123z m267 108 c31 -15 67 -82 67 -123 0 -14 -9 -43 -19
-66 -25 -54 -67 -74 -160 -74 l-71 0 0 138 c0 76 2 141 5 143 9 10 152 -4 178
-18z m222 1 c0 -12 -8 -20 -22 -22 -22 -3 -23 -7 -23 -103 0 -99 0 -99 25 -99
18 0 25 -5 25 -20 0 -18 -7 -20 -70 -20 -63 0 -70 2 -70 20 0 13 7 20 20 20
19 0 20 7 20 100 0 93 -1 100 -20 100 -13 0 -20 7 -20 20 0 16 8 20 58 23 75
4 77 4 77 -19z m222 -110 c29 -71 52 -135 52 -141 1 -7 -8 -13 -20 -13 -13 0
-25 11 -35 35 -14 34 -15 35 -73 35 -59 0 -60 0 -71 -35 -9 -28 -17 -35 -37
-35 -16 0 -23 4 -20 13 3 6 28 72 57 144 46 118 54 132 73 130 18 -3 32 -28
74 -133z m129 128 c6 -4 44 -52 85 -106 l74 -100 5 105 c4 84 8 104 20 104 13
0 15 -24 18 -142 2 -137 2 -143 -17 -143 -14 0 -45 32 -96 100 -42 55 -78 100
-80 100 -3 0 -2 -45 1 -100 l7 -100 -26 0 -27 0 0 138 c0 150 4 166 36 144z
m442 -19 c3 -21 -1 -23 -37 -23 l-41 0 0 -120 0 -120 -25 0 -25 0 0 120 0 120
-40 0 c-32 0 -40 4 -40 18 0 10 2 21 4 23 3 2 49 4 103 4 94 0 98 -1 101 -22z
m276 13 c42 -18 52 -34 33 -53 -13 -14 -18 -13 -44 7 -35 25 -79 19 -88 -11
-9 -28 9 -45 60 -58 78 -19 107 -75 70 -128 -32 -46 -140 -47 -181 -2 -16 18
-17 21 -1 36 15 16 18 15 41 -6 18 -17 33 -22 62 -19 34 3 39 7 42 29 3 22 -3
28 -30 38 -76 29 -99 42 -109 65 -17 36 -3 74 34 96 38 24 66 25 111 6z m131
-58 l0 -67 71 70 c52 49 79 69 98 69 14 0 26 -3 26 -7 0 -5 -27 -33 -61 -63
l-61 -55 61 -79 c34 -43 61 -80 61 -82 0 -2 -12 -4 -27 -4 -23 1 -38 14 -76
66 -47 63 -49 65 -68 48 -14 -12 -19 -31 -19 -66 0 -45 -2 -48 -25 -48 l-25 0
0 146 c0 145 0 145 23 142 20 -3 22 -8 22 -70z m363 44 c-2 -10 -13 -18 -26
-20 -21 -3 -22 -7 -22 -103 l0 -99 26 0 c19 0 25 -5 22 -17 -3 -15 -16 -19
-71 -21 -62 -3 -67 -1 -67 18 0 13 7 20 20 20 19 0 20 7 20 100 0 93 -1 100
-20 100 -13 0 -20 7 -20 18 0 27 2 27 75 24 55 -3 66 -6 63 -20z m88 20 c6 -4
44 -52 85 -106 l74 -100 5 105 c3 57 8 103 13 102 4 -2 12 -3 17 -3 6 0 10
-54 10 -141 0 -138 0 -140 -22 -137 -13 2 -50 41 -101 108 l-79 105 3 -105 c4
-103 3 -105 -18 -108 -23 -3 -23 -3 -23 136 0 150 4 166 36 144z m3644 -12 c9
-16 8 -18 -5 -14 -8 4 -15 12 -15 20 0 20 7 17 20 -6z m-6975 -16 c33 -36 33
-87 0 -119 -19 -20 -34 -25 -75 -25 l-50 0 0 -55 c0 -52 -1 -55 -25 -55 l-25
0 0 140 0 140 75 0 c69 0 78 -2 100 -26z m6913 -45 c9 -13 11 -40 7 -82 -3
-34 -2 -55 1 -47 4 8 15 23 25 32 17 17 18 17 24 -2 7 -21 -5 -49 -31 -74 -14
-15 -14 -16 1 -16 9 0 13 -5 10 -11 -10 -15 24 -49 42 -42 13 5 15 1 9 -20 -4
-17 -2 -27 5 -27 6 0 9 -12 7 -27 -3 -25 0 -28 27 -29 51 -2 61 -6 37 -12 -13
-4 -23 -11 -24 -17 0 -5 -4 -18 -9 -27 -9 -16 -4 -18 43 -19 51 -1 52 -1 20
-10 -30 -9 -32 -12 -20 -26 12 -15 10 -16 -12 -9 -55 15 -88 18 -94 7 -5 -7 3
-11 20 -11 46 0 105 -22 99 -37 -3 -7 -8 -19 -11 -27 -3 -9 6 -18 28 -26 32
-12 44 -14 99 -18 14 -1 34 -9 45 -17 17 -14 15 -15 -37 -12 -31 2 -60 6 -65
10 -6 3 -16 2 -23 -3 -11 -6 -7 -18 18 -53 l31 -45 42 9 c24 5 50 18 59 29 13
15 18 17 22 6 6 -15 -68 -56 -101 -56 -13 0 -33 15 -49 36 -65 86 -100 97
-211 68 -42 -11 -76 -14 -88 -9 -18 7 -17 8 6 15 23 7 23 8 -8 9 -73 2 -152
91 -157 176 -1 17 -5 65 -9 107 l-8 77 51 36 c51 37 111 108 111 132 0 26 29
83 42 83 7 0 19 -9 26 -21z m122 -24 c13 -14 21 -25 18 -25 -2 0 -15 11 -28
25 -13 14 -21 25 -18 25 2 0 15 -11 28 -25z m158 -66 c38 -37 42 -56 8 -34
-27 18 -62 65 -48 65 4 0 23 -14 40 -31z m-135 -88 c-17 -38 -47 -59 -58 -41
-3 5 12 28 32 52 43 51 53 46 26 -11z m165 -22 c-3 -8 -7 -3 -11 10 -4 17 -3
21 5 13 5 -5 8 -16 6 -23z m212 7 c0 -2 -16 -16 -35 -30 -38 -30 -48 -19 -13
14 19 17 48 27 48 16z m-3285 -101 c88 -8 224 -28 303 -44 132 -27 150 -33
235 -84 122 -73 143 -97 151 -169 8 -72 -15 -125 -85 -202 -150 -164 -568
-343 -1109 -475 -230 -56 -717 -137 -967 -161 -51 -4 -98 -12 -105 -17 -7 -4
-58 -15 -113 -23 -72 -11 -100 -19 -100 -29 0 -14 13 -23 50 -37 16 -6 11 -9
-22 -14 -136 -21 52 -20 311 1 123 10 171 6 69 -6 -32 -4 -88 -13 -124 -22
-66 -14 -67 -15 -85 -61 -23 -58 -23 -175 1 -312 10 -52 21 -122 25 -155 5
-33 15 -86 24 -118 9 -32 16 -67 16 -77 0 -11 7 -37 16 -59 13 -33 22 -41 59
-50 107 -27 428 1 730 64 243 51 640 175 762 239 60 32 73 42 102 84 23 33 24
39 18 165 -4 91 -13 161 -30 227 -14 52 -28 113 -32 135 -7 41 -44 125 -55
125 -3 0 -13 13 -22 28 -14 24 -23 28 -52 26 -20 -2 -38 0 -40 5 -8 12 -107 4
-161 -12 -149 -46 -177 -56 -147 -51 51 9 37 -3 -30 -24 -76 -25 -158 -42
-158 -33 0 10 185 77 398 145 431 138 766 332 863 500 l29 51 0 -35 c1 -42 8
-165 15 -240 3 -30 11 -73 19 -95 9 -22 15 -55 16 -72 0 -18 9 -59 19 -90 11
-32 32 -116 47 -188 15 -71 30 -148 35 -170 4 -22 8 -47 8 -55 1 -13 0 -13 -9
0 -9 13 -10 13 -10 -1 0 -8 -20 -47 -45 -86 -28 -44 -43 -77 -39 -87 4 -12 0
-16 -15 -16 -15 0 -21 -6 -21 -23 0 -37 10 -38 48 -9 49 37 92 108 92 151 l1
36 13 -40 c8 -22 17 -89 20 -150 3 -60 19 -240 35 -400 16 -159 37 -381 47
-492 l17 -202 -26 -43 c-14 -24 -45 -65 -68 -93 -37 -42 -39 -46 -11 -23 40
34 74 74 94 112 14 27 15 20 24 -125 14 -245 13 -266 -20 -333 -78 -161 -329
-326 -732 -481 -111 -43 -277 -94 -324 -100 -14 -2 -45 -8 -70 -14 -25 -6 -58
-10 -75 -10 -29 1 -28 1 10 14 22 8 81 26 130 40 108 32 147 46 141 52 -4 4
-23 0 -126 -28 -65 -17 -173 -39 -190 -39 -10 1 -8 5 6 13 33 19 84 65 84 75
0 5 7 15 15 22 34 28 -15 48 -140 57 -38 2 -74 8 -79 13 -5 5 17 16 50 25 33
9 68 20 79 24 19 8 18 10 -8 20 -16 6 -39 11 -53 11 -13 0 -24 5 -24 10 0 6
-7 10 -16 8 -10 -2 -19 2 -21 8 -4 13 39 34 70 34 13 0 28 5 34 11 8 8 35 9
85 5 40 -4 90 -7 111 -8 61 0 161 32 198 63 25 21 40 27 58 22 16 -4 22 -2 17
5 -3 6 0 13 6 16 19 8 -168 -3 -317 -20 -71 -8 -240 -37 -375 -64 -301 -61
-378 -73 -600 -100 -214 -26 -360 -47 -367 -53 -7 -8 18 -91 31 -99 8 -6 8 -8
-1 -8 -7 0 -13 -6 -13 -13 0 -11 -94 -40 -178 -54 -34 -5 -55 -23 -28 -23 9 0
15 -5 13 -11 -2 -13 1 -14 111 -23 80 -6 82 -6 82 15 0 33 12 15 19 -28 7 -44
28 -52 141 -54 41 -1 80 -5 86 -10 6 -5 55 -12 108 -16 93 -6 114 -17 51 -26
-24 -3 -21 -4 13 -6 78 -2 43 -19 -55 -26 -54 -3 -139 -10 -190 -16 -211 -21
-537 -5 -635 33 -27 10 -37 31 -19 42 10 7 -12 134 -31 174 -13 26 -15 27
-133 34 -129 9 -158 19 -101 38 20 6 36 15 36 19 0 14 -95 103 -130 121 -19
10 -46 30 -60 45 -31 33 -84 61 -133 70 -20 4 -37 12 -37 17 0 6 11 8 25 6 32
-7 43 8 14 17 -18 6 0 18 97 67 139 71 174 95 151 104 -12 4 -13 11 -5 35 5
16 17 29 25 29 11 0 14 7 9 25 -3 14 -9 36 -12 50 -5 21 -3 25 17 25 17 0 36
-16 66 -55 24 -30 50 -55 59 -55 22 0 -62 99 -95 112 -48 19 -56 25 -59 47 -2
11 -8 21 -14 21 -6 0 -5 6 3 16 10 13 10 17 -1 24 -7 4 -10 15 -7 23 4 10 -2
17 -15 20 -17 5 -19 2 -14 -19 5 -20 3 -24 -16 -24 -35 0 -58 28 -48 56 8 21
6 24 -23 29 -38 7 -112 1 -147 -13 -14 -5 -37 -12 -53 -16 -26 -6 -27 -5 -21
21 4 16 21 44 39 63 40 43 65 91 65 125 0 14 5 25 11 25 8 0 8 4 -1 15 -6 8
-8 20 -4 27 4 7 -9 0 -29 -15 -20 -15 -53 -35 -72 -43 -34 -14 -35 -14 -35 10
0 13 -7 26 -15 30 -15 5 -73 -11 -89 -25 -22 -19 -22 -6 -5 58 22 78 24 141 5
165 -10 14 -24 16 -69 13 -54 -4 -57 -3 -57 19 0 24 -36 56 -64 56 -8 0 -19
15 -25 33 -28 87 -51 201 -51 248 l0 53 26 -53 c36 -71 119 -130 259 -183 l50
-19 -45 6 c-65 8 -180 66 -233 116 l-45 44 5 -35 c13 -83 67 -146 173 -199 84
-43 245 -87 340 -94 30 -3 41 -2 23 0 -30 4 -32 6 -20 26 7 12 15 24 18 27 4
3 9 15 13 27 6 19 2 22 -36 28 -58 10 -87 28 -33 21 22 -3 73 -9 114 -12 71
-7 74 -6 67 12 -5 10 -10 26 -13 35 -3 11 -21 19 -54 23 -27 4 -49 11 -49 17
0 6 8 8 18 6 40 -11 96 -18 89 -11 -4 4 -67 20 -140 35 -149 31 -287 76 -356
115 -94 54 -111 85 -23 42 84 -41 186 -70 272 -75 65 -5 78 -3 98 15 23 20 23
24 20 171 -2 83 -7 153 -11 157 -4 4 -7 45 -7 91 0 54 -4 82 -10 78 -6 -3 -10
4 -10 17 0 29 -70 172 -102 209 -34 39 -146 103 -282 161 -141 60 -200 107
-194 157 1 16 -4 37 -13 48 -27 31 -31 42 -36 103 -3 49 0 67 23 111 33 65
133 172 194 206 25 15 78 46 117 70 40 24 82 45 93 46 11 1 20 4 20 8 0 3 19
11 43 18 23 7 50 17 61 23 10 5 27 11 39 13 11 3 27 11 36 19 21 19 120 58
131 51 5 -3 10 -1 12 3 6 16 213 83 333 108 66 14 154 34 195 44 41 10 224 46
405 79 348 63 336 61 925 90 174 9 175 9 425 -14z m3265 15 c0 -5 -5 -10 -11
-10 -5 0 -7 5 -4 10 3 6 8 10 11 10 2 0 4 -4 4 -10z m-375 -20 c3 -5 1 -10 -4
-10 -6 0 -11 5 -11 10 0 6 2 10 4 10 3 0 8 -4 11 -10z m300 -9 c3 -10 5 -23 3
-27 -1 -5 4 -20 11 -34 l13 -25 -24 25 c-14 14 -23 30 -21 37 2 6 -3 10 -13
10 -9 -1 -19 3 -21 10 -3 10 9 17 39 22 4 0 9 -8 13 -18z m-210 -69 c-3 -3
-11 0 -18 7 -9 10 -8 11 6 5 10 -3 15 -9 12 -12z m280 -12 c3 -5 1 -10 -4 -10
-6 0 -11 5 -11 10 0 6 2 10 4 10 3 0 8 -4 11 -10z m-197 -56 c-3 -27 -4 -26
-9 8 -3 22 -1 34 4 29 5 -5 7 -21 5 -37z m182 13 c0 -20 0 -20 -15 -1 -19 25
-19 35 0 28 8 -4 15 -16 15 -27z m-922 -160 c-56 -51 -222 -148 -212 -124 10
24 230 177 253 177 10 -1 -7 -22 -41 -53z m973 -100 c25 -48 21 -47 -15 6 -28
41 -32 52 -16 42 6 -4 20 -25 31 -48z m193 -43 c23 -29 25 -35 11 -32 -10 1
-34 25 -52 51 -28 40 -30 46 -11 33 13 -9 36 -32 52 -52z m-224 -31 c0 -8 -9
0 -50 45 l-45 47 48 -45 c26 -24 47 -45 47 -47z m305 -41 c8 -21 -17 -9 -34
17 -15 23 -15 24 7 10 12 -7 24 -20 27 -27z m-251 -28 c3 -8 2 -12 -4 -9 -6 3
-10 10 -10 16 0 14 7 11 14 -7z m151 -32 c22 -6 49 -18 60 -26 20 -15 20 -15
0 -16 -33 0 -92 19 -116 39 -21 17 -21 18 -4 17 11 -1 38 -7 60 -14z m100 8
c3 -5 1 -10 -4 -10 -6 0 -11 5 -11 10 0 6 2 10 4 10 3 0 8 -4 11 -10z m-7845
-840 c0 -6 -20 -52 -44 -103 -23 -51 -48 -103 -55 -117 -10 -23 -11 -21 -7 15
3 22 7 47 8 55 5 25 -16 23 -24 -2 -6 -17 -6 -14 -3 10 2 17 2 32 -1 32 -4 0
-148 -81 -228 -128 -5 -3 -6 -1 -3 5 3 5 43 32 89 60 46 28 119 81 163 117 77
63 105 78 105 56z m-370 -245 c0 -6 -108 -75 -118 -75 -4 0 20 18 53 40 63 42
65 43 65 35z m-165 -115 c-10 -11 -22 -20 -28 -20 -5 0 1 9 14 20 31 25 37 25
14 0z m-75 -73 c0 -2 -12 -14 -26 -28 l-27 -24 18 28 c14 22 35 36 35 24z
m-127 -172 c-3 -9 -8 -14 -10 -11 -3 3 -2 9 2 15 9 16 15 13 8 -4z m-73 -220
c-7 -25 -15 -43 -18 -41 -3 3 1 26 8 51 7 25 15 43 18 41 3 -3 -1 -26 -8 -51z
m2680 45 c20 -6 21 -8 5 -8 -11 0 -31 4 -45 8 -20 6 -21 8 -5 8 11 0 31 -4 45
-8z m4374 -36 c19 -18 21 -65 4 -82 -9 -9 -9 -15 0 -24 17 -17 15 -84 -4 -102
-9 -10 -33 -16 -60 -16 l-44 0 0 120 0 120 44 0 c27 0 51 -6 60 -16z m154 -1
c-2 -12 -14 -19 -36 -21 -28 -3 -32 -7 -32 -33 0 -24 4 -29 25 -29 18 0 25 -5
25 -20 0 -15 -7 -20 -25 -20 -21 0 -25 -5 -25 -30 0 -28 3 -30 35 -30 28 0 35
-4 35 -20 0 -18 -7 -20 -55 -20 l-55 0 0 120 0 120 56 0 c47 0 55 -3 52 -17z
m62 -83 l0 -100 30 0 c23 0 30 -4 30 -20 0 -17 -7 -20 -50 -20 l-50 0 0 120
c0 113 1 120 20 120 19 0 20 -7 20 -100z m130 0 l0 -100 28 0 c34 0 43 -7 35
-26 -3 -9 -21 -14 -54 -14 l-49 0 0 120 c0 113 1 120 20 120 19 0 20 -7 20
-100z m130 -20 c0 -113 -1 -120 -20 -120 -19 0 -20 7 -20 120 0 113 1 120 20
120 19 0 20 -7 20 -120z m124 104 c23 -22 20 -54 -4 -54 -11 0 -20 7 -20 15 0
8 -7 15 -15 15 -25 0 -17 -31 20 -71 55 -61 42 -129 -24 -129 -33 0 -51 16
-51 47 0 26 27 32 36 8 4 -8 12 -15 20 -15 24 0 15 31 -21 71 -37 41 -47 93
-23 117 17 17 64 15 82 -4z m210 -6 c32 -45 11 -110 -39 -122 -22 -6 -25 -12
-25 -51 0 -38 -3 -45 -20 -45 -19 0 -20 7 -20 120 l0 120 44 0 c35 0 48 -5 60
-22z m144 5 c-2 -12 -13 -18 -33 -18 -26 -1 -30 -5 -33 -33 -3 -29 0 -32 22
-32 19 0 26 -5 26 -20 0 -15 -7 -20 -25 -20 -21 0 -25 -5 -25 -30 0 -28 3 -30
35 -30 28 0 35 -4 35 -20 0 -18 -7 -20 -55 -20 l-55 0 0 120 0 120 56 0 c47 0
55 -3 52 -17z m138 -8 c11 -17 14 -34 10 -53 -8 -30 -8 -36 0 -109 5 -49 4
-53 -15 -53 -17 0 -21 6 -21 34 0 44 -9 66 -26 66 -10 0 -14 -14 -14 -50 0
-43 -3 -50 -20 -50 -19 0 -20 7 -20 120 l0 120 45 0 c36 0 47 -4 61 -25z m142
8 c-2 -12 -14 -19 -36 -21 -28 -3 -32 -7 -32 -33 0 -24 4 -29 25 -29 18 0 25
-5 25 -20 0 -15 -7 -20 -25 -20 -21 0 -25 -5 -25 -29 0 -26 4 -30 32 -33 22
-2 34 -9 36 -20 3 -15 -5 -18 -52 -18 l-56 0 0 120 0 120 56 0 c47 0 55 -3 52
-17z m87 5 c2 -7 11 -35 19 -63 l15 -50 -2 60 c-1 49 2 61 16 63 15 3 17 -9
17 -117 0 -112 -1 -121 -19 -121 -18 0 -27 21 -50 125 -8 35 -9 30 -10 -42 -1
-76 -3 -83 -21 -83 -19 0 -20 7 -20 120 l0 120 25 0 c14 0 27 -6 30 -12z m161
-46 c17 -75 24 -76 24 -4 0 48 3 62 15 62 13 0 15 -20 15 -120 0 -113 -1 -120
-20 -120 -14 0 -22 10 -29 38 -29 113 -29 112 -30 35 -1 -66 -3 -73 -21 -73
-19 0 -20 7 -20 121 l0 120 27 -3 c24 -3 29 -9 39 -56z m134 -62 c0 -113 -1
-120 -20 -120 -19 0 -20 7 -20 120 0 113 1 120 20 120 19 0 20 -7 20 -120z
m124 104 c23 -22 20 -54 -4 -54 -11 0 -20 7 -20 15 0 8 -7 15 -15 15 -25 0
-17 -31 20 -71 55 -61 42 -129 -24 -129 -33 0 -51 16 -51 47 0 26 27 32 36 8
4 -8 12 -15 20 -15 24 0 15 31 -21 71 -37 41 -47 93 -23 117 17 17 64 15 82
-4z m-6187 -40 c-3 -3 -12 -4 -19 -1 -8 3 -5 6 6 6 11 1 17 -2 13 -5z m-590
-116 c-3 -8 -6 -5 -6 6 -1 11 2 17 5 13 3 -3 4 -12 1 -19z m4848 -33 c50 -49
15 -135 -56 -135 -22 0 -39 9 -59 30 l-28 30 -146 0 -146 0 -2 -817 -3 -818
-2092 -3 c-1856 -2 -2093 0 -2093 13 0 13 236 15 2075 15 l2075 0 2 818 3 817
168 3 c105 1 167 6 167 13 0 22 50 59 80 59 19 0 40 -9 55 -25z m168 -119 c8
-19 -1 -26 -35 -26 -24 0 -28 -4 -28 -30 0 -26 4 -30 26 -30 33 0 30 -33 -4
-38 -19 -3 -22 -9 -22 -53 0 -42 -3 -49 -20 -49 -19 0 -20 7 -20 120 l0 120
49 0 c33 0 51 -5 54 -14z m67 -86 l0 -100 30 0 c23 0 30 -4 30 -20 0 -17 -7
-20 -50 -20 l-50 0 0 120 c0 113 1 120 20 120 19 0 20 -7 20 -100z m188 70 c8
-16 12 -53 10 -103 -3 -64 -7 -81 -23 -93 -25 -19 -54 -18 -77 3 -25 23 -27
183 -2 208 24 24 76 16 92 -15z m82 -45 c5 -66 5 -68 12 -30 4 22 8 55 8 73 0
27 4 32 24 32 22 0 24 -5 31 -82 9 -89 10 -88 20 15 5 51 10 67 22 67 13 0 14
-13 8 -97 -9 -131 -12 -143 -40 -143 -21 0 -24 6 -31 73 -5 40 -10 59 -11 42
-11 -112 -13 -116 -41 -113 -26 3 -27 6 -34 83 -4 44 -9 97 -12 118 -4 35 -2
38 17 35 20 -3 23 -11 27 -73z m270 55 c0 -16 -7 -20 -35 -20 -32 0 -35 -2
-35 -30 0 -26 4 -30 26 -30 33 0 30 -33 -4 -38 -17 -3 -22 -10 -22 -33 0 -27
3 -29 35 -29 28 0 35 -4 35 -20 0 -18 -7 -20 -55 -20 l-55 0 0 120 0 120 55 0
c48 0 55 -2 55 -20z m121 4 c7 -8 12 -30 11 -47 -2 -46 -2 -66 1 -122 2 -40
-1 -50 -15 -53 -14 -3 -18 4 -18 31 0 45 -9 67 -26 67 -10 0 -14 -14 -14 -50
0 -43 -3 -50 -20 -50 -19 0 -20 7 -20 120 l0 120 44 0 c27 0 48 -6 57 -16z
m217 -1 c-2 -12 -14 -19 -36 -21 -28 -3 -32 -7 -32 -33 0 -24 4 -29 25 -29 18
0 25 -5 25 -20 0 -15 -7 -20 -25 -20 -21 0 -25 -5 -25 -29 0 -26 4 -30 32 -33
22 -2 34 -9 36 -20 3 -15 -5 -18 -52 -18 l-56 0 0 120 0 120 56 0 c47 0 55 -3
52 -17z m77 -13 c4 -16 10 -30 15 -30 5 0 11 14 15 30 5 21 13 30 26 30 23 0
23 5 -1 -64 -19 -57 -19 -58 0 -109 25 -64 25 -67 0 -67 -15 0 -22 9 -27 30
-8 43 -21 46 -31 8 -4 -18 -16 -34 -25 -36 -21 -4 -22 17 -2 65 8 19 15 46 15
58 0 12 -7 39 -15 58 -20 47 -19 57 4 57 13 0 21 -9 26 -30z m215 14 c0 -9 -9
-18 -20 -21 -18 -5 -20 -14 -20 -104 0 -92 -1 -99 -20 -99 -19 0 -20 7 -20
100 0 93 -1 100 -20 100 -13 0 -20 7 -20 20 0 18 7 20 60 20 48 0 60 -3 60
-16z m126 -10 c14 -21 15 -31 6 -61 -7 -23 -8 -42 -2 -54 6 -10 10 -36 10 -58
0 -34 -3 -41 -19 -41 -17 0 -20 8 -23 47 -2 36 -7 49 -20 51 -15 3 -18 -4 -18
-47 0 -44 -3 -51 -20 -51 -19 0 -20 7 -20 120 l0 120 45 0 c37 0 47 -4 61 -26z
m147 -86 c21 -136 21 -128 -3 -128 -13 0 -20 7 -20 20 0 15 -7 20 -25 20 -18
0 -25 -5 -25 -20 0 -18 -19 -27 -32 -15 -3 3 3 54 13 113 11 59 19 110 19 115
0 4 12 7 28 7 27 0 27 -1 45 -112z m145 100 c18 -18 15 -68 -4 -68 -9 0 -18 9
-21 20 -3 11 -12 20 -19 20 -11 0 -14 -19 -14 -80 0 -64 3 -80 15 -80 9 0 15
9 15 25 0 18 5 25 20 25 15 0 20 -7 20 -29 0 -54 -53 -80 -92 -44 -25 22 -27
183 -2 207 18 19 65 21 82 4z m152 -4 c0 -9 -9 -18 -20 -21 -18 -5 -20 -14
-20 -104 0 -92 -1 -99 -20 -99 -19 0 -20 7 -20 99 0 90 -2 99 -20 104 -11 3
-20 12 -20 21 0 13 12 16 60 16 48 0 60 -3 60 -16z m77 -366 c-3 -8 -6 -5 -6
6 -1 11 2 17 5 13 3 -3 4 -12 1 -19z m-24 -3 c-3 -9 -8 -14 -10 -11 -3 3 -2 9
2 15 9 16 15 13 8 -4z m66 -35 c0 -14 -4 -34 -9 -45 -6 -14 -9 -3 -9 40 -1 42
2 56 9 45 5 -8 9 -26 9 -40z m-6172 14 c-3 -4 -14 -3 -24 0 -15 6 -15 8 -3 16
16 10 39 -4 27 -16z m6075 -56 c-7 -7 -12 -8 -12 -2 0 14 12 26 19 19 2 -3 -1
-11 -7 -17z m-5968 -80 l7 -47 -31 11 c-30 10 -31 13 -25 47 7 36 24 57 36 43
4 -4 10 -28 13 -54z m-76 -13 c-1 -2 -16 -1 -32 2 l-29 6 29 12 c24 10 30 9
32 -2 2 -8 2 -16 0 -18z m-1519 -37 c0 -27 -2 -29 -8 -13 -5 11 -6 26 -4 33 8
21 13 13 12 -20z m87 7 c3 -13 4 -30 1 -37 -3 -7 -6 -2 -6 13 -1 14 -6 30 -13
37 -9 9 -9 12 0 12 6 0 14 -11 18 -25z m-206 -26 c0 -5 -4 -9 -10 -9 -5 0 -10
7 -10 16 0 8 5 12 10 9 6 -3 10 -10 10 -16z m160 -11 c0 -36 -4 -35 -14 5 -4
16 -2 27 4 27 5 0 10 -14 10 -32z m90 17 c0 -8 3 -14 8 -14 18 3 32 -2 32 -11
0 -5 -9 -10 -20 -10 -11 0 -20 -4 -20 -10 0 -5 5 -10 11 -10 5 0 7 -5 4 -10
-4 -6 -10 -8 -15 -5 -10 6 -18 85 -8 85 5 0 8 -7 8 -15z m-162 -55 l0 -25 -8
25 c-4 14 -8 34 -8 45 l-1 20 9 -20 c5 -11 8 -31 8 -45z m-171 18 c-3 -7 -5
-2 -5 12 0 14 2 19 5 13 2 -7 2 -19 0 -25z m123 -3 c0 -5 -5 -3 -10 5 -5 8
-10 20 -10 25 0 6 5 3 10 -5 5 -8 10 -19 10 -25z m277 3 c-3 -7 -5 -2 -5 12 0
14 2 19 5 13 2 -7 2 -19 0 -25z m-444 -8 c3 -11 1 -20 -4 -20 -5 0 -9 5 -9 11
0 5 -5 7 -10 4 -6 -4 -8 -21 -4 -41 4 -20 2 -34 -4 -34 -18 0 -21 73 -3 91 19
19 27 17 34 -11z m-996 14 c-3 -3 -12 -4 -19 -1 -8 3 -5 6 6 6 11 1 17 -2 13
-5z m1090 -16 c-3 -8 -6 -5 -6 6 -1 11 2 17 5 13 3 -3 4 -12 1 -19z m382 -5
c0 -25 -1 -26 -9 -8 -12 27 -12 35 0 35 6 0 10 -12 9 -27z m7410 -40 c0 -16
-1 -15 -9 2 -4 12 -15 27 -24 34 -9 7 -16 18 -16 23 0 5 11 -2 25 -16 14 -14
25 -33 24 -43z m-8842 51 c-3 -3 -12 -4 -19 -1 -8 3 -5 6 6 6 11 1 17 -2 13
-5z m1493 -47 l0 -32 -15 29 c-15 28 -12 51 6 41 5 -4 9 -21 9 -38z m7041 16
c13 -16 12 -17 -3 -4 -10 7 -18 15 -18 17 0 8 8 3 21 -13z m-7529 -15 c-7 -7
-12 -8 -12 -2 0 6 3 14 7 17 3 4 9 5 12 2 2 -3 -1 -11 -7 -17z m-138 -14 c4
-15 5 -29 1 -32 -3 -3 -5 2 -5 12 0 9 -7 19 -15 22 -19 8 -20 24 -1 24 8 0 17
-12 20 -26z m7742 -11 c-10 -10 -19 5 -10 18 6 11 8 11 12 0 2 -7 1 -15 -2
-18z m-7289 -5 c-3 -8 -6 -5 -6 6 -1 11 2 17 5 13 3 -3 4 -12 1 -19z m226 -2
c6 -15 -1 -26 -15 -26 -4 0 -8 9 -8 20 0 23 15 27 23 6z m-733 -16 c12 -12 18
-25 15 -30 -10 -17 -25 -11 -25 9 0 25 -20 38 -31 20 -13 -20 -11 -27 12 -50
17 -17 23 -19 30 -8 6 11 9 9 9 -7 0 -12 7 -27 15 -34 8 -7 15 -26 15 -42 0
-26 -2 -29 -15 -18 -8 7 -14 18 -13 24 3 19 -12 54 -27 60 -17 6 -21 -9 -5
-19 12 -8 13 -25 1 -25 -5 0 -15 19 -23 43 -8 23 -19 51 -23 61 -6 13 -5 17 2
13 6 -4 13 0 17 8 7 21 22 19 46 -5z m7998 -32 c1 -10 2 -32 3 -48 2 -18 5
-26 10 -19 14 23 38 -33 33 -81 -5 -59 -29 -89 -95 -122 -67 -33 -73 -33 -109
-6 -20 15 -49 23 -89 26 -56 4 -59 6 -48 23 7 11 19 19 28 19 23 0 30 11 17
27 -9 11 -5 13 22 11 21 -2 35 3 38 11 2 7 18 28 34 47 16 18 27 38 24 43 -3
5 3 7 14 4 15 -4 20 0 20 16 0 12 6 21 15 21 8 0 15 5 15 10 0 6 9 10 20 10
15 0 20 7 20 25 0 21 3 23 13 14 7 -7 14 -21 15 -31z m-7264 -44 c-11 -22 -20
-32 -22 -24 -3 8 0 16 7 18 6 2 11 12 11 21 0 18 10 34 18 27 2 -2 -4 -21 -14
-42z m6976 2 c0 -3 -4 -8 -10 -11 -5 -3 -10 -1 -10 4 0 6 5 11 10 11 6 0 10
-2 10 -4z m-6940 -21 c0 -8 -4 -15 -10 -15 -5 0 -7 7 -4 15 4 8 8 15 10 15 2
0 4 -7 4 -15z m-816 -41 c9 -24 2 -26 -12 -4 -7 11 -8 20 -3 20 5 0 12 -7 15
-16z m-44 2 c0 -3 -4 -8 -10 -11 -5 -3 -10 -1 -10 4 0 6 5 11 10 11 6 0 10 -2
10 -4z m110 -49 c0 -3 -8 -3 -19 0 -11 3 -18 14 -18 29 l0 24 18 -24 c11 -13
19 -26 19 -29z m70 32 c0 -11 5 -29 10 -40 8 -13 7 -19 0 -19 -6 0 -18 16 -26
35 -18 43 -17 45 1 45 8 0 15 -9 15 -21z m7710 0 c12 -7 11 -8 -6 -9 -11 0
-29 7 -40 16 -18 14 -18 15 6 8 14 -3 32 -10 40 -15z m-7054 -21 c-18 -26 -22
-17 -5 14 6 11 13 17 16 15 3 -3 -2 -16 -11 -29z m44 22 c0 -5 -5 -10 -11 -10
-5 0 -7 5 -4 10 3 6 8 10 11 10 2 0 4 -4 4 -10z m6717 -6 c-3 -3 -12 -4 -19
-1 -8 3 -5 6 6 6 11 1 17 -2 13 -5z m-6727 -34 c0 -5 -5 -10 -11 -10 -5 0 -7
5 -4 10 3 6 8 10 11 10 2 0 4 -4 4 -10z m-113 -16 c2 -5 -3 -19 -11 -29 -14
-19 -15 -18 -13 12 2 30 16 40 24 17z m6812 -20 c10 -9 -6 -11 -46 -6 -24 2
-41 8 -38 12 5 8 74 2 84 -6z m188 -6 c-3 -8 -6 -5 -6 6 -1 11 2 17 5 13 3 -3
4 -12 1 -19z m-7077 3 c0 -5 -6 -14 -14 -20 -12 -10 -13 -8 -9 8 5 21 23 30
23 12z m160 -6 c0 -8 -4 -15 -10 -15 -5 0 -7 7 -4 15 4 8 8 15 10 15 2 0 4 -7
4 -15z m-571 -29 c-3 -3 -11 5 -18 17 -13 21 -12 21 5 5 10 -10 16 -20 13 -22z
m281 -11 c-11 -12 -20 -27 -20 -35 0 -7 -3 -11 -6 -7 -10 10 18 64 33 64 9 0
7 -7 -7 -22z m44 9 c3 -8 2 -12 -4 -9 -6 3 -10 10 -10 16 0 14 7 11 14 -7z
m3156 1 c0 -8 5 -15 10 -15 6 0 10 -7 10 -16 0 -18 -58 -44 -99 -44 -63 0 -77
21 -38 57 35 33 117 46 117 18z m-3060 -2 c0 -5 -5 -15 -10 -23 -8 -12 -10
-11 -10 8 0 12 5 22 10 22 6 0 10 -3 10 -7z m95 -3 c-3 -5 -11 -10 -16 -10 -6
0 -7 5 -4 10 3 6 11 10 16 10 6 0 7 -4 4 -10z m6732 -2 c21 -8 33 -18 31 -28
-5 -23 -101 -17 -127 9 -10 10 -17 22 -13 25 10 10 74 7 109 -6z m-7140 -20
c-3 -8 -6 -5 -6 6 -1 11 2 17 5 13 3 -3 4 -12 1 -19z m245 0 c-7 -7 -12 -8
-12 -2 0 6 3 14 7 17 3 4 9 5 12 2 2 -3 -1 -11 -7 -17z m-417 2 c3 -5 1 -10
-4 -10 -6 0 -11 5 -11 10 0 6 2 10 4 10 3 0 8 -4 11 -10z m215 -10 c6 -11 8
-20 6 -20 -3 0 -10 9 -16 20 -6 11 -8 20 -6 20 3 0 10 -9 16 -20z m7017 -40
c-46 -25 -52 -25 -29 -1 9 11 28 20 42 20 22 1 20 -1 -13 -19z m-6742 -20 c3
-5 1 -10 -4 -10 -6 0 -11 5 -11 10 0 6 2 10 4 10 3 0 8 -4 11 -10z m-425 -10
c0 -5 -4 -10 -10 -10 -5 0 -10 5 -10 10 0 6 5 10 10 10 6 0 10 -4 10 -10z
m165 -10 c3 -5 1 -10 -4 -10 -6 0 -11 5 -11 10 0 6 2 10 4 10 3 0 8 -4 11 -10z
m7064 -81 c-16 -30 -27 -43 -24 -30 8 28 46 93 51 88 2 -2 -10 -28 -27 -58z
m-7919 -79 c-8 -5 -19 -10 -25 -10 -5 0 -3 5 5 10 8 5 20 10 25 10 6 0 3 -5
-5 -10z m855 -180 c3 -5 2 -10 -4 -10 -5 0 -13 5 -16 10 -3 6 -2 10 4 10 5 0
13 -4 16 -10z m60 -80 c3 -5 2 -10 -4 -10 -5 0 -13 5 -16 10 -3 6 -2 10 4 10
5 0 13 -4 16 -10z m-2 -27 c-7 -2 -19 -2 -25 0 -7 3 -2 5 12 5 14 0 19 -2 13
-5z m26 -67 c8 -10 9 -16 1 -21 -13 -8 -30 3 -30 21 0 18 14 18 29 0z m67 -63
c-5 -5 -11 -3 -13 3 -2 7 -12 10 -22 7 -10 -3 -22 1 -26 7 -5 9 -1 10 14 5 14
-4 21 -2 21 6 0 9 5 8 17 -4 9 -9 13 -20 9 -24z m1189 -962 c74 -29 91 -29
185 -2 54 16 117 23 228 28 l152 6 0 -169 c-1 -166 -1 -168 -17 -124 -21 62
-71 121 -128 149 -104 52 -242 19 -308 -75 -27 -38 -32 -42 -40 -27 -37 70
-131 123 -217 123 -62 0 -141 -32 -176 -71 -33 -36 -64 -100 -64 -131 0 -16
-5 -28 -11 -28 -7 0 -9 9 -5 23 3 12 6 91 6 176 l0 153 168 -4 c143 -4 176 -8
227 -27z m-55 -153 c124 -63 155 -217 64 -318 -45 -49 -90 -70 -153 -70 -116
0 -201 87 -201 205 0 156 153 252 290 183z m457 -3 c32 -16 61 -41 79 -67 25
-36 29 -50 29 -114 0 -64 -3 -77 -30 -116 -38 -55 -102 -88 -169 -88 -149 0
-248 152 -187 286 50 110 170 153 278 99z m883 -59 c0 -40 3 -88 6 -105 10
-46 39 -41 72 14 21 35 33 44 54 45 l28 0 -32 -51 -31 -51 23 -18 c19 -14 24
-30 28 -79 3 -39 1 -61 -6 -61 -17 0 -42 42 -42 71 0 35 -21 51 -62 47 -30 -3
-33 -6 -34 -38 -1 -68 -4 -80 -18 -74 -27 10 -36 56 -36 189 0 135 10 185 37
185 10 0 13 -19 13 -74z m1352 -63 c3 -151 -2 -175 -51 -216 -84 -70 -211 -1
-211 115 0 50 42 105 90 118 54 15 104 1 108 -29 3 -21 1 -23 -24 -17 -83 21
-124 -5 -124 -79 0 -35 5 -49 28 -70 37 -35 87 -31 116 8 18 25 21 45 24 155
3 117 11 152 33 152 4 0 9 -61 11 -137z m126 83 c4 -21 -14 -37 -35 -29 -14 5
-18 35 -6 47 12 12 38 1 41 -18z m-1956 -33 c3 -25 7 -28 46 -31 34 -3 42 -7
42 -23 0 -16 -7 -19 -45 -19 l-45 0 0 -74 c0 -84 13 -106 61 -106 23 0 29 -4
29 -21 0 -20 -4 -21 -47 -16 -75 8 -83 25 -83 176 0 70 3 131 7 134 15 15 32
5 35 -20z m325 -49 c110 -69 59 -244 -70 -244 -93 0 -152 80 -127 172 23 83
123 119 197 72z m549 -2 c79 -59 70 -183 -16 -227 -57 -30 -127 -12 -169 41
-32 40 -29 123 5 163 43 51 127 62 180 23z m301 2 c37 -24 57 -63 57 -113 0
-53 -23 -95 -65 -117 -54 -28 -129 -12 -129 27 0 16 3 18 19 9 62 -33 131 12
131 85 0 82 -94 122 -146 61 -23 -26 -24 -34 -24 -167 0 -76 -2 -139 -4 -139
-2 0 -11 3 -20 6 -24 9 -23 273 1 315 32 54 122 71 180 33z m276 12 c45 -19
77 -57 84 -100 l6 -36 -112 0 c-61 0 -111 -4 -111 -9 0 -23 15 -43 41 -56 39
-21 69 -19 96 7 22 20 25 21 40 5 14 -14 14 -18 2 -33 -50 -61 -164 -45 -209
29 -40 66 -13 153 60 189 42 22 61 22 103 4z m785 -12 c38 -25 53 -75 50 -165
-3 -77 -4 -79 -22 -66 -15 11 -20 30 -23 78 -6 98 -10 109 -48 124 -92 39
-167 -75 -96 -146 33 -33 74 -38 103 -12 17 15 18 15 18 -10 0 -62 -109 -64
-163 -4 -27 31 -40 93 -27 131 12 37 55 81 85 89 31 8 97 -2 123 -19z m-278
-114 c0 -71 -3 -130 -7 -130 -32 1 -38 22 -41 140 l-4 120 26 0 26 0 0 -130z
m-3150 7 c1 -62 73 -153 146 -183 38 -16 102 -20 160 -10 41 7 41 7 102 -60
l60 -68 64 69 64 69 46 -13 c117 -33 246 39 290 161 l19 53 -4 -130 c-3 -104
-8 -139 -24 -177 -29 -65 -94 -131 -156 -159 -51 -24 -58 -24 -414 -27 l-363
-3 0 233 c0 128 -3 244 -7 257 -4 17 -3 22 5 17 7 -4 12 -17 12 -29z m471 -90
c-13 -13 -26 -3 -16 12 3 6 11 8 17 5 6 -4 6 -10 -1 -17z m66 -61 l27 -24 -47
-48 -46 -49 -46 45 c-25 24 -45 50 -45 57 0 19 50 42 92 43 25 0 46 -8 65 -24z"/>
<path d="M8999 10073 c-4 -36 0 -234 5 -242 4 -6 25 -11 47 -11 31 0 47 7 70
29 24 25 29 37 29 81 0 61 -19 111 -51 134 -23 16 -98 23 -100 9z"/>
<path d="M9292 10013 l3 -68 48 -3 c61 -4 77 9 77 63 0 55 -22 75 -84 75 l-47
0 3 -67z"/>
<path d="M9970 9690 c0 -5 5 -10 11 -10 5 0 7 5 4 10 -3 6 -8 10 -11 10 -2 0
-4 -4 -4 -10z"/>
<path d="M10120 9695 c0 -10 7 -15 18 -13 21 4 19 22 -2 26 -10 2 -16 -3 -16
-13z"/>
<path d="M813 8529 c0 -74 4 -140 9 -146 12 -15 67 -17 102 -3 75 28 87 171
22 247 -18 21 -34 27 -78 31 l-55 4 0 -133z"/>
<path d="M1150 8586 c0 -82 3 -86 69 -86 49 0 71 24 71 78 0 59 -25 82 -90 82
l-50 0 0 -74z"/>
<path d="M8005 8147 c-4 -10 -3 -23 4 -30 16 -16 26 0 14 25 -10 21 -11 22
-18 5z"/>
<path d="M1910 8220 c0 -5 5 -10 10 -10 6 0 10 5 10 10 0 6 -4 10 -10 10 -5 0
-10 -4 -10 -10z"/>
<path d="M2082 8233 c4 -21 33 -25 33 -3 0 8 -8 16 -18 18 -14 3 -18 -1 -15
-15z"/>
<path d="M6663 7851 c-94 -59 -88 -228 11 -275 155 -73 284 125 167 256 -24
27 -36 32 -87 35 -46 3 -66 0 -91 -16z"/>
<path d="M840 7815 l0 -55 68 0 c77 0 102 16 102 63 0 36 -25 47 -104 47 l-66
0 0 -55z"/>
<path d="M840 7620 l0 -60 75 0 c67 0 79 3 100 25 30 29 31 49 5 75 -17 17
-33 20 -100 20 l-80 0 0 -60z"/>
<path d="M1280 7800 l0 -70 74 0 c69 0 76 2 95 26 27 35 26 59 -4 89 -21 22
-33 25 -95 25 l-70 0 0 -70z"/>
<path d="M4510 7157 c-14 -39 -26 -78 -28 -84 -3 -9 13 -13 57 -13 l60 0 -30
82 c-17 46 -32 84 -33 85 -1 2 -13 -30 -26 -70z"/>
<path d="M3610 7190 l0 -70 74 0 c69 0 76 2 95 26 27 35 26 59 -4 89 -21 22
-33 25 -95 25 l-70 0 0 -70z"/>
<path d="M1196 6590 c-3 -8 -12 -34 -20 -57 l-15 -43 39 0 c46 0 47 5 20 70
-12 30 -20 40 -24 30z"/>
<path d="M2843 6605 c-13 -9 -28 -33 -34 -54 -9 -32 -8 -44 5 -73 38 -79 137
-76 171 6 17 40 9 79 -22 111 -30 29 -86 34 -120 10z"/>
<path d="M3220 6575 l0 -45 50 0 c40 0 51 4 60 21 9 16 8 26 -5 45 -12 19 -24
24 -60 24 l-45 0 0 -45z"/>
<path d="M3534 6585 c-4 -11 -13 -35 -20 -54 -8 -18 -14 -35 -14 -37 0 -2 18
-4 40 -4 22 0 40 3 40 8 0 4 -9 30 -19 57 -16 42 -21 47 -27 30z"/>
<path d="M3750 6519 l0 -102 51 5 c64 7 89 30 96 91 5 41 2 49 -25 77 -25 25
-39 30 -76 30 l-46 0 0 -101z"/>
<path d="M4244 6585 c-4 -11 -13 -35 -20 -54 -8 -18 -14 -35 -14 -37 0 -2 18
-4 40 -4 22 0 40 3 40 8 0 4 -9 30 -19 57 -16 42 -21 47 -27 30z"/>
<path d="M2298 6579 c-2 -22 -2 -42 1 -45 9 -9 78 -3 89 8 7 7 12 21 12 33 0
31 -19 45 -61 45 -36 0 -37 -1 -41 -41z"/>
<path d="M9231 6374 c-18 -20 -30 -39 -27 -42 7 -7 44 26 58 51 17 33 1 29
-31 -9z"/>
<path d="M9285 6330 c-27 -30 -12 -34 15 -5 13 14 19 25 13 25 -5 0 -18 -9
-28 -20z"/>
<path d="M9313 6237 c-15 -18 -45 -44 -65 -57 -21 -14 -38 -29 -38 -33 0 -5 3
-7 8 -5 4 2 29 12 55 22 31 13 46 24 43 32 -5 14 30 54 46 54 5 0 6 5 3 10
-10 17 -22 11 -52 -23z"/>
<path d="M9148 6163 c7 -3 16 -2 19 1 4 3 -2 6 -13 5 -11 0 -14 -3 -6 -6z"/>
<path d="M9180 6130 c0 -12 24 -30 40 -30 9 0 24 8 33 18 16 18 15 19 -28 19
-25 0 -45 -3 -45 -7z"/>
<path d="M9227 6072 c-10 -10 -17 -22 -17 -25 0 -4 33 -6 73 -5 59 1 63 2 22
5 -27 2 -54 8 -59 14 -6 6 -6 9 2 9 7 0 12 5 12 10 0 16 -15 12 -33 -8z"/>
<path d="M9368 6073 c6 -2 18 -2 25 0 6 3 1 5 -13 5 -14 0 -19 -2 -12 -5z"/>
<path d="M9428 6053 c6 -2 18 -2 25 0 6 3 1 5 -13 5 -14 0 -19 -2 -12 -5z"/>
<path d="M9375 6020 l-30 -8 35 0 c19 0 46 4 60 8 24 8 24 8 -5 8 -16 0 -43
-4 -60 -8z"/>
<path d="M7005 5730 c-4 -6 -42 -31 -86 -57 -43 -25 -79 -48 -79 -50 0 -11
163 84 171 99 10 19 5 25 -6 8z"/>
<path d="M3530 5391 c0 -23 73 -81 145 -116 88 -41 152 -60 300 -85 156 -27
194 -24 70 5 -55 12 -129 33 -164 45 -46 15 -66 18 -71 10 -8 -13 -7 -14 -79
11 -76 27 -134 63 -170 106 -17 21 -31 32 -31 24z"/>
<path d="M4193 5033 c15 -2 37 -2 50 0 12 2 0 4 -28 4 -27 0 -38 -2 -22 -4z"/>
<path d="M4338 5023 c18 -2 45 -2 60 0 15 2 0 4 -33 4 -33 0 -45 -2 -27 -4z"/>
<path d="M7415 4664 c-9 -14 -44 -53 -78 -87 -34 -34 -48 -52 -31 -40 36 26
107 102 123 132 16 29 7 26 -14 -5z"/>
<path d="M6815 4450 c-44 -16 -75 -29 -70 -29 21 -2 -22 -21 -48 -21 -23 0
-187 -47 -347 -98 -26 -9 -28 -10 -6 -6 82 15 83 11 6 -16 -78 -28 -220 -62
-229 -54 -2 1 31 13 73 25 117 34 82 34 -46 0 -134 -36 -284 -64 -301 -57 -7
2 -3 5 8 5 26 1 412 96 445 110 43 17 17 12 -151 -29 -183 -44 -392 -83 -734
-136 -321 -50 -330 -51 -428 -68 -48 -8 -91 -17 -96 -20 -5 -3 -6 -17 -3 -31
3 -17 13 -27 31 -31 14 -3 34 -8 44 -11 10 -2 25 1 33 8 11 9 18 9 26 1 6 -6
18 -8 27 -5 13 5 14 4 3 -8 -10 -11 -65 -14 -277 -14 -145 0 -261 -2 -258 -5
2 -3 118 -8 256 -12 139 -4 284 -10 323 -13 63 -6 71 -9 67 -26 -5 -19 -28
-25 -108 -32 l-40 -4 45 -1 c25 -1 122 7 215 18 503 59 736 106 1167 236 206
62 548 202 548 224 0 5 -21 -2 -47 -14 -27 -13 -77 -33 -113 -44 -36 -11 -103
-34 -149 -51 -47 -17 -88 -30 -93 -29 -5 2 25 16 67 32 42 16 74 30 72 32 -2
2 -18 -1 -36 -7 -18 -6 -34 -9 -37 -6 -3 2 39 22 92 43 53 20 98 44 101 51 3
8 18 20 34 29 25 12 29 21 29 54 0 22 -3 40 -7 39 -5 0 -44 -13 -88 -29z m-45
-119 c0 -5 -14 -14 -31 -20 -23 -8 -30 -8 -27 1 3 7 15 15 29 19 13 4 25 7 27
8 1 1 2 -3 2 -8z m-240 -80 c-8 -5 -31 -11 -50 -14 -35 -6 -35 -6 5 8 46 15
67 18 45 6z m-260 -35 c0 -2 -7 -6 -15 -10 -8 -3 -15 -1 -15 4 0 6 7 10 15 10
8 0 15 -2 15 -4z m110 -12 c-19 -8 -49 -17 -65 -18 -17 -2 -39 -7 -50 -13 -11
-6 -40 -13 -65 -16 -35 -5 -40 -4 -21 4 13 5 38 16 55 24 17 8 55 16 84 19 29
2 56 7 59 10 4 3 13 6 22 6 9 -1 0 -8 -19 -16z"/>
<path d="M7161 4450 c-30 -16 -62 -37 -70 -46 -15 -17 -14 -17 9 -2 14 8 46
27 73 42 26 15 47 30 47 32 0 6 0 6 -59 -26z"/>
<path d="M7390 4420 c0 -5 5 -10 10 -10 6 0 10 5 10 10 0 6 -4 10 -10 10 -5 0
-10 -4 -10 -10z"/>
<path d="M7045 4390 c-3 -6 1 -7 9 -4 18 7 21 14 7 14 -6 0 -13 -4 -16 -10z"/>
<path d="M7261 4311 c-17 -30 -13 -38 5 -12 13 18 18 20 26 10 8 -12 9 -11 6
0 -7 23 -26 24 -37 2z"/>
<path d="M6288 4283 c7 -3 16 -2 19 1 4 3 -2 6 -13 5 -11 0 -14 -3 -6 -6z"/>
<path d="M7384 4278 c3 -15 26 -23 26 -8 0 6 -4 9 -9 6 -5 -4 -12 -1 -14 4 -3
6 -4 5 -3 -2z"/>
<path d="M7290 4245 c-11 -13 -10 -14 4 -9 9 3 16 10 16 15 0 13 -6 11 -20 -6z"/>
<path d="M7126 4228 c-30 -42 -16 -158 18 -158 22 0 46 35 46 68 0 32 -21 45
-35 22 -3 -5 1 -10 9 -10 21 0 20 -34 0 -51 -25 -20 -46 15 -42 70 3 50 30 78
49 51 8 -12 10 -11 7 5 -5 28 -33 30 -52 3z"/>
<path d="M7345 4219 c-11 -17 1 -21 15 -4 8 9 8 15 2 15 -6 0 -14 -5 -17 -11z"/>
<path d="M7251 4202 c-1 -7 4 -22 10 -33 10 -20 11 -20 30 -3 10 9 19 22 19
28 0 6 -5 3 -11 -6 -13 -24 -24 -23 -37 5 -6 12 -11 16 -11 9z"/>
<path d="M7075 4140 l3 -65 -19 27 c-40 55 -57 73 -64 66 -9 -8 5 -168 15
-168 4 0 6 30 3 68 l-4 67 23 -29 c62 -78 57 -76 57 -31 0 22 -4 60 -9 85 -8
41 -9 40 -5 -20z"/>
<path d="M6946 4068 c6 -67 24 -120 24 -71 0 53 -14 143 -22 143 -5 0 -6 -30
-2 -72z"/>
<path d="M6894 4058 l8 -63 -32 40 c-36 45 -56 60 -64 46 -9 -13 6 -161 15
-161 4 0 9 28 11 61 l3 61 34 -47 c21 -29 37 -43 43 -37 12 12 -1 162 -15 162
-6 0 -7 -23 -3 -62z"/>
<path d="M6714 4051 c-23 -10 -57 -22 -75 -26 -19 -4 -50 -14 -69 -23 -19 -8
-41 -14 -49 -13 -7 1 -20 -7 -28 -18 -8 -12 -23 -21 -34 -21 -13 0 -18 -5 -14
-12 4 -7 0 -5 -8 5 -8 9 -24 17 -36 17 -11 0 -21 5 -21 10 0 6 -9 10 -21 10
-11 0 -17 5 -14 10 3 6 -1 10 -9 10 -8 0 -18 -4 -21 -10 -9 -14 -21 -12 -39 6
-15 14 -16 14 -16 -5 0 -11 -9 -25 -20 -31 -11 -6 -20 -8 -20 -5 0 4 -12 -3
-26 -14 -15 -11 -30 -18 -35 -15 -5 3 -9 -2 -9 -10 0 -9 -5 -16 -11 -16 -5 0
-8 -4 -4 -10 3 -5 -14 -14 -37 -20 -89 -21 -93 -24 -90 -52 2 -14 -2 -29 -8
-33 -5 -3 -7 -12 -3 -18 15 -24 12 -37 -6 -25 -11 6 -16 19 -14 32 2 11 -2 29
-10 40 -11 15 -21 18 -58 12 -70 -10 -70 -11 -55 -99 8 -43 16 -80 19 -83 11
-11 97 20 118 42 l22 24 15 -21 c13 -19 15 -19 32 -4 19 17 37 5 24 -17 -4 -7
-3 -8 4 -4 7 4 12 3 12 -3 0 -6 -18 -15 -40 -21 -24 -6 -40 -17 -40 -25 0 -8
4 -15 8 -15 5 0 9 -13 9 -30 0 -40 -16 -37 -48 9 -23 33 -31 37 -58 33 -38 -5
-50 -21 -28 -37 14 -10 15 -21 7 -69 -5 -32 -15 -65 -21 -72 -18 -22 1 -33 39
-22 29 8 45 28 22 28 -11 0 -14 59 -4 84 7 19 16 10 57 -52 16 -24 33 -42 40
-39 6 2 15 23 20 48 14 79 17 87 31 92 10 4 13 1 9 -9 -3 -9 2 -14 15 -14 18
0 19 -5 15 -40 -5 -32 -2 -41 12 -46 10 -4 26 -2 36 4 13 9 19 8 23 -1 3 -9 8
-8 16 3 10 13 11 13 6 -2 -6 -21 30 -34 66 -23 20 6 19 4 -9 -22 -28 -25 -31
-31 -18 -44 8 -8 15 -29 17 -47 2 -30 5 -33 30 -30 15 3 25 1 22 -4 -8 -13
-49 -9 -70 7 -19 15 -19 15 1 8 17 -6 18 -4 8 9 -7 8 -10 18 -6 21 3 4 0 7 -8
8 -8 0 -26 2 -40 3 -21 1 -25 -2 -21 -18 3 -13 1 -17 -6 -12 -7 4 -12 18 -12
32 0 13 -4 24 -10 24 -5 0 -10 -6 -10 -14 0 -14 -67 -30 -120 -29 -14 0 -28
-4 -31 -9 -4 -6 -28 -10 -53 -10 -44 1 -46 0 -46 -28 0 -29 14 -48 24 -31 3 5
15 7 26 4 11 -3 28 -2 37 2 10 5 21 7 25 7 4 -1 44 7 89 17 78 18 115 19 104
1 -3 -5 5 -6 17 -2 14 3 19 2 14 -6 -4 -7 -15 -12 -24 -12 -10 0 -26 -6 -37
-12 -11 -7 -45 -13 -75 -13 -30 0 -58 -4 -62 -9 -3 -5 -20 -9 -37 -9 -25 0
-31 -5 -31 -21 0 -20 0 -20 -16 2 -19 28 -34 20 -34 -20 0 -25 2 -28 14 -19
10 8 16 9 21 1 4 -7 12 -7 26 0 15 9 19 7 19 -6 0 -15 2 -16 18 -2 9 9 39 19
66 23 27 4 55 13 63 20 7 8 20 12 29 8 15 -6 130 19 197 43 21 7 45 10 53 7
14 -5 16 1 17 44 0 12 3 20 8 18 4 -3 7 4 6 15 -1 12 -6 19 -14 16 -24 -10
-13 4 17 19 37 19 50 19 50 0 0 -8 -5 -15 -11 -15 -5 0 -7 5 -4 10 3 6 1 10
-4 10 -16 0 -13 -16 5 -34 8 -9 11 -16 5 -16 -6 0 -11 -4 -11 -10 0 -5 7 -10
15 -10 8 0 15 5 15 11 0 6 7 18 16 27 15 15 16 14 9 -7 -5 -16 -4 -21 4 -17 6
4 11 3 11 -3 0 -5 31 1 69 14 38 13 71 21 74 19 2 -3 10 2 17 11 7 8 19 15 26
15 8 0 14 8 14 18 0 13 2 14 9 4 6 -11 16 -10 52 4 58 23 69 32 69 59 l0 23
-40 -19 c-22 -11 -55 -22 -73 -26 -17 -3 -36 -9 -42 -13 -12 -10 -97 -34 -107
-32 -5 1 -8 -3 -8 -9 0 -6 -8 -3 -17 7 -11 11 -18 13 -21 5 -4 -13 -32 -15
-32 -3 0 5 25 16 55 26 50 16 81 36 55 36 -7 0 -9 8 -5 19 5 16 1 19 -22 18
-15 -1 -30 -4 -33 -7 -5 -7 -123 -50 -134 -50 -4 0 -4 5 0 11 3 6 -5 4 -19 -6
-20 -13 -27 -13 -33 -3 -4 7 -3 10 1 5 14 -12 47 24 35 38 -7 9 -6 16 5 25 8
7 15 19 15 26 0 8 6 14 13 14 23 0 60 47 54 70 -3 11 -1 23 4 26 5 3 9 -11 9
-30 0 -31 3 -36 24 -36 28 0 56 33 56 65 -1 19 -2 18 -21 -5 l-21 -25 7 50 c4
28 14 58 23 68 9 11 11 17 4 17 -7 0 -12 8 -12 18 0 10 -3 22 -7 25 -10 10
-33 -13 -33 -33 0 -10 -7 -20 -15 -24 -8 -3 -15 -12 -15 -21 0 -12 -4 -14 -19
-5 -13 7 -28 7 -45 0 -23 -8 -26 -7 -26 11 0 18 2 20 16 9 13 -11 16 -10 21
10 6 22 7 23 14 4 7 -17 8 -16 8 6 1 14 8 38 16 54 12 23 13 40 5 89 -10 67
-5 80 31 75 21 -3 25 -9 29 -60 5 -60 12 -74 29 -63 10 6 9 31 -4 117 -4 23 1
31 24 43 28 14 29 14 35 -17 3 -17 6 -45 6 -62 0 -49 11 -58 51 -45 19 6 41
18 49 27 13 13 12 14 -10 9 -14 -2 -33 -8 -42 -12 -15 -6 -18 -2 -18 23 0 22
6 32 20 37 29 9 25 28 -5 21 -21 -5 -25 -3 -25 17 0 17 9 26 35 36 19 7 35 17
35 22 0 14 -20 11 -66 -10z m-547 -193 c-3 -8 -6 -5 -6 6 -1 11 2 17 5 13 3
-3 4 -12 1 -19z m333 12 c-8 -5 -22 -9 -30 -9 -10 0 -8 3 5 9 27 12 43 12 25
0z m-133 -16 c-3 -3 -12 -4 -19 -1 -8 3 -5 6 6 6 11 1 17 -2 13 -5z m-422 -63
c6 -11 -32 -41 -52 -41 -17 0 -17 37 0 43 20 9 45 8 52 -2z m15 -80 c0 -20
-18 -31 -51 -31 -12 0 -19 7 -19 18 0 25 9 32 42 32 21 0 28 -5 28 -19z m220
-37 c0 -2 -12 -4 -26 -4 -14 0 -23 4 -20 9 6 8 46 4 46 -5z m125 -15 c-21 -5
-43 -15 -47 -22 -6 -9 -8 -9 -8 1 0 15 36 31 70 30 17 0 12 -3 -15 -9z m-78
-71 c-3 -8 -6 -5 -6 6 -1 11 2 17 5 13 3 -3 4 -12 1 -19z m152 -112 c0 -6 -3
-6 -5 1 -4 8 -11 7 -24 -4 -10 -9 -17 -20 -14 -25 3 -4 0 -8 -6 -8 -7 0 -10 3
-8 8 3 4 11 22 19 40 12 30 15 31 26 15 7 -9 13 -22 12 -27z m-49 -65 c0 -5
-9 -7 -20 -4 -11 3 -20 7 -20 9 0 2 9 4 20 4 11 0 20 -4 20 -9z m220 -25 c0
-3 -4 -8 -10 -11 -5 -3 -10 -1 -10 4 0 6 5 11 10 11 6 0 10 -2 10 -4z"/>
<path d="M7308 4003 c4 -65 8 -81 15 -72 7 7 -5 139 -12 139 -4 0 -5 -30 -3
-67z"/>
<path d="M7238 4019 c-16 -11 -28 -28 -28 -37 0 -15 2 -15 11 -2 7 11 9 -2 7
-47 -3 -35 -1 -63 4 -63 4 0 8 13 8 29 0 50 12 121 21 121 5 0 9 -28 9 -62 0
-79 6 -72 13 15 5 74 0 80 -45 46z"/>
<path d="M7176 3983 c-4 -5 -12 -8 -18 -8 -35 0 -73 -120 -49 -155 9 -12 14
-13 28 -2 10 6 28 16 39 21 12 5 24 19 27 31 5 18 3 19 -10 8 -14 -11 -15 -6
-8 50 7 61 6 69 -9 55z m-8 -78 c-9 -71 -48 -101 -48 -35 0 42 17 80 36 80 14
0 16 -8 12 -45z"/>
<path d="M7031 3911 c-44 -44 -49 -151 -6 -151 20 0 55 36 55 56 0 10 -8 6
-24 -13 -22 -25 -25 -26 -31 -11 -5 12 3 29 24 53 34 39 38 57 17 74 -12 10
-19 8 -35 -8z m29 -20 c0 -5 -9 -19 -20 -32 -21 -26 -27 -11 -10 22 11 19 30
26 30 10z"/>
<path d="M4278 3883 c7 -3 16 -2 19 1 4 3 -2 6 -13 5 -11 0 -14 -3 -6 -6z"/>
<path d="M6856 3883 c-4 -5 -24 -13 -44 -18 -85 -24 -119 -166 -51 -208 24
-15 77 10 95 45 22 42 10 46 -21 9 -33 -38 -52 -39 -66 -4 -28 73 47 177 81
113 11 -20 50 -28 50 -10 0 6 3 10 8 10 4 0 5 -25 4 -55 -5 -72 14 -72 23 0 5
41 13 62 32 79 18 17 22 26 13 31 -6 4 -17 2 -23 -4 -6 -6 -19 -11 -28 -11
-10 0 -25 -10 -33 -22 -16 -22 -16 -22 -16 15 0 35 -8 46 -24 30z"/>
<path d="M4333 3873 c9 -2 25 -2 35 0 9 3 1 5 -18 5 -19 0 -27 -2 -17 -5z"/>
<path d="M7362 3818 c-50 -113 -57 -149 -57 -283 0 -90 4 -137 13 -153 21 -37
25 -19 8 39 -22 73 -20 180 5 269 27 98 38 108 32 27 -7 -78 11 -186 38 -239
30 -59 32 -41 4 28 -30 74 -40 174 -27 274 5 41 8 76 7 78 -2 2 -12 -16 -23
-40z"/>
<path d="M7466 3814 c-4 -27 -7 -62 -7 -79 -1 -34 18 -129 20 -103 0 10 9 23
20 29 16 10 17 21 13 83 -3 39 -8 73 -12 76 -4 3 -11 14 -17 24 -9 16 -12 12
-17 -30z m34 -67 c0 -57 -13 -75 -29 -41 -9 20 -9 35 -1 60 15 44 30 34 30
-19z"/>
<path d="M5580 3733 c0 -16 5 -47 10 -70 6 -24 14 -71 19 -105 28 -184 93
-557 102 -586 22 -68 20 -20 -7 168 -32 224 -91 581 -100 604 -10 26 -24 18
-24 -11z"/>
<path d="M4733 3557 c0 -9 10 -12 29 -9 33 5 33 7 -3 15 -17 5 -26 2 -26 -6z"/>
<path d="M4465 3545 c-25 -12 -26 -14 -5 -9 14 4 29 10 35 15 12 12 5 11 -30
-6z"/>
<path d="M6770 3537 c-25 -12 -52 -22 -60 -22 -9 0 -16 -11 -18 -27 -4 -35 9
-36 82 -2 46 21 56 30 56 50 0 29 -3 29 -60 1z"/>
<path d="M4972 3501 c-11 -7 -11 -9 2 -14 10 -4 16 -1 16 8 0 17 -1 17 -18 6z"/>
<path d="M5270 3420 c0 -5 4 -10 9 -10 5 0 11 -7 13 -15 2 -10 7 -7 15 10 10
23 9 25 -13 25 -13 0 -24 -4 -24 -10z"/>
<path d="M5075 3383 c10 -16 24 -37 32 -48 7 -11 13 -27 13 -37 0 -10 5 -18
10 -18 6 0 28 -27 49 -60 36 -58 38 -60 54 -42 18 19 23 37 9 28 -11 -6 -122
165 -122 188 0 11 -9 16 -31 16 l-31 0 17 -27z"/>
<path d="M4478 3388 c7 -9 19 -35 26 -59 13 -44 13 -44 21 -16 8 30 -16 76
-46 85 -12 4 -12 3 -1 -10z"/>
<path d="M4936 3373 c10 -16 42 -66 72 -113 64 -102 69 -107 83 -93 7 7 -7 38
-50 105 -34 52 -61 102 -61 111 0 12 -9 17 -31 17 l-31 0 18 -27z"/>
<path d="M4725 3368 c17 -76 35 -173 35 -194 0 -18 5 -24 21 -24 11 0 18 4 15
8 -2 4 -12 50 -21 102 -20 120 -23 130 -41 130 -10 0 -13 -7 -9 -22z"/>
<path d="M6480 3329 c0 -5 5 -7 10 -4 6 3 10 8 10 11 0 2 -4 4 -10 4 -5 0 -10
-5 -10 -11z"/>
<path d="M6935 3297 c-11 -8 -33 -17 -50 -21 -58 -14 -125 -50 -125 -68 0 -36
15 -32 171 40 29 14 35 21 30 40 -5 20 -8 21 -26 9z m11 -34 c-10 -10 -19 5
-10 18 6 11 8 11 12 0 2 -7 1 -15 -2 -18z"/>
<path d="M6458 3256 c-10 -7 -14 -17 -10 -21 4 -5 -1 -5 -10 -2 -11 4 -18 1
-18 -6 0 -8 -3 -7 -9 2 -8 12 -18 13 -61 3 -29 -7 -65 -21 -81 -33 -27 -19
-129 -51 -153 -48 -6 1 -24 -3 -39 -9 -16 -7 -33 -12 -38 -12 -5 0 -9 -5 -9
-10 0 -7 -7 -7 -21 1 -17 9 -24 8 -31 -2 -7 -11 -11 -11 -15 -1 -2 6 -9 12
-14 12 -11 0 -12 -41 0 -59 7 -11 11 -10 20 5 9 17 12 17 21 4 9 -13 11 -13
20 0 8 13 10 12 10 -2 0 -18 15 -25 22 -10 3 7 105 34 178 46 14 3 52 12 85
21 33 9 74 19 90 22 17 3 38 9 47 14 9 5 25 9 36 9 34 0 62 31 55 63 -4 19
-10 26 -19 23 -8 -3 -21 -9 -31 -13 -11 -4 -14 -3 -9 5 9 15 5 15 -16 -2z
m-111 -52 c-3 -3 -12 -4 -19 -1 -8 3 -5 6 6 6 11 1 17 -2 13 -5z"/>
<path d="M6699 3211 c-14 -5 -35 -14 -48 -20 -13 -7 -43 -13 -67 -13 -49 0
-59 -8 -50 -44 6 -23 10 -24 44 -18 20 4 39 10 42 14 4 6 23 12 70 25 39 10
50 19 50 41 0 26 -2 26 -41 15z"/>
<path d="M4602 3178 c6 -18 28 -21 28 -4 0 9 -7 16 -16 16 -9 0 -14 -5 -12
-12z"/>
<path d="M4905 3170 c-10 -11 -13 -20 -8 -20 13 0 38 29 31 35 -3 3 -13 -4
-23 -15z"/>
<path d="M6433 3146 c4 -9 -23 -22 -96 -44 -56 -17 -111 -32 -122 -34 -22 -4
-30 -35 -16 -58 8 -12 13 -12 30 4 11 10 24 15 29 12 4 -3 20 1 35 9 14 7 28
11 31 8 2 -3 31 4 63 15 32 11 74 24 93 29 28 7 35 14 35 33 -1 17 -6 25 -18
24 -9 -1 -17 1 -17 5 0 4 -12 8 -26 9 -18 1 -25 -2 -21 -12z"/>
<path d="M6962 3118 c5 -15 28 -18 29 -3 0 6 -7 12 -17 13 -10 3 -15 -1 -12
-10z"/>
<path d="M5330 3100 c-13 -8 -13 -10 2 -10 9 0 20 5 23 10 8 13 -5 13 -25 0z"/>
<path d="M5168 3083 c7 -3 16 -2 19 1 4 3 -2 6 -13 5 -11 0 -14 -3 -6 -6z"/>
<path d="M6965 3080 c-13 -6 -15 -9 -5 -9 8 0 22 4 30 9 18 12 2 12 -25 0z"/>
<path d="M6848 3073 c7 -3 16 -2 19 1 4 3 -2 6 -13 5 -11 0 -14 -3 -6 -6z"/>
<path d="M5328 3063 c6 -2 18 -2 25 0 6 3 1 5 -13 5 -14 0 -19 -2 -12 -5z"/>
<path d="M6918 3063 c7 -3 16 -2 19 1 4 3 -2 6 -13 5 -11 0 -14 -3 -6 -6z"/>
<path d="M6085 3052 c-11 -2 -31 -12 -45 -22 -21 -15 -27 -16 -38 -4 -20 22
-43 5 -40 -30 2 -25 7 -30 23 -28 11 2 29 5 40 6 11 1 36 6 55 10 40 8 72 14
83 15 9 1 9 23 -1 37 -9 14 -51 23 -77 16z"/>
<path d="M6826 3053 c-3 -3 -3 -10 0 -14 7 -12 34 -11 34 0 0 11 -26 22 -34
14z"/>
<path d="M5178 3043 c7 -3 16 -2 19 1 4 3 -2 6 -13 5 -11 0 -14 -3 -6 -6z"/>
<path d="M5343 3033 c9 -2 23 -2 30 0 6 3 -1 5 -18 5 -16 0 -22 -2 -12 -5z"/>
<path d="M6780 2990 c8 -5 22 -10 30 -10 13 0 13 1 0 10 -8 5 -22 10 -30 10
-13 0 -13 -1 0 -10z"/>
<path d="M5105 2710 l-30 -8 27 -1 c15 0 30 4 33 9 3 6 5 9 3 9 -2 -1 -16 -5
-33 -9z"/>
<path d="M6688 2593 c7 -3 16 -2 19 1 4 3 -2 6 -13 5 -11 0 -14 -3 -6 -6z"/>
<path d="M4717 2523 c-12 -11 -8 -40 7 -52 11 -9 17 -9 27 2 8 7 23 17 34 22
19 8 19 8 1 13 -15 3 -16 6 -5 13 10 6 3 9 -22 9 -20 0 -39 -3 -42 -7z"/>
<path d="M4908 2513 c6 -2 18 -2 25 0 6 3 1 5 -13 5 -14 0 -19 -2 -12 -5z"/>
<path d="M8480 4019 c0 -24 4 -30 18 -27 10 2 18 14 20 31 3 22 -1 27 -17 27
-17 0 -21 -6 -21 -31z"/>
<path d="M8486 3953 c-3 -4 -6 -19 -6 -35 0 -21 5 -28 20 -28 15 0 20 7 20 29
0 27 -20 47 -34 34z"/>
<path d="M9290 4015 c0 -37 22 -49 34 -19 9 23 -2 54 -20 54 -9 0 -14 -11 -14
-35z"/>
<path d="M9570 4020 c0 -19 5 -30 14 -30 17 0 28 24 20 45 -11 27 -34 17 -34
-15z"/>
<path d="M8710 3660 c0 -62 3 -80 14 -80 19 0 26 22 26 80 0 58 -7 80 -26 80
-11 0 -14 -18 -14 -80z"/>
<path d="M9190 3710 c0 -25 4 -31 18 -28 11 2 17 12 17 28 0 16 -6 26 -17 28
-14 3 -18 -3 -18 -28z"/>
<path d="M9820 3710 c0 -25 4 -31 18 -28 11 2 17 12 17 28 0 16 -6 26 -17 28
-14 3 -18 -3 -18 -28z"/>
<path d="M9980 3694 c0 -16 -3 -39 -6 -51 -5 -17 -2 -23 10 -23 15 0 16 7 10
48 -8 56 -14 67 -14 26z"/>
<path d="M10390 2900 c0 -5 5 -10 11 -10 5 0 7 5 4 10 -3 6 -8 10 -11 10 -2 0
-4 -4 -4 -10z"/>
<path d="M10280 2860 c0 -5 7 -10 15 -10 8 0 31 -11 51 -25 43 -29 57 -31 52
-7 -2 9 -12 18 -23 18 -11 1 -37 9 -57 18 -22 9 -38 12 -38 6z"/>
<path d="M10396 2849 c19 -26 34 -29 34 -7 0 6 -3 8 -7 5 -3 -4 -15 1 -27 10
-20 18 -20 18 0 -8z"/>
<path d="M3976 886 c13 -52 -42 -97 -91 -74 -14 6 -25 15 -25 20 0 5 -4 6 -10
3 -16 -10 -12 -94 6 -125 22 -37 64 -60 109 -60 133 0 179 162 66 237 -45 30
-63 30 -55 -1z"/>
<path d="M4377 878 c4 -30 1 -38 -22 -56 -34 -27 -46 -27 -78 -2 l-25 20 -6
-23 c-10 -39 -6 -71 14 -104 37 -62 125 -82 181 -42 95 67 69 207 -43 234 -26
7 -27 6 -21 -27z"/>
<path d="M5104 818 c-50 -24 -60 -114 -18 -153 60 -56 144 -16 144 67 -1 49
-15 73 -54 88 -33 12 -44 12 -72 -2z"/>
<path d="M5654 820 c-57 -23 -71 -99 -28 -149 43 -52 113 -39 140 26 20 46 4
97 -36 118 -32 17 -45 18 -76 5z"/>
<path d="M6246 809 c-47 -37 -35 -49 49 -49 53 0 75 4 75 13 0 18 -12 32 -37
46 -32 16 -57 14 -87 -10z"/>
</g>
</svg>
