<?xml version="1.0" standalone="no"?>
<!DOCTYPE svg PUBLIC "-//W3C//DTD SVG 20010904//EN"
 "http://www.w3.org/TR/2001/REC-SVG-20010904/DTD/svg10.dtd">
<svg version="1.0" xmlns="http://www.w3.org/2000/svg"
 width="1080.000000pt" height="1080.000000pt" viewBox="0 0 1080.000000 1080.000000"
 preserveAspectRatio="xMidYMid meet">

<g transform="translate(0.000000,1080.000000) scale(0.100000,-0.100000)"
fill="#000000" stroke="none">
<path d="M7060 10776 c-19 -13 -46 -35 -59 -50 -14 -14 -28 -26 -32 -26 -4 0
-44 -25 -89 -55 -45 -30 -77 -55 -71 -55 23 0 8 -17 -64 -70 -40 -30 -79 -64
-85 -75 -11 -18 -10 -17 12 3 13 12 27 22 31 22 9 0 -54 -87 -87 -121 -26 -27
-35 -46 -16 -34 5 3 -8 -20 -29 -52 -42 -64 -114 -194 -160 -288 -26 -54 -68
-179 -102 -305 -8 -31 -12 -155 -12 -395 l-1 -350 39 -70 39 -70 16 125 c15
121 16 125 40 128 14 2 39 8 56 13 34 11 205 -6 237 -22 29 -16 22 -62 -14
-88 -17 -12 -37 -20 -44 -17 -8 3 -17 1 -21 -5 -3 -6 -12 -8 -19 -5 -8 3 -17
-4 -20 -15 -4 -10 -11 -17 -16 -14 -5 4 -9 -3 -9 -13 0 -23 -22 -44 -41 -39
-8 2 -11 2 -7 0 16 -10 -6 -33 -37 -39 -26 -5 -37 -13 -46 -37 -6 -18 -11 -37
-10 -43 1 -6 -6 -17 -14 -24 -29 -24 -18 -42 20 -34 27 5 34 3 30 -7 -8 -20
54 -84 95 -99 19 -7 39 -17 45 -22 15 -13 59 -9 83 7 18 13 29 14 62 5 22 -6
45 -8 50 -5 5 3 15 -4 24 -16 l14 -21 49 23 c26 13 63 36 81 51 18 16 37 28
42 28 6 0 10 6 10 13 0 6 12 34 26 61 14 26 27 69 29 95 3 26 11 63 20 83 8
20 12 44 9 52 -3 9 -2 16 3 16 14 0 33 -40 35 -72 1 -16 6 -28 11 -28 4 0 6
-4 3 -9 -4 -5 0 -11 6 -14 9 -3 10 -8 3 -18 -6 -8 -12 -27 -13 -44 -2 -16 -10
-74 -17 -127 -8 -56 -11 -107 -6 -120 5 -13 3 -31 -5 -48 -10 -20 -11 -35 -3
-65 9 -32 8 -41 -4 -50 -8 -6 -22 -27 -30 -47 -19 -45 -56 -70 -99 -67 -64 4
-87 -1 -119 -28 l-32 -28 6 43 c5 25 25 68 52 108 43 62 57 104 35 104 -11 0
-86 -53 -143 -101 -21 -18 -48 -50 -60 -71 -12 -21 -27 -37 -32 -35 -10 2 -24
-8 -65 -45 -15 -14 -34 -17 -89 -14 -38 2 -74 7 -80 10 -17 11 -13 56 9 121
11 32 20 74 20 94 0 42 -23 81 -48 81 -9 0 -30 9 -47 20 -42 28 -63 26 -58 -4
4 -19 -7 -36 -46 -77 -61 -64 -63 -85 -3 -33 24 20 46 34 49 31 13 -13 -103
-127 -129 -127 -8 0 -24 -10 -36 -22 -32 -35 -50 -48 -65 -48 -21 0 -62 -58
-81 -113 -9 -27 -36 -83 -61 -126 -25 -43 -45 -87 -46 -97 0 -10 -3 -14 -5 -7
-3 6 7 62 21 123 29 121 28 171 -4 245 -20 46 -34 59 -76 74 -26 10 -28 9 -13
-2 27 -21 26 -44 -9 -152 -18 -55 -40 -129 -49 -165 -10 -36 -24 -75 -32 -87
-8 -13 -14 -55 -16 -100 -1 -43 -5 -83 -8 -88 -2 -6 -6 -32 -7 -60 -5 -158
-20 -248 -47 -289 -12 -18 -14 -18 -20 -3 -3 9 -10 17 -15 17 -17 0 -49 -44
-49 -68 0 -19 49 -125 85 -182 5 -8 11 -26 13 -39 5 -41 79 -175 116 -210 20
-19 36 -39 36 -44 0 -6 16 -29 35 -53 19 -23 35 -51 35 -61 1 -25 24 -53 49
-58 34 -6 29 71 -8 132 -34 56 -141 322 -141 351 0 11 15 82 34 158 18 77 38
165 44 196 7 35 25 79 48 115 21 32 47 85 59 119 27 79 49 112 81 120 30 8 44
-7 44 -46 0 -35 -73 -246 -93 -268 -9 -10 -17 -24 -17 -30 0 -7 -7 -12 -15
-12 -8 0 -24 -9 -35 -20 -16 -16 -19 -28 -14 -58 3 -20 6 -42 6 -48 2 -20 -25
-169 -32 -174 -3 -3 -21 -29 -39 -59 -40 -66 -38 -85 20 -184 22 -39 38 -76
35 -83 -3 -7 2 -18 10 -24 8 -7 14 -20 14 -30 0 -9 9 -29 20 -43 11 -14 20
-33 20 -42 0 -9 11 -28 25 -43 14 -15 25 -32 25 -39 0 -7 6 -13 13 -14 6 -1 1
-4 -13 -8 -15 -4 -26 -15 -28 -29 -2 -12 -10 -22 -17 -22 -16 0 -16 3 24 -97
12 -28 21 -63 21 -77 0 -13 6 -31 13 -38 25 -29 55 -95 67 -153 8 -33 18 -66
23 -73 6 -8 13 -53 15 -100 4 -88 15 -127 32 -117 11 7 7 70 -4 97 -8 18 -11
162 -8 313 2 70 4 77 16 60 7 -11 16 -36 19 -55 7 -47 11 -63 19 -76 4 -6 10
-46 12 -90 3 -43 10 -80 15 -82 6 -2 13 -20 16 -40 9 -54 57 -206 66 -210 18
-7 -17 -42 -43 -42 -17 0 -28 -6 -30 -17 -6 -30 4 -73 16 -73 6 0 22 -23 35
-50 12 -28 27 -47 32 -44 5 3 12 -3 16 -13 4 -10 11 -21 16 -24 11 -7 16 -40
18 -113 1 -37 -3 -53 -16 -62 -10 -7 -15 -20 -12 -29 4 -8 2 -15 -3 -15 -12 0
-22 -34 -14 -54 3 -9 13 -16 22 -16 8 0 13 -3 9 -6 -3 -3 5 -16 19 -28 23 -20
23 -22 8 -53 -9 -18 -25 -35 -35 -38 -10 -4 -19 -10 -19 -15 0 -5 -15 -26 -34
-46 -56 -61 -65 -72 -58 -79 4 -4 -1 -11 -10 -16 -14 -7 -16 -30 -17 -150 -2
-132 -6 -163 -41 -299 -5 -19 -10 -56 -10 -81 0 -60 -20 -159 -32 -159 -5 0
-6 -4 -3 -10 9 -14 -15 -171 -25 -165 -13 8 -32 -56 -36 -120 -1 -34 -8 -73
-13 -89 -6 -15 -11 -40 -11 -56 0 -16 -7 -35 -15 -44 -8 -8 -15 -24 -15 -35 0
-12 -4 -30 -10 -41 -5 -11 -14 -29 -20 -40 -5 -11 -10 -31 -10 -45 0 -14 -4
-25 -10 -25 -5 0 -10 -9 -10 -20 0 -11 -4 -20 -9 -20 -5 0 -11 -12 -13 -27 -3
-23 -9 -29 -40 -34 -36 -6 -52 4 -25 14 10 4 10 6 0 6 -15 1 -18 31 -4 31 5 0
13 14 16 32 4 18 11 40 16 50 5 10 13 26 18 37 13 25 55 155 69 211 51 205
160 914 172 1120 4 69 13 153 19 188 10 52 9 92 -9 245 -24 217 -33 263 -70
370 -54 157 -169 427 -181 427 -11 0 -29 -60 -35 -119 -5 -52 -11 -70 -43
-141 -7 -15 -11 -71 -9 -145 3 -150 -2 -278 -13 -285 -4 -3 -10 -50 -13 -105
-6 -111 -17 -161 -35 -158 -6 2 -11 -6 -11 -17 0 -11 -4 -20 -10 -20 -6 0 -6
-9 0 -24 5 -14 6 -40 3 -59 -3 -23 1 -47 11 -68 9 -17 16 -52 16 -76 0 -48 18
-131 32 -149 11 -15 27 -155 34 -298 3 -61 9 -117 14 -125 9 -19 25 -102 21
-116 -7 -26 -8 -131 -1 -140 5 -5 9 -13 9 -17 1 -5 1 -9 1 -10 0 -2 1 -39 1
-83 2 -157 -1 -216 -10 -211 -5 4 -12 -7 -16 -23 -3 -16 -13 -32 -22 -35 -12
-5 -13 -9 -4 -20 9 -10 8 -15 -3 -19 -11 -5 -14 -20 -12 -66 3 -44 0 -61 -10
-65 -8 -3 -14 -12 -14 -20 0 -16 -34 -31 -50 -21 -6 4 -10 -9 -10 -33 0 -31
-4 -41 -20 -45 -13 -3 -20 -14 -20 -29 0 -21 -4 -23 -40 -20 -37 4 -40 2 -40
-22 0 -16 -6 -26 -15 -26 -8 0 -15 -5 -15 -11 0 -6 7 -8 16 -5 14 5 15 4 5 -8
-9 -11 -19 -12 -36 -6 -18 7 -25 5 -29 -6 -9 -23 -7 -36 4 -29 6 3 10 2 10 -4
0 -5 -8 -12 -17 -14 -17 -4 -17 -5 0 -6 9 0 17 -5 17 -11 0 -16 -50 -7 -51 10
0 11 -2 11 -6 2 -3 -7 -16 -17 -29 -22 -20 -8 -24 -16 -24 -52 -1 -28 -3 -38
-9 -28 -4 8 -9 58 -9 110 -3 307 -4 313 -18 85 -19 -330 -29 -417 -83 -690
-33 -164 -54 -300 -61 -395 -13 -178 -19 -222 -31 -214 -5 3 -16 -2 -25 -10
-8 -9 -26 -16 -40 -16 -27 0 -40 33 -30 75 8 32 4 31 -31 -3 -35 -35 -112 -65
-230 -89 -74 -15 -139 -18 -415 -18 -273 0 -318 -2 -275 -12 29 -6 80 -15 115
-18 34 -4 62 -11 62 -16 0 -5 -8 -9 -19 -9 -14 0 -20 -10 -25 -46 -10 -76 -8
-78 38 -31 119 122 339 93 400 -53 8 -19 17 -56 21 -83 l7 -47 37 6 c20 4 52
13 72 21 35 14 36 15 29 53 -4 22 -24 67 -44 100 -20 34 -34 66 -30 71 3 5 21
9 39 9 46 0 37 30 -9 31 -23 1 -14 5 37 19 84 22 121 37 170 67 l38 24 -2 -58
c-1 -32 -1 -78 0 -103 l2 -45 22 28 c20 23 30 27 75 27 29 0 52 -2 52 -5 0 -6
-66 -113 -107 -174 -38 -57 -31 -85 51 -207 l75 -109 -57 -3 c-51 -3 -59 -1
-78 23 l-21 27 -6 -24 c-4 -12 -7 -38 -7 -56 0 -18 -5 -43 -12 -55 -15 -28
-19 -65 -8 -72 10 -6 -4 -71 -20 -90 -33 -40 -250 -115 -329 -115 -62 0 -71
16 -22 36 42 17 43 17 21 29 -23 12 -22 13 14 25 20 6 75 15 122 20 46 4 87
10 91 14 5 5 -251 12 -322 9 -126 -6 -618 -2 -642 6 -38 11 -93 48 -93 62 0 6
6 7 13 3 7 -5 6 0 -3 11 -14 17 -13 18 5 11 18 -7 18 -5 -2 14 -13 11 -26 32
-29 46 -6 24 -10 26 -45 20 -31 -5 -43 -2 -59 14 -11 11 -20 24 -20 29 0 5
-10 11 -22 13 -18 2 -28 24 -65 132 -23 72 -44 139 -46 150 -2 12 -9 34 -15
49 -7 16 -12 40 -12 53 0 14 -12 45 -26 70 l-26 44 56 0 c31 0 56 -2 56 -4 0
-3 21 -69 46 -148 25 -79 51 -162 58 -186 l11 -43 45 146 c42 140 60 180 60
136 0 -12 7 -21 15 -21 17 0 39 72 30 100 -6 18 -1 20 34 20 23 0 41 -3 41 -6
0 -4 -11 -38 -25 -76 -14 -38 -25 -75 -25 -83 0 -15 50 -35 86 -35 24 0 24 2
24 104 0 126 -9 148 -82 188 -29 17 -61 37 -70 46 -21 17 -25 47 -5 36 6 -4 4
2 -5 13 -35 39 -15 89 47 121 11 5 47 12 80 13 33 2 66 10 73 17 7 6 19 12 25
12 40 2 176 28 147 29 -42 1 -184 -23 -223 -38 -43 -17 -92 -13 -205 14 -57
14 -136 32 -175 40 -176 38 -475 98 -612 125 -236 45 -301 60 -347 76 -24 9
-101 31 -172 49 -70 19 -138 42 -150 52 -11 10 -46 41 -76 70 -121 114 -303
266 -333 276 -9 4 -17 11 -17 17 0 5 -7 10 -15 10 -8 0 -15 4 -15 9 0 17 -335
237 -510 335 -77 43 -281 143 -365 179 -117 50 -214 87 -225 87 -7 0 -26 6
-43 14 -169 72 -477 134 -709 143 l-148 6 0 -1667 c0 -916 2 -1666 4 -1666 3
0 39 16 82 35 92 42 149 46 197 13 79 -56 100 -79 103 -116 2 -20 11 -43 21
-49 15 -12 14 -13 -9 -13 -24 0 -26 -3 -32 -77 -5 -58 -4 -78 6 -84 17 -11
111 1 120 15 11 16 10 56 -2 56 -5 0 -10 7 -10 15 0 8 5 15 10 15 6 0 10 -4
10 -10 0 -5 7 -10 15 -10 19 0 19 -11 0 -56 -8 -19 -10 -32 -5 -29 5 3 18 0
29 -7 17 -10 23 -10 33 1 11 12 10 13 -5 8 -14 -5 -18 -3 -15 11 5 26 53 27
77 3 l21 -21 -33 0 c-23 0 -28 -3 -17 -10 8 -5 11 -12 7 -16 -4 -5 19 -20 51
-35 60 -27 132 -99 132 -132 0 -35 -81 -34 -226 3 -42 11 -139 29 -215 40 -77
11 -181 29 -231 40 -51 11 -98 20 -105 20 -10 0 -13 -20 -13 -75 l0 -75 1694
0 1693 0 7 48 c18 145 22 155 75 209 50 51 51 55 51 111 0 45 5 65 21 83 11
13 29 34 39 46 15 17 17 29 11 45 -10 28 -4 95 12 126 14 29 44 26 68 -8 15
-21 18 -51 22 -177 2 -85 8 -157 14 -165 6 -7 13 -26 16 -43 10 -59 18 -88 29
-109 6 -12 15 -37 19 -56 4 -19 12 -51 16 -70 l9 -35 3133 -3 3132 -2 -2 117
c-2 101 1 125 19 164 11 26 25 50 31 53 21 13 12 36 -14 36 -73 0 -128 55
-128 126 0 74 68 134 133 117 19 -5 25 5 21 31 -1 4 4 14 10 22 6 8 8 14 3 14
-5 0 2 7 14 16 13 9 30 13 38 10 9 -3 25 1 37 9 12 8 26 15 32 15 13 0 45 -56
45 -80 0 -11 -8 -24 -17 -29 -17 -10 -17 -10 0 -11 15 0 17 -12 17 -115 0
-109 -1 -115 -20 -115 -29 0 -37 31 -33 133 2 48 1 87 -1 87 -1 0 -13 -8 -24
-18 -16 -14 -23 -34 -26 -76 -2 -31 -12 -68 -21 -82 -15 -24 -15 -24 4 -12 17
10 23 9 41 -11 11 -13 20 -28 20 -33 0 -4 9 -8 19 -8 11 0 21 -3 23 -7 2 -5
26 -20 54 -36 39 -20 66 -27 107 -27 52 0 104 14 117 32 6 7 135 23 188 22 17
0 32 3 32 8 0 5 5 6 10 3 7 -4 10 266 10 804 l0 810 -22 38 c-11 21 -40 58
-63 83 -60 64 -153 194 -161 224 -14 57 38 23 203 -131 19 -18 37 -33 39 -33
2 0 4 116 4 258 l0 257 -20 -30 c-21 -32 -90 -64 -90 -42 0 7 -11 0 -23 -14
-39 -47 -72 -91 -76 -103 -2 -6 -16 -27 -31 -46 -26 -33 -105 -144 -193 -272
-22 -32 -41 -58 -43 -58 -8 0 -3 17 11 35 8 11 53 79 101 150 48 72 92 137 99
145 19 22 115 180 115 189 0 13 49 102 65 118 9 8 23 29 32 46 8 18 24 40 34
50 18 17 19 70 19 1771 l0 1753 -42 12 c-24 7 -52 16 -63 21 -11 5 -39 14 -63
20 -26 7 -58 26 -83 49 -21 21 -49 41 -62 44 -12 3 -58 15 -101 28 -64 18 -85
20 -108 11 -25 -9 -28 -9 -18 4 11 12 6 14 -25 14 -32 0 -36 2 -25 15 17 20
-1 20 -40 0 -25 -13 -29 -13 -34 0 -3 8 -14 15 -24 15 -20 0 -49 26 -40 35 3
3 52 6 109 7 85 1 115 -3 164 -22 85 -31 120 -41 109 -31 -5 5 -43 36 -84 68
-41 33 -109 97 -150 143 -41 47 -101 109 -132 140 -31 30 -82 93 -112 140 -30
47 -64 97 -75 111 -11 14 -23 38 -26 52 -4 15 -12 27 -17 27 -6 0 -7 7 -4 16
3 9 -1 25 -9 37 -8 12 -15 29 -15 38 0 9 -9 28 -20 42 -11 14 -20 35 -20 46 0
12 -8 38 -19 59 -38 74 -115 332 -140 467 -5 22 -13 59 -20 83 -7 23 -9 48 -5
55 16 27 -6 -1 -43 -55 -32 -48 -87 -100 -164 -157 -18 -13 -19 -11 -19 26 0
41 30 98 60 114 8 4 32 11 52 14 33 5 42 13 73 66 58 100 68 152 63 324 -5
129 -9 157 -27 194 -12 23 -20 50 -18 59 8 32 45 -71 58 -157 7 -48 10 -132 7
-197 -3 -63 -1 -111 3 -108 5 3 9 0 9 -6 0 -6 5 -8 10 -5 6 3 10 17 10 30 0
28 20 75 31 75 4 0 10 -10 13 -22 3 -13 3 42 0 122 -2 80 -7 157 -10 173 -9
41 10 33 31 -13 10 -22 20 -38 22 -36 6 5 -28 86 -92 221 -52 110 -56 123 -51
170 4 27 8 78 11 113 3 35 8 68 12 74 7 12 5 219 -2 302 -5 51 -75 374 -100
461 -40 137 -70 224 -90 260 -13 22 -26 51 -30 64 -4 13 -21 47 -38 75 -16 28
-44 78 -61 111 -18 36 -59 87 -103 131 -40 39 -73 75 -73 80 0 5 16 -8 36 -28
31 -34 75 -54 59 -28 -4 6 -11 8 -16 5 -5 -4 -9 1 -9 9 0 17 -117 146 -132
146 -5 0 -6 -4 -3 -10 3 -6 -1 -7 -9 -4 -9 3 -16 10 -16 15 0 4 -25 27 -55 49
l-54 40 -928 -1 -928 0 -35 -23z m170 -556 c0 -5 7 -10 15 -10 8 0 15 5 15 10
0 6 6 10 14 10 10 0 13 -7 11 -20 -2 -11 0 -18 6 -15 5 4 9 1 9 -5 0 -13 46
-61 57 -60 5 0 9 -11 11 -25 2 -14 8 -25 13 -25 5 0 9 -5 9 -11 0 -6 7 -17 15
-25 12 -12 15 -12 16 -2 0 10 2 10 6 1 2 -7 14 -13 26 -14 12 0 16 -3 10 -6
-7 -2 -13 -9 -13 -14 0 -6 5 -7 10 -4 6 3 10 1 10 -5 0 -6 5 -8 11 -4 7 4 10
-24 8 -94 -2 -59 2 -106 8 -114 6 -7 13 -26 17 -42 6 -23 10 -26 16 -16 12 19
17 12 22 -29 4 -40 -18 -54 -30 -20 -7 19 -10 20 -15 6 -4 -10 -2 -17 3 -17
16 0 11 -40 -5 -46 -8 -4 -15 -14 -15 -24 0 -11 -4 -21 -9 -24 -5 -3 -12 -22
-15 -41 -4 -20 -14 -39 -22 -42 -7 -3 -14 -13 -14 -22 0 -10 -12 -24 -27 -32
-35 -17 -53 -34 -53 -48 0 -6 -5 -11 -11 -11 -16 0 -44 -34 -59 -70 -7 -17
-17 -30 -22 -30 -5 0 -18 -16 -30 -36 -15 -26 -23 -32 -29 -22 -7 10 -9 9 -9
-4 0 -10 -6 -18 -14 -18 -14 0 -31 -28 -27 -45 1 -5 -6 -1 -17 10 -10 11 -30
29 -45 39 -14 11 -24 23 -21 28 3 4 -2 8 -10 8 -9 0 -16 4 -16 9 0 9 -39 24
-55 21 -5 -1 -23 -3 -40 -4 -16 -2 -40 -8 -53 -15 -15 -8 -42 -10 -82 -5 -65
7 -110 -2 -221 -42 -36 -14 -87 -25 -112 -26 -34 0 -47 -5 -50 -17 -13 -46 -5
179 9 255 8 49 19 114 24 146 4 31 15 71 23 90 8 18 26 64 41 101 14 37 51
103 81 146 55 79 207 231 230 231 7 0 15 7 19 15 3 9 19 15 41 15 20 0 34 4
31 9 -3 5 13 11 37 14 23 4 78 13 121 21 44 8 82 13 86 11 3 -2 12 0 20 6 20
12 40 11 40 -1z m316 -297 c-10 -10 -19 5 -10 18 6 11 8 11 12 0 2 -7 1 -15
-2 -18z m11 -125 c-3 -8 -6 -5 -6 6 -1 11 2 17 5 13 3 -3 4 -12 1 -19z m938
-588 c9 0 23 -6 30 -14 7 -7 29 -12 48 -11 30 1 36 -2 46 -32 7 -18 19 -33 26
-33 8 0 19 -9 25 -20 11 -21 44 -27 55 -10 13 20 31 8 79 -50 28 -33 55 -60
62 -60 7 0 18 -19 25 -42 6 -24 15 -54 20 -67 5 -13 7 -32 4 -42 -4 -11 4 -42
18 -72 58 -122 67 -144 73 -174 7 -38 31 -50 50 -26 12 17 13 17 19 1 9 -22
25 -14 25 13 0 35 20 20 26 -21 4 -22 12 -40 18 -40 12 0 46 -52 57 -87 5 -15
3 -26 -5 -30 -7 -5 -18 -18 -25 -30 -9 -18 -8 -24 8 -35 22 -15 81 -139 112
-233 14 -43 23 -109 30 -235 5 -96 15 -206 20 -245 16 -101 13 -126 -26 -227
-34 -87 -36 -97 -33 -197 2 -75 -2 -113 -11 -131 -14 -24 -14 -24 -25 20 -7
25 -17 54 -23 64 -9 17 -13 14 -38 -30 -15 -27 -43 -73 -61 -101 -19 -29 -53
-92 -75 -140 -33 -71 -42 -103 -46 -164 -6 -87 7 -110 27 -46 7 23 21 60 32
82 31 61 171 285 175 281 3 -2 -24 -53 -59 -113 -60 -104 -84 -158 -176 -398
-36 -94 -107 -228 -153 -285 -13 -17 -10 -5 10 35 36 72 48 119 55 205 3 36
12 113 20 172 16 122 54 212 131 313 26 33 87 141 136 240 96 193 96 190 57
272 -17 36 -19 54 -13 101 16 124 20 355 7 402 -7 25 -14 53 -17 63 -2 11 -16
38 -30 62 -14 24 -25 55 -25 70 0 32 -46 125 -62 125 -6 0 -20 7 -30 17 -17
15 -19 15 -38 -2 -15 -13 -20 -31 -20 -67 0 -42 -3 -50 -26 -60 l-26 -12 7
-116 c6 -105 -9 -481 -21 -522 -3 -10 -30 -48 -61 -85 -30 -38 -68 -94 -84
-125 -16 -32 -36 -58 -43 -58 -8 0 -20 -2 -28 -5 -10 -4 -20 33 -42 147 -16
84 -29 159 -28 168 1 24 -19 124 -28 135 -13 16 -50 116 -61 165 -5 25 -30 84
-55 132 -24 48 -53 124 -64 170 -11 46 -24 84 -29 86 -6 2 -17 25 -26 51 -8
26 -31 65 -51 86 -19 21 -33 43 -31 49 3 6 -6 27 -19 46 -13 19 -24 30 -24 25
0 -6 -3 -6 -8 0 -11 16 -49 34 -56 28 -3 -4 -6 -13 -6 -22 0 -9 -8 -25 -16
-36 -15 -20 -15 -20 -33 2 -11 13 -17 32 -14 46 3 14 1 27 -4 30 -5 4 -10 1
-11 -6 -1 -7 -4 -26 -8 -43 -4 -22 1 -44 15 -72 23 -45 46 -62 84 -62 14 0 29
-6 33 -12 14 -20 9 -99 -7 -109 -26 -16 -61 -10 -66 11 -3 11 -10 20 -15 20
-5 0 -7 4 -3 9 3 5 -4 12 -15 16 -11 3 -20 15 -20 26 0 11 -5 27 -10 37 -6 9
-16 53 -23 97 l-13 80 -17 -35 c-24 -47 -30 -89 -18 -139 5 -22 5 -57 1 -76
-5 -22 -4 -35 2 -35 6 0 -1 -9 -15 -20 -36 -29 -101 -29 -131 -1 -13 12 -39
26 -58 31 -19 6 -53 27 -76 48 -35 32 -42 46 -43 78 -1 44 -4 69 -14 101 -6
18 -2 22 24 28 16 3 48 15 70 26 62 30 148 49 244 56 75 5 89 4 100 -11 10
-14 17 -15 46 -5 48 17 102 -2 151 -53 37 -39 46 -39 41 0 -1 6 5 12 14 12 20
0 35 40 24 62 -16 30 10 56 69 70 l54 13 3 95 c1 52 4 100 5 105 11 48 -26
106 -92 148 -16 10 -28 24 -28 31 0 8 -11 28 -25 44 -14 17 -25 41 -25 54 0
27 36 49 62 36 9 -4 24 -8 33 -8z m747 -926 c-7 -13 -11 -2 -17 41 -5 44 -4
60 7 66 10 7 14 -3 16 -41 2 -28 -1 -57 -6 -66z m-2052 41 c0 -18 -1 -18 -16
3 -8 12 -12 27 -8 33 8 14 24 -8 24 -36z m1141 -177 c36 -24 96 -134 159 -293
41 -102 126 -441 142 -564 15 -118 9 -139 -83 -329 -72 -147 -104 -189 -51
-65 16 37 35 84 42 103 7 19 18 40 24 45 7 6 17 29 24 52 11 37 10 49 -13 117
-14 41 -25 97 -25 125 0 27 -4 60 -9 73 -25 64 -41 142 -47 223 -6 78 -12 99
-48 165 -22 41 -43 77 -47 80 -4 3 -19 31 -34 63 -51 108 -104 146 -126 91
l-10 -27 -24 23 c-44 41 -51 6 -15 -72 7 -16 17 -28 23 -28 5 0 25 -16 45 -36
36 -36 49 -73 36 -103 -4 -9 -8 -24 -9 -33 -2 -22 -11 -31 -30 -34 -8 -1 -15
4 -15 12 0 8 -4 14 -10 14 -5 0 -10 7 -10 15 0 8 -5 15 -12 15 -6 0 -9 3 -5 6
6 7 -15 70 -43 129 -40 83 -35 144 18 206 44 54 98 63 153 27z m-2007 -90 c4
-29 20 -105 35 -168 16 -63 32 -140 36 -170 4 -30 16 -88 26 -129 16 -64 17
-100 12 -258 -5 -157 -4 -192 12 -248 17 -65 15 -100 -4 -54 -6 13 -23 56 -40
94 -16 39 -34 88 -40 110 -13 49 -74 154 -136 235 l-46 60 17 52 c21 63 14
154 -14 203 -20 34 -20 34 -2 73 11 22 27 68 36 103 16 59 72 149 93 149 5 0
11 -24 15 -52z m3301 -385 c8 -37 12 -69 10 -71 -4 -4 -33 95 -41 140 -10 61
16 3 31 -69z m-2112 18 c-5 -18 -57 -81 -67 -81 -10 0 27 85 42 97 19 16 31 8
25 -16z m-307 1 c18 -11 54 -75 55 -97 0 -12 5 -6 11 15 18 65 72 102 115 79
24 -13 31 -26 43 -77 8 -32 6 -35 -27 -48 -19 -8 -58 -14 -86 -13 -29 1 -65
-4 -80 -10 -31 -12 -96 -15 -121 -5 -9 3 -16 16 -17 28 0 21 0 21 -9 -2 -11
-25 -39 -40 -49 -25 -3 5 -14 12 -23 16 -10 3 -18 13 -18 22 0 9 -7 27 -16 40
-21 33 -7 56 16 25 l17 -23 11 32 c15 42 35 39 57 -10 l19 -41 18 36 c10 19
28 42 40 50 25 18 29 19 44 8z m1067 -79 c-4 -10 -2 -14 4 -10 5 4 16 -10 22
-31 25 -74 -6 -267 -39 -247 -15 9 -23 188 -11 235 16 60 19 70 25 70 3 0 2
-7 -1 -17z m-146 -305 c30 -34 40 -56 53 -128 7 -36 19 -77 26 -92 28 -55 68
-411 54 -474 -5 -21 -20 -49 -35 -63 l-26 -26 5 60 c10 121 -30 373 -89 565
-13 41 -26 85 -30 98 -7 25 -42 30 -51 7 -4 -8 -14 -15 -24 -15 -9 0 -25 -9
-34 -19 -15 -17 -17 -32 -11 -108 8 -100 -7 -198 -31 -207 -25 -10 -13 277 14
338 36 79 133 114 179 64z m113 -127 c-4 -16 -7 -31 -5 -33 2 -2 -3 -9 -11
-16 -18 -17 -18 -1 0 43 18 43 28 46 16 6z m1598 -36 c-3 -3 -9 2 -12 12 -6
14 -5 15 5 6 7 -7 10 -15 7 -18z m52 -79 c0 -16 -28 15 -34 37 -5 21 -4 21 14
-3 11 -14 20 -29 20 -34z m101 -129 c12 -22 12 -22 -10 -3 -11 11 -21 23 -21
28 0 14 19 -1 31 -25z m-2049 -109 c-6 -6 -8 -36 -5 -68 4 -41 1 -64 -9 -78
-8 -13 -13 -42 -12 -76 2 -53 0 -58 -30 -80 -49 -36 -101 -56 -144 -56 -23 0
-44 -5 -47 -10 -4 -6 -10 -8 -15 -5 -4 3 -14 -2 -21 -11 -8 -9 -25 -14 -46
-12 -34 3 -53 -12 -53 -41 0 -8 7 -11 20 -8 11 3 20 1 20 -4 0 -5 -6 -9 -12
-9 -10 0 -10 -2 -1 -8 22 -14 -12 -50 -42 -45 -16 4 -25 1 -25 -8 0 -7 -2 -10
-4 -8 -7 7 21 105 49 171 15 35 34 80 43 101 22 54 205 206 239 199 8 -2 12 1
9 6 -7 12 63 74 75 66 5 -3 9 -2 8 3 -1 4 0 15 1 23 2 8 5 4 7 -9 3 -13 0 -28
-5 -33z m496 -103 c-6 -14 -13 -23 -16 -21 -7 7 9 46 18 46 5 0 4 -11 -2 -25z
m428 -121 c-14 -27 -34 -84 -45 -126 -24 -94 -56 -168 -72 -168 -16 0 -5 64
21 122 11 26 20 59 21 75 1 15 3 46 6 67 5 38 6 39 18 17 12 -23 12 -22 39 24
36 60 44 52 12 -11z m-1359 -336 c-3 -8 -6 -5 -6 6 -1 11 2 17 5 13 3 -3 4
-12 1 -19z m-1597 -2775 c-1 -5 -7 -19 -15 -33 l-14 -25 1 33 c1 20 6 32 15
32 7 0 13 -3 13 -7z m-42 -87 c-7 -8 -15 -12 -17 -11 -5 6 10 25 20 25 5 0 4
-6 -3 -14z m-218 -16 c0 -5 -9 -10 -20 -10 -11 0 -20 5 -20 10 0 6 9 10 20 10
11 0 20 -4 20 -10z m102 -192 c-7 -7 -12 -18 -12 -26 0 -8 -9 -26 -19 -40 -10
-15 -20 -31 -21 -37 -6 -23 -15 -42 -39 -80 -14 -22 -26 -42 -27 -45 -5 -24
-32 -69 -37 -64 -3 4 26 70 65 148 76 149 88 170 96 161 3 -3 0 -11 -6 -17z
m-162 -343 c-7 -14 -17 -25 -22 -25 -12 0 -10 17 5 32 8 7 12 20 9 28 -4 12
-2 13 9 3 10 -10 10 -17 -1 -38z m-30 -62 c-11 -8 -20 -23 -20 -33 0 -18 -28
-55 -36 -47 -5 5 16 54 35 84 8 11 21 19 28 16 11 -4 9 -9 -7 -20z m-83 -153
c-6 -16 -15 -30 -18 -30 -4 0 -2 14 4 30 6 17 15 30 18 30 4 0 2 -13 -4 -30z
m-2237 -141 c0 -20 -40 -34 -108 -36 -41 -2 -73 0 -70 2 25 25 178 54 178 34z
m-44 -303 c20 -21 1 -30 -44 -20 -22 4 -30 9 -19 11 9 3 17 9 17 14 0 14 30
11 46 -5z m7094 -150 c0 -2 -8 -10 -17 -17 -16 -13 -17 -12 -4 4 13 16 21 21
21 13z m-6852 -21 c3 -3 4 -28 3 -56 -1 -28 6 -76 15 -107 9 -32 21 -75 27
-97 13 -46 26 -58 44 -43 13 10 18 1 37 -59 7 -22 -9 -34 -16 -13 -4 12 -31
14 -69 5 -20 -5 -35 1 -69 30 -39 32 -48 36 -96 34 -35 -2 -61 3 -77 14 l-25
16 20 63 c11 35 31 95 43 135 32 100 28 97 98 89 33 -3 63 -8 65 -11z m3912
-23 c0 -37 -1 -38 -50 -53 -37 -12 -50 -13 -50 -4 0 7 -3 26 -6 43 -6 28 -4
32 27 41 68 19 79 15 79 -27z m-1768 20 c10 -2 18 -9 18 -15 0 -6 10 -21 22
-34 l21 -23 -66 0 -67 0 0 -60 0 -60 85 0 85 0 0 -40 0 -40 -85 0 -85 0 0 -65
0 -65 90 0 90 0 0 -45 0 -45 -142 0 -143 0 3 251 3 250 77 -2 c42 -1 84 -4 94
-7z m2375 -11 c53 -24 76 -67 75 -138 -1 -100 -57 -151 -177 -161 l-65 -5 0
-53 c0 -59 -2 -60 -62 -43 l-38 10 0 204 0 205 113 0 c88 0 121 -4 154 -19z
m-1727 -21 c0 -5 -5 -10 -11 -10 -5 0 -7 5 -4 10 3 6 8 10 11 10 2 0 4 -4 4
-10z m1336 -107 c9 -31 13 -69 10 -91 -4 -20 -8 -54 -11 -76 -6 -50 -14 -76
-25 -76 -12 0 -17 48 -19 193 -2 118 -1 129 13 118 9 -8 23 -38 32 -68z
m-1695 27 c29 0 29 0 29 -59 0 -33 -3 -62 -7 -64 -5 -2 -25 -7 -45 -11 l-36
-7 -7 65 c-8 69 -2 91 22 82 8 -3 28 -6 44 -6z m423 -116 c9 -8 13 -21 9 -27
-4 -8 -2 -8 9 1 12 10 18 9 28 -3 11 -13 8 -15 -14 -15 -31 0 -76 21 -95 44
-12 14 -9 16 17 16 17 0 38 -7 46 -16z m-396 -129 c2 -22 6 -42 8 -44 2 -2 41
-7 86 -11 105 -9 118 -15 118 -51 l0 -29 -155 0 -155 0 0 68 c0 104 5 114 53
110 40 -3 41 -4 45 -43z m365 -100 c26 -4 62 -13 80 -20 32 -14 31 -14 -32
-15 -74 0 -141 17 -141 37 0 9 8 12 23 9 12 -3 44 -8 70 -11z m-4752 -367
c-26 -162 -52 -260 -70 -266 -10 -3 -11 0 -2 16 6 10 8 22 4 25 -3 4 -2 12 3
19 5 7 9 24 9 38 0 14 3 27 7 30 4 3 9 15 11 25 2 11 9 39 17 62 10 33 10 46
1 57 -9 10 -9 16 -1 21 13 8 11 64 -2 82 -6 7 -1 17 14 27 13 9 24 12 26 6 2
-5 -6 -69 -17 -142z m-29 50 c-9 -9 -12 -7 -12 12 0 19 3 21 12 12 9 -9 9 -15
0 -24z m2806 15 c-10 -2 -28 -2 -40 0 -13 2 -5 4 17 4 22 1 32 -1 23 -4z
m-247 -45 c20 -7 44 -21 53 -31 19 -19 86 -24 86 -6 0 8 12 10 33 6 91 -16 97
-16 42 2 -91 29 -48 31 103 4 50 -9 92 -20 92 -25 0 -5 -30 -6 -67 -4 -56 4
-61 4 -28 -4 22 -5 72 -9 110 -10 39 0 77 -5 85 -10 12 -8 10 -10 -8 -10 -24
0 -55 -23 -47 -34 3 -3 2 -4 -2 -1 -3 3 -20 -4 -38 -15 -18 -11 -35 -17 -38
-14 -3 4 -10 -9 -16 -27 -5 -19 -10 -28 -10 -21 -1 15 -38 16 -43 0 -3 -7 -35
-12 -89 -13 -86 -2 -129 -11 -129 -26 0 -5 -9 -9 -19 -9 -11 0 -23 -4 -26 -10
-3 -5 -1 -10 6 -10 10 0 10 -3 2 -11 -6 -6 -9 -18 -6 -26 5 -12 7 -12 14 -2 5
9 10 4 15 -15 6 -24 10 -27 34 -23 21 5 34 -2 64 -30 58 -57 118 -81 208 -84
56 -3 139 -44 153 -76 6 -15 19 -23 35 -24 23 0 23 -1 5 -9 -19 -8 -19 -9 3
-9 13 -1 22 -7 22 -16 0 -13 -12 -14 -72 -9 -40 3 -90 7 -111 9 -56 4 -187 37
-187 46 0 18 -75 31 -144 25 -78 -6 -90 -2 -150 51 -30 27 -36 39 -36 73 0 26
9 55 25 80 14 22 22 40 18 40 -5 0 1 7 12 16 11 8 20 20 20 27 1 7 6 11 13 10
7 -2 12 2 12 7 0 6 -11 10 -25 10 -14 0 -25 2 -25 4 0 2 -3 11 -6 20 -8 22 24
21 49 -1 11 -10 17 -12 13 -5 -5 8 -1 12 12 12 11 0 25 6 31 14 9 11 -3 18
-65 37 -99 30 -143 81 -95 111 10 6 17 18 14 26 -7 16 38 12 98 -10z m-2574
-50 c-3 -8 -6 -5 -6 6 -1 11 2 17 5 13 3 -3 4 -12 1 -19z m2188 -284 c24 -25
25 -52 3 -38 -6 4 -23 7 -37 8 -21 1 -27 7 -29 29 -3 22 1 27 18 27 11 0 32
-12 45 -26z m4207 -43 c48 -6 106 -18 129 -28 42 -18 44 -18 98 1 42 14 93 20
202 24 l147 4 0 -143 c0 -110 -3 -136 -10 -109 -24 85 -97 146 -187 157 -42 5
-60 1 -106 -21 -33 -17 -65 -41 -79 -62 l-23 -35 -27 36 c-62 81 -180 104
-269 52 -135 -79 -140 -268 -9 -357 30 -22 47 -25 119 -26 l84 0 53 -53 53
-52 51 56 51 56 41 -11 c100 -27 216 43 249 150 9 28 10 15 7 -75 -4 -126 -16
-163 -73 -225 -70 -78 -76 -80 -428 -80 l-310 0 2 368 c1 202 2 370 2 375 1
10 127 9 233 -2z m58 -151 c51 -26 82 -72 88 -131 6 -66 -2 -93 -44 -139 -63
-69 -163 -77 -230 -17 -47 40 -64 77 -64 134 1 130 134 212 250 153z m373 6
c67 -27 116 -118 103 -189 -10 -52 -46 -99 -96 -124 -56 -29 -94 -29 -150 0
-103 52 -131 180 -57 264 53 60 129 79 200 49z m757 -76 c0 -84 1 -90 20 -90
13 0 28 13 41 34 21 36 47 52 60 39 5 -5 -2 -26 -15 -47 -23 -38 -23 -39 -5
-57 14 -14 19 -34 19 -69 0 -27 -4 -50 -8 -50 -16 0 -32 25 -32 50 0 34 -17
50 -52 50 -27 0 -28 -2 -28 -50 0 -54 -10 -62 -34 -28 -12 17 -16 50 -16 143
0 93 4 126 16 143 27 39 34 24 34 -68z m-408 13 c3 -24 8 -27 38 -28 24 0 36
-5 38 -17 2 -13 -5 -17 -35 -20 l-38 -3 -3 -56 c-3 -64 12 -89 54 -89 17 0 24
-5 24 -20 0 -31 -63 -28 -95 5 -23 22 -25 31 -25 128 0 67 4 107 12 115 18 18
26 14 30 -15z m263 -37 c45 -19 69 -66 62 -120 -15 -109 -161 -134 -212 -36
-30 59 -10 125 47 153 41 20 59 21 103 3z m460 0 c109 -46 70 -216 -50 -216
-114 0 -159 151 -63 210 39 24 67 25 113 6z m259 0 c32 -13 66 -65 66 -100 0
-31 -28 -85 -54 -101 -33 -22 -92 -22 -117 1 -19 17 -19 16 -19 -50 0 -64 -1
-66 -21 -56 -19 11 -20 18 -17 137 l3 125 33 29 c36 32 73 37 126 15z m249 1
c41 -18 57 -37 64 -81 l6 -36 -92 0 c-73 0 -91 -3 -91 -14 0 -19 38 -46 65
-46 11 0 31 7 43 16 18 13 26 13 38 4 17 -15 5 -34 -38 -56 -22 -11 -37 -12
-66 -4 -105 28 -124 167 -30 213 41 20 59 21 101 4z m656 -3 c34 -24 51 -74
51 -149 0 -47 -4 -65 -13 -65 -26 0 -37 25 -37 85 0 66 -4 76 -37 94 -29 15
-69 5 -88 -22 -46 -66 38 -154 97 -100 17 15 18 15 18 -15 0 -26 -5 -32 -34
-42 -60 -19 -119 16 -137 82 -13 49 2 99 38 128 32 25 108 27 142 4z m-6389
-51 c19 -9 43 -20 52 -24 10 -5 33 -9 51 -9 32 0 67 -27 67 -51 0 -14 -26 -39
-40 -39 -7 0 -9 -8 -5 -20 7 -22 -11 -53 -26 -44 -5 3 -24 2 -44 -2 -28 -5
-35 -11 -35 -30 0 -15 6 -24 15 -24 14 0 20 -22 17 -63 -1 -10 5 -20 13 -23
19 -8 19 -40 0 -48 -10 -3 -15 -20 -16 -48 -1 -40 -2 -41 -9 -13 -5 18 -8 23
-9 11 -1 -19 -7 -20 -12 -1 -4 15 -21 30 -44 39 -14 6 -16 10 -7 13 10 4 9 9
-4 24 -13 14 -15 32 -12 83 2 36 0 62 -4 60 -4 -3 -8 1 -8 9 0 8 -7 17 -15 20
-22 9 -45 73 -45 126 0 83 28 95 120 54z m3447 -25 c-3 -7 -5 -2 -5 12 0 14 2
19 5 13 2 -7 2 -19 0 -25z m449 -95 c-10 -10 -19 5 -10 18 6 11 8 11 12 0 2
-7 1 -15 -2 -18z m-6708 -40 c13 -24 -3 -63 -25 -65 -10 0 -25 -1 -33 -2 -9
-1 -16 -13 -18 -33 -6 -63 -22 -32 -22 42 l0 75 45 0 c32 0 47 -5 53 -17z
m161 3 c7 -8 15 -30 18 -49 4 -29 1 -40 -20 -61 -32 -32 -63 -33 -94 -4 -28
26 -31 82 -6 110 20 22 85 24 102 4z m101 -2 c0 -14 -3 -15 -17 -3 -10 7 -20
15 -22 16 -2 2 5 3 17 3 14 0 22 -6 22 -16z m100 1 c0 -8 -4 -15 -10 -15 -5 0
-10 5 -10 10 0 17 -18 11 -23 -7 -4 -14 -5 -12 -6 5 -1 17 4 22 24 22 16 0 25
-6 25 -15z m6401 -14 l24 -20 -40 -40 c-21 -23 -42 -41 -46 -41 -4 0 -22 19
-40 41 l-33 42 23 18 c30 24 82 24 112 0z m-7633 -8 c2 -9 -7 -13 -27 -13 -21
0 -31 5 -31 16 0 19 51 16 58 -3z m142 -37 c0 -3 -4 -8 -10 -11 -5 -3 -10 -1
-10 4 0 6 5 11 10 11 6 0 10 -2 10 -4z m957 -58 c-2 -13 -4 -3 -4 22 0 25 2
35 4 23 2 -13 2 -33 0 -45z m-1097 27 c0 -10 -10 -15 -30 -15 -20 0 -30 5 -30
15 0 10 10 15 30 15 20 0 30 -5 30 -15z m1162 1 c6 4 8 -4 6 -17 -4 -32 -22
-26 -25 8 -1 15 0 22 3 15 3 -6 10 -9 16 -6z m-942 -22 c0 -8 -4 -12 -10 -9
-5 3 -10 13 -10 21 0 8 5 12 10 9 6 -3 10 -13 10 -21z m997 -16 c-3 -8 -6 -5
-6 6 -1 11 2 17 5 13 3 -3 4 -12 1 -19z m2603 -158 c0 -5 -5 -10 -11 -10 -5 0
-7 5 -4 10 3 6 8 10 11 10 2 0 4 -4 4 -10z"/>
<path d="M7878 6770 c-19 -18 -24 -40 -9 -40 14 0 33 28 29 43 -2 11 -6 11
-20 -3z"/>
<path d="M3342 1853 c-18 -55 -32 -107 -32 -113 0 -9 16 -11 62 -6 35 4 64 9
65 10 2 1 -12 49 -30 107 l-33 104 -32 -102z"/>
<path d="M7798 1944 c-5 -4 -8 -38 -8 -76 l0 -68 48 0 c38 0 53 5 70 23 47 50
16 116 -58 124 -25 3 -48 1 -52 -3z"/>
<path d="M4095 1040 c-3 -5 1 -10 9 -10 8 0 18 5 21 10 3 6 -1 10 -9 10 -8 0
-18 -4 -21 -10z"/>
<path d="M7868 611 c3 -23 -2 -33 -23 -47 -26 -17 -29 -17 -56 -2 -27 16 -28
16 -34 -12 -9 -43 18 -97 58 -116 75 -36 157 16 157 98 0 32 -7 47 -34 74 -44
44 -74 46 -68 5z"/>
<path d="M8208 611 c3 -23 -2 -33 -23 -47 -26 -17 -29 -17 -56 -2 -27 16 -28
16 -34 -12 -9 -43 18 -97 58 -116 75 -36 157 16 157 98 0 32 -7 47 -34 74 -44
44 -74 46 -68 5z"/>
<path d="M8809 551 c-29 -23 -31 -81 -4 -111 27 -30 78 -27 104 6 12 15 21 37
21 49 0 12 -9 34 -21 49 -25 31 -66 34 -100 7z"/>
<path d="M9270 552 c-16 -13 -22 -29 -22 -56 0 -47 25 -76 67 -76 55 0 87 58
61 108 -24 46 -67 55 -106 24z"/>
<path d="M9530 552 c-16 -13 -24 -32 -27 -69 -5 -50 -5 -50 27 -57 78 -15 110
4 110 67 0 65 -62 98 -110 59z"/>
<path d="M9780 545 l-23 -25 66 0 c70 0 79 6 49 33 -27 24 -65 21 -92 -8z"/>
<path d="M1250 356 c0 -32 2 -34 27 -27 35 9 54 38 33 51 -8 5 -25 10 -37 10
-19 0 -23 -5 -23 -34z"/>
<path d="M1400 370 c-15 -28 -9 -81 11 -93 23 -14 67 0 74 24 4 11 4 36 0 55
-5 31 -9 34 -40 34 -24 0 -37 -6 -45 -20z"/>
<path d="M9007 10779 c12 -12 24 -21 27 -18 2 2 -8 13 -22 23 l-27 19 22 -24z"/>
<path d="M6605 10380 c-3 -5 -1 -10 4 -10 6 0 11 5 11 10 0 6 -2 10 -4 10 -3
0 -8 -4 -11 -10z"/>
<path d="M6531 10247 c-13 -21 -12 -21 5 -5 10 10 16 20 13 22 -3 3 -11 -5
-18 -17z"/>
<path d="M1102 10008 c8 -13 39 -40 69 -61 30 -21 55 -41 57 -46 1 -4 -8 -13
-20 -19 -13 -7 -38 -24 -57 -37 l-34 -25 30 0 c19 0 51 15 89 42 l58 42 -32 7
c-21 4 -46 22 -69 48 -48 57 -122 96 -91 49z m44 -19 c19 -22 19 -22 -3 -10
-13 6 -23 16 -23 21 0 15 5 12 26 -11z m65 -129 c-22 -19 -41 -26 -41 -15 0 5
51 34 60 34 3 0 -6 -9 -19 -19z"/>
<path d="M1274 10004 c3 -9 6 -19 6 -22 0 -4 16 -25 35 -46 19 -21 32 -42 30
-46 -2 -4 7 -12 20 -18 14 -7 25 -16 25 -21 0 -17 -39 -32 -73 -29 l-32 4 35
11 c19 6 28 12 19 12 -9 1 -31 -4 -49 -11 -31 -10 -32 -12 -15 -24 21 -16 88
-9 122 12 20 13 25 11 57 -16 23 -21 43 -54 62 -103 15 -40 35 -91 45 -113 10
-23 21 -54 25 -68 8 -34 30 -33 49 4 18 36 20 54 1 21 -13 -23 -14 -20 -46 60
-18 46 -32 96 -32 110 1 20 -3 26 -17 22 -29 -7 -77 63 -84 126 -7 59 -37 108
-37 61 0 -14 4 -40 9 -58 5 -17 7 -32 3 -32 -19 1 -51 39 -62 73 -14 45 -65
107 -87 107 -10 0 -13 -6 -9 -16z m50 -23 c10 -11 15 -25 11 -31 -4 -7 -14 -2
-26 14 -31 39 -18 53 15 17z"/>
<path d="M760 9983 c8 -3 27 -14 41 -24 25 -17 109 -42 117 -34 11 10 -107 65
-138 64 -19 0 -28 -3 -20 -6z"/>
<path d="M960 9982 c0 -15 33 -39 75 -56 21 -9 42 -22 46 -28 4 -6 12 -9 18
-7 6 2 -11 22 -39 44 -52 42 -94 64 -50 27 14 -12 21 -21 15 -21 -15 0 -45 25
-45 38 0 6 -4 11 -10 11 -5 0 -10 -4 -10 -8z"/>
<path d="M931 9870 c-59 -32 -78 -47 -69 -55 8 -8 86 22 115 45 14 11 37 20
52 21 23 0 24 1 6 9 -31 13 -46 11 -104 -20z m15 -19 c-3 -5 -16 -11 -28 -14
-22 -6 -22 -5 -4 8 22 17 40 20 32 6z"/>
<path d="M538 9625 l-3 -125 35 1 c19 0 29 3 23 6 -10 3 -13 38 -13 124 0 111
-1 119 -19 119 -18 0 -20 -9 -23 -125z"/>
<path d="M798 9625 c3 -121 4 -125 25 -125 20 0 22 4 19 49 -3 41 -1 50 15 54
15 4 16 5 1 6 -14 1 -18 13 -20 69 -3 58 -6 67 -23 70 -19 3 -20 -2 -17 -123z"/>
<path d="M1383 9731 c11 -34 86 -224 91 -229 3 -2 13 1 21 8 9 7 12 16 7 19
-13 9 -74 183 -68 197 3 7 -7 14 -25 16 -24 4 -29 2 -26 -11z"/>
<path d="M1692 9718 l-1 -33 14 25 c18 32 18 40 2 40 -9 0 -14 -12 -15 -32z"/>
<path d="M666 9721 c56 -34 71 -144 27 -193 -18 -21 -18 -21 4 -9 32 17 53 63
53 116 0 40 -5 52 -31 76 -18 17 -42 29 -58 29 l-26 0 31 -19z"/>
<path d="M910 9733 c37 -13 55 -84 28 -111 -8 -8 -9 -12 -1 -12 16 0 53 49 53
70 0 24 -42 60 -71 59 -14 0 -18 -3 -9 -6z"/>
<path d="M1185 9620 c0 -106 2 -120 17 -120 15 0 17 15 20 120 3 114 2 120
-17 120 -19 0 -20 -7 -20 -120z"/>
<path d="M1676 9665 c-9 -26 -7 -32 5 -12 6 10 9 21 6 23 -2 3 -7 -2 -11 -11z"/>
<path d="M1526 9595 c-9 -26 -7 -32 5 -12 6 10 9 21 6 23 -2 3 -7 -2 -11 -11z"/>
<path d="M917 9550 c26 -35 44 -50 61 -50 23 0 22 1 -12 42 -20 23 -36 45 -36
50 0 4 -11 8 -25 8 l-25 0 37 -50z"/>
<path d="M1340 9540 c0 -5 -12 -16 -27 -24 l-28 -15 31 -1 c26 0 33 5 36 25 3
14 1 25 -3 25 -5 0 -9 -4 -9 -10z"/>
<path d="M1027 9533 c-3 -5 -2 -15 3 -22 10 -17 43 -6 38 12 -6 15 -34 22 -41
10z"/>
<path d="M781 9416 c-10 -12 -8 -17 9 -26 11 -6 18 -15 15 -21 -4 -5 -1 -9 4
-9 20 0 11 29 -11 36 -21 6 -21 7 -3 20 10 8 14 14 8 14 -6 0 -16 -6 -22 -14z"/>
<path d="M1182 9406 l-2 -29 -25 23 c-21 20 -25 21 -31 7 -3 -9 -4 -24 -1 -34
3 -13 5 -12 6 6 l1 24 25 -23 c30 -28 38 -23 32 22 -4 31 -4 32 -5 4z"/>
<path d="M1541 9398 c2 -31 2 -31 6 -5 5 32 28 32 28 0 0 -12 4 -25 8 -30 5
-4 7 8 5 27 -2 27 -8 36 -25 38 -20 3 -23 -1 -22 -30z"/>
<path d="M1672 9393 c2 -29 8 -39 23 -41 l20 -4 -20 16 c-18 14 -18 15 -2 16
9 0 17 4 17 9 0 5 -8 11 -17 14 -15 3 -14 6 7 15 l25 11 -28 0 c-27 1 -28 -1
-25 -36z"/>
<path d="M901 9397 c-1 -17 3 -26 9 -22 6 4 19 1 28 -7 15 -12 16 -11 3 5 -11
14 -11 20 -1 32 7 9 8 15 2 15 -5 0 -13 -8 -17 -17 -7 -17 -8 -16 -15 2 -8 17
-9 16 -9 -8z"/>
<path d="M1032 9390 c0 -19 2 -27 5 -17 2 9 2 25 0 35 -3 9 -5 1 -5 -18z"/>
<path d="M1266 9405 c-7 -19 3 -45 16 -45 6 0 5 6 -2 15 -10 12 -10 18 0 30 7
9 8 15 2 15 -5 0 -12 -7 -16 -15z"/>
<path d="M1436 9390 c9 -16 17 -30 19 -30 2 0 -1 14 -6 30 -6 17 -15 30 -19
30 -5 0 -2 -13 6 -30z"/>
<path d="M1406 9384 c-4 -9 -4 -19 -1 -22 2 -3 7 3 11 12 4 9 4 19 1 22 -2 3
-7 -3 -11 -12z"/>
<path d="M2792 9327 c-12 -13 -22 -27 -22 -31 0 -8 15 6 39 37 20 25 8 21 -17
-6z"/>
<path d="M2380 9325 c-14 -8 -20 -14 -14 -15 5 0 19 7 30 15 24 18 16 19 -16
0z"/>
<path d="M2882 9320 c0 -14 2 -19 5 -12 2 6 2 18 0 25 -3 6 -5 1 -5 -13z"/>
<path d="M2325 9300 c-3 -5 -2 -10 4 -10 5 0 13 5 16 10 3 6 2 10 -4 10 -5 0
-13 -4 -16 -10z"/>
<path d="M2284 9274 c-18 -14 -18 -15 4 -4 12 6 22 13 22 15 0 8 -5 6 -26 -11z"/>
<path d="M2522 9260 c0 -14 2 -19 5 -12 2 6 2 18 0 25 -3 6 -5 1 -5 -13z"/>
<path d="M2209 9223 c-13 -16 -12 -17 4 -4 9 7 17 15 17 17 0 8 -8 3 -21 -13z"/>
<path d="M2149 9173 c-13 -16 -12 -17 4 -4 9 7 17 15 17 17 0 8 -8 3 -21 -13z"/>
<path d="M2685 9149 c-4 -6 -5 -12 -2 -15 2 -3 7 2 10 11 7 17 1 20 -8 4z"/>
<path d="M2487 9121 c-4 -17 -3 -21 5 -13 5 5 8 16 6 23 -3 8 -7 3 -11 -10z"/>
<path d="M2365 9054 c-9 -15 -12 -23 -6 -20 11 7 35 46 28 46 -3 0 -12 -12
-22 -26z"/>
<path d="M2019 9033 c-13 -16 -12 -17 4 -4 16 13 21 21 13 21 -2 0 -10 -8 -17
-17z"/>
<path d="M3042 8950 c0 -14 2 -19 5 -12 2 6 2 18 0 25 -3 6 -5 1 -5 -13z"/>
<path d="M2958 8888 c5 -5 16 -8 23 -6 8 3 3 7 -10 11 -17 4 -21 3 -13 -5z"/>
<path d="M3590 8835 c-7 -9 -11 -17 -8 -20 2 -2 12 4 21 15 9 11 13 20 8 20
-5 0 -14 -7 -21 -15z"/>
<path d="M3668 8838 c7 -7 13 -26 13 -42 1 -19 3 -24 6 -13 7 26 -5 67 -19 67
-9 0 -9 -3 0 -12z"/>
<path d="M4477 8830 c-15 -12 -36 -35 -47 -53 -19 -27 -17 -27 10 5 18 22 37
35 43 31 7 -3 8 -2 4 2 -4 5 3 15 15 22 13 7 18 12 12 13 -6 0 -23 -9 -37 -20z"/>
<path d="M3870 8820 c-8 -5 -12 -12 -9 -15 4 -3 12 1 19 10 14 17 11 19 -10 5z"/>
<path d="M4566 8817 c3 -10 9 -15 12 -12 3 3 0 11 -7 18 -10 9 -11 8 -5 -6z"/>
<path d="M3555 8810 c-3 -5 -1 -10 4 -10 6 0 11 5 11 10 0 6 -2 10 -4 10 -3 0
-8 -4 -11 -10z"/>
<path d="M3992 8800 c0 -14 2 -19 5 -12 2 6 2 18 0 25 -3 6 -5 1 -5 -13z"/>
<path d="M3269 8779 l-24 -20 28 17 c15 9 27 18 27 20 0 8 -8 4 -31 -17z"/>
<path d="M3070 8733 l-55 -58 58 55 c31 30 57 56 57 57 0 8 -10 -1 -60 -54z"/>
<path d="M2870 8754 c-6 -14 -10 -28 -10 -32 1 -10 24 31 26 46 4 21 -6 13
-16 -14z"/>
<path d="M2952 8760 c0 -14 2 -19 5 -12 2 6 2 18 0 25 -3 6 -5 1 -5 -13z"/>
<path d="M3470 8704 c-30 -31 -43 -49 -29 -40 22 14 96 96 87 96 -2 0 -28 -25
-58 -56z"/>
<path d="M3671 8739 c-1 -21 -28 -32 -35 -16 -3 9 -5 8 -5 -1 -1 -17 28 -27
41 -14 5 5 8 18 5 28 -4 15 -5 16 -6 3z"/>
<path d="M4096 8735 c-9 -26 -7 -32 5 -12 6 10 9 21 6 23 -2 3 -7 -2 -11 -11z"/>
<path d="M4384 8718 l-19 -23 23 19 c21 18 27 26 19 26 -2 0 -12 -10 -23 -22z"/>
<path d="M4621 8694 c-29 -26 -50 -48 -48 -50 2 -2 25 16 51 41 27 25 52 42
57 39 5 -3 9 0 9 5 0 20 -19 11 -69 -35z"/>
<path d="M4276 8707 c3 -10 9 -15 12 -12 3 3 0 11 -7 18 -10 9 -11 8 -5 -6z"/>
<path d="M2825 8674 c-9 -15 -12 -23 -6 -20 11 7 35 46 28 46 -3 0 -12 -12
-22 -26z"/>
<path d="M3746 8684 c-5 -14 -4 -15 9 -4 17 14 19 20 6 20 -5 0 -12 -7 -15
-16z"/>
<path d="M4297 8669 c7 -7 15 -10 18 -7 3 3 -2 9 -12 12 -14 6 -15 5 -6 -5z"/>
<path d="M2969 8643 c-18 -20 -19 -23 -4 -13 32 24 47 40 37 40 -4 0 -19 -12
-33 -27z"/>
<path d="M3709 8653 c-13 -16 -12 -17 4 -4 9 7 17 15 17 17 0 8 -8 3 -21 -13z"/>
<path d="M3219 8643 c-13 -16 -12 -17 4 -4 9 7 17 15 17 17 0 8 -8 3 -21 -13z"/>
<path d="M3670 8630 c-9 -6 -10 -10 -3 -10 6 0 15 5 18 10 8 12 4 12 -15 0z"/>
<path d="M2135 8617 c-31 -18 -65 -50 -65 -61 0 -6 15 5 33 22 19 18 47 37 63
42 20 6 23 8 9 9 -11 0 -29 -5 -40 -12z"/>
<path d="M2301 8585 c-18 -25 -36 -45 -42 -45 -5 0 -9 -5 -9 -12 0 -16 51 34
73 72 26 44 15 37 -22 -15z"/>
<path d="M3080 8606 c0 -14 4 -27 8 -30 5 -3 6 8 4 25 -5 35 -12 38 -12 5z"/>
<path d="M3320 8616 c0 -2 8 -10 18 -17 15 -13 16 -12 3 4 -13 16 -21 21 -21
13z"/>
<path d="M4505 8590 c-3 -6 1 -7 9 -4 18 7 21 14 7 14 -6 0 -13 -4 -16 -10z"/>
<path d="M2476 8575 c-9 -26 -7 -32 5 -12 6 10 9 21 6 23 -2 3 -7 -2 -11 -11z"/>
<path d="M4460 8570 c-8 -5 -10 -10 -5 -10 6 0 17 5 25 10 8 5 11 10 5 10 -5
0 -17 -5 -25 -10z"/>
<path d="M4375 8547 c18 -27 53 -43 77 -34 7 3 1 6 -14 6 -16 1 -38 13 -54 29
l-26 27 17 -28z"/>
<path d="M2050 8525 c-7 -9 -10 -18 -7 -21 3 -3 10 4 17 15 13 25 8 27 -10 6z"/>
<path d="M6730 8479 c-17 -5 -19 -7 -7 -8 10 -1 15 -5 12 -11 -3 -5 -2 -10 3
-10 9 0 26 30 20 35 -2 1 -14 -2 -28 -6z"/>
<path d="M6792 8479 c-24 -9 -26 -29 -3 -37 7 -2 15 5 18 16 3 12 12 23 22 25
12 4 12 5 1 5 -8 0 -26 -3 -38 -9z"/>
<path d="M2021 8444 c0 -11 3 -14 6 -6 3 7 2 16 -1 19 -3 4 -6 -2 -5 -13z"/>
<path d="M5508 8263 c5 -10 8 -27 6 -38 -1 -11 -6 -40 -10 -65 -4 -25 -6 -67
-5 -93 2 -31 -5 -63 -17 -90 -35 -73 -37 -102 -9 -150 17 -30 27 -70 36 -142
13 -112 13 -235 0 -235 -5 0 -9 -6 -9 -14 0 -14 -27 -31 -44 -27 -5 1 -4 -4 3
-13 9 -11 9 -16 0 -22 -8 -5 -9 -3 -4 6 5 8 4 11 -3 6 -6 -4 -8 -14 -5 -24 10
-24 73 -105 74 -95 1 4 2 13 4 18 1 6 3 16 3 23 1 7 7 10 12 7 7 -4 9 2 5 18
-4 14 6 78 24 148 55 225 73 336 61 359 -7 13 -10 70 -9 153 3 144 -9 187 -67
257 -28 33 -61 42 -46 13z"/>
<path d="M9812 8250 c0 -14 2 -19 5 -12 2 6 2 18 0 25 -3 6 -5 1 -5 -13z"/>
<path d="M2388 8223 c7 -3 16 -2 19 1 4 3 -2 6 -13 5 -11 0 -14 -3 -6 -6z"/>
<path d="M2293 8173 c9 -2 23 -2 30 0 6 3 -1 5 -18 5 -16 0 -22 -2 -12 -5z"/>
<path d="M3503 8158 c-21 -23 -63 -100 -63 -115 0 -4 16 20 35 53 37 65 59 82
81 63 9 -7 14 -8 14 -1 0 9 -22 22 -39 22 -4 0 -17 -10 -28 -22z"/>
<path d="M2662 8121 c13 -15 25 -27 26 -25 6 4 -32 53 -41 54 -5 0 2 -13 15
-29z"/>
<path d="M2153 8120 c-18 -11 -33 -22 -33 -25 0 -2 16 5 35 16 19 12 35 23 35
25 0 6 -3 5 -37 -16z"/>
<path d="M9742 8051 l-24 -36 27 26 c15 15 26 31 24 37 -2 5 -14 -7 -27 -27z"/>
<path d="M9701 8051 c0 -14 -8 -32 -17 -42 -9 -10 -14 -23 -12 -30 7 -22 39
41 35 69 -4 25 -4 25 -6 3z"/>
<path d="M2019 8008 c-24 -29 -36 -47 -26 -39 20 16 81 91 74 91 -2 0 -24 -24
-48 -52z"/>
<path d="M2266 8043 c-6 -14 -5 -15 5 -6 7 7 10 15 7 18 -3 3 -9 -2 -12 -12z"/>
<path d="M2702 8010 c0 -14 2 -19 5 -12 2 6 2 18 0 25 -3 6 -5 1 -5 -13z"/>
<path d="M3553 8023 c9 -2 25 -2 35 0 9 3 1 5 -18 5 -19 0 -27 -2 -17 -5z"/>
<path d="M3858 8003 c5 -21 7 -23 10 -9 2 10 0 22 -6 28 -6 6 -7 0 -4 -19z"/>
<path d="M3298 7993 c6 -2 18 -2 25 0 6 3 1 5 -13 5 -14 0 -19 -2 -12 -5z"/>
<path d="M2226 7955 c-9 -26 -7 -32 5 -12 6 10 9 21 6 23 -2 3 -7 -2 -11 -11z"/>
<path d="M3113 7954 c-3 -8 0 -21 6 -27 9 -9 11 -8 5 7 -4 11 -2 21 7 27 10 6
11 9 1 9 -7 0 -15 -7 -19 -16z"/>
<path d="M1953 7915 c-3 -9 -3 -18 -1 -21 3 -3 8 4 11 16 6 23 -1 27 -10 5z"/>
<path d="M3436 7893 c-6 -14 -5 -15 5 -6 7 7 10 15 7 18 -3 3 -9 -2 -12 -12z"/>
<path d="M3530 7880 c-13 -13 -20 -33 -20 -59 0 -45 5 -51 40 -40 24 7 24 7 2
8 -46 2 -39 80 8 91 21 5 22 7 7 13 -11 4 -25 -1 -37 -13z"/>
<path d="M3356 7865 c-9 -26 -7 -32 5 -12 6 10 9 21 6 23 -2 3 -7 -2 -11 -11z"/>
<path d="M1933 7815 c0 -22 2 -30 4 -17 2 12 2 30 0 40 -3 9 -5 -1 -4 -23z"/>
<path d="M2549 7833 c-13 -16 -12 -17 4 -4 16 13 21 21 13 21 -2 0 -10 -8 -17
-17z"/>
<path d="M3411 7843 c-1 -6 -4 -20 -7 -30 -5 -17 -5 -17 6 0 6 10 9 23 6 30
-3 9 -5 9 -5 0z"/>
<path d="M3332 7805 c-7 -14 -12 -31 -12 -38 1 -7 7 3 16 22 17 39 13 54 -4
16z"/>
<path d="M6085 7760 c-4 -16 -11 -32 -16 -35 -5 -4 -9 -11 -9 -16 0 -17 18 0
34 33 18 36 20 48 7 48 -5 0 -12 -13 -16 -30z"/>
<path d="M2136 7733 c-6 -14 -5 -15 5 -6 7 7 10 15 7 18 -3 3 -9 -2 -12 -12z"/>
<path d="M4128 7720 c-20 -16 -45 -47 -57 -67 l-21 -38 23 30 c37 50 86 93
109 98 20 4 21 4 3 6 -11 0 -37 -12 -57 -29z"/>
<path d="M2715 7719 c-11 -16 -1 -19 13 -3 7 8 8 14 3 14 -5 0 -13 -5 -16 -11z"/>
<path d="M3296 7715 c-9 -26 -7 -32 5 -12 6 10 9 21 6 23 -2 3 -7 -2 -11 -11z"/>
<path d="M3677 7678 c-50 -50 -32 -41 23 10 15 15 32 22 47 19 28 -5 29 -1 3
13 -16 9 -27 2 -73 -42z"/>
<path d="M4216 7707 c3 -10 9 -15 12 -12 3 3 0 11 -7 18 -10 9 -11 8 -5 -6z"/>
<path d="M3075 7692 c-5 -4 -17 -16 -25 -27 -11 -15 -8 -14 12 4 16 14 33 21
43 17 9 -3 13 -2 10 4 -7 12 -26 13 -40 2z"/>
<path d="M3462 7693 c-7 -2 -17 -14 -24 -26 -11 -21 -10 -21 9 -4 23 20 44 22
61 5 7 -7 12 -9 12 -6 0 9 -30 38 -38 37 -4 0 -13 -3 -20 -6z"/>
<path d="M3829 7673 c-13 -17 -13 -17 6 -3 11 8 22 16 24 17 2 2 0 3 -6 3 -6
0 -17 -8 -24 -17z"/>
<path d="M2660 7655 c-7 -9 -11 -17 -8 -20 2 -2 12 4 21 15 9 11 13 20 8 20
-5 0 -14 -7 -21 -15z"/>
<path d="M3215 7593 c-33 -31 -51 -51 -40 -45 19 10 114 102 105 102 -3 -1
-32 -26 -65 -57z"/>
<path d="M3415 7620 c-4 -12 -5 -24 -2 -27 3 -2 8 5 12 17 4 12 5 24 2 27 -3
2 -8 -5 -12 -17z"/>
<path d="M4255 7571 c-44 -41 -84 -78 -89 -83 -6 -4 -7 -8 -3 -8 4 0 39 29 77
65 76 72 96 80 86 38 -5 -23 -4 -25 5 -10 5 10 9 30 7 45 -3 26 -5 25 -83 -47z"/>
<path d="M3496 7615 c-9 -26 -7 -32 5 -12 6 10 9 21 6 23 -2 3 -7 -2 -11 -11z"/>
<path d="M3550 7557 c-14 -12 -39 -32 -55 -44 -17 -12 -24 -23 -17 -23 7 0 34
20 60 45 48 46 57 62 12 22z"/>
<path d="M2050 7529 c-6 -11 -10 -25 -8 -30 2 -5 8 4 15 21 13 34 9 40 -7 9z"/>
<path d="M3391 7534 c0 -11 3 -14 6 -6 3 7 2 16 -1 19 -3 4 -6 -2 -5 -13z"/>
<path d="M3870 7535 c0 -5 5 -17 10 -25 5 -8 10 -10 10 -5 0 6 -5 17 -10 25
-5 8 -10 11 -10 5z"/>
<path d="M2716 7515 c-9 -26 -7 -32 5 -12 6 10 9 21 6 23 -2 3 -7 -2 -11 -11z"/>
<path d="M2766 7493 c-6 -14 -5 -15 5 -6 7 7 10 15 7 18 -3 3 -9 -2 -12 -12z"/>
<path d="M2016 7453 c-6 -14 -5 -15 5 -6 7 7 10 15 7 18 -3 3 -9 -2 -12 -12z"/>
<path d="M2550 7316 c0 -2 8 -10 18 -17 15 -13 16 -12 3 4 -13 16 -21 21 -21
13z"/>
<path d="M3181 7294 c0 -11 3 -14 6 -6 3 7 2 16 -1 19 -3 4 -6 -2 -5 -13z"/>
<path d="M2008 7263 c7 -3 16 -2 19 1 4 3 -2 6 -13 5 -11 0 -14 -3 -6 -6z"/>
<path d="M5546 7214 c10 -8 13 -12 6 -9 -20 11 18 -59 80 -144 29 -40 59 -83
65 -95 7 -11 13 -15 13 -8 0 8 -10 28 -22 45 -13 18 -22 32 -21 32 5 0 -10 44
-36 104 -27 65 -54 93 -45 49 l5 -23 -11 23 c-5 13 -8 27 -6 31 3 4 -7 8 -22
9 -25 2 -25 2 -6 -14z"/>
<path d="M10056 6977 c3 -10 9 -15 12 -12 3 3 0 11 -7 18 -10 9 -11 8 -5 -6z"/>
<path d="M4255 6780 c-4 -6 -3 -16 3 -22 6 -6 12 -6 17 2 4 6 3 16 -3 22 -6 6
-12 6 -17 -2z"/>
<path d="M4884 6776 c-8 -22 3 -33 18 -18 9 9 9 15 0 24 -9 9 -13 7 -18 -6z"/>
<path d="M530 6660 l0 -120 64 0 c54 0 70 4 93 24 26 22 28 30 28 96 0 66 -2
74 -28 96 -23 20 -39 24 -93 24 l-64 0 0 -120z m131 80 c16 -9 19 -22 19 -78
0 -40 -5 -73 -12 -80 -7 -7 -31 -12 -55 -12 l-43 0 0 90 0 90 36 0 c19 0 44
-5 55 -10z"/>
<path d="M1852 6663 c2 -82 7 -118 16 -121 8 -2 12 8 12 32 0 20 4 36 8 36 4
0 23 -16 42 -35 19 -19 43 -35 54 -35 16 0 11 9 -29 50 l-49 49 29 23 c16 13
36 28 44 35 9 6 13 15 8 19 -4 4 -28 -7 -52 -24 -25 -18 -48 -32 -50 -32 -3 0
-5 27 -5 60 0 47 -3 60 -15 60 -13 0 -15 -17 -13 -117z"/>
<path d="M2540 6740 c0 -38 -1 -39 -24 -29 -59 27 -116 -32 -100 -105 11 -54
30 -66 96 -64 l58 3 0 118 c0 97 -3 117 -15 117 -11 0 -15 -11 -15 -40z m-12
-62 c17 -17 15 -84 -4 -102 -44 -44 -100 21 -75 87 8 21 17 27 39 27 15 0 33
-5 40 -12z"/>
<path d="M4140 6750 c0 -22 -6 -33 -22 -40 l-23 -9 23 -7 c20 -6 22 -13 22
-70 0 -52 3 -65 19 -74 29 -15 61 -12 61 5 0 9 -9 15 -25 15 -24 0 -25 3 -25
60 0 57 1 60 25 60 14 0 25 5 25 10 0 6 -11 10 -25 10 -22 0 -25 4 -25 35 0
24 -5 35 -15 35 -10 0 -15 -10 -15 -30z"/>
<path d="M4530 6660 c0 -100 3 -120 15 -120 10 0 15 11 15 35 0 19 4 35 8 35
4 0 23 -16 42 -35 19 -19 43 -35 54 -35 16 0 11 9 -29 50 l-49 49 29 23 c16
13 36 28 44 35 9 6 13 15 8 19 -4 4 -28 -7 -52 -24 -25 -18 -48 -32 -50 -32
-3 0 -5 27 -5 60 0 47 -3 60 -15 60 -12 0 -15 -20 -15 -120z"/>
<path d="M5080 6740 c0 -37 -2 -40 -19 -30 -55 29 -101 -7 -101 -78 0 -27 7
-57 16 -70 13 -19 23 -22 75 -20 l59 3 0 118 c0 97 -3 117 -15 117 -11 0 -15
-11 -15 -40z m-12 -62 c7 -7 12 -31 12 -55 0 -51 -26 -72 -66 -54 -19 8 -24
18 -24 50 0 22 3 46 6 55 7 19 55 21 72 4z"/>
<path d="M785 6695 c-32 -31 -34 -91 -4 -129 25 -32 86 -37 112 -8 22 24 10
35 -17 17 -27 -19 -51 -19 -70 1 -32 31 -20 44 42 44 32 0 61 3 64 6 10 10
-10 66 -29 80 -28 21 -71 17 -98 -11z m85 -15 c31 -31 24 -40 -30 -40 -54 0
-62 10 -33 42 21 23 38 23 63 -2z"/>
<path d="M967 6713 c-4 -3 -7 -44 -7 -90 0 -67 3 -83 15 -83 12 0 15 14 15 64
0 71 12 89 57 84 27 -3 28 -5 33 -72 3 -38 10 -71 16 -73 14 -5 25 85 15 123
-11 41 -51 62 -90 48 -17 -7 -33 -8 -38 -3 -5 5 -12 6 -16 2z"/>
<path d="M1189 6701 c-19 -16 -24 -29 -24 -69 0 -77 47 -113 106 -82 16 9 19
7 19 -13 0 -12 -5 -28 -12 -35 -17 -17 -67 -15 -74 3 -8 19 -34 20 -34 1 0
-39 93 -54 130 -21 18 16 20 31 20 127 0 98 -7 127 -25 98 -4 -7 -12 -7 -25 0
-28 15 -55 12 -81 -9z m91 -30 c17 -33 12 -78 -11 -95 -46 -32 -93 26 -70 87
8 21 17 27 40 27 20 0 34 -7 41 -19z"/>
<path d="M1392 6704 c-25 -17 -29 -34 -7 -34 8 0 15 4 15 9 0 16 38 23 60 11
32 -17 24 -37 -17 -45 -21 -3 -48 -13 -60 -21 -28 -18 -30 -59 -4 -74 26 -14
74 -13 89 2 9 9 12 9 12 0 0 -7 7 -12 15 -12 12 0 15 14 15 70 0 57 -4 74 -20
90 -24 24 -67 26 -98 4z m88 -87 c0 -7 -7 -23 -16 -35 -21 -30 -68 -27 -72 5
-3 18 4 24 30 32 47 13 58 13 58 -2z"/>
<path d="M1567 6713 c-4 -3 -7 -44 -7 -90 0 -67 3 -83 15 -83 11 0 15 12 15
49 0 74 13 101 49 101 39 0 51 -23 51 -94 0 -43 3 -56 15 -56 12 0 15 14 15
64 0 95 -41 137 -103 105 -16 -9 -22 -9 -25 0 -4 12 -15 14 -25 4z"/>
<path d="M2052 6704 c-23 -16 -29 -34 -11 -34 6 0 17 7 25 15 20 19 39 19 58
-1 24 -23 20 -31 -21 -39 -21 -3 -48 -13 -60 -21 -28 -18 -30 -59 -4 -74 27
-14 78 -13 85 3 5 10 7 10 12 0 3 -7 13 -13 21 -13 25 0 14 147 -12 166 -25
18 -65 18 -93 -2z m82 -96 c-11 -37 -25 -49 -53 -46 -18 2 -27 10 -29 25 -3
18 4 24 30 32 53 15 60 14 52 -11z"/>
<path d="M2217 6713 c-4 -3 -7 -44 -7 -90 0 -67 3 -83 15 -83 12 0 15 13 15
56 0 71 12 94 50 94 38 0 50 -23 50 -94 0 -43 3 -56 15 -56 25 0 21 120 -6
154 -22 28 -66 35 -87 14 -8 -8 -15 -8 -25 0 -8 7 -17 9 -20 5z"/>
<path d="M2626 6713 c-13 -13 -6 -129 9 -151 14 -19 24 -21 80 -20 l65 2 0 83
c0 72 -2 83 -17 83 -15 0 -18 -8 -15 -47 3 -56 -15 -97 -45 -101 -36 -5 -53
23 -53 88 0 55 -9 78 -24 63z"/>
<path d="M2837 6713 c-4 -3 -7 -44 -7 -90 0 -67 3 -83 15 -83 12 0 15 13 15
60 0 86 36 117 88 77 7 -6 12 -34 12 -73 0 -50 3 -64 15 -64 25 0 21 120 -6
154 -22 28 -65 35 -88 14 -11 -10 -14 -10 -18 0 -5 13 -16 16 -26 5z"/>
<path d="M3062 6700 c-30 -28 -31 -111 -2 -140 22 -22 69 -26 89 -7 10 10 12
5 9 -23 -3 -32 -6 -35 -37 -38 -23 -2 -37 2 -43 12 -9 16 -38 22 -38 9 0 -17
17 -32 44 -43 34 -13 91 2 100 26 3 9 6 63 6 120 0 98 -1 104 -18 95 -11 -6
-24 -6 -33 0 -23 15 -54 10 -77 -11z m86 -22 c7 -7 12 -31 12 -55 0 -36 -4
-45 -24 -54 -46 -21 -73 10 -66 76 4 42 50 61 78 33z"/>
<path d="M3268 6709 c-10 -5 -18 -17 -18 -24 0 -19 9 -19 31 1 24 21 69 11 69
-15 0 -14 -10 -21 -32 -26 -58 -12 -68 -16 -79 -36 -8 -16 -7 -26 6 -45 14
-22 22 -24 75 -22 l60 3 0 72 c0 63 -3 74 -22 87 -26 18 -65 20 -90 5z m80
-106 c-4 -37 -50 -55 -75 -30 -26 26 1 49 65 56 9 1 12 -8 10 -26z"/>
<path d="M3440 6630 c0 -73 3 -90 15 -90 12 0 15 14 15 64 0 71 12 89 57 84
28 -3 28 -4 31 -75 2 -56 6 -73 17 -73 12 0 15 15 15 70 0 57 -4 74 -20 90
-22 22 -51 26 -80 10 -13 -7 -21 -7 -25 0 -17 27 -25 2 -25 -80z"/>
<path d="M3749 6701 c-30 -24 -19 -39 13 -17 28 20 42 20 62 0 24 -23 20 -31
-21 -39 -53 -9 -83 -31 -83 -59 0 -36 21 -46 88 -44 l62 2 0 68 c0 55 -4 72
-20 88 -25 25 -71 26 -101 1z m86 -93 c-11 -37 -31 -51 -59 -44 -39 10 -35 43
7 55 52 15 59 14 52 -11z"/>
<path d="M3917 6713 c-4 -3 -7 -44 -7 -90 0 -67 3 -83 15 -83 11 0 15 12 15
49 0 74 13 101 49 101 39 0 51 -23 51 -94 0 -43 3 -56 15 -56 12 0 15 14 15
68 0 55 -4 73 -20 90 -23 24 -50 28 -83 11 -16 -9 -22 -9 -25 0 -4 12 -15 14
-25 4z"/>
<path d="M4256 6713 c-3 -3 -6 -44 -6 -90 0 -67 3 -83 15 -83 12 0 15 16 15
84 0 78 -7 105 -24 89z"/>
<path d="M4363 6708 c-31 -15 -45 -62 -33 -109 12 -43 33 -59 79 -59 46 0 71
30 71 88 0 53 -5 64 -37 81 -26 13 -51 13 -80 -1z m71 -24 c19 -18 22 -94 4
-112 -16 -16 -53 -15 -66 1 -29 37 -20 111 16 120 29 8 30 7 46 -9z"/>
<path d="M4720 6700 c-36 -36 -23 -60 46 -84 27 -9 39 -19 39 -32 0 -25 -35
-30 -74 -9 -27 13 -31 14 -31 1 0 -21 32 -36 74 -36 38 0 66 21 66 50 0 21
-35 50 -60 50 -9 0 -25 6 -36 14 -18 14 -18 16 -2 32 15 16 20 16 45 4 15 -8
31 -16 36 -18 4 -2 7 3 7 11 0 15 -41 37 -70 37 -11 0 -29 -9 -40 -20z"/>
<path d="M4886 6713 c-3 -3 -6 -44 -6 -90 0 -67 3 -83 15 -83 12 0 15 16 15
84 0 78 -7 105 -24 89z"/>
<path d="M5193 6708 c-13 -6 -23 -17 -23 -25 0 -17 10 -17 31 3 24 21 69 11
69 -15 0 -14 -10 -21 -32 -26 -58 -12 -68 -16 -79 -36 -17 -32 13 -69 54 -69
18 0 38 5 44 11 8 8 13 8 17 0 17 -27 26 -5 26 63 0 66 -3 77 -22 90 -26 18
-53 19 -85 4z m77 -101 c0 -44 -53 -65 -80 -32 -21 25 6 47 68 54 6 0 12 -9
12 -22z"/>
<path d="M5360 6630 c0 -73 3 -90 15 -90 12 0 15 14 15 64 0 71 12 89 57 84
28 -3 28 -4 31 -75 2 -56 6 -73 17 -73 12 0 15 16 15 74 0 66 -3 77 -22 90
-27 19 -59 21 -76 4 -9 -9 -15 -9 -24 0 -23 23 -28 11 -28 -78z"/>
<path d="M650 6329 c0 -35 -2 -40 -17 -34 -39 17 -60 16 -83 -3 -21 -17 -25
-29 -25 -75 0 -31 6 -61 14 -70 16 -20 81 -23 99 -5 9 9 12 9 12 0 0 -7 7 -12
15 -12 13 0 15 20 15 120 0 100 -2 120 -15 120 -11 0 -15 -11 -15 -41z m-16
-65 c34 -33 9 -114 -35 -114 -38 0 -62 68 -39 111 13 23 53 25 74 3z"/>
<path d="M1217 6364 c-4 -4 -7 -58 -7 -119 l0 -111 63 -2 c51 -2 67 2 81 17
21 23 25 91 7 125 -16 29 -61 42 -90 27 -30 -17 -33 -14 -29 26 3 34 -10 52
-25 37z m111 -96 c7 -7 12 -30 12 -53 0 -46 -13 -65 -46 -65 -26 0 -40 15 -49
53 -14 53 47 101 83 65z"/>
<path d="M1610 6250 c0 -100 3 -120 15 -120 12 0 15 14 15 64 0 71 12 89 57
84 28 -3 28 -4 31 -75 3 -66 5 -73 24 -73 19 0 20 5 16 71 -3 61 -7 74 -28 91
-23 19 -44 19 -82 3 -16 -6 -18 -1 -18 34 0 30 -4 41 -15 41 -12 0 -15 -20
-15 -120z"/>
<path d="M2710 6335 c0 -24 -5 -35 -15 -35 -8 0 -15 -4 -15 -10 0 -5 6 -10 14
-10 10 0 15 -18 18 -66 3 -42 9 -69 19 -75 18 -12 59 -12 59 0 0 5 -10 11 -22
13 -21 3 -23 9 -26 66 -3 61 -2 62 23 62 31 0 33 17 3 22 -18 2 -24 11 -26 36
-5 46 -32 43 -32 -3z"/>
<path d="M2820 6355 c0 -10 7 -15 18 -13 21 4 19 22 -2 26 -10 2 -16 -3 -16
-13z"/>
<path d="M3460 6354 c0 -9 7 -14 17 -12 25 5 28 28 4 28 -12 0 -21 -6 -21 -16z"/>
<path d="M764 6300 c-12 -5 -25 -14 -29 -20 -13 -21 5 -24 35 -7 23 14 34 15
50 7 32 -17 24 -38 -17 -46 -53 -9 -83 -30 -83 -58 0 -36 21 -46 88 -44 l62 2
0 66 c0 37 -5 73 -12 83 -16 20 -65 30 -94 17z m71 -119 c-7 -22 -45 -37 -70
-27 -26 10 -18 45 13 52 15 3 32 7 37 9 17 5 27 -12 20 -34z"/>
<path d="M927 6303 c-4 -3 -7 -44 -7 -90 0 -64 3 -83 14 -83 10 0 15 18 18 66
4 69 14 84 55 84 30 0 43 -28 43 -94 0 -43 3 -56 15 -56 12 0 15 14 15 65 0
57 -3 69 -25 90 -27 28 -46 31 -78 14 -16 -9 -22 -9 -25 0 -4 12 -15 14 -25 4z"/>
<path d="M1439 6291 c-32 -26 -19 -36 19 -14 25 14 32 15 46 4 24 -20 19 -40
-11 -47 -65 -14 -83 -26 -83 -54 0 -39 19 -50 83 -47 l57 2 0 72 c0 63 -3 74
-22 87 -30 21 -61 20 -89 -3z m81 -94 c0 -29 -18 -47 -46 -47 -25 0 -49 24
-39 39 5 9 52 27 78 30 4 1 7 -9 7 -22z"/>
<path d="M1839 6291 c-30 -24 -19 -39 13 -17 28 20 42 20 62 0 24 -24 19 -32
-21 -40 -53 -9 -83 -30 -83 -58 0 -36 21 -46 88 -44 l62 2 0 63 c0 55 -4 68
-25 88 -29 30 -64 32 -96 6z m77 -115 c-18 -28 -56 -35 -74 -13 -16 19 1 38
39 46 44 10 56 -1 35 -33z"/>
<path d="M2060 6300 c-8 -5 -25 -7 -37 -3 -23 5 -23 3 -23 -81 0 -70 3 -86 15
-86 12 0 15 13 15 59 0 63 15 91 50 91 35 0 50 -28 50 -91 0 -46 3 -59 15 -59
12 0 15 14 15 65 0 57 -3 69 -25 90 -25 26 -50 31 -75 15z"/>
<path d="M2323 6300 c-13 -5 -23 -16 -23 -25 0 -19 5 -19 35 1 18 12 28 13 44
4 33 -17 25 -38 -16 -46 -76 -13 -104 -52 -65 -87 13 -12 35 -16 75 -15 l57 2
0 72 c0 64 -3 75 -22 88 -25 18 -52 19 -85 6z m77 -103 c0 -31 -18 -47 -52
-47 -54 0 -45 54 10 63 15 2 30 5 35 6 4 0 7 -9 7 -22z"/>
<path d="M2497 6303 c-4 -3 -7 -44 -7 -90 0 -67 3 -83 15 -83 12 0 15 14 15
63 0 67 10 87 45 87 35 0 45 -20 45 -87 0 -49 3 -63 15 -63 12 0 15 14 15 66
0 36 -4 74 -10 84 -12 23 -52 33 -83 21 -15 -6 -28 -6 -34 0 -5 5 -12 6 -16 2z"/>
<path d="M3104 6300 c-12 -5 -25 -14 -29 -20 -13 -21 5 -24 35 -7 23 14 34 15
50 7 32 -17 24 -38 -17 -46 -54 -9 -83 -30 -83 -59 0 -33 26 -45 94 -43 l56 2
0 66 c0 37 -5 73 -12 83 -16 20 -65 30 -94 17z m76 -93 c0 -7 -7 -23 -16 -35
-21 -30 -68 -27 -72 5 -3 18 4 24 30 32 47 13 58 13 58 -2z"/>
<path d="M3299 6304 c-40 -12 -55 -102 -25 -149 18 -28 72 -35 95 -12 10 10
12 5 9 -23 -3 -32 -6 -35 -37 -38 -23 -2 -37 2 -43 12 -10 17 -38 22 -38 7 0
-33 75 -60 112 -40 35 19 38 27 38 135 0 99 -1 102 -22 102 -13 0 -34 3 -48 5
-14 3 -32 3 -41 1z m69 -36 c17 -17 15 -84 -4 -102 -35 -36 -78 -9 -78 49 0
18 6 40 13 49 16 19 52 21 69 4z"/>
<path d="M3610 6300 c-8 -5 -25 -7 -37 -3 -23 5 -23 3 -23 -81 0 -70 3 -86 15
-86 12 0 15 14 15 63 0 67 10 87 45 87 35 0 45 -20 45 -87 0 -49 3 -63 15 -63
12 0 15 14 15 70 0 57 -4 74 -20 90 -22 22 -46 25 -70 10z"/>
<path d="M3775 6285 c-17 -16 -25 -35 -25 -59 0 -75 41 -111 102 -88 25 9 28
8 28 -12 0 -44 -55 -63 -91 -30 -32 29 -46 10 -15 -20 23 -24 33 -27 64 -22
60 9 72 33 72 147 0 81 -3 99 -15 99 -8 0 -15 -5 -15 -11 0 -5 -10 -3 -22 5
-32 22 -55 20 -83 -9z m89 -21 c32 -32 8 -114 -34 -114 -42 0 -65 63 -40 111
13 23 53 25 74 3z"/>
<path d="M2820 6215 c0 -69 3 -85 15 -85 12 0 15 16 15 85 0 69 -3 85 -15 85
-12 0 -15 -16 -15 -85z"/>
<path d="M3460 6215 c0 -69 3 -85 15 -85 12 0 15 16 15 85 0 69 -3 85 -15 85
-12 0 -15 -16 -15 -85z"/>
<path d="M2910 6230 c0 -5 25 -10 55 -10 30 0 55 5 55 10 0 6 -25 10 -55 10
-30 0 -55 -4 -55 -10z"/>
<path d="M3955 6139 c-12 -54 17 -51 30 4 6 20 4 27 -8 27 -9 0 -18 -13 -22
-31z"/>
<path d="M5901 6094 c0 -11 3 -14 6 -6 3 7 2 16 -1 19 -3 4 -6 -2 -5 -13z"/>
<path d="M538 5954 c-5 -4 -8 -58 -8 -121 l0 -113 74 0 c66 0 77 3 90 22 20
28 20 57 1 85 -13 18 -13 22 0 33 20 17 19 43 -2 69 -14 16 -33 23 -83 27 -36
4 -68 3 -72 -2z m132 -45 c17 -31 -12 -59 -62 -59 -38 0 -38 0 -38 40 l0 40
45 0 c35 0 47 -4 55 -21z m-9 -89 c11 -6 19 -21 19 -35 0 -29 -26 -45 -74 -45
-36 0 -36 0 -36 45 0 45 0 45 36 45 19 0 44 -5 55 -10z"/>
<path d="M880 5945 c0 -8 9 -15 20 -15 11 0 20 7 20 15 0 8 -9 15 -20 15 -11
0 -20 -7 -20 -15z"/>
<path d="M1180 5840 c0 -100 3 -120 15 -120 12 0 15 14 15 63 0 67 10 87 46
87 33 0 43 -19 46 -90 4 -88 22 -83 26 7 2 63 0 75 -19 94 -20 20 -40 22 -81
4 -16 -6 -18 -1 -18 34 0 30 -4 41 -15 41 -12 0 -15 -20 -15 -120z"/>
<path d="M1400 5930 c0 -23 -5 -33 -20 -37 -11 -3 -20 -9 -20 -13 0 -4 9 -10
20 -13 17 -4 20 -14 20 -64 0 -66 11 -83 52 -83 33 0 38 17 6 22 -21 3 -23 9
-26 66 -3 61 -2 62 23 62 14 0 25 5 25 10 0 6 -11 10 -24 10 -20 0 -25 6 -28
32 -4 43 -28 50 -28 8z"/>
<path d="M1920 5945 c0 -8 7 -15 15 -15 8 0 15 7 15 15 0 8 -7 15 -15 15 -8 0
-15 -7 -15 -15z"/>
<path d="M2544 5950 c-38 -15 -54 -50 -54 -118 0 -53 4 -67 25 -87 19 -20 34
-25 74 -25 42 0 53 4 70 26 13 17 21 41 21 66 l0 39 -42 -3 c-49 -4 -66 -28
-19 -28 36 0 41 -21 15 -58 -17 -25 -60 -29 -89 -8 -23 17 -32 110 -13 146 18
34 76 40 103 10 17 -18 45 -28 45 -14 0 19 -24 43 -51 53 -37 13 -56 13 -85 1z"/>
<path d="M2730 5840 c0 -100 3 -120 15 -120 13 0 15 20 15 120 0 100 -2 120
-15 120 -12 0 -15 -20 -15 -120z"/>
<path d="M3367 5953 c-4 -3 -7 -57 -7 -120 0 -92 3 -113 15 -113 11 0 15 19
17 86 l3 85 55 -85 c30 -47 60 -86 66 -86 15 0 24 57 24 153 0 67 -2 77 -17
77 -16 0 -18 -9 -15 -80 2 -47 0 -80 -6 -80 -6 0 -31 33 -56 74 -48 77 -69
100 -79 89z"/>
<path d="M3590 5945 c0 -8 7 -15 15 -15 8 0 15 7 15 15 0 8 -7 15 -15 15 -8 0
-15 -7 -15 -15z"/>
<path d="M3890 5840 c0 -100 3 -120 15 -120 12 0 15 14 15 63 0 67 10 87 45
87 35 0 45 -20 45 -87 0 -49 3 -63 15 -63 12 0 15 14 15 70 0 57 -4 74 -20 90
-21 21 -65 27 -75 10 -13 -22 -25 -8 -25 30 0 29 -4 40 -15 40 -12 0 -15 -20
-15 -120z"/>
<path d="M4100 5925 c0 -24 -5 -35 -15 -35 -8 0 -15 -4 -15 -10 0 -5 7 -10 15
-10 12 0 15 -13 15 -56 0 -74 12 -94 55 -94 41 0 47 17 8 22 -27 3 -28 6 -31
66 -3 61 -2 62 23 62 31 0 33 17 3 22 -18 2 -24 11 -26 36 -5 46 -32 43 -32
-3z"/>
<path d="M4350 5948 c-38 -20 -51 -55 -47 -125 4 -83 22 -103 92 -103 41 0 56
5 73 23 22 23 30 57 14 57 -5 0 -18 -13 -30 -30 -25 -33 -65 -40 -98 -16 -15
12 -19 27 -19 79 0 76 14 97 60 97 24 0 39 -7 53 -25 22 -27 42 -33 42 -12 0
43 -93 79 -140 55z"/>
<path d="M760 5810 c0 -72 3 -90 15 -90 11 0 15 16 17 67 3 66 3 67 36 77 43
12 41 30 -3 23 -19 -3 -37 -1 -40 4 -17 26 -25 0 -25 -81z"/>
<path d="M985 5875 c-17 -16 -25 -35 -25 -59 0 -74 35 -106 100 -92 24 4 30 2
30 -12 0 -41 -57 -57 -91 -26 -31 28 -46 10 -17 -19 35 -35 80 -36 113 -2 23
22 25 31 25 123 0 102 -4 119 -26 101 -9 -7 -19 -7 -33 0 -30 17 -50 13 -76
-14z m89 -27 c31 -45 11 -108 -34 -108 -42 0 -65 63 -40 111 14 26 55 24 74
-3z"/>
<path d="M1535 5875 c-19 -18 -25 -35 -25 -67 0 -52 20 -84 57 -91 29 -5 93
18 93 34 0 12 -27 11 -35 -1 -11 -18 -64 -11 -75 10 -17 31 -4 40 61 40 l59 0
-6 28 c-8 35 -48 72 -80 72 -14 0 -36 -11 -49 -25z m96 -32 c8 -22 6 -23 -41
-23 -34 0 -50 4 -50 13 0 41 76 49 91 10z"/>
<path d="M1770 5890 c-8 -5 -25 -7 -37 -3 -23 5 -23 3 -23 -81 0 -70 3 -86 15
-86 12 0 15 14 15 63 0 67 11 87 45 87 37 0 47 -16 52 -84 7 -87 23 -85 23 4
0 57 -4 74 -20 90 -22 22 -46 25 -70 10z"/>
<path d="M2060 5890 c-8 -5 -25 -7 -37 -3 -23 5 -23 3 -23 -81 0 -70 3 -86 15
-86 12 0 15 13 15 59 0 62 15 91 48 91 36 0 46 -18 50 -84 3 -48 8 -66 18 -66
11 0 14 16 14 65 0 57 -3 69 -25 90 -25 26 -50 31 -75 15z"/>
<path d="M2243 5888 c-42 -21 -51 -109 -15 -150 18 -21 72 -24 91 -5 10 10 12
5 9 -23 -3 -33 -6 -35 -41 -38 -26 -2 -39 1 -43 12 -8 20 -34 21 -34 1 0 -26
47 -48 88 -42 55 9 62 26 62 144 0 100 -1 103 -22 102 -13 0 -34 2 -48 5 -14
3 -35 0 -47 -6z m77 -38 c6 -12 10 -37 8 -58 -2 -30 -8 -38 -31 -46 -21 -8
-31 -6 -44 7 -20 20 -22 79 -4 101 19 23 58 20 71 -4z"/>
<path d="M2835 5875 c-27 -26 -34 -89 -14 -126 24 -47 115 -42 137 7 44 95
-54 189 -123 119z m91 -31 c26 -39 9 -98 -29 -102 -16 -2 -35 2 -43 9 -17 14
-19 90 -2 107 20 20 56 14 74 -14z"/>
<path d="M3004 5889 c-3 -6 4 -46 16 -90 29 -101 49 -106 75 -19 10 33 21 60
24 60 3 0 14 -27 24 -61 24 -83 43 -77 74 21 27 89 27 90 9 90 -8 0 -21 -27
-33 -67 l-20 -68 -18 62 c-9 35 -24 68 -31 74 -15 12 -20 3 -45 -79 -15 -51
-21 -46 -43 31 -17 59 -20 64 -32 46z"/>
<path d="M3696 5877 c-31 -31 -36 -99 -10 -136 15 -21 22 -23 65 -18 55 7 65
-7 30 -42 -21 -21 -60 -18 -74 6 -8 14 -37 18 -37 6 1 -46 107 -68 138 -30 10
12 15 78 13 178 -1 42 -4 47 -23 47 -13 0 -35 3 -50 7 -21 6 -32 2 -52 -18z
m82 -19 c16 -16 16 -90 0 -106 -18 -18 -56 -14 -68 7 -14 27 -13 84 2 99 7 7
21 12 33 12 12 0 26 -5 33 -12z"/>
<path d="M4537 5893 c-4 -3 -7 -44 -7 -90 0 -64 3 -83 14 -83 10 0 16 20 21
66 6 61 9 67 36 77 40 15 37 31 -5 24 -18 -3 -38 -1 -43 4 -5 5 -12 6 -16 2z"/>
<path d="M4684 5877 c-22 -20 -27 -32 -27 -70 0 -62 22 -87 78 -87 30 0 47 6
61 22 19 21 19 21 -6 14 -62 -19 -77 -18 -93 5 -9 12 -14 26 -11 31 3 4 32 8
66 8 l61 0 -7 33 c-12 64 -73 86 -122 44z m84 -19 c26 -26 13 -38 -38 -38 -54
0 -55 1 -40 31 12 22 59 26 78 7z"/>
<path d="M4879 5881 c-13 -11 -21 -23 -17 -27 4 -4 14 -1 22 5 23 19 71 10 71
-14 0 -15 -9 -21 -38 -26 -49 -8 -82 -39 -72 -68 7 -23 50 -45 67 -35 5 3 25
6 44 6 l34 0 0 73 c0 65 -3 76 -22 89 -30 21 -61 20 -89 -3z m81 -95 c0 -31
-22 -48 -57 -44 -42 5 -38 40 7 55 48 16 50 16 50 -11z"/>
<path d="M5057 5893 c-4 -3 -7 -44 -7 -90 0 -66 3 -83 15 -83 11 0 15 16 17
66 3 74 21 99 56 78 13 -8 18 -27 20 -78 2 -49 7 -66 17 -66 10 0 15 17 17 66
2 51 7 70 21 78 34 21 52 -4 55 -78 2 -50 6 -66 17 -66 12 0 15 15 15 70 0 58
-3 72 -22 90 -26 24 -46 25 -76 4 -21 -15 -25 -15 -43 2 -17 15 -25 16 -49 7
-17 -6 -32 -7 -37 -2 -5 5 -12 6 -16 2z"/>
<path d="M890 5805 c0 -50 4 -85 10 -85 6 0 10 35 10 85 0 50 -4 85 -10 85 -6
0 -10 -35 -10 -85z"/>
<path d="M1920 5805 c0 -69 3 -85 15 -85 12 0 15 16 15 85 0 69 -3 85 -15 85
-12 0 -15 -16 -15 -85z"/>
<path d="M3592 5805 c2 -48 7 -85 13 -85 6 0 11 37 13 85 2 72 0 85 -13 85
-13 0 -15 -13 -13 -85z"/>
<path d="M6214 5748 c2 -7 6 -31 10 -53 4 -22 17 -60 29 -85 l22 -45 6 55 c4
46 2 57 -13 68 -10 7 -18 24 -18 36 0 13 -7 27 -16 30 -21 8 -23 8 -20 -6z"/>
<path d="M650 5510 c0 -39 -1 -40 -27 -33 -44 11 -67 6 -87 -19 -26 -32 -18
-114 14 -140 25 -21 61 -23 78 -6 8 8 15 8 25 0 8 -7 17 -9 20 -5 4 3 7 60 7
125 0 98 -3 118 -15 118 -11 0 -15 -11 -15 -40z m-18 -67 c38 -35 16 -113 -32
-113 -47 0 -67 61 -34 108 18 26 41 28 66 5z"/>
<path d="M1330 5515 c0 -24 -5 -35 -15 -35 -8 0 -15 -4 -15 -10 0 -5 7 -10 15
-10 11 0 15 -16 17 -67 3 -62 5 -69 30 -80 26 -13 58 -9 58 7 0 5 -12 10 -27
12 -27 3 -28 6 -31 66 -3 61 -2 62 23 62 14 0 25 5 25 10 0 6 -11 10 -25 10
-22 0 -25 4 -25 35 0 24 -5 35 -15 35 -10 0 -15 -11 -15 -35z"/>
<path d="M2330 5425 c0 -69 4 -125 8 -125 4 0 13 5 20 12 9 9 15 9 24 0 19
-19 57 -14 83 13 19 18 25 35 25 68 0 73 -42 106 -107 83 -21 -7 -23 -4 -23
33 0 30 -4 41 -15 41 -13 0 -15 -21 -15 -125z m108 27 c18 -12 26 -75 12 -101
-9 -17 -19 -21 -43 -19 -28 3 -33 8 -41 40 -15 60 28 107 72 80z"/>
<path d="M2950 5515 c0 -24 -5 -35 -15 -35 -8 0 -15 -4 -15 -10 0 -5 7 -10 15
-10 12 0 15 -14 15 -63 0 -70 10 -87 52 -87 33 0 38 17 6 22 -21 3 -23 9 -26
66 -3 61 -2 62 23 62 14 0 25 5 25 10 0 6 -11 10 -25 10 -22 0 -25 4 -25 35 0
24 -5 35 -15 35 -10 0 -15 -11 -15 -35z"/>
<path d="M5200 5535 c0 -8 7 -15 15 -15 8 0 15 7 15 15 0 8 -7 15 -15 15 -8 0
-15 -7 -15 -15z"/>
<path d="M763 5475 c-18 -8 -33 -19 -33 -25 0 -13 27 -13 35 0 10 16 62 12 69
-6 9 -23 -1 -34 -30 -34 -14 0 -38 -7 -54 -15 -63 -33 -15 -112 53 -87 20 8
35 8 42 2 19 -16 25 0 25 70 0 51 -4 71 -17 82 -28 24 -55 28 -90 13z m77
-100 c0 -21 -38 -57 -57 -53 -9 2 -21 11 -27 21 -9 15 -7 21 8 33 27 19 76 19
76 -1z"/>
<path d="M978 5475 c-16 -7 -28 -10 -28 -4 0 5 -7 9 -15 9 -12 0 -15 -20 -15
-120 0 -100 3 -120 15 -120 11 0 15 11 15 41 0 35 2 40 18 34 43 -19 61 -17
86 8 20 20 26 36 26 70 0 72 -48 111 -102 82z m56 -31 c19 -18 21 -85 4 -102
-31 -31 -88 3 -88 53 0 29 28 65 50 65 10 0 26 -7 34 -16z"/>
<path d="M1694 5474 c-18 -10 -31 -11 -39 -4 -7 6 -35 9 -64 8 l-51 -2 -2 -58
c-1 -32 -2 -70 -2 -85 -1 -36 28 -39 29 -3 1 14 2 46 3 72 2 43 5 48 29 54 38
10 53 -16 53 -94 0 -46 3 -63 13 -60 7 3 14 31 17 73 6 75 24 100 58 79 13 -9
18 -28 20 -83 4 -92 26 -94 30 -2 5 95 -33 136 -94 105z"/>
<path d="M1884 5478 c-79 -21 -64 -178 18 -178 24 0 78 28 78 40 0 15 -17 12
-45 -6 -23 -15 -27 -15 -50 0 -44 29 -32 45 38 48 l62 3 -3 30 c-6 55 -42 78
-98 63z m64 -45 c14 -23 14 -23 -37 -23 -35 0 -51 4 -51 13 0 41 63 47 88 10z"/>
<path d="M2583 5483 c-25 -5 -49 -30 -39 -40 4 -4 16 -2 26 5 28 17 67 15 74
-4 9 -23 -1 -34 -30 -34 -14 0 -38 -7 -54 -15 -63 -33 -15 -112 53 -87 20 8
35 8 42 2 19 -16 25 0 25 70 0 51 -4 71 -17 82 -22 19 -51 26 -80 21z m67
-102 c0 -39 -39 -68 -70 -51 -40 22 -14 59 43 60 15 0 27 -4 27 -9z"/>
<path d="M4097 5483 c-21 -5 -47 -53 -47 -87 0 -67 48 -109 99 -86 29 13 35 8
27 -23 -8 -34 -44 -42 -78 -17 -32 24 -38 25 -38 6 0 -21 39 -46 71 -46 14 0
38 9 53 21 25 20 26 24 26 124 l0 104 -27 -1 c-16 -1 -37 1 -48 4 -11 3 -28 3
-38 1z m61 -31 c18 -12 26 -75 13 -101 -15 -28 -55 -27 -75 1 -39 55 9 133 62
100z"/>
<path d="M4845 5474 c-14 -7 -25 -9 -25 -3 0 5 -7 9 -15 9 -12 0 -15 -17 -15
-90 0 -73 3 -90 15 -90 12 0 15 14 15 64 0 69 14 96 50 96 31 0 50 -39 50
-103 0 -42 3 -58 13 -55 19 7 22 125 3 153 -18 28 -58 36 -91 19z"/>
<path d="M1135 5460 c-14 -16 -15 -20 -4 -20 8 0 20 5 26 11 6 6 23 9 39 7 38
-4 41 -42 4 -46 -43 -5 -79 -23 -85 -43 -14 -45 42 -83 90 -61 15 7 26 8 30 2
16 -26 25 -4 25 61 0 93 -9 109 -64 109 -30 0 -48 -6 -61 -20z m95 -90 c0 -23
-44 -55 -65 -46 -46 17 -18 66 37 66 21 0 28 -5 28 -20z"/>
<path d="M2032 5393 c4 -100 21 -110 28 -17 6 74 24 99 58 78 12 -8 18 -29 22
-79 7 -91 30 -103 30 -15 0 69 12 100 39 100 30 0 40 -21 43 -90 2 -39 8 -65
16 -68 9 -3 12 15 12 68 0 92 -9 110 -60 110 -21 0 -42 -5 -45 -10 -5 -8 -11
-8 -19 -1 -7 6 -38 10 -70 9 l-57 -2 3 -83z"/>
<path d="M2723 5464 c-2 -6 -3 -44 -1 -85 2 -58 6 -74 18 -74 11 0 16 15 18
65 3 68 13 90 43 90 35 0 49 -28 49 -96 0 -50 3 -64 15 -64 22 0 21 127 -1
158 -13 20 -23 22 -76 20 -33 -1 -62 -7 -65 -14z"/>
<path d="M3070 5412 c0 -59 3 -72 23 -90 25 -24 48 -27 77 -12 13 7 21 7 25 0
17 -27 25 -2 25 80 0 73 -3 90 -15 90 -12 0 -15 -14 -15 -63 0 -67 -10 -87
-45 -87 -35 0 -45 20 -45 87 0 49 -3 63 -15 63 -12 0 -15 -14 -15 -68z"/>
<path d="M3353 5464 c-9 -25 2 -158 15 -162 9 -3 12 13 12 55 0 65 19 103 51
103 26 0 39 -37 39 -106 0 -83 24 -66 30 21 6 75 24 100 58 79 13 -9 18 -28
20 -83 4 -92 26 -94 30 -2 4 80 -14 111 -61 111 -18 0 -38 -5 -45 -12 -8 -8
-15 -8 -25 0 -18 15 -118 12 -124 -4z"/>
<path d="M3676 5458 c-25 -36 -21 -104 9 -133 13 -14 33 -25 44 -25 28 0 69
20 75 36 7 19 -6 18 -42 -3 -29 -17 -31 -17 -51 1 -37 34 -27 46 39 46 59 0
60 0 60 28 0 48 -25 72 -75 72 -34 0 -47 -5 -59 -22z m102 -25 c14 -23 14 -23
-37 -23 -35 0 -51 4 -51 13 0 41 63 47 88 10z"/>
<path d="M3860 5387 c0 -66 3 -88 13 -85 7 3 13 29 15 68 3 71 13 90 47 90 34
0 44 -19 47 -90 2 -39 8 -65 16 -68 9 -3 12 16 12 71 0 96 -10 107 -91 105
l-59 -2 0 -89z"/>
<path d="M4270 5410 c0 -57 4 -74 20 -90 22 -22 51 -26 80 -10 13 7 21 7 25 0
17 -27 25 -2 25 80 0 73 -3 90 -15 90 -12 0 -15 -14 -15 -63 0 -67 -10 -87
-45 -87 -35 0 -45 20 -45 87 0 49 -3 63 -15 63 -12 0 -15 -14 -15 -70z"/>
<path d="M4472 5392 c2 -56 7 -87 15 -89 9 -3 13 17 15 68 l3 73 33 8 c48 13
39 27 -18 26 l-51 -1 3 -85z"/>
<path d="M4610 5465 c-17 -21 -4 -32 20 -17 26 16 55 15 70 -3 17 -21 6 -32
-40 -38 -22 -3 -47 -11 -55 -17 -24 -20 -18 -58 11 -77 22 -14 31 -15 57 -5
23 9 33 9 38 1 15 -25 29 5 29 64 0 83 -17 107 -74 107 -27 0 -48 -6 -56 -15z
m100 -90 c0 -19 -35 -55 -54 -55 -21 0 -46 28 -40 45 10 26 94 35 94 10z"/>
<path d="M5005 5450 c-29 -56 -13 -120 35 -140 21 -9 34 -9 48 -1 29 15 32 14
32 -14 0 -40 -73 -56 -87 -19 -7 19 -33 18 -33 0 0 -43 95 -61 130 -26 17 17
20 33 20 123 l0 103 -65 2 c-62 2 -65 1 -80 -28z m99 -6 c35 -34 11 -114 -34
-114 -22 0 -50 36 -50 65 0 29 28 65 50 65 10 0 26 -7 34 -16z"/>
<path d="M5202 5393 c2 -58 7 -88 16 -91 9 -3 12 19 12 87 0 75 -3 91 -15 91
-13 0 -15 -14 -13 -87z"/>
<path d="M546 5124 c-3 -9 -6 -24 -6 -35 0 -10 -7 -19 -15 -19 -8 0 -15 -4
-15 -10 0 -5 6 -10 14 -10 10 0 15 -19 18 -66 4 -71 23 -98 62 -92 30 5 32 28
2 28 -25 0 -26 3 -26 55 0 30 -1 58 -2 63 -2 4 7 8 20 10 12 2 22 7 22 12 0 5
-10 10 -22 12 -18 2 -24 11 -26 36 -3 34 -16 42 -26 16z"/>
<path d="M1360 5125 c0 -8 7 -15 15 -15 8 0 15 7 15 15 0 8 -7 15 -15 15 -8 0
-15 -7 -15 -15z"/>
<path d="M1444 5127 c-11 -28 1 -230 14 -235 9 -3 12 26 12 122 0 80 -4 126
-10 126 -6 0 -13 -6 -16 -13z"/>
<path d="M2530 5125 c0 -8 7 -15 15 -15 8 0 15 7 15 15 0 8 -7 15 -15 15 -8 0
-15 -7 -15 -15z"/>
<path d="M2880 5015 c0 -104 2 -125 15 -125 12 0 15 14 15 64 0 68 14 96 49
96 29 0 38 -20 43 -87 5 -67 12 -83 29 -66 7 7 10 37 7 78 -5 82 -21 99 -85
92 l-43 -5 0 39 c0 28 -4 39 -15 39 -13 0 -15 -21 -15 -125z"/>
<path d="M3274 5127 c-11 -28 1 -230 14 -235 9 -3 12 26 12 122 0 80 -4 126
-10 126 -6 0 -13 -6 -16 -13z"/>
<path d="M3904 5127 c-10 -27 1 -230 13 -234 8 -3 13 11 15 37 l3 42 47 -41
c25 -23 49 -41 52 -41 18 0 1 30 -36 62 l-43 37 45 40 c54 48 32 57 -26 10
l-39 -31 -3 66 c-3 61 -15 85 -28 53z"/>
<path d="M4627 5133 c-4 -3 -7 -19 -7 -35 0 -18 -5 -28 -15 -28 -8 0 -15 -4
-15 -10 0 -5 7 -10 15 -10 12 0 15 -13 15 -58 0 -32 6 -66 13 -75 15 -21 68
-27 74 -9 3 7 -5 12 -21 12 -30 0 -39 24 -34 86 2 32 7 40 26 42 30 5 28 22
-3 22 -22 0 -25 4 -25 35 0 33 -8 43 -23 28z"/>
<path d="M3118 5068 c-25 -9 -44 -35 -33 -46 3 -3 13 2 23 11 22 20 53 22 70
5 22 -22 12 -35 -29 -42 -58 -9 -79 -23 -79 -51 0 -42 69 -72 98 -43 10 10 15
10 21 -1 18 -28 31 1 31 68 0 52 -4 71 -17 83 -25 21 -53 26 -85 16z m72 -103
c0 -18 -35 -55 -53 -55 -17 0 -37 20 -37 37 0 15 34 31 68 32 13 1 22 -5 22
-14z"/>
<path d="M676 5051 c-21 -23 -6 -36 20 -16 27 20 62 18 74 -4 12 -23 8 -26
-43 -35 -68 -12 -92 -59 -49 -93 19 -16 64 -17 79 -2 8 8 13 8 17 0 17 -27 26
-5 26 67 0 47 -5 83 -12 90 -19 19 -92 15 -112 -7z m94 -89 c0 -11 -9 -27 -20
-37 -17 -15 -24 -16 -46 -6 -30 13 -27 31 7 48 35 18 59 16 59 -5z"/>
<path d="M850 4977 c0 -66 3 -88 13 -85 7 3 13 29 15 72 3 60 6 68 27 78 41
18 55 -3 55 -83 0 -55 3 -69 15 -69 12 0 15 13 15 61 0 68 12 99 39 99 30 0
40 -21 43 -90 2 -39 8 -65 16 -68 20 -6 17 142 -4 162 -18 18 -56 21 -85 5
-14 -7 -24 -7 -33 0 -6 5 -35 9 -64 9 l-52 -1 0 -90z"/>
<path d="M1160 4950 c0 -100 3 -120 15 -120 11 0 15 11 15 40 0 37 2 40 19 30
32 -17 60 -12 88 16 22 22 25 32 21 76 -4 34 -12 56 -24 65 -22 16 -76 17 -92
1 -9 -9 -12 -9 -12 0 0 7 -7 12 -15 12 -12 0 -15 -20 -15 -120z m114 78 c47
-66 -22 -152 -71 -90 -29 35 -3 112 37 112 10 0 26 -10 34 -22z"/>
<path d="M1360 4980 c0 -73 3 -90 15 -90 12 0 15 17 15 90 0 73 -3 90 -15 90
-12 0 -15 -17 -15 -90z"/>
<path d="M1542 5058 c-14 -14 -16 -38 -3 -38 5 0 14 7 21 15 18 21 57 19 70
-4 12 -24 6 -28 -49 -37 -52 -8 -79 -41 -61 -73 13 -26 54 -37 85 -23 15 7 26
8 30 2 4 -6 10 -10 16 -10 14 0 11 154 -3 168 -7 7 -30 12 -53 12 -23 0 -46
-5 -53 -12z m88 -103 c0 -32 -34 -51 -66 -36 -47 21 -19 55 49 60 12 1 17 -6
17 -24z"/>
<path d="M1720 4978 c0 -72 3 -88 15 -88 12 0 15 14 15 64 0 68 14 96 49 96
30 0 40 -22 43 -90 2 -39 8 -65 16 -68 9 -3 12 16 12 71 0 94 -12 108 -93 104
l-57 -2 0 -87z"/>
<path d="M2021 5044 c-55 -70 9 -180 85 -145 20 9 24 8 24 -5 0 -51 -51 -71
-85 -34 -21 24 -35 26 -35 6 0 -43 95 -61 130 -26 17 17 20 33 20 125 0 87 -3
105 -15 105 -8 0 -15 -5 -15 -12 0 -9 -3 -9 -12 0 -22 22 -75 14 -97 -14z m93
-10 c31 -31 14 -114 -24 -114 -35 0 -49 12 -56 46 -12 63 41 108 80 68z"/>
<path d="M2224 5056 c-14 -11 -16 -18 -8 -26 8 -8 14 -7 24 5 16 20 66 20 74
-1 11 -28 7 -32 -39 -38 -25 -4 -52 -14 -60 -23 -40 -39 17 -98 75 -76 17 6
32 7 36 2 15 -25 24 -2 24 64 0 59 -4 77 -18 90 -23 21 -81 22 -108 3z m96
-91 c0 -18 -35 -55 -53 -55 -17 0 -37 20 -37 37 0 15 34 31 68 32 13 1 22 -5
22 -14z"/>
<path d="M2402 4982 c2 -57 7 -87 16 -90 9 -3 12 12 12 53 0 69 13 95 45 95
15 0 25 6 25 14 0 11 -13 15 -50 14 l-51 -1 3 -85z"/>
<path d="M2530 4980 c0 -73 3 -90 15 -90 12 0 15 17 15 90 0 73 -3 90 -15 90
-12 0 -15 -17 -15 -90z"/>
<path d="M2628 5059 c-21 -12 -24 -54 -6 -66 7 -4 31 -15 52 -23 48 -18 56
-36 22 -51 -20 -10 -30 -9 -50 5 -31 20 -36 20 -36 1 0 -19 31 -35 69 -35 32
0 71 29 71 53 0 20 -30 43 -65 51 -43 11 -58 25 -44 42 14 17 43 18 69 2 26
-16 40 0 16 18 -23 16 -73 18 -98 3z"/>
<path d="M3350 5013 c0 -32 6 -69 13 -83 17 -33 61 -49 89 -31 16 10 22 10 28
1 18 -29 30 5 30 86 0 68 -3 84 -15 84 -12 0 -15 -13 -15 -56 0 -71 -12 -94
-50 -94 -38 0 -50 23 -50 94 0 43 -3 56 -15 56 -12 0 -15 -13 -15 -57z"/>
<path d="M3576 5054 c-19 -19 -21 -50 -4 -61 7 -4 31 -15 52 -23 48 -18 56
-36 22 -51 -20 -10 -30 -9 -50 5 -31 19 -36 20 -36 3 0 -17 42 -37 75 -37 27
0 65 32 65 54 0 19 -27 39 -69 51 -26 8 -36 16 -36 30 0 24 30 31 61 14 30
-16 46 -2 20 17 -26 19 -81 18 -100 -2z"/>
<path d="M4091 5044 c-66 -84 29 -201 110 -135 34 27 16 38 -25 16 -34 -19
-36 -19 -55 0 -37 33 -27 45 38 45 33 0 63 5 66 10 4 6 -2 27 -12 48 -16 33
-23 37 -59 40 -35 3 -45 -1 -63 -24z m93 -16 c8 -12 13 -25 10 -30 -8 -12 -94
-10 -94 3 0 47 57 66 84 27z"/>
<path d="M4270 4978 c0 -72 3 -88 15 -88 12 0 15 14 15 63 0 71 6 84 39 88 14
2 26 9 28 16 3 8 -11 12 -46 11 l-51 -1 0 -89z"/>
<path d="M4397 5033 c-8 -49 7 -114 29 -130 21 -16 49 -17 74 -3 13 7 21 7 25
0 17 -27 25 -2 25 80 0 73 -3 90 -15 90 -12 0 -15 -14 -15 -64 0 -55 -3 -67
-21 -80 -22 -15 -48 -11 -61 8 -4 6 -8 39 -8 74 0 46 -4 62 -14 62 -8 0 -16
-15 -19 -37z"/>
<path d="M4752 5058 c-15 -15 -16 -38 -2 -38 6 0 13 7 16 15 9 22 61 19 74 -4
12 -24 8 -27 -48 -36 -52 -8 -80 -42 -62 -74 13 -26 54 -37 85 -23 15 7 26 8
30 2 4 -6 10 -10 16 -10 14 0 11 154 -3 168 -7 7 -30 12 -53 12 -23 0 -46 -5
-53 -12z m88 -97 c0 -21 -25 -51 -41 -51 -20 0 -49 21 -49 36 0 16 32 32 68
33 15 1 22 -5 22 -18z"/>
<path d="M4930 4977 c0 -66 3 -88 13 -85 7 3 13 29 15 72 3 60 5 68 28 78 43
20 58 1 64 -77 3 -42 10 -70 18 -73 9 -3 12 16 12 71 0 94 -12 107 -93 105
l-57 -2 0 -89z"/>
<path d="M3736 4908 c-9 -34 -8 -38 9 -38 8 0 15 3 15 8 0 4 3 17 6 30 5 16 2
22 -9 22 -8 0 -17 -10 -21 -22z"/>
<path d="M5136 4904 c-4 -15 -4 -29 -1 -33 8 -7 35 28 35 46 0 24 -28 13 -34
-13z"/>
<path d="M1920 4710 c0 -15 5 -20 18 -18 9 2 17 10 17 18 0 8 -8 16 -17 18
-13 2 -18 -3 -18 -18z"/>
<path d="M3444 4719 c-10 -17 13 -36 27 -22 12 12 4 33 -11 33 -5 0 -12 -5
-16 -11z"/>
<path d="M3705 4720 c-7 -12 2 -30 16 -30 5 0 9 9 9 20 0 21 -15 27 -25 10z"/>
<path d="M4840 4709 c0 -24 23 -21 28 4 2 10 -3 17 -12 17 -10 0 -16 -9 -16
-21z"/>
<path d="M650 4681 c0 -39 0 -39 -28 -29 -39 15 -76 4 -90 -27 -31 -68 2 -145
62 -145 17 0 37 5 44 12 9 9 12 9 12 0 0 -7 7 -12 15 -12 13 0 15 20 15 120 0
100 -2 120 -15 120 -11 0 -15 -11 -15 -39z m-22 -57 c16 -11 22 -25 22 -54 0
-29 -6 -43 -22 -54 -12 -9 -26 -16 -30 -16 -19 0 -48 43 -48 70 0 27 29 70 48
70 4 0 18 -7 30 -16z"/>
<path d="M2860 4600 c0 -100 3 -120 15 -120 13 0 15 20 15 120 0 100 -2 120
-15 120 -12 0 -15 -20 -15 -120z"/>
<path d="M3330 4691 c0 -24 -4 -31 -20 -31 -11 0 -20 -4 -20 -10 0 -5 6 -10
14 -10 19 0 26 -22 26 -86 0 -48 3 -56 24 -66 26 -11 56 -5 56 12 0 5 -11 10
-24 10 -23 0 -24 4 -28 60 -3 52 -1 60 16 62 27 4 33 28 7 28 -14 0 -21 8 -23
27 -4 39 -28 42 -28 4z"/>
<path d="M3800 4690 c0 -20 -5 -30 -15 -30 -8 0 -15 -5 -15 -10 0 -6 7 -13 15
-16 11 -5 15 -22 15 -64 0 -62 18 -90 58 -90 29 0 28 28 0 32 -20 3 -23 10
-26 60 -3 52 -1 57 19 60 33 4 36 28 5 28 -22 0 -26 4 -26 30 0 20 -5 30 -15
30 -10 0 -15 -10 -15 -30z"/>
<path d="M4370 4600 c0 -100 3 -120 15 -120 11 0 15 11 15 42 l0 42 43 -42
c23 -23 51 -42 62 -42 15 0 8 11 -30 51 l-50 50 40 34 c53 45 37 57 -20 16
l-45 -32 0 60 c0 48 -3 61 -15 61 -12 0 -15 -20 -15 -120z"/>
<path d="M4750 4600 c0 -100 3 -120 15 -120 13 0 15 20 15 120 0 100 -2 120
-15 120 -12 0 -15 -20 -15 -120z"/>
<path d="M4934 4690 c3 -24 0 -30 -15 -30 -22 0 -25 -15 -5 -27 8 -5 15 -32
18 -67 5 -62 25 -90 61 -84 24 4 23 22 -2 26 -21 3 -31 29 -31 85 0 33 3 37
25 37 16 0 25 6 25 15 0 9 -9 15 -25 15 -21 0 -25 5 -25 30 0 20 -5 30 -15 30
-10 0 -14 -9 -11 -30z"/>
<path d="M745 4640 c-23 -25 -12 -39 13 -17 22 20 53 22 70 5 22 -22 12 -35
-29 -42 -57 -9 -79 -23 -79 -50 0 -45 55 -70 101 -46 13 7 19 7 19 0 0 -5 7
-10 15 -10 22 0 21 127 -1 158 -20 29 -83 31 -109 2z m95 -85 c0 -24 -39 -57
-63 -53 -33 5 -30 50 3 59 42 12 60 10 60 -6z"/>
<path d="M920 4570 c0 -73 3 -90 15 -90 11 0 15 12 15 49 0 90 30 127 76 96
21 -14 24 -23 24 -80 0 -51 3 -65 15 -65 22 0 21 127 -1 158 -17 24 -61 30
-95 12 -13 -7 -19 -7 -19 0 0 5 -7 10 -15 10 -12 0 -15 -17 -15 -90z"/>
<path d="M1213 4644 c-9 -25 2 -158 15 -162 9 -3 12 13 12 55 0 133 85 141 89
8 2 -65 4 -70 20 -60 6 3 11 34 11 69 0 80 26 109 64 70 11 -11 16 -35 16 -80
0 -50 3 -64 15 -64 22 0 21 127 -1 158 -17 24 -71 31 -92 10 -8 -8 -15 -8 -25
0 -18 15 -118 12 -124 -4z"/>
<path d="M1531 4634 c-46 -59 -11 -154 56 -154 30 0 73 24 73 41 0 14 -26 11
-40 -6 -17 -20 -43 -19 -63 3 -30 33 -21 42 42 42 33 0 62 4 65 9 9 14 -15 71
-34 81 -35 19 -77 12 -99 -16z m93 -16 c21 -29 12 -38 -40 -38 -48 0 -57 15
-28 44 22 22 50 20 68 -6z"/>
<path d="M1710 4570 c0 -73 3 -90 15 -90 12 0 15 14 15 65 0 57 3 66 24 80 40
26 66 6 68 -53 1 -26 2 -56 2 -66 1 -11 6 -21 12 -23 7 -2 14 20 17 57 7 60
-2 96 -27 112 -17 12 -71 9 -83 -3 -8 -8 -13 -8 -17 0 -18 28 -26 3 -26 -79z"/>
<path d="M1927 4653 c-4 -3 -7 -51 -7 -106 0 -90 -2 -99 -20 -104 -27 -7 -25
-23 3 -23 41 0 47 17 47 132 0 99 -5 120 -23 101z"/>
<path d="M2027 4642 c-24 -26 -11 -33 24 -14 22 13 33 14 46 6 34 -21 27 -41
-18 -48 -57 -9 -79 -23 -79 -50 0 -45 67 -74 99 -43 11 10 14 10 18 0 3 -7 11
-13 19 -13 21 0 19 128 -2 158 -20 28 -83 31 -107 4z m93 -86 c0 -8 -8 -24
-18 -36 -25 -31 -75 -21 -70 12 4 31 88 53 88 24z"/>
<path d="M2206 4641 c-13 -14 -16 -33 -14 -71 2 -44 8 -56 31 -74 23 -17 32
-19 57 -9 29 11 30 10 30 -17 0 -43 -53 -56 -85 -20 -13 15 -22 17 -29 10 -16
-17 29 -50 68 -50 17 0 42 7 54 16 20 14 22 23 22 125 0 106 -4 121 -27 98 -8
-8 -13 -8 -17 0 -12 18 -71 13 -90 -8z m88 -17 c24 -24 21 -89 -6 -108 -55
-39 -102 59 -52 109 20 19 39 19 58 -1z"/>
<path d="M2422 4644 c-30 -21 -17 -38 13 -18 31 20 75 11 75 -15 0 -14 -10
-21 -37 -26 -76 -13 -104 -53 -65 -88 21 -19 73 -22 89 -6 8 8 13 8 17 0 17
-27 26 -5 26 62 0 59 -4 77 -18 90 -23 21 -71 22 -100 1z m88 -91 c0 -22 -29
-53 -50 -53 -23 0 -44 26 -37 44 5 13 28 21 70 25 10 0 17 -6 17 -16z"/>
<path d="M2681 4634 c-66 -84 30 -200 110 -135 30 24 19 39 -13 17 -12 -9 -30
-16 -40 -16 -16 0 -48 35 -48 52 0 5 30 8 66 8 l67 0 -7 32 c-9 47 -33 68 -77
68 -29 0 -42 -6 -58 -26z m91 -11 c33 -29 22 -43 -32 -43 -54 0 -62 10 -33 42
20 22 41 23 65 1z"/>
<path d="M2967 4642 c-24 -26 -11 -33 24 -14 22 13 33 14 46 6 33 -21 27 -41
-14 -49 -76 -13 -104 -53 -65 -88 21 -19 54 -22 83 -7 13 7 19 7 19 0 0 -5 7
-10 15 -10 24 0 21 141 -3 163 -25 23 -85 22 -105 -1z m93 -85 c0 -22 -30 -57
-49 -57 -23 0 -45 25 -38 44 9 23 87 34 87 13z"/>
<path d="M3146 4644 c-9 -8 -16 -24 -16 -34 0 -21 35 -50 60 -50 9 0 25 -6 35
-14 16 -12 17 -16 6 -30 -17 -20 -55 -21 -71 -1 -16 19 -30 19 -30 0 0 -36 87
-48 120 -15 36 36 23 60 -46 82 -28 9 -39 19 -39 33 0 24 29 31 61 14 30 -16
46 -2 20 17 -26 19 -81 18 -100 -2z"/>
<path d="M3450 4570 c0 -69 3 -91 13 -87 8 2 12 29 12 87 0 58 -4 85 -12 88
-10 3 -13 -19 -13 -88z"/>
<path d="M3535 4640 c-26 -29 -9 -59 45 -79 47 -17 57 -36 27 -55 -13 -8 -24
-7 -49 7 -38 22 -52 12 -19 -14 30 -24 83 -25 104 -1 33 37 14 68 -52 87 -26
8 -36 16 -36 30 0 24 30 31 61 14 30 -16 46 -2 20 17 -29 20 -80 18 -101 -6z"/>
<path d="M3707 4653 c-4 -3 -7 -44 -7 -90 0 -67 3 -83 15 -83 12 0 15 17 15
90 0 83 -5 101 -23 83z"/>
<path d="M3937 4642 c-24 -26 -11 -33 24 -14 22 13 33 14 46 6 33 -21 27 -41
-14 -47 -47 -8 -83 -32 -83 -56 0 -41 69 -67 99 -38 11 10 14 10 18 0 3 -7 11
-13 19 -13 21 0 19 128 -2 158 -20 28 -83 31 -107 4z m93 -85 c0 -22 -30 -57
-49 -57 -23 0 -45 25 -38 44 9 23 87 34 87 13z"/>
<path d="M4126 4644 c-9 -8 -16 -24 -16 -34 0 -21 35 -50 60 -50 9 0 25 -6 35
-14 16 -12 17 -16 6 -30 -17 -20 -55 -21 -71 -1 -14 17 -40 20 -40 6 0 -18 44
-41 77 -41 32 0 73 28 73 50 0 16 -39 50 -58 50 -10 0 -28 7 -40 16 -43 30 12
60 58 32 26 -16 39 -2 14 17 -25 19 -79 19 -98 -1z"/>
<path d="M4540 4596 c0 -49 5 -69 21 -90 22 -28 65 -35 88 -13 11 10 14 10 18
0 3 -7 11 -13 19 -13 12 0 14 16 12 87 -2 58 -7 88 -15 91 -9 2 -13 -11 -13
-47 0 -63 -13 -97 -40 -106 -39 -12 -60 19 -60 92 0 49 -3 63 -15 63 -12 0
-15 -14 -15 -64z"/>
<path d="M4840 4571 c0 -75 3 -91 15 -91 13 0 15 14 13 87 -2 58 -7 88 -15 91
-10 3 -13 -19 -13 -87z"/>
<path d="M5052 4503 c5 -26 38 -29 38 -4 0 15 -6 21 -21 21 -14 0 -19 -5 -17
-17z"/>
<path d="M10775 2780 c-19 -37 -19 -40 5 -40 16 0 20 7 20 35 0 43 -5 44 -25
5z"/>
<path d="M10740 2710 c0 -5 6 -10 14 -10 8 0 21 -3 30 -6 11 -4 16 -1 16 10 0
11 -9 16 -30 16 -16 0 -30 -4 -30 -10z"/>
<path d="M4393 2413 c9 -2 25 -2 35 0 9 3 1 5 -18 5 -19 0 -27 -2 -17 -5z"/>
<path d="M4700 2409 c161 -12 313 -44 379 -80 60 -32 83 -32 30 0 -83 51 -291
92 -449 89 -68 -1 -64 -2 40 -9z"/>
<path d="M4095 2338 c-39 -14 -85 -46 -85 -60 0 -6 8 -4 18 6 11 9 41 27 68
41 51 25 51 31 -1 13z"/>
<path d="M4020 2185 c0 -7 59 -30 95 -38 19 -4 10 3 -24 18 -53 25 -71 30 -71
20z"/>
<path d="M4124 2116 c11 -9 27 -16 35 -15 14 0 14 1 1 6 -8 3 -24 10 -35 15
-20 9 -20 9 -1 -6z"/>
<path d="M4615 2010 c3 -5 -3 -10 -14 -10 -11 0 -43 -22 -70 -49 -51 -51 -75
-106 -69 -159 l3 -27 121 -3 c153 -3 155 -2 155 147 0 67 -22 94 -75 95 -20 1
-36 4 -36 9 0 4 -5 7 -11 7 -5 0 -7 -4 -4 -10z"/>
<path d="M3940 1887 c0 -10 14 -32 30 -49 21 -21 29 -36 25 -49 -5 -15 3 -23
42 -40 26 -11 60 -23 75 -26 26 -5 28 -4 25 28 -2 30 -9 37 -57 61 -30 15 -63
27 -72 27 -9 1 -28 16 -42 34 -20 24 -26 28 -26 14z"/>
<path d="M5162 1859 c-13 -16 -19 -29 -13 -29 11 0 47 48 40 54 -2 2 -14 -10
-27 -25z"/>
<path d="M4928 1771 c-53 -9 -100 -19 -104 -23 -4 -5 -16 -8 -26 -8 -10 0 -18
-4 -18 -10 0 -5 10 -9 23 -7 16 1 21 -3 19 -15 -4 -22 10 -23 96 -2 77 19 105
36 40 24 -61 -12 -59 -5 5 14 30 9 57 23 61 31 3 8 4 14 3 14 -1 -1 -46 -9
-99 -18z"/>
<path d="M4320 1733 c0 -7 -8 -13 -17 -14 -11 0 -7 -5 11 -11 21 -8 25 -13 15
-19 -10 -6 -8 -9 9 -9 19 0 22 4 17 22 -7 20 -5 21 51 14 43 -4 63 -12 73 -26
12 -18 25 -20 118 -20 97 0 105 2 110 20 3 11 16 23 29 26 38 10 28 22 -23 29
-85 11 -393 2 -393 -12z"/>
<path d="M4263 1693 c9 -2 23 -2 30 0 6 3 -1 5 -18 5 -16 0 -22 -2 -12 -5z"/>
<path d="M4810 1651 c-6 -16 -23 -38 -36 -48 -29 -21 -30 -30 -6 -36 12 -4 11
-5 -6 -6 -12 0 -25 -8 -29 -17 -4 -12 -8 -13 -14 -3 -6 10 -11 10 -23 0 -13
-11 -16 -11 -16 0 0 11 -2 11 -9 0 -7 -12 -13 -12 -24 -3 -11 10 -16 7 -25
-14 -18 -37 -15 -44 18 -44 17 0 30 -4 30 -10 0 -5 -13 -10 -30 -10 -27 0 -30
-3 -30 -29 0 -26 4 -30 33 -34 l32 -4 -32 -1 c-53 -3 -38 -21 20 -25 l52 -3
-52 -2 c-32 -1 -53 -7 -53 -14 0 -15 170 -4 259 18 74 18 110 40 49 30 -21 -3
-55 -8 -75 -11 l-38 -5 33 12 c17 6 32 17 32 24 0 7 13 15 30 19 37 8 49 25
18 26 -13 0 -17 3 -10 6 21 8 13 23 -12 23 -52 0 -35 29 17 31 12 0 16 3 10 6
-15 6 -17 39 -3 48 5 3 18 1 29 -5 11 -6 22 -6 25 -1 9 14 -44 23 -60 10 -8
-6 -14 -20 -14 -30 0 -11 -7 -19 -16 -19 -10 0 -14 7 -12 23 2 15 -2 22 -13
21 -12 -1 -14 6 -10 30 4 26 6 27 9 9 2 -13 7 -23 12 -23 5 0 11 10 13 23 l4
22 2 -23 c2 -33 24 -22 28 14 3 23 -2 31 -24 42 -45 20 -69 15 -83 -17z m-129
-154 c-10 -9 -11 -8 -5 6 3 10 9 15 12 12 3 -3 0 -11 -7 -18z m32 -64 c-7 -2
-21 -2 -30 0 -10 3 -4 5 12 5 17 0 24 -2 18 -5z m30 -30 c-13 -2 -33 -2 -45 0
-13 2 -3 4 22 4 25 0 35 -2 23 -4z m40 -30 c-13 -2 -33 -2 -45 0 -13 2 -3 4
22 4 25 0 35 -2 23 -4z"/>
<path d="M4652 1653 c-6 -2 -10 -9 -6 -14 3 -5 -2 -9 -10 -9 -12 0 -16 -10
-15 -37 2 -33 3 -34 6 -9 3 15 17 39 31 52 25 22 23 29 -6 17z"/>
<path d="M4930 1644 c0 -8 5 -12 10 -9 6 3 10 10 10 16 0 5 -4 9 -10 9 -5 0
-10 -7 -10 -16z"/>
<path d="M3951 1578 c0 -43 2 -78 7 -78 4 0 6 24 4 52 -5 95 -9 104 -11 26z"/>
<path d="M4750 1619 c0 -5 5 -7 10 -4 6 3 10 8 10 11 0 2 -4 4 -10 4 -5 0 -10
-5 -10 -11z"/>
<path d="M5080 1620 c-8 -5 -12 -12 -9 -15 4 -3 12 1 19 10 14 17 11 19 -10 5z"/>
<path d="M4670 1595 c0 -14 2 -25 4 -25 2 0 6 11 8 25 3 14 1 25 -3 25 -5 0
-9 -11 -9 -25z"/>
<path d="M4702 1595 c0 -16 2 -22 5 -12 2 9 2 23 0 30 -3 6 -5 -1 -5 -18z"/>
<path d="M4727 1600 c-3 -11 -1 -20 4 -20 5 0 9 9 9 20 0 11 -2 20 -4 20 -2 0
-6 -9 -9 -20z"/>
<path d="M4640 1590 c0 -11 4 -20 8 -20 4 0 8 9 8 20 0 11 -4 20 -8 20 -4 0
-8 -9 -8 -20z"/>
<path d="M5018 1593 c-19 -9 -28 -21 -27 -36 l2 -22 4 23 c5 25 23 30 23 7 0
-19 14 -19 30 0 11 13 10 14 -6 9 -19 -7 -19 -7 0 14 22 25 14 26 -26 5z"/>
<path d="M4050 1551 c0 -22 5 -43 10 -46 6 -4 10 12 10 39 0 25 -4 46 -10 46
-5 0 -10 -18 -10 -39z"/>
<path d="M4090 1557 c6 -16 7 -33 4 -39 -4 -7 -2 -8 4 -4 16 10 15 28 -3 52
-14 18 -14 17 -5 -9z"/>
<path d="M4123 1530 c0 -25 2 -35 4 -22 2 12 2 32 0 45 -2 12 -4 2 -4 -23z"/>
<path d="M5096 1535 c-9 -26 -7 -32 5 -12 6 10 9 21 6 23 -2 3 -7 -2 -11 -11z"/>
<path d="M4230 1496 c0 -20 5 -36 10 -36 6 0 10 13 10 29 0 17 -4 33 -10 36
-6 4 -10 -8 -10 -29z"/>
<path d="M4315 1494 c8 -20 15 -38 15 -40 0 -2 4 -4 9 -4 5 0 2 18 -6 40 -9
22 -20 40 -25 40 -4 0 -1 -16 7 -36z"/>
<path d="M4355 1493 c18 -42 35 -64 35 -45 0 18 -33 82 -42 82 -5 0 -1 -17 7
-37z"/>
<path d="M4140 1511 c0 -5 7 -15 17 -22 15 -13 15 -12 4 9 -12 23 -21 28 -21
13z"/>
<path d="M4533 1440 c0 -47 2 -66 4 -42 2 23 2 61 0 85 -2 23 -4 4 -4 -43z"/>
<path d="M5130 1489 c0 -5 5 -7 10 -4 6 3 10 8 10 11 0 2 -4 4 -10 4 -5 0 -10
-5 -10 -11z"/>
<path d="M4010 1361 c19 -13 116 -34 133 -28 6 2 -15 10 -48 16 -33 7 -69 15
-80 17 -16 4 -17 3 -5 -5z"/>
<path d="M4750 1329 c-22 -6 -21 -7 10 -8 19 0 41 3 49 8 17 11 -23 11 -59 0z"/>
<path d="M10026 544 c-23 -23 -20 -77 5 -100 43 -39 109 -3 109 59 0 17 -8 36
-17 43 -25 18 -78 17 -97 -2z"/>
<path d="M275 300 c3 -5 11 -10 16 -10 6 0 7 5 4 10 -3 6 -11 10 -16 10 -6 0
-7 -4 -4 -10z"/>
</g>
</svg>
