<?xml version="1.0" standalone="no"?>
<!DOCTYPE svg PUBLIC "-//W3C//DTD SVG 20010904//EN"
 "http://www.w3.org/TR/2001/REC-SVG-20010904/DTD/svg10.dtd">
<svg version="1.0" xmlns="http://www.w3.org/2000/svg"
 width="1080.000000pt" height="1080.000000pt" viewBox="0 0 1080.000000 1080.000000"
 preserveAspectRatio="xMidYMid meet">

<g transform="translate(0.000000,1080.000000) scale(0.100000,-0.100000)"
fill="#000000" stroke="none">
<path d="M0 10290 c0 -479 1 -510 18 -510 23 1 77 15 132 35 28 11 70 17 113
16 42 -1 67 2 67 9 0 12 301 10 311 -2 3 -4 19 -2 37 4 36 14 43 9 46 -26 0
-14 4 -26 8 -26 13 0 63 25 71 35 4 6 10 1 13 -12 4 -13 12 -23 19 -23 7 0 29
-11 49 -25 26 -17 44 -23 62 -19 26 7 35 -13 9 -22 -8 -4 -12 -10 -9 -15 8
-14 19 -11 44 11 30 26 36 25 54 -10 8 -16 10 -30 6 -30 -5 0 -6 -7 -3 -17 4
-11 3 -14 -5 -9 -7 4 -19 1 -27 -8 -13 -13 -12 -15 13 -21 30 -6 95 -54 75
-55 -18 0 -16 -28 2 -47 10 -10 24 -13 40 -9 22 6 25 3 25 -24 0 -19 5 -30 14
-30 8 0 17 -7 20 -16 5 -12 1 -14 -17 -8 -12 3 -27 10 -33 15 -11 9 -24 2 -24
-13 0 -5 11 -14 25 -20 14 -6 24 -17 21 -24 -2 -6 0 -16 6 -22 12 -12 -5 -35
-32 -44 -10 -3 -5 -10 18 -22 35 -18 43 -31 13 -21 -11 3 -22 1 -26 -5 -3 -5
1 -10 9 -10 14 0 36 -28 36 -45 0 -4 -11 -4 -25 -1 -22 6 -25 3 -25 -18 0 -14
5 -28 10 -31 17 -10 11 -25 -10 -25 -23 0 -27 -15 -5 -24 19 -7 19 -26 0 -26
-8 0 -15 3 -15 8 0 4 -15 7 -34 8 -30 0 -33 -1 -22 -18 6 -10 16 -16 21 -14 6
2 24 -2 40 -10 29 -13 29 -13 -20 -9 -27 2 -42 2 -33 -1 23 -7 53 -54 35 -54
-7 0 -18 5 -25 12 -9 9 -15 9 -23 1 -13 -13 -4 -33 17 -33 8 0 14 -4 14 -10 0
-5 -14 -10 -30 -10 -27 0 -29 -2 -21 -18 7 -14 6 -25 -5 -40 -8 -12 -12 -27
-9 -32 3 -6 -1 -10 -10 -10 -16 0 -37 -38 -28 -52 2 -5 15 -8 29 -8 18 0 24
-5 24 -22 0 -17 3 -19 12 -10 19 19 40 15 33 -7 -3 -11 -1 -22 5 -26 23 -14 9
-34 -27 -40 -92 -15 -91 -14 -44 -38 42 -21 43 -21 57 -2 12 16 14 17 14 2 0
-9 6 -17 14 -17 16 0 41 -28 33 -37 -4 -3 -13 -1 -20 6 -8 6 -22 9 -31 5 -18
-7 -21 -30 -5 -40 6 -4 8 -20 4 -40 -3 -21 -2 -34 4 -34 6 0 14 -12 17 -26 7
-28 112 -139 122 -130 3 3 11 1 18 -5 8 -7 14 -7 19 1 14 23 20 6 20 -62 0
-56 3 -72 14 -70 15 3 42 -28 35 -40 -3 -5 -14 -8 -25 -8 -16 0 -18 -3 -9 -19
5 -11 10 -28 10 -39 0 -10 11 -28 25 -40 26 -23 32 -46 14 -57 -5 -4 -18 0
-27 8 -22 18 -52 29 -52 18 0 -5 -32 -12 -72 -16 -40 -3 -84 -13 -98 -20 -14
-7 -37 -11 -52 -8 -15 3 -36 -1 -49 -10 -17 -12 -25 -13 -40 -4 -15 9 -24 9
-39 -1 -11 -6 -31 -12 -45 -12 -14 0 -38 -6 -53 -14 -15 -8 -58 -22 -97 -31
-38 -10 -77 -24 -86 -31 -8 -8 -26 -14 -40 -14 -13 0 -35 -7 -49 -15 -14 -8
-32 -17 -40 -21 -8 -4 -33 -22 -54 -40 -21 -19 -42 -31 -47 -29 -9 6 -54 -35
-103 -97 -25 -32 -40 -61 -44 -90 -6 -46 -24 -72 -60 -83 -17 -5 -22 -12 -19
-26 3 -10 1 -22 -4 -25 -5 -3 -9 -15 -9 -28 0 -12 -5 -27 -10 -32 -6 -6 -12
-29 -14 -53 -2 -23 -8 -47 -14 -53 -8 -8 -7 -15 5 -24 13 -9 15 -15 6 -25 -12
-15 -21 -113 -29 -309 -3 -77 -10 -133 -18 -145 -8 -12 -16 -74 -20 -163 -6
-123 -5 -147 9 -168 12 -19 21 -23 41 -18 18 5 29 1 39 -12 7 -10 11 -22 9
-26 -3 -5 -1 -8 5 -8 5 0 11 6 14 13 3 9 7 9 20 -2 19 -15 23 -61 6 -78 -8 -8
-8 -13 0 -17 7 -5 8 -13 2 -25 -6 -10 -13 -56 -16 -104 -3 -47 -13 -101 -21
-119 -30 -63 -39 -78 -47 -78 -4 0 -30 -18 -58 -40 -28 -22 -59 -40 -70 -40
-18 0 -19 -10 -19 -185 l0 -185 35 -17 c19 -9 37 -24 40 -34 3 -10 16 -16 31
-16 13 -1 33 -8 43 -17 10 -9 21 -13 24 -10 4 4 11 -6 17 -21 8 -22 15 -26 35
-22 14 2 28 0 31 -4 10 -16 23 -9 18 9 -5 14 -3 14 11 -3 8 -11 22 -20 31 -20
8 0 19 -7 24 -15 7 -11 10 -6 10 19 0 27 3 31 13 22 16 -13 28 -5 20 15 -3 8
1 14 11 14 9 0 16 -8 16 -17 1 -10 10 1 22 24 11 24 24 40 29 37 5 -3 14 6 21
20 6 14 14 26 18 26 4 0 15 27 25 60 10 34 22 63 27 66 4 3 8 12 8 21 0 9 8
21 17 28 11 8 18 31 21 66 6 93 4 120 -14 140 -14 15 -15 24 -6 42 17 36 21
67 9 67 -16 0 -15 60 2 90 14 24 13 25 -6 8 -28 -25 -34 -22 -22 9 7 20 6 29
-3 35 -10 7 -8 13 10 25 25 17 31 48 7 39 -19 -7 -19 -2 1 35 14 28 14 33 -5
73 -12 23 -21 50 -21 59 0 11 -8 17 -22 18 -13 0 -17 3 -11 6 19 7 17 73 -2
73 -8 0 -17 12 -21 28 -3 15 -9 36 -14 47 -4 11 -11 28 -14 38 -4 13 -12 17
-27 12 -15 -5 -19 -4 -14 4 3 7 1 34 -6 62 -9 36 -10 55 -3 67 13 21 7 42 -12
42 -16 0 -19 36 -4 45 14 9 12 25 -2 25 -15 0 -45 61 -54 108 -8 39 21 113 41
106 7 -3 16 4 20 16 4 11 26 30 51 42 25 11 43 23 40 25 -6 6 24 38 36 38 5 0
16 12 26 26 19 28 87 103 142 157 19 19 60 46 90 60 50 25 66 27 176 27 134 0
156 -9 147 -58 -4 -19 -13 -28 -37 -33 -17 -3 -37 -11 -44 -17 -9 -7 -11 -6
-6 7 3 9 2 16 -4 16 -6 0 -18 3 -27 7 -15 5 -16 3 -6 -15 17 -32 14 -35 -29
-28 -30 5 -43 2 -57 -12 -22 -22 -67 -42 -94 -42 -12 0 -36 15 -55 34 -43 43
-44 36 -2 -16 24 -31 28 -42 18 -48 -8 -5 -18 -6 -22 -4 -4 3 -8 1 -8 -4 0
-16 -73 -47 -78 -33 -2 6 -8 11 -13 11 -6 0 -5 -8 1 -20 6 -11 7 -19 3 -18 -5
2 -33 -15 -63 -37 -30 -22 -66 -47 -80 -56 -39 -25 -80 -70 -80 -88 0 -13 9
-15 57 -12 32 3 49 6 38 9 -60 13 -36 47 31 43 33 -1 45 1 42 11 -4 12 159
128 181 128 6 0 11 -19 11 -45 0 -31 8 -58 24 -84 24 -37 41 -47 119 -71 29
-9 37 -16 32 -30 -4 -11 1 -20 12 -24 14 -6 15 -9 4 -16 -21 -13 -5 -43 19
-35 14 5 20 2 20 -10 0 -8 7 -18 15 -21 22 -9 18 -24 -5 -24 -28 0 -25 -17 5
-24 29 -7 32 -21 8 -34 -10 -6 -14 -16 -10 -27 5 -12 1 -18 -15 -23 -21 -5
-21 -6 -2 -13 10 -4 36 -8 56 -8 25 -1 37 -5 35 -13 -1 -9 13 -14 43 -16 25
-1 55 -7 67 -14 12 -6 31 -8 43 -5 16 4 24 -1 33 -20 9 -21 9 -27 -1 -31 -6
-2 -12 -9 -12 -15 0 -8 3 -8 11 0 8 8 20 8 35 3 20 -8 24 -6 24 8 0 17 5 19
108 25 24 2 47 9 51 16 9 14 36 3 78 -33 22 -18 22 -18 69 20 50 42 82 46 136
18 38 -20 41 -18 21 16 -9 17 -24 30 -33 30 -13 0 -13 1 0 10 9 5 16 6 18 0 2
-5 10 -6 18 -3 8 3 14 -1 14 -8 1 -34 70 -82 70 -49 0 6 -7 10 -15 10 -8 0
-15 5 -15 11 0 6 7 8 16 5 9 -3 18 -6 20 -6 2 0 4 -11 4 -24 0 -22 58 -91 68
-81 8 8 -9 75 -19 75 -6 0 -6 -7 1 -20 6 -11 7 -20 2 -20 -15 0 -28 23 -30 54
-2 28 -2 28 24 11 25 -16 26 -16 19 4 -9 30 4 46 21 24 7 -10 13 -13 13 -8 0
16 -25 45 -32 38 -4 -3 -7 1 -7 10 0 21 4 21 35 1 15 -10 22 -21 18 -31 -4
-10 -2 -14 4 -10 6 4 13 16 16 27 3 11 2 18 -2 15 -10 -6 -53 40 -45 48 3 3
13 3 21 0 16 -6 15 8 -4 71 -3 12 -1 16 6 12 6 -4 11 -15 11 -24 0 -9 7 -25
14 -34 11 -16 15 -16 32 -3 13 10 16 17 7 22 -16 11 -19 74 -5 100 7 12 12 31
12 42 0 12 5 21 11 21 7 0 9 11 6 26 -3 16 0 28 9 31 9 3 14 21 14 47 0 27 3
36 9 27 5 -7 13 -11 19 -7 10 6 2 41 -20 92 -6 12 -9 30 -8 40 5 42 -2 47 -15
9 l-13 -40 0 48 c1 26 4 47 9 47 5 0 9 12 9 26 0 24 -2 25 -17 13 -15 -13 -15
-12 -4 9 7 13 8 22 2 22 -6 0 -15 -9 -21 -20 -15 -29 -28 -25 -23 8 4 21 2 24
-6 12 -9 -13 -11 -12 -12 5 l0 20 -8 -20 c-5 -11 -7 -23 -4 -27 2 -5 -1 -8 -7
-8 -6 0 -13 7 -16 15 -4 8 -10 13 -14 10 -5 -3 -15 3 -22 14 -15 21 -47 13
-34 -8 4 -6 2 -19 -3 -28 -9 -16 -10 -16 -11 5 0 12 -5 22 -12 22 -9 0 -9 3
-1 11 9 9 9 18 0 36 -8 19 -8 26 3 33 11 7 11 11 1 24 -7 8 -10 20 -6 25 3 6
-3 16 -14 22 -11 7 -17 19 -13 27 4 10 1 13 -7 8 -8 -5 -14 -1 -18 13 -4 17
-33 32 -33 16 0 -10 46 -71 55 -73 13 -3 27 -55 16 -62 -5 -3 -12 -16 -16 -29
-5 -16 -10 -20 -17 -13 -8 8 -5 16 6 28 10 9 15 23 12 31 -3 8 -6 19 -6 24 0
5 -5 9 -11 9 -5 0 -9 -8 -8 -17 2 -10 0 -30 -4 -45 -4 -15 -3 -38 2 -51 6 -14
7 -27 4 -30 -8 -9 -34 21 -32 35 5 23 -12 58 -27 58 -12 0 -14 -7 -9 -32 5
-25 4 -29 -4 -18 -6 8 -11 21 -11 28 0 8 -9 25 -20 40 -12 15 -16 28 -11 31
11 7 10 29 -3 49 -4 7 -4 12 1 11 20 -3 23 2 9 17 -9 8 -16 23 -15 32 0 14 2
15 7 2 7 -15 45 -23 71 -14 11 3 10 9 -3 29 -9 13 -16 31 -16 39 0 8 -10 23
-23 33 -13 10 -31 30 -41 46 -17 24 -17 27 -2 21 14 -5 13 -1 -4 29 -12 20
-19 41 -15 46 3 6 -2 19 -12 31 -10 11 -17 23 -16 25 1 3 -5 24 -13 47 l-15
42 28 -32 c15 -17 41 -50 57 -72 15 -23 30 -39 33 -36 5 5 -16 48 -27 56 -13
9 -23 53 -11 46 15 -10 14 7 -1 23 -11 11 -10 13 2 9 8 -2 23 -20 33 -39 18
-32 19 -17 1 25 -5 14 -4 17 4 12 8 -5 10 -2 6 8 -3 9 -2 16 4 16 5 0 26 -41
47 -91 20 -49 48 -103 60 -118 13 -15 27 -41 31 -57 4 -16 13 -38 20 -49 8
-11 14 -32 14 -48 0 -26 2 -28 17 -16 11 10 14 10 9 2 -11 -19 4 -39 16 -22 8
11 9 10 5 -3 -3 -9 -2 -29 3 -45 7 -25 8 -23 9 18 1 28 -4 51 -13 58 -15 13
-17 114 -2 128 5 4 6 -1 2 -13 -7 -24 1 -54 15 -54 12 0 11 67 -1 75 -5 3 -10
16 -9 28 1 20 2 20 9 -3 6 -21 6 143 -1 176 -1 5 -1 23 0 39 1 23 3 27 11 15
7 -11 10 -5 10 23 0 43 3 44 30 17 29 -29 40 -25 34 13 -5 27 -4 29 7 13 8
-14 13 -15 19 -6 6 9 13 5 25 -14 14 -20 20 -24 26 -14 6 9 9 4 10 -14 2 -47
3 -49 24 -64 17 -13 20 -13 27 3 7 14 8 13 4 -4 -2 -13 4 -33 15 -47 10 -13
19 -29 19 -35 0 -6 3 -11 8 -11 4 0 13 -15 20 -32 8 -18 22 -49 33 -69 21 -41
24 -53 9 -44 -5 3 -10 2 -10 -4 0 -5 4 -12 10 -16 5 -3 9 -18 10 -33 1 -69 3
-82 10 -82 4 0 11 -35 15 -77 4 -43 11 -100 17 -128 5 -27 12 -120 14 -205 2
-85 7 -175 11 -200 4 -25 6 -49 4 -54 -3 -11 -1 -227 3 -276 2 -19 11 -62 21
-95 15 -46 19 -90 19 -185 -1 -111 -3 -131 -26 -180 -14 -30 -31 -84 -38 -120
-7 -36 -18 -76 -25 -90 -7 -14 -15 -51 -19 -82 -5 -48 -4 -58 9 -58 8 0 15 9
15 20 0 13 13 26 39 39 56 29 83 89 86 194 1 45 5 90 9 100 14 29 41 20 55
-19 13 -35 14 -36 31 -18 41 44 59 132 66 309 5 152 4 178 -15 249 -22 83 -28
191 -11 201 5 3 10 -2 10 -12 1 -10 7 -29 14 -41 12 -22 15 -16 49 90 75 236
82 274 48 265 -25 -6 -46 7 -35 24 4 7 8 54 9 102 1 74 4 92 19 103 24 17 14
42 -19 50 -30 7 -33 36 -10 110 24 74 42 206 33 239 -13 49 6 185 34 240 25
49 25 54 25 278 0 190 3 231 15 243 12 12 13 25 7 58 -4 23 -10 96 -13 161 -5
128 -17 193 -37 205 -7 5 -9 16 -5 25 14 38 -43 262 -105 410 -16 39 -29 78
-29 88 0 11 -9 30 -20 44 -11 14 -20 32 -20 39 0 7 -11 39 -25 70 -14 31 -25
64 -25 73 0 9 -9 34 -20 56 -11 22 -20 47 -20 56 0 10 -11 30 -24 46 -13 15
-42 63 -65 106 -24 42 -49 81 -58 85 -8 5 -16 20 -17 34 -3 27 -40 83 -110
168 -26 30 -67 82 -92 115 -47 62 -99 116 -252 268 l-89 87 -907 0 -906 0 0
-510z m1845 449 c11 -17 -1 -21 -15 -4 -8 9 -8 15 -2 15 6 0 14 -5 17 -11z
m-1352 -676 c-7 -2 -21 -2 -30 0 -10 3 -4 5 12 5 17 0 24 -2 18 -5z m624 -449
c-3 -3 -12 -4 -19 -1 -8 3 -5 6 6 6 11 1 17 -2 13 -5z m1523 -598 c-1 -21 -1
-21 -15 -2 -8 11 -15 29 -15 40 1 21 1 21 15 2 8 -11 15 -29 15 -40z m-1505
-96 c3 -5 1 -10 -4 -10 -6 0 -11 5 -11 10 0 6 2 10 4 10 3 0 8 -4 11 -10z
m1555 -20 c6 -11 8 -26 4 -32 -5 -8 -10 -5 -15 8 -16 41 -8 59 11 24z m-1550
-60 c0 -12 -37 -14 -44 -2 -2 4 6 9 20 10 13 1 24 -3 24 -8z m1410 0 c0 -5 -2
-10 -4 -10 -3 0 -8 5 -11 10 -3 6 -1 10 4 10 6 0 11 -4 11 -10z m-1420 -40 c0
-5 -5 -10 -11 -10 -5 0 -7 5 -4 10 3 6 8 10 11 10 2 0 4 -4 4 -10z m1460 -12
c0 -13 -23 -5 -28 10 -2 7 2 10 12 6 9 -3 16 -11 16 -16z m74 -67 c-3 -3 -15
6 -27 18 l-22 24 27 -19 c14 -10 24 -21 22 -23z m-1494 -1 c0 -5 -2 -10 -4
-10 -3 0 -8 5 -11 10 -3 6 -1 10 4 10 6 0 11 -4 11 -10z m10 -140 c10 -19 10
-20 -9 -8 -22 13 -28 28 -11 28 5 0 14 -9 20 -20z m0 -40 c0 -5 8 -10 19 -10
10 0 25 -7 32 -17 13 -15 11 -16 -13 -9 -19 4 -28 2 -28 -5 0 -8 -7 -6 -18 4
-10 10 -22 14 -25 10 -4 -3 -7 3 -7 15 0 15 6 22 20 22 11 0 20 -4 20 -10z
m-15 -68 c-3 -3 -11 0 -18 7 -9 10 -8 11 6 5 10 -3 15 -9 12 -12z m765 -23 c0
-5 -4 -9 -10 -9 -5 0 -10 7 -10 16 0 8 5 12 10 9 6 -3 10 -10 10 -16z m575 1
c-3 -5 -12 -10 -18 -10 -7 0 -6 4 3 10 19 12 23 12 15 0z m95 0 c13 -8 13 -10
-2 -10 -9 0 -20 5 -23 10 -8 13 5 13 25 0z m-1365 -68 c-8 -8 -25 10 -19 20 4
6 9 5 15 -3 4 -7 6 -15 4 -17z m729 -17 c3 -8 1 -15 -3 -15 -5 0 -11 7 -15 15
-3 8 -1 15 3 15 5 0 11 -7 15 -15z m-114 -50 c0 -5 -5 -3 -10 5 -5 8 -10 20
-10 25 0 6 5 3 10 -5 5 -8 10 -19 10 -25z m80 -30 c0 -5 -5 -3 -10 5 -5 8 -10
20 -10 25 0 6 5 3 10 -5 5 -8 10 -19 10 -25z m641 -147 c25 -35 14 -37 -13 -3
-11 14 -26 25 -34 25 -23 0 -94 31 -94 42 0 5 10 7 23 4 l22 -6 -22 11 c-22
12 -29 29 -17 42 8 8 108 -77 135 -115z m-802 20 c10 -30 9 -31 -4 -14 -8 11
-15 26 -15 33 0 22 8 14 19 -19z m51 -45 c0 -25 -18 -13 -23 15 -3 15 -8 36
-12 47 -3 11 3 4 14 -15 11 -19 20 -41 21 -47z m17 46 c0 -21 -3 -26 -9 -16
-4 9 -5 22 -2 31 9 23 11 20 11 -15z m683 -30 c0 -9 -35 -5 -70 8 -11 4 -8 8
10 13 26 7 60 -4 60 -21z m-490 -39 c0 -13 -1 -13 -10 0 -5 8 -10 22 -10 30 0
13 1 13 10 0 5 -8 10 -22 10 -30z m-237 -5 c-4 -5 -3 -7 2 -3 4 4 14 3 22 -3
15 -13 18 -33 3 -24 -5 3 -10 -2 -10 -12 -1 -17 -1 -17 -11 0 -6 9 -14 15 -20
12 -10 -7 -11 10 -2 43 4 17 8 20 14 11 4 -7 5 -18 2 -24z m276 3 l11 -33 -20
25 c-21 27 -25 40 -11 40 5 0 14 -15 20 -32z m457 -1 c12 -12 32 -29 45 -39
16 -10 -9 -5 -69 15 -53 17 -88 34 -81 38 7 4 19 5 27 1 11 -4 13 -1 7 8 -13
21 45 2 71 -23z m-746 -85 c0 -2 -9 6 -20 19 l-20 24 5 -30 c5 -24 4 -26 -4
-13 -6 9 -8 31 -4 48 l6 32 18 -38 c11 -20 19 -40 19 -42z m-70 17 c0 -6 -4
-7 -10 -4 -5 3 -10 11 -10 16 0 6 5 7 10 4 6 -3 10 -11 10 -16z m130 -4 c0 -8
-4 -15 -9 -15 -5 0 -12 -8 -14 -17 -3 -12 -5 -9 -6 8 0 14 2 29 6 32 11 12 23
8 23 -8z m147 -42 c-3 -10 -5 -2 -5 17 0 19 2 27 5 18 2 -10 2 -26 0 -35z
m486 29 c15 -2 30 -8 33 -13 3 -5 13 -9 23 -9 10 0 24 -7 31 -15 15 -18 10
-18 -26 -5 -20 8 -29 8 -35 -1 -8 -13 -84 -18 -96 -6 -4 5 -1 12 7 18 13 8 12
11 -3 23 -14 11 -15 15 -5 19 7 3 20 3 28 0 8 -3 27 -8 43 -11z m-536 -24 c-3
-8 -6 -5 -6 6 -1 11 2 17 5 13 3 -3 4 -12 1 -19z m43 -72 c0 -2 -7 -6 -15 -10
-8 -3 -15 -1 -15 4 0 6 7 10 15 10 8 0 15 -2 15 -4z m6 -72 c-3 -8 -10 -12
-16 -9 -5 3 -10 0 -11 -7 -1 -15 -17 21 -18 41 -1 7 8 3 19 -10 l19 -24 2 30
c1 18 3 23 6 12 3 -10 2 -25 -1 -33z m-82 -40 c3 -8 2 -12 -4 -9 -6 3 -10 10
-10 16 0 14 7 11 14 -7z m46 -69 c0 -5 -5 -3 -10 5 -5 8 -10 20 -10 25 0 6 5
3 10 -5 5 -8 10 -19 10 -25z m-568 -5 c18 -17 20 -23 10 -45 -15 -33 -50 -33
-58 -1 -4 17 -11 22 -25 19 -10 -3 -19 -1 -19 5 0 5 16 13 35 16 20 4 33 11
30 17 -10 16 5 10 27 -11z m387 -65 c-7 -6 -59 44 -59 57 0 5 14 -5 32 -21 18
-17 30 -33 27 -36z m-515 37 c7 -12 -6 -28 -29 -36 -17 -5 -21 -1 -23 19 -1
20 3 25 23 25 13 0 26 -4 29 -8z m-109 -32 c3 -5 1 -10 -4 -10 -6 0 -11 5 -11
10 0 6 2 10 4 10 3 0 8 -4 11 -10z m122 -16 c-3 -3 -12 -4 -19 -1 -8 3 -5 6 6
6 11 1 17 -2 13 -5z m625 -256 c-7 -7 -12 -8 -12 -2 0 14 12 26 19 19 2 -3 -1
-11 -7 -17z m-2 -58 c0 -5 -2 -10 -4 -10 -3 0 -8 5 -11 10 -3 6 -1 10 4 10 6
0 11 -4 11 -10z m-1377 -7 c-7 -2 -19 -2 -25 0 -7 3 -2 5 12 5 14 0 19 -2 13
-5z m1354 -19 c2 -6 -3 -11 -12 -11 -8 0 -15 7 -15 15 0 15 22 12 27 -4z
m-1393 -20 c3 -8 2 -12 -4 -9 -6 3 -10 10 -10 16 0 14 7 11 14 -7z m79 9 c-7
-2 -21 -2 -30 0 -10 3 -4 5 12 5 17 0 24 -2 18 -5z m2125 -11 c2 -7 -3 -12
-12 -12 -9 0 -16 7 -16 16 0 17 22 14 28 -4z m-765 -26 c-4 -6 -8 -6 -10 1 -3
7 -11 9 -19 6 -14 -5 -20 8 -8 20 10 9 43 -16 37 -27z m174 -8 c-3 -8 -6 -5
-6 6 -1 11 2 17 5 13 3 -3 4 -12 1 -19z m555 -20 c-9 -9 -12 -7 -12 12 0 19 3
21 12 12 9 -9 9 -15 0 -24z m-1682 -5 c11 -17 11 -17 6 0 -4 12 -2 17 6 15 24
-8 18 -28 -14 -48 -44 -27 -88 -27 -88 0 0 11 12 26 28 34 36 20 49 20 62 -1z
m918 -50 c-14 -13 -16 -13 -22 2 -3 9 -2 14 3 11 5 -3 12 2 16 12 6 13 9 14
12 4 3 -8 -1 -21 -9 -29z m768 -10 c-11 -11 -17 4 -9 23 7 18 8 18 11 1 2 -10
1 -21 -2 -24z m-506 -19 c0 -7 -9 -14 -20 -17 -11 -3 -20 -1 -20 4 0 5 5 9 10
9 6 0 10 10 10 23 0 18 2 19 10 7 5 -8 10 -20 10 -26z m-1200 4 c0 -7 -4 -18
-8 -24 -7 -11 -45 -34 -56 -34 -12 0 -6 59 7 63 24 10 57 7 57 -5z m960 8 c0
-3 -4 -8 -10 -11 -5 -3 -10 -1 -10 4 0 6 5 11 10 11 6 0 10 -2 10 -4z m-133
-78 c-3 -8 -6 -5 -6 6 -1 11 2 17 5 13 3 -3 4 -12 1 -19z m-311 -79 c15 -16
16 -22 5 -28 -8 -5 -11 -13 -7 -19 3 -6 -3 -13 -14 -17 -11 -3 -20 -15 -20
-26 0 -10 -4 -19 -10 -19 -16 0 -12 46 5 60 17 14 20 30 5 30 -5 0 -10 -7 -10
-15 0 -8 -4 -15 -10 -15 -13 0 -13 1 6 38 18 38 25 39 50 11z m-216 1 c0 -5
-12 -10 -26 -10 -14 0 -23 4 -19 10 3 6 15 10 26 10 10 0 19 -4 19 -10z m1310
-30 c-6 -11 -15 -20 -20 -20 -16 0 -11 18 8 29 24 14 24 14 12 -9z m-1493 -12
c4 10 8 10 20 1 12 -10 19 -10 35 0 12 8 17 8 13 1 -4 -6 -1 -17 5 -25 9 -11
9 -15 1 -15 -6 0 -11 5 -11 10 0 6 -4 10 -10 10 -5 0 -10 -7 -10 -15 0 -8 -7
-15 -15 -15 -7 0 -19 -8 -24 -17 -9 -15 -10 -14 -11 10 0 17 -5 27 -15 27 -17
0 -18 2 -9 25 6 13 9 14 16 3 8 -10 11 -11 15 0z m1010 -20 c-3 -8 -6 -5 -6 6
-1 11 2 17 5 13 3 -3 4 -12 1 -19z m473 -7 c0 -17 -12 -41 -21 -41 -7 0 -7 24
0 48 2 7 21 1 21 -7z m-584 -191 c0 -11 -4 -20 -8 -20 -4 0 -8 9 -8 20 0 11 4
20 8 20 4 0 8 -9 8 -20z"/>
<path d="M8640 10765 c-19 -18 -75 -71 -124 -117 -106 -99 -182 -191 -258
-313 -59 -94 -138 -250 -138 -272 0 -19 -88 -215 -137 -307 -57 -104 -93 -189
-93 -219 0 -12 -9 -41 -21 -62 -11 -22 -31 -80 -45 -130 -31 -115 -58 -254
-94 -485 -6 -36 -15 -200 -21 -365 -9 -282 -15 -344 -54 -553 -31 -174 -19
-322 37 -440 23 -46 24 -47 78 -52 81 -7 101 -31 94 -112 -11 -134 -32 -170
-88 -150 -83 30 -87 -3 -17 -150 27 -57 56 -131 65 -166 16 -64 71 -188 87
-198 5 -3 9 -12 9 -21 0 -19 45 -63 65 -63 7 0 16 -9 20 -19 3 -10 14 -21 24
-24 29 -7 48 -78 66 -252 10 -88 20 -179 22 -202 3 -24 9 -43 14 -43 5 0 9
-18 9 -39 0 -39 1 -39 32 -34 27 4 30 3 20 -10 -10 -12 -9 -16 3 -21 10 -4 15
1 15 16 0 17 3 18 15 8 12 -10 16 -9 22 6 4 10 2 19 -5 22 -7 2 -15 21 -18 43
-4 22 -14 44 -24 49 -13 7 -18 28 -23 96 -3 48 -9 89 -14 93 -5 3 -10 38 -11
76 -1 39 -6 90 -12 115 -16 68 -26 323 -18 427 8 92 10 127 28 328 5 61 12
139 14 175 3 35 12 80 19 100 8 19 12 41 10 47 -6 17 16 84 34 105 10 11 11
18 4 23 -13 8 -15 52 -2 59 8 5 23 53 26 86 1 8 5 24 9 35 4 11 13 33 18 48 6
16 25 42 41 59 27 26 29 33 18 50 -10 16 -10 23 3 37 9 10 16 22 16 27 0 6 14
20 31 33 29 22 30 25 24 76 -6 43 -4 58 9 70 8 9 18 15 22 15 4 0 9 13 11 30
2 21 -1 30 -12 30 -8 0 -15 9 -15 19 0 11 -5 23 -10 26 -7 4 -4 19 10 41 26
45 28 113 3 115 -10 1 -22 1 -26 0 -10 -2 8 31 50 93 26 38 31 52 22 62 -10
12 -17 10 -43 -9 -57 -44 -104 -45 -56 -2 13 12 20 31 20 57 0 28 7 45 23 61
13 12 38 43 55 68 17 26 38 49 47 53 9 3 15 11 13 18 -10 51 218 271 437 423
39 27 79 56 90 66 63 55 302 171 490 238 50 18 99 36 110 41 11 5 34 13 50 18
17 6 68 25 115 42 47 17 119 43 160 56 41 14 84 29 95 33 51 21 192 61 212 61
12 0 34 5 50 11 34 13 169 38 241 45 30 2 81 16 114 30 33 14 68 22 79 19 19
-6 19 3 19 389 l0 396 -1062 0 -1063 -1 -35 -34z"/>
<path d="M4966 8937 c3 -10 9 -15 12 -12 3 3 0 11 -7 18 -10 9 -11 8 -5 -6z"/>
<path d="M6121 8784 c0 -11 3 -14 6 -6 3 7 2 16 -1 19 -3 4 -6 -2 -5 -13z"/>
<path d="M970 8775 c0 -9 6 -12 15 -9 8 4 15 10 15 15 0 5 -7 9 -15 9 -8 0
-15 -7 -15 -15z"/>
<path d="M8450 8754 c0 -9 5 -14 12 -12 18 6 21 28 4 28 -9 0 -16 -7 -16 -16z"/>
<path d="M990 8600 c0 -5 4 -10 9 -10 6 0 13 5 16 10 3 6 -1 10 -9 10 -9 0
-16 -4 -16 -10z"/>
<path d="M2873 8405 c0 -44 2 -61 4 -37 2 23 2 59 0 80 -2 20 -4 1 -4 -43z"/>
<path d="M1158 8363 c7 -3 16 -2 19 1 4 3 -2 6 -13 5 -11 0 -14 -3 -6 -6z"/>
<path d="M2051 7998 c-1 -21 4 -38 9 -38 6 0 10 3 10 8 0 4 3 18 7 31 4 16 3
22 -5 18 -5 -4 -13 -1 -15 5 -3 7 -6 -4 -6 -24z"/>
<path d="M2090 7991 c0 -5 5 -13 10 -16 6 -3 10 -2 10 4 0 5 -4 13 -10 16 -5
3 -10 2 -10 -4z"/>
<path d="M9451 7921 c-11 -7 -11 -10 0 -16 16 -11 -13 -23 -57 -24 -17 -1 -39
-10 -48 -20 -17 -19 -17 -20 3 -30 11 -6 31 -11 45 -11 13 0 38 -11 54 -24 26
-22 87 -50 135 -61 25 -6 37 -15 37 -27 0 -6 7 -20 17 -30 15 -17 15 -18 -9
-18 -13 0 -40 -13 -58 -30 -18 -16 -41 -30 -50 -30 -9 0 -31 -11 -49 -24 -17
-13 -52 -29 -76 -35 -24 -6 -47 -15 -50 -21 -3 -5 -14 -10 -24 -10 -10 0 -24
-7 -31 -15 -7 -8 -21 -15 -31 -15 -11 0 -19 -4 -19 -8 0 -10 -60 -32 -88 -32
-12 0 -22 -6 -22 -14 0 -16 -27 -27 -73 -30 -16 -1 -35 -10 -42 -20 -7 -9 -16
-17 -19 -17 -3 1 -6 -2 -5 -5 1 -13 -37 -33 -63 -34 -22 0 -28 -7 -42 -46 -9
-28 -12 -53 -7 -63 5 -9 11 -32 15 -52 4 -21 13 -43 21 -49 9 -8 15 -26 13
-47 -3 -47 26 -64 77 -44 27 11 45 3 45 -19 0 -13 5 -17 21 -13 14 4 22 0 25
-13 6 -22 61 -57 75 -48 6 3 7 25 3 50 -6 44 -6 44 24 44 30 0 31 1 25 35 -4
22 -1 41 8 52 16 19 128 93 141 93 4 0 8 -17 8 -39 0 -117 76 -220 177 -241
132 -28 211 8 267 121 20 39 36 79 36 88 0 9 4 22 9 29 11 18 107 -58 128
-103 19 -40 40 -50 78 -35 22 8 31 7 52 -10 26 -21 46 -18 41 5 -4 17 -157
175 -169 175 -5 0 -9 9 -9 19 0 12 -14 27 -37 39 -31 16 -37 24 -35 46 3 24 1
25 -24 15 -32 -12 -54 -6 -54 16 0 20 -19 19 -27 -1 -8 -21 -81 -11 -98 13 -9
11 -18 14 -31 8 -10 -5 -39 -7 -64 -6 -25 1 -51 -2 -59 -7 -7 -6 -29 -6 -53 0
-26 5 -45 5 -53 -2 -9 -7 -21 -6 -41 5 -37 19 -53 19 -60 0 -4 -9 -19 -15 -37
-15 -29 0 -30 0 -12 20 10 11 27 20 37 20 10 0 31 8 45 18 15 9 50 22 77 29
50 11 57 9 68 -18 2 -4 13 -9 25 -13 18 -6 22 -3 25 21 2 22 8 27 23 25 11 -2
25 -10 31 -18 16 -20 37 -17 52 7 12 19 20 21 83 15 40 -3 89 -15 117 -28 40
-20 47 -27 47 -53 0 -20 6 -31 18 -33 10 -2 17 3 17 12 0 14 3 14 20 4 11 -7
20 -19 20 -26 0 -6 10 -20 21 -30 12 -9 36 -29 54 -44 34 -29 55 -36 55 -17 0
13 -78 113 -125 159 -19 19 -35 37 -35 41 0 4 -9 11 -20 14 -27 9 -25 23 4 31
15 3 27 15 30 30 4 13 13 24 21 24 8 0 15 7 15 15 0 8 3 15 8 15 4 0 14 13 23
28 14 25 22 29 65 30 27 0 62 6 78 11 25 10 27 14 21 43 -4 18 -18 40 -31 50
-13 11 -21 25 -17 33 3 9 -1 15 -8 15 -7 0 -29 15 -49 33 -36 34 -75 51 -145
63 -22 3 -44 10 -50 14 -5 4 -30 11 -55 15 -25 3 -58 10 -75 15 -60 18 -229
33 -233 21 -5 -16 -39 -13 -46 4 -6 16 -43 20 -65 6z m167 -731 c3 -17 -49
-50 -79 -50 -28 0 -25 44 4 58 30 15 71 11 75 -8z m-59 -172 c1 -36 -9 -35
-48 3 -36 34 -35 60 2 76 19 9 23 7 34 -21 6 -17 12 -43 12 -58z"/>
<path d="M2041 7834 c0 -32 3 -67 7 -76 4 -10 7 14 6 52 0 38 -3 73 -7 76 -4
4 -7 -19 -6 -52z"/>
<path d="M9133 7863 c-20 -8 -15 -23 7 -23 11 0 20 7 20 15 0 15 -6 17 -27 8z"/>
<path d="M1776 7835 c-5 -15 28 -90 45 -101 14 -8 11 10 -6 32 -8 10 -15 34
-15 52 0 33 -14 43 -24 17z"/>
<path d="M8988 7821 c5 -34 -23 -52 -33 -20 -10 31 -57 25 -91 -13 -16 -18
-38 -38 -48 -44 -11 -6 -24 -19 -30 -29 -6 -10 -21 -30 -33 -44 -13 -14 -23
-38 -23 -52 0 -15 -7 -32 -15 -39 -8 -7 -15 -21 -15 -32 0 -28 51 -21 66 9 6
13 20 31 32 42 12 10 22 23 22 28 0 13 91 90 150 127 58 36 57 35 40 46 -12 7
-12 12 -2 22 17 17 15 28 -6 28 -15 0 -18 -6 -14 -29z"/>
<path d="M2113 7820 c-8 -18 -7 -27 1 -32 12 -8 20 13 13 40 -3 14 -6 12 -14
-8z"/>
<path d="M1861 7734 c-12 -14 -20 -28 -18 -31 10 -9 47 22 47 39 0 23 -2 23
-29 -8z"/>
<path d="M10220 7715 c0 -8 2 -15 4 -15 2 0 11 -3 20 -6 23 -9 20 13 -4 26
-16 9 -20 8 -20 -5z"/>
<path d="M2047 7667 c-4 -10 -2 -28 4 -39 15 -28 19 -19 10 22 -5 28 -8 31
-14 17z"/>
<path d="M1911 7663 c0 -5 4 -17 9 -28 8 -18 9 -17 9 8 1 15 -3 27 -9 27 -5 0
-10 -3 -9 -7z"/>
<path d="M2005 7657 c-4 -10 -5 -21 -1 -24 10 -10 18 4 13 24 -4 17 -4 17 -12
0z"/>
<path d="M1921 7594 c0 -11 3 -14 6 -6 3 7 2 16 -1 19 -3 4 -6 -2 -5 -13z"/>
<path d="M5508 7569 c-20 -34 -91 -81 -168 -110 -203 -76 -642 -125 -1066
-117 -176 3 -190 2 -186 -14 6 -23 50 -29 294 -37 l203 -8 -228 -1 -227 -2
-11 -27 c-12 -30 -7 -381 6 -420 12 -39 56 -46 305 -50 251 -5 393 7 565 47
117 27 153 44 167 77 7 16 13 107 16 219 l4 192 -30 7 c-17 3 -56 1 -88 -4
-32 -6 -80 -11 -108 -10 -43 1 -31 4 70 24 330 62 555 175 506 252 -5 8 -13 2
-24 -18z m-633 -269 c-11 -5 -63 -8 -115 -7 l-95 1 75 6 c118 10 159 10 135 0z"/>
<path d="M1906 7550 c3 -14 10 -29 15 -34 14 -16 10 6 -7 34 l-15 25 7 -25z"/>
<path d="M6403 7553 l-63 -14 0 -110 c0 -60 4 -109 9 -109 5 0 32 5 60 12 59
13 59 15 31 106 -11 35 -20 67 -20 72 0 7 19 12 80 23 22 4 40 17 40 28 0 13
-65 10 -137 -8z"/>
<path d="M2105 7541 c-3 -5 -1 -12 5 -16 5 -3 10 1 10 9 0 18 -6 21 -15 7z"/>
<path d="M3389 7536 c-2 -2 -2 -122 1 -266 l5 -261 25 -19 c50 -38 139 -79
203 -96 73 -18 97 -14 97 14 0 10 5 23 12 30 16 16 25 282 9 282 -7 0 -11 13
-10 33 5 63 -31 96 -165 152 -77 32 -145 80 -162 113 -6 12 -13 20 -15 18z"/>
<path d="M1823 7485 c1 -21 4 -30 9 -22 10 16 10 45 -1 51 -5 3 -9 -10 -8 -29z"/>
<path d="M1772 7477 c1 -30 3 -33 15 -22 17 17 17 30 -2 45 -12 10 -14 7 -13
-23z"/>
<path d="M5518 7487 c-8 -41 -10 -265 -3 -322 4 -30 12 -55 17 -55 6 0 8 79 7
200 -2 182 -9 240 -21 177z"/>
<path d="M6753 7486 c-45 -11 -84 -24 -87 -27 -3 -3 0 -26 8 -52 10 -35 29
-60 76 -104 90 -84 87 -83 116 -16 15 32 26 67 26 78 1 36 -34 145 -46 144 -6
-1 -48 -11 -93 -23z"/>
<path d="M1921 7484 c0 -11 3 -14 6 -6 3 7 2 16 -1 19 -3 4 -6 -2 -5 -13z"/>
<path d="M1975 7480 c-3 -5 -1 -10 4 -10 6 0 11 5 11 10 0 6 -2 10 -4 10 -3 0
-8 -4 -11 -10z"/>
<path d="M2005 7459 c-10 -30 -2 -32 12 -3 6 13 7 24 3 24 -5 0 -12 -9 -15
-21z"/>
<path d="M2105 7458 c-8 -29 -12 -69 -5 -61 10 11 23 73 15 73 -3 0 -7 -6 -10
-12z"/>
<path d="M1931 7431 c-9 -6 -11 -16 -7 -27 7 -18 8 -18 17 -1 14 23 8 39 -10
28z"/>
<path d="M1975 7421 c-3 -5 -1 -12 5 -16 5 -3 10 1 10 9 0 18 -6 21 -15 7z"/>
<path d="M2067 7406 c-4 -10 -5 -21 -2 -24 9 -9 17 6 13 25 -3 17 -4 17 -11
-1z"/>
<path d="M2121 7384 c0 -11 3 -14 6 -6 3 7 2 16 -1 19 -3 4 -6 -2 -5 -13z"/>
<path d="M6073 7295 c3 -53 8 -99 10 -102 3 -2 14 1 26 9 29 18 114 -12 161
-58 32 -30 38 -33 54 -21 17 13 17 16 3 44 -9 17 -24 33 -34 35 -14 4 -19 16
-21 53 -3 76 -5 78 -94 104 -46 13 -89 25 -97 28 -12 5 -13 -11 -8 -92z m161
-20 c23 -17 14 -29 -25 -39 -19 -4 -34 0 -50 13 l-24 20 25 10 c35 14 52 13
74 -4z"/>
<path d="M7320 7361 c-54 -20 -75 -32 -74 -44 1 -9 -2 -17 -6 -17 -14 0 -71
-101 -64 -113 4 -7 3 -9 -1 -4 -10 9 -97 -151 -89 -164 3 -5 1 -9 -3 -9 -14 0
-41 -54 -35 -69 2 -8 0 -11 -5 -8 -5 4 -21 -15 -35 -41 -13 -26 -41 -77 -61
-113 l-37 -66 26 -84 c41 -136 174 -603 174 -614 0 -5 4 -16 9 -24 7 -11 27 0
90 48 45 34 81 65 81 69 0 13 -118 437 -161 580 -29 99 -37 137 -29 147 6 7
10 17 9 21 -3 20 2 35 10 30 10 -7 51 57 51 80 0 8 5 14 10 14 6 0 10 12 10
26 0 14 3 23 8 21 4 -3 17 15 28 39 12 24 18 44 14 44 -4 0 -7 11 -7 24 0 17
4 23 13 19 8 -3 14 -10 14 -16 0 -13 29 24 30 37 0 6 -7 1 -16 -10 -15 -19
-16 -19 -9 1 4 11 8 25 9 30 1 6 6 17 11 25 5 8 10 18 11 23 1 4 2 10 3 15 1
4 6 0 12 -8 9 -12 10 -12 5 4 -6 17 4 30 62 78 11 8 11 12 2 18 -9 6 -4 13 16
24 44 23 8 17 -76 -13z m-100 -261 c0 -5 -5 -10 -11 -10 -5 0 -7 5 -4 10 3 6
8 10 11 10 2 0 4 -4 4 -10z m-163 -266 c-3 -3 -12 -4 -19 -1 -8 3 -5 6 6 6 11
1 17 -2 13 -5z"/>
<path d="M2151 7293 c-7 -8 -10 -17 -7 -20 9 -9 29 13 25 25 -2 6 -10 3 -18
-5z"/>
<path d="M2156 7223 c-4 -9 -2 -21 4 -27 7 -7 10 -2 10 17 0 31 -5 34 -14 10z"/>
<path d="M2171 7154 c0 -11 3 -14 6 -6 3 7 2 16 -1 19 -3 4 -6 -2 -5 -13z"/>
<path d="M6475 7083 c-22 -8 -60 -21 -85 -27 -51 -14 -50 -8 -26 -140 9 -49
16 -137 16 -197 0 -107 0 -108 21 -100 12 4 29 25 37 47 20 50 29 56 74 50 26
-3 38 0 42 11 10 25 7 213 -5 279 -15 87 -23 96 -74 77z"/>
<path d="M6760 7076 c0 -8 5 -18 10 -21 6 -3 10 1 10 9 0 8 -4 18 -10 21 -5 3
-10 -1 -10 -9z"/>
<path d="M2145 7061 c-3 -5 -1 -12 4 -15 5 -3 11 1 15 9 6 16 -9 21 -19 6z"/>
<path d="M6117 7023 c-4 -3 -7 -11 -7 -17 0 -6 5 -5 12 2 6 6 9 14 7 17 -3 3
-9 2 -12 -2z"/>
<path d="M2116 6975 c-10 -25 -16 -48 -13 -51 9 -9 38 56 35 77 -2 14 -9 6
-22 -26z"/>
<path d="M5503 6964 c-26 -33 -38 -56 -32 -60 20 -12 63 31 71 71 5 21 7 39 6
40 -2 1 -22 -22 -45 -51z"/>
<path d="M3386 6991 c-3 -5 -4 -33 -1 -63 4 -48 9 -57 50 -95 26 -24 76 -54
120 -72 99 -42 130 -48 138 -26 4 9 3 14 -2 11 -5 -3 -15 2 -22 11 -13 15 -11
16 13 10 29 -8 48 7 23 17 -20 7 -19 34 1 38 10 2 -32 22 -93 45 -60 24 -127
57 -149 76 -66 55 -72 58 -78 48z"/>
<path d="M5526 6893 c-6 -14 -5 -15 5 -6 7 7 10 15 7 18 -3 3 -9 -2 -12 -12z"/>
<path d="M2142 6870 c0 -19 2 -27 5 -17 2 9 2 25 0 35 -3 9 -5 1 -5 -18z"/>
<path d="M6160 6868 c-19 -5 -40 -14 -46 -19 -13 -11 -1 -126 15 -142 8 -8 11
-8 11 1 0 7 16 22 35 33 34 20 35 23 35 80 0 32 -3 59 -7 58 -5 0 -24 -5 -43
-11z"/>
<path d="M435 6849 c-4 -6 -5 -12 -2 -15 2 -3 7 2 10 11 7 17 1 20 -8 4z"/>
<path d="M5125 6815 c-226 -42 -320 -50 -595 -50 -146 0 -324 4 -397 8 -128 7
-132 7 -138 -13 -10 -32 -18 -28 128 -59 27 -6 60 -20 74 -31 l26 -20 -59 -1
-59 -2 60 -8 c33 -4 157 -11 275 -16 125 -4 192 -10 160 -13 -51 -5 -55 -7
-61 -35 -10 -47 -10 -543 0 -549 5 -3 14 8 20 25 7 22 15 29 26 25 8 -3 15 0
15 7 1 7 6 5 14 -5 7 -10 18 -18 25 -18 16 0 14 -14 -9 -43 -11 -14 -20 -28
-20 -31 0 -19 314 10 386 36 17 6 35 20 40 32 5 11 12 20 17 19 9 -4 42 29 50
48 4 10 6 10 6 2 1 -7 7 -13 15 -13 25 0 176 53 176 62 0 11 -7 10 -65 -8 -27
-8 -74 -16 -102 -18 -50 -4 -53 -2 -53 20 0 13 -6 24 -12 24 -7 1 2 7 20 15
35 15 43 41 15 47 -14 3 -18 14 -18 53 0 50 14 77 37 74 29 -4 46 2 52 17 5
12 1 14 -17 9 l-22 -6 23 17 c28 21 30 54 2 54 -12 0 -28 -13 -40 -32 l-20
-33 0 28 c0 15 -5 27 -10 27 -7 0 -7 6 -1 18 5 9 10 22 11 27 1 6 8 9 16 7 11
-2 14 10 14 52 0 57 -9 63 -47 33 -13 -9 -17 4 -15 42 0 11 -19 12 -96 8 l-97
-6 73 14 c92 17 142 34 142 46 0 6 -13 16 -30 22 -29 13 -29 13 33 24 89 16
157 47 157 73 0 11 -1 19 -2 19 -2 -1 -57 -12 -123 -24z m-377 -192 c-10 -2
-28 -2 -40 0 -13 2 -5 4 17 4 22 1 32 -1 23 -4z m278 -240 c-18 -33 -21 -26
-6 13 6 15 13 24 16 21 3 -3 -1 -18 -10 -34z m-45 -10 c-12 -20 -14 -14 -5 12
4 9 9 14 11 11 3 -2 0 -13 -6 -23z"/>
<path d="M3390 6799 c0 -15 11 -35 25 -49 14 -13 25 -18 25 -12 0 6 -5 14 -11
18 -6 3 -17 20 -25 38 -13 30 -13 30 -14 5z"/>
<path d="M2040 6744 c0 -8 5 -12 10 -9 6 3 10 10 10 16 0 5 -4 9 -10 9 -5 0
-10 -7 -10 -16z"/>
<path d="M3396 6690 c2 -30 3 -75 3 -99 0 -45 22 -81 49 -81 11 0 7 9 -13 30
-27 28 -24 45 3 18 7 -7 12 -8 12 -2 0 6 -9 19 -20 29 -23 21 -28 44 -5 25 26
-22 27 -4 1 27 -14 17 -26 46 -29 69 -2 21 -3 14 -1 -16z"/>
<path d="M3798 6713 c7 -3 16 -2 19 1 4 3 -2 6 -13 5 -11 0 -14 -3 -6 -6z"/>
<path d="M5310 6660 c0 -5 4 -10 9 -10 6 0 13 5 16 10 3 6 -1 10 -9 10 -9 0
-16 -4 -16 -10z"/>
<path d="M5257 6643 c-15 -14 -6 -40 18 -51 31 -14 34 3 3 19 -21 11 -21 12
-3 25 15 11 16 14 4 14 -9 0 -19 -3 -22 -7z"/>
<path d="M1990 6630 c0 -5 5 -10 11 -10 5 0 7 5 4 10 -3 6 -8 10 -11 10 -2 0
-4 -4 -4 -10z"/>
<path d="M5157 6612 c-28 -31 -20 -92 13 -92 27 0 42 25 38 67 -3 44 -25 54
-51 25z m33 -37 c0 -24 -5 -35 -15 -35 -15 0 -20 26 -9 54 11 28 24 17 24 -19z"/>
<path d="M5220 6584 c0 -27 4 -43 10 -39 6 3 10 24 10 46 0 21 -4 39 -10 39
-5 0 -10 -21 -10 -46z"/>
<path d="M1456 6572 c-3 -6 -1 -14 5 -17 15 -10 25 3 12 16 -7 7 -13 7 -17 1z"/>
<path d="M5870 6561 c-14 -28 -13 -96 4 -134 30 -73 126 -115 134 -60 3 23
-30 48 -53 40 -7 -3 -18 0 -24 6 -12 12 -15 97 -3 97 4 0 19 -13 34 -30 14
-16 31 -30 37 -30 33 0 -14 92 -59 115 -39 20 -57 19 -70 -4z"/>
<path d="M3786 6555 c10 -8 23 -15 28 -15 6 0 1 7 -10 15 -10 8 -23 15 -28 15
-6 0 -1 -7 10 -15z"/>
<path d="M5250 6560 c0 -5 6 -10 14 -10 8 0 18 5 21 10 3 6 -3 10 -14 10 -12
0 -21 -4 -21 -10z"/>
<path d="M1996 6544 c-4 -10 0 -24 9 -33 13 -14 15 -13 15 4 0 11 -4 26 -9 33
-6 11 -10 10 -15 -4z"/>
<path d="M6337 6514 c-16 -19 -24 -34 -18 -34 24 0 90 33 85 42 -4 6 0 14 7
19 10 6 5 9 -16 8 -22 0 -38 -10 -58 -35z"/>
<path d="M3407 6471 c4 -50 10 -69 27 -82 26 -21 35 -16 14 8 -8 10 -18 25
-22 33 -4 8 0 6 8 -4 9 -11 19 -16 23 -13 3 4 -3 17 -15 30 -25 27 -30 46 -7
27 28 -23 25 -4 -5 31 l-29 34 6 -64z"/>
<path d="M3890 6526 c0 -2 7 -7 16 -10 8 -3 12 -2 9 4 -6 10 -25 14 -25 6z"/>
<path d="M6040 6507 c-1 -1 -1 -47 -2 -102 l-1 -100 54 -32 c64 -39 69 -40 69
-10 0 14 -12 30 -35 45 -19 12 -35 27 -35 33 0 7 10 5 25 -5 32 -21 45 -20 45
4 0 12 -16 30 -42 47 -24 15 -37 28 -30 31 7 2 24 -3 37 -12 33 -22 37 -20 33
10 -2 20 -17 34 -60 60 -32 18 -58 32 -58 31z"/>
<path d="M1980 6491 c0 -6 4 -13 10 -16 6 -3 7 1 4 9 -7 18 -14 21 -14 7z"/>
<path d="M4140 6493 c0 -5 7 -18 15 -29 13 -18 14 -18 8 4 -5 22 -23 41 -23
25z"/>
<path d="M4016 6474 c-5 -12 -2 -15 10 -10 8 3 18 6 20 6 3 0 2 5 -1 10 -9 15
-22 12 -29 -6z"/>
<path d="M4095 6480 c-8 -13 -1 -24 14 -19 6 3 7 10 2 18 -6 10 -10 10 -16 1z"/>
<path d="M3650 6396 c0 -59 3 -75 16 -80 12 -5 15 -2 10 10 -3 8 -6 45 -6 80
0 36 -4 64 -10 64 -6 0 -10 -31 -10 -74z"/>
<path d="M3720 6421 c5 -11 10 -38 10 -61 0 -25 4 -39 10 -35 23 14 5 115 -21
115 -6 0 -6 -7 1 -19z"/>
<path d="M3778 6433 c-3 -4 -4 -21 -2 -38 1 -16 3 -49 3 -72 1 -24 6 -43 12
-43 7 0 10 25 7 75 -4 71 -11 96 -20 78z"/>
<path d="M4116 6432 c-2 -4 10 -8 29 -8 19 0 31 4 29 8 -3 4 -16 8 -29 8 -13
0 -26 -4 -29 -8z"/>
<path d="M1880 6411 c0 -5 7 -12 16 -15 14 -5 15 -4 4 9 -14 17 -20 19 -20 6z"/>
<path d="M3848 6408 c7 -7 12 -26 12 -42 1 -27 2 -28 11 -13 8 14 7 24 -5 43
-9 13 -20 24 -23 24 -4 0 -2 -5 5 -12z"/>
<path d="M6183 6320 c0 -91 1 -102 20 -115 30 -21 37 -19 37 12 0 34 14 21 29
-28 7 -22 21 -41 36 -47 28 -13 29 -11 11 38 -11 29 -11 39 1 57 18 27 10 71
-18 107 -16 20 -98 76 -111 76 -3 0 -5 -45 -5 -100z m85 -14 c3 -12 -1 -17
-10 -14 -7 3 -15 13 -16 22 -3 12 1 17 10 14 7 -3 15 -13 16 -22z"/>
<path d="M3415 6375 c4 -11 8 -32 9 -48 2 -31 36 -74 36 -45 0 8 -7 21 -15 28
-8 7 -15 17 -15 22 0 6 7 5 15 -2 25 -21 17 6 -11 37 -20 22 -24 24 -19 8z"/>
<path d="M4000 6315 c0 -53 4 -75 13 -75 9 0 11 20 9 75 -5 97 -22 98 -22 0z"/>
<path d="M6662 6330 c-17 -35 -26 -60 -19 -60 7 1 41 18 75 39 53 33 61 40 44
45 -11 4 -23 13 -26 21 -12 34 -43 15 -74 -45z"/>
<path d="M4125 6358 c17 -52 61 -133 70 -128 13 6 11 13 -19 85 -14 34 -32 62
-41 63 -14 3 -15 -1 -10 -20z"/>
<path d="M4200 6376 c0 -4 23 -60 48 -118 9 -21 22 -38 28 -38 10 0 49 67 82
143 2 4 -4 7 -13 7 -9 0 -15 -6 -13 -12 4 -17 -31 -108 -42 -108 -4 0 -18 26
-31 58 -12 31 -28 60 -33 64 -12 8 -26 10 -26 4z"/>
<path d="M3826 6328 c21 -36 47 -69 51 -64 7 7 -37 76 -48 76 -6 0 -7 -6 -3
-12z"/>
<path d="M1890 6301 c0 -6 4 -13 10 -16 6 -3 7 1 4 9 -7 18 -14 21 -14 7z"/>
<path d="M1925 6267 c4 -35 5 -37 14 -37 10 0 2 48 -9 55 -4 2 -6 -6 -5 -18z"/>
<path d="M6365 6208 l-25 -83 22 -17 c16 -12 26 -14 35 -6 10 8 23 0 53 -33
21 -24 42 -40 46 -36 4 3 -3 53 -15 109 -17 82 -27 108 -47 126 -14 12 -29 22
-34 22 -5 0 -21 -37 -35 -82z m68 -51 c-9 -16 -24 9 -17 28 7 18 8 18 14 -1 4
-10 5 -23 3 -27z"/>
<path d="M3910 6270 c0 -5 5 -10 10 -10 6 0 10 5 10 10 0 6 -4 10 -10 10 -5 0
-10 -4 -10 -10z"/>
<path d="M5183 6267 c-37 -6 -53 -13 -53 -24 0 -12 8 -13 43 -8 37 6 78 29 66
38 -2 2 -28 -1 -56 -6z"/>
<path d="M4090 6245 c-8 -9 -8 -15 -2 -15 12 0 26 19 19 26 -2 2 -10 -2 -17
-11z"/>
<path d="M6520 6117 c0 -101 1 -104 25 -115 36 -17 38 -16 32 18 -8 36 -2 38
24 8 16 -20 20 -21 29 -8 9 13 10 13 11 0 1 -8 0 -25 -1 -38 -2 -23 25 -62 42
-62 4 0 8 47 8 104 0 98 -1 105 -22 111 -16 6 -26 1 -39 -16 -21 -28 -20 -28
-43 30 -16 41 -40 70 -58 71 -5 0 -8 -47 -8 -103z"/>
<path d="M5500 6195 c-8 -9 -8 -15 -2 -15 12 0 26 19 19 26 -2 2 -10 -2 -17
-11z"/>
<path d="M1930 6193 c0 -7 -6 -10 -14 -7 -11 4 -13 0 -10 -18 5 -23 5 -23 -11
-3 -12 15 -18 17 -23 7 -10 -14 -112 -25 -112 -11 0 5 -4 9 -10 9 -5 0 -10 -8
-10 -18 0 -24 -51 -72 -77 -72 -11 0 -26 -7 -33 -15 -13 -16 -4 -59 11 -49 6
3 5 -3 -3 -15 -13 -21 -35 -23 -31 -2 2 6 -1 11 -6 11 -5 0 -8 -21 -7 -47 1
-39 -2 -48 -18 -51 -16 -3 -18 1 -14 32 4 35 -5 44 -27 28 -14 -10 -17 -142
-3 -142 6 0 17 -8 24 -17 13 -17 13 -17 14 0 0 9 -5 26 -12 36 -6 10 -8 27 -4
37 7 19 8 19 22 0 10 -14 11 -23 3 -32 -7 -9 -5 -18 10 -33 26 -26 26 -31 1
-31 -11 0 -20 -4 -20 -9 0 -5 -13 -14 -30 -21 -42 -17 -39 -63 5 -71 15 -3 21
-13 23 -43 4 -46 -3 -55 -46 -58 -38 -3 -50 -14 -33 -31 6 -6 11 -19 11 -29 0
-12 5 -15 16 -11 12 4 15 0 12 -18 -2 -18 -10 -24 -30 -26 -16 -1 -28 2 -28 7
0 4 -9 6 -20 3 -14 -4 -20 -14 -20 -33 0 -20 -6 -30 -22 -35 l-23 -7 25 -7
c17 -5 21 -9 12 -15 -6 -4 -16 -4 -22 -1 -6 3 -10 -4 -11 -17 0 -21 -1 -21 -8
-4 -5 12 -10 15 -14 9 -11 -17 21 -39 35 -25 15 15 38 16 38 2 0 -5 -7 -10
-15 -10 -8 0 -15 -9 -15 -20 0 -11 5 -20 11 -20 6 0 9 -10 7 -22 -2 -13 -7
-21 -13 -18 -5 3 -8 13 -7 23 2 10 -3 17 -12 17 -9 0 -16 -7 -16 -15 0 -8 -4
-15 -8 -15 -4 0 -8 -15 -8 -34 0 -28 3 -32 21 -28 18 5 18 4 6 -11 -7 -9 -17
-14 -22 -11 -5 3 -9 0 -9 -5 0 -6 3 -11 8 -11 4 0 6 -22 5 -50 -1 -27 1 -52 6
-54 10 -7 2 -54 -10 -62 -13 -8 19 -51 41 -57 20 -5 28 -37 10 -37 -5 0 -10
-7 -10 -15 0 -9 6 -12 16 -8 17 6 34 -12 34 -36 0 -11 -3 -11 -17 0 -15 12
-16 12 -10 -4 4 -10 7 -21 7 -23 0 -2 6 -4 14 -4 16 0 29 -27 20 -41 -3 -5 -1
-9 5 -9 5 0 12 6 14 13 4 9 8 9 16 -3 5 -8 8 -17 6 -21 -3 -3 7 -6 20 -6 28 0
34 14 10 23 -8 4 -15 11 -15 16 0 6 6 5 15 -2 11 -9 15 -9 15 -1 0 6 -7 14
-15 17 -8 4 -15 15 -15 26 0 17 3 16 25 -8 14 -15 28 -25 30 -22 3 3 -1 11
-10 18 -8 7 -15 22 -15 34 0 12 -7 31 -15 42 -22 29 -18 38 9 20 18 -12 26
-12 29 -3 3 6 6 2 6 -11 1 -13 5 -20 11 -17 7 4 3 19 -11 41 -22 37 -19 70 6
60 17 -6 21 9 5 19 -5 3 -10 18 -10 33 -1 24 -2 25 -14 10 -11 -15 -12 -13
-12 17 1 18 5 31 9 28 4 -2 5 8 3 24 l-5 28 19 -25 c11 -14 20 -34 20 -45 0
-11 12 -28 25 -38 31 -22 32 -14 4 14 -16 16 -20 29 -15 51 5 23 1 34 -17 49
-24 20 -17 25 14 9 23 -13 25 -7 3 15 -9 9 -13 19 -9 23 4 4 18 -6 31 -21 13
-15 24 -24 24 -20 0 4 -11 21 -24 36 -21 24 -23 32 -13 47 6 10 15 16 21 13 5
-4 7 1 2 12 -5 15 -4 16 9 5 8 -7 15 -19 15 -27 0 -13 2 -13 17 -2 15 13 16
11 9 -16 -5 -22 -4 -26 4 -15 8 12 10 10 11 -10 1 -14 4 -68 7 -120 3 -52 5
-149 4 -215 -1 -66 -1 -174 0 -240 1 -66 1 -181 1 -255 -1 -100 2 -126 8 -100
6 19 10 96 10 170 0 97 3 128 10 111 5 -13 12 -21 16 -18 3 4 0 20 -7 36 -15
38 -21 284 -8 333 6 20 7 45 3 55 -5 10 -7 22 -6 26 0 4 -4 17 -10 28 -8 15
-7 24 2 35 18 22 12 122 -10 153 -15 23 -43 99 -45 126 -1 6 -5 13 -11 17 -5
4 -10 25 -10 47 -1 40 7 52 20 31 3 -5 13 -10 21 -10 18 0 13 33 -8 57 -18 21
-29 73 -16 73 6 0 7 16 3 39 -4 23 -2 42 4 45 6 4 8 20 4 36 -3 18 -1 30 5 30
17 0 25 -40 11 -56 -8 -9 -9 -18 -3 -22 5 -4 10 -26 10 -49 2 -32 -1 -40 -12
-36 -16 6 -19 -24 -4 -47 10 -15 20 -10 24 12 3 21 17 39 26 33 4 -2 10 7 13
20 2 14 1 28 -4 30 -4 3 -11 27 -15 53 -4 26 -12 50 -18 54 -7 5 -2 15 14 30
17 16 22 18 17 6 -4 -12 0 -18 16 -20 16 -2 21 -9 20 -26 -2 -14 3 -22 12 -22
9 0 12 -6 9 -15 -4 -8 -1 -15 5 -15 7 0 8 15 4 45 -4 33 -2 45 7 45 10 0 10 3
0 15 -10 12 -10 15 0 15 7 0 10 7 6 16 -3 8 -2 12 4 9 6 -3 10 -13 10 -21 0
-7 9 -19 20 -26 11 -7 20 -19 20 -26 0 -11 3 -10 15 1 12 13 13 19 1 44 -18
37 -29 73 -22 73 4 0 13 -18 22 -40 9 -22 20 -40 25 -40 9 0 2 28 -12 46 -5 6
-6 14 -3 17 4 3 -1 23 -11 42 -19 41 -13 59 10 29 14 -18 14 -18 9 3 -4 12
-15 29 -25 39 -10 9 -19 22 -19 27 0 6 8 3 18 -6 25 -23 32 -21 32 8 0 16 -6
25 -16 25 -11 0 -14 5 -10 16 3 9 6 20 6 25 0 6 5 7 10 4 12 -8 13 5 1 24 -5
7 -5 25 -2 40 4 14 4 43 1 63 -5 27 -4 38 6 40 9 2 11 8 4 18 -6 9 -10 10 -10
3z m-281 -334 c-22 -14 -33 -10 -19 6 7 8 17 12 22 9 6 -4 5 -10 -3 -15z m-93
-125 c-3 -9 -6 -20 -6 -25 0 -6 -4 -7 -10 -4 -16 10 -12 45 6 45 11 0 14 -5
10 -16z m76 -8 c-2 -9 2 -16 8 -16 5 0 10 -4 10 -10 0 -16 -22 -12 -36 8 -19
24 -17 41 4 37 9 -1 16 -9 14 -19z m118 20 c0 -3 -4 -8 -10 -11 -5 -3 -10 -1
-10 4 0 6 5 11 10 11 6 0 10 -2 10 -4z m55 -16 c3 -5 2 -10 -4 -10 -5 0 -13 5
-16 10 -3 6 -2 10 4 10 5 0 13 -4 16 -10z m-79 -28 c-9 -9 -37 8 -31 18 5 8
11 7 21 -1 8 -6 12 -14 10 -17z m-56 -71 c0 -6 -4 -13 -10 -16 -5 -3 -10 1
-10 9 0 9 5 16 10 16 6 0 10 -4 10 -9z m80 -67 c0 -8 -4 -14 -10 -14 -5 0 -10
9 -10 21 0 11 5 17 10 14 6 -3 10 -13 10 -21z m-210 -8 c0 -3 -4 -8 -10 -11
-5 -3 -10 -1 -10 4 0 6 5 11 10 11 6 0 10 -2 10 -4z m124 -81 c-4 -8 -10 -12
-15 -9 -14 8 -10 24 6 24 9 0 12 -6 9 -15z m-151 -44 c-4 -4 -11 -10 -15 -15
-5 -5 -8 3 -8 19 0 24 2 26 15 15 9 -7 12 -16 8 -19z m201 4 c-4 -8 -8 -15
-10 -15 -2 0 -4 7 -4 15 0 8 4 15 10 15 5 0 7 -7 4 -15z m-55 -37 c-1 -31 -1
-31 -8 -8 -5 14 -6 28 -4 33 9 15 13 6 12 -25z m-21 -14 c-10 -10 -28 6 -28
24 0 15 1 15 17 -1 9 -9 14 -19 11 -23z m-174 -69 c-6 -16 -24 -21 -24 -7 0
11 11 22 21 22 5 0 6 -7 3 -15z m-27 -87 c-3 -8 -6 -5 -6 6 -1 11 2 17 5 13 3
-3 4 -12 1 -19z m-24 -136 c-7 -29 -20 -28 -17 1 1 12 3 29 3 37 1 13 3 13 11
-1 5 -8 6 -25 3 -37z m-3 -52 c0 -5 -4 -10 -10 -10 -5 0 -10 5 -10 10 0 6 5
10 10 10 6 0 10 -4 10 -10z m36 -63 c4 -4 -5 -7 -20 -7 -15 0 -25 4 -22 9 7
10 31 9 42 -2z m69 -146 c3 -5 1 -12 -5 -16 -5 -3 -10 1 -10 9 0 18 6 21 15 7z"/>
<path d="M3431 6149 c0 -69 13 -147 26 -160 6 -6 10 -4 10 6 0 8 -4 15 -9 15
-4 0 -8 5 -8 10 0 6 7 10 15 10 12 0 13 4 6 19 -6 10 -8 21 -5 24 3 3 -1 16
-10 29 -18 25 -21 55 -7 60 5 2 3 12 -5 22 -13 18 -14 15 -13 -35z"/>
<path d="M4232 6160 c0 -14 2 -19 5 -12 2 6 2 18 0 25 -3 6 -5 1 -5 -13z"/>
<path d="M4325 6170 c-8 -12 3 -50 14 -50 4 0 8 14 8 30 0 30 -10 39 -22 20z"/>
<path d="M5501 6104 c0 -11 3 -14 6 -6 3 7 2 16 -1 19 -3 4 -6 -2 -5 -13z"/>
<path d="M6720 6006 l0 -105 30 -16 30 -16 0 99 c0 82 -3 102 -17 114 -42 36
-43 34 -43 -76z"/>
<path d="M6802 5948 l3 -101 58 -31 c56 -30 58 -31 72 -12 20 27 19 103 -3
146 -15 31 -100 100 -123 100 -6 0 -8 -44 -7 -102z m89 -15 c12 -32 3 -76 -14
-70 -15 5 -22 97 -7 97 6 0 15 -12 21 -27z"/>
<path d="M1962 5960 c0 -14 2 -19 5 -12 2 6 2 18 0 25 -3 6 -5 1 -5 -13z"/>
<path d="M2011 5964 c0 -11 3 -14 6 -6 3 7 2 16 -1 19 -3 4 -6 -2 -5 -13z"/>
<path d="M3570 5969 c0 -6 -7 -9 -15 -5 -26 10 -16 -10 11 -23 23 -10 26 -10
20 4 -3 9 -2 13 4 10 6 -3 10 -11 10 -16 0 -19 96 -129 120 -138 65 -23 151
-44 229 -57 367 -58 341 -56 596 -49 132 3 272 12 310 19 52 10 61 14 35 15
-50 2 -20 17 55 26 33 5 51 10 40 13 -11 2 -25 9 -32 14 -7 6 -42 7 -88 3 -41
-4 -75 -5 -75 -1 0 3 15 12 33 20 20 9 26 15 14 15 -10 1 -16 5 -13 9 6 10 17
9 -172 21 -84 6 -157 13 -163 16 -5 4 -45 7 -87 6 -42 0 -187 6 -322 13 l-245
14 -119 41 c-125 43 -146 48 -146 30z m440 -130 c29 0 39 -3 27 -8 -10 -4 9
-7 43 -6 45 0 65 -4 73 -16 7 -10 35 -19 71 -23 33 -5 69 -12 80 -17 28 -12
-213 -2 -274 12 -25 5 -66 12 -92 16 -27 3 -48 10 -48 16 0 17 34 37 55 32 11
-3 40 -5 65 -6z"/>
<path d="M6972 5848 l3 -102 55 -32 c67 -40 70 -41 70 -9 0 19 -9 29 -35 42
-19 9 -36 22 -39 30 -7 17 5 17 30 -2 27 -20 34 -19 34 9 0 17 -11 31 -37 47
-37 23 -32 40 6 20 30 -17 43 -13 39 11 -2 15 -22 33 -62 55 -32 18 -60 33
-62 33 -3 0 -3 -46 -2 -102z"/>
<path d="M8226 5941 c-3 -5 1 -11 9 -14 9 -4 12 -1 8 9 -6 16 -10 17 -17 5z"/>
<path d="M4140 5931 c-58 -12 -13 -22 86 -19 51 2 89 7 89 13 0 12 -125 16
-175 6z"/>
<path d="M8183 5923 c-15 -5 -18 -43 -4 -43 9 0 26 39 19 44 -1 2 -9 1 -15 -1z"/>
<path d="M1951 5884 c0 -11 3 -14 6 -6 3 7 2 16 -1 19 -3 4 -6 -2 -5 -13z"/>
<path d="M1958 5824 c-4 -5 0 -18 8 -29 15 -20 17 -12 5 19 -4 11 -10 15 -13
10z"/>
<path d="M2342 5779 c-7 -21 -12 -50 -12 -64 0 -16 -4 -24 -11 -20 -7 5 -9 -5
-7 -26 2 -22 8 -34 18 -34 8 0 15 5 16 10 0 6 9 28 19 50 9 22 19 58 21 80 2
33 0 41 -14 42 -12 1 -21 -11 -30 -38z"/>
<path d="M4978 5793 c7 -3 16 -2 19 1 4 3 -2 6 -13 5 -11 0 -14 -3 -6 -6z"/>
<path d="M2407 5783 c-4 -3 -7 -11 -7 -17 0 -6 5 -5 12 2 6 6 9 14 7 17 -3 3
-9 2 -12 -2z"/>
<path d="M10382 5765 c-22 -19 -32 -36 -32 -55 0 -38 16 -80 41 -106 l20 -22
-28 -22 c-27 -21 -27 -22 -9 -36 33 -24 71 -17 103 19 47 52 65 58 141 51 37
-4 76 -11 87 -17 31 -16 79 -58 87 -76 4 -9 6 54 6 139 0 85 -2 147 -5 138 -3
-11 -14 -18 -27 -18 -12 0 -26 -4 -32 -10 -11 -11 -177 6 -204 20 -8 4 -38 11
-66 15 -46 6 -54 4 -82 -20z"/>
<path d="M5108 5763 c7 -3 16 -2 19 1 4 3 -2 6 -13 5 -11 0 -14 -3 -6 -6z"/>
<path d="M5068 5753 c7 -3 16 -2 19 1 4 3 -2 6 -13 5 -11 0 -14 -3 -6 -6z"/>
<path d="M5028 5743 c7 -3 16 -2 19 1 4 3 -2 6 -13 5 -11 0 -14 -3 -6 -6z"/>
<path d="M4953 5733 c9 -2 23 -2 30 0 6 3 -1 5 -18 5 -16 0 -22 -2 -12 -5z"/>
<path d="M1951 5700 c0 -8 4 -22 9 -30 12 -18 12 -2 0 25 -6 13 -9 15 -9 5z"/>
<path d="M1878 5684 c-5 -4 -8 -21 -8 -38 1 -26 2 -28 11 -13 11 19 8 63 -3
51z"/>
<path d="M1900 5638 c0 -10 4 -18 9 -18 5 0 12 -10 14 -22 4 -21 4 -21 6 -2 0
11 -6 29 -14 40 -13 17 -14 17 -15 2z"/>
<path d="M1785 5627 c-12 -14 -8 -47 6 -47 5 0 9 14 9 30 0 33 -1 34 -15 17z"/>
<path d="M1830 5586 c0 -8 5 -18 10 -21 6 -3 10 3 10 14 0 12 -4 21 -10 21 -5
0 -10 -6 -10 -14z"/>
<path d="M1792 5538 c-9 -35 -6 -58 9 -58 5 0 7 11 3 24 -3 13 -1 27 5 30 6 4
11 2 11 -5 0 -10 3 -10 11 -2 9 9 8 16 -4 27 -22 22 -25 20 -35 -16z"/>
<path d="M1395 5480 c-3 -5 -1 -10 4 -10 6 0 11 5 11 10 0 6 -2 10 -4 10 -3 0
-8 -4 -11 -10z"/>
<path d="M1380 5450 c0 -5 7 -10 16 -10 8 0 12 5 9 10 -3 6 -10 10 -16 10 -5
0 -9 -4 -9 -10z"/>
<path d="M1780 5439 c0 -5 5 -7 10 -4 6 3 10 8 10 11 0 2 -4 4 -10 4 -5 0 -10
-5 -10 -11z"/>
<path d="M1360 5414 c0 -8 5 -12 10 -9 6 3 10 10 10 16 0 5 -4 9 -10 9 -5 0
-10 -7 -10 -16z"/>
<path d="M1752 5405 c0 -16 2 -22 5 -12 2 9 2 23 0 30 -3 6 -5 -1 -5 -18z"/>
<path d="M1705 5355 c4 -43 22 -104 36 -119 14 -16 11 20 -5 56 -8 18 -19 49
-25 68 l-10 35 4 -40z"/>
<path d="M1776 5365 c-3 -9 -6 -22 -5 -28 0 -7 5 -1 10 12 5 13 8 26 5 28 -2
2 -6 -3 -10 -12z"/>
<path d="M1797 5353 c-5 -7 -1 -25 7 -40 16 -29 19 -16 7 27 -5 16 -9 21 -14
13z"/>
<path d="M1791 5264 c0 -11 3 -14 6 -6 3 7 2 16 -1 19 -3 4 -6 -2 -5 -13z"/>
<path d="M1686 5171 c9 -17 17 -31 19 -31 8 0 -9 40 -21 51 -10 8 -10 3 2 -20z"/>
<path d="M488 5134 c-5 -4 -8 -16 -8 -28 0 -14 3 -17 11 -9 6 6 9 19 7 28 -1
9 -6 13 -10 9z"/>
<path d="M1630 5101 c0 -5 5 -13 10 -16 6 -3 10 -2 10 4 0 5 -4 13 -10 16 -5
3 -10 2 -10 -4z"/>
<path d="M532 5070 c0 -14 2 -19 5 -12 2 6 2 18 0 25 -3 6 -5 1 -5 -13z"/>
<path d="M645 5075 c-3 -8 -7 -21 -9 -28 -6 -19 -72 -37 -85 -24 -7 7 -16 6
-29 -6 -26 -23 -30 -21 -25 11 3 21 2 24 -6 11 -8 -13 -23 -15 -68 -12 -54 4
-78 17 -67 35 3 4 -11 1 -30 -7 -22 -9 -37 -11 -41 -5 -6 10 -61 8 -72 -3 -3
-4 -16 -7 -27 -7 -12 0 -34 -7 -50 -15 -15 -8 -32 -12 -37 -9 -5 3 -25 -7 -44
-22 -19 -14 -35 -21 -35 -15 0 7 -5 9 -11 6 -13 -9 -10 -393 4 -402 4 -3 6
-11 3 -19 -3 -7 -1 -16 4 -19 15 -10 12 -45 -5 -51 -11 -5 -15 -23 -15 -75 0
-60 2 -69 18 -69 23 0 42 -19 42 -42 0 -11 -5 -15 -15 -12 -11 5 -13 2 -9 -10
5 -12 2 -15 -9 -10 -9 3 -18 15 -20 27 -3 15 -5 11 -6 -10 -1 -23 4 -33 13
-33 8 0 22 -3 32 -7 12 -4 15 -3 10 5 -4 8 -2 10 8 6 11 -4 8 -12 -15 -37 -19
-20 -26 -33 -18 -36 6 -2 20 6 29 19 19 26 57 24 52 -3 -2 -11 4 -17 17 -17
25 0 36 -16 16 -24 -23 -9 -19 -39 4 -31 13 4 23 0 29 -12 10 -16 12 -16 47 2
28 15 39 17 42 8 5 -15 43 -17 43 -3 0 6 7 10 15 10 8 0 15 3 15 8 0 4 9 13
20 20 19 11 20 11 14 -12 -7 -28 11 -43 31 -26 20 16 19 0 -1 -28 -17 -25 -4
-31 16 -7 7 9 21 13 31 10 10 -3 23 1 31 10 7 9 21 24 32 33 10 9 29 28 41 41
l23 24 12 -23 13 -23 13 29 c8 16 12 21 9 12 -2 -10 0 -18 6 -18 6 0 13 9 16
20 6 22 23 27 24 8 0 -7 4 -4 8 6 5 14 18 19 52 20 50 1 69 10 69 32 0 11 -7
9 -31 -8 -30 -22 -31 -22 -44 -4 -10 13 -11 24 -4 37 11 21 -1 25 -19 7 -16
-16 -15 4 1 27 10 13 16 15 21 6 6 -9 12 -7 22 6 12 16 13 15 14 -13 0 -20 5
-31 15 -31 8 0 15 5 15 10 0 5 9 7 21 4 15 -4 19 -2 15 8 -3 8 0 16 7 18 19 7
0 20 -38 26 -41 7 -51 24 -17 29 16 3 22 8 18 18 -3 8 -1 12 4 9 6 -4 7 7 3
27 -3 18 -10 35 -15 36 -14 6 -9 30 9 36 15 6 15 9 3 16 -11 7 -12 14 -2 34 6
14 17 26 23 26 9 0 9 3 0 14 -15 18 15 31 35 15 9 -7 18 -7 31 0 10 6 12 11 6
11 -25 0 -12 18 17 23 29 6 100 -24 100 -43 0 -4 9 -10 20 -13 17 -4 22 0 27
24 3 16 12 29 20 29 8 0 11 5 8 10 -3 6 0 17 8 24 12 13 16 11 27 -10 10 -18
16 -21 22 -12 11 18 10 28 -3 26 -6 -2 -14 3 -16 10 -3 6 1 12 7 12 30 0 -31
150 -79 193 -31 29 -64 29 -40 0 10 -11 10 -16 0 -22 -10 -6 -9 -10 3 -14 9
-4 16 -13 16 -22 0 -8 6 -15 14 -15 28 0 27 -30 -2 -41 -45 -18 -192 -9 -192
12 0 4 -8 10 -17 12 -14 4 -12 5 5 6 20 1 33 21 13 21 -5 0 -12 17 -17 38 -4
22 -9 30 -11 20 -5 -20 -23 -25 -23 -6 0 6 -3 9 -6 6 -3 -4 -15 3 -26 14 -11
11 -26 17 -33 14 -9 -3 -16 5 -20 25 -4 16 -11 29 -16 29 -5 0 -9 11 -9 24 0
16 -7 27 -20 31 -15 5 -19 12 -15 26 4 10 4 19 0 19 -3 0 -8 -7 -10 -15z m455
-293 c0 -4 -16 -9 -36 -10 -23 -2 -33 1 -29 8 7 12 65 14 65 2z m-854 -86 c7
-39 -3 -79 -17 -71 -5 4 -9 31 -9 61 0 60 15 66 26 10z m774 40 c0 -3 -4 -8
-10 -11 -5 -3 -10 -1 -10 4 0 6 5 11 10 11 6 0 10 -2 10 -4z m-864 -38 c28 6
44 -17 32 -44 -6 -13 -16 -23 -22 -21 -6 2 -18 -12 -27 -31 l-16 -34 -13 66
c-7 36 -9 74 -5 83 6 17 7 17 21 -2 8 -11 22 -19 30 -17z m223 -17 c0 -14 -1
-14 -6 -1 -3 8 -10 24 -15 35 -9 20 -9 20 6 1 9 -11 16 -27 15 -35z m-295 19
c3 -8 7 -36 11 -63 5 -45 4 -48 -22 -58 -16 -7 -23 -13 -15 -16 14 -6 16 -49
2 -58 -6 -3 -10 4 -10 17 0 13 -7 41 -15 63 -14 40 -20 117 -9 127 11 12 54 3
58 -12z m316 -100 c0 -5 -4 -10 -10 -10 -5 0 -10 5 -10 10 0 6 5 10 10 10 6 0
10 -4 10 -10z m-290 -54 c0 -8 -4 -18 -10 -21 -5 -3 -10 -4 -10 -1 0 2 -3 11
-6 20 -4 11 -1 16 10 16 9 0 16 -6 16 -14z m100 4 c0 -5 -2 -10 -4 -10 -3 0
-8 5 -11 10 -3 6 -1 10 4 10 6 0 11 -4 11 -10z m37 -12 c-3 -8 -6 -5 -6 6 -1
11 2 17 5 13 3 -3 4 -12 1 -19z m489 -165 c-10 -10 -19 5 -10 18 6 11 8 11 12
0 2 -7 1 -15 -2 -18z m-586 -73 c0 -5 -6 -10 -14 -10 -8 0 -18 5 -21 10 -3 6
3 10 14 10 12 0 21 -4 21 -10z m-27 -37 c-7 -2 -19 -2 -25 0 -7 3 -2 5 12 5
14 0 19 -2 13 -5z m541 -8 c-6 -16 -24 -21 -24 -7 0 11 11 22 21 22 5 0 6 -7
3 -15z m-104 -35 c0 -5 -5 -10 -11 -10 -5 0 -7 5 -4 10 3 6 8 10 11 10 2 0 4
-4 4 -10z m-330 -9 c0 -5 -7 -11 -15 -15 -9 -3 -15 0 -15 9 0 8 7 15 15 15 8
0 15 -4 15 -9z m220 -65 c0 -3 -4 -8 -10 -11 -5 -3 -10 -1 -10 4 0 6 5 11 10
11 6 0 10 -2 10 -4z"/>
<path d="M55 4610 c-3 -5 -1 -10 4 -10 6 0 11 5 11 10 0 6 -2 10 -4 10 -3 0
-8 -4 -11 -10z"/>
<path d="M591 5064 c0 -11 3 -14 6 -6 3 7 2 16 -1 19 -3 4 -6 -2 -5 -13z"/>
<path d="M901 5006 c-10 -12 -8 -13 8 -9 12 3 18 9 15 14 -7 12 -10 11 -23 -5z"/>
<path d="M1670 5001 c0 -6 4 -13 10 -16 6 -3 7 1 4 9 -7 18 -14 21 -14 7z"/>
<path d="M1595 4960 c3 -5 8 -10 11 -10 2 0 4 5 4 10 0 6 -5 10 -11 10 -5 0
-7 -4 -4 -10z"/>
<path d="M1175 4920 c-3 -5 -2 -10 4 -10 5 0 13 5 16 10 3 6 2 10 -4 10 -5 0
-13 -4 -16 -10z"/>
<path d="M1701 4896 c7 -15 15 -23 17 -16 3 7 -3 19 -13 28 -15 16 -16 15 -4
-12z"/>
<path d="M2566 4867 c-74 -41 -238 -209 -276 -283 -8 -16 -18 -31 -21 -34 -4
-3 -29 -44 -56 -92 -64 -112 -105 -233 -109 -322 -3 -69 -3 -70 34 -102 20
-18 42 -33 48 -34 6 0 28 -13 50 -30 21 -16 49 -30 61 -30 12 0 23 -6 25 -12
4 -10 10 -10 31 -1 15 7 34 10 42 7 8 -4 15 -1 15 5 0 6 9 11 20 11 11 0 23 7
26 15 9 21 19 19 32 -7 l11 -23 1 25 c1 31 23 62 41 58 8 -2 13 3 12 10 -2 6
3 12 11 12 8 0 17 14 21 33 8 40 26 80 42 90 7 4 10 14 7 21 -3 7 2 21 11 30
20 19 37 134 29 186 -4 19 -14 41 -23 48 -11 9 -12 15 -5 20 14 9 26 72 14 72
-6 0 -10 -5 -10 -12 0 -6 -2 -9 -5 -6 -3 3 -1 17 4 30 6 17 6 29 -1 36 -8 8
-8 15 2 27 8 10 9 15 1 15 -15 0 -11 78 6 91 16 14 18 63 2 53 -8 -4 -9 3 -5
23 5 22 3 32 -8 36 -8 3 -16 16 -18 28 -4 30 -16 31 -62 6z"/>
<path d="M10535 4830 c-44 -16 -114 -46 -155 -66 -85 -41 -81 -40 -212 -111
-102 -56 -142 -73 -222 -95 -53 -14 -106 -56 -106 -83 0 -14 8 -16 63 -10 35
4 89 2 122 -4 40 -8 61 -8 63 -1 6 17 19 11 25 -10 7 -27 25 -25 39 5 6 13 15
22 20 19 5 -3 12 3 15 15 7 29 34 34 139 26 154 -10 203 -6 231 22 15 15 31
19 69 17 130 -8 159 -20 167 -69 2 -17 5 57 6 163 1 140 -2 191 -10 186 -6 -3
-15 -1 -19 6 -4 7 -38 13 -81 16 -64 3 -85 0 -154 -26z"/>
<path d="M1610 4770 c0 -5 5 -10 11 -10 5 0 7 5 4 10 -3 6 -8 10 -11 10 -2 0
-4 -4 -4 -10z"/>
<path d="M1780 4710 c0 -16 4 -30 8 -30 5 0 7 14 4 30 -2 17 -6 30 -8 30 -2 0
-4 -13 -4 -30z"/>
<path d="M1478 4724 c-3 -5 -1 -20 5 -34 8 -20 11 -22 14 -8 5 20 -12 55 -19
42z"/>
<path d="M3997 4716 c-3 -8 2 -16 14 -19 23 -6 24 -1 5 18 -12 12 -15 12 -19
1z"/>
<path d="M3950 4712 c0 -4 -9 -13 -21 -20 -12 -8 -18 -9 -15 -3 4 6 -12 9 -44
6 -53 -3 -79 -22 -80 -57 0 -10 -6 -18 -14 -18 -8 0 -17 -6 -19 -12 -4 -10 -8
-10 -15 1 -10 14 -32 7 -32 -10 0 -6 5 -7 10 -4 6 3 10 -1 10 -9 0 -9 -4 -16
-9 -16 -4 0 -6 -11 -4 -24 5 -26 -24 -99 -37 -91 -4 3 -14 -2 -21 -11 -10 -13
-10 -24 0 -62 7 -26 18 -50 24 -54 9 -6 9 -8 0 -8 -13 0 -53 52 -53 69 0 6 -7
11 -15 11 -24 0 -17 -22 16 -55 17 -16 33 -42 36 -57 3 -16 9 -28 14 -28 5 0
9 -5 9 -10 0 -8 -6 -8 -17 -1 -10 5 -18 19 -18 30 0 11 -2 20 -5 20 -3 0 -18
5 -34 11 -26 9 -27 9 -16 -5 10 -12 10 -15 -4 -15 -17 0 -22 -15 -7 -25 5 -3
13 0 17 6 4 8 9 7 15 -2 13 -20 11 -27 -8 -32 -11 -3 -7 -5 10 -6 20 -1 27 -6
27 -20 0 -11 -4 -23 -10 -26 -19 -12 -11 -26 9 -15 14 7 22 7 27 -2 4 -6 3 -9
-2 -6 -5 3 -15 0 -21 -8 -8 -8 -9 -15 -3 -19 6 -3 10 -12 10 -18 0 -9 -2 -9
-8 0 -9 15 -30 17 -69 8 -30 -7 -46 -25 -23 -25 6 0 16 -11 22 -25 6 -14 19
-25 30 -25 24 0 23 -17 -2 -25 -11 -3 -20 -13 -20 -21 0 -8 -4 -14 -10 -14 -5
0 -11 -10 -11 -22 -1 -18 -2 -19 -6 -5 -3 10 0 24 6 30 7 10 3 13 -20 15 -17
1 -36 3 -42 5 -7 1 -11 -8 -9 -24 2 -20 -2 -28 -20 -33 l-23 -7 23 -9 c30 -12
23 -36 -9 -33 -22 3 -23 2 -5 -9 14 -8 24 -8 37 0 13 9 18 8 23 -3 6 -17 -9
-29 -26 -19 -8 5 -9 -5 -4 -37 4 -24 11 -45 16 -47 13 -5 13 -32 0 -32 -5 0
-10 7 -10 15 0 8 -4 15 -10 15 -5 0 -10 9 -10 20 0 11 -4 20 -10 20 -5 0 -10
-7 -10 -15 0 -8 -5 -15 -11 -15 -6 0 -9 -6 -6 -14 3 -7 1 -18 -5 -24 -6 -6 -1
-12 17 -16 14 -4 23 -11 20 -16 -3 -5 3 -13 12 -19 10 -6 13 -11 6 -11 -6 0
-18 -3 -26 -6 -10 -3 -17 1 -20 13 -2 10 -2 2 0 -17 5 -39 13 -52 20 -32 8 22
20 13 21 -17 0 -22 -3 -28 -14 -24 -8 3 -14 9 -14 13 0 4 -6 10 -14 13 -18 7
-15 -11 6 -42 15 -21 15 -25 1 -39 -13 -13 -16 -13 -24 -1 -13 21 -11 5 4 -23
7 -14 18 -23 25 -20 6 2 12 -1 12 -6 0 -6 -4 -12 -10 -14 -6 -2 -4 -14 4 -30
8 -15 12 -29 9 -32 -13 -12 9 -26 27 -16 24 13 37 -5 18 -27 -10 -13 -10 -17
0 -20 6 -3 12 -11 12 -19 0 -9 4 -13 8 -10 13 8 53 -24 46 -36 -4 -6 -2 -8 4
-4 6 3 13 2 17 -4 3 -5 11 -10 18 -10 8 0 8 3 -1 12 -7 7 -12 17 -12 23 0 5 4
3 10 -5 5 -8 12 -11 15 -8 12 12 -4 25 -35 31 -20 4 -30 12 -30 24 0 16 2 16
11 3 8 -11 12 -12 16 -3 3 9 15 5 39 -13 37 -29 47 -23 13 7 -13 11 -19 25
-15 34 3 9 -3 24 -15 36 -11 11 -18 26 -15 32 3 9 5 9 5 0 1 -7 8 -13 16 -13
8 0 15 -6 16 -12 1 -7 4 -2 8 12 5 14 4 33 -1 42 -15 30 -9 41 17 35 17 -3 24
0 20 7 -3 6 -8 19 -11 29 -4 9 -10 17 -15 17 -5 0 -9 9 -9 20 0 11 -4 20 -9
20 -5 0 -12 7 -15 16 -5 12 -2 15 10 10 12 -5 14 -1 9 17 -6 21 -6 21 14 -3
11 -14 21 -30 21 -36 0 -11 50 -82 50 -72 0 4 -8 22 -19 40 -20 36 -27 128 -8
128 6 0 20 -8 31 -17 20 -18 20 -17 6 2 -8 11 -18 22 -21 25 -10 8 -21 50 -13
50 4 0 13 -8 20 -17 11 -15 11 -12 4 21 l-8 38 29 -28 29 -28 0 36 c0 20 -7
41 -15 48 -8 7 -15 18 -15 24 0 6 7 3 14 -6 7 -10 16 -15 19 -11 7 6 11 -22 8
-41 -3 -14 21 -56 31 -56 12 0 10 32 -6 61 -18 35 -31 123 -17 114 16 -9 13 8
-4 31 -13 17 -14 14 -12 -37 l3 -56 -31 21 c-32 22 -42 51 -23 73 7 9 7 18 -3
31 -7 9 -9 14 -5 10 5 -4 15 -3 23 3 9 9 13 8 13 0 0 -6 -4 -11 -9 -11 -5 0
-7 -9 -4 -20 3 -11 9 -20 13 -20 13 0 22 38 15 63 -7 22 -7 22 9 2 12 -16 15
-17 16 -4 0 9 9 24 21 35 12 10 18 26 15 37 -4 15 -2 16 10 6 18 -15 18 -9 -2
31 -20 39 -32 26 -28 -31 1 -21 -2 -39 -6 -39 -5 0 -7 14 -3 30 3 19 1 30 -6
30 -6 0 -10 -8 -9 -17 3 -37 -2 -51 -18 -49 -16 2 -34 23 -34 40 0 5 9 1 21
-10 l21 -19 -7 36 c-4 23 -3 39 4 43 15 10 14 36 -4 69 -13 25 -13 30 0 44 19
19 23 8 27 -67 l3 -55 14 39 c11 31 11 40 1 46 -11 7 -10 12 3 24 19 19 28 20
26 4 -1 -7 -1 -22 0 -33 2 -18 3 -18 12 4 9 23 10 24 31 5 l21 -19 -6 44 c-4
29 -2 40 4 30 5 -7 9 -22 9 -31 0 -9 5 -20 12 -24 11 -7 11 -3 -7 76 -3 15 4
6 18 -20 17 -33 21 -51 15 -68 -4 -13 -8 -33 -7 -45 1 -12 6 -2 11 21 9 41 11
43 28 27 17 -15 17 -14 9 30 -5 25 -13 54 -19 65 -9 16 -8 18 5 14 10 -4 15 0
15 10 0 21 -29 78 -44 88 -8 6 -7 8 1 8 7 0 21 -10 33 -22 28 -30 25 -10 -5
35 -14 20 -22 37 -17 37 5 0 17 -10 25 -22 16 -23 16 -23 16 10 1 23 -3 31
-11 26 -8 -5 -9 0 -4 17 4 13 9 49 10 80 3 53 1 57 -26 73 -21 13 -27 23 -23
37 4 10 4 19 1 19 -3 0 -6 -3 -6 -8z m32 -141 c-4 -11 -7 -10 -13 5 -12 29
-10 36 5 22 7 -7 11 -19 8 -27z m-205 -13 c-3 -8 -6 -5 -6 6 -1 11 2 17 5 13
3 -3 4 -12 1 -19z m-79 -193 c-3 -3 -9 2 -12 12 -6 14 -5 15 5 6 7 -7 10 -15
7 -18z m157 -5 c3 -5 1 -10 -4 -10 -6 0 -11 5 -11 10 0 6 2 10 4 10 3 0 8 -4
11 -10z m22 -52 c-3 -7 -5 -2 -5 12 0 14 2 19 5 13 2 -7 2 -19 0 -25z m-159
-17 c-13 -22 -38 -29 -38 -11 0 6 7 10 15 10 9 0 15 9 15 22 0 16 3 19 11 11
8 -8 7 -17 -3 -32z m39 19 c-3 -11 -1 -23 4 -26 12 -7 12 -24 0 -24 -5 0 -11
8 -13 18 -4 19 2 52 9 52 3 0 3 -9 0 -20z m60 -47 c-3 -10 -5 -4 -5 12 0 17 2
24 5 18 2 -7 2 -21 0 -30z m68 -11 c-8 -8 -25 10 -25 26 0 13 2 13 14 -4 8
-10 13 -21 11 -22z m-157 -11 c-7 -11 -15 -18 -20 -15 -11 7 3 34 18 34 12 0
12 -4 2 -19z m-18 -68 c0 -20 -16 -8 -23 17 -4 17 -3 19 9 9 8 -6 14 -18 14
-26z m38 -30 c6 -18 7 -33 2 -33 -10 0 -30 56 -23 64 8 8 8 8 21 -31z m-58
-24 c0 -5 -4 -9 -10 -9 -5 0 -10 7 -10 16 0 8 5 12 10 9 6 -3 10 -10 10 -16z
m-60 -12 c0 -2 -10 -12 -21 -23 -22 -19 -22 -19 -10 4 10 18 31 31 31 19z m80
-68 c0 -11 -7 -19 -17 -19 -13 0 -15 2 -5 8 8 5 10 16 6 27 -5 13 -4 16 4 11
7 -4 12 -16 12 -27z m30 -5 c0 -8 -5 -12 -10 -9 -6 4 -8 11 -5 16 9 14 15 11
15 -7z m-190 -58 c0 -3 -4 -8 -10 -11 -5 -3 -10 -1 -10 4 0 6 5 11 10 11 6 0
10 -2 10 -4z m154 -42 c10 -25 -1 -29 -14 -5 -6 12 -7 21 -1 21 5 0 12 -7 15
-16z m-154 -84 c0 -5 -4 -10 -10 -10 -5 0 -10 5 -10 10 0 6 5 10 10 10 6 0 10
-4 10 -10z m200 -10 c0 -5 -2 -10 -4 -10 -3 0 -8 5 -11 10 -3 6 -1 10 4 10 6
0 11 -4 11 -10z m-46 -36 c5 -14 4 -15 -9 -4 -17 14 -19 20 -6 20 5 0 12 -7
15 -16z m-162 -88 c6 4 5 -2 -1 -15 -16 -29 -21 -26 -20 12 1 17 3 24 6 14 2
-9 9 -14 15 -11z m125 -8 c-3 -8 -6 -5 -6 6 -1 11 2 17 5 13 3 -3 4 -12 1 -19z
m-62 -18 c3 -5 1 -10 -4 -10 -6 0 -11 5 -11 10 0 6 2 10 4 10 3 0 8 -4 11 -10z
m-91 -165 c-4 -8 -8 -15 -10 -15 -2 0 -4 7 -4 15 0 8 4 15 10 15 5 0 7 -7 4
-15z m96 -5 c0 -5 -4 -10 -10 -10 -5 0 -10 5 -10 10 0 6 5 10 10 10 6 0 10 -4
10 -10z m-105 -68 c-8 -8 -25 10 -25 26 0 13 2 13 14 -4 8 -10 13 -21 11 -22z"/>
<path d="M7907 4680 c-42 -42 -46 -103 -12 -175 17 -38 25 -67 22 -85 -8 -37
30 -58 103 -58 30 1 47 3 38 5 -21 5 -24 23 -4 23 15 0 76 64 76 80 0 6 10 10
22 10 17 0 19 3 10 12 -7 7 -12 20 -12 29 0 26 -102 132 -147 153 -21 11 -45
22 -53 26 -11 5 -25 -2 -43 -20z"/>
<path d="M1575 4670 c3 -5 8 -10 11 -10 2 0 4 5 4 10 0 6 -5 10 -11 10 -5 0
-7 -4 -4 -10z"/>
<path d="M1511 4656 c-9 -10 -8 -16 4 -26 13 -11 15 -8 15 14 0 30 -3 32 -19
12z"/>
<path d="M1781 4624 c0 -11 3 -14 6 -6 3 7 2 16 -1 19 -3 4 -6 -2 -5 -13z"/>
<path d="M1065 4617 c-7 -18 9 -47 27 -47 7 0 7 4 0 13 -5 6 -12 21 -14 32 -5
18 -6 19 -13 2z"/>
<path d="M1540 4585 c0 -8 4 -15 10 -15 5 0 7 7 4 15 -4 8 -8 15 -10 15 -2 0
-4 -7 -4 -15z"/>
<path d="M8435 4590 c-5 -9 -4 -15 3 -18 7 -2 12 -12 12 -23 0 -29 58 -153
122 -262 32 -55 58 -100 58 -102 0 -2 18 -31 40 -64 22 -33 40 -64 40 -69 0
-5 15 -29 33 -53 17 -25 37 -52 42 -61 6 -10 34 -52 64 -95 154 -222 222 -300
356 -411 50 -41 93 -83 97 -92 3 -10 20 -27 37 -39 17 -12 31 -29 31 -37 0
-18 20 -58 60 -119 33 -50 45 -67 55 -79 6 -6 21 -28 34 -48 12 -21 27 -38 32
-38 5 0 9 -9 9 -20 0 -11 9 -25 20 -32 11 -7 20 -18 20 -25 0 -7 5 -13 10 -13
6 0 10 -6 10 -14 0 -8 22 -30 49 -50 27 -20 56 -47 65 -61 15 -23 22 -25 76
-23 40 2 60 7 60 16 0 6 9 12 21 12 11 0 17 5 14 10 -4 6 16 11 52 12 82 2
117 -1 121 -12 2 -6 10 -10 18 -10 8 0 14 -4 14 -10 0 -5 7 -7 15 -4 9 4 15 0
15 -10 0 -9 4 -16 9 -16 4 0 20 -12 35 -26 14 -15 26 -22 26 -15 0 6 9 11 20
11 11 0 20 -5 20 -11 0 -6 15 -26 33 -44 59 -61 81 -99 93 -167 3 -16 1 -28
-5 -28 -6 0 -11 -16 -11 -35 0 -19 5 -35 10 -35 6 0 10 -7 10 -16 0 -8 27 -40
60 -71 33 -31 60 -62 60 -68 0 -15 33 -45 48 -45 19 0 52 -33 52 -51 0 -9 7
-20 16 -23 9 -4 14 -13 10 -21 -3 -8 0 -14 6 -12 6 1 16 -18 21 -43 9 -46 39
-84 73 -93 18 -5 18 -5 -2 -12 -21 -6 -26 -26 -11 -41 11 -11 8 -44 -3 -44
-18 0 -10 -22 10 -27 12 -3 20 -14 20 -25 0 -16 5 -19 24 -14 23 6 25 3 29
-36 2 -24 4 268 5 647 1 380 -2 686 -6 680 -20 -28 -61 -40 -137 -40 -44 -1
-110 -5 -148 -9 -46 -6 -71 -5 -81 3 -8 7 -47 11 -97 10 -82 -1 -134 6 -154
21 -5 4 -43 17 -84 29 -41 11 -84 30 -96 41 -12 11 -31 22 -43 25 -31 6 -59
23 -75 45 -7 11 -30 26 -50 35 -20 8 -40 22 -45 31 -5 9 -33 28 -63 44 -30 15
-54 31 -54 36 0 18 -16 34 -33 34 -10 0 -32 13 -49 29 -40 36 -156 91 -194 91
-16 0 -32 7 -38 18 -6 10 -11 12 -11 4 0 -10 -5 -10 -22 2 -12 9 -31 16 -41
16 -9 0 -20 7 -23 15 -4 8 -12 15 -20 15 -7 0 -27 13 -44 30 -17 17 -35 30
-41 30 -6 0 -8 4 -5 9 4 5 -8 12 -26 16 -36 8 -123 89 -113 105 3 6 -4 14 -17
19 -13 6 -38 24 -57 40 -18 17 -38 31 -43 31 -4 0 -14 12 -21 28 -6 15 -20 33
-29 40 -10 7 -18 18 -18 24 0 10 -25 41 -86 111 -20 23 -30 50 -22 60 2 1 -16
29 -38 62 -50 72 -109 174 -129 222 -9 22 -19 32 -26 27 -9 -5 -10 -1 -7 14 4
13 -1 27 -13 38 -10 9 -19 24 -20 33 0 9 -8 36 -18 60 -13 31 -20 40 -26 31z"/>
<path d="M1030 4556 c0 -23 -5 -28 -26 -25 -4 0 -11 -5 -16 -13 -6 -9 -7 -6
-3 9 3 12 1 24 -5 28 -9 6 -11 -5 -15 -85 -1 -14 -7 -34 -14 -45 -11 -18 -12
-18 -6 8 3 15 1 27 -5 27 -5 0 -10 -7 -10 -16 0 -10 -5 -14 -15 -10 -12 4 -14
0 -9 -22 4 -20 3 -23 -5 -12 -8 12 -11 12 -17 -4 -4 -11 -2 -21 6 -26 11 -7
10 -13 -3 -32 -40 -56 -46 -61 -60 -49 -12 9 -13 7 -9 -14 2 -14 0 -25 -6 -25
-6 0 -16 -9 -22 -20 -15 -29 -3 -25 28 9 l27 30 1 -24 c1 -13 -4 -26 -12 -29
-8 -3 -14 -10 -14 -17 0 -6 7 -9 15 -5 21 8 19 -13 -5 -49 -22 -33 -27 -56 -8
-37 21 21 29 13 15 -15 -14 -30 -12 -73 4 -73 5 0 9 6 8 13 -3 25 1 38 11 32
6 -3 10 -1 10 4 0 6 4 11 9 11 5 0 9 -18 9 -39 1 -29 -6 -47 -28 -71 -16 -18
-29 -43 -29 -54 1 -32 -16 -87 -39 -126 -11 -19 -23 -54 -27 -77 -5 -30 -10
-40 -21 -36 -19 7 -18 -7 2 -22 15 -10 13 -12 -15 -13 -21 0 -31 4 -31 14 0 8
-4 14 -10 14 -5 0 -7 -7 -4 -15 4 -8 2 -15 -4 -15 -5 0 -12 -9 -15 -21 -3 -12
-10 -18 -16 -15 -5 4 -15 -2 -20 -13 -14 -25 -14 -31 -1 -31 6 0 10 7 10 15 0
8 7 15 15 15 13 0 14 -4 5 -20 -11 -20 -50 -28 -50 -10 0 21 -47 10 -60 -15
l-13 -25 -12 23 c-7 13 -8 27 -3 34 6 7 4 14 -5 20 -8 4 -16 14 -19 22 -7 23
-38 22 -38 -1 0 -17 -3 -18 -15 -8 -13 11 -15 8 -15 -16 -1 -39 -24 -69 -47
-59 -12 5 -14 9 -5 12 6 3 12 9 12 14 0 5 -12 2 -26 -7 -19 -13 -24 -23 -20
-40 6 -24 -1 -54 -14 -54 -5 0 -6 9 -3 19 3 13 -3 23 -19 32 -20 11 -22 10
-10 -3 13 -16 7 -47 -12 -60 -20 -14 -28 -8 -22 16 8 34 -5 39 -31 11 -13 -15
-17 -26 -9 -28 7 -3 3 -11 -9 -20 -11 -8 -23 -13 -27 -11 -7 4 -16 -3 -69 -52
-15 -13 -17 -13 -22 1 -8 20 -21 19 -62 -7 l-35 -23 0 -608 c0 -601 0 -609 20
-614 20 -5 29 -43 11 -43 -5 0 -8 -13 -6 -30 3 -22 0 -30 -11 -30 -11 0 -14
-9 -12 -37 3 -33 7 -38 31 -41 20 -2 27 -8 23 -18 -3 -8 -1 -14 5 -14 5 0 14
-10 20 -22 l10 -23 -5 23 c-2 12 0 22 5 22 5 0 9 -4 9 -9 0 -5 8 -11 18 -13
13 -3 17 -13 17 -46 0 -37 4 -45 30 -60 17 -9 31 -20 33 -24 2 -5 10 -8 17 -8
8 0 19 -8 24 -17 6 -10 11 -13 11 -8 0 6 4 3 10 -5 7 -11 14 -12 32 -3 35 17
62 26 71 25 4 -1 7 2 7 8 0 5 13 10 28 10 16 0 32 3 36 8 4 4 22 8 39 9 18 1
53 5 80 8 46 7 64 -4 35 -21 -11 -7 19 -25 47 -29 6 0 9 -6 7 -13 -2 -14 -4
-13 68 -15 64 -2 75 -19 36 -58 -13 -13 -26 -33 -28 -43 -2 -16 4 -19 42 -19
34 0 46 4 48 16 2 10 9 17 17 17 7 0 18 7 25 15 14 17 40 20 40 5 0 -6 -11
-23 -25 -38 -14 -15 -25 -30 -25 -33 0 -11 50 -17 56 -7 3 4 9 6 13 4 4 -3 25
2 47 10 21 8 47 17 57 21 9 3 17 10 17 15 0 6 14 8 36 4 30 -6 36 -4 41 13 4
17 11 20 32 15 14 -4 30 -10 35 -14 4 -5 22 -2 40 5 34 14 51 9 51 -15 0 -9
12 -16 30 -18 35 -4 54 -18 65 -47 8 -18 9 -17 9 8 1 15 6 27 12 27 12 0 7
-49 -10 -100 -4 -14 -19 -57 -32 -97 -30 -95 -119 -227 -182 -271 -80 -57
-165 -54 -252 10 -22 16 -41 24 -43 18 -5 -14 50 -129 87 -183 47 -70 171
-197 197 -203 56 -14 170 109 239 259 56 120 114 358 115 465 0 17 3 32 8 32
9 0 -1 -128 -17 -213 -15 -86 -49 -203 -71 -250 -42 -85 -13 -50 42 53 36 67
91 229 107 313 10 57 21 72 21 31 0 -56 -52 -220 -103 -324 -64 -131 -64 -133
-35 -90 46 65 96 165 123 245 52 152 64 175 95 175 15 0 30 6 33 14 8 21 93
31 132 17 34 -12 69 -6 59 11 -3 5 4 20 17 34 27 29 84 30 103 3 8 -12 17 -15
26 -9 7 4 24 4 37 -1 12 -5 23 -6 23 -2 0 3 8 -1 18 -10 14 -13 21 -14 30 -5
7 7 12 18 12 26 0 7 4 11 9 8 5 -3 12 4 15 17 3 12 26 45 50 72 25 28 45 55
44 60 -2 31 3 44 17 39 8 -3 25 6 39 21 13 14 27 26 30 26 16 -1 36 13 36 24
0 14 22 25 48 25 21 0 46 53 37 80 -5 16 -2 20 14 20 17 0 21 6 21 34 0 50 9
66 37 66 13 0 31 7 39 15 8 8 37 17 64 21 40 5 50 10 50 25 0 13 -5 17 -17 12
-17 -5 -17 -5 -1 12 11 12 22 15 35 10 10 -5 21 -9 25 -9 3 -1 10 -4 14 -8 4
-4 14 -2 22 4 8 7 22 13 31 13 55 4 57 5 56 29 0 13 -3 28 -7 31 -4 4 -2 17 4
28 9 17 8 19 -6 14 -9 -4 -16 -2 -16 3 0 6 7 10 15 10 8 0 15 4 15 10 0 16
-42 33 -81 33 -35 0 -39 3 -53 38 -11 26 -22 39 -35 39 -10 0 -41 20 -67 45
-28 26 -59 45 -72 45 -13 0 -35 13 -50 28 -28 30 -115 92 -128 92 -4 0 -15 6
-23 13 -9 8 -32 20 -51 27 -19 8 -57 28 -85 46 -27 17 -94 54 -147 82 -53 28
-110 60 -126 72 -37 27 -72 20 -72 -14 0 -13 7 -29 15 -36 9 -7 15 -29 15 -51
0 -21 10 -62 21 -91 30 -73 50 -176 35 -181 -8 -3 -7 -9 3 -21 10 -12 12 -33
7 -84 -10 -105 -17 -136 -27 -120 -5 7 -9 22 -9 33 0 32 -15 48 -38 41 -12 -4
-19 -13 -16 -20 3 -7 -2 -16 -10 -19 -11 -5 -16 0 -16 14 0 14 -9 21 -30 26
-32 6 -50 28 -50 62 0 33 -17 24 -30 -15 -8 -22 -16 -32 -21 -27 -6 6 -6 20 1
38 8 21 7 30 -4 39 -17 13 -36 98 -29 127 3 10 0 19 -6 19 -6 0 -11 17 -11 40
0 22 -4 40 -10 40 -5 0 -10 -7 -10 -16 0 -8 -5 -12 -10 -9 -6 4 -8 10 -5 14 2
5 0 22 -5 39 -5 20 -5 34 1 38 6 3 7 13 3 23 -4 9 -6 47 -6 85 1 39 -3 75 -10
83 -7 9 -8 21 -1 36 5 12 8 36 6 52 -7 63 5 215 17 215 9 0 6 41 -5 82 -4 14
-2 34 3 45 15 27 26 173 13 173 -11 0 -3 131 9 140 10 8 -1 101 -11 94 -11 -7
-12 37 0 55 11 17 2 51 -14 51 -6 0 -29 -16 -50 -37 l-37 -36 7 32 c6 28 4 33
-14 38 -17 4 -20 10 -15 27 6 18 5 19 -10 7 -20 -17 -21 -3 -1 23 8 11 15 14
15 7 0 -7 5 -9 10 -6 17 10 11 37 -9 42 -19 5 -19 5 0 24 17 17 24 43 20 77
-1 6 3 12 9 12 7 0 10 6 8 12 -3 7 1 19 9 26 7 7 13 23 13 35 -1 20 -2 21 -14
5 -7 -10 -21 -18 -30 -18 -13 0 -15 9 -12 55 2 30 0 55 -5 55 -5 0 -9 10 -8
23 0 12 3 16 6 10 9 -24 23 -13 23 18 0 17 5 39 11 50 6 11 8 25 6 32 -2 7
-13 -6 -25 -28 -27 -51 -50 -80 -57 -73 -3 3 1 13 10 21 16 17 21 72 5 62 -6
-4 -10 7 -10 24 0 36 -17 42 -23 9 -4 -20 -4 -20 -6 4 0 15 -5 29 -11 33 -5 3
-6 13 -3 22 4 10 2 14 -5 9 -6 -3 -15 2 -21 11 -9 16 -10 16 -11 -4 0 -13 -4
-23 -10 -23 -5 0 -10 -19 -10 -42 0 -33 -6 -49 -25 -67 -14 -13 -25 -29 -25
-36 0 -7 -3 -15 -7 -18 -5 -2 -2 -2 5 0 25 6 7 -31 -18 -38 -22 -6 -10 -14 14
-10 5 1 6 -5 2 -14 -3 -9 -6 -21 -6 -26 0 -6 -4 -7 -10 -4 -5 3 -10 -2 -11
-12 0 -16 -1 -16 -8 2 -7 18 -9 17 -19 -10 l-10 -30 -1 33 c-1 17 -4 31 -8 31
-22 -4 -32 3 -27 16 4 8 1 15 -4 15 -6 0 -12 -8 -14 -17 -3 -14 -8 -10 -20 15
-13 24 -15 40 -8 58 6 15 6 24 0 24 -6 0 -10 -7 -10 -15 0 -8 -4 -15 -10 -15
-13 0 -13 6 0 31 8 15 7 25 -6 42 l-16 22 5 -22 c3 -13 -1 -27 -9 -34 -11 -9
-14 -7 -14 11 0 28 -24 21 -28 -9 -2 -12 -10 -25 -18 -28 -8 -3 -22 -19 -30
-35 -10 -19 -21 -28 -30 -24 -11 4 -14 1 -10 -12 6 -19 -18 -61 -29 -51 -7 8
13 126 26 151 5 10 9 22 9 27 0 5 5 22 12 38 6 15 11 31 10 35 -10 50 -11 68
-2 68 5 0 7 6 4 14 -3 8 0 24 6 36 6 12 8 25 4 28 -4 4 -9 1 -11 -6 -9 -25
-22 -1 -16 32 3 19 1 36 -6 40 -7 5 -11 -2 -11 -18z m-30 -82 c0 -8 -5 -14
-11 -14 -5 0 -7 5 -4 10 3 6 1 10 -4 10 -6 0 -11 4 -11 10 0 5 7 7 15 4 8 -4
15 -12 15 -20z m-50 -103 c0 -5 -7 -14 -15 -21 -12 -10 -15 -10 -15 2 0 8 3
18 7 21 9 10 23 9 23 -2z m513 -31 c3 -11 1 -18 -4 -14 -5 3 -9 12 -9 20 0 20
7 17 13 -6z m-49 -96 c3 -8 2 -12 -4 -9 -6 3 -10 1 -10 -6 0 -7 -2 -10 -5 -7
-5 5 4 38 10 38 2 0 6 -7 9 -16z m-414 -25 c0 -6 -4 -7 -10 -4 -5 3 -10 11
-10 16 0 6 5 7 10 4 6 -3 10 -11 10 -16z m500 -37 c0 -8 -3 -12 -7 -9 -3 4
-12 2 -20 -4 -9 -9 -13 -8 -13 0 0 6 5 11 11 11 6 0 8 9 3 22 -6 20 -5 21 10
9 9 -7 16 -20 16 -29z m-510 -51 c0 -27 -11 -52 -19 -46 -10 6 -1 65 10 65 5
0 9 -9 9 -19z m550 -62 c0 -17 4 -28 10 -24 14 9 12 -7 -4 -41 -8 -16 -20 -42
-26 -58 -16 -43 -21 -27 -6 19 7 22 12 61 11 88 -1 26 2 47 7 47 4 0 8 -14 8
-31z m-590 -23 c0 -8 -4 -18 -10 -21 -5 -3 -10 3 -10 14 0 12 5 21 10 21 6 0
10 -6 10 -14z m547 -78 c-3 -8 -6 -5 -6 6 -1 11 2 17 5 13 3 -3 4 -12 1 -19z
m-62 -68 c3 -5 1 -10 -4 -10 -6 0 -11 5 -11 10 0 6 2 10 4 10 3 0 8 -4 11 -10z
m50 1 c3 -5 1 -12 -5 -16 -5 -3 -10 1 -10 9 0 18 6 21 15 7z m45 -25 c0 -3 -4
-8 -10 -11 -5 -3 -10 -1 -10 4 0 6 5 11 10 11 6 0 10 -2 10 -4z m-960 -396 c0
-5 -5 -10 -11 -10 -5 0 -7 5 -4 10 3 6 8 10 11 10 2 0 4 -4 4 -10z m-25 -19
c3 -5 1 -12 -5 -16 -5 -3 -10 1 -10 9 0 18 6 21 15 7z m539 -21 c-12 -5 -25
-13 -29 -19 -3 -6 -14 -11 -23 -10 -13 0 -12 3 6 11 12 6 22 15 22 20 0 4 10
8 23 7 l22 0 -21 -9z m571 -20 c-3 -5 -11 -10 -16 -10 -6 0 -7 5 -4 10 3 6 11
10 16 10 6 0 7 -4 4 -10z m-1315 -4 c0 -2 -7 -7 -16 -10 -8 -3 -12 -2 -9 4 6
10 25 14 25 6z m655 -46 c-16 -17 -35 -28 -42 -26 -8 3 -13 -2 -13 -12 0 -24
-29 -64 -30 -42 -1 8 -5 5 -11 -9 -5 -13 -15 -21 -22 -18 -16 6 -53 -20 -43
-30 4 -4 11 -1 16 7 13 21 18 10 13 -27 -3 -21 -10 -30 -18 -27 -7 3 -12 -1
-12 -8 1 -7 -2 -13 -8 -13 -5 0 -9 3 -8 7 2 4 -7 13 -19 19 -16 9 -23 9 -26 0
-2 -6 -11 -11 -20 -10 -14 0 -12 3 6 16 12 8 22 24 22 35 0 10 4 17 9 13 5 -3
16 4 25 16 18 27 175 138 195 138 9 1 4 -10 -14 -29z m-235 -230 c0 -5 -2 -10
-4 -10 -3 0 -8 5 -11 10 -3 6 -1 10 4 10 6 0 11 -4 11 -10z m34 -6 c9 -23 7
-36 -4 -29 -5 3 -10 -2 -10 -12 -1 -16 -2 -16 -10 -2 -10 17 -3 59 10 59 4 0
11 -7 14 -16z m41 -4 c3 -5 2 -10 -4 -10 -5 0 -13 5 -16 10 -3 6 -2 10 4 10 5
0 13 -4 16 -10z m-762 -1102 c5 -19 5 -19 -14 -2 -22 20 -25 36 -5 28 8 -3 16
-14 19 -26z"/>
<path d="M800 3211 c0 -11 26 -22 34 -14 3 3 3 10 0 14 -7 12 -34 11 -34 0z"/>
<path d="M3625 4570 c-3 -5 -1 -10 4 -10 6 0 11 5 11 10 0 6 -2 10 -4 10 -3 0
-8 -4 -11 -10z"/>
<path d="M1551 4544 c0 -11 3 -14 6 -6 3 7 2 16 -1 19 -3 4 -6 -2 -5 -13z"/>
<path d="M3697 4530 c-3 -11 -1 -20 4 -20 5 0 9 9 9 20 0 11 -2 20 -4 20 -2 0
-6 -9 -9 -20z"/>
<path d="M3665 4530 c3 -5 8 -10 11 -10 2 0 4 5 4 10 0 6 -5 10 -11 10 -5 0
-7 -4 -4 -10z"/>
<path d="M1375 4521 c-6 -11 9 -23 19 -14 9 9 7 23 -3 23 -6 0 -12 -4 -16 -9z"/>
<path d="M4030 4503 c0 -13 5 -23 10 -23 13 0 13 11 0 30 -8 12 -10 11 -10 -7z"/>
<path d="M4087 4499 c4 -13 8 -18 11 -10 2 7 -1 18 -6 23 -8 8 -9 4 -5 -13z"/>
<path d="M1771 4494 c0 -11 3 -14 6 -6 3 7 2 16 -1 19 -3 4 -6 -2 -5 -13z"/>
<path d="M3610 4480 c0 -18 5 -30 13 -30 9 0 12 10 9 30 -2 17 -8 30 -13 30
-5 0 -9 -13 -9 -30z"/>
<path d="M3660 4484 c0 -9 5 -14 12 -12 18 6 21 28 4 28 -9 0 -16 -7 -16 -16z"/>
<path d="M10200 4460 c0 -11 5 -20 10 -20 6 0 10 9 10 20 0 11 -4 20 -10 20
-5 0 -10 -9 -10 -20z"/>
<path d="M4020 4423 c0 -22 2 -25 10 -13 13 20 13 40 0 40 -5 0 -10 -12 -10
-27z"/>
<path d="M1512 4420 c-10 -17 -10 -20 3 -20 8 0 15 9 15 20 0 11 -1 20 -3 20
-1 0 -8 -9 -15 -20z"/>
<path d="M1460 4426 c0 -2 7 -7 16 -10 8 -3 12 -2 9 4 -6 10 -25 14 -25 6z"/>
<path d="M3610 4419 c0 -5 5 -7 10 -4 6 3 10 8 10 11 0 2 -4 4 -10 4 -5 0 -10
-5 -10 -11z"/>
<path d="M4056 4422 c-2 -4 -1 -14 5 -22 7 -12 9 -10 9 8 0 23 -5 28 -14 14z"/>
<path d="M10785 4380 c3 -5 8 -10 11 -10 2 0 4 5 4 10 0 6 -5 10 -11 10 -5 0
-7 -4 -4 -10z"/>
<path d="M1606 4364 c-9 -24 -7 -28 9 -14 17 14 20 30 6 30 -5 0 -12 -7 -15
-16z"/>
<path d="M4036 4338 c8 -27 12 -33 19 -27 7 8 -7 49 -17 49 -5 0 -6 -10 -2
-22z"/>
<path d="M10768 4318 c-7 -13 -22 -48 -33 -78 -13 -35 -29 -59 -44 -67 -13 -6
-30 -26 -38 -43 -17 -41 -16 -45 3 -64 9 -10 11 -16 4 -16 -7 0 -5 -6 4 -16 9
-8 21 -12 27 -8 8 5 8 1 0 -14 -17 -32 -13 -52 10 -52 22 0 33 9 63 50 10 14
16 17 13 8 -3 -9 0 -19 9 -22 12 -5 14 22 14 169 0 174 -5 199 -32 153z"/>
<path d="M4000 4293 c0 -13 5 -23 10 -23 13 0 13 11 0 30 -8 12 -10 11 -10 -7z"/>
<path d="M1671 4274 c0 -11 3 -14 6 -6 3 7 2 16 -1 19 -3 4 -6 -2 -5 -13z"/>
<path d="M3520 4230 c0 -5 5 -10 10 -10 6 0 10 5 10 10 0 6 -4 10 -10 10 -5 0
-10 -4 -10 -10z"/>
<path d="M4015 4230 c3 -5 8 -10 11 -10 2 0 4 5 4 10 0 6 -5 10 -11 10 -5 0
-7 -4 -4 -10z"/>
<path d="M1722 4210 c0 -14 2 -19 5 -12 2 6 2 18 0 25 -3 6 -5 1 -5 -13z"/>
<path d="M3880 4208 c0 -16 29 -58 34 -50 3 5 -3 20 -14 32 -11 13 -20 21 -20
18z"/>
<path d="M740 4186 c0 -9 5 -16 10 -16 6 0 10 4 10 9 0 6 -4 13 -10 16 -5 3
-10 -1 -10 -9z"/>
<path d="M780 4185 c0 -8 4 -15 9 -15 5 0 11 7 15 15 3 9 0 15 -9 15 -8 0 -15
-7 -15 -15z"/>
<path d="M1710 4163 c0 -10 -3 -29 -7 -43 -9 -36 6 -19 17 19 5 18 5 33 -1 36
-5 4 -9 -2 -9 -12z"/>
<path d="M3980 4174 c0 -6 7 -19 15 -30 8 -10 14 -14 14 -9 0 6 -6 19 -14 29
-8 11 -15 15 -15 10z"/>
<path d="M3861 4157 c-8 -10 -7 -19 4 -33 7 -10 11 -29 8 -41 -3 -15 -1 -23 7
-23 9 0 11 10 5 38 -4 20 -7 45 -8 55 -2 20 -2 21 -16 4z"/>
<path d="M3521 4124 c0 -11 3 -14 6 -6 3 7 2 16 -1 19 -3 4 -6 -2 -5 -13z"/>
<path d="M3900 4126 c0 -8 5 -18 10 -21 6 -3 10 1 10 9 0 8 -4 18 -10 21 -5 3
-10 -1 -10 -9z"/>
<path d="M3960 4121 c0 -6 4 -13 10 -16 6 -3 7 1 4 9 -7 18 -14 21 -14 7z"/>
<path d="M80 4080 c0 -5 5 -10 10 -10 6 0 10 5 10 10 0 6 -4 10 -10 10 -5 0
-10 -4 -10 -10z"/>
<path d="M164 4079 c-8 -13 14 -29 36 -28 11 1 11 2 -2 6 -10 2 -15 10 -11 19
6 16 -13 19 -23 3z"/>
<path d="M3900 4068 c0 -19 2 -20 10 -8 13 19 13 30 0 30 -5 0 -10 -10 -10
-22z"/>
<path d="M3950 4076 c0 -8 4 -17 9 -20 5 -4 7 3 4 14 -6 23 -13 26 -13 6z"/>
<path d="M1685 4060 c-4 -12 -5 -24 -2 -27 3 -2 8 5 12 17 4 12 5 24 2 27 -3
2 -8 -5 -12 -17z"/>
<path d="M3842 4035 c0 -16 2 -22 5 -12 2 9 2 23 0 30 -3 6 -5 -1 -5 -18z"/>
<path d="M3867 4043 c-3 -5 0 -19 8 -29 15 -20 18 -11 6 20 -4 11 -10 15 -14
9z"/>
<path d="M3901 4024 c0 -11 3 -14 6 -6 3 7 2 16 -1 19 -3 4 -6 -2 -5 -13z"/>
<path d="M800 4015 c0 -8 5 -15 10 -15 6 0 10 7 10 15 0 8 -4 15 -10 15 -5 0
-10 -7 -10 -15z"/>
<path d="M1625 3990 c3 -5 8 -10 11 -10 2 0 4 5 4 10 0 6 -5 10 -11 10 -5 0
-7 -4 -4 -10z"/>
<path d="M3932 3980 c0 -14 2 -19 5 -12 2 6 2 18 0 25 -3 6 -5 1 -5 -13z"/>
<path d="M3444 3975 c-18 -13 -18 -14 4 -8 12 3 25 9 28 14 8 14 -10 11 -32
-6z"/>
<path d="M3856 3977 c3 -10 9 -15 12 -12 3 3 0 11 -7 18 -10 9 -11 8 -5 -6z"/>
<path d="M3820 3964 c0 -10 5 -26 10 -34 8 -11 9 -7 4 15 -8 37 -14 45 -14 19z"/>
<path d="M3734 3944 c3 -9 6 -18 6 -20 0 -2 4 -4 9 -4 5 0 7 9 4 20 -3 11 -10
20 -15 20 -6 0 -7 -7 -4 -16z"/>
<path d="M1604 3936 c-5 -14 -9 -15 -16 -4 -7 9 -8 8 -4 -6 3 -10 1 -35 -5
-56 -10 -32 -9 -42 5 -61 12 -18 16 -19 16 -7 0 9 -5 18 -11 20 -7 2 -8 12 -1
28 20 54 31 94 27 98 -2 3 -8 -3 -11 -12z"/>
<path d="M3856 3930 c-12 -39 -14 -60 -4 -66 4 -3 8 5 9 18 1 18 3 15 12 -12
5 -19 12 -28 14 -20 2 8 -3 35 -10 60 -12 42 -14 43 -21 20z"/>
<path d="M3810 3890 c0 -5 5 -10 10 -10 6 0 10 5 10 10 0 6 -4 10 -10 10 -5 0
-10 -4 -10 -10z"/>
<path d="M3865 3800 c3 -5 8 -10 11 -10 2 0 4 5 4 10 0 6 -5 10 -11 10 -5 0
-7 -4 -4 -10z"/>
<path d="M3795 3709 c14 -149 17 -186 17 -209 0 -21 1 -22 10 -6 6 10 7 32 4
48 -3 18 -1 37 5 44 8 10 9 25 1 56 -8 32 -8 45 1 51 9 7 9 10 0 14 -7 2 -13
10 -13 18 0 7 -7 18 -15 25 -14 11 -15 6 -10 -41z"/>
<path d="M3836 3741 c-4 -7 -5 -15 -2 -18 9 -9 19 4 14 18 -4 11 -6 11 -12 0z"/>
<path d="M3750 3733 c0 -6 8 -17 18 -24 16 -13 16 -13 2 6 -8 11 -16 22 -17
24 -2 2 -3 0 -3 -6z"/>
<path d="M520 3675 c1 -26 2 -28 11 -12 8 14 8 22 0 30 -8 8 -11 3 -11 -18z"/>
<path d="M3700 3691 c0 -6 5 -13 10 -16 6 -3 10 1 10 9 0 9 -4 16 -10 16 -5 0
-10 -4 -10 -9z"/>
<path d="M465 3660 c-3 -5 -1 -10 4 -10 6 0 11 5 11 10 0 6 -2 10 -4 10 -3 0
-8 -4 -11 -10z"/>
<path d="M2560 3644 c-12 -32 -13 -44 -1 -44 5 0 11 16 13 35 5 42 1 44 -12 9z"/>
<path d="M3700 3644 c0 -5 7 -19 15 -30 8 -10 15 -14 15 -8 0 5 -7 19 -15 30
-8 10 -15 14 -15 8z"/>
<path d="M8240 3627 c-3 -3 -23 -7 -45 -8 -22 -2 -49 -11 -59 -21 -14 -12 -23
-15 -32 -7 -8 7 -13 6 -16 -3 -3 -7 -11 -13 -19 -13 -27 -2 -69 -17 -69 -26 0
-5 -11 -7 -24 -3 -16 4 -25 1 -29 -10 -4 -9 -16 -16 -27 -16 -11 0 -20 -4 -20
-10 0 -5 -10 -10 -23 -10 -13 0 -34 -11 -47 -24 -12 -14 -35 -28 -51 -31 -16
-4 -29 -11 -29 -16 0 -5 -9 -9 -20 -9 -11 0 -20 -4 -20 -10 0 -5 -6 -10 -13
-10 -22 0 -75 -29 -80 -44 -3 -8 -20 -17 -37 -21 -17 -4 -34 -13 -37 -21 -3
-8 -14 -14 -24 -14 -10 0 -19 -5 -19 -10 0 -6 -10 -8 -23 -5 -15 4 -28 1 -36
-9 -8 -9 -20 -16 -27 -16 -8 0 -14 -5 -14 -11 0 -6 -9 -8 -20 -4 -15 5 -22 0
-29 -18 -5 -14 -16 -27 -23 -30 -8 -3 -5 -6 7 -6 16 -1 17 -3 5 -11 -29 -18
-1 -20 86 -5 49 9 107 15 129 14 23 -2 46 0 53 4 6 4 41 8 77 9 55 1 65 4 63
17 -2 11 8 19 37 26 37 9 41 8 52 -15 11 -24 12 -24 18 -5 3 12 16 27 27 34
19 12 20 11 14 -15 -7 -28 -7 -28 13 -10 12 11 21 14 21 8 0 -22 20 -12 21 11
0 12 3 16 6 10 2 -7 11 -13 19 -13 8 0 14 -7 14 -15 0 -19 16 -19 24 0 3 8 12
12 21 9 9 -4 15 0 15 10 0 19 26 34 60 35 86 1 151 9 164 20 20 17 68 141 63
162 -3 10 1 23 8 29 18 15 28 77 16 98 -8 13 -11 14 -11 2 0 -10 -7 -7 -20 10
-16 20 -20 22 -20 8 0 -20 -15 -24 -25 -7 -4 6 -13 8 -20 5 -8 -3 -15 0 -17 5
-2 6 -6 8 -8 6z m-20 -117 c0 -5 -4 -10 -10 -10 -5 0 -10 5 -10 10 0 6 5 10
10 10 6 0 10 -4 10 -10z m70 6 c0 -9 -40 -13 -46 -5 -3 5 6 9 20 9 14 0 26 -2
26 -4z m-140 -28 c0 -4 -8 -8 -17 -8 -10 0 -29 -3 -43 -6 -17 -5 -22 -3 -15 4
16 17 75 25 75 10z m40 -8 c0 -5 -2 -10 -4 -10 -3 0 -8 5 -11 10 -3 6 -1 10 4
10 6 0 11 -4 11 -10z m130 6 c0 -2 -15 -9 -32 -15 -30 -10 -31 -9 -14 4 18 14
46 20 46 11z m-270 -16 c0 -5 -10 -10 -22 -10 -19 0 -20 2 -8 10 19 13 30 13
30 0z m180 -10 c0 -5 -12 -10 -27 -9 l-28 1 25 8 c14 4 26 8 28 9 1 1 2 -3 2
-9z m-250 -10 c0 -5 -4 -10 -10 -10 -5 0 -10 5 -10 10 0 6 5 10 10 10 6 0 10
-4 10 -10z"/>
<path d="M541 3594 c0 -11 3 -14 6 -6 3 7 2 16 -1 19 -3 4 -6 -2 -5 -13z"/>
<path d="M2256 3579 c-22 -5 -47 -16 -56 -24 -9 -8 -22 -15 -28 -15 -21 0 -13
-39 27 -125 23 -49 57 -103 82 -127 23 -24 47 -57 55 -74 15 -36 151 -174 171
-174 7 0 13 -4 13 -9 0 -13 107 -85 186 -124 53 -27 74 -33 83 -24 8 8 11 8
11 -1 0 -10 5 -10 20 -2 21 11 40 6 40 -11 0 -6 -4 -7 -10 -4 -5 3 -10 1 -10
-4 0 -15 60 -7 71 10 12 19 11 29 -1 29 -5 0 -9 -5 -7 -11 1 -6 -3 -13 -9 -15
-16 -6 -12 90 5 110 8 9 11 19 8 23 -4 3 -9 -2 -13 -11 -13 -33 -21 -14 -18
42 3 47 2 51 -5 24 -13 -50 -24 -52 -18 -4 3 24 14 54 25 65 10 12 22 31 26
42 5 15 9 16 15 6 7 -11 13 -9 30 8 25 25 57 27 97 7 15 -8 32 -12 37 -9 6 3
7 1 3 -5 -3 -6 -1 -14 5 -18 6 -3 15 -1 19 6 5 8 13 2 26 -20 l19 -31 6 38 c4
21 3 43 -2 49 -11 14 1 56 20 71 14 11 14 12 -2 13 -10 0 -16 4 -12 9 3 5 1
12 -5 16 -14 9 -12 28 3 22 6 -2 11 -10 9 -16 -1 -6 5 -14 13 -17 8 -4 15 -12
15 -20 0 -8 5 -14 11 -14 7 0 8 7 4 18 -4 9 -9 24 -10 32 -5 30 -35 89 -60
116 -14 15 -25 30 -25 34 0 4 -9 10 -20 13 -21 5 -29 -16 -9 -28 6 -5 4 -12
-8 -22 -17 -13 -16 -14 11 -8 22 5 27 3 23 -8 -3 -8 -1 -19 5 -25 6 -6 12 -25
14 -42 3 -28 2 -31 -11 -20 -19 16 -77 22 -68 7 4 -6 -2 -8 -15 -5 -12 4 -24
2 -27 -3 -4 -5 -13 -4 -23 1 -9 6 -29 14 -44 20 -20 6 -28 17 -28 32 0 38 -12
68 -25 68 -7 0 -15 -6 -18 -12 -3 -9 -10 -6 -22 10 -9 12 -25 22 -36 22 -14 0
-19 7 -19 25 0 14 -4 25 -9 25 -5 0 -16 16 -25 35 -16 33 -56 51 -56 24 0 -6
-6 -9 -12 -6 -7 2 -24 0 -37 -5 -17 -6 -27 -5 -32 3 -9 14 -29 3 -29 -17 0
-18 -5 -18 -35 2 -14 9 -48 18 -76 19 -28 1 -54 6 -58 11 -8 12 -127 14 -175
3z m839 -269 c-3 -5 -14 -10 -23 -9 -14 0 -13 2 3 9 27 11 27 11 20 0z m10
-40 c-3 -5 -10 -10 -16 -10 -5 0 -9 5 -9 10 0 6 7 10 16 10 8 0 12 -4 9 -10z
m-658 -42 c-3 -8 -6 -5 -6 6 -1 11 2 17 5 13 3 -3 4 -12 1 -19z m-70 -18 c-4
-27 -17 -38 -17 -13 0 18 8 33 17 33 1 0 2 -9 0 -20z m759 -7 c7 -10 14 -24
14 -32 0 -8 -9 -2 -20 12 -11 14 -20 28 -20 31 0 12 13 6 26 -11z m-656 -63
c0 -5 -5 -10 -11 -10 -5 0 -7 5 -4 10 3 6 8 10 11 10 2 0 4 -4 4 -10z m338
-111 c-3 -8 -7 -3 -11 10 -4 17 -3 21 5 13 5 -5 8 -16 6 -23z m53 -81 c8 -13
-1 -58 -12 -58 -5 0 -6 7 -3 15 4 8 1 15 -5 15 -6 0 -11 -4 -11 -10 0 -5 -16
-9 -35 -8 -34 1 -51 18 -19 18 11 0 14 5 10 16 -3 9 -4 20 -1 25 7 10 67 0 76
-13z"/>
<path d="M2800 2949 c0 -5 5 -7 10 -4 6 3 10 8 10 11 0 2 -4 4 -10 4 -5 0 -10
-5 -10 -11z"/>
<path d="M2990 3550 c0 -5 5 -10 11 -10 5 0 7 5 4 10 -3 6 -8 10 -11 10 -2 0
-4 -4 -4 -10z"/>
<path d="M3710 3531 c0 -6 4 -13 10 -16 6 -3 7 1 4 9 -7 18 -14 21 -14 7z"/>
<path d="M2810 3480 c0 -5 5 -10 11 -10 5 0 7 5 4 10 -3 6 -8 10 -11 10 -2 0
-4 -4 -4 -10z"/>
<path d="M3825 3472 c-13 -28 -14 -49 -19 -237 -4 -139 -2 -187 9 -210 l13
-30 2 40 c1 22 2 47 1 55 0 10 1 11 5 3 3 -7 9 -13 14 -13 4 0 1 21 -7 48 -8
26 -13 63 -11 84 2 20 0 34 -4 32 -5 -3 -8 4 -8 15 0 10 5 21 10 23 7 2 7 15
0 38 -6 22 -6 38 0 44 7 7 10 3 11 -9 0 -11 3 -14 6 -8 2 7 -3 23 -11 35 -20
29 -20 42 0 34 15 -6 15 -3 -1 20 -16 24 -16 26 -1 21 10 -4 16 -1 16 8 0 22
-17 27 -25 7z"/>
<path d="M3778 3433 c5 -21 7 -23 10 -9 2 10 0 22 -6 28 -6 6 -7 0 -4 -19z"/>
<path d="M3667 3435 c-4 -8 -2 -17 3 -20 6 -4 10 3 10 14 0 25 -6 27 -13 6z"/>
<path d="M3295 3430 c-3 -5 -1 -10 4 -10 6 0 11 5 11 10 0 6 -2 10 -4 10 -3 0
-8 -4 -11 -10z"/>
<path d="M2940 3419 c0 -5 5 -7 10 -4 6 3 10 8 10 11 0 2 -4 4 -10 4 -5 0 -10
-5 -10 -11z"/>
<path d="M3381 3335 c17 -38 34 -65 46 -69 7 -3 1 11 -14 32 -34 46 -37 49
-32 37z"/>
<path d="M3856 3283 c-3 -10 -2 -31 3 -48 9 -28 9 -27 10 18 1 49 -4 60 -13
30z"/>
<path d="M3645 3280 c3 -5 8 -10 11 -10 2 0 4 5 4 10 0 6 -5 10 -11 10 -5 0
-7 -4 -4 -10z"/>
<path d="M3550 3265 c0 -8 2 -15 4 -15 2 0 6 7 10 15 3 8 1 15 -4 15 -6 0 -10
-7 -10 -15z"/>
<path d="M3625 3250 c2 -27 15 -38 15 -12 0 11 -4 23 -8 26 -5 3 -8 -4 -7 -14z"/>
<path d="M3534 3247 c3 -10 6 -23 6 -29 0 -6 7 -8 15 -4 8 3 15 1 15 -5 0 -6
5 -7 10 -4 6 3 10 -2 10 -12 0 -10 5 -25 10 -33 8 -11 10 -8 8 15 -2 17 -11
36 -21 43 -9 7 -14 19 -10 25 4 8 1 7 -9 -1 -14 -11 -18 -10 -28 5 -11 17 -11
17 -6 0z"/>
<path d="M3211 3224 c0 -11 3 -14 6 -6 3 7 2 16 -1 19 -3 4 -6 -2 -5 -13z"/>
<path d="M7790 3220 c0 -5 5 -10 10 -10 6 0 10 5 10 10 0 6 -4 10 -10 10 -5 0
-10 -4 -10 -10z"/>
<path d="M3650 3211 c0 -5 5 -13 10 -16 6 -3 10 -2 10 4 0 5 -4 13 -10 16 -5
3 -10 2 -10 -4z"/>
<path d="M8782 3195 c0 -16 2 -22 5 -12 2 9 2 23 0 30 -3 6 -5 -1 -5 -18z"/>
<path d="M7885 3180 c3 -5 8 -10 11 -10 2 0 4 5 4 10 0 6 -5 10 -11 10 -5 0
-7 -4 -4 -10z"/>
<path d="M3850 3161 c0 -6 5 -13 10 -16 6 -3 10 1 10 9 0 9 -4 16 -10 16 -5 0
-10 -4 -10 -9z"/>
<path d="M7794 3163 c10 -11 36 -12 36 -2 0 5 -10 9 -22 9 -12 0 -18 -3 -14
-7z"/>
<path d="M7916 3148 c5 -17 3 -19 -16 -13 -15 5 -20 4 -16 -4 4 -6 13 -11 21
-11 7 0 16 -8 18 -17 4 -17 5 -17 6 0 1 22 2 21 46 -4 29 -17 34 -18 29 -5 -8
22 1 20 44 -9 38 -26 72 -33 72 -15 0 6 -7 10 -15 10 -26 0 -16 19 13 23 17 2
9 5 -20 6 -37 1 -53 7 -74 29 -24 25 -25 25 -19 5 8 -29 -18 -32 -37 -5 -7 10
-23 21 -36 24 -19 5 -22 3 -16 -14z"/>
<path d="M3630 3141 c0 -7 -4 -9 -10 -6 -5 3 -10 -1 -10 -9 0 -9 4 -16 9 -16
11 0 24 31 16 38 -3 3 -5 0 -5 -7z"/>
<path d="M3661 3134 c0 -11 3 -14 6 -6 3 7 2 16 -1 19 -3 4 -6 -2 -5 -13z"/>
<path d="M3860 3120 c0 -5 5 -10 11 -10 5 0 7 5 4 10 -3 6 -8 10 -11 10 -2 0
-4 -4 -4 -10z"/>
<path d="M7818 3113 c7 -3 16 -2 19 1 4 3 -2 6 -13 5 -11 0 -14 -3 -6 -6z"/>
<path d="M3108 3087 c-2 -12 -9 -21 -16 -19 -6 1 -12 -2 -12 -8 0 -5 -7 -10
-16 -10 -14 0 -14 -2 0 -22 19 -26 20 -38 5 -38 -5 0 -8 4 -5 8 2 4 -4 13 -15
20 -15 10 -19 10 -19 -1 0 -7 5 -18 12 -25 6 -6 8 -15 3 -19 -4 -5 -10 -2 -12
5 -3 6 -11 12 -19 12 -8 0 -13 -6 -11 -12 1 -9 -8 -12 -26 -10 -18 2 -26 -1
-22 -7 3 -6 13 -11 21 -11 11 0 13 -6 8 -22 -3 -13 -10 -24 -14 -26 -4 -2 -6
-12 -3 -23 6 -22 -24 -51 -42 -42 -7 4 -7 2 0 -5 15 -16 138 -47 158 -39 11 4
17 17 17 38 0 27 2 30 15 19 13 -10 15 -9 15 9 0 18 4 21 20 16 11 -4 20 -2
20 4 0 6 -7 11 -15 11 -14 0 -20 17 -16 47 1 6 -3 14 -8 17 -9 6 7 66 21 76 4
3 3 12 -2 20 -8 13 -10 12 -10 -2 0 -10 -4 -18 -10 -18 -13 0 -13 33 -1 46 6
5 4 14 -4 21 -11 10 -14 8 -17 -10z m-73 -127 c3 -5 -1 -10 -9 -10 -9 0 -16 5
-16 10 0 6 4 10 9 10 6 0 13 -4 16 -10z m-31 -115 c-9 -14 -19 -23 -22 -21 -3
3 0 11 6 19 6 7 7 18 2 27 -5 8 -2 22 8 36 l17 22 3 -28 c2 -16 -4 -41 -14
-55z m63 63 c-3 -8 -6 -5 -6 6 -1 11 2 17 5 13 3 -3 4 -12 1 -19z m30 -20 c-3
-8 -6 -5 -6 6 -1 11 2 17 5 13 3 -3 4 -12 1 -19z"/>
<path d="M7870 3104 c0 -7 27 -34 34 -34 4 0 1 9 -6 20 -12 19 -28 27 -28 14z"/>
<path d="M3050 3074 c0 -8 5 -12 10 -9 6 4 8 11 5 16 -9 14 -15 11 -15 -7z"/>
<path d="M3625 3080 c-3 -5 -2 -10 4 -10 5 0 13 5 16 10 3 6 2 10 -4 10 -5 0
-13 -4 -16 -10z"/>
<path d="M8030 3073 c0 -16 48 -45 55 -33 3 6 1 10 -6 10 -7 0 -21 7 -31 17
-10 9 -18 11 -18 6z"/>
<path d="M3453 3054 c-3 -8 -1 -20 6 -27 8 -8 11 -4 11 16 0 30 -7 35 -17 11z"/>
<path d="M3844 3021 c1 -27 5 -53 9 -57 10 -10 9 78 -2 94 -4 8 -7 -7 -7 -37z"/>
<path d="M7997 3059 c7 -7 15 -10 18 -7 3 3 -2 9 -12 12 -14 6 -15 5 -6 -5z"/>
<path d="M3550 2983 c0 -4 5 -15 10 -23 8 -13 10 -13 10 2 0 9 -4 20 -10 23
-5 3 -10 3 -10 -2z"/>
<path d="M3811 2961 c-1 -27 2 -32 11 -23 8 8 8 17 0 34 -10 22 -11 21 -11
-11z"/>
<path d="M3675 2970 c3 -5 8 -10 11 -10 2 0 4 5 4 10 0 6 -5 10 -11 10 -5 0
-7 -4 -4 -10z"/>
<path d="M3590 2956 c0 -8 4 -17 9 -20 5 -4 7 3 4 14 -6 23 -13 26 -13 6z"/>
<path d="M3531 2943 c0 -12 4 -46 10 -75 10 -47 13 -50 21 -29 6 17 4 31 -6
46 -8 12 -16 35 -19 51 -3 21 -4 23 -6 7z"/>
<path d="M3510 2934 c0 -9 -6 -14 -12 -11 -10 3 -13 -12 -13 -55 0 -57 1 -59
25 -56 14 2 24 8 23 14 -1 6 -5 24 -9 40 -3 16 -6 41 -6 57 1 15 -1 27 -3 27
-3 0 -5 -7 -5 -16z"/>
<path d="M2955 2931 c-3 -5 -1 -12 5 -16 5 -3 10 1 10 9 0 18 -6 21 -15 7z"/>
<path d="M3455 2919 c-4 -6 -5 -12 -2 -15 2 -3 7 2 10 11 7 17 1 20 -8 4z"/>
<path d="M3686 2904 c-4 -9 -4 -19 -1 -22 2 -3 7 3 11 12 4 9 4 19 1 22 -2 3
-7 -3 -11 -12z"/>
<path d="M3578 2865 c2 -14 6 -25 8 -25 2 0 4 11 4 25 0 14 -4 25 -9 25 -4 0
-6 -11 -3 -25z"/>
<path d="M3205 2831 c-11 -19 -14 -51 -5 -51 5 0 12 11 16 25 7 28 0 43 -11
26z"/>
<path d="M3271 2808 c14 -31 29 -37 29 -11 0 9 -3 13 -7 10 -3 -4 -12 1 -20
11 -11 15 -12 13 -2 -10z"/>
<path d="M3455 2810 c-3 -5 -1 -10 4 -10 6 0 11 5 11 10 0 6 -2 10 -4 10 -3 0
-8 -4 -11 -10z"/>
<path d="M8813 2785 c0 -22 2 -30 4 -17 2 12 2 30 0 40 -3 9 -5 -1 -4 -23z"/>
<path d="M3230 2786 c0 -2 7 -6 15 -10 8 -3 15 -1 15 4 0 6 -7 10 -15 10 -8 0
-15 -2 -15 -4z"/>
<path d="M8823 2660 c0 -36 2 -50 4 -32 2 17 2 47 0 65 -2 17 -4 3 -4 -33z"/>
<path d="M5753 2535 c-26 -18 -31 -66 -9 -84 8 -6 33 -17 57 -24 53 -15 66
-50 27 -67 -26 -12 -78 1 -78 20 0 5 -7 10 -15 10 -21 0 -19 -16 5 -40 25 -25
86 -27 118 -4 17 12 22 24 20 47 -3 28 -9 34 -56 53 -67 27 -79 38 -62 59 16
19 64 20 80 0 16 -19 30 -19 30 -1 0 36 -80 58 -117 31z"/>
<path d="M6546 2543 c-3 -3 -6 -19 -6 -34 0 -26 -2 -27 -39 -22 -32 4 -41 2
-55 -18 -22 -32 -21 -101 2 -122 21 -19 67 -23 77 -7 5 8 11 8 19 1 22 -18 26
-1 26 100 0 90 -7 119 -24 102z m-18 -85 c7 -7 12 -29 12 -50 0 -32 -5 -41
-26 -50 -23 -11 -29 -10 -46 12 -42 52 14 134 60 88z"/>
<path d="M6786 2543 c-3 -3 -6 -53 -6 -110 0 -85 3 -103 15 -103 12 0 15 13
15 58 0 62 11 82 46 82 27 0 34 -17 34 -86 0 -41 4 -54 15 -54 22 0 21 107 -1
139 -14 20 -23 22 -55 18 -37 -5 -39 -4 -39 23 0 29 -12 45 -24 33z"/>
<path d="M3423 2516 c-27 -24 -27 -26 -13 -52 10 -19 31 -33 65 -44 60 -20 74
-53 31 -70 -28 -10 -76 2 -76 20 0 5 -7 10 -15 10 -19 0 -19 -24 0 -40 8 -6
32 -14 53 -17 31 -4 44 0 67 19 37 32 30 70 -17 88 -70 26 -79 30 -85 46 -14
36 52 51 87 19 22 -20 36 -15 26 10 -6 17 -46 35 -76 35 -10 0 -32 -11 -47
-24z"/>
<path d="M3769 2523 c0 -10 -3 -54 -5 -97 -6 -89 -1 -114 19 -98 8 7 18 7 27
2 47 -30 90 4 90 73 0 59 -20 80 -72 75 -37 -3 -38 -3 -38 29 0 33 -19 48 -21
16z m99 -75 c27 -27 3 -108 -31 -108 -22 0 -47 34 -47 65 0 36 15 55 45 55 12
0 26 -5 33 -12z"/>
<path d="M4120 2429 c0 -84 3 -110 13 -107 23 8 21 218 -3 218 -6 0 -10 -47
-10 -111z"/>
<path d="M5937 2472 c-24 -26 -23 -104 1 -125 25 -23 65 -21 93 4 l24 21 -22
-6 c-13 -3 -31 -9 -42 -12 -18 -5 -51 18 -51 36 0 5 26 10 58 12 54 3 57 4 54
28 -2 14 -11 33 -19 43 -21 23 -75 22 -96 -1z m82 -21 c13 -24 5 -31 -35 -31
-38 0 -51 14 -34 35 17 21 57 19 69 -4z"/>
<path d="M6098 2465 c-14 -32 -1 -48 52 -64 43 -13 49 -21 24 -42 -12 -10 -22
-10 -47 -1 -37 14 -50 6 -23 -14 44 -31 111 -8 104 37 -2 18 -13 28 -45 39
-29 10 -43 20 -43 32 0 21 39 25 57 7 6 -6 17 -9 23 -7 24 8 -20 38 -56 38
-27 0 -37 -5 -46 -25z"/>
<path d="M6250 2427 c0 -49 4 -68 18 -80 21 -19 63 -22 79 -6 8 8 13 8 17 0
17 -28 26 -5 26 69 0 64 -3 80 -15 80 -12 0 -15 -13 -15 -60 0 -55 -2 -62 -25
-72 -37 -17 -53 3 -57 70 -2 33 -8 57 -15 60 -10 3 -13 -14 -13 -61z"/>
<path d="M6630 2475 c-18 -22 -7 -28 23 -14 29 13 57 6 57 -14 0 -9 -15 -17
-39 -21 -45 -7 -64 -26 -59 -58 4 -29 51 -47 78 -30 12 7 21 8 25 2 15 -25 25
-5 25 51 0 81 -11 99 -59 99 -22 0 -44 -6 -51 -15z m80 -79 c0 -18 -27 -46
-44 -46 -14 0 -36 20 -36 32 0 10 38 26 63 27 9 1 17 -5 17 -13z"/>
<path d="M3610 2460 c-43 -43 -10 -140 49 -140 30 0 74 27 66 41 -3 5 -17 1
-31 -8 -20 -13 -30 -14 -50 -4 -16 7 -24 18 -22 29 3 13 14 17 53 17 57 0 69
18 41 60 -21 32 -77 34 -106 5z m88 -27 c3 -20 -1 -23 -33 -23 -38 0 -59 25
-34 41 25 17 64 6 67 -18z"/>
<path d="M3956 2458 c-36 -51 -8 -138 43 -138 33 0 71 19 71 35 0 19 -14 19
-30 0 -25 -30 -80 -5 -66 31 4 11 17 15 53 12 48 -3 48 -3 46 27 -3 36 -26 55
-69 55 -23 0 -38 -7 -48 -22z m82 -10 c7 -7 12 -18 12 -25 0 -11 -17 -12 -72
-4 -5 0 -8 7 -8 15 0 25 48 34 68 14z"/>
<path d="M4190 2420 c0 -85 36 -119 93 -89 16 9 22 9 25 0 10 -31 22 8 22 75
0 56 -3 75 -12 72 -14 -5 -15 -8 -17 -73 -1 -38 -5 -47 -26 -57 -39 -18 -55 3
-55 73 0 46 -3 59 -15 59 -12 0 -15 -13 -15 -60z"/>
<path d="M4380 2398 c0 -45 4 -78 10 -78 6 0 10 24 10 53 0 60 17 91 46 85 16
-3 20 -14 24 -67 7 -87 28 -94 32 -10 3 65 19 88 52 76 12 -5 16 -20 16 -72 0
-51 3 -65 15 -65 12 0 15 13 15 61 0 79 -11 99 -55 99 -18 0 -37 -5 -40 -10
-5 -8 -11 -8 -20 0 -7 5 -33 9 -59 9 l-46 -2 0 -79z"/>
<path d="M1900 2344 c0 -8 5 -12 10 -9 6 3 10 10 10 16 0 5 -4 9 -10 9 -5 0
-10 -7 -10 -16z"/>
<path d="M2906 2163 c-10 -10 -7 -53 4 -53 6 0 10 10 10 23 0 16 3 18 9 8 6
-9 11 -10 15 -3 7 12 -28 35 -38 25z"/>
<path d="M9260 1753 c0 -5 5 -15 10 -23 8 -12 10 -11 10 8 0 12 -4 22 -10 22
-5 0 -10 -3 -10 -7z"/>
<path d="M217 1693 c-10 -9 -9 -23 2 -23 5 0 11 7 15 15 5 15 -5 20 -17 8z"/>
<path d="M9612 1588 c-69 -33 -124 -117 -141 -212 l-7 -41 -119 0 c-66 0 -126
-4 -133 -8 -8 -6 -11 -23 -7 -55 3 -26 10 -153 15 -282 20 -467 20 -470 49
-501 l26 -29 419 -2 419 -2 27 31 c22 24 28 43 33 99 9 97 30 540 31 654 l1
95 -125 0 -125 0 -15 60 c-9 33 -24 74 -32 90 -20 38 -73 88 -115 109 -46 23
-147 20 -201 -6z m176 -52 c58 -31 105 -102 114 -171 l3 -30 -183 -3 c-204 -3
-201 -4 -183 65 15 54 61 116 102 136 42 20 111 22 147 3z m45 -368 c47 -21
59 -42 36 -65 -9 -9 -22 -7 -53 9 -48 24 -132 29 -169 9 -31 -17 -52 -62 -43
-95 8 -31 45 -57 121 -85 140 -52 191 -105 183 -190 -9 -97 -75 -146 -194
-146 -59 0 -80 5 -130 30 -63 32 -73 48 -49 79 13 18 16 18 32 4 65 -56 183
-71 240 -30 43 31 52 66 27 111 -16 30 -33 42 -109 74 -49 20 -101 43 -115 51
-39 22 -70 74 -70 118 0 130 140 190 293 126z"/>
<path d="M915 1530 c3 -5 8 -10 11 -10 2 0 4 5 4 10 0 6 -5 10 -11 10 -5 0 -7
-4 -4 -10z"/>
<path d="M4100 1401 c-93 -30 -151 -91 -184 -193 -5 -16 -20 -18 -136 -18
l-130 0 0 -480 0 -480 385 0 c363 0 387 1 439 20 73 28 147 99 183 175 l28 60
3 353 3 352 -133 0 -134 0 -13 44 c-16 56 -71 120 -124 148 -45 22 -145 33
-187 19z m184 -94 c33 -26 76 -91 76 -117 0 -5 -12 -10 -27 -11 -16 0 -59 -10
-98 -22 l-70 -23 -63 23 c-35 13 -76 23 -92 23 -34 0 -38 15 -16 58 15 29 58
72 91 91 12 7 50 10 91 9 60 -3 77 -8 108 -31z m-199 -186 c74 -29 91 -29 185
-2 54 16 117 23 228 28 l152 6 0 -169 c-1 -166 -1 -168 -17 -124 -21 62 -71
121 -128 149 -104 52 -242 19 -308 -75 -27 -38 -32 -42 -40 -27 -37 70 -131
123 -217 123 -62 0 -141 -32 -176 -71 -33 -36 -64 -100 -64 -131 0 -16 -5 -28
-11 -28 -7 0 -9 9 -5 23 3 12 6 91 6 176 l0 153 168 -4 c143 -4 176 -8 227
-27z m-55 -153 c124 -63 155 -217 64 -318 -45 -49 -90 -70 -153 -70 -116 0
-201 87 -201 205 0 156 153 252 290 183z m457 -3 c32 -16 61 -41 79 -67 25
-36 29 -50 29 -114 0 -64 -3 -77 -30 -116 -38 -55 -102 -88 -169 -88 -149 0
-248 152 -187 286 50 110 170 153 278 99z m-787 -228 c1 -62 73 -153 146 -183
38 -16 102 -20 160 -10 41 7 41 7 102 -60 l60 -68 64 69 64 69 46 -13 c117
-33 246 39 290 161 l19 53 -4 -130 c-3 -104 -8 -139 -24 -177 -29 -65 -94
-131 -156 -159 -51 -24 -58 -24 -414 -27 l-363 -3 0 233 c0 128 -3 244 -7 257
-4 17 -3 22 5 17 7 -4 12 -17 12 -29z m471 -90 c-13 -13 -26 -3 -16 12 3 6 11
8 17 5 6 -4 6 -10 -1 -17z m66 -61 l27 -24 -47 -48 -46 -49 -46 45 c-25 24
-45 50 -45 57 0 19 50 42 92 43 25 0 46 -8 65 -24z"/>
<path d="M3976 886 c13 -52 -42 -97 -91 -74 -14 6 -25 15 -25 20 0 5 -4 6 -10
3 -16 -10 -12 -94 6 -125 22 -37 64 -60 109 -60 133 0 179 162 66 237 -45 30
-63 30 -55 -1z"/>
<path d="M4377 878 c4 -30 1 -38 -22 -56 -34 -27 -46 -27 -78 -2 l-25 20 -6
-23 c-10 -39 -6 -71 14 -104 37 -62 125 -82 181 -42 95 67 69 207 -43 234 -26
7 -27 6 -21 -27z"/>
<path d="M443 724 c-9 -4 -13 -30 -13 -80 l0 -74 53 0 c29 0 58 5 65 12 15 15
15 51 0 66 -8 8 -8 15 2 27 11 13 11 19 -2 31 -16 16 -84 28 -105 18z m77 -38
c0 -18 -47 -27 -54 -10 -6 17 3 24 31 24 13 0 23 -6 23 -14z m5 -66 c0 -9 -11
-16 -27 -18 -23 -3 -28 1 -28 18 0 17 5 21 28 18 16 -2 27 -9 27 -18z"/>
<path d="M624 693 c-9 -21 -24 -57 -34 -80 -18 -42 -18 -43 0 -43 10 0 22 9
25 20 5 14 15 20 37 20 21 0 31 -6 35 -20 3 -11 14 -20 24 -20 17 0 16 5 -7
68 -40 104 -56 115 -80 55z m45 -55 c1 -5 -8 -8 -19 -8 -23 0 -24 4 -8 33 11
21 11 21 19 2 4 -11 8 -23 8 -27z"/>
<path d="M757 723 c-4 -3 -7 -39 -7 -80 l0 -73 43 0 c58 0 78 17 84 72 5 40 2
47 -22 66 -26 21 -84 30 -98 15z m84 -50 c16 -44 4 -73 -31 -73 -29 0 -30 1
-30 50 0 47 2 50 25 50 19 0 28 -8 36 -27z"/>
<path d="M952 718 c-6 -7 -22 -43 -36 -80 -23 -63 -24 -68 -7 -68 10 0 21 9
24 20 4 15 14 20 36 20 20 0 34 -7 41 -20 6 -11 17 -20 24 -20 12 0 11 9 -3
48 -37 101 -57 126 -79 100z m28 -47 c0 -5 3 -16 6 -25 4 -11 0 -14 -15 -13
-14 1 -20 6 -16 15 3 7 5 18 5 23 0 5 5 9 10 9 6 0 10 -4 10 -9z"/>
<path d="M1070 650 c0 -66 3 -80 16 -80 12 0 14 8 8 45 -3 25 -2 45 3 45 4 0
19 -20 33 -45 15 -27 32 -45 42 -45 16 0 18 10 18 80 0 64 -3 80 -15 80 -11 0
-15 -13 -15 -52 l0 -53 -31 53 c-45 76 -59 70 -59 -28z"/>
<path d="M1469 716 c-78 -38 -24 -169 58 -140 35 12 55 65 41 106 -6 15 -11
28 -12 28 0 0 -15 4 -32 9 -21 6 -40 5 -55 -3z m65 -22 c20 -19 21 -78 2 -93
-8 -7 -27 -11 -43 -9 -23 2 -30 10 -38 42 -8 34 -7 40 14 57 28 23 45 24 65 3z"/>
<path d="M1290 645 c0 -82 19 -106 22 -27 0 26 2 54 2 62 1 8 -3 18 -9 22 -5
5 6 5 25 2 65 -12 73 -53 11 -54 -18 0 -22 -3 -14 -11 14 -14 61 -1 73 21 17
31 -15 60 -66 60 l-44 0 0 -75z"/>
<path d="M1610 645 c0 -49 4 -75 11 -75 8 0 10 21 7 65 -3 51 -1 64 9 61 7 -3
13 1 13 9 0 8 -9 15 -20 15 -18 0 -20 -7 -20 -75z"/>
<path d="M1706 712 c-2 -4 -7 -25 -11 -47 -9 -51 -24 -80 -25 -48 0 12 -4 25
-10 28 -13 8 -13 -4 1 -44 16 -45 31 -34 44 32 16 80 25 81 25 4 0 -38 4 -67
10 -67 6 0 10 32 10 75 0 68 -2 75 -19 75 -11 0 -22 -3 -25 -8z"/>
<path d="M9179 329 c-13 -13 -19 -30 -17 -47 2 -22 15 -33 71 -60 55 -26 67
-36 67 -56 0 -13 -7 -29 -15 -36 -15 -12 -75 -10 -107 4 -12 5 -18 4 -18 -3 0
-7 17 -19 37 -27 73 -31 146 19 122 83 -5 14 -31 34 -66 50 -47 23 -59 33 -61
55 -4 33 21 43 81 33 38 -7 40 -6 28 9 -20 24 -96 21 -122 -5z"/>
<path d="M9360 220 c0 -80 4 -130 10 -130 6 0 10 21 10 48 0 56 21 92 55 92
34 0 55 -36 55 -92 0 -27 5 -48 10 -48 6 0 10 24 10 54 0 39 -6 60 -22 81 -19
24 -26 27 -65 22 l-43 -5 0 54 c0 30 -4 54 -10 54 -6 0 -10 -50 -10 -130z"/>
<path d="M9561 224 c-28 -35 -26 -69 4 -99 50 -51 135 -17 135 55 0 65 -98 96
-139 44z m101 -11 c39 -35 7 -98 -48 -91 -18 2 -34 13 -43 29 -13 24 -13 29 2
53 20 30 61 35 89 9z"/>
<path d="M9740 128 c0 -72 4 -118 10 -118 6 0 10 23 10 51 0 45 2 50 18 43 35
-16 75 -7 99 20 30 35 29 71 -2 102 -21 21 -33 24 -80 22 l-55 -2 0 -118z
m105 96 c27 -11 38 -53 20 -80 -29 -44 -105 -23 -105 28 0 43 42 68 85 52z"/>
<path d="M9958 233 c-9 -10 -19 -28 -22 -40 -8 -26 16 -78 39 -87 21 -8 69 -8
89 0 31 12 15 24 -23 18 -42 -7 -81 8 -81 31 0 15 20 19 92 15 33 -1 36 0 31
22 -10 39 -33 58 -73 58 -23 0 -43 -7 -52 -17z m90 -15 c22 -22 13 -28 -38
-28 -27 0 -50 4 -50 8 0 16 25 32 50 32 14 0 31 -5 38 -12z"/>
<path d="M10145 230 c-27 -30 -25 -88 4 -111 37 -30 136 -21 116 10 -5 9 -10
9 -20 1 -19 -16 -76 -8 -89 12 -15 25 -4 30 58 29 52 0 56 1 56 23 0 53 -87
77 -125 36z m93 -12 c22 -22 13 -28 -38 -28 -27 0 -50 4 -50 8 0 16 25 32 50
32 14 0 31 -5 38 -12z"/>
</g>
</svg>
